# https://github.com/mikedh/trimesh
v 29.76044102 -0.02288103 62.65895605
v 20.02908362 22.01735258 62.65895605
v 46.20484634 -0.02288103 62.65895605
v 29.76044102 -0.02288103 94.79759216
v 20.02908362 41.55977368 62.65895605
v 20.02908362 22.01735258 94.79759216
v 46.20484634 1.20361269 62.65895605
v 46.20484634 -0.02288103 99.59609985
v 29.77581365 -0.02288103 97.19894886
v 20.02908362 22.04180002 105.61000586
v 20.02908362 22.02142596 97.19894886
v 20.78238024 41.16452694 62.65895605
v 20.02908362 41.60459518 104.39881325
v 20.87462051 41.19304776 105.62262297
v 21.48443146 40.88744402 105.62262297
v 45.97168191 3.60363185 62.65895605
v 46.20484634 1.20361269 99.59609985
v 46.20228214 1.20361269 105.62262297
v 46.19972153 -0.02288103 105.62262297
v 29.83474536 -0.02288103 105.62262297
v 20.04189475 22.03365147 105.62262297
v 20.02908362 26.26729846 105.62262297
v 21.51261611 40.77742338 62.65895605
v 22.07374497 40.57776332 105.62262297
v 20.02908362 41.58829451 105.62262297
v 45.73339446 6.00364923 62.65895605
v 45.97168191 3.60363185 101.99745655
v 46.08954354 2.38121152 105.62262297
v 23.69563742 39.60797668 62.65895605
v 22.87828608 40.13769150 105.62262297
v 45.44130011 8.40366751 62.65895605
v 45.44386251 8.40366751 101.99745655
v 45.73339446 6.00364923 101.99745655
v 45.96911950 3.60363185 105.62262297
v 25.32521708 38.68301153 62.65895605
v 23.69563742 39.66502190 105.62262297
v 44.90066869 10.80368578 62.65895605
v 44.92373033 10.80368578 105.62262297
v 45.44386251 8.40366751 105.62262297
v 45.72826965 6.00364923 104.39881325
v 45.84869547 4.78122890 105.62262297
v 26.52690394 37.81916857 62.65895605
v 25.33802821 38.69523525 101.99745655
v 24.49761613 39.19235229 105.62262297
v 43.44532175 15.60372233 62.65895605
v 44.63163419 11.76532209 105.62262297
v 45.72314663 6.00364923 105.62262297
v 27.12390466 37.35057592 62.65895605
v 26.53971507 37.82731533 101.99745655
v 28.09498949 36.63342118 104.39881325
v 28.71505006 36.15667820 105.62262297
v 25.33034189 38.69523525 104.39881325
v 26.52946634 37.83139229 104.39881325
v 25.30728204 38.68708849 105.62262297
v 42.54597707 18.00373971 62.65895605
v 42.55622668 18.00373971 104.39881325
v 43.44532175 15.60372233 101.99745655
v 43.95776673 13.96160424 104.39881325
v 44.32672782 12.75955707 105.62262297
v 28.05143221 36.61712408 62.65895605
v 28.10267670 36.62119389 105.62262297
v 29.30436356 35.68808198 105.62262297
v 26.50640650 37.81916857 105.62262297
v 42.27438016 18.59050155 62.65895605
v 41.87979860 19.55213785 105.62262297
v 42.55366428 18.00373971 105.62262297
v 43.44019695 15.60372233 104.39881325
v 43.69898184 14.76432681 105.62262297
v 43.95264192 13.95752907 105.62262297
v 28.78166808 36.02221012 62.65895605
v 30.01922591 35.09724498 105.62262297
v 31.44382758 33.83000493 62.65895605
v 30.71359081 34.43306565 62.65895605
v 41.85161395 19.50324118 62.65895605
v 41.23411579 20.75010896 105.62262297
v 41.46215363 20.23261786 62.65895605
v 40.08879824 22.79970109 62.65895605
v 39.80695172 23.32534075 62.65895605
v 39.36881108 24.14028883 62.65895605
v 43.42994733 15.60372233 105.62262297
v 30.75458659 34.48603749 105.62262297
v 31.91271527 33.43882799 62.65895605
v 40.68323655 21.76064372 105.62262297
v 38.63344951 25.33825994 62.65895605
v 39.37649651 24.14843738 101.99745655
v 31.95371105 33.46327901 105.62262297
v 31.95627345 33.46735239 104.39881325
v 32.36623032 32.97023535 62.65895605
v 39.37137170 24.14028883 104.39881325
v 39.74033458 23.45573187 105.62262297
v 38.16199942 26.01466477 62.65895605
v 37.43944986 27.11076915 105.62262297
v 38.63601191 25.34640849 101.99745655
v 38.63857432 25.33825994 104.39881325
v 32.50202878 32.87651539 105.62262297
v 33.07340725 32.26938128 104.39881325
v 33.06572004 32.24085689 62.65895605
v 38.99984999 24.73112404 105.62262297
v 39.36112387 24.11991477 105.62262297
v 37.43176265 27.05779731 62.65895605
v 36.96031256 27.72197843 105.62262297
v 38.63857432 25.31788588 105.62262297
v 33.06059523 32.26530790 105.62262297
v 34.26996930 30.94101906 104.39881325
v 34.26228209 30.92064500 62.65895605
v 33.79339440 31.43813610 62.65895605
v 36.83476372 27.78717399 62.65895605
v 36.48886247 28.31281543 105.62262297
v 34.25715728 30.93286872 105.62262297
v 35.28973623 29.73082244 105.62262297
v 35.89954896 29.01774287 105.62262297
f 1 2 5
f 1 5 12
f 1 12 23
f 1 23 29
f 1 29 35
f 1 35 42
f 1 42 48
f 1 48 60
f 1 60 70
f 1 70 73
f 1 73 72
f 1 72 82
f 1 82 88
f 1 88 97
f 1 97 106
f 1 106 105
f 1 105 107
f 1 107 100
f 1 100 91
f 1 91 84
f 1 84 79
f 1 79 78
f 1 78 77
f 1 77 76
f 1 76 74
f 1 74 64
f 1 64 55
f 1 55 45
f 1 45 37
f 1 37 31
f 1 31 26
f 1 26 16
f 1 16 7
f 1 7 3
f 1 3 8
f 1 8 19
f 1 19 20
f 1 20 9
f 1 9 4
f 1 4 6
f 1 6 2
f 2 6 11
f 2 11 10
f 2 10 22
f 2 22 25
f 2 25 13
f 2 13 5
f 3 7 17
f 3 17 8
f 4 9 10
f 4 10 11
f 4 11 6
f 5 13 14
f 5 14 15
f 5 15 12
f 7 16 27
f 7 27 17
f 8 17 18
f 8 18 19
f 9 20 10
f 10 20 21
f 10 21 22
f 12 15 24
f 12 24 23
f 13 25 14
f 14 25 22
f 14 22 21
f 14 21 20
f 14 20 19
f 14 19 18
f 14 18 28
f 14 28 34
f 14 34 41
f 14 41 47
f 14 47 39
f 14 39 38
f 14 38 46
f 14 46 59
f 14 59 69
f 14 69 68
f 14 68 80
f 14 80 66
f 14 66 65
f 14 65 75
f 14 75 83
f 14 83 90
f 14 90 99
f 14 99 98
f 14 98 102
f 14 102 92
f 14 92 101
f 14 101 108
f 14 108 111
f 14 111 110
f 14 110 109
f 14 109 103
f 14 103 95
f 14 95 86
f 14 86 81
f 14 81 71
f 14 71 62
f 14 62 51
f 14 51 61
f 14 61 63
f 14 63 54
f 14 54 44
f 14 44 36
f 14 36 30
f 14 30 24
f 14 24 15
f 16 26 33
f 16 33 27
f 17 27 28
f 17 28 18
f 23 24 29
f 24 30 29
f 26 31 32
f 26 32 39
f 26 39 33
f 27 33 34
f 27 34 28
f 29 30 35
f 30 36 35
f 31 37 38
f 31 38 32
f 32 38 39
f 33 39 40
f 33 40 34
f 34 40 41
f 35 36 43
f 35 43 42
f 36 44 43
f 37 45 38
f 38 45 46
f 39 47 40
f 40 47 41
f 42 43 49
f 42 49 50
f 42 50 51
f 42 51 48
f 43 44 52
f 43 52 53
f 43 53 49
f 44 54 52
f 45 55 56
f 45 56 57
f 45 57 58
f 45 58 59
f 45 59 46
f 48 51 60
f 49 53 50
f 50 53 51
f 51 53 61
f 51 62 60
f 52 54 53
f 53 54 63
f 53 63 61
f 55 64 65
f 55 65 56
f 56 65 66
f 56 66 57
f 57 66 67
f 57 67 58
f 58 67 68
f 58 68 69
f 58 69 59
f 60 62 70
f 62 71 72
f 62 72 73
f 62 73 70
f 64 74 65
f 65 74 76
f 65 76 77
f 65 77 78
f 65 78 79
f 65 79 75
f 66 80 67
f 67 80 68
f 71 81 72
f 72 81 82
f 75 79 83
f 79 84 85
f 79 85 83
f 81 86 87
f 81 87 82
f 82 87 88
f 83 85 89
f 83 89 90
f 84 91 92
f 84 92 93
f 84 93 85
f 85 93 94
f 85 94 89
f 86 95 87
f 87 95 96
f 87 96 97
f 87 97 88
f 89 94 98
f 89 98 99
f 89 99 90
f 91 100 92
f 92 102 94
f 92 94 93
f 92 100 101
f 94 102 98
f 95 103 96
f 96 103 104
f 96 104 105
f 96 105 106
f 96 106 97
f 100 107 108
f 100 108 101
f 103 109 104
f 104 109 110
f 104 110 111
f 104 111 105
f 105 111 108
f 105 108 107

