# https://github.com/mikedh/trimesh
v 41.66188164 -1.20400786 16.83252454
v 41.66066570 0.17712973 16.83070421
v 31.22409387 0.17712973 16.83252454
v 41.66188164 -6.01405084 16.83252454
v 41.60228653 -6.01041466 -1.75104171
v 41.60107060 0.17712973 6.00151062
v 29.76095511 0.17712973 16.83252454
v 41.64120538 -6.01405084 16.83252454
v 41.60107060 -6.01405084 -1.19975746
v 33.12021537 -6.01405084 -1.75104171
v 41.58039434 -5.44680923 -1.75104171
v 40.59888644 -2.74937890 -1.75104171
v 40.59888644 0.17712973 3.43066916
v 29.23797174 -6.01405084 15.59895515
v 29.24040361 -6.00677848 16.83252454
v 29.76095511 0.17712973 13.19913983
v 30.28758807 -6.01405084 -1.75104171
v 39.96400757 -1.86154805 -1.75104171
v 37.93410106 0.17712973 2.85937071
v 39.84116776 -1.83367085 -1.75104171
v 29.23797174 -6.01405084 15.58440149
v 29.76338787 0.17712973 12.17662543
v 29.23918767 -6.01405084 13.18458438
v 30.41286065 -5.93344957 -1.75104171
v 29.41797478 -6.01405084 4.94624645
v 29.96041937 0.17712973 8.39950740
v 31.10490186 0.17712973 6.41269997
v 38.59451993 -1.83367085 -1.75104171
v 29.78284819 0.17712973 10.79932362
v 29.26959319 -6.01405084 10.78476906
v 30.89327647 -5.62740505 -1.75104171
v 29.36324431 -6.01405084 5.69402844
v 29.84001143 0.17712973 9.77680922
f 1 2 3
f 1 3 7
f 1 7 15
f 1 15 8
f 1 8 4
f 1 4 5
f 1 5 2
f 2 5 6
f 2 6 13
f 2 13 19
f 2 19 27
f 2 27 26
f 2 26 33
f 2 33 29
f 2 29 22
f 2 22 16
f 2 16 7
f 2 7 3
f 4 8 14
f 4 14 21
f 4 21 23
f 4 23 30
f 4 30 32
f 4 32 25
f 4 25 17
f 4 17 10
f 4 10 9
f 4 9 5
f 5 9 10
f 5 10 17
f 5 17 24
f 5 24 31
f 5 31 28
f 5 28 20
f 5 20 18
f 5 18 12
f 5 12 11
f 5 11 6
f 6 11 12
f 6 12 13
f 7 14 15
f 7 16 21
f 7 21 14
f 8 15 14
f 12 18 13
f 13 18 20
f 13 20 19
f 16 22 23
f 16 23 21
f 17 25 26
f 17 26 27
f 17 27 24
f 19 20 28
f 19 28 27
f 22 29 30
f 22 30 23
f 24 27 31
f 25 32 33
f 25 33 26
f 27 28 31
f 29 33 32
f 29 32 30

