# https://github.com/mikedh/trimesh
v 41.65740056 18.17792058 -120.44680595
v 41.65740056 18.66691768 -120.45527458
v 41.99577375 18.17792058 -120.43833733
v 41.65740056 18.17792058 -33.97087455
v 42.07836611 18.17792058 -120.39600849
v 41.65740056 19.49926436 -120.17591000
v 41.80001898 19.39961135 -120.14204979
v 42.79290838 18.17792058 -33.97087455
v 41.65928884 19.99860227 -33.97087455
v 41.65740056 19.99913692 -33.97933960
v 42.45108946 18.17792058 -118.96532536
v 41.65740056 19.71497297 -119.81188774
v 41.65740056 19.86614585 -118.79601717
v 41.85337706 19.49944317 -118.79601717
v 42.46376200 18.17792058 -118.79601717
v 42.13994963 19.58412230 -33.97087455
f 1 2 3
f 1 3 5
f 1 5 11
f 1 11 15
f 1 15 8
f 1 8 4
f 1 4 10
f 1 10 13
f 1 13 12
f 1 12 6
f 1 6 2
f 2 5 3
f 2 6 7
f 2 7 5
f 4 8 16
f 4 16 9
f 4 9 10
f 5 7 11
f 6 12 7
f 7 12 13
f 7 13 14
f 7 14 15
f 7 15 11
f 8 15 14
f 8 14 16
f 9 16 13
f 9 13 10
f 13 16 14

