# https://github.com/mikedh/trimesh
v 41.66237517 18.17792058 62.65896320
v 23.67504968 18.17792058 62.65896320
v 41.66237517 6.89061821 62.65896320
v 41.66237517 18.17792058 18.46948385
v 28.98567690 6.89061821 62.65896320
v 23.63976253 18.17792058 1.49799407
v 41.66237517 6.89061821 16.84059262
v 41.66237517 18.17350030 16.94918454
v 41.62179513 18.17792058 -16.58269286
v 28.98567690 6.89061821 13.20273668
v 23.63976253 18.17792058 1.20324254
v 41.65178938 6.89061821 -16.58269286
v 41.66237517 15.59695601 16.84059262
v 41.66237517 17.98898935 16.86386168
v 41.65178938 15.59916615 -16.58269286
v 41.64825959 17.47633159 -16.58269286
v 41.64649649 17.99893141 -16.58269286
v 41.62885292 18.13151658 -16.58269286
v 23.68387057 18.17792058 -16.58269286
v 23.64152743 18.17792058 -5.99490166
v 29.00684936 6.89061821 -16.58269286
f 1 2 5
f 1 5 3
f 1 3 7
f 1 7 13
f 1 13 14
f 1 14 8
f 1 8 4
f 1 4 9
f 1 9 19
f 1 19 20
f 1 20 11
f 1 11 6
f 1 6 2
f 2 6 5
f 3 5 10
f 3 10 21
f 3 21 12
f 3 12 7
f 4 8 9
f 5 6 11
f 5 11 10
f 7 12 15
f 7 15 13
f 8 14 15
f 8 15 16
f 8 16 17
f 8 17 18
f 8 18 9
f 9 18 17
f 9 17 16
f 9 16 15
f 9 15 12
f 9 12 21
f 9 21 19
f 10 11 20
f 10 20 21
f 13 15 14
f 19 21 20

