# https://github.com/mikedh/trimesh
v 46.41336484 6.89061821 -19.18178558
v 41.60210414 6.89061821 -1.75286293
v 46.41336484 1.07914612 -19.18178558
v 46.41336484 6.89061821 -32.80612707
v 29.31121035 6.89061821 -1.75286293
v 41.60210414 5.99969655 -1.75286293
v 40.84287985 3.47598709 -1.75286293
v 41.60210414 1.07914612 -6.01119876
v 46.41336484 1.07914612 -33.43440771
v 46.41336484 5.99969655 -32.91084051
v 46.20351060 1.20032519 -116.39049053
v 45.97147806 3.60001065 -116.39049053
v 45.73432787 5.99969655 -116.39049053
v 45.62513514 6.89061821 -116.39049053
v 29.44087548 6.58283472 -1.75286293
v 29.20543028 6.89061821 -2.86980271
v 29.96977223 1.07914612 -8.40796351
v 39.96252163 1.86140500 -1.75286293
v 40.59208079 1.07914612 -3.41663718
v 46.41336484 1.20032519 -33.43440771
v 46.20351060 1.07914612 -116.39049053
v 46.05337305 1.20032519 -118.79889250
v 45.63878579 5.99969655 -118.79889250
v 45.55347903 6.89061821 -118.79889250
v 45.61319394 6.89061821 -117.28636265
v 30.89448972 5.62022969 -1.75286293
v 31.06168969 1.07914612 -6.41841531
v 29.12012441 6.89061821 -5.11531949
v 29.90835233 1.07914612 -10.80473185
v 38.59421237 1.83352813 -1.75286293
v 39.93181033 1.78573921 -1.78776741
v 37.95271201 1.07914612 -2.84653187
v 46.05337305 1.07914612 -118.79889250
v 44.99728365 1.20032519 -120.48594475
v 44.81814070 5.99969655 -120.60228825
v 44.78743119 6.89061821 -120.61391830
v 45.30267997 6.89061821 -119.47370768
v 37.92712016 1.07914612 -2.85816908
v 37.93223782 2.15041414 -1.75286293
v 29.07747103 6.89061821 -7.51208425
v 29.80086638 1.07914612 -15.60990214
v 38.62662955 1.78573921 -1.78776741
v 44.99728365 1.07914612 -120.48594475
v 44.88638504 3.60001065 -120.55573940
v 43.26727672 5.99969655 -120.60228825
v 43.20415003 6.89061821 -120.61391830
v 28.98704661 6.89061821 -18.00667048
v 29.76162566 1.07914612 -18.00667048
v 43.49930926 1.07914612 -120.48594475
v 43.38158710 3.60001065 -120.55573940
v 42.75885327 6.89061821 -120.31142235
v 28.98534073 6.89061821 -19.51919317
v 29.76162566 1.07914612 -99.58984852
v 42.35962076 1.07914612 -119.45044041
v 42.00474663 6.89061821 -119.69477177
v 28.98534073 6.89061821 -97.19307661
v 28.98704661 6.89061821 -99.58984852
v 29.00581403 6.89061821 -101.10237122
v 29.76333155 1.07914612 -99.71782923
v 42.29990764 1.07914612 -119.39226151
v 41.54409511 6.89061821 -119.25264359
v 29.01775701 6.89061821 -101.99824333
v 29.79916049 1.07914612 -101.99824333
v 34.33573528 6.89061821 -112.14378834
v 39.08045752 6.89061821 -116.83261156
v 41.09367891 1.07914612 -118.19387913
v 31.91304429 6.89061821 -109.74702358
v 29.06382216 6.89061821 -103.49913597
v 29.80427904 1.07914612 -102.11460114
v 38.69146211 1.07914612 -115.79711437
v 32.69274099 1.07914612 -109.79355812
v 31.17941184 6.89061821 -108.96749496
v 36.29265530 1.07914612 -113.40034962
v 29.91517676 1.07914612 -104.39501524
v 29.10988732 6.89061821 -104.39501524
v 31.58888145 1.07914612 -108.59517574
v 30.57544543 6.89061821 -108.21122646
v 29.23102213 6.89061821 -105.38397789
v 29.65584649 4.45509061 -105.69811106
v 30.53791059 1.07914612 -106.79178715
v 29.99536408 6.89061821 -107.38515615
v 29.44769992 6.89061821 -106.26821995
v 29.80086638 6.89061821 -107.03611851
f 1 2 6
f 1 6 3
f 1 3 9
f 1 9 20
f 1 20 10
f 1 10 4
f 1 4 14
f 1 14 25
f 1 25 24
f 1 24 37
f 1 37 36
f 1 36 46
f 1 46 51
f 1 51 55
f 1 55 61
f 1 61 65
f 1 65 64
f 1 64 67
f 1 67 72
f 1 72 77
f 1 77 81
f 1 81 83
f 1 83 82
f 1 82 78
f 1 78 75
f 1 75 68
f 1 68 62
f 1 62 58
f 1 58 57
f 1 57 56
f 1 56 52
f 1 52 47
f 1 47 40
f 1 40 28
f 1 28 16
f 1 16 5
f 1 5 2
f 2 5 15
f 2 15 26
f 2 26 39
f 2 39 30
f 2 30 18
f 2 18 7
f 2 7 6
f 3 6 7
f 3 7 8
f 3 8 19
f 3 19 32
f 3 32 38
f 3 38 27
f 3 27 17
f 3 17 29
f 3 29 41
f 3 41 48
f 3 48 53
f 3 53 59
f 3 59 63
f 3 63 69
f 3 69 74
f 3 74 80
f 3 80 76
f 3 76 71
f 3 71 73
f 3 73 70
f 3 70 66
f 3 66 60
f 3 60 54
f 3 54 49
f 3 49 43
f 3 43 33
f 3 33 21
f 3 21 9
f 4 10 11
f 4 11 12
f 4 12 13
f 4 13 14
f 5 16 17
f 5 17 15
f 7 18 19
f 7 19 8
f 9 21 11
f 9 11 20
f 10 20 11
f 11 21 33
f 11 33 22
f 11 22 23
f 11 23 24
f 11 24 12
f 12 24 25
f 12 25 13
f 13 25 14
f 15 17 27
f 15 27 26
f 16 28 17
f 17 28 29
f 18 30 31
f 18 31 19
f 19 31 32
f 22 33 43
f 22 43 34
f 22 34 35
f 22 35 36
f 22 36 37
f 22 37 23
f 23 37 24
f 26 38 39
f 26 27 38
f 28 40 41
f 28 41 29
f 30 39 38
f 30 38 42
f 30 42 31
f 31 42 32
f 32 42 38
f 34 43 35
f 35 43 44
f 35 44 50
f 35 50 45
f 35 45 46
f 35 46 36
f 40 47 48
f 40 48 41
f 43 49 50
f 43 50 44
f 45 50 46
f 46 50 51
f 47 52 48
f 48 52 56
f 48 56 53
f 49 54 55
f 49 55 51
f 49 51 50
f 53 56 57
f 53 57 58
f 53 58 62
f 53 62 59
f 54 60 61
f 54 61 55
f 59 62 63
f 60 64 65
f 60 65 61
f 60 66 67
f 60 67 64
f 62 68 63
f 63 68 69
f 66 70 67
f 67 71 72
f 67 70 73
f 67 73 71
f 68 74 69
f 68 75 74
f 71 76 72
f 72 76 77
f 74 75 78
f 74 78 79
f 74 79 80
f 76 80 81
f 76 81 77
f 78 82 79
f 79 82 80
f 80 83 81
f 80 82 83

