# https://github.com/mikedh/trimesh
v 46.41298933 -6.01405084 -19.18060184
v 41.60713418 -6.01405084 -13.61895561
v 46.41298933 -15.88587642 -19.18060184
v 46.41298933 -6.01405084 -32.90142417
v 29.29707332 -6.01405084 -13.61895561
v 41.60713418 -15.88587642 -13.61895561
v 46.41298933 -15.88587642 -31.73881888
v 46.41298933 -6.45275608 -32.86999941
v 45.73268099 -6.01405084 -116.39943123
v 25.20065440 -15.88587642 -15.60899734
v 25.26098801 -15.88587642 -13.61895561
v 29.26794721 -6.01405084 -15.61947227
v 25.16320629 -15.88587642 -18.00752521
v 46.41298933 -14.42771405 -32.01114178
v 43.27566130 -15.88587642 -118.79795551
v 43.37344213 -15.59984922 -118.79795551
v 44.31380851 -12.73184001 -118.79795551
v 44.90049703 -10.80018550 -118.79795551
v 45.40812833 -8.40083778 -118.79795551
v 46.41298933 -9.01251197 -32.59768009
v 45.63697977 -6.01405084 -118.79795551
v 29.23882110 -6.01405084 -18.00752521
v 25.16320629 -15.88587642 -99.59927559
v 42.45179935 -15.88587642 -120.56804180
v 44.24099369 -12.48832941 -120.20145893
v 44.49688895 -10.80018550 -120.45282841
v 44.73406060 -8.40083778 -120.62041283
v 44.81727882 -6.01405084 -120.60994148
v 29.23882110 -6.01405084 -99.60974693
v 25.18401129 -15.88587642 -101.99779987
v 40.76870961 -15.88587642 -120.56804180
v 42.49757035 -15.59984922 -120.57851315
v 43.10298248 -8.40083778 -120.62041283
v 43.26941891 -6.01405084 -120.60994148
v 29.27002771 -6.01405084 -102.00827122
v 29.34492393 -6.01405084 -104.39632416
v 25.29011412 -15.88587642 -104.39632416
v 39.58285136 -15.88587642 -119.71965551
v 40.83528562 -15.59984922 -120.57851315
v 42.06899626 -6.01405084 -119.62539196
v 29.54256697 -6.01405084 -105.96741199
v 25.83103342 -15.88587642 -106.52252913
v 27.32688172 -15.88587642 -108.68015528
v 32.43024124 -6.01405084 -110.06270885
v 30.09596927 -6.01405084 -107.17191696
v 26.00163086 -15.88587642 -106.84721947
v 26.54254927 -15.88587642 -107.66418457
v 31.29639192 -6.01405084 -108.85821104
f 1 2 6
f 1 6 3
f 1 3 7
f 1 7 14
f 1 14 20
f 1 20 8
f 1 8 4
f 1 4 9
f 1 9 21
f 1 21 28
f 1 28 34
f 1 34 40
f 1 40 44
f 1 44 48
f 1 48 45
f 1 45 41
f 1 41 36
f 1 36 35
f 1 35 29
f 1 29 22
f 1 22 12
f 1 12 5
f 1 5 2
f 2 5 11
f 2 11 6
f 3 6 11
f 3 11 10
f 3 10 13
f 3 13 23
f 3 23 30
f 3 30 37
f 3 37 42
f 3 42 46
f 3 46 47
f 3 47 43
f 3 43 38
f 3 38 31
f 3 31 24
f 3 24 15
f 3 15 7
f 4 8 9
f 5 10 11
f 5 12 13
f 5 13 10
f 7 15 16
f 7 16 17
f 7 17 18
f 7 18 19
f 7 19 9
f 7 9 14
f 8 20 9
f 9 19 21
f 9 20 14
f 12 22 13
f 13 22 29
f 13 29 23
f 15 24 25
f 15 25 16
f 16 25 17
f 17 25 18
f 18 25 19
f 19 25 26
f 19 26 27
f 19 27 21
f 21 27 28
f 23 29 30
f 24 31 39
f 24 39 32
f 24 32 27
f 24 27 26
f 24 26 25
f 27 32 39
f 27 39 33
f 27 33 34
f 27 34 28
f 29 35 30
f 30 35 36
f 30 36 37
f 31 38 39
f 33 39 34
f 34 39 38
f 34 38 40
f 36 41 37
f 37 41 42
f 38 43 40
f 40 43 44
f 41 45 42
f 42 45 46
f 43 47 48
f 43 48 44
f 45 47 46
f 45 48 47

