# https://github.com/mikedh/trimesh
v 42.47341080 -18.16159129 -37.03187943
v 42.54862709 -17.99986839 -37.03187943
v 42.47341080 -15.88587642 -37.03187943
v 42.47341080 -18.15980852 -116.39937401
v 43.28155680 -16.04136229 -37.03187943
v 42.54752560 -17.99986839 -116.39937401
v 42.47341080 -15.88587642 -120.48458576
v 43.33964451 -15.88587642 -37.03187943
v 42.47341080 -18.15713525 -118.79330635
v 43.33862705 -15.88587642 -116.39937401
v 42.54608436 -17.99986839 -118.79330635
v 43.27612980 -15.88587642 -118.79330635
v 42.47341080 -16.34253502 -120.18227577
v 42.47341080 -17.99986839 -119.07109737
f 1 2 5
f 1 5 8
f 1 8 3
f 1 3 7
f 1 7 13
f 1 13 14
f 1 14 9
f 1 9 4
f 1 4 2
f 2 4 6
f 2 6 5
f 3 8 10
f 3 10 12
f 3 12 7
f 4 9 6
f 5 6 10
f 5 10 8
f 6 9 11
f 6 11 10
f 7 12 13
f 9 14 11
f 10 11 12
f 11 14 12
f 12 14 13

