# https://github.com/mikedh/trimesh
v 42.47340901 -15.88587642 62.65896320
v 25.16251518 -15.88587642 62.65896320
v 42.47340901 -18.16055775 62.65896320
v 42.47340901 -15.88587642 -120.48711777
v 16.50071187 -24.86418843 62.64102459
v 16.97358979 -24.53634560 62.65896320
v 25.16251518 -15.88587642 -99.59149361
v 41.85307307 -19.50005472 62.65896320
v 42.47340901 -21.47941411 27.59377599
v 42.47340901 -16.34292305 -120.18220425
v 42.11747809 -18.00059259 -120.43331623
v 42.45306893 -15.88587642 -120.55885792
v 17.21002920 -24.86418843 62.65896320
v 16.50071187 -24.86418843 -97.20598698
v 25.17522661 -15.88587642 -100.95464230
v 16.50325461 -24.86418843 -99.60943222
v 40.08868022 -22.79957235 62.65896320
v 38.95733161 -24.86418843 29.99722123
v 42.47340901 -21.47941411 26.78664923
v 39.65139432 -23.61522317 62.65896320
v 39.36919375 -24.14082527 62.65896320
v 38.92428143 -24.86418843 62.65896320
v 42.47340901 -18.00059259 -119.07016754
v 39.68952997 -22.79957235 -120.36156178
v 40.53867622 -20.28054714 -120.48711777
v 41.79968460 -19.39985633 -120.12840271
v 40.77003105 -15.88587642 -120.57679653
v 37.87937327 -22.60620654 -120.46917915
v 25.18539621 -15.88587642 -101.99493885
v 16.54393209 -24.86418843 -101.99493885
v 38.94716246 -24.86418843 -32.38472700
v 42.47340901 -21.47589684 -25.21026313
v 42.47340901 -18.15792203 -118.78317833
v 38.27852352 -24.86418843 -120.36156178
v 38.05733962 -24.86418843 -120.41537762
v 39.34376998 -24.09336269 -120.05664825
v 41.85307307 -19.50005472 -118.78317833
v 38.47936912 -20.39920270 -120.50505638
v 35.83786173 -24.86418843 -120.43331623
v 35.26837511 -24.86418843 -120.07458687
v 34.87431033 -24.49415803 -119.67999458
v 33.97685929 -24.86418843 -119.19572353
v 39.58275123 -15.88587642 -119.71587181
v 25.24895473 -15.88587642 -103.46570492
v 16.64054169 -24.86418843 -104.39838409
v 38.92428143 -24.86418843 -118.78317833
v 42.47340901 -21.47413909 -27.61370838
v 40.08868022 -22.79957235 -118.78317833
v 39.36919375 -24.14082527 -118.78317833
v 19.30747194 -24.86418843 -108.52370739
v 27.32605918 -15.88587642 -108.66718769
v 25.28963311 -15.88587642 -104.39838409
v 25.83115412 -15.88587642 -106.51485443
v 17.61934860 -24.86418843 -106.80182934
v 26.88623144 -16.10209465 -108.39815140
v 26.54301329 -15.88587642 -107.66276836
v 26.00149228 -15.88587642 -106.85564518
f 1 2 6
f 1 6 13
f 1 13 22
f 1 22 21
f 1 21 20
f 1 20 17
f 1 17 8
f 1 8 3
f 1 3 9
f 1 9 19
f 1 19 32
f 1 32 47
f 1 47 33
f 1 33 23
f 1 23 10
f 1 10 4
f 1 4 12
f 1 12 27
f 1 27 43
f 1 43 51
f 1 51 56
f 1 56 57
f 1 57 53
f 1 53 52
f 1 52 44
f 1 44 29
f 1 29 15
f 1 15 7
f 1 7 2
f 2 5 6
f 2 7 14
f 2 14 5
f 3 8 9
f 4 10 11
f 4 11 12
f 5 13 6
f 5 14 16
f 5 16 30
f 5 30 45
f 5 45 54
f 5 54 50
f 5 50 42
f 5 42 40
f 5 40 39
f 5 39 35
f 5 35 34
f 5 34 46
f 5 46 31
f 5 31 18
f 5 18 22
f 5 22 13
f 7 15 16
f 7 16 14
f 8 17 9
f 9 18 19
f 9 17 20
f 9 20 21
f 9 21 22
f 9 22 18
f 10 23 11
f 11 24 25
f 11 25 12
f 11 23 26
f 11 26 24
f 12 25 28
f 12 28 27
f 15 29 16
f 16 29 30
f 18 31 32
f 18 32 19
f 23 33 26
f 24 34 35
f 24 35 25
f 24 26 36
f 24 36 34
f 25 35 28
f 26 33 37
f 26 37 36
f 27 28 38
f 27 38 39
f 27 39 40
f 27 40 41
f 27 41 42
f 27 42 43
f 28 35 39
f 28 39 38
f 29 44 45
f 29 45 30
f 31 46 32
f 32 46 47
f 33 47 37
f 34 36 46
f 36 37 48
f 36 48 49
f 36 49 46
f 37 47 48
f 40 42 41
f 42 50 43
f 43 50 51
f 44 52 45
f 45 52 53
f 45 53 54
f 46 49 47
f 47 49 48
f 50 54 51
f 51 54 55
f 51 55 56
f 53 57 54
f 54 57 56
f 54 56 55

