# https://github.com/mikedh/trimesh
v 2.09494813 -46.13946676 105.62262297
v 3.31613643 -46.04906559 105.62262297
v -0.24605708 -45.95390797 105.62262297
v 2.09494813 -46.11805558 62.65895605
v 4.49489041 -45.94201326 105.62262297
v -1.22206287 -45.57803750 105.62262297
v 0.08163734 -45.91822386 62.65895605
v 3.55424507 -45.97531915 62.65895605
v 6.59778608 -45.72077394 105.62262297
v 6.53649135 -45.68271160 62.65895605
v 7.73646249 -45.56376457 62.65895605
v -2.73322658 -44.40760374 105.62262297
v -0.59260921 -44.99520063 62.65895605
v 7.18716307 -45.65654397 105.62262297
v 8.68182225 -45.38058758 62.65895605
v 7.83312036 -45.57328105 101.99745655
v -3.82475154 -42.04294682 105.62262297
v -1.02639036 -44.39808726 62.65895605
v 7.85433753 -45.56852102 104.39881325
v 7.79775722 -45.55425167 105.62262297
v 9.29241641 -45.26164055 62.65895605
v 9.29241641 -45.28542995 101.99745655
v -3.84125428 -41.99774623 105.62262297
v -1.31872253 -41.99774623 62.65895605
v 9.29241641 -45.28067350 104.39881325
v 9.29241641 -45.25212407 105.62262297
v 11.69235869 -44.62884665 62.65895605
v 11.69235869 -44.68356013 104.39881325
v 11.69235869 -44.68118191 105.62262297
v -3.84596960 -39.59978342 105.62262297
v -1.31872253 -34.79909778 62.65895605
v 10.51360561 -44.97378945 105.62262297
v 15.85100128 -43.36801171 62.65895605
v 14.09230097 -44.00318384 105.62262297
v 12.91354744 -44.34813023 105.62262297
v -3.84596960 -34.79909778 105.62262297
v -1.24563949 -32.40113497 62.65895605
v 17.05097242 -42.99214125 62.65895605
v 15.85807337 -43.41796875 105.62262297
v -3.72102158 -32.44871378 105.62262297
v -0.57374971 -31.28779650 62.65895605
v -3.71394949 -32.40113497 105.62262297
v 18.89218552 -42.15951204 62.65895605
v 18.89218552 -42.16427207 101.99745655
v 17.05097242 -42.99214125 99.59609985
v 17.05568774 -42.98262477 101.99745655
v 16.44745035 -43.19672585 105.62262297
v -0.13996856 -30.56935787 62.65895605
v -2.28529947 -30.75491309 105.62262297
v 20.23832185 -41.45297170 62.65895605
v 20.23832185 -41.50292873 103.64182234
v 20.23832185 -41.50530696 105.62262297
v 18.89218552 -42.15951204 104.39881325
v 17.06275983 -42.95883536 104.39881325
v 17.05804451 -42.94218063 105.62262297
v 20.23832185 -21.83867812 62.65895605
v -1.63462775 -30.28388500 105.62262297
v 20.23832185 -21.87674046 105.62262297
v 19.90827067 -41.66469455 105.62262297
v 18.89218552 -42.13810444 105.62262297
v 20.23832185 -21.83867812 92.39624262
v 20.23832185 -21.84105635 94.90694046
f 1 2 5
f 1 5 9
f 1 9 14
f 1 14 20
f 1 20 26
f 1 26 32
f 1 32 29
f 1 29 35
f 1 35 34
f 1 34 39
f 1 39 47
f 1 47 55
f 1 55 60
f 1 60 59
f 1 59 52
f 1 52 58
f 1 58 57
f 1 57 49
f 1 49 42
f 1 42 40
f 1 40 36
f 1 36 30
f 1 30 23
f 1 23 17
f 1 17 12
f 1 12 6
f 1 6 3
f 1 3 4
f 1 4 2
f 2 4 5
f 3 6 7
f 3 7 4
f 4 7 13
f 4 13 18
f 4 18 24
f 4 24 31
f 4 31 37
f 4 37 41
f 4 41 48
f 4 48 56
f 4 56 50
f 4 50 43
f 4 43 38
f 4 38 33
f 4 33 27
f 4 27 21
f 4 21 15
f 4 15 11
f 4 11 10
f 4 10 8
f 4 8 5
f 5 8 10
f 5 10 11
f 5 11 9
f 6 12 7
f 7 12 13
f 9 11 14
f 11 15 16
f 11 16 14
f 12 17 18
f 12 18 13
f 14 16 19
f 14 19 20
f 15 21 16
f 16 22 19
f 16 21 22
f 17 23 18
f 18 23 24
f 19 22 25
f 19 25 20
f 20 25 26
f 21 27 28
f 21 28 22
f 22 28 29
f 22 29 25
f 23 30 24
f 24 30 36
f 24 36 31
f 25 29 32
f 25 32 26
f 27 33 34
f 27 34 35
f 27 35 28
f 28 35 29
f 31 36 37
f 33 38 34
f 34 38 39
f 36 40 37
f 37 40 42
f 37 42 41
f 38 43 44
f 38 44 45
f 38 45 39
f 39 45 46
f 39 46 47
f 41 42 48
f 42 49 48
f 43 50 51
f 43 51 52
f 43 52 44
f 44 52 53
f 44 53 45
f 45 53 46
f 46 53 54
f 46 54 47
f 47 54 55
f 48 49 57
f 48 57 56
f 50 56 61
f 50 61 62
f 50 62 58
f 50 58 52
f 50 52 51
f 52 59 53
f 53 59 60
f 53 60 55
f 53 55 54
f 56 57 61
f 57 58 62
f 57 62 61

