# https://github.com/mikedh/trimesh
v 46.41852184 -21.36999965 22.80094206
v 46.41852184 -21.36999965 27.59923875
v 46.41852184 -20.80939293 21.52279258
v 76.49011893 -21.36999965 22.80094206
v 76.49011893 -21.36999965 27.59923875
v 46.41852184 -20.50398767 29.99908447
v 46.41852184 -20.31572521 20.40109634
v 76.49011893 -20.31572521 20.40109634
v 78.89101072 -20.29899001 20.40109634
v 78.89101072 -21.33234680 22.80094206
v 78.89101072 -21.33234680 27.59923875
v 78.89101072 -20.45378387 29.99908447
v 76.49011893 -20.47051907 29.99908447
v 46.41852184 -19.42042708 31.28282189
v 46.41852184 -19.73838329 19.75573540
v 46.41852184 -19.23216283 19.18999672
v 78.89101072 -19.23216283 19.19139326
v 80.50427003 -19.73838329 20.40109634
v 80.10354800 -19.21961188 19.19418812
v 80.89808269 -20.24878621 22.80094206
v 80.89808269 -20.24878621 27.59923875
v 80.55263562 -19.81787145 29.99908447
v 80.16917987 -19.32420373 31.23951674
v 78.89101072 -19.38695848 31.25907183
v 46.41852184 -17.99799085 31.48536801
v 46.41852184 -18.57533276 19.18440878
v 78.89101072 -17.99799085 19.18021917
v 80.91881080 -17.99799085 20.40109634
v 81.70644326 -17.99799085 22.80094206
v 80.11045737 -17.99799085 19.19139326
v 81.70644326 -17.99799085 27.59923875
v 81.01554198 -17.99799085 29.99908447
v 80.21063609 -17.99799085 31.25907183
v 46.41852184 -1.19651925 33.42703700
v 46.41852184 -8.39655250 32.65456080
v 46.41852184 -17.99799085 19.18021917
v 78.89101072 17.99799085 19.18021917
v 80.91881080 17.99799085 20.40109634
v 81.70644326 17.99799085 22.80094206
v 80.11045737 17.99799085 19.19139326
v 81.70644326 17.99799085 27.59923875
v 81.01554198 17.99799085 29.99908447
v 80.21063609 17.99799085 31.25907183
v 46.41852184 1.19651925 33.44938874
v 46.41852184 17.99799085 19.18021917
v 46.41852184 19.23216283 19.18999672
v 78.89101072 19.23216283 19.19139326
v 80.10354800 19.21961188 19.19418812
v 80.50427003 19.73838329 20.40109634
v 80.89808269 20.24878621 22.80094206
v 80.89808269 20.24878621 27.59923875
v 80.55263562 19.81787145 29.99908447
v 80.16917987 19.32420373 31.23951674
v 46.41852184 1.25509009 33.44519734
v 46.41852184 20.31572521 20.40109634
v 76.49011893 20.31572521 20.40109634
v 78.89101072 20.29899001 20.40109634
v 78.89101072 21.33234680 22.80094206
v 78.89101072 21.33234680 27.59923875
v 78.89101072 20.45378387 29.99908447
v 78.89101072 19.38695848 31.25907183
v 46.41852184 3.85312647 33.17979097
v 46.41852184 21.36999965 22.80094206
v 76.49011893 21.36999965 22.80094206
v 76.49011893 21.36999965 27.59923875
v 76.49011893 20.47051907 29.99908447
v 46.41852184 19.92664754 30.69473147
v 46.41852184 19.42042708 31.28421664
v 46.41852184 18.64645422 31.45743012
v 46.41852184 16.71779931 31.73820376
v 46.41852184 14.43353623 32.01618433
v 46.41852184 6.43024474 32.90320516
v 46.41852184 21.36999965 27.59923875
v 46.41852184 20.92653573 28.87738645
v 46.41852184 20.50817192 29.99908447
f 1 2 6
f 1 6 14
f 1 14 25
f 1 25 35
f 1 35 34
f 1 34 44
f 1 44 54
f 1 54 62
f 1 62 72
f 1 72 71
f 1 71 70
f 1 70 69
f 1 69 68
f 1 68 67
f 1 67 75
f 1 75 74
f 1 74 73
f 1 73 63
f 1 63 55
f 1 55 46
f 1 46 45
f 1 45 36
f 1 36 26
f 1 26 16
f 1 16 15
f 1 15 7
f 1 7 3
f 1 3 4
f 1 4 5
f 1 5 2
f 2 5 6
f 3 7 8
f 3 8 4
f 4 8 9
f 4 9 10
f 4 10 11
f 4 11 5
f 5 11 12
f 5 12 13
f 5 13 6
f 6 13 14
f 7 15 8
f 8 15 16
f 8 16 17
f 8 17 9
f 9 18 10
f 9 17 19
f 9 19 18
f 10 18 20
f 10 20 21
f 10 21 11
f 11 21 22
f 11 22 12
f 12 22 23
f 12 23 24
f 12 24 13
f 13 24 14
f 14 24 25
f 16 26 27
f 16 27 17
f 17 27 19
f 18 19 28
f 18 28 29
f 18 29 20
f 19 27 30
f 19 30 28
f 20 29 31
f 20 31 21
f 21 31 22
f 22 31 32
f 22 32 23
f 23 32 33
f 23 33 34
f 23 34 24
f 24 34 35
f 24 35 25
f 26 36 27
f 27 36 45
f 27 45 37
f 27 37 40
f 27 40 30
f 28 30 40
f 28 40 38
f 28 38 39
f 28 39 29
f 29 39 41
f 29 41 31
f 31 41 42
f 31 42 32
f 32 42 43
f 32 43 33
f 33 43 44
f 33 44 34
f 37 45 46
f 37 46 47
f 37 47 48
f 37 48 40
f 38 40 48
f 38 48 49
f 38 49 39
f 39 49 50
f 39 50 51
f 39 51 41
f 41 51 52
f 41 52 42
f 42 52 53
f 42 53 43
f 43 53 44
f 44 53 54
f 46 55 56
f 46 56 47
f 47 56 57
f 47 57 48
f 48 57 49
f 49 57 58
f 49 58 50
f 50 58 59
f 50 59 51
f 51 59 52
f 52 59 60
f 52 60 53
f 53 60 61
f 53 61 54
f 54 61 62
f 55 63 64
f 55 64 56
f 56 64 57
f 57 64 58
f 58 64 65
f 58 65 59
f 59 65 60
f 60 65 66
f 60 66 61
f 61 66 67
f 61 67 68
f 61 68 69
f 61 69 70
f 61 70 71
f 61 71 72
f 61 72 62
f 63 73 65
f 63 65 64
f 65 73 74
f 65 74 75
f 65 75 66
f 66 75 67

