# https://github.com/mikedh/trimesh
v 41.65728970 19.86645699 62.65896320
v 40.08875532 22.79969573 62.65896320
v 41.65728970 18.17853212 62.65896320
v 41.65728970 21.54704690 27.58723497
v 39.36814232 24.14098799 62.65896320
v 23.67559238 18.17853212 62.65896320
v 41.65728970 18.17853212 -120.44557571
v 41.65728970 21.55010462 25.18456936
v 39.19519527 24.42281842 62.65896320
v 17.13722958 24.42281842 62.65896320
v 23.63956137 18.17853212 1.48067236
v 40.33856733 18.17853212 -120.49936295
v 40.54033919 20.28033972 -120.49936295
v 41.65728970 18.66699815 -120.44557571
v 39.22642155 24.42281842 32.39256263
v 41.65728970 21.55805111 -27.60232151
v 39.25524635 24.42281842 -29.98705566
v 17.11801334 24.42281842 -6.01420462
v 23.63956137 18.17853212 1.19378686
v 40.08395238 18.17853212 -120.49936295
v 38.47938700 20.40016294 -120.51728725
v 36.37279434 24.42281842 -120.48142433
v 38.02299662 24.42281842 -120.42763710
v 38.50100560 24.42281842 -120.40971279
v 39.69001634 22.79969573 -120.37384987
v 41.65728970 19.49965060 -120.17661095
v 41.65728970 19.86645699 -118.79598141
v 40.08875532 22.79969573 -118.79598141
v 39.36814232 24.14098799 -118.79598141
v 39.19519527 24.42281842 -118.79598141
v 17.13722958 24.42281842 -99.59259510
v 23.64196373 18.17853212 -6.01420462
v 39.71643968 18.17853212 -120.39177418
v 38.96219714 18.57590675 -120.24833679
v 36.01729078 24.42281842 -120.39177418
v 38.88773365 24.42281842 -120.19454956
v 39.34412046 24.09391522 -120.06903648
v 41.65728970 19.71545577 -119.80007172
v 39.15676279 24.42281842 -119.72836018
v 17.15644581 24.42281842 -100.68634987
v 23.69240625 18.17853212 -101.99525356
v 23.69000433 18.17853212 -101.70837879
v 23.67559238 18.17853212 -99.59259510
v 39.06788690 18.17853212 -120.15868664
v 34.90514500 24.42281842 -119.67455864
v 19.93080659 24.42281842 -108.62947941
v 17.18286826 24.42281842 -101.99525356
v 23.75485970 18.17853212 -104.39792633
v 38.49860234 18.17853212 -119.67455864
v 26.34186013 18.17853212 -109.07774448
v 19.59932400 24.42281842 -108.32466602
v 17.21889926 24.42281842 -102.99935818
v 17.30297042 24.42281842 -104.39792633
v 24.36257674 18.17853212 -106.60336018
v 26.30342765 18.17853212 -109.04188156
v 18.29501493 24.42281842 -106.81852341
v 25.01112817 18.17853212 -107.71503925
v 17.51194848 24.42281842 -104.91790295
v 18.27820016 24.42281842 -106.78266048
f 1 2 5
f 1 5 9
f 1 9 10
f 1 10 6
f 1 6 3
f 1 3 7
f 1 7 14
f 1 14 26
f 1 26 38
f 1 38 27
f 1 27 16
f 1 16 8
f 1 8 4
f 1 4 2
f 2 4 5
f 3 6 11
f 3 11 19
f 3 19 32
f 3 32 43
f 3 43 42
f 3 42 41
f 3 41 48
f 3 48 54
f 3 54 57
f 3 57 55
f 3 55 50
f 3 50 49
f 3 49 44
f 3 44 33
f 3 33 20
f 3 20 12
f 3 12 7
f 4 8 9
f 4 9 5
f 6 10 11
f 7 12 13
f 7 13 14
f 8 15 9
f 8 16 17
f 8 17 15
f 9 15 17
f 9 17 30
f 9 30 39
f 9 39 36
f 9 36 24
f 9 24 23
f 9 23 22
f 9 22 35
f 9 35 45
f 9 45 46
f 9 46 51
f 9 51 56
f 9 56 59
f 9 59 58
f 9 58 53
f 9 53 52
f 9 52 47
f 9 47 40
f 9 40 31
f 9 31 18
f 9 18 10
f 10 18 11
f 11 18 19
f 12 20 21
f 12 21 13
f 13 21 22
f 13 22 23
f 13 23 24
f 13 24 25
f 13 25 14
f 14 25 26
f 16 27 28
f 16 28 29
f 16 29 30
f 16 30 17
f 18 31 19
f 19 31 32
f 20 33 21
f 21 33 34
f 21 34 35
f 21 35 22
f 24 36 37
f 24 37 25
f 25 37 26
f 26 37 38
f 27 38 37
f 27 37 28
f 28 37 29
f 29 37 39
f 29 39 30
f 31 40 41
f 31 41 42
f 31 42 43
f 31 43 32
f 33 44 34
f 34 45 35
f 34 44 46
f 34 46 45
f 36 39 37
f 40 47 41
f 41 47 48
f 44 49 46
f 46 50 51
f 46 49 50
f 47 52 48
f 48 52 53
f 48 53 54
f 50 55 51
f 51 55 57
f 51 57 56
f 53 58 54
f 54 58 59
f 54 59 56
f 54 56 57

