# https://github.com/mikedh/trimesh
v 46.41460402 18.17825139 -19.18140113
v 46.41460402 19.23346102 -19.18973565
v 41.65728970 18.17825139 -16.94289565
v 46.41460402 18.17825139 -31.44067526
v 41.65728970 20.28370857 -17.95964062
v 46.41460402 20.31812131 -20.40149331
v 41.65728970 18.17825139 -33.97086740
v 42.79317839 18.17825139 -33.97086740
v 46.41460402 19.42041457 -31.28232837
v 41.65728970 20.50474226 -18.30966711
v 46.41460402 21.36969030 -22.80001044
v 41.65728970 20.63180566 -32.35074162
v 41.65961964 19.99848068 -33.97086740
v 42.14024110 19.58420455 -33.97086740
v 46.41460402 20.50507307 -29.99889672
v 41.65728970 21.25156403 -20.40149331
v 41.65728970 21.55763626 -25.20019591
v 41.65728970 21.54771030 -22.85668194
v 41.65728970 21.54737949 -22.80001044
v 41.65728970 21.35546207 -20.74152052
v 46.41460402 21.36969030 -27.59871304
v 41.65728970 21.55829787 -27.59871304
v 41.65728970 21.31542563 -29.99889672
f 1 2 3
f 1 3 7
f 1 7 8
f 1 8 4
f 1 4 9
f 1 9 15
f 1 15 21
f 1 21 11
f 1 11 6
f 1 6 2
f 2 5 3
f 2 6 5
f 3 5 10
f 3 10 16
f 3 16 20
f 3 20 19
f 3 19 18
f 3 18 17
f 3 17 22
f 3 22 23
f 3 23 12
f 3 12 7
f 4 8 9
f 5 6 10
f 6 11 10
f 7 12 13
f 7 13 14
f 7 14 8
f 8 14 9
f 9 14 13
f 9 13 15
f 10 11 16
f 11 17 18
f 11 18 19
f 11 19 20
f 11 20 16
f 11 21 22
f 11 22 17
f 12 23 21
f 12 21 15
f 12 15 13
f 21 23 22

