# https://github.com/mikedh/trimesh
v 38.95808263 -24.86714780 29.99544382
v 38.92259879 -24.86714780 62.65894890
v 38.63084240 -25.34177363 62.65894890
v 38.63872810 -25.37091851 32.39901423
v 38.63478525 -25.36467254 -32.38988400
v 38.94625409 -24.86714780 -32.38988400
v 17.21044181 -24.86714780 62.65894890
v 37.43227763 -27.06125379 62.65894890
v 37.44016333 -27.12370455 29.99544382
v 37.42833479 -27.14452028 27.59186625
v 38.63084240 -25.34177363 -118.79302025
v 37.43227763 -27.12786734 -27.60066926
v 38.92259879 -24.86714780 -118.79302025
v 16.50076529 -24.86714780 62.64101028
v 16.49682267 -24.87131059 62.65894890
v 34.26238938 -30.92279434 62.65894890
v 36.52546926 -28.34565818 27.59186625
v 36.52941210 -28.34565818 25.18829226
v 36.52941210 -28.34357679 -25.21503210
v 37.43227763 -27.06125379 -118.79302025
v 37.25091560 -26.84059381 -120.33561230
v 38.27600403 -24.86714780 -120.35355091
v 2.09433301 -29.76745605 62.65894890
v 16.50076529 -24.86714780 -97.21465588
v 33.06382461 -32.24259138 62.65894890
v 34.28210182 -30.96442938 29.99544382
v 34.28210182 -30.96442938 -27.60066926
v 34.26238938 -30.92279434 -116.38944626
v 35.24805112 -29.72165823 -118.79302025
v 34.99572141 -29.41565037 -120.40736675
v 35.75271053 -27.62539208 -120.55086136
v 38.06704385 -25.01702964 -120.40736675
v 34.24267693 -30.92279434 -118.79302025
v 38.05521531 -24.86714780 -120.42529106
v 0.73806329 -30.25457382 62.65894890
v 2.09433301 -29.76745605 -101.98592663
v 16.50470792 -24.86714780 -99.60029125
v 31.90862937 -33.44164610 62.65894890
v 31.95594086 -33.47495198 29.99544382
v 33.08353706 -32.27589726 29.99544382
v 33.08353706 -32.27589726 -27.60066926
v 33.06382461 -32.24259138 -116.38944626
v 32.71292908 -31.87413096 -120.40736675
v 33.04016931 -32.22593665 -118.79302025
v 28.55343713 -34.89467025 -120.56879997
v 11.69467880 -42.20974445 -120.58672428
v 2.09433301 -44.39968586 -120.51498413
v 35.68174286 -25.25850534 -120.47910690
v 30.37099673 -34.15774941 -120.42529106
v 35.83944781 -24.86714780 -120.44322968
v -0.14114694 -30.57098866 62.65894890
v -0.14114694 -30.57098866 -101.98592663
v 16.54413438 -24.86714780 -101.98592663
v 16.54807700 -24.86714780 -102.09355831
v 16.63875802 -24.86714780 -104.38950062
v 2.09433301 -29.82366085 -104.38950062
v -0.12931840 -30.58972478 -104.38950062
v 31.17923929 -34.04741764 62.65894890
v 30.75343414 -34.49914813 27.59186625
v 31.95988370 -33.47495198 -27.60066926
v 31.90862937 -33.44164610 -116.38944626
v 31.90862937 -33.42707634 -118.79302025
v 26.02225704 -37.20743179 -120.49704552
v 23.69215323 -38.96438241 -120.47910690
v 18.89000936 -41.42702579 -120.49704552
v 11.69467880 -43.85844469 -120.58672428
v 0.34774108 -44.39968586 -120.26385784
v 0.70652230 -43.11111689 -120.06656170
v 2.09433301 -45.85895419 -120.35355091
v 0.35168393 -45.81107497 -120.26385784
v 27.79644890 -36.41222477 -120.37148952
v 35.26776357 -24.86714780 -120.06656170
v 0.70257945 -40.70884109 -117.68091202
v 0.70257945 -33.51034284 -110.48812866
v 0.73017760 -31.13721013 -108.06661606
v -0.57483868 -31.28709197 62.65894890
v -1.23720305 -32.40079880 -104.38950062
v -1.24508874 -32.40079880 -101.98592663
v 17.62047703 -24.86714780 -106.81101322
v 0.26100202 -30.85618258 -106.79307461
v -0.83505230 -32.40079880 -106.79307461
v 30.71006460 -34.43669558 62.65894890
v 29.30253966 -35.69612145 27.59186625
v 29.30253966 -35.69820285 -25.21503210
v 30.74949129 -34.49914813 -25.21503210
v 30.71006460 -34.43669558 -118.79302025
v 25.17853109 -38.58967781 -120.22799492
v 20.54986356 -41.04399562 -120.28179646
v 15.66886677 -43.31095934 -120.15624046
v 14.09575073 -43.55035543 -120.40736675
v 6.25776870 -45.65494537 -120.08448601
v 4.49540539 -45.74029684 -120.21005630
v -0.60637967 -44.39968586 -118.79302025
v 0.22946103 -42.18684554 -118.61364841
v 2.09433301 -46.11916423 -118.79302025
v 0.08358462 -45.91724038 -118.79302025
v 28.04877771 -36.62039280 -118.79302025
v 33.97457583 -24.86714780 -119.20557976
v 0.22551818 -39.78456974 -116.21007442
v 0.22551818 -37.38437533 -113.80650043
v 0.22551818 -34.98626232 -111.40292645
v 0.24128957 -32.58607149 -108.99935246
v 19.30398731 -24.86714780 -108.51503849
v -1.24508874 -32.40079880 62.65894890
v -1.31211357 -34.80099320 -106.79307461
v -1.31999926 -34.80099320 -104.38950062
v -0.89419322 -34.80099320 -109.19666290
v 30.13838126 -34.90715861 62.65894890
v 28.04877771 -36.62039280 62.65894890
v 26.52297361 -37.81945109 62.65894890
v 28.09609009 -36.63288474 29.99544382
v 28.10003205 -36.63080335 -27.60066926
v 26.52297361 -37.81945109 -118.79302025
v 25.32440884 -38.68335128 -118.79302025
v 20.77853708 -41.16681576 -118.79302025
v 18.89000936 -42.10774183 -118.79302025
v 17.05273586 -42.93833613 -118.79302025
v 15.85417120 -43.36924553 -118.79302025
v 14.09575073 -43.90216112 -118.79302025
v 11.69467880 -44.57454801 -118.79302025
v 9.29360641 -45.16574979 -118.79302025
v 7.73626132 -45.52588105 -118.79302025
v 6.53769655 -45.68201065 -118.79302025
v -1.01641433 -44.39968586 -116.38944626
v -1.31211357 -41.99949145 -113.98587227
v -0.89419322 -41.99949145 -116.38944626
v 7.96493484 -45.58625221 -20.40788233
v 6.76242722 -45.69866180 -20.40788233
v 2.09433301 -46.13165617 -20.40788233
v -1.02430003 -44.39968586 -113.98587227
v 0.07964177 -45.92140317 -20.40788233
v -1.31999926 -34.80099320 62.65894890
v -1.31211357 -37.19910622 -109.19666290
v -1.31999926 -37.19910622 -106.79307461
v 25.79358442 -38.34611893 62.65894890
v 25.34018023 -38.70625019 29.99544382
v 26.53874411 -37.83402085 32.39901423
v 26.54268695 -37.83610225 -29.98630822
v 25.34018023 -38.70833158 -27.60066926
v 23.69215323 -39.60970759 -116.38944626
v 23.69215323 -39.67215657 -25.21503210
v 18.89000936 -42.15978384 -116.38944626
v 21.98104425 -40.52565336 -116.38944626
v 22.03624143 -40.56936622 -25.21503210
v 17.05273586 -42.99037814 -116.38944626
v 15.88176979 -43.40255499 -25.21503210
v 14.09575073 -43.95212173 -25.21503210
v 11.69467880 -44.62867141 -116.38944626
v 9.29360641 -45.26150465 -116.38944626
v 7.73626132 -45.56335330 -116.38944626
v -1.31999926 -41.99949145 -111.58229828
v -1.31999926 -39.59929705 -109.19666290
v 9.29360641 -45.27399659 -22.81145811
v 7.96493484 -45.58625221 22.78471828
v 6.76242722 -45.69866180 22.78471828
v 2.09433301 -46.13165617 27.59186625
v -1.02824287 -44.39968586 -20.40788233
v 0.07964177 -45.92140317 29.99544382
v -1.31999926 -41.99949145 62.65894890
v 25.32440884 -38.68335128 62.65894890
v 23.69215323 -39.67215657 27.59186625
v 22.04018427 -40.56936622 27.59186625
v 20.83767688 -41.18346691 -27.60066926
v 18.89000936 -42.17435360 -29.98630822
v 17.07244909 -42.99245954 -29.98630822
v 17.07244909 -42.99245954 32.39901423
v 15.87388454 -43.40463638 25.18829226
v 14.09575073 -43.95212173 27.59186625
v 11.69467880 -44.64948893 -27.60066926
v 9.29360641 -45.27399659 29.99544382
v 9.29360641 -45.26150465 62.65894890
v 8.68249638 -45.38016558 62.65894890
v 7.73626132 -45.56335330 62.65894890
v 7.00687124 -45.63621283 62.65894890
v 5.73733969 -45.76111436 62.65894890
v 2.09433301 -46.11916423 62.65894890
v 1.30580468 -46.04006052 62.65894890
v 0.08358462 -45.91724038 62.65894890
v -1.02824287 -44.39968586 32.39901423
v -0.59060829 -44.99505043 62.65894890
v -1.02430003 -44.39968586 62.65894890
v 23.69215323 -39.60970759 62.65894890
v 23.02190317 -39.96983886 62.65894890
v 21.98104425 -40.52565336 62.65894890
v 21.25165483 -40.91492772 62.65894890
v 20.77853708 -41.16681576 62.65894890
v 18.89000936 -42.15978384 62.65894890
v 18.89000936 -42.17435360 32.39901423
v 17.05273586 -42.99037814 62.65894890
v 15.88176979 -43.40047359 27.59186625
v 15.85417120 -43.36924553 62.65894890
v 14.09575073 -43.90216112 62.65894890
v 13.15345807 -44.18735147 62.65894890
v 11.69467880 -44.62867141 62.65894890
v 11.69467880 -44.64948893 29.99544382
v 18.17244759 -42.48452783 62.65894890
v 16.32334611 -43.22144508 62.65894890
f 1 2 3
f 1 3 4
f 1 4 5
f 1 5 6
f 1 6 13
f 1 13 22
f 1 22 34
f 1 34 50
f 1 50 72
f 1 72 98
f 1 98 103
f 1 103 79
f 1 79 55
f 1 55 54
f 1 54 53
f 1 53 37
f 1 37 24
f 1 24 14
f 1 14 7
f 1 7 2
f 2 7 15
f 2 15 23
f 2 23 35
f 2 35 51
f 2 51 76
f 2 76 104
f 2 104 132
f 2 132 159
f 2 159 181
f 2 181 180
f 2 180 178
f 2 178 177
f 2 177 176
f 2 176 175
f 2 175 174
f 2 174 173
f 2 173 172
f 2 172 171
f 2 171 194
f 2 194 193
f 2 193 192
f 2 192 191
f 2 191 197
f 2 197 189
f 2 189 196
f 2 196 187
f 2 187 186
f 2 186 185
f 2 185 184
f 2 184 183
f 2 183 182
f 2 182 160
f 2 160 135
f 2 135 110
f 2 110 109
f 2 109 108
f 2 108 82
f 2 82 58
f 2 58 38
f 2 38 25
f 2 25 16
f 2 16 8
f 2 8 3
f 3 8 9
f 3 9 10
f 3 10 4
f 4 10 5
f 5 11 6
f 5 10 12
f 5 12 11
f 6 11 13
f 7 14 15
f 8 16 17
f 8 17 9
f 9 17 18
f 9 18 10
f 10 18 19
f 10 19 12
f 11 20 21
f 11 21 13
f 11 12 20
f 12 19 20
f 13 21 22
f 14 23 15
f 14 24 36
f 14 36 23
f 16 25 26
f 16 26 17
f 17 26 18
f 18 26 27
f 18 27 19
f 19 27 28
f 19 28 29
f 19 29 20
f 20 29 21
f 21 30 31
f 21 31 32
f 21 32 22
f 21 29 33
f 21 33 30
f 22 32 34
f 23 36 35
f 24 37 36
f 25 38 39
f 25 39 40
f 25 40 26
f 26 40 41
f 26 41 27
f 27 41 42
f 27 42 28
f 28 42 33
f 28 33 29
f 30 43 31
f 30 33 44
f 30 44 43
f 31 45 46
f 31 46 47
f 31 47 48
f 31 48 34
f 31 34 32
f 31 43 49
f 31 49 45
f 33 42 44
f 34 48 50
f 35 36 52
f 35 52 51
f 36 37 53
f 36 53 54
f 36 54 55
f 36 55 56
f 36 56 57
f 36 57 52
f 38 58 59
f 38 59 39
f 39 59 60
f 39 60 40
f 40 60 41
f 41 60 42
f 42 61 62
f 42 62 44
f 42 60 61
f 43 44 62
f 43 62 49
f 45 63 64
f 45 64 65
f 45 65 66
f 45 66 46
f 45 49 63
f 46 66 47
f 47 67 68
f 47 68 50
f 47 50 48
f 47 66 69
f 47 69 70
f 47 70 67
f 49 71 63
f 49 62 71
f 50 68 73
f 50 73 74
f 50 74 75
f 50 75 72
f 51 52 76
f 52 57 77
f 52 77 78
f 52 78 76
f 55 79 56
f 56 79 57
f 57 79 80
f 57 80 81
f 57 81 77
f 58 82 59
f 59 82 83
f 59 83 84
f 59 84 85
f 59 85 60
f 60 85 61
f 61 86 62
f 61 85 86
f 62 86 71
f 63 71 64
f 64 71 87
f 64 87 88
f 64 88 65
f 65 88 89
f 65 89 90
f 65 90 66
f 66 90 91
f 66 91 92
f 66 92 69
f 67 70 93
f 67 93 68
f 68 93 94
f 68 94 73
f 69 92 95
f 69 95 70
f 70 95 96
f 70 96 93
f 71 86 97
f 71 97 87
f 72 75 98
f 73 94 99
f 73 99 74
f 74 100 101
f 74 101 102
f 74 102 75
f 74 99 100
f 75 102 81
f 75 81 80
f 75 80 103
f 75 103 98
f 76 78 104
f 77 81 105
f 77 105 106
f 77 106 78
f 78 106 132
f 78 132 104
f 79 103 80
f 81 102 107
f 81 107 105
f 82 108 83
f 83 108 109
f 83 109 110
f 83 110 111
f 83 111 84
f 84 111 112
f 84 112 113
f 84 113 97
f 84 97 86
f 84 86 85
f 87 97 113
f 87 113 114
f 87 114 115
f 87 115 88
f 88 115 116
f 88 116 89
f 89 91 90
f 89 116 117
f 89 117 118
f 89 118 119
f 89 119 120
f 89 120 91
f 91 120 121
f 91 121 122
f 91 122 123
f 91 123 95
f 91 95 92
f 93 96 124
f 93 124 125
f 93 125 126
f 93 126 94
f 94 126 99
f 95 123 127
f 95 127 128
f 95 128 129
f 95 129 96
f 96 130 124
f 96 129 131
f 96 131 130
f 99 126 107
f 99 107 100
f 100 107 101
f 101 107 102
f 105 107 133
f 105 133 134
f 105 134 106
f 106 134 152
f 106 152 151
f 106 151 159
f 106 159 132
f 107 126 133
f 110 135 136
f 110 136 137
f 110 137 111
f 111 137 138
f 111 138 112
f 112 138 113
f 113 138 139
f 113 139 114
f 114 140 115
f 114 139 141
f 114 141 140
f 115 142 116
f 115 140 143
f 115 143 144
f 115 144 142
f 116 142 145
f 116 145 117
f 117 145 118
f 118 145 146
f 118 146 147
f 118 147 119
f 119 148 120
f 119 147 148
f 120 148 149
f 120 149 121
f 121 149 122
f 122 149 150
f 122 150 123
f 123 150 127
f 124 130 151
f 124 151 125
f 125 151 152
f 125 152 133
f 125 133 126
f 127 153 170
f 127 170 154
f 127 154 155
f 127 155 128
f 127 150 149
f 127 149 153
f 128 155 156
f 128 156 129
f 129 156 158
f 129 158 131
f 130 131 157
f 130 157 151
f 131 158 179
f 131 179 157
f 133 152 134
f 135 160 136
f 136 160 161
f 136 161 139
f 136 139 138
f 136 138 137
f 139 161 141
f 140 141 144
f 140 144 143
f 141 161 162
f 141 162 144
f 142 144 163
f 142 163 164
f 142 164 145
f 144 162 163
f 145 164 165
f 145 165 146
f 146 165 166
f 146 166 167
f 146 167 168
f 146 168 147
f 147 168 195
f 147 195 169
f 147 169 148
f 148 169 149
f 149 169 153
f 151 157 179
f 151 179 159
f 153 169 195
f 153 195 170
f 154 170 171
f 154 171 172
f 154 172 173
f 154 173 174
f 154 174 175
f 154 175 176
f 154 176 155
f 155 176 156
f 156 176 177
f 156 177 178
f 156 178 158
f 158 178 180
f 158 180 181
f 158 181 179
f 159 179 181
f 160 182 161
f 161 182 162
f 162 182 183
f 162 183 184
f 162 184 185
f 162 185 186
f 162 186 187
f 162 187 188
f 162 188 163
f 163 188 164
f 164 188 166
f 164 166 165
f 166 188 189
f 166 189 167
f 167 189 190
f 167 190 168
f 168 190 191
f 168 191 192
f 168 192 193
f 168 193 194
f 168 194 195
f 170 195 171
f 171 195 194
f 187 196 188
f 188 196 189
f 189 197 190
f 190 197 191

