# https://github.com/mikedh/trimesh
v 46.41336484 1.19998254 33.45339060
v 46.41336484 -1.19880036 33.43096375
v 46.41336484 1.25682570 33.44890594
v 46.20351060 1.19998254 62.65895605
v 46.20351060 -1.19880036 62.65895605
v 46.41336484 -6.01405084 32.90166736
v 46.41336484 3.85392845 33.18425775
v 46.11308618 2.13978991 62.65895605
v 46.41336484 6.42955676 32.90615201
v 46.41336484 6.89061821 32.85232544
v 45.97147806 -3.59884635 62.65895605
v 46.41336484 -6.01405084 19.18029964
v 45.73432787 -5.99889278 62.65895605
v 45.73262019 -6.01405084 62.65895605
v 45.97147806 3.59876543 62.65895605
v 46.41336484 6.89061821 19.18029964
v 45.62513514 6.89061821 62.65895605
v 45.73432787 5.99881142 62.65895605
v 41.66181727 -6.01405084 16.83434486
v 29.23955245 -6.01405084 62.65895605
v 41.66181727 6.88809201 16.83434486
v 41.63963719 6.89061821 16.83434486
v 28.98534073 6.89061821 62.65895605
v 41.63963719 -6.01405084 16.83434486
v 29.23955245 -6.01405084 17.98713684
v 28.98534073 6.89061821 16.83434486
v 29.24125923 -6.00647181 16.83434486
f 1 2 6
f 1 6 12
f 1 12 16
f 1 16 10
f 1 10 9
f 1 9 7
f 1 7 3
f 1 3 4
f 1 4 5
f 1 5 2
f 2 5 6
f 3 7 4
f 4 8 15
f 4 15 18
f 4 18 17
f 4 17 23
f 4 23 20
f 4 20 14
f 4 14 13
f 4 13 11
f 4 11 5
f 4 7 9
f 4 9 10
f 4 10 8
f 5 11 6
f 6 11 13
f 6 13 14
f 6 14 20
f 6 20 25
f 6 25 24
f 6 24 19
f 6 19 12
f 8 10 15
f 10 16 22
f 10 22 26
f 10 26 23
f 10 23 17
f 10 17 18
f 10 18 15
f 12 19 21
f 12 21 16
f 16 21 22
f 19 24 27
f 19 27 26
f 19 26 22
f 19 22 21
f 20 23 26
f 20 26 25
f 24 25 27
f 25 26 27

