# https://github.com/mikedh/trimesh
v 41.65912790 -6.01405084 16.77121460
v 29.23879339 -6.01405084 16.77121460
v 41.65912790 -15.59984922 16.77121460
v 41.60745068 -6.01405084 -13.61597836
v 25.16274048 -15.88587642 16.77121460
v 29.23879339 -6.01405084 13.18330139
v 41.65751143 -15.88587642 16.77121460
v 41.60745068 -15.88587642 -13.61597836
v 29.29693027 -6.01405084 -13.61597836
v 25.16274048 -15.88587642 13.19817603
v 25.26125087 -15.88587642 -13.61597836
f 1 2 5
f 1 5 7
f 1 7 3
f 1 3 8
f 1 8 4
f 1 4 9
f 1 9 6
f 1 6 2
f 2 6 10
f 2 10 5
f 3 7 8
f 4 8 11
f 4 11 9
f 5 10 11
f 5 11 8
f 5 8 7
f 6 9 10
f 9 11 10

