# https://github.com/mikedh/trimesh
mtllib mtl_AprilTag_0000

o Cube-mesh
usemtl material_AprilTag_0000_0
v 0.00103277 0.03674316 0.03674316
v -0.00103277 -0.03674316 0.03674316
v 0.00103277 -0.03674316 0.03674316
v -0.00103277 0.03674316 0.03674316
v -0.00103277 -0.03674316 -0.03674316
v -0.00103277 -0.03674316 0.03674316
v -0.00103277 0.03674316 -0.03674316
v 0.00103277 -0.03674316 -0.03674316
v -0.00103277 -0.03674316 -0.03674316
v 0.00103277 -0.03674316 -0.03674316
v 0.00103277 0.03674316 0.03674316
v 0.00103277 -0.03674316 0.03674316
v -0.00103277 -0.03674316 -0.03674316
v 0.00103277 -0.03674316 0.03674316
v -0.00103277 -0.03674316 0.03674316
v -0.00103277 0.03674316 0.03674316
v 0.00103277 0.03674316 -0.03674316
v -0.00103277 0.03674316 -0.03674316
v -0.00103277 0.03674316 0.03674316
v -0.00103277 0.03674316 -0.03674316
v 0.00103277 0.03674316 -0.03674316
v 0.00103277 0.03674316 -0.03674316
v 0.00103277 -0.03674316 -0.03674316
v 0.00103277 0.03674316 0.03674316
vt 0.06015223 0.72490883
vt 0.02368938 0.52495438
vt 0.06015229 0.52495438
vt 0.00519377 0.99452370
vt 0.99361038 0.00610697
vt 0.99361038 0.99452370
vt 0.02368938 0.12504570
vt 0.06015229 0.32500011
vt 0.02368938 0.32500011
vt 0.00325417 0.00686878
vt 0.99401110 0.99762571
vt 0.00325412 0.99762559
vt 0.02368938 0.32500011
vt 0.06015229 0.52495438
vt 0.02368938 0.52495438
vt 0.02368938 0.72490871
vt 0.06015223 0.92486310
vt 0.02368932 0.92486310
vt 0.02368938 0.72490871
vt 0.00519353 0.00610709
vt 0.06015229 0.12504570
vt 0.99401122 0.00686902
vt 0.06015229 0.32500011
vt 0.06015223 0.72490883
f 1/1 2/2 3/3
f 4/4 5/5 6/6
f 7/7 8/8 9/9
f 10/10 11/11 12/12
f 13/13 14/14 15/15
f 16/16 17/17 18/18
f 1/1 19/19 2/2
f 4/4 20/20 5/5
f 7/7 21/21 8/8
f 10/10 22/22 11/11
f 13/13 23/23 14/14
f 16/16 24/24 17/17

