# https://github.com/mikedh/trimesh
mtllib mtl_autec_receiver
usemtl mtl_autec_receiver
v -0.00000000 0.05400000 0.05300000
v -0.00000000 0.06300000 0.06200000
v -0.00000000 -0.02800000 0.05300000
v -0.00000000 -0.06300000 0.06200000
v -0.00000000 -0.02800000 0.01700000
v 0.00000000 -0.06300000 0.00000000
v -0.00000000 0.05400000 0.01700000
v 0.00000000 0.06300000 0.00000000
v -0.11040000 -0.06300000 0.00000000
v -0.12000000 -0.06300000 0.00000000
v -0.12000000 0.06300000 0.00000000
v -0.03170000 0.06300000 0.00000000
v -0.09240000 -0.06300000 0.00000000
v -0.09240000 -0.07100000 0.00000000
v -0.11040000 -0.07100000 0.00000000
v -0.11040000 0.06300000 0.00000000
v -0.03170000 -0.06300000 0.00000000
v -0.04970000 -0.06300000 0.00000000
v -0.04970000 -0.07100000 0.00000000
v -0.03170000 -0.07100000 0.00000000
v -0.04970000 0.06300000 0.00000000
v -0.04970000 0.07100000 0.00000000
v -0.03170000 0.07100000 0.00000000
v -0.09240000 0.06300000 0.00000000
v -0.09240000 0.07100000 0.00000000
v -0.11040000 0.07100000 0.00000000
v -0.12000000 0.06300000 0.04100000
v -0.12000000 -0.06300000 0.04100000
v -0.06800000 0.06300000 0.04500000
v -0.06800000 -0.06300000 0.04500000
v -0.05400000 0.06300000 0.06200000
v -0.05400000 -0.06300000 0.06200000
v -0.03170000 0.06300000 0.01500000
v -0.04970000 0.06300000 0.01500000
v -0.11040000 0.06300000 0.01500000
v -0.09240000 0.06300000 0.01500000
v -0.03170000 -0.06300000 0.01500000
v -0.11040000 -0.06300000 0.01500000
v -0.04970000 -0.06300000 0.01500000
v -0.09240000 -0.06300000 0.01500000
v -0.04970000 -0.07100000 0.00400000
v -0.03170000 -0.07100000 0.00400000
v -0.03170000 0.07100000 0.00400000
v -0.04970000 0.07100000 0.00400000
v -0.11040000 -0.07100000 0.00400000
v -0.09240000 -0.07100000 0.00400000
v -0.09240000 0.07100000 0.00400000
v -0.11040000 0.07100000 0.00400000
v 0.09200000 0.05400000 0.05300000
v 0.09200000 0.05400000 0.01700000
v 0.09200000 -0.02800000 0.05300000
v 0.09200000 -0.02800000 0.01700000
v 0.09200000 0.02141711 0.04555472
v 0.09200000 0.02516308 0.04085743
v 0.09200000 0.02650000 0.03500000
v 0.09200000 0.02516308 0.02914257
v 0.09200000 0.02141711 0.02444527
v 0.09200000 0.01600403 0.02183847
v 0.09200000 0.00999597 0.02183847
v 0.09200000 0.00458289 0.02444527
v 0.09200000 0.00083692 0.02914257
v 0.09200000 -0.00050000 0.03500000
v 0.09200000 0.00083692 0.04085743
v 0.09200000 0.00458289 0.04555472
v 0.09200000 0.00999597 0.04816153
v 0.09200000 0.01600403 0.04816153
v 0.12899999 0.00016074 0.03082827
v 0.12899999 0.00207827 0.02706490
v 0.12899999 0.00083692 0.02914257
v 0.12899999 0.00999597 0.02183847
v 0.12899999 0.00882827 0.02216074
v 0.12899999 0.00506490 0.02407827
v 0.12899999 0.00458289 0.02444527
v 0.12899999 0.01300000 0.02150000
v 0.12899999 0.01600403 0.02183847
v 0.12899999 0.01717173 0.02216074
v 0.12899999 0.02093510 0.02407827
v 0.12899999 0.02392173 0.02706490
v 0.12899999 0.02141711 0.02444527
v 0.12899999 0.02583926 0.03082827
v 0.12899999 0.02516308 0.02914257
v 0.12899999 0.02583926 0.03917173
v 0.12899999 0.02650000 0.03500000
v 0.12899999 0.02392173 0.04293510
v 0.12899999 0.02516308 0.04085743
v 0.12899999 0.01600403 0.04816153
v 0.12899999 0.01717173 0.04783926
v 0.12899999 0.02093510 0.04592173
v 0.12899999 0.02141711 0.04555472
v 0.12899999 0.01300000 0.04850000
v 0.12899999 0.00999597 0.04816153
v 0.12899999 0.00882827 0.04783926
v 0.12899999 0.00506490 0.04592173
v 0.12899999 0.00207827 0.04293510
v 0.12899999 0.00458289 0.04555472
v 0.12899999 -0.00050000 0.03500000
v 0.12899999 0.00016074 0.03917173
v 0.12899999 0.00083692 0.04085743
v 0.13500001 0.00550000 0.03500000
v 0.13500001 0.00586708 0.03268237
v 0.13500001 0.01300000 0.03500000
v 0.13500001 0.00586708 0.03731763
v 0.13500001 0.01068237 0.04213293
v 0.13500001 0.00859161 0.04106763
v 0.13500001 0.00693237 0.03940839
v 0.13500001 0.01740839 0.04106763
v 0.13500001 0.01531763 0.04213293
v 0.13500001 0.01300000 0.04250000
v 0.13500001 0.02050000 0.03500000
v 0.13500001 0.02013292 0.03731763
v 0.13500001 0.01906763 0.03940839
v 0.13500001 0.01740839 0.02893237
v 0.13500001 0.01906763 0.03059161
v 0.13500001 0.02013292 0.03268237
v 0.13500001 0.01068237 0.02786708
v 0.13500001 0.01300000 0.02750000
v 0.13500001 0.01531763 0.02786708
v 0.13500001 0.00693237 0.03059161
v 0.13500001 0.00859161 0.02893237
v 0.13129610 0.00533335 0.02444777
v 0.13129610 0.00244777 0.02733335
v 0.13129610 0.00896941 0.02259511
v 0.13129610 0.01300000 0.02195672
v 0.13129610 0.01703059 0.02259511
v 0.13129610 0.02066665 0.02444777
v 0.13129610 0.02355223 0.02733335
v 0.13129610 0.02540489 0.03096941
v 0.13129610 0.02604328 0.03500000
v 0.13129610 0.02540489 0.03903059
v 0.13129610 0.02355223 0.04266665
v 0.13129610 0.02066665 0.04555223
v 0.13129610 0.01703059 0.04740489
v 0.13129610 0.01300000 0.04804328
v 0.13129610 0.00896941 0.04740489
v 0.13129610 0.00533335 0.04555223
v 0.13129610 0.00244777 0.04266665
v 0.13129610 0.00059511 0.03903059
v 0.13129610 -0.00004328 0.03500000
v 0.13129610 0.00059511 0.03096941
v 0.13324264 0.00183209 0.03862868
v 0.13324264 0.00350000 0.04190215
v 0.13324264 0.00609785 0.04450000
v 0.13324264 0.00937132 0.04616791
v 0.13324264 0.01300000 0.04674264
v 0.13324264 0.01662868 0.04616791
v 0.13324264 0.01990215 0.04450000
v 0.13324264 0.02250000 0.04190215
v 0.13324264 0.02416792 0.03862868
v 0.13324264 0.02474264 0.03500000
v 0.13324264 0.02416792 0.03137133
v 0.13324264 0.02250000 0.02809785
v 0.13324264 0.01990215 0.02550000
v 0.13324264 0.01662868 0.02383208
v 0.13324264 0.01300000 0.02325736
v 0.13324264 0.00937132 0.02383208
v 0.13324264 0.00609785 0.02550000
v 0.13324264 0.00350000 0.02809785
v 0.13324264 0.00183209 0.03137133
v 0.13324264 0.00125736 0.03500000
v 0.13454327 0.00368335 0.03802716
v 0.13454327 0.00507479 0.04075800
v 0.13454327 0.00724200 0.04292521
v 0.13454327 0.00997284 0.04431665
v 0.13454327 0.01300000 0.04479610
v 0.13454327 0.01602716 0.04431665
v 0.13454327 0.01875800 0.04292521
v 0.13454327 0.02092521 0.04075800
v 0.13454327 0.02231665 0.03802716
v 0.13454327 0.02279610 0.03500000
v 0.13454327 0.02231665 0.03197284
v 0.13454327 0.02092521 0.02924200
v 0.13454327 0.01875800 0.02707479
v 0.13454327 0.01602716 0.02568335
v 0.13454327 0.01300000 0.02520390
v 0.13454327 0.00997284 0.02568335
v 0.13454327 0.00724200 0.02707479
v 0.13454327 0.00507479 0.02924200
v 0.13454327 0.00368335 0.03197284
v 0.13454327 0.00320390 0.03500000
f 1 2 3
f 3 2 4
f 3 4 5
f 5 4 6
f 5 6 7
f 7 6 8
f 7 8 1
f 1 8 2
f 9 10 11
f 12 8 6
f 13 14 15
f 16 6 11
f 11 6 17
f 15 9 13
f 13 9 11
f 13 11 18
f 18 11 17
f 18 17 19
f 19 17 20
f 21 22 23
f 23 12 21
f 21 12 6
f 21 6 24
f 24 6 16
f 24 16 25
f 25 16 26
f 27 11 28
f 28 11 10
f 29 27 30
f 30 27 28
f 31 29 32
f 32 29 30
f 2 31 4
f 4 31 32
f 33 34 29
f 8 12 2
f 2 12 33
f 2 33 31
f 31 33 29
f 16 11 35
f 35 11 27
f 35 27 36
f 36 27 29
f 36 29 24
f 24 29 34
f 24 34 21
f 37 17 6
f 10 9 28
f 28 9 38
f 28 38 30
f 13 18 39
f 13 39 40
f 38 40 30
f 30 40 39
f 30 39 32
f 32 39 37
f 32 37 4
f 4 37 6
f 19 20 41
f 41 20 42
f 20 17 42
f 42 17 37
f 18 19 39
f 39 19 41
f 23 22 43
f 43 22 44
f 22 21 44
f 44 21 34
f 12 23 33
f 33 23 43
f 15 14 45
f 45 14 46
f 14 13 46
f 46 13 40
f 9 15 38
f 38 15 45
f 25 26 47
f 47 26 48
f 26 16 48
f 48 16 35
f 24 25 36
f 36 25 47
f 36 47 35
f 35 47 48
f 38 45 40
f 40 45 46
f 33 43 34
f 34 43 44
f 39 41 37
f 37 41 42
f 49 50 1
f 1 50 7
f 51 49 3
f 3 49 1
f 52 51 5
f 5 51 3
f 50 52 7
f 7 52 5
f 53 54 49
f 49 54 50
f 50 54 55
f 50 55 56
f 56 57 50
f 50 57 58
f 50 58 52
f 52 58 59
f 52 59 60
f 60 61 52
f 52 61 62
f 52 62 51
f 51 62 63
f 63 64 51
f 51 64 65
f 51 65 49
f 49 65 66
f 49 66 53
f 62 61 67
f 60 68 61
f 61 68 69
f 61 69 67
f 70 71 59
f 59 71 72
f 59 72 60
f 60 72 73
f 60 73 68
f 70 59 74
f 74 59 58
f 74 58 75
f 75 58 76
f 76 58 57
f 76 57 77
f 56 78 57
f 57 78 79
f 57 79 77
f 55 80 56
f 56 80 81
f 56 81 78
f 54 82 55
f 55 82 83
f 55 83 80
f 53 84 54
f 54 84 85
f 54 85 82
f 86 87 66
f 66 87 88
f 66 88 53
f 53 88 89
f 53 89 84
f 86 66 90
f 90 66 65
f 90 65 91
f 91 65 92
f 92 65 64
f 92 64 93
f 63 94 64
f 64 94 95
f 64 95 93
f 67 96 62
f 62 96 97
f 62 97 63
f 63 97 98
f 63 98 94
f 99 100 101
f 99 101 102
f 103 104 101
f 101 104 105
f 101 105 102
f 106 107 101
f 101 107 108
f 101 108 103
f 109 110 101
f 101 110 111
f 101 111 106
f 112 113 101
f 101 113 114
f 101 114 109
f 115 116 101
f 101 116 117
f 101 117 112
f 100 118 101
f 101 118 119
f 101 119 115
f 73 120 121
f 73 72 120
f 120 72 71
f 120 71 122
f 122 71 70
f 122 70 123
f 70 74 123
f 123 74 75
f 123 75 124
f 75 76 124
f 124 76 77
f 124 77 125
f 125 77 79
f 125 79 126
f 126 79 78
f 126 78 127
f 127 78 81
f 81 80 127
f 127 80 83
f 127 83 128
f 128 83 82
f 128 82 129
f 129 82 85
f 129 85 130
f 85 84 130
f 130 84 89
f 130 89 131
f 89 88 131
f 131 88 87
f 131 87 132
f 132 87 86
f 132 86 133
f 86 90 133
f 133 90 91
f 133 91 134
f 91 92 134
f 134 92 93
f 134 93 135
f 135 93 95
f 135 95 136
f 136 95 94
f 136 94 137
f 137 94 98
f 98 97 137
f 137 97 96
f 137 96 138
f 138 96 67
f 138 67 139
f 139 67 69
f 139 69 121
f 121 69 68
f 121 68 73
f 138 140 137
f 137 140 141
f 137 141 136
f 136 141 142
f 136 142 135
f 135 142 143
f 135 143 134
f 134 143 144
f 134 144 133
f 133 144 145
f 133 145 132
f 132 145 146
f 132 146 131
f 131 146 147
f 131 147 130
f 130 147 148
f 130 148 129
f 129 148 149
f 129 149 128
f 128 149 150
f 128 150 127
f 127 150 151
f 127 151 126
f 126 151 152
f 126 152 125
f 125 152 153
f 125 153 124
f 124 153 154
f 124 154 123
f 123 154 155
f 123 155 122
f 122 155 156
f 122 156 120
f 120 156 157
f 120 157 121
f 121 157 158
f 121 158 139
f 139 158 159
f 139 159 138
f 138 159 140
f 159 160 140
f 140 160 161
f 140 161 141
f 141 161 162
f 141 162 142
f 142 162 163
f 142 163 143
f 143 163 164
f 143 164 144
f 144 164 165
f 144 165 145
f 145 165 166
f 145 166 146
f 146 166 167
f 146 167 147
f 147 167 168
f 147 168 148
f 148 168 169
f 148 169 149
f 149 169 170
f 149 170 150
f 150 170 171
f 150 171 151
f 151 171 172
f 151 172 152
f 152 172 173
f 152 173 153
f 153 173 174
f 153 174 154
f 154 174 175
f 154 175 155
f 155 175 176
f 155 176 156
f 156 176 177
f 156 177 157
f 157 177 178
f 157 178 158
f 158 178 179
f 158 179 159
f 159 179 160
f 179 102 160
f 160 102 105
f 160 105 161
f 161 105 104
f 161 104 162
f 162 104 103
f 162 103 163
f 163 103 108
f 163 108 164
f 164 108 107
f 164 107 165
f 165 107 106
f 165 106 166
f 166 106 111
f 166 111 167
f 167 111 110
f 167 110 168
f 168 110 109
f 168 109 169
f 169 109 114
f 169 114 170
f 170 114 113
f 170 113 171
f 171 113 112
f 171 112 172
f 172 112 117
f 172 117 173
f 173 117 116
f 173 116 174
f 174 116 115
f 174 115 175
f 175 115 119
f 175 119 176
f 176 119 118
f 176 118 177
f 177 118 100
f 177 100 178
f 178 100 99
f 178 99 179
f 179 99 102

