# https://github.com/mikedh/trimesh
mtllib mtl_body
usemtl mtl_body
v 0.34758908 0.00000001 0.27552551
v -0.00000001 0.34758905 0.27552554
v -0.34758908 -0.00000002 0.27552557
v 0.00000002 -0.34758908 0.27552554
v 0.34758908 0.00000002 0.21562867
v -0.00000001 0.34758908 0.21562868
v -0.34758908 -0.00000001 0.21562867
v 0.00000002 -0.34758905 0.21562865
v 0.39999482 0.05149945 0.21865077
v 0.39999482 0.05489941 0.21865077
v 0.39105204 0.05071706 0.21865077
v 0.45612380 0.05489942 0.21865077
v 0.45196894 0.07444664 0.21865077
v 0.42272994 0.05489941 0.21865077
v 0.42467108 0.20287275 0.21865077
v 0.45612383 -0.05489916 0.21865077
v 0.42272997 -0.05489917 0.21865077
v 0.45196900 -0.07444639 0.21865077
v 0.39999485 -0.05489918 0.21865077
v 0.42467120 -0.20287251 0.21865077
v 0.39999485 -0.05149923 0.21865077
v 0.39105207 -0.05071683 0.21865077
v 0.38238102 -0.04839344 0.21865079
v 0.38238099 0.04839366 0.21865079
v 0.33671063 -0.37712413 0.21865079
v 0.33782631 -0.37668091 0.21865079
v 0.27499646 0.00000017 0.21865073
v 0.36054406 -0.03310303 0.21865079
v 0.36689171 -0.03945068 0.21865079
v 0.27499634 0.38953409 0.21865079
v 0.27499634 0.39167863 0.21865079
v 0.37424517 -0.04459963 0.21865079
v 0.42273003 -0.21200494 0.21865077
v 0.40637702 -0.28893995 0.21865077
v 0.27499658 -0.39167845 0.21865079
v 0.00000011 -0.39167824 0.21865074
v 0.40097967 0.30735734 0.21865077
v 0.40637684 0.28894019 0.21865077
v 0.30129048 0.38808396 0.21865079
v 0.31579584 0.38473517 0.21865079
v -0.00000011 0.39167878 0.21865074
v 0.37424514 0.04459984 0.21865079
v 0.36054406 0.03310324 0.21865079
v 0.35714561 0.02824974 0.21865079
v 0.27499658 -0.38953391 0.21865079
v 0.31622154 -0.38463673 0.21865079
v 0.31579608 -0.38473499 0.21865079
v 0.36930546 -0.35491079 0.21865079
v 0.37098074 -0.35307178 0.21865079
v 0.36689171 0.03945089 0.21865079
v 0.37098065 0.04231399 0.21865079
v 0.35439050 0.36698872 0.21865079
v 0.36930528 0.35491097 0.21865079
v 0.35539511 0.02574977 0.21865079
v 0.35160130 0.01761391 0.21865079
v 0.33782610 0.37668109 0.21865079
v 0.35439071 -0.36698854 0.21865079
v 0.30129072 -0.38808379 0.21865079
v 0.38292930 0.33967355 0.21865079
v 0.39286888 0.32475090 0.21865077
v 0.31999034 0.38376680 0.21865079
v 0.33671042 0.37712431 0.21865079
v 0.42272991 0.21200518 0.21865077
v 0.28215390 -0.38953391 0.21865079
v 0.35714561 -0.02824954 0.21865079
v 0.35539511 -0.02574957 0.21865079
v 0.37098056 0.35307202 0.21865079
v 0.40097985 -0.30735710 0.21865077
v 0.38222978 0.34072375 0.21865079
v 0.34849548 0.00000010 0.21865079
v 0.34927788 0.00894286 0.21865079
v 0.39286906 -0.32475066 0.21865077
v 0.38292947 -0.33967331 0.21865079
v 0.37098065 -0.04231378 0.21865079
v 0.35160130 -0.01761371 0.21865079
v 0.34927788 -0.00894267 0.21865079
v 0.28215367 0.38953409 0.21865079
v 0.31999058 -0.38376662 0.21865079
v 0.38222995 -0.34072351 0.21865079
v 0.39999482 0.05149945 0.21172625
v 0.39105204 0.05071706 0.21172625
v 0.39999482 0.05489941 0.21172625
v 0.45612380 0.05489942 0.21172625
v 0.42272994 0.05489941 0.21172625
v 0.45196894 0.07444664 0.21172625
v 0.42467108 0.20287275 0.21172625
v 0.45612383 -0.05489916 0.21172625
v 0.45196900 -0.07444639 0.21172625
v 0.42272997 -0.05489917 0.21172625
v 0.39999485 -0.05489918 0.21172625
v 0.42467120 -0.20287251 0.21172625
v 0.39999485 -0.05149923 0.21172625
v 0.39105207 -0.05071683 0.21172625
v 0.38238102 -0.04839344 0.21172625
v 0.38238099 0.04839366 0.21172625
v 0.33671063 -0.37712413 0.21172625
v 0.27499646 0.00000017 0.21172619
v 0.33782631 -0.37668091 0.21172625
v 0.36054406 -0.03310303 0.21172625
v 0.36689171 -0.03945068 0.21172625
v 0.27499634 0.38953409 0.21172625
v 0.27499634 0.39167863 0.21172625
v 0.37424517 -0.04459963 0.21172625
v 0.42273003 -0.21200494 0.21172625
v 0.40637702 -0.28893995 0.21172625
v 0.40097967 0.30735734 0.21172625
v 0.40637684 0.28894019 0.21172625
v 0.30129048 0.38808396 0.21172625
v 0.31579584 0.38473517 0.21172625
v 0.27499658 -0.39167845 0.21172625
v 0.27499658 -0.39167845 0.00365359
v 0.27499649 0.00000017 0.00365356
v 0.37424514 0.04459984 0.21172625
v 0.36054406 0.03310324 0.21172625
v 0.35714561 0.02824974 0.21172625
v 0.27499658 -0.38953391 0.21172625
v 0.31622154 -0.38463673 0.21172625
v 0.31579608 -0.38473499 0.21172625
v 0.36930546 -0.35491079 0.21172625
v 0.37098074 -0.35307178 0.21172625
v 0.36689171 0.03945089 0.21172625
v 0.37098062 0.04231399 0.21172625
v 0.35439050 0.36698872 0.21172625
v 0.36930528 0.35491097 0.21172625
v 0.35539511 0.02574977 0.21172625
v 0.35160130 0.01761391 0.21172625
v 0.33782610 0.37668109 0.21172625
v 0.35439071 -0.36698854 0.21172625
v 0.30129072 -0.38808379 0.21172625
v 0.38292930 0.33967355 0.21172625
v 0.39286888 0.32475090 0.21172625
v 0.31999034 0.38376680 0.21172625
v 0.33671042 0.37712431 0.21172625
v 0.42272991 0.21200518 0.21172625
v 0.28215390 -0.38953391 0.21172625
v 0.35714561 -0.02824954 0.21172625
v 0.35539511 -0.02574957 0.21172625
v 0.37098056 0.35307202 0.21172625
v 0.40097985 -0.30735710 0.21172625
v 0.38222978 0.34072375 0.21172625
v 0.34849548 0.00000010 0.21172625
v 0.34927788 0.00894286 0.21172625
v 0.39286906 -0.32475066 0.21172625
v 0.38292947 -0.33967331 0.21172625
v 0.37098065 -0.04231378 0.21172625
v 0.35160130 -0.01761371 0.21172625
v 0.34927788 -0.00894267 0.21172625
v 0.28215367 0.38953409 0.21172625
v 0.31999058 -0.38376662 0.21172625
v 0.38222995 -0.34072351 0.21172625
v 0.00000011 -0.39167824 0.21172622
v -0.00000011 0.39167878 0.21172622
v 0.27499637 0.39167863 0.00365359
v 0.00000010 -0.39167824 0.00365356
v -0.00000012 0.39167878 0.00365356
v -0.39999488 0.05149923 0.21865082
v -0.39105210 0.05071683 0.21865082
v -0.39999488 0.05489918 0.21865082
v -0.45612386 0.05489916 0.21865082
v -0.42273000 0.05489917 0.21865082
v -0.45196900 0.07444639 0.21865082
v -0.42467120 0.20287251 0.21865082
v -0.45612383 -0.05489942 0.21865082
v -0.45196894 -0.07444664 0.21865082
v -0.42272997 -0.05489941 0.21865082
v -0.39999485 -0.05489941 0.21865082
v -0.42467108 -0.20287275 0.21865082
v -0.39999485 -0.05149945 0.21865082
v -0.39105207 -0.05071706 0.21865082
v -0.38238102 -0.04839366 0.21865082
v -0.38238105 0.04839344 0.21865082
v -0.33671045 -0.37712431 0.21865082
v -0.27499646 0.00000002 0.21865074
v -0.33782613 -0.37668109 0.21865082
v -0.36054406 -0.03310324 0.21865082
v -0.36689171 -0.03945089 0.21865082
v -0.27499658 0.38953391 0.21865080
v -0.27499658 0.39167845 0.21865080
v -0.37424517 -0.04459984 0.21865082
v -0.42272991 -0.21200518 0.21865082
v -0.40637684 -0.28894019 0.21865082
v -0.27499634 -0.39167863 0.21865080
v -0.40097985 0.30735710 0.21865082
v -0.40637702 0.28893995 0.21865082
v -0.30129072 0.38808379 0.21865082
v -0.31579608 0.38473499 0.21865082
v -0.37424520 0.04459963 0.21865082
v -0.36054406 0.03310303 0.21865082
v -0.35714561 0.02824954 0.21865082
v -0.27499634 -0.38953409 0.21865080
v -0.31622130 -0.38463691 0.21865082
v -0.31579584 -0.38473517 0.21865082
v -0.36930528 -0.35491097 0.21865082
v -0.37098056 -0.35307202 0.21865082
v -0.36689171 0.03945068 0.21865082
v -0.37098065 0.04231378 0.21865082
v -0.35439074 0.36698854 0.21865082
v -0.36930546 0.35491079 0.21865082
v -0.35539511 0.02574957 0.21865082
v -0.35160130 0.01761371 0.21865082
v -0.33782634 0.37668091 0.21865082
v -0.35439053 -0.36698872 0.21865082
v -0.30129048 -0.38808396 0.21865082
v -0.38292947 0.33967331 0.21865082
v -0.39286906 0.32475066 0.21865082
v -0.31999058 0.38376662 0.21865082
v -0.33671066 0.37712413 0.21865082
v -0.42273003 0.21200494 0.21865082
v -0.28215367 -0.38953409 0.21865080
v -0.35714561 -0.02824974 0.21865082
v -0.35539511 -0.02574977 0.21865082
v -0.37098074 0.35307178 0.21865082
v -0.40097967 -0.30735734 0.21865082
v -0.38222995 0.34072351 0.21865082
v -0.34849548 -0.00000010 0.21865082
v -0.34927788 0.00894267 0.21865082
v -0.39286888 -0.32475090 0.21865082
v -0.38292930 -0.33967355 0.21865082
v -0.37098065 -0.04231399 0.21865082
v -0.35160130 -0.01761391 0.21865082
v -0.34927788 -0.00894286 0.21865082
v -0.28215390 0.38953391 0.21865080
v -0.31999034 -0.38376680 0.21865082
v -0.38222978 -0.34072375 0.21865082
v -0.39999488 0.05149923 0.21172628
v -0.39999488 0.05489918 0.21172628
v -0.39105210 0.05071683 0.21172628
v -0.45612386 0.05489916 0.21172628
v -0.45196900 0.07444639 0.21172628
v -0.42273000 0.05489917 0.21172628
v -0.42467120 0.20287251 0.21172628
v -0.45612383 -0.05489942 0.21172628
v -0.42272997 -0.05489941 0.21172628
v -0.45196894 -0.07444664 0.21172628
v -0.39999485 -0.05489941 0.21172628
v -0.42467108 -0.20287275 0.21172628
v -0.39999485 -0.05149945 0.21172628
v -0.39105207 -0.05071706 0.21172628
v -0.38238102 -0.04839366 0.21172628
v -0.38238105 0.04839344 0.21172628
v -0.33671045 -0.37712431 0.21172628
v -0.33782613 -0.37668109 0.21172628
v -0.27499646 0.00000002 0.21172622
v -0.36054406 -0.03310324 0.21172628
v -0.36689171 -0.03945089 0.21172628
v -0.27499658 0.38953391 0.21172628
v -0.27499658 0.39167845 0.21172628
v -0.37424517 -0.04459984 0.21172628
v -0.42272991 -0.21200518 0.21172628
v -0.40637684 -0.28894019 0.21172628
v -0.40097985 0.30735710 0.21172628
v -0.40637702 0.28893995 0.21172628
v -0.30129072 0.38808379 0.21172628
v -0.31579608 0.38473499 0.21172628
v -0.27499649 0.00000002 0.00365356
v -0.27499640 -0.39167863 0.00365359
v -0.27499634 -0.39167863 0.21172628
v -0.37424520 0.04459963 0.21172628
v -0.36054406 0.03310303 0.21172628
v -0.35714561 0.02824954 0.21172628
v -0.27499634 -0.38953409 0.21172628
v -0.31622130 -0.38463691 0.21172628
v -0.31579584 -0.38473517 0.21172628
v -0.36930528 -0.35491097 0.21172628
v -0.37098056 -0.35307202 0.21172628
v -0.36689171 0.03945068 0.21172628
v -0.37098068 0.04231378 0.21172628
v -0.35439074 0.36698854 0.21172628
v -0.36930546 0.35491079 0.21172628
v -0.35539511 0.02574957 0.21172628
v -0.35160130 0.01761371 0.21172628
v -0.33782634 0.37668091 0.21172628
v -0.35439053 -0.36698872 0.21172628
v -0.30129048 -0.38808396 0.21172628
v -0.38292947 0.33967331 0.21172628
v -0.39286906 0.32475066 0.21172628
v -0.31999058 0.38376662 0.21172628
v -0.33671066 0.37712413 0.21172628
v -0.42273003 0.21200494 0.21172628
v -0.28215367 -0.38953409 0.21172628
v -0.35714561 -0.02824974 0.21172628
v -0.35539511 -0.02574977 0.21172628
v -0.37098074 0.35307178 0.21172628
v -0.40097967 -0.30735734 0.21172628
v -0.38222995 0.34072351 0.21172628
v -0.34849548 -0.00000010 0.21172628
v -0.34927788 0.00894267 0.21172628
v -0.39286888 -0.32475090 0.21172628
v -0.38292930 -0.33967355 0.21172628
v -0.37098065 -0.04231399 0.21172628
v -0.35160130 -0.01761391 0.21172628
v -0.34927788 -0.00894286 0.21172628
v -0.28215390 0.38953391 0.21172628
v -0.31999034 -0.38376680 0.21172628
v -0.38222978 -0.34072375 0.21172628
v -0.27499661 0.39167845 0.00365359
f 1 2 3
f 3 4 1
f 2 1 5
f 5 6 2
f 7 8 4
f 4 3 7
f 1 4 8
f 8 5 1
f 6 7 3
f 3 2 6
f 7 6 5
f 5 8 7
f 9 10 11
f 12 13 14
f 14 13 10
f 13 15 10
f 16 17 18
f 17 19 18
f 18 19 20
f 21 22 19
f 19 22 20
f 22 23 20
f 10 15 11
f 24 11 15
f 25 26 27
f 28 27 29
f 30 31 27
f 23 32 27
f 33 27 34
f 35 27 36
f 37 27 38
f 39 27 40
f 31 41 27
f 24 27 42
f 43 27 44
f 35 45 27
f 46 27 47
f 48 49 27
f 50 27 43
f 51 27 50
f 20 27 33
f 52 27 53
f 54 27 55
f 52 56 27
f 26 57 27
f 44 27 54
f 42 27 51
f 57 48 27
f 58 47 27
f 59 27 60
f 61 27 62
f 63 27 15
f 45 64 27
f 65 66 27
f 67 53 27
f 28 65 27
f 68 34 27
f 59 69 27
f 70 71 27
f 68 27 72
f 20 23 27
f 56 62 27
f 73 72 27
f 29 27 74
f 64 58 27
f 75 76 27
f 63 38 27
f 15 27 24
f 69 67 27
f 55 27 71
f 39 77 27
f 75 27 66
f 30 27 77
f 37 60 27
f 74 27 32
f 76 70 27
f 78 25 27
f 79 27 49
f 78 27 46
f 40 27 61
f 79 73 27
f 80 81 82
f 83 84 85
f 84 82 85
f 85 82 86
f 87 88 89
f 89 88 90
f 88 91 90
f 92 90 93
f 90 91 93
f 93 91 94
f 82 81 86
f 95 86 81
f 96 97 98
f 99 100 97
f 101 97 102
f 94 97 103
f 104 105 97
f 106 107 97
f 108 109 97
f 97 110 111
f 111 112 97
f 95 113 97
f 114 115 97
f 110 97 116
f 117 118 97
f 119 97 120
f 121 114 97
f 122 121 97
f 91 104 97
f 123 124 97
f 125 126 97
f 123 97 127
f 98 97 128
f 115 125 97
f 113 122 97
f 128 97 119
f 129 97 118
f 130 131 97
f 132 133 97
f 134 86 97
f 116 97 135
f 136 97 137
f 138 97 124
f 99 97 136
f 139 97 105
f 130 97 140
f 141 97 142
f 139 143 97
f 91 97 94
f 127 97 133
f 144 97 143
f 100 145 97
f 135 97 129
f 146 97 147
f 134 97 107
f 86 95 97
f 140 97 138
f 126 142 97
f 108 97 148
f 146 137 97
f 101 148 97
f 106 97 131
f 145 103 97
f 147 97 141
f 149 97 96
f 150 120 97
f 149 117 97
f 109 132 97
f 150 97 144
f 45 116 135
f 135 64 45
f 65 136 137
f 137 66 65
f 67 138 124
f 124 53 67
f 28 99 136
f 136 65 28
f 68 139 105
f 105 34 68
f 59 130 140
f 140 69 59
f 70 141 142
f 142 71 70
f 72 143 139
f 139 68 72
f 56 127 133
f 133 62 56
f 73 144 143
f 143 72 73
f 74 145 100
f 100 29 74
f 64 135 129
f 129 58 64
f 75 146 147
f 147 76 75
f 63 134 107
f 107 38 63
f 69 140 138
f 138 67 69
f 71 142 126
f 126 55 71
f 39 108 148
f 148 77 39
f 66 137 146
f 146 75 66
f 77 148 101
f 101 30 77
f 76 147 141
f 141 70 76
f 37 106 131
f 131 60 37
f 32 103 145
f 145 74 32
f 12 83 85
f 85 13 12
f 76 147 141
f 141 70 76
f 78 149 96
f 96 25 78
f 14 84 83
f 83 12 14
f 150 79 49
f 49 120 150
f 46 117 149
f 149 78 46
f 61 132 109
f 109 40 61
f 79 150 144
f 144 73 79
f 25 96 98
f 98 26 25
f 18 88 87
f 87 16 18
f 29 100 99
f 99 28 29
f 30 101 102
f 102 31 30
f 23 94 103
f 103 32 23
f 34 105 104
f 104 33 34
f 36 151 110
f 110 35 36
f 17 89 90
f 90 19 17
f 38 107 106
f 106 37 38
f 40 109 108
f 108 39 40
f 19 90 92
f 92 21 19
f 20 91 88
f 88 18 20
f 31 102 152
f 152 41 31
f 22 93 94
f 94 23 22
f 42 113 95
f 95 24 42
f 44 115 114
f 114 43 44
f 13 85 86
f 86 15 13
f 9 80 82
f 82 10 9
f 35 110 116
f 116 45 35
f 21 92 93
f 93 22 21
f 11 81 80
f 80 9 11
f 47 118 117
f 117 46 47
f 16 87 89
f 89 17 16
f 24 95 81
f 81 11 24
f 48 119 120
f 120 49 48
f 43 114 121
f 121 50 43
f 50 121 122
f 122 51 50
f 33 104 91
f 91 20 33
f 53 124 123
f 123 52 53
f 55 126 125
f 125 54 55
f 52 123 127
f 127 56 52
f 26 98 128
f 128 57 26
f 10 82 84
f 84 14 10
f 54 125 115
f 115 44 54
f 51 122 113
f 113 42 51
f 57 128 119
f 119 48 57
f 58 129 118
f 118 47 58
f 60 131 130
f 130 59 60
f 62 133 132
f 132 61 62
f 15 86 134
f 134 63 15
f 102 97 112
f 112 153 102
f 27 41 36
f 111 154 112
f 153 112 155
f 112 154 155
f 152 102 153
f 153 155 152
f 110 151 154
f 154 111 110
f 156 157 158
f 159 160 161
f 160 158 161
f 161 158 162
f 163 164 165
f 165 164 166
f 164 167 166
f 168 166 169
f 166 167 169
f 169 167 170
f 158 157 162
f 171 162 157
f 172 173 174
f 175 176 173
f 177 173 178
f 170 173 179
f 180 181 173
f 182 36 173
f 183 184 173
f 185 186 173
f 178 173 41
f 171 187 173
f 188 189 173
f 182 173 190
f 191 192 173
f 193 173 194
f 195 188 173
f 196 195 173
f 167 180 173
f 197 198 173
f 199 200 173
f 197 173 201
f 174 173 202
f 189 199 173
f 187 196 173
f 202 173 193
f 203 173 192
f 204 205 173
f 206 207 173
f 208 162 173
f 190 173 209
f 210 173 211
f 212 173 198
f 175 173 210
f 213 173 181
f 204 173 214
f 215 173 216
f 213 217 173
f 167 173 170
f 201 173 207
f 218 173 217
f 176 219 173
f 209 173 203
f 220 173 221
f 208 173 184
f 162 171 173
f 214 173 212
f 200 216 173
f 185 173 222
f 220 211 173
f 177 222 173
f 183 173 205
f 219 179 173
f 221 173 215
f 223 173 172
f 224 194 173
f 223 191 173
f 186 206 173
f 224 173 218
f 225 226 227
f 228 229 230
f 230 229 226
f 229 231 226
f 232 233 234
f 233 235 234
f 234 235 236
f 237 238 235
f 235 238 236
f 238 239 236
f 226 231 227
f 240 227 231
f 241 242 243
f 244 243 245
f 246 247 243
f 239 248 243
f 249 243 250
f 251 243 252
f 253 243 254
f 243 255 256
f 256 257 243
f 240 243 258
f 259 243 260
f 257 261 243
f 262 243 263
f 264 265 243
f 266 243 259
f 267 243 266
f 236 243 249
f 268 243 269
f 270 243 271
f 268 272 243
f 242 273 243
f 260 243 270
f 258 243 267
f 273 264 243
f 274 263 243
f 275 243 276
f 277 243 278
f 279 243 231
f 261 280 243
f 281 282 243
f 283 269 243
f 244 281 243
f 284 250 243
f 275 285 243
f 286 287 243
f 284 243 288
f 236 239 243
f 272 278 243
f 289 288 243
f 245 243 290
f 280 274 243
f 291 292 243
f 279 252 243
f 231 243 240
f 285 283 243
f 271 243 287
f 253 293 243
f 291 243 282
f 246 243 293
f 251 276 243
f 290 243 248
f 292 286 243
f 294 241 243
f 295 243 265
f 294 243 262
f 254 243 277
f 295 289 243
f 190 209 280
f 280 261 190
f 210 211 282
f 282 281 210
f 212 198 269
f 269 283 212
f 175 210 281
f 281 244 175
f 213 181 250
f 250 284 213
f 204 214 285
f 285 275 204
f 215 216 287
f 287 286 215
f 217 213 284
f 284 288 217
f 201 207 278
f 278 272 201
f 218 217 288
f 288 289 218
f 219 176 245
f 245 290 219
f 209 203 274
f 274 280 209
f 220 221 292
f 292 291 220
f 208 184 252
f 252 279 208
f 214 212 283
f 283 285 214
f 216 200 271
f 271 287 216
f 185 222 293
f 293 253 185
f 211 220 291
f 291 282 211
f 222 177 246
f 246 293 222
f 221 215 286
f 286 292 221
f 183 205 276
f 276 251 183
f 179 219 290
f 290 248 179
f 159 161 229
f 229 228 159
f 221 215 286
f 286 292 221
f 223 172 241
f 241 294 223
f 160 159 228
f 228 230 160
f 194 224 295
f 295 265 194
f 191 223 294
f 294 262 191
f 206 186 254
f 254 277 206
f 224 218 289
f 289 295 224
f 172 174 242
f 242 241 172
f 164 163 232
f 232 234 164
f 176 175 244
f 244 245 176
f 177 178 247
f 247 246 177
f 170 179 248
f 248 239 170
f 181 180 249
f 249 250 181
f 36 182 257
f 257 151 36
f 165 166 235
f 235 233 165
f 184 183 251
f 251 252 184
f 186 185 253
f 253 254 186
f 166 168 237
f 237 235 166
f 167 164 234
f 234 236 167
f 178 41 152
f 152 247 178
f 169 170 239
f 239 238 169
f 187 171 240
f 240 258 187
f 189 188 259
f 259 260 189
f 161 162 231
f 231 229 161
f 156 158 226
f 226 225 156
f 182 190 261
f 261 257 182
f 168 169 238
f 238 237 168
f 157 156 225
f 225 227 157
f 192 191 262
f 262 263 192
f 163 165 233
f 233 232 163
f 171 157 227
f 227 240 171
f 193 194 265
f 265 264 193
f 188 195 266
f 266 259 188
f 195 196 267
f 267 266 195
f 180 167 236
f 236 249 180
f 198 197 268
f 268 269 198
f 200 199 270
f 270 271 200
f 197 201 272
f 272 268 197
f 174 202 273
f 273 242 174
f 158 160 230
f 230 226 158
f 199 189 260
f 260 270 199
f 196 187 258
f 258 267 196
f 202 193 264
f 264 273 202
f 203 192 263
f 263 274 203
f 205 204 275
f 275 276 205
f 207 206 277
f 277 278 207
f 162 208 279
f 279 231 162
f 247 296 255
f 255 243 247
f 173 36 41
f 256 255 154
f 296 155 255
f 255 155 154
f 152 155 296
f 296 247 152
f 257 256 154
f 154 151 257

