# https://github.com/mikedh/trimesh
mtllib mtl_m18
usemtl mtl_m18
v -0.06450000 0.05326500 -0.23970000
v -0.07300000 0.01791421 -0.23970000
v -0.07300000 0.05702944 -0.23970000
v -0.07300000 0.01791421 0.23970000
v -0.07292378 0.05741208 -0.23970000
v -0.07292378 0.05741208 0.23970000
v -0.07300000 0.05702944 0.23970000
v -0.07129289 0.01579289 -0.23970000
v -0.07292378 0.01753157 -0.23970000
v -0.07270711 0.01720711 -0.23970000
v -0.07292378 0.01753157 0.23970000
v -0.07129289 0.01579289 0.23970000
v -0.07270711 0.01720711 0.23970000
v -0.07107622 0.01546843 -0.23970000
v -0.07100000 0.01508579 -0.23970000
v -0.07107622 0.01546843 0.23970000
v -0.06450000 -0.05326500 -0.23970000
v -0.07100000 -0.01508579 -0.23970000
v -0.07100000 -0.01508579 0.23970000
v -0.07100000 0.01508579 0.23970000
v -0.07107622 -0.01546843 -0.23970000
v -0.07129289 -0.01579289 -0.23970000
v -0.07107622 -0.01546843 0.23970000
v -0.07270711 -0.01720711 -0.23970000
v -0.07270711 -0.01720711 0.23970000
v -0.07129289 -0.01579289 0.23970000
v -0.07292378 -0.01753157 -0.23970000
v -0.07300000 -0.01791421 -0.23970000
v -0.07292378 -0.01753157 0.23970000
v -0.07300000 -0.05702944 -0.23970000
v -0.07300000 -0.05702944 0.23970000
v -0.07300000 -0.01791421 0.23970000
v -0.05326500 -0.06450000 -0.23970000
v -0.07292378 -0.05741208 -0.23970000
v -0.07270711 -0.05773655 -0.23970000
v -0.07292378 -0.05741208 0.23970000
v -0.05773655 -0.07270711 -0.23970000
v -0.05773655 -0.07270711 0.23970000
v -0.06415844 -0.06628522 0.20970000
v -0.07270711 -0.05773655 0.23970000
v -0.06628522 -0.06415844 0.23970000
v -0.06628522 -0.06415844 0.20970000
v -0.01753157 -0.07292378 -0.23970000
v -0.05741208 -0.07292378 -0.23970000
v -0.01720711 -0.07270711 -0.23970000
v -0.01791421 -0.07300000 -0.23970000
v -0.05702944 -0.07300000 -0.23970000
v -0.05741208 -0.07292378 0.23970000
v -0.01791421 -0.07300000 0.23970000
v -0.05702944 -0.07300000 0.23970000
v -0.01753157 -0.07292378 0.23970000
v -0.01579289 -0.07129289 -0.23970000
v -0.01579289 -0.07129289 0.23970000
v -0.01720711 -0.07270711 0.23970000
v -0.01546843 -0.07107622 -0.23970000
v -0.01508579 -0.07100000 -0.23970000
v -0.01546843 -0.07107622 0.23970000
v 0.01508579 -0.07100000 -0.23970000
v 0.01508579 -0.07100000 0.23970000
v -0.01508579 -0.07100000 0.23970000
v 0.05773655 -0.07270711 -0.23970000
v 0.01546843 -0.07107622 -0.23970000
v 0.01579289 -0.07129289 -0.23970000
v 0.01546843 -0.07107622 0.23970000
v 0.01720711 -0.07270711 -0.23970000
v 0.01720711 -0.07270711 0.23970000
v 0.01579289 -0.07129289 0.23970000
v 0.05741208 -0.07292378 -0.23970000
v 0.01753157 -0.07292378 -0.23970000
v 0.05702944 -0.07300000 -0.23970000
v 0.01791421 -0.07300000 -0.23970000
v 0.01753157 -0.07292378 0.23970000
v 0.05702944 -0.07300000 0.23970000
v 0.01791421 -0.07300000 0.23970000
v 0.05741208 -0.07292378 0.23970000
v 0.05326500 -0.06450000 -0.23970000
v 0.07270711 -0.05773655 -0.23970000
v 0.07270711 -0.05773655 0.23970000
v 0.05773655 -0.07270711 0.23970000
v 0.06415844 -0.06628522 0.23970000
v 0.06415844 -0.06628522 0.20970000
v 0.06628522 -0.06415844 0.20970000
v 0.06450000 -0.05326500 -0.23970000
v 0.07292378 -0.05741208 -0.23970000
v 0.07300000 -0.05702944 -0.23970000
v 0.07292378 -0.05741208 0.23970000
v 0.07300000 -0.01791421 -0.23970000
v 0.07300000 -0.01791421 0.23970000
v 0.07300000 -0.05702944 0.23970000
v 0.07129289 -0.01579289 -0.23970000
v 0.07292378 -0.01753157 -0.23970000
v 0.07270711 -0.01720711 -0.23970000
v 0.07292378 -0.01753157 0.23970000
v 0.07129289 -0.01579289 0.23970000
v 0.07270711 -0.01720711 0.23970000
v 0.07107622 -0.01546843 -0.23970000
v 0.07100000 -0.01508579 -0.23970000
v 0.07107622 -0.01546843 0.23970000
v 0.06450000 0.05326500 -0.23970000
v 0.07100000 0.01508579 -0.23970000
v 0.07100000 0.01508579 0.23970000
v 0.07100000 -0.01508579 0.23970000
v 0.07107622 0.01546843 -0.23970000
v 0.07129289 0.01579289 -0.23970000
v 0.07107622 0.01546843 0.23970000
v 0.07270711 0.01720711 -0.23970000
v 0.07270711 0.01720711 0.23970000
v 0.07129289 0.01579289 0.23970000
v 0.07292378 0.01753157 -0.23970000
v 0.07300000 0.01791421 -0.23970000
v 0.07292378 0.01753157 0.23970000
v 0.07300000 0.05702944 -0.23970000
v 0.07300000 0.05702944 0.23970000
v 0.07300000 0.01791421 0.23970000
v 0.05326500 0.06450000 -0.23970000
v 0.07292378 0.05741208 -0.23970000
v 0.07270711 0.05773655 -0.23970000
v 0.07292378 0.05741208 0.23970000
v 0.05773655 0.07270711 -0.23970000
v 0.05773655 0.07270711 0.23970000
v 0.07270711 0.05773655 0.23970000
v 0.06628522 0.06415844 0.23970000
v 0.06628522 0.06415844 0.20970000
v 0.06415844 0.06628522 0.20970000
v 0.01753157 0.07292378 -0.23970000
v 0.05741208 0.07292378 -0.23970000
v 0.01720711 0.07270711 -0.23970000
v 0.01791421 0.07300000 -0.23970000
v 0.05702944 0.07300000 -0.23970000
v 0.05741208 0.07292378 0.23970000
v 0.01791421 0.07300000 0.23970000
v 0.05702944 0.07300000 0.23970000
v 0.01753157 0.07292378 0.23970000
v 0.01579289 0.07129289 -0.23970000
v 0.01579289 0.07129289 0.23970000
v 0.01720711 0.07270711 0.23970000
v 0.01546843 0.07107622 -0.23970000
v 0.01508579 0.07100000 -0.23970000
v 0.01546843 0.07107622 0.23970000
v -0.01508579 0.07100000 -0.23970000
v -0.01508579 0.07100000 0.23970000
v 0.01508579 0.07100000 0.23970000
v -0.05773655 0.07270711 -0.23970000
v -0.01546843 0.07107622 -0.23970000
v -0.01579289 0.07129289 -0.23970000
v -0.01546843 0.07107622 0.23970000
v -0.01720711 0.07270711 -0.23970000
v -0.01720711 0.07270711 0.23970000
v -0.01579289 0.07129289 0.23970000
v -0.05741208 0.07292378 -0.23970000
v -0.01753157 0.07292378 -0.23970000
v -0.05702944 0.07300000 -0.23970000
v -0.01791421 0.07300000 -0.23970000
v -0.01753157 0.07292378 0.23970000
v -0.05702944 0.07300000 0.23970000
v -0.01791421 0.07300000 0.23970000
v -0.05741208 0.07292378 0.23970000
v -0.05326500 0.06450000 -0.23970000
v -0.07270711 0.05773655 -0.23970000
v -0.07270711 0.05773655 0.23970000
v -0.05773655 0.07270711 0.23970000
v -0.06415844 0.06628522 0.23970000
v -0.06415844 0.06628522 0.20970000
v -0.06628522 0.06415844 0.20970000
v -0.05326500 0.06450000 0.23970000
v -0.06450000 0.05326500 0.23970000
v -0.05696054 0.06080446 0.20970000
v -0.06080446 0.05696054 0.23970000
v -0.06080446 0.05696054 0.20970000
v 0.05326500 0.06450000 0.23970000
v 0.06450000 0.05326500 0.23970000
v 0.06080446 0.05696054 0.20970000
v 0.05696054 0.06080446 0.23970000
v 0.05696054 0.06080446 0.20970000
v 0.06450000 -0.05326500 0.23970000
v 0.05326500 -0.06450000 0.23970000
v 0.05696054 -0.06080446 0.20970000
v 0.06080446 -0.05696054 0.23970000
v 0.06080446 -0.05696054 0.20970000
v -0.05326500 -0.06450000 0.23970000
v -0.06450000 -0.05326500 0.23970000
v -0.05696054 -0.06080446 0.23970000
v -0.05696054 -0.06080446 0.20970000
v -0.06080446 -0.05696054 0.20970000
v -0.05687830 -0.06131876 0.23970000
v -0.05685000 -0.06185000 0.23970000
v -0.05766200 -0.06185000 0.23888800
v -0.05797430 -0.06500787 0.23970000
v -0.05888864 -0.06481136 0.23888800
v -0.05794834 -0.05981665 0.23910046
v -0.05798079 -0.06024732 0.23888800
v 0.05687830 -0.06131876 0.23970000
v 0.05696054 -0.06080446 0.23970000
v 0.05795007 -0.05981493 0.23909967
v 0.05685000 -0.06185000 0.23970000
v 0.05797430 -0.06500787 0.23970000
v 0.05795007 -0.05981493 0.21030033
v 0.05888250 -0.05888250 0.21051200
v 0.05888250 -0.05888250 0.23888800
v 0.05798079 -0.06024732 0.23888800
v 0.05766200 -0.06185000 0.23888800
v -0.06084215 -0.06674668 0.23970000
v 0.06084215 -0.06674668 0.23970000
v 0.05888864 -0.06481136 0.23888800
v 0.06185000 -0.06603800 0.23888800
v 0.06522203 -0.06522162 0.23946838
v 0.06481136 -0.06481136 0.23888800
v -0.06415844 -0.06628522 0.23970000
v -0.06522162 -0.06522203 0.23946838
v -0.06522162 -0.06522203 0.20993163
v -0.06185000 -0.06603800 0.23888800
v -0.06481136 -0.06481136 0.23888800
v 0.06670543 0.06304365 0.23970000
v 0.06685000 0.06185000 0.23970000
v 0.06603800 0.06185000 0.23888800
v 0.06636093 0.05969531 0.23970000
v 0.06481136 0.05888864 0.23888800
v 0.06522162 0.06522203 0.23946838
v 0.06481136 0.06481136 0.23888800
v 0.06301161 0.05698773 0.23970000
v 0.06499312 0.05796146 0.23970000
v 0.06080446 0.05696054 0.23970000
v 0.06499312 -0.05796146 0.23970000
v 0.06301161 -0.05698773 0.23970000
v 0.06670543 -0.06304365 0.23970000
v 0.06628522 -0.06415844 0.23970000
v 0.06685000 -0.06185000 0.23970000
v 0.06636093 -0.05969531 0.23970000
v 0.06522203 -0.06522162 0.20993163
v 0.06603800 -0.06185000 0.23888800
v 0.06481136 -0.05888864 0.23888800
v 0.06185000 -0.05766200 0.23888800
v 0.05981665 -0.05794834 0.23910046
v 0.05981493 0.05795007 0.23909967
v 0.05981493 0.05795007 0.21030033
v 0.05888250 0.05888250 0.21051200
v 0.05888250 0.05888250 0.23888800
v 0.06185000 0.05766200 0.23888800
v -0.05797430 0.06500787 0.23970000
v -0.05685000 0.06185000 0.23970000
v -0.05766200 0.06185000 0.23888800
v -0.05687830 0.06131876 0.23970000
v -0.05798079 0.06024732 0.23888800
v 0.06084215 0.06674668 0.23970000
v -0.06084215 0.06674668 0.23970000
v -0.05888864 0.06481136 0.23888800
v 0.05797430 0.06500787 0.23970000
v -0.06185000 0.06603800 0.23888800
v -0.06522203 0.06522162 0.23946838
v -0.06481136 0.06481136 0.23888800
v 0.06415844 0.06628522 0.23970000
v 0.06522162 0.06522203 0.20993163
v 0.06185000 0.06603800 0.23888800
v 0.05888864 0.06481136 0.23888800
v 0.05685000 0.06185000 0.23970000
v 0.05687830 0.06131876 0.23970000
v 0.05766200 0.06185000 0.23888800
v 0.05794834 0.05981665 0.23910046
v 0.05798079 0.06024732 0.23888800
v -0.05696054 0.06080446 0.23970000
v -0.05795007 0.05981493 0.23909967
v -0.05795007 0.05981493 0.21030033
v -0.05888250 0.05888250 0.21051200
v -0.05888250 0.05888250 0.23888800
v -0.06670543 0.06304365 0.23970000
v -0.06628522 0.06415844 0.23970000
v -0.06685000 0.06185000 0.23970000
v -0.06636093 0.05969531 0.23970000
v -0.06603800 0.06185000 0.23888800
v -0.06499312 0.05796146 0.23970000
v -0.06481136 0.05888864 0.23888800
v -0.06301161 0.05698773 0.23970000
v -0.06185000 0.05766200 0.23888800
v -0.05981665 0.05794834 0.23910046
v -0.06080446 -0.05696054 0.23970000
v -0.05981493 -0.05795007 0.23909967
v -0.05981493 -0.05795007 0.21030033
v -0.05888250 -0.05888250 0.21051200
v -0.05888250 -0.05888250 0.23888800
v -0.06301161 -0.05698773 0.23970000
v -0.06185000 -0.05766200 0.23888800
v -0.06499312 -0.05796146 0.23970000
v -0.06636093 -0.05969531 0.23970000
v -0.06481136 -0.05888864 0.23888800
v -0.06685000 -0.06185000 0.23970000
v -0.06670543 -0.06304365 0.23970000
v -0.06603800 -0.06185000 0.23888800
v -0.06522203 0.06522162 0.20993163
v -0.05797358 -0.06500806 0.20970000
v -0.06481136 -0.06481136 0.21051200
v -0.05685000 -0.06185000 0.20970000
v -0.06670414 -0.06304888 0.20970000
v -0.06185000 -0.06603800 0.21051200
v -0.06083900 -0.06674672 0.20970000
v 0.06603800 -0.06185000 0.21051200
v 0.05797358 -0.06500806 0.20970000
v 0.06670414 -0.06304888 0.20970000
v 0.06481136 -0.06481136 0.21051200
v 0.06083900 -0.06674672 0.20970000
v 0.06185000 -0.06603800 0.21051200
v 0.05797358 0.06500806 0.20970000
v 0.06481136 0.06481136 0.21051200
v 0.05685000 0.06185000 0.20970000
v 0.06670414 0.06304888 0.20970000
v 0.06185000 0.06603800 0.21051200
v 0.06083900 0.06674672 0.20970000
v -0.06603800 0.06185000 0.21051200
v -0.05797358 0.06500806 0.20970000
v -0.06670414 0.06304888 0.20970000
v -0.06481136 0.06481136 0.21051200
v -0.06083900 0.06674672 0.20970000
v -0.06185000 0.06603800 0.21051200
v -0.05798079 0.06024732 0.21051200
v -0.06301326 0.05698809 0.20970000
v -0.06635942 0.05969173 0.20970000
v -0.05687839 0.06131794 0.20970000
v -0.05766200 0.06185000 0.21051200
v -0.06499248 0.05796093 0.20970000
v -0.05981665 0.05794834 0.21029955
v -0.06185000 0.05766200 0.21051200
v 0.06635942 0.05969173 0.20970000
v 0.05794834 0.05981665 0.21029955
v 0.05798079 0.06024732 0.21051200
v 0.06685000 0.06185000 0.20970000
v 0.05687839 0.06131794 0.20970000
v 0.06185000 0.05766200 0.21051200
v 0.06499248 0.05796093 0.20970000
v 0.06301326 0.05698809 0.20970000
v 0.05798079 -0.06024732 0.21051200
v 0.06301326 -0.05698809 0.20970000
v 0.06635942 -0.05969173 0.20970000
v 0.05687839 -0.06131794 0.20970000
v 0.05766200 -0.06185000 0.21051200
v 0.06499248 -0.05796093 0.20970000
v 0.05981665 -0.05794834 0.21029955
v 0.06185000 -0.05766200 0.21051200
v -0.06635942 -0.05969173 0.20970000
v -0.05794834 -0.05981665 0.21029955
v -0.05798079 -0.06024732 0.21051200
v -0.06685000 -0.06185000 0.20970000
v -0.05687839 -0.06131794 0.20970000
v -0.06185000 -0.05766200 0.21051200
v -0.06499248 -0.05796093 0.20970000
v -0.06301326 -0.05698809 0.20970000
v 0.05888864 -0.06481136 0.21051200
v 0.06685000 -0.06185000 0.20970000
v 0.05685000 -0.06185000 0.20970000
v 0.06481136 -0.05888864 0.21051200
v -0.05766200 -0.06185000 0.21051200
v -0.05888864 -0.06481136 0.21051200
v -0.06603800 -0.06185000 0.21051200
v -0.06481136 -0.05888864 0.21051200
v 0.06603800 0.06185000 0.21051200
v 0.06481136 0.05888864 0.21051200
v 0.05766200 0.06185000 0.21051200
v 0.05888864 0.06481136 0.21051200
v -0.05685000 0.06185000 0.20970000
v -0.06685000 0.06185000 0.20970000
v -0.05888864 0.06481136 0.21051200
v -0.06481136 0.05888864 0.21051200
f 1 2 3
f 4 3 2
f 1 3 5
f 6 5 3
f 7 3 4
f 6 3 7
f 8 9 2
f 4 2 9
f 1 8 2
f 8 10 9
f 11 9 10
f 4 9 11
f 12 10 8
f 13 10 12
f 11 10 13
f 1 14 8
f 12 8 14
f 1 15 14
f 16 14 15
f 12 14 16
f 17 18 15
f 19 15 18
f 17 15 1
f 20 15 19
f 16 15 20
f 17 21 18
f 19 18 21
f 17 22 21
f 23 21 22
f 19 21 23
f 17 24 22
f 25 22 24
f 26 22 25
f 23 22 26
f 17 27 24
f 25 24 27
f 17 28 27
f 29 27 28
f 25 27 29
f 17 30 28
f 31 28 30
f 32 28 31
f 29 28 32
f 33 34 30
f 31 30 34
f 17 33 30
f 33 35 34
f 36 34 35
f 31 34 36
f 33 37 35
f 38 35 37
f 39 35 38
f 40 35 41
f 42 41 35
f 36 35 40
f 39 42 35
f 43 44 37
f 38 37 44
f 45 43 37
f 33 45 37
f 46 47 44
f 48 44 47
f 43 46 44
f 38 44 48
f 49 47 46
f 50 47 49
f 48 47 50
f 49 46 43
f 51 43 45
f 49 43 51
f 33 52 45
f 53 45 52
f 54 45 53
f 51 45 54
f 33 55 52
f 53 52 55
f 33 56 55
f 57 55 56
f 53 55 57
f 33 58 56
f 59 56 58
f 60 56 59
f 57 56 60
f 61 62 58
f 59 58 62
f 33 61 58
f 61 63 62
f 64 62 63
f 59 62 64
f 61 65 63
f 66 63 65
f 67 63 66
f 64 63 67
f 68 69 65
f 66 65 69
f 61 68 65
f 70 71 69
f 72 69 71
f 68 70 69
f 66 69 72
f 73 71 70
f 74 71 73
f 72 71 74
f 73 70 68
f 75 68 61
f 73 68 75
f 76 77 61
f 78 61 77
f 33 76 61
f 79 61 80
f 81 80 61
f 75 61 79
f 82 61 78
f 81 61 82
f 83 84 77
f 78 77 84
f 76 83 77
f 83 85 84
f 86 84 85
f 78 84 86
f 83 87 85
f 88 85 87
f 89 85 88
f 86 85 89
f 90 91 87
f 88 87 91
f 83 90 87
f 90 92 91
f 93 91 92
f 88 91 93
f 94 92 90
f 95 92 94
f 93 92 95
f 83 96 90
f 94 90 96
f 83 97 96
f 98 96 97
f 94 96 98
f 99 100 97
f 101 97 100
f 83 99 97
f 102 97 101
f 98 97 102
f 99 103 100
f 101 100 103
f 99 104 103
f 105 103 104
f 101 103 105
f 99 106 104
f 107 104 106
f 108 104 107
f 105 104 108
f 99 109 106
f 107 106 109
f 99 110 109
f 111 109 110
f 107 109 111
f 99 112 110
f 113 110 112
f 114 110 113
f 111 110 114
f 115 116 112
f 113 112 116
f 99 115 112
f 115 117 116
f 118 116 117
f 113 116 118
f 115 119 117
f 120 117 119
f 121 117 122
f 123 122 117
f 118 117 121
f 124 117 120
f 124 123 117
f 125 126 119
f 120 119 126
f 127 125 119
f 115 127 119
f 128 129 126
f 130 126 129
f 125 128 126
f 120 126 130
f 131 129 128
f 132 129 131
f 130 129 132
f 131 128 125
f 133 125 127
f 131 125 133
f 115 134 127
f 135 127 134
f 136 127 135
f 133 127 136
f 115 137 134
f 135 134 137
f 115 138 137
f 139 137 138
f 135 137 139
f 115 140 138
f 141 138 140
f 142 138 141
f 139 138 142
f 143 144 140
f 141 140 144
f 115 143 140
f 143 145 144
f 146 144 145
f 141 144 146
f 143 147 145
f 148 145 147
f 149 145 148
f 146 145 149
f 150 151 147
f 148 147 151
f 143 150 147
f 152 153 151
f 154 151 153
f 150 152 151
f 148 151 154
f 155 153 152
f 156 153 155
f 154 153 156
f 155 152 150
f 157 150 143
f 155 150 157
f 158 159 143
f 160 143 159
f 115 158 143
f 161 143 162
f 163 162 143
f 157 143 161
f 164 143 160
f 163 143 164
f 1 5 159
f 160 159 5
f 158 1 159
f 160 5 6
f 165 1 158
f 166 17 1
f 167 1 165
f 166 1 168
f 169 168 1
f 169 1 167
f 170 158 115
f 165 158 170
f 171 115 99
f 172 115 171
f 170 115 173
f 174 173 115
f 172 174 115
f 175 99 83
f 171 99 175
f 176 83 76
f 177 83 176
f 175 83 178
f 179 178 83
f 179 83 177
f 180 76 33
f 176 76 180
f 181 33 17
f 180 33 182
f 183 182 33
f 184 33 181
f 184 183 33
f 181 17 166
f 180 185 186
f 187 186 185
f 188 180 186
f 189 188 186
f 189 186 187
f 180 182 185
f 187 185 182
f 190 182 183
f 191 182 190
f 187 182 191
f 188 176 180
f 192 193 176
f 194 176 193
f 195 192 176
f 196 195 176
f 188 196 176
f 197 177 176
f 198 197 176
f 199 198 176
f 194 199 176
f 200 193 192
f 200 194 193
f 200 192 195
f 201 195 196
f 200 195 201
f 202 203 196
f 204 196 203
f 188 202 196
f 204 201 196
f 79 80 203
f 205 203 80
f 66 79 203
f 67 66 203
f 64 67 203
f 59 64 203
f 60 59 203
f 38 60 203
f 202 38 203
f 204 203 205
f 206 80 81
f 207 80 206
f 205 80 207
f 72 75 79
f 66 72 79
f 74 73 75
f 72 74 75
f 38 57 60
f 38 53 57
f 38 54 53
f 48 51 54
f 38 48 54
f 50 49 51
f 48 50 51
f 202 208 38
f 209 38 208
f 210 39 38
f 209 210 38
f 211 208 202
f 212 209 208
f 212 208 211
f 189 202 188
f 211 202 189
f 121 213 214
f 215 214 213
f 216 121 214
f 217 216 214
f 217 214 215
f 121 122 213
f 215 213 122
f 218 122 123
f 219 122 218
f 215 122 219
f 220 118 121
f 221 220 121
f 216 221 121
f 220 113 118
f 171 114 113
f 222 171 113
f 220 222 113
f 108 111 114
f 171 108 114
f 108 107 111
f 171 105 108
f 171 101 105
f 175 102 101
f 171 175 101
f 175 98 102
f 175 94 98
f 175 95 94
f 175 93 95
f 175 88 93
f 175 89 88
f 223 86 89
f 224 223 89
f 175 224 89
f 223 78 86
f 225 226 78
f 206 78 226
f 227 225 78
f 228 227 78
f 223 228 78
f 229 82 78
f 206 229 78
f 207 226 225
f 207 206 226
f 207 225 227
f 230 227 228
f 207 227 230
f 231 228 223
f 230 228 231
f 231 223 224
f 175 178 224
f 232 224 178
f 231 224 232
f 233 178 179
f 232 178 233
f 234 171 222
f 235 172 171
f 236 235 171
f 237 236 171
f 234 237 171
f 238 222 220
f 238 234 222
f 238 220 221
f 217 221 216
f 238 221 217
f 165 239 240
f 241 240 239
f 242 165 240
f 243 242 240
f 243 240 241
f 244 245 239
f 246 239 245
f 247 244 239
f 165 247 239
f 241 239 246
f 161 162 245
f 248 245 162
f 148 161 245
f 149 148 245
f 146 149 245
f 141 146 245
f 142 141 245
f 120 142 245
f 244 120 245
f 246 245 248
f 249 162 163
f 250 162 249
f 248 162 250
f 154 157 161
f 148 154 161
f 156 155 157
f 154 156 157
f 120 139 142
f 120 135 139
f 120 136 135
f 130 133 136
f 120 130 136
f 132 131 133
f 130 132 133
f 244 251 120
f 218 120 251
f 252 124 120
f 218 252 120
f 253 251 244
f 219 218 251
f 219 251 253
f 254 244 247
f 253 244 254
f 170 255 247
f 254 247 255
f 165 170 247
f 170 256 255
f 257 255 256
f 254 255 257
f 170 173 256
f 257 256 173
f 258 173 174
f 259 173 258
f 259 257 173
f 242 260 165
f 261 165 260
f 262 167 165
f 263 262 165
f 264 263 165
f 261 264 165
f 243 260 242
f 243 261 260
f 160 265 266
f 250 266 265
f 249 160 266
f 250 249 266
f 160 267 265
f 250 265 267
f 160 268 267
f 269 267 268
f 250 267 269
f 160 270 268
f 271 268 270
f 271 269 268
f 7 272 270
f 271 270 272
f 6 7 270
f 160 6 270
f 166 168 272
f 273 272 168
f 7 166 272
f 271 272 273
f 274 168 169
f 273 168 274
f 19 181 166
f 20 19 166
f 16 20 166
f 12 16 166
f 13 12 166
f 11 13 166
f 4 11 166
f 7 4 166
f 31 275 181
f 276 181 275
f 32 31 181
f 26 32 181
f 23 26 181
f 19 23 181
f 277 184 181
f 278 277 181
f 279 278 181
f 276 279 181
f 31 280 275
f 281 275 280
f 281 276 275
f 40 282 280
f 281 280 282
f 36 40 280
f 31 36 280
f 40 283 282
f 284 282 283
f 281 282 284
f 40 285 283
f 284 283 285
f 40 286 285
f 287 285 286
f 284 285 287
f 40 41 286
f 287 286 41
f 209 41 42
f 212 41 209
f 212 287 41
f 26 29 32
f 26 25 29
f 288 164 160
f 249 288 160
f 289 42 39
f 209 42 210
f 290 210 42
f 289 291 42
f 292 42 291
f 290 42 292
f 293 39 210
f 294 289 39
f 293 294 39
f 290 293 210
f 295 82 229
f 296 81 82
f 297 296 82
f 295 297 82
f 206 81 229
f 298 229 81
f 298 295 229
f 296 299 81
f 300 81 299
f 300 298 81
f 301 123 124
f 218 123 252
f 302 252 123
f 301 303 123
f 304 123 303
f 302 123 304
f 305 124 252
f 306 301 124
f 305 306 124
f 302 305 252
f 307 164 288
f 308 163 164
f 308 164 309
f 307 309 164
f 249 163 288
f 310 288 163
f 310 307 288
f 308 311 163
f 312 163 311
f 312 310 163
f 313 167 262
f 314 169 167
f 315 167 316
f 317 316 167
f 318 314 167
f 315 318 167
f 313 317 167
f 313 262 263
f 264 319 263
f 320 263 319
f 320 264 263
f 243 263 264
f 243 313 263
f 264 169 319
f 320 319 169
f 264 274 169
f 320 169 314
f 273 274 264
f 243 264 261
f 273 264 320
f 321 174 172
f 237 174 322
f 323 322 174
f 237 258 174
f 321 324 174
f 325 174 324
f 323 174 325
f 326 172 235
f 327 321 172
f 328 327 172
f 326 328 172
f 326 235 236
f 237 322 236
f 323 236 322
f 323 237 236
f 238 236 237
f 238 326 236
f 259 258 237
f 238 237 234
f 259 237 323
f 329 177 197
f 330 179 177
f 331 177 332
f 333 332 177
f 334 330 177
f 331 334 177
f 329 333 177
f 329 197 198
f 199 335 198
f 336 198 335
f 336 199 198
f 200 198 199
f 200 329 198
f 199 179 335
f 336 335 179
f 199 233 179
f 336 179 330
f 232 233 199
f 200 199 194
f 232 199 336
f 337 183 184
f 279 183 338
f 339 338 183
f 279 190 183
f 337 340 183
f 341 183 340
f 339 183 341
f 342 184 277
f 343 337 184
f 344 343 184
f 342 344 184
f 342 277 278
f 279 338 278
f 339 278 338
f 339 279 278
f 281 278 279
f 281 342 278
f 191 190 279
f 281 279 276
f 191 279 339
f 345 299 296
f 345 300 299
f 346 347 296
f 345 296 347
f 297 346 296
f 331 332 347
f 333 347 332
f 346 331 347
f 345 347 333
f 336 330 334
f 348 334 331
f 348 336 334
f 348 331 346
f 295 346 297
f 295 348 346
f 201 333 329
f 204 333 201
f 204 345 333
f 200 201 329
f 232 336 348
f 231 348 295
f 231 232 348
f 230 231 295
f 298 230 295
f 207 230 298
f 207 298 300
f 205 300 345
f 205 207 300
f 204 205 345
f 349 291 289
f 340 292 291
f 341 340 291
f 339 341 291
f 349 339 291
f 350 289 294
f 350 349 289
f 293 350 294
f 290 292 340
f 351 340 337
f 290 340 351
f 352 337 343
f 352 351 337
f 352 343 344
f 342 352 344
f 287 351 352
f 212 351 287
f 212 290 351
f 284 352 342
f 284 287 352
f 281 284 342
f 191 339 349
f 187 191 349
f 350 187 349
f 189 187 350
f 189 350 293
f 211 293 290
f 211 189 293
f 212 211 290
f 353 324 321
f 303 325 324
f 304 303 324
f 302 304 324
f 353 302 324
f 354 321 327
f 354 353 321
f 354 327 328
f 326 354 328
f 323 325 303
f 355 303 301
f 323 303 355
f 356 301 306
f 356 355 301
f 305 356 306
f 257 355 356
f 259 355 257
f 259 323 355
f 254 356 305
f 254 257 356
f 253 305 302
f 253 254 305
f 219 302 353
f 219 253 302
f 215 219 353
f 354 215 353
f 217 215 354
f 217 354 326
f 238 217 326
f 315 316 357
f 317 357 316
f 358 315 357
f 308 358 357
f 359 308 357
f 317 359 357
f 320 314 318
f 360 318 315
f 360 320 318
f 360 315 358
f 308 309 358
f 307 358 309
f 360 358 307
f 359 311 308
f 359 312 311
f 269 307 310
f 271 307 269
f 271 360 307
f 250 310 312
f 250 269 310
f 248 312 359
f 248 250 312
f 246 359 317
f 246 248 359
f 241 246 317
f 313 241 317
f 243 241 313
f 273 320 360
f 271 273 360

