# https://github.com/mikedh/trimesh
mtllib mtl_m19
usemtl mtl_m19
v -0.05650000 0.03811522 -0.24500000
v -0.06450000 0.01791421 -0.24500000
v -0.06450000 0.04875854 -0.24500000
v -0.06450000 0.01791421 0.24200000
v -0.06442378 0.04914118 -0.24500000
v -0.06442378 0.04914118 0.24200000
v -0.06450000 0.03750000 0.24200000
v -0.06450000 0.04450000 0.24200000
v -0.06450000 0.04875854 0.24200000
v -0.06329289 0.01629289 -0.24500000
v -0.06442378 0.01753157 -0.24500000
v -0.06420711 0.01720711 -0.24500000
v -0.06442378 0.01753157 0.24200000
v -0.06329289 0.01629289 0.24200000
v -0.06420711 0.01720711 0.24200000
v -0.06307622 0.01596843 -0.24500000
v -0.06300000 0.01558579 -0.24500000
v -0.06307622 0.01596843 0.24200000
v -0.05650000 -0.03811522 -0.24500000
v -0.06300000 -0.01558579 -0.24500000
v -0.06300000 -0.01558579 0.24200000
v -0.06300000 0.01558579 0.24200000
v -0.06307622 -0.01596843 -0.24500000
v -0.06329289 -0.01629289 -0.24500000
v -0.06307622 -0.01596843 0.24200000
v -0.06420711 -0.01720711 -0.24500000
v -0.06420711 -0.01720711 0.24200000
v -0.06329289 -0.01629289 0.24200000
v -0.06442378 -0.01753157 -0.24500000
v -0.06450000 -0.01791421 -0.24500000
v -0.06442378 -0.01753157 0.24200000
v -0.06450000 -0.04875854 -0.24500000
v -0.06450000 -0.04875854 0.24500000
v -0.06450000 -0.01791421 0.24200000
v -0.03811522 -0.05650000 -0.24500000
v -0.06442378 -0.04914118 -0.24500000
v -0.06420711 -0.04946565 -0.24500000
v -0.06442378 -0.04914118 0.24500000
v -0.01720711 -0.06420711 -0.24500000
v -0.04946565 -0.06420711 -0.24500000
v -0.04946565 -0.06420711 0.24500000
v -0.01629289 -0.06329289 -0.24500000
v -0.01596843 -0.06307622 -0.24500000
v -0.01558579 -0.06300000 -0.24500000
v -0.06420711 -0.04946565 0.24500000
v -0.01753157 -0.06442378 -0.24500000
v -0.04914118 -0.06442378 -0.24500000
v -0.01791421 -0.06450000 -0.24500000
v -0.04875854 -0.06450000 -0.24500000
v -0.04914118 -0.06442378 0.24500000
v -0.01791421 -0.06450000 0.24200000
v -0.04875854 -0.06450000 0.24500000
v -0.01753157 -0.06442378 0.24200000
v -0.01629289 -0.06329289 0.24200000
v -0.01720711 -0.06420711 0.24200000
v -0.01596843 -0.06307622 0.24200000
v 0.01558579 -0.06300000 -0.24500000
v 0.01558579 -0.06300000 0.24200000
v -0.01558579 -0.06300000 0.24200000
v 0.04946565 -0.06420711 -0.24500000
v 0.01596843 -0.06307622 -0.24500000
v 0.01629289 -0.06329289 -0.24500000
v 0.01596843 -0.06307622 0.24200000
v 0.01720711 -0.06420711 -0.24500000
v 0.01720711 -0.06420711 0.24200000
v 0.01629289 -0.06329289 0.24200000
v 0.04914118 -0.06442378 -0.24500000
v 0.01753157 -0.06442378 -0.24500000
v 0.04875854 -0.06450000 -0.24500000
v 0.01791421 -0.06450000 -0.24500000
v 0.01753157 -0.06442378 0.24200000
v 0.04875854 -0.06450000 0.24500000
v 0.01791421 -0.06450000 0.24200000
v 0.04914118 -0.06442378 0.24500000
v 0.03811522 -0.05650000 -0.24500000
v 0.06420711 -0.04946565 -0.24500000
v 0.06420711 -0.04946565 0.24500000
v 0.04946565 -0.06420711 0.24500000
v 0.05650000 -0.03811522 -0.24500000
v 0.06442378 -0.04914118 -0.24500000
v 0.06450000 -0.04875854 -0.24500000
v 0.06442378 -0.04914118 0.24500000
v 0.06450000 -0.01791421 -0.24500000
v 0.06450000 -0.01791421 0.24200000
v 0.06450000 -0.03750000 0.24200000
v 0.06450000 -0.04450000 0.24200000
v 0.06450000 -0.04450000 0.24500000
v 0.06450000 -0.04875854 0.24500000
v 0.06329289 -0.01629289 -0.24500000
v 0.06442378 -0.01753157 -0.24500000
v 0.06420711 -0.01720711 -0.24500000
v 0.06442378 -0.01753157 0.24200000
v 0.06329289 -0.01629289 0.24200000
v 0.06420711 -0.01720711 0.24200000
v 0.06307622 -0.01596843 -0.24500000
v 0.06300000 -0.01558579 -0.24500000
v 0.06307622 -0.01596843 0.24200000
v 0.05650000 0.03811522 -0.24500000
v 0.06300000 0.01558579 -0.24500000
v 0.06300000 0.01558579 0.24200000
v 0.06300000 -0.01558579 0.24200000
v 0.06307622 0.01596843 -0.24500000
v 0.06329289 0.01629289 -0.24500000
v 0.06307622 0.01596843 0.24200000
v 0.06420711 0.01720711 -0.24500000
v 0.06420711 0.01720711 0.24200000
v 0.06329289 0.01629289 0.24200000
v 0.06442378 0.01753157 -0.24500000
v 0.06450000 0.01791421 -0.24500000
v 0.06442378 0.01753157 0.24200000
v 0.06450000 0.04875854 -0.24500000
v 0.06450000 0.04875854 0.24500000
v 0.06450000 0.01791421 0.24200000
v 0.03811522 0.05650000 -0.24500000
v 0.06442378 0.04914118 -0.24500000
v 0.06420711 0.04946565 -0.24500000
v 0.06442378 0.04914118 0.24500000
v 0.01720711 0.06420711 -0.24500000
v 0.04946565 0.06420711 -0.24500000
v 0.04946565 0.06420711 0.24500000
v 0.01629289 0.06329289 -0.24500000
v 0.01596843 0.06307622 -0.24500000
v 0.01558579 0.06300000 -0.24500000
v 0.06420711 0.04946565 0.24500000
v 0.01753157 0.06442378 -0.24500000
v 0.04914118 0.06442378 -0.24500000
v 0.01791421 0.06450000 -0.24500000
v 0.04875854 0.06450000 -0.24500000
v 0.04914118 0.06442378 0.24500000
v 0.01791421 0.06450000 0.24200000
v 0.04875854 0.06450000 0.24500000
v 0.01753157 0.06442378 0.24200000
v 0.01629289 0.06329289 0.24200000
v 0.01720711 0.06420711 0.24200000
v 0.01596843 0.06307622 0.24200000
v -0.01558579 0.06300000 -0.24500000
v -0.01558579 0.06300000 0.24200000
v 0.01558579 0.06300000 0.24200000
v -0.04946565 0.06420711 -0.24500000
v -0.01596843 0.06307622 -0.24500000
v -0.01629289 0.06329289 -0.24500000
v -0.01596843 0.06307622 0.24200000
v -0.01720711 0.06420711 -0.24500000
v -0.01720711 0.06420711 0.24200000
v -0.01629289 0.06329289 0.24200000
v -0.04914118 0.06442378 -0.24500000
v -0.01753157 0.06442378 -0.24500000
v -0.04875854 0.06450000 -0.24500000
v -0.01791421 0.06450000 -0.24500000
v -0.01753157 0.06442378 0.24200000
v -0.04875854 0.06450000 0.24500000
v -0.01791421 0.06450000 0.24200000
v -0.04914118 0.06442378 0.24500000
v -0.03811522 0.05650000 -0.24500000
v -0.06420711 0.04946565 -0.24500000
v -0.06420711 0.04946565 0.24200000
v -0.04946565 0.06420711 0.24500000
v -0.03811522 0.05650000 0.23899999
v -0.05650000 0.03811522 0.23899999
v 0.03811522 0.05650000 0.23899999
v 0.05650000 0.03811522 0.23899999
v 0.05650000 -0.03811522 0.23899999
v 0.03811522 -0.05650000 0.23899999
v -0.03811522 -0.05650000 0.23899999
v -0.05650000 -0.03811522 0.23899999
v -0.03282977 -0.02282599 0.24200000
v -0.03282977 -0.01717401 0.24200000
v -0.03400000 -0.02000000 0.24200000
v -0.03400000 -0.02000000 0.24500000
v -0.03282843 -0.02282843 0.24500000
v -0.03000000 -0.02399862 0.24200000
v -0.03000000 -0.01600138 0.24200000
v -0.03282843 -0.01717157 0.24500000
v -0.02717023 -0.02282599 0.24200000
v -0.02717023 -0.01717401 0.24200000
v -0.03000000 -0.01600000 0.24500000
v -0.02600000 -0.02000000 0.24200000
v -0.02717157 -0.01717157 0.24500000
v -0.02600000 -0.02000000 0.24500000
v -0.02717157 -0.02282843 0.24500000
v -0.03000000 -0.02400000 0.24500000
v -0.04182977 -0.02282599 0.24200000
v -0.04182977 -0.01717401 0.24200000
v -0.04300000 -0.02000000 0.24200000
v -0.04300000 -0.02000000 0.24500000
v -0.04182843 -0.02282843 0.24500000
v -0.03900000 -0.02399862 0.24200000
v -0.03900000 -0.01600138 0.24200000
v -0.04182843 -0.01717157 0.24500000
v -0.03617023 -0.02282599 0.24200000
v -0.03617023 -0.01717401 0.24200000
v -0.03900000 -0.01600000 0.24500000
v -0.03500000 -0.02000000 0.24200000
v -0.03617157 -0.01717157 0.24500000
v -0.03500000 -0.02000000 0.24500000
v -0.03617157 -0.02282843 0.24500000
v -0.03900000 -0.02400000 0.24500000
v -0.05850000 0.03750000 0.24200000
v -0.05850000 0.04450000 0.24200000
v -0.06450000 0.04450000 0.24500000
v -0.05602726 0.03852395 0.24200000
v -0.05602726 0.04347605 0.24200000
v -0.05850000 0.04450000 0.24500000
v -0.05500121 0.04100000 0.24200000
v -0.05602513 0.04347488 0.24500000
v -0.05500000 0.04100000 0.24500000
v -0.05602513 0.03852513 0.24500000
v -0.05850000 0.03750000 0.24500000
v -0.06450000 0.03750000 0.24500000
v 0.05850000 -0.03750000 0.24200000
v 0.05850000 -0.04450000 0.24200000
v 0.05602726 -0.03852395 0.24200000
v 0.05602726 -0.04347605 0.24200000
v 0.05850000 -0.04450000 0.24500000
v 0.05500121 -0.04100000 0.24200000
v 0.05602513 -0.04347488 0.24500000
v 0.05500000 -0.04100000 0.24500000
v 0.05602513 -0.03852513 0.24500000
v 0.05850000 -0.03750000 0.24500000
v 0.06450000 -0.03750000 0.24500000
v -0.02600000 0.02300000 0.24200000
v -0.02600000 0.03500000 0.24200000
v -0.03400000 0.03500000 0.24200000
v -0.03400000 0.03500000 0.24500000
v -0.03400000 0.02300000 0.24200000
v -0.03824168 0.03324168 0.24200000
v -0.03824171 0.03324171 0.24500000
v -0.02175832 0.02475832 0.24200000
v -0.02175832 0.03324168 0.24200000
v -0.02600000 0.03500000 0.24500000
v -0.02000000 0.02900000 0.24200000
v -0.02175829 0.03324171 0.24500000
v -0.02000000 0.02900000 0.24500000
v -0.02175829 0.02475829 0.24500000
v -0.02600000 0.02300000 0.24500000
v -0.03824168 0.02475832 0.24200000
v -0.03400000 0.02300000 0.24500000
v -0.04000000 0.02900000 0.24200000
v -0.03824171 0.02475829 0.24500000
v -0.04000000 0.02900000 0.24500000
v -0.06450000 0.04917275 0.24200000
v -0.06450000 0.04917275 0.24500000
v -0.05403473 0.04696527 0.24500000
v -0.05403473 0.05403473 0.24500000
v -0.05550000 0.05050000 0.24500000
v 0.05050000 0.04550000 0.24500000
v -0.05050000 0.04550000 0.24500000
v -0.05403473 -0.04696527 0.24500000
v -0.05050000 -0.04550000 0.24500000
v -0.05403473 -0.05403473 0.24500000
v -0.05550000 -0.05050000 0.24500000
v 0.05050000 -0.05550000 0.24500000
v -0.05050000 -0.05550000 0.24500000
v 0.05403473 -0.05403473 0.24500000
v 0.05550000 -0.05050000 0.24500000
v 0.05403473 -0.04696527 0.24500000
v 0.05050000 -0.04550000 0.24500000
v 0.05403473 0.04696527 0.24500000
v 0.05403473 0.05403473 0.24500000
v 0.05550000 0.05050000 0.24500000
v -0.05050000 0.05550000 0.24500000
v 0.05050000 0.05550000 0.24500000
v 0.05468800 0.05050000 0.24418800
v 0.05346136 0.04753864 0.24418800
v 0.05346136 0.05346136 0.24418800
v -0.04696527 0.05403473 0.24500000
v 0.04696527 0.05403473 0.24500000
v 0.05050000 0.05468800 0.24418800
v -0.04550000 0.05050000 0.24500000
v 0.04550000 0.05050000 0.24500000
v 0.04753864 0.05346136 0.24418800
v -0.04696527 0.04696527 0.24500000
v 0.04696527 0.04696527 0.24500000
v 0.04631200 0.05050000 0.24418800
v 0.04753864 0.04753864 0.24418800
v 0.05050000 0.04631200 0.24418800
v -0.04631200 0.05050000 0.24418800
v -0.04753864 0.04753864 0.24418800
v -0.04753864 0.05346136 0.24418800
v -0.05050000 0.05468800 0.24418800
v -0.05346136 0.05346136 0.24418800
v -0.05468800 0.05050000 0.24418800
v -0.05346136 0.04753864 0.24418800
v -0.05050000 0.04631200 0.24418800
v 0.05468800 -0.05050000 0.24418800
v 0.05346136 -0.05346136 0.24418800
v 0.05346136 -0.04753864 0.24418800
v -0.04696527 -0.04696527 0.24500000
v 0.04696527 -0.04696527 0.24500000
v 0.05050000 -0.04631200 0.24418800
v -0.04550000 -0.05050000 0.24500000
v 0.04550000 -0.05050000 0.24500000
v 0.04753864 -0.04753864 0.24418800
v -0.04696527 -0.05403473 0.24500000
v 0.04696527 -0.05403473 0.24500000
v 0.04631200 -0.05050000 0.24418800
v 0.04753864 -0.05346136 0.24418800
v 0.05050000 -0.05468800 0.24418800
v -0.04631200 -0.05050000 0.24418800
v -0.04753864 -0.05346136 0.24418800
v -0.04753864 -0.04753864 0.24418800
v -0.05050000 -0.04631200 0.24418800
v -0.05346136 -0.04753864 0.24418800
v -0.05468800 -0.05050000 0.24418800
v -0.05346136 -0.05346136 0.24418800
v -0.05050000 -0.05468800 0.24418800
v 0.04753864 0.05346136 0.21500000
v 0.04631200 0.05050000 0.21500000
v 0.05050000 0.05050000 0.21258205
v 0.04753864 0.04753864 0.21500000
v 0.05050000 0.05468800 0.21500000
v 0.05346136 0.05346136 0.21500000
v 0.05468800 0.05050000 0.21500000
v 0.05346136 0.04753864 0.21500000
v 0.05050000 0.04631200 0.21500000
v -0.05346136 0.05346136 0.21500000
v -0.05468800 0.05050000 0.21500000
v -0.05050000 0.05050000 0.21258205
v -0.05346136 0.04753864 0.21500000
v -0.05050000 0.05468800 0.21500000
v -0.04753864 0.05346136 0.21500000
v -0.04631200 0.05050000 0.21500000
v -0.04753864 0.04753864 0.21500000
v -0.05050000 0.04631200 0.21500000
v 0.04753864 -0.04753864 0.21500000
v 0.04631200 -0.05050000 0.21500000
v 0.05050000 -0.05050000 0.21258205
v 0.04753864 -0.05346136 0.21500000
v 0.05050000 -0.04631200 0.21500000
v 0.05346136 -0.04753864 0.21500000
v 0.05468800 -0.05050000 0.21500000
v 0.05346136 -0.05346136 0.21500000
v 0.05050000 -0.05468800 0.21500000
v -0.05346136 -0.04753864 0.21500000
v -0.05468800 -0.05050000 0.21500000
v -0.05050000 -0.05050000 0.21258205
v -0.05346136 -0.05346136 0.21500000
v -0.05050000 -0.04631200 0.21500000
v -0.04753864 -0.04753864 0.21500000
v -0.04631200 -0.05050000 0.21500000
v -0.04753864 -0.05346136 0.21500000
v -0.05050000 -0.05468800 0.21500000
f 1 2 3
f 4 3 2
f 1 3 5
f 6 5 3
f 7 8 3
f 9 3 8
f 4 7 3
f 6 3 9
f 10 11 2
f 4 2 11
f 1 10 2
f 10 12 11
f 13 11 12
f 13 4 11
f 14 12 10
f 15 13 12
f 14 15 12
f 1 16 10
f 14 10 16
f 1 17 16
f 18 16 17
f 18 14 16
f 19 20 17
f 21 17 20
f 19 17 1
f 18 17 22
f 21 22 17
f 19 23 20
f 21 20 23
f 19 24 23
f 25 23 24
f 25 21 23
f 19 26 24
f 27 24 26
f 25 24 28
f 27 28 24
f 19 29 26
f 27 26 29
f 19 30 29
f 31 29 30
f 31 27 29
f 19 32 30
f 33 30 32
f 33 34 30
f 31 30 34
f 35 36 32
f 33 32 36
f 19 35 32
f 35 37 36
f 38 36 37
f 38 33 36
f 39 40 37
f 41 37 40
f 42 39 37
f 43 42 37
f 44 43 37
f 35 44 37
f 45 38 37
f 41 45 37
f 46 47 40
f 41 40 47
f 39 46 40
f 48 49 47
f 50 47 49
f 46 48 47
f 50 41 47
f 51 49 48
f 52 50 49
f 51 52 49
f 51 48 46
f 53 46 39
f 53 51 46
f 54 39 42
f 55 53 39
f 54 55 39
f 54 42 43
f 56 43 44
f 56 54 43
f 35 57 44
f 58 44 57
f 56 44 59
f 58 59 44
f 60 61 57
f 58 57 61
f 35 60 57
f 60 62 61
f 63 61 62
f 63 58 61
f 60 64 62
f 65 62 64
f 63 62 66
f 65 66 62
f 67 68 64
f 65 64 68
f 60 67 64
f 69 70 68
f 71 68 70
f 67 69 68
f 71 65 68
f 72 70 69
f 72 73 70
f 71 70 73
f 72 69 67
f 74 67 60
f 74 72 67
f 75 76 60
f 77 60 76
f 35 75 60
f 78 74 60
f 77 78 60
f 79 80 76
f 77 76 80
f 75 79 76
f 79 81 80
f 82 80 81
f 82 77 80
f 79 83 81
f 84 81 83
f 85 86 81
f 87 81 86
f 84 85 81
f 88 82 81
f 87 88 81
f 89 90 83
f 84 83 90
f 79 89 83
f 89 91 90
f 92 90 91
f 92 84 90
f 93 91 89
f 94 92 91
f 93 94 91
f 79 95 89
f 93 89 95
f 79 96 95
f 97 95 96
f 97 93 95
f 98 99 96
f 100 96 99
f 79 98 96
f 97 96 101
f 100 101 96
f 98 102 99
f 100 99 102
f 98 103 102
f 104 102 103
f 104 100 102
f 98 105 103
f 106 103 105
f 104 103 107
f 106 107 103
f 98 108 105
f 106 105 108
f 98 109 108
f 110 108 109
f 110 106 108
f 98 111 109
f 112 109 111
f 112 113 109
f 110 109 113
f 114 115 111
f 112 111 115
f 98 114 111
f 114 116 115
f 117 115 116
f 117 112 115
f 118 119 116
f 120 116 119
f 121 118 116
f 122 121 116
f 123 122 116
f 114 123 116
f 124 117 116
f 120 124 116
f 125 126 119
f 120 119 126
f 118 125 119
f 127 128 126
f 129 126 128
f 125 127 126
f 129 120 126
f 130 128 127
f 131 129 128
f 130 131 128
f 130 127 125
f 132 125 118
f 132 130 125
f 133 118 121
f 134 132 118
f 133 134 118
f 133 121 122
f 135 122 123
f 135 133 122
f 114 136 123
f 137 123 136
f 135 123 138
f 137 138 123
f 139 140 136
f 137 136 140
f 114 139 136
f 139 141 140
f 142 140 141
f 142 137 140
f 139 143 141
f 144 141 143
f 142 141 145
f 144 145 141
f 146 147 143
f 144 143 147
f 139 146 143
f 148 149 147
f 150 147 149
f 146 148 147
f 150 144 147
f 151 149 148
f 151 152 149
f 150 149 152
f 151 148 146
f 153 146 139
f 153 151 146
f 154 155 139
f 156 139 155
f 114 154 139
f 157 153 139
f 156 157 139
f 1 5 155
f 156 155 5
f 154 1 155
f 6 156 5
f 158 1 154
f 159 19 1
f 158 159 1
f 160 154 114
f 160 158 154
f 161 114 98
f 161 160 114
f 162 98 79
f 162 161 98
f 163 79 75
f 163 162 79
f 164 75 35
f 164 163 75
f 165 35 19
f 165 164 35
f 165 19 159
f 166 167 168
f 169 168 167
f 170 166 168
f 170 168 169
f 171 172 167
f 173 167 172
f 166 171 167
f 169 167 173
f 174 175 172
f 176 172 175
f 171 174 172
f 173 172 176
f 174 177 175
f 178 175 177
f 176 175 178
f 179 177 174
f 178 177 179
f 180 174 171
f 180 179 174
f 181 171 166
f 180 171 181
f 181 166 170
f 182 183 184
f 185 184 183
f 186 182 184
f 186 184 185
f 187 188 183
f 189 183 188
f 182 187 183
f 185 183 189
f 190 191 188
f 192 188 191
f 187 190 188
f 189 188 192
f 190 193 191
f 194 191 193
f 192 191 194
f 195 193 190
f 194 193 195
f 196 190 187
f 196 195 190
f 197 187 182
f 196 187 197
f 197 182 186
f 198 199 8
f 200 8 199
f 7 198 8
f 200 9 8
f 201 202 199
f 203 199 202
f 198 201 199
f 203 200 199
f 201 204 202
f 205 202 204
f 203 202 205
f 206 204 201
f 205 204 206
f 207 201 198
f 206 201 207
f 208 198 7
f 207 198 208
f 33 7 4
f 33 209 7
f 208 7 209
f 210 211 86
f 87 86 211
f 85 210 86
f 212 213 211
f 214 211 213
f 210 212 211
f 214 87 211
f 212 215 213
f 216 213 215
f 214 213 216
f 217 215 212
f 216 215 217
f 218 212 210
f 217 212 218
f 219 210 85
f 218 210 219
f 112 85 84
f 112 220 85
f 219 85 220
f 221 222 223
f 224 223 222
f 225 221 223
f 226 225 223
f 227 226 223
f 227 223 224
f 228 229 222
f 230 222 229
f 221 228 222
f 224 222 230
f 228 231 229
f 232 229 231
f 230 229 232
f 233 231 228
f 232 231 233
f 234 228 221
f 233 228 234
f 235 221 225
f 234 221 235
f 226 236 225
f 237 225 236
f 235 225 237
f 226 238 236
f 239 236 238
f 239 237 236
f 240 238 226
f 239 238 240
f 240 226 227
f 33 4 34
f 31 34 4
f 21 4 13
f 25 4 21
f 25 28 4
f 27 4 28
f 31 4 27
f 200 241 9
f 6 9 241
f 200 242 241
f 156 241 242
f 6 241 156
f 243 242 200
f 156 242 157
f 244 157 242
f 245 244 242
f 243 245 242
f 246 200 203
f 247 200 246
f 247 243 200
f 208 209 33
f 248 33 38
f 197 33 181
f 249 181 33
f 185 189 33
f 235 33 189
f 186 185 33
f 197 186 33
f 240 208 33
f 235 237 33
f 239 33 237
f 239 240 33
f 248 249 33
f 21 13 15
f 18 15 14
f 18 22 15
f 21 15 22
f 248 38 45
f 250 45 41
f 251 248 45
f 250 251 45
f 78 41 50
f 252 41 78
f 253 41 252
f 253 250 41
f 74 50 52
f 78 50 74
f 72 52 51
f 74 52 72
f 72 51 73
f 53 73 51
f 71 73 53
f 71 53 55
f 65 55 54
f 71 55 65
f 66 54 56
f 65 54 66
f 63 56 59
f 63 59 58
f 63 66 56
f 254 78 77
f 254 252 78
f 255 77 82
f 254 77 255
f 255 82 88
f 256 88 87
f 256 255 88
f 112 84 113
f 110 113 84
f 100 84 92
f 104 84 100
f 104 107 84
f 106 84 107
f 110 84 106
f 249 87 214
f 257 256 87
f 249 257 87
f 219 220 112
f 258 112 117
f 178 179 112
f 180 112 179
f 176 178 112
f 192 176 112
f 219 112 180
f 235 192 112
f 234 235 112
f 234 112 246
f 246 233 234
f 258 246 112
f 100 92 94
f 97 94 93
f 97 101 94
f 100 94 101
f 258 117 124
f 259 124 120
f 259 260 124
f 258 124 260
f 157 120 129
f 261 120 157
f 262 259 120
f 261 262 120
f 153 129 131
f 157 129 153
f 151 131 130
f 153 131 151
f 151 130 152
f 132 152 130
f 150 152 132
f 150 132 134
f 144 134 133
f 150 134 144
f 145 133 135
f 144 133 145
f 142 135 138
f 142 138 137
f 142 145 135
f 244 261 157
f 161 159 158
f 162 159 161
f 165 159 162
f 161 158 160
f 165 162 163
f 165 163 164
f 194 173 176
f 192 194 176
f 195 169 173
f 194 195 173
f 196 170 169
f 196 169 195
f 197 181 170
f 196 197 170
f 219 180 181
f 249 219 181
f 235 189 192
f 249 218 219
f 249 217 218
f 249 216 217
f 249 214 216
f 246 207 208
f 227 224 208
f 246 208 224
f 240 227 208
f 246 206 207
f 246 205 206
f 246 203 205
f 246 232 233
f 246 230 232
f 246 224 230
f 263 260 259
f 264 258 260
f 264 260 263
f 265 259 262
f 263 259 265
f 266 267 262
f 268 262 267
f 261 266 262
f 265 262 268
f 269 270 267
f 271 267 270
f 266 269 267
f 268 267 271
f 272 273 270
f 274 270 273
f 272 270 269
f 271 270 274
f 247 246 273
f 275 273 246
f 272 247 273
f 275 274 273
f 276 246 258
f 275 246 276
f 276 258 264
f 277 269 266
f 278 272 269
f 278 269 277
f 279 266 261
f 277 266 279
f 280 261 244
f 279 261 280
f 281 244 245
f 280 244 281
f 282 245 243
f 281 245 282
f 283 243 247
f 283 282 243
f 284 247 272
f 283 247 284
f 284 272 278
f 285 255 256
f 286 254 255
f 286 255 285
f 287 256 257
f 285 256 287
f 288 289 257
f 290 257 289
f 249 288 257
f 287 257 290
f 291 292 289
f 293 289 292
f 288 291 289
f 290 289 293
f 294 295 292
f 296 292 295
f 294 292 291
f 293 292 296
f 253 252 295
f 297 295 252
f 294 253 295
f 297 296 295
f 298 252 254
f 297 252 298
f 298 254 286
f 299 291 288
f 300 294 291
f 300 291 299
f 301 288 249
f 299 288 301
f 302 249 248
f 301 249 302
f 303 248 251
f 302 248 303
f 304 251 250
f 303 251 304
f 305 250 253
f 305 304 250
f 306 253 294
f 305 253 306
f 306 294 300
f 307 308 309
f 310 309 308
f 311 307 309
f 312 311 309
f 313 312 309
f 314 313 309
f 315 314 309
f 310 315 309
f 274 308 307
f 275 308 274
f 275 310 308
f 271 307 311
f 271 274 307
f 268 311 312
f 268 271 311
f 265 312 313
f 265 268 312
f 263 265 313
f 314 263 313
f 264 263 314
f 264 314 315
f 276 315 310
f 276 264 315
f 275 276 310
f 316 317 318
f 319 318 317
f 320 316 318
f 321 320 318
f 322 321 318
f 323 322 318
f 324 323 318
f 319 324 318
f 282 317 316
f 283 317 282
f 283 319 317
f 281 316 320
f 281 282 316
f 280 320 321
f 280 281 320
f 279 321 322
f 279 280 321
f 277 279 322
f 323 277 322
f 278 277 323
f 278 323 324
f 284 324 319
f 284 278 324
f 283 284 319
f 325 326 327
f 328 327 326
f 329 325 327
f 330 329 327
f 331 330 327
f 332 331 327
f 333 332 327
f 328 333 327
f 296 326 325
f 297 326 296
f 297 328 326
f 293 325 329
f 293 296 325
f 290 329 330
f 290 293 329
f 287 330 331
f 287 290 330
f 285 287 331
f 332 285 331
f 286 285 332
f 286 332 333
f 298 333 328
f 298 286 333
f 297 298 328
f 334 335 336
f 337 336 335
f 338 334 336
f 339 338 336
f 340 339 336
f 341 340 336
f 342 341 336
f 337 342 336
f 304 335 334
f 305 335 304
f 305 337 335
f 303 334 338
f 303 304 334
f 302 338 339
f 302 303 338
f 301 339 340
f 301 302 339
f 299 301 340
f 341 299 340
f 300 299 341
f 300 341 342
f 306 342 337
f 306 300 342
f 305 306 337

