# https://github.com/mikedh/trimesh
mtllib mtl_m1
usemtl mtl_m1
v -0.23499690 -0.39658237 0.21865080
v -0.23499686 -0.39658237 0.22023830
v -0.23499693 -0.39499491 0.22023830
v -0.23499690 -0.39499491 0.21865080
v 0.23499711 -0.39499485 0.22023827
v 0.23499711 -0.34458300 0.22023827
v -0.23499693 -0.34458306 0.22023830
v 0.23499708 -0.39499485 0.21865077
v 0.23499706 -0.39658231 0.22023827
v 0.23499708 -0.39658231 0.21865077
v 0.23499711 -0.39658231 0.00524107
v -0.23499693 -0.39658237 0.00524107
v -0.23499689 -0.39499491 0.00524107
v 0.23499703 -0.39499485 0.00524107
v -0.23499690 -0.34458306 0.21865080
v 0.23499708 -0.34458300 0.21865077
f 1 2 3
f 3 4 1
f 3 5 6
f 6 7 3
f 8 5 9
f 9 10 8
f 10 9 2
f 2 1 10
f 11 12 13
f 13 14 11
f 5 3 2
f 2 9 5
f 1 12 11
f 11 10 1
f 14 8 10
f 10 11 14
f 13 4 8
f 8 14 13
f 12 1 4
f 4 13 12
f 15 7 6
f 6 16 15
f 4 3 7
f 7 15 4
f 8 4 15
f 15 16 8
f 5 8 16
f 16 6 5

