# https://github.com/mikedh/trimesh
mtllib mtl_top
usemtl mtl_top
v -0.28215367 -0.39499500 0.28000000
v -0.28215367 -0.39499500 0.27365011
v -0.28099626 -0.39499500 0.28000000
v -0.28099626 -0.39499500 0.27365011
v -0.16499777 -0.39499497 0.28000000
v -0.16499777 -0.39499497 0.27365008
v -0.08678127 -0.39499494 0.28000000
v -0.08587378 -0.39499494 0.27365008
v -0.02511707 -0.39499491 0.28000000
v -0.02288709 -0.39499491 0.27365008
v 0.02511729 -0.39499491 0.28000000
v 0.02288732 -0.39499491 0.27365008
v 0.06515677 -0.39499488 0.28000000
v 0.06738674 -0.39499488 0.27365008
v 0.16499798 -0.39499485 0.28000000
v 0.16499798 -0.39499485 0.27365008
v 0.28099650 -0.39499483 0.28000000
v 0.28099650 -0.39499483 0.27365008
v 0.28215390 -0.39499483 0.28000000
v 0.28215390 -0.39499483 0.27365008
v 0.46334139 -0.02640432 0.27365005
v 0.46334139 -0.02640432 0.27999997
v 0.45853868 -0.04899924 0.27365005
v 0.45853868 -0.04899924 0.27999997
v 0.42206183 -0.22060955 0.27365005
v 0.42259589 -0.21809706 0.27999997
v 0.41881773 -0.23587185 0.27365005
v 0.41767684 -0.24123926 0.27999997
v 0.41233221 -0.26638395 0.27365005
v 0.41179818 -0.26889640 0.27999997
v 0.40637702 -0.29440087 0.27365008
v 0.40637702 -0.29440087 0.27999997
v 0.46580723 -0.00885883 0.27365005
v 0.46580723 -0.00885883 0.27999997
v 0.46580723 0.00885909 0.27365005
v 0.46580723 0.00885909 0.27999997
v 0.46334139 0.02640458 0.27365005
v 0.46334139 0.02640458 0.27999997
v 0.45853868 0.04899950 0.27999997
v 0.45853868 0.04899950 0.27365005
v 0.43487233 0.16034055 0.27999997
v 0.43534634 0.15811059 0.27365005
v 0.42160577 0.22275476 0.27999997
v 0.42046493 0.22812217 0.27365005
v 0.41179800 0.26889664 0.27999997
v 0.41233203 0.26638418 0.27365005
v 0.40637684 0.29440111 0.27999997
v 0.40637684 0.29440111 0.27365008
v 0.28215367 0.39499500 0.28000000
v 0.28215367 0.39499500 0.27365008
v 0.28099626 0.39499500 0.28000000
v 0.28099626 0.39499500 0.27365008
v 0.16499777 0.39499497 0.28000000
v 0.16499777 0.39499497 0.27365008
v 0.06515655 0.39499494 0.28000000
v 0.06738652 0.39499494 0.27365008
v 0.02511707 0.39499491 0.28000000
v 0.02288709 0.39499491 0.27365008
v -0.02511729 0.39499491 0.28000000
v -0.02288732 0.39499491 0.27365008
v -0.08678149 0.39499488 0.28000000
v -0.08587401 0.39499488 0.27365008
v -0.16499798 0.39499485 0.28000000
v -0.16499798 0.39499485 0.27365008
v -0.28099650 0.39499483 0.28000000
v -0.28099650 0.39499483 0.27365011
v -0.28215390 0.39499483 0.28000000
v -0.28215390 0.39499483 0.27365011
v 0.36207637 0.36669290 0.27999997
v -0.00000000 -0.00000000 0.27999994
v 0.37763613 0.35173252 0.27999997
v -0.00000000 -0.00000000 0.27365002
v -0.41767672 -0.24123950 0.28000003
v -0.42259577 -0.21809730 0.28000003
v 0.34420800 -0.37880200 0.27999997
v 0.32454684 -0.38771036 0.28000000
v 0.40011099 0.31505686 0.27365008
v 0.40011099 0.31505686 0.27999997
v 0.39043760 0.33435315 0.27365008
v 0.39043760 0.33435315 0.27999997
v 0.37763613 0.35173252 0.27365008
v 0.36207637 0.36669290 0.27365008
v 0.34420776 0.37880218 0.27365008
v 0.34420776 0.37880218 0.27999997
v 0.32454661 0.38771054 0.27365008
v 0.32454661 0.38771054 0.28000000
v 0.30366078 0.39316064 0.27365008
v 0.30366078 0.39316064 0.28000000
v 0.40011117 -0.31505662 0.27365008
v 0.39043778 -0.33435291 0.27999997
v 0.39043778 -0.33435291 0.27365008
v 0.37763631 -0.35173228 0.27999997
v 0.37763631 -0.35173228 0.27365008
v 0.36207655 -0.36669272 0.27999997
v 0.36207655 -0.36669272 0.27365008
v 0.34420800 -0.37880200 0.27365008
v 0.32454684 -0.38771036 0.27365008
v 0.30366102 -0.39316046 0.28000000
v 0.30366102 -0.39316046 0.27365008
v 0.40137711 -0.31088337 0.27365008
v 0.40205356 -0.30865341 0.27999997
v 0.40011117 -0.31505662 0.27999997
v -0.46580723 -0.00885909 0.28000003
v -0.46580723 0.00885883 0.28000003
v -0.40637702 0.29440087 0.27365011
v -0.41233221 0.26638395 0.27365011
v -0.39043760 -0.33435315 0.28000003
v -0.40011099 -0.31505686 0.28000003
v -0.36207655 0.36669272 0.28000003
v -0.34420800 0.37880200 0.28000003
v -0.45853868 -0.04899950 0.28000003
v -0.46334139 0.02640432 0.28000003
v -0.45853868 0.04899924 0.28000003
v -0.40011117 0.31505662 0.27365011
v -0.45853868 -0.04899950 0.27365011
v -0.42206171 -0.22060978 0.27365011
v -0.41881761 -0.23587209 0.27365011
v -0.40205339 -0.30865365 0.28000003
v -0.40637684 -0.29440111 0.28000003
v -0.37763631 0.35173228 0.28000003
v -0.30366078 -0.39316064 0.28000000
v -0.36207655 0.36669272 0.27365011
v -0.37763631 0.35173228 0.27365011
v -0.32454661 -0.38771054 0.28000000
v -0.34420776 -0.37880218 0.28000003
v -0.37763613 -0.35173252 0.28000003
v -0.39043778 0.33435291 0.27365011
v -0.41233203 -0.26638418 0.27365011
v -0.40637684 -0.29440111 0.27365011
v -0.37763613 -0.35173252 0.27365011
v -0.36207637 -0.36669290 0.27365011
v -0.40637702 0.29440087 0.28000003
v -0.40011117 0.31505662 0.28000003
v -0.43487245 0.16034031 0.28000003
v -0.42160589 0.22275452 0.28000003
v -0.39043778 0.33435291 0.28000003
v -0.30366102 0.39316046 0.27365011
v -0.34420776 -0.37880218 0.27365011
v -0.41179800 -0.26889664 0.28000003
v -0.32454684 0.38771036 0.27365011
v -0.34420800 0.37880200 0.27365011
v -0.46334139 -0.02640458 0.28000003
v -0.32454661 -0.38771054 0.27365011
v -0.46334139 -0.02640458 0.27365011
v -0.46334139 0.02640432 0.27365011
v -0.46580723 0.00885883 0.27365011
v -0.46580723 -0.00885909 0.27365011
v -0.41179818 0.26889640 0.28000003
v -0.42046505 0.22812194 0.27365011
v -0.43534645 0.15811035 0.27365011
v -0.45853868 0.04899924 0.27365011
v -0.30366102 0.39316046 0.28000000
v -0.32454684 0.38771036 0.28000000
v -0.40137693 -0.31088361 0.27365011
v -0.40011099 -0.31505686 0.27365011
v -0.39043760 -0.33435315 0.27365011
v -0.36207637 -0.36669290 0.28000003
v -0.30366078 -0.39316064 0.27365011
f 1 2 3
f 3 2 4
f 3 4 5
f 5 4 6
f 5 6 7
f 7 6 8
f 7 8 9
f 9 8 10
f 9 10 11
f 11 10 12
f 11 12 13
f 13 12 14
f 13 14 15
f 15 14 16
f 15 16 17
f 17 16 18
f 17 18 19
f 19 18 20
f 21 22 23
f 23 22 24
f 23 24 25
f 25 24 26
f 25 26 27
f 27 26 28
f 27 28 29
f 29 28 30
f 29 30 31
f 31 30 32
f 22 21 33
f 22 33 34
f 34 33 35
f 34 35 36
f 36 35 37
f 36 37 38
f 38 37 39
f 39 37 40
f 39 40 41
f 41 40 42
f 41 42 43
f 43 42 44
f 43 44 45
f 45 44 46
f 45 46 47
f 47 46 48
f 49 50 51
f 51 50 52
f 51 52 53
f 53 52 54
f 53 54 55
f 55 54 56
f 55 56 57
f 57 56 58
f 57 58 59
f 59 58 60
f 59 60 61
f 61 60 62
f 61 62 63
f 63 62 64
f 63 64 65
f 65 64 66
f 65 66 67
f 67 66 68
f 69 70 71
f 52 72 54
f 8 72 10
f 73 70 74
f 75 70 76
f 5 70 3
f 47 48 77
f 47 77 78
f 78 77 79
f 78 79 80
f 80 79 81
f 80 81 71
f 71 81 82
f 71 82 69
f 69 82 83
f 69 83 84
f 84 83 85
f 84 85 86
f 86 85 87
f 86 87 88
f 88 87 50
f 88 50 49
f 89 90 91
f 91 90 92
f 91 92 93
f 93 92 94
f 93 94 95
f 95 94 75
f 95 75 96
f 96 75 76
f 96 76 97
f 97 76 98
f 97 98 99
f 99 98 19
f 99 19 20
f 31 32 100
f 100 32 101
f 100 101 89
f 89 101 102
f 89 102 90
f 103 70 104
f 45 70 43
f 16 72 18
f 105 72 106
f 41 70 39
f 18 72 20
f 76 70 98
f 107 70 108
f 109 70 110
f 74 70 111
f 112 70 113
f 62 72 64
f 3 70 1
f 88 70 86
f 49 70 88
f 91 72 89
f 40 72 42
f 27 72 25
f 44 72 46
f 96 72 95
f 114 72 105
f 81 72 82
f 85 72 87
f 32 70 101
f 28 70 30
f 79 72 81
f 115 72 116
f 116 72 117
f 118 70 119
f 2 72 4
f 120 70 109
f 11 70 9
f 1 70 121
f 9 70 7
f 80 70 78
f 47 70 45
f 36 70 34
f 122 72 123
f 38 70 36
f 87 72 50
f 124 70 125
f 126 70 107
f 86 70 84
f 19 70 17
f 123 72 127
f 128 72 129
f 60 72 62
f 130 72 131
f 117 72 128
f 132 70 133
f 134 70 135
f 99 72 97
f 133 70 136
f 42 72 44
f 100 72 31
f 136 70 120
f 24 70 26
f 34 70 22
f 43 70 41
f 68 72 137
f 94 70 75
f 131 72 138
f 139 70 73
f 140 72 141
f 142 70 103
f 83 72 85
f 138 72 143
f 127 72 114
f 10 72 12
f 50 72 52
f 93 72 91
f 102 70 90
f 64 72 66
f 89 72 100
f 119 70 139
f 82 72 83
f 66 72 68
f 65 70 63
f 129 119 128
f 128 119 139
f 128 139 117
f 117 139 73
f 117 73 116
f 116 73 74
f 116 74 115
f 115 74 111
f 115 111 144
f 144 111 142
f 112 145 146
f 112 146 104
f 104 146 147
f 104 147 103
f 103 147 144
f 103 144 142
f 132 105 148
f 148 105 106
f 148 106 135
f 135 106 149
f 135 149 134
f 134 149 150
f 134 150 113
f 113 150 151
f 113 151 112
f 112 151 145
f 67 68 137
f 67 137 152
f 152 137 140
f 152 140 153
f 153 140 141
f 153 141 110
f 110 141 122
f 110 122 109
f 109 122 123
f 109 123 120
f 120 123 127
f 120 127 136
f 136 127 114
f 136 114 133
f 133 114 105
f 133 105 132
f 119 129 118
f 118 129 154
f 118 154 108
f 154 155 108
f 108 155 156
f 108 156 107
f 107 156 130
f 107 130 126
f 126 130 131
f 126 131 157
f 157 131 138
f 157 138 125
f 125 138 143
f 125 143 124
f 124 143 158
f 124 158 121
f 121 158 2
f 121 2 1
f 31 72 29
f 144 72 115
f 61 70 59
f 154 72 155
f 129 72 154
f 26 70 28
f 23 72 21
f 145 72 146
f 22 70 24
f 58 72 60
f 29 72 27
f 48 72 77
f 150 72 151
f 57 70 55
f 143 72 158
f 121 70 124
f 51 70 49
f 17 70 15
f 106 72 149
f 157 70 126
f 20 72 99
f 78 70 47
f 135 70 148
f 63 70 61
f 30 70 32
f 148 70 132
f 90 70 92
f 12 72 14
f 67 70 65
f 149 72 150
f 152 70 67
f 104 70 112
f 59 70 57
f 155 72 156
f 95 72 93
f 53 70 51
f 97 72 96
f 15 70 13
f 33 72 35
f 101 70 102
f 98 70 19
f 156 72 130
f 141 72 122
f 111 70 142
f 21 72 33
f 113 70 134
f 6 72 8
f 77 72 79
f 39 70 38
f 153 70 152
f 110 70 153
f 147 72 144
f 7 70 5
f 151 72 145
f 46 72 48
f 146 72 147
f 13 70 11
f 92 70 94
f 35 72 37
f 158 72 2
f 14 72 16
f 55 70 53
f 71 70 80
f 84 70 69
f 25 72 23
f 137 72 140
f 4 72 6
f 125 70 157
f 108 70 118
f 37 72 40
f 54 72 56
f 56 72 58

