# https://github.com/mikedh/trimesh
mtllib mtl_m15
usemtl mtl_m15
v -0.01500000 0.00275000 -0.01275000
v -0.01500000 0.00275000 0.00000000
v -0.01500000 0.01000000 0.00000000
v -0.01500000 0.00900000 -0.02500000
v -0.01500000 0.00275000 -0.02500000
v -0.01500000 0.00275000 -0.01825000
v -0.01500000 0.00000000 -0.01825000
v -0.01500000 0.00099341 -0.01806430
v -0.01500000 0.00264502 -0.01474743
v -0.01500000 0.00219455 -0.01384275
v -0.01500000 0.00185266 -0.01753227
v -0.01500000 0.00246170 -0.01672578
v -0.01500000 0.00273827 -0.01575374
v -0.01500000 0.00986603 -0.02450000
v -0.01500000 0.00950000 -0.02486603
v -0.01500000 0.01000000 -0.02400000
v -0.01500000 0.00144769 -0.01316190
v -0.01500000 0.00050531 -0.01279682
v -0.01500000 0.00000000 -0.01275000
v -0.01500000 -0.00275000 0.00000000
v -0.01500000 -0.00275000 -0.01275000
v -0.01500000 -0.01000000 0.00000000
v -0.01500000 -0.00275000 -0.01825000
v -0.01500000 -0.01000000 -0.02400000
v -0.01500000 -0.00950000 -0.02486603
v -0.01500000 -0.00986603 -0.02450000
v -0.01500000 -0.00900000 -0.02500000
v -0.01500000 -0.00275000 -0.02500000
v -0.01500000 -0.00050531 -0.01279682
v -0.01500000 -0.00144769 -0.01316190
v -0.01500000 -0.00219455 -0.01384275
v -0.01500000 -0.00099341 -0.01806430
v -0.01500000 -0.00185266 -0.01753227
v -0.01500000 -0.00264502 -0.01474743
v -0.01500000 -0.00273827 -0.01575374
v -0.01500000 -0.00246170 -0.01672578
v -0.01200000 0.00900000 -0.02500000
v -0.01200000 -0.00900000 -0.02500000
v -0.01600000 0.00275000 -0.02500000
v -0.01600000 -0.00275000 -0.02500000
v -0.00829410 0.01000000 -0.00617037
v -0.00950000 0.01000000 -0.00666987
v -0.01053553 0.01000000 -0.00746447
v -0.01133013 0.01000000 -0.00850000
v -0.00000000 0.01000000 0.00000000
v -0.00000000 0.01000000 -0.00600000
v -0.00700000 0.01000000 -0.00600000
v -0.01200000 0.01000000 -0.02400000
v -0.01200000 0.01000000 -0.01100000
v -0.01182963 0.01000000 -0.00970590
v 0.00079783 -0.00315055 0.00000000
v -0.00026838 -0.00323890 0.00000000
v -0.00000000 -0.01000000 0.00000000
v -0.01600000 -0.00275000 0.00000000
v -0.01600000 0.00275000 0.00000000
v -0.00220117 0.00239110 0.00000000
v -0.00285829 -0.00154683 0.00000000
v -0.00220117 -0.00239110 0.00000000
v -0.00130551 -0.00297626 0.00000000
v 0.00325000 0.00000000 0.00000000
v 0.00980785 0.00195090 0.00000000
v 0.00307391 0.00105527 0.00000000
v 0.00923880 0.00382683 0.00000000
v 0.00256471 0.00199619 0.00000000
v 0.00307391 -0.00105527 0.00000000
v 0.00980785 -0.00195090 0.00000000
v 0.01000000 0.00000000 0.00000000
v 0.00177758 -0.00272079 0.00000000
v 0.00707107 -0.00707107 0.00000000
v 0.00256471 -0.00199619 0.00000000
v 0.00831470 -0.00555570 0.00000000
v 0.00923880 -0.00382683 0.00000000
v 0.00195090 -0.00980785 0.00000000
v 0.00382683 -0.00923880 0.00000000
v 0.00555570 -0.00831470 0.00000000
v -0.00320567 -0.00053493 0.00000000
v -0.00320567 0.00053493 0.00000000
v -0.00285829 0.00154683 0.00000000
v -0.00130551 0.00297626 0.00000000
v -0.00026838 0.00323890 0.00000000
v 0.00195090 0.00980785 0.00000000
v 0.00079783 0.00315055 0.00000000
v 0.00382683 0.00923880 0.00000000
v 0.00177758 0.00272079 0.00000000
v 0.00831470 0.00555570 0.00000000
v 0.00707107 0.00707107 0.00000000
v 0.00555570 0.00831470 0.00000000
v -0.01182963 -0.01000000 -0.00970590
v -0.01200000 -0.01000000 -0.01100000
v -0.01200000 -0.01000000 -0.02400000
v -0.01133013 -0.01000000 -0.00850000
v -0.01053553 -0.01000000 -0.00746447
v -0.00950000 -0.01000000 -0.00666987
v -0.00000000 -0.01000000 -0.00600000
v -0.00700000 -0.01000000 -0.00600000
v -0.00829410 -0.01000000 -0.00617037
v -0.01200000 -0.00099341 -0.01806430
v -0.01200000 -0.00185266 -0.01753227
v -0.01200000 -0.00264502 -0.01474743
v -0.01200000 -0.00219455 -0.01384275
v -0.01200000 -0.00950000 -0.02486603
v -0.01200000 -0.00986603 -0.02450000
v -0.01200000 -0.00246170 -0.01672578
v -0.01200000 -0.00273827 -0.01575374
v -0.01200000 0.00144769 -0.01316190
v -0.01200000 0.00219455 -0.01384275
v -0.01200000 0.00950000 -0.02486603
v -0.01200000 0.00986603 -0.02450000
v -0.01200000 -0.00144769 -0.01316190
v -0.01200000 -0.00050531 -0.01279682
v -0.01200000 0.00050531 -0.01279682
v -0.01200000 0.00246170 -0.01672578
v -0.01200000 0.00185266 -0.01753227
v -0.01200000 0.00099341 -0.01806430
v -0.01200000 0.00000000 -0.01825000
v -0.01200000 0.00273827 -0.01575374
v -0.01200000 0.00264502 -0.01474743
v 0.00923880 -0.00382683 -0.00600000
v 0.00831470 -0.00555570 -0.00600000
v 0.00575000 -0.00331976 -0.00600000
v 0.00555570 0.00831470 -0.00600000
v 0.00707107 0.00707107 -0.00600000
v 0.00575000 0.00331976 -0.00600000
v 0.00831470 0.00555570 -0.00600000
v 0.00923880 0.00382683 -0.00600000
v 0.00382683 0.00923880 -0.00600000
v -0.00000000 0.00663953 -0.00600000
v 0.00195090 0.00980785 -0.00600000
v 0.00707107 -0.00707107 -0.00600000
v 0.00555570 -0.00831470 -0.00600000
v -0.00000000 -0.00663953 -0.00600000
v 0.00382683 -0.00923880 -0.00600000
v 0.00195090 -0.00980785 -0.00600000
v -0.00575000 -0.00331976 -0.00600000
v -0.00575000 0.00331976 -0.00600000
v 0.00980785 0.00195090 -0.00600000
v 0.01000000 0.00000000 -0.00600000
v 0.00980785 -0.00195090 -0.00600000
v 0.00575000 -0.00331976 -0.00300000
v 0.00575000 0.00331976 -0.00300000
v -0.00000000 0.00663953 -0.00300000
v -0.00575000 0.00331976 -0.00300000
v -0.00575000 -0.00331976 -0.00300000
v -0.00000000 -0.00663953 -0.00300000
v 0.00256471 -0.00199619 -0.00300000
v 0.00307391 -0.00105527 -0.00300000
v 0.00325000 0.00000000 -0.00300000
v 0.00307391 0.00105527 -0.00300000
v -0.00285829 0.00154683 -0.00300000
v -0.00320567 0.00053493 -0.00300000
v -0.00325000 0.00000000 -0.00300000
v -0.00320567 -0.00053493 -0.00300000
v 0.00079783 0.00315055 -0.00300000
v 0.00177758 0.00272079 -0.00300000
v 0.00256471 0.00199619 -0.00300000
v -0.00026838 0.00323890 -0.00300000
v -0.00130551 0.00297626 -0.00300000
v -0.00220117 0.00239110 -0.00300000
v -0.00285829 -0.00154683 -0.00300000
v -0.00220117 -0.00239110 -0.00300000
v -0.00130551 -0.00297626 -0.00300000
v -0.00026838 -0.00323890 -0.00300000
v 0.00079783 -0.00315055 -0.00300000
v 0.00177758 -0.00272079 -0.00300000
v -0.01600000 0.00275000 -0.01175000
v -0.01600000 -0.00275000 -0.01175000
v -0.01600000 0.00275000 -0.01925000
v -0.01600000 -0.00275000 -0.01925000
v -0.00325000 -0.00562917 0.00000000
v -0.00562917 -0.00325000 0.00000000
v 0.00000000 -0.00000000 0.00000000
v -0.00650000 -0.00000000 0.00000000
v -0.00562917 0.00325000 0.00000000
v 0.00562917 -0.00325000 0.00000000
v 0.00325000 -0.00562917 0.00000000
v 0.00000000 -0.00650000 0.00000000
v 0.00325000 0.00562917 0.00000000
v 0.00562917 0.00325000 0.00000000
v 0.00650000 0.00000000 0.00000000
v -0.00325000 0.00562917 0.00000000
v -0.00000000 0.00650000 0.00000000
v 0.00128261 0.00074052 0.20360905
v 0.00074052 0.00128261 0.20360905
v 0.00000000 -0.00000000 0.20400000
v 0.00148103 0.00000000 0.20360905
v 0.00128261 -0.00074052 0.20360905
v 0.00074052 -0.00128261 0.20360905
v 0.00000000 -0.00148103 0.20360905
v -0.00074052 -0.00128261 0.20360905
v -0.00128261 -0.00074052 0.20360905
v -0.00148103 -0.00000000 0.20360905
v -0.00128261 0.00074052 0.20360905
v -0.00074052 0.00128261 0.20360905
v 0.00000000 0.00148103 0.20360905
v -0.00000000 0.00300000 0.20106611
v 0.00128808 0.00223101 0.20253806
v 0.00150000 0.00259808 0.20106611
v 0.00223101 0.00128808 0.20253806
v 0.00259808 0.00150000 0.20106611
v 0.00257615 0.00000000 0.20253806
v 0.00300000 0.00000000 0.20106611
v 0.00223101 -0.00128808 0.20253806
v 0.00259808 -0.00150000 0.20106611
v 0.00128808 -0.00223101 0.20253806
v 0.00150000 -0.00259808 0.20106611
v 0.00000000 -0.00257615 0.20253806
v 0.00000000 -0.00300000 0.20106611
v -0.00128808 -0.00223101 0.20253806
v -0.00150000 -0.00259808 0.20106611
v -0.00223101 -0.00128808 0.20253806
v -0.00259808 -0.00150000 0.20106611
v -0.00257615 -0.00000000 0.20253806
v -0.00300000 -0.00000000 0.20106611
v -0.00223101 0.00128808 0.20253806
v -0.00259808 0.00150000 0.20106611
v -0.00128808 0.00223101 0.20253806
v -0.00150000 0.00259808 0.20106611
v -0.00000000 0.00257615 0.20253806
v -0.00650000 -0.00000000 0.04400000
v -0.00562917 0.00325000 0.04400000
v -0.00325000 0.00562917 0.04400000
v -0.00000000 0.00650000 0.04400000
v 0.00325000 0.00562917 0.04400000
v 0.00562917 0.00325000 0.04400000
v 0.00650000 0.00000000 0.04400000
v 0.00562917 -0.00325000 0.04400000
v 0.00325000 -0.00562917 0.04400000
v 0.00000000 -0.00650000 0.04400000
v -0.00325000 -0.00562917 0.04400000
v -0.00562917 -0.00325000 0.04400000
f 1 2 3
f 4 5 6
f 6 7 8
f 9 10 1
f 8 11 6
f 6 11 12
f 6 12 13
f 14 15 16
f 16 15 4
f 16 4 3
f 3 4 6
f 3 6 1
f 1 6 13
f 1 13 9
f 10 17 1
f 1 17 18
f 1 18 19
f 20 21 22
f 22 21 23
f 22 23 24
f 25 26 27
f 27 26 24
f 27 24 28
f 28 24 23
f 19 29 21
f 21 29 30
f 21 30 31
f 7 23 32
f 32 23 33
f 31 34 21
f 21 34 35
f 21 35 23
f 23 35 36
f 23 36 33
f 37 38 28
f 28 38 27
f 4 37 5
f 5 37 28
f 5 28 39
f 39 28 40
f 41 42 3
f 3 42 43
f 3 43 44
f 45 46 3
f 3 46 47
f 3 47 41
f 48 16 49
f 49 16 3
f 49 3 50
f 50 3 44
f 51 52 53
f 22 53 20
f 20 53 2
f 20 2 54
f 54 2 55
f 45 3 56
f 57 2 58
f 58 2 53
f 58 53 59
f 59 53 52
f 60 61 62
f 62 61 63
f 62 63 64
f 65 66 60
f 60 66 67
f 60 67 61
f 68 69 70
f 70 69 71
f 70 71 65
f 65 71 72
f 65 72 66
f 53 73 51
f 51 73 74
f 51 74 68
f 68 74 75
f 68 75 69
f 57 76 2
f 2 76 77
f 2 77 3
f 3 77 78
f 3 78 56
f 56 79 45
f 45 79 80
f 45 80 81
f 81 80 82
f 81 82 83
f 83 82 84
f 63 85 64
f 64 85 86
f 64 86 84
f 84 86 87
f 84 87 83
f 88 22 89
f 89 22 24
f 89 24 90
f 88 91 22
f 22 91 92
f 22 92 93
f 94 53 95
f 95 53 22
f 95 22 96
f 96 22 93
f 38 97 98
f 89 99 100
f 101 38 102
f 102 38 98
f 102 98 90
f 90 98 103
f 90 103 89
f 89 103 104
f 89 104 99
f 105 106 49
f 107 108 48
f 100 109 89
f 89 109 110
f 89 110 49
f 49 110 111
f 49 111 105
f 112 113 37
f 37 113 114
f 37 114 38
f 38 114 115
f 38 115 97
f 37 107 112
f 112 107 48
f 112 48 116
f 116 48 49
f 116 49 117
f 117 49 106
f 118 119 120
f 121 122 123
f 123 122 124
f 123 124 125
f 121 123 126
f 126 123 127
f 126 127 128
f 119 129 120
f 120 129 130
f 120 130 131
f 131 130 132
f 132 133 131
f 131 133 94
f 131 94 134
f 134 94 95
f 134 95 135
f 135 95 47
f 135 47 127
f 127 47 46
f 127 46 128
f 125 136 123
f 123 136 137
f 123 137 120
f 120 137 138
f 120 138 118
f 46 45 81
f 46 81 128
f 128 81 83
f 128 83 126
f 126 83 87
f 126 87 121
f 121 87 86
f 121 86 122
f 122 86 85
f 122 85 124
f 124 85 63
f 124 63 125
f 125 63 61
f 125 61 136
f 136 61 67
f 136 67 137
f 137 67 66
f 137 66 138
f 138 66 72
f 138 72 118
f 118 72 71
f 118 71 119
f 119 71 69
f 119 69 129
f 129 69 75
f 129 75 130
f 130 75 74
f 130 74 132
f 132 74 73
f 132 73 133
f 133 73 53
f 133 53 94
f 139 140 120
f 120 140 123
f 140 141 123
f 123 141 127
f 141 142 127
f 127 142 135
f 142 143 135
f 135 143 134
f 143 144 134
f 134 144 131
f 144 139 131
f 131 139 120
f 145 146 139
f 139 146 140
f 140 146 147
f 140 147 148
f 149 150 142
f 142 150 151
f 142 151 143
f 143 151 152
f 153 141 154
f 154 141 140
f 154 140 155
f 155 140 148
f 153 156 141
f 141 156 157
f 141 157 142
f 142 157 158
f 142 158 149
f 152 159 143
f 143 159 160
f 143 160 144
f 144 160 161
f 161 162 144
f 144 162 163
f 144 163 139
f 139 163 164
f 139 164 145
f 159 152 76
f 76 152 151
f 76 151 77
f 77 151 150
f 77 150 78
f 78 150 149
f 78 149 56
f 56 149 158
f 56 158 79
f 79 158 157
f 79 157 80
f 80 157 156
f 80 156 82
f 82 156 153
f 82 153 84
f 84 153 154
f 84 154 64
f 64 154 155
f 64 155 62
f 62 155 148
f 62 148 60
f 60 148 147
f 60 147 65
f 65 147 146
f 65 146 70
f 70 146 145
f 70 145 68
f 68 145 164
f 68 164 51
f 51 164 163
f 51 163 52
f 52 163 162
f 52 162 59
f 59 162 161
f 59 161 58
f 58 161 160
f 58 160 57
f 57 160 159
f 57 159 76
f 30 29 110
f 110 29 19
f 110 19 111
f 111 19 18
f 111 18 105
f 105 18 17
f 105 17 106
f 106 17 10
f 106 10 117
f 117 10 9
f 117 9 116
f 116 9 13
f 116 13 112
f 112 13 12
f 112 12 113
f 113 12 11
f 113 11 114
f 114 11 8
f 114 8 115
f 115 8 7
f 115 7 97
f 97 7 32
f 97 32 98
f 98 32 33
f 98 33 103
f 103 33 36
f 103 36 104
f 104 36 35
f 104 35 99
f 99 35 34
f 99 34 100
f 100 34 31
f 100 31 109
f 109 31 30
f 109 30 110
f 47 95 41
f 41 95 96
f 41 96 42
f 42 96 93
f 42 93 43
f 43 93 92
f 43 92 44
f 44 92 91
f 44 91 50
f 50 91 88
f 50 88 49
f 49 88 89
f 37 4 15
f 37 15 107
f 107 15 14
f 107 14 108
f 108 14 16
f 108 16 48
f 90 24 26
f 90 26 102
f 102 26 25
f 102 25 101
f 101 25 27
f 101 27 38
f 165 55 1
f 1 55 2
f 21 20 166
f 166 20 54
f 166 54 165
f 165 54 55
f 6 5 167
f 167 5 39
f 168 40 23
f 23 40 28
f 167 39 168
f 168 39 40
f 165 1 166
f 166 1 19
f 166 19 21
f 6 167 7
f 7 167 168
f 7 168 23
f 169 170 171
f 171 170 172
f 171 172 173
f 174 175 171
f 171 175 176
f 171 176 169
f 177 178 171
f 171 178 179
f 171 179 174
f 173 180 171
f 171 180 181
f 171 181 177
f 182 183 184
f 182 184 185
f 186 185 184
f 187 186 184
f 188 187 184
f 189 188 184
f 190 189 184
f 191 190 184
f 192 191 184
f 193 192 184
f 194 193 184
f 183 194 184
f 195 196 197
f 197 196 198
f 197 198 199
f 199 198 200
f 199 200 201
f 201 200 202
f 201 202 203
f 203 202 204
f 203 204 205
f 205 204 206
f 205 206 207
f 207 206 208
f 207 208 209
f 209 208 210
f 209 210 211
f 211 210 212
f 211 212 213
f 213 212 214
f 213 214 215
f 215 214 216
f 215 216 217
f 217 216 218
f 217 218 195
f 195 218 196
f 218 183 196
f 196 183 182
f 196 182 198
f 198 182 185
f 198 185 200
f 200 185 186
f 200 186 202
f 202 186 187
f 202 187 204
f 204 187 188
f 204 188 206
f 206 188 189
f 206 189 208
f 208 189 190
f 208 190 210
f 210 190 191
f 210 191 212
f 212 191 192
f 212 192 214
f 214 192 193
f 214 193 216
f 216 193 194
f 216 194 218
f 218 194 183
f 219 215 220
f 220 215 217
f 220 217 221
f 221 217 195
f 221 195 222
f 222 195 197
f 222 197 223
f 223 197 199
f 223 199 224
f 224 199 201
f 224 201 225
f 225 201 203
f 225 203 226
f 226 203 205
f 226 205 227
f 227 205 207
f 227 207 228
f 228 207 209
f 228 209 229
f 229 209 211
f 229 211 230
f 230 211 213
f 230 213 219
f 219 213 215
f 172 220 173
f 173 220 221
f 173 221 180
f 180 221 222
f 180 222 181
f 181 222 223
f 181 223 177
f 177 223 224
f 177 224 178
f 178 224 225
f 178 225 179
f 179 225 226
f 179 226 174
f 174 226 227
f 174 227 175
f 175 227 228
f 175 228 176
f 176 228 229
f 176 229 169
f 169 229 230
f 169 230 170
f 170 230 219
f 170 219 172
f 172 219 220

