# https://github.com/mikedh/trimesh
mtllib mtl_m16
usemtl mtl_m16
v 0.01650000 -0.00275000 -0.01275000
v 0.01650000 -0.00275000 0.00000000
v 0.01650000 -0.01000000 0.00000000
v 0.01650000 -0.00986603 -0.02450000
v 0.01650000 -0.00950000 -0.02486603
v 0.01650000 -0.01000000 -0.02400000
v 0.01650000 -0.00900000 -0.02500000
v 0.01650000 -0.00275000 -0.01825000
v 0.01650000 -0.00000000 -0.01825000
v 0.01650000 -0.00105238 -0.01804067
v 0.01650000 -0.00254067 -0.01444762
v 0.01650000 -0.00194454 -0.01355546
v 0.01650000 -0.00105238 -0.01295933
v 0.01650000 -0.00000000 -0.01275000
v 0.01650000 -0.00194454 -0.01744454
v 0.01650000 -0.00254067 -0.01655238
v 0.01650000 -0.00275000 -0.01550000
v 0.01650000 -0.00275000 -0.02500000
v 0.01650000 0.00275000 -0.01550000
v 0.01650000 0.00254067 -0.01655238
v 0.01650000 0.00275000 -0.01825000
v 0.01650000 0.00105238 -0.01295933
v 0.01650000 0.00275000 -0.01275000
v 0.01650000 0.00194454 -0.01355546
v 0.01650000 0.00950000 -0.02486603
v 0.01650000 0.00986603 -0.02450000
v 0.01650000 0.00900000 -0.02500000
v 0.01650000 0.01000000 -0.02400000
v 0.01650000 0.00194454 -0.01744454
v 0.01650000 0.00105238 -0.01804067
v 0.01650000 0.01000000 0.00000000
v 0.01650000 0.00275000 0.00000000
v 0.01650000 0.00254067 -0.01444762
v 0.01650000 0.00275000 -0.02500000
v 0.00604355 0.00239281 -0.00300000
v 0.00644875 0.00081467 -0.00300000
v 0.00644875 0.00081467 0.00000000
v 0.00650000 -0.00000000 -0.00300000
v 0.00644875 -0.00081467 0.00000000
v 0.00644875 -0.00081467 -0.00300000
v 0.00604355 -0.00239281 0.00000000
v 0.00604355 -0.00239281 -0.00300000
v 0.00525861 -0.00382060 0.00000000
v 0.00525861 -0.00382060 -0.00300000
v 0.00414326 -0.00500834 0.00000000
v 0.00414326 -0.00500834 -0.00300000
v 0.00276757 -0.00588138 0.00000000
v 0.00276757 -0.00588138 -0.00300000
v 0.00121798 -0.00638487 0.00000000
v 0.00121798 -0.00638487 -0.00300000
v -0.00040814 -0.00648717 0.00000000
v -0.00040814 -0.00648717 -0.00300000
v -0.00200861 -0.00618187 0.00000000
v -0.00200861 -0.00618187 -0.00300000
v -0.00348287 -0.00548813 0.00000000
v -0.00348287 -0.00548813 -0.00300000
v -0.00473830 -0.00444956 0.00000000
v -0.00473830 -0.00444956 -0.00300000
v -0.00569599 -0.00313140 0.00000000
v -0.00569599 -0.00313140 -0.00300000
v -0.00629579 -0.00161648 0.00000000
v -0.00629579 -0.00161648 -0.00300000
v -0.00650000 -0.00000000 0.00000000
v -0.00650000 -0.00000000 -0.00300000
v -0.00629579 0.00161648 0.00000000
v -0.00629579 0.00161648 -0.00300000
v -0.00569599 0.00313140 0.00000000
v -0.00569599 0.00313140 -0.00300000
v -0.00473830 0.00444956 0.00000000
v -0.00473830 0.00444956 -0.00300000
v -0.00348287 0.00548813 0.00000000
v -0.00348287 0.00548813 -0.00300000
v -0.00200861 0.00618187 0.00000000
v -0.00200861 0.00618187 -0.00300000
v -0.00040814 0.00648717 0.00000000
v -0.00040814 0.00648717 -0.00300000
v 0.00121798 0.00638487 0.00000000
v 0.00121798 0.00638487 -0.00300000
v 0.00276757 0.00588138 0.00000000
v 0.00276757 0.00588138 -0.00300000
v 0.00414326 0.00500834 0.00000000
v 0.00414326 0.00500834 -0.00300000
v 0.00525861 0.00382060 0.00000000
v 0.00525861 0.00382060 -0.00300000
v 0.00604355 0.00239281 0.00000000
v 0.01350000 -0.00900000 -0.02500000
v 0.01350000 0.00900000 -0.02500000
v 0.01750000 -0.00275000 -0.02500000
v 0.01750000 0.00275000 -0.02500000
v 0.00979410 -0.01000000 -0.00617037
v 0.01100000 -0.01000000 -0.00666987
v 0.01203553 -0.01000000 -0.00746447
v 0.01283013 -0.01000000 -0.00850000
v -0.00550000 -0.01000000 0.00000000
v -0.00550000 -0.01000000 -0.00600000
v 0.00850000 -0.01000000 -0.00600000
v 0.01350000 -0.01000000 -0.02400000
v 0.01350000 -0.01000000 -0.01100000
v 0.01332963 -0.01000000 -0.00970590
v 0.01750000 -0.00275000 0.00000000
v 0.01750000 0.00275000 0.00000000
v -0.01270775 0.00547107 0.00000000
v -0.01270775 -0.00547107 0.00000000
v -0.01329942 0.00378017 0.00000000
v -0.01350000 0.00200000 0.00000000
v -0.01350000 -0.00200000 0.00000000
v -0.01329942 -0.00378017 0.00000000
v -0.01048792 0.00825465 0.00000000
v -0.01175465 0.00698792 0.00000000
v -0.00550000 0.01000000 0.00000000
v -0.00728017 0.00979942 0.00000000
v -0.00897107 0.00920775 0.00000000
v -0.00728017 -0.00979942 0.00000000
v -0.01175465 -0.00698792 0.00000000
v -0.01048792 -0.00825465 0.00000000
v -0.00897107 -0.00920775 0.00000000
v 0.01332963 0.01000000 -0.00970590
v 0.01350000 0.01000000 -0.01100000
v 0.01350000 0.01000000 -0.02400000
v 0.01283013 0.01000000 -0.00850000
v 0.01203553 0.01000000 -0.00746447
v 0.01100000 0.01000000 -0.00666987
v -0.00550000 0.01000000 -0.00600000
v 0.00850000 0.01000000 -0.00600000
v 0.00979410 0.01000000 -0.00617037
v 0.01350000 0.00254067 -0.01655238
v 0.01350000 0.00275000 -0.01550000
v 0.01350000 0.00254067 -0.01444762
v 0.01350000 0.00194454 -0.01355546
v 0.01350000 0.00105238 -0.01295933
v 0.01350000 -0.00000000 -0.01275000
v 0.01350000 -0.00105238 -0.01295933
v 0.01350000 -0.00194454 -0.01355546
v 0.01350000 0.00986603 -0.02450000
v 0.01350000 0.00194454 -0.01744454
v 0.01350000 0.00950000 -0.02486603
v 0.01350000 0.00105238 -0.01804067
v 0.01350000 -0.00000000 -0.01825000
v 0.01350000 -0.00105238 -0.01804067
v 0.01350000 -0.00194454 -0.01744454
v 0.01350000 -0.00254067 -0.01444762
v 0.01350000 -0.00275000 -0.01550000
v 0.01350000 -0.00254067 -0.01655238
v 0.01350000 -0.00986603 -0.02450000
v 0.01350000 -0.00950000 -0.02486603
v 0.00508068 -0.00880000 -0.00600000
v 0.00850000 -0.00287757 -0.00600000
v -0.01350000 -0.00200000 -0.00600000
v -0.01350000 0.00200000 -0.00600000
v -0.01016136 -0.00000000 -0.00600000
v -0.01329942 0.00378017 -0.00600000
v -0.01270775 0.00547107 -0.00600000
v -0.01175465 0.00698792 -0.00600000
v -0.01048792 0.00825465 -0.00600000
v -0.00897107 0.00920775 -0.00600000
v -0.00728017 0.00979942 -0.00600000
v -0.00508068 0.00880000 -0.00600000
v 0.00508068 0.00880000 -0.00600000
v 0.00850000 0.00287757 -0.00600000
v -0.01175465 -0.00698792 -0.00600000
v -0.01048792 -0.00825465 -0.00600000
v -0.00897107 -0.00920775 -0.00600000
v -0.01270775 -0.00547107 -0.00600000
v -0.01329942 -0.00378017 -0.00600000
v -0.00508068 -0.00880000 -0.00600000
v -0.00728017 -0.00979942 -0.00600000
v 0.01016136 -0.00000000 -0.00300000
v -0.01016136 -0.00000000 -0.00300000
v 0.00508068 0.00880000 -0.00300000
v -0.00508068 -0.00880000 -0.00300000
v 0.00508068 -0.00880000 -0.00300000
v -0.00508068 0.00880000 -0.00300000
v 0.01016136 -0.00000000 -0.00628408
v 0.00979410 -0.00063613 -0.00617037
v 0.00915263 -0.00174718 -0.00604278
v 0.00979410 0.00063613 -0.00617037
v 0.00915263 0.00174718 -0.00604278
v 0.01750000 -0.00275000 -0.01175000
v 0.01750000 0.00275000 -0.01175000
v 0.01750000 -0.00275000 -0.01925000
v 0.01750000 0.00275000 -0.01925000
v -0.00900000 0.00000000 0.00620000
v -0.00845723 0.00307818 0.02120000
v -0.00845723 0.00307818 0.00620000
v -0.00689440 0.00578509 0.02120000
v -0.00689440 0.00578509 0.00620000
v -0.00450000 0.00779423 0.02120000
v -0.00450000 0.00779423 0.00620000
v -0.00156283 0.00886327 0.02120000
v -0.00156283 0.00886327 0.00620000
v 0.00156283 0.00886327 0.02120000
v 0.00156283 0.00886327 0.00620000
v 0.00450000 0.00779423 0.02120000
v 0.00450000 0.00779423 0.00620000
v 0.00689440 0.00578509 0.02120000
v 0.00689440 0.00578509 0.00620000
v 0.00845723 0.00307818 0.02120000
v 0.00845723 0.00307818 0.00620000
v 0.00900000 0.00000000 0.02120000
v 0.00900000 0.00000000 0.00620000
v 0.00845723 -0.00307818 0.02120000
v 0.00845723 -0.00307818 0.00620000
v 0.00689440 -0.00578509 0.02120000
v 0.00689440 -0.00578509 0.00620000
v 0.00450000 -0.00779423 0.02120000
v 0.00450000 -0.00779423 0.00620000
v 0.00156283 -0.00886327 0.02120000
v 0.00156283 -0.00886327 0.00620000
v -0.00156283 -0.00886327 0.02120000
v -0.00156283 -0.00886327 0.00620000
v -0.00450000 -0.00779423 0.02120000
v -0.00450000 -0.00779423 0.00620000
v -0.00689440 -0.00578509 0.02120000
v -0.00689440 -0.00578509 0.00620000
v -0.00845723 -0.00307818 0.02120000
v -0.00845723 -0.00307818 0.00620000
v -0.00900000 0.00000000 0.02120000
v 0.00200861 0.00618187 0.00620000
v 0.00434935 0.00483044 0.00620000
v 0.00593805 0.00264379 0.00620000
v 0.00650000 0.00000000 0.00620000
v 0.00593805 -0.00264379 0.00620000
v 0.00434935 -0.00483044 0.00620000
v 0.00200861 -0.00618187 0.00620000
v -0.00067944 -0.00646439 0.00620000
v -0.00325000 -0.00562917 0.00620000
v -0.00525861 -0.00382060 0.00620000
v -0.00635796 -0.00135143 0.00620000
v -0.00650000 0.00000000 0.00620000
v -0.00635796 0.00135143 0.00620000
v -0.00525861 0.00382060 0.00620000
v -0.00325000 0.00562917 0.00620000
v -0.00067944 0.00646439 0.00620000
v -0.00429135 -0.00476602 0.06120000
v -0.00491288 -0.00412240 0.06120000
v -0.00198182 0.00609943 0.06120000
v -0.00111366 0.00631588 0.06120000
v 0.00518848 0.00376965 0.06120000
v 0.00491288 0.00412240 0.06120000
v 0.00320666 0.00555409 0.06120000
v 0.00111366 0.00631588 0.06120000
v 0.00067037 0.00637818 0.06120000
v -0.00320666 0.00555409 0.06120000
v -0.00429135 0.00476602 0.06120000
v -0.00491288 0.00412240 0.06120000
v -0.00585886 0.00260853 0.06120000
v -0.00602655 0.00219348 0.06120000
v -0.00641332 0.00000000 0.06120000
v -0.00602655 -0.00219348 0.06120000
v -0.00585886 -0.00260853 0.06120000
v -0.00320666 -0.00555409 0.06120000
v -0.00198182 -0.00609943 0.06120000
v -0.00111366 -0.00631588 0.06120000
v 0.00067037 -0.00637818 0.06120000
v 0.00111366 -0.00631588 0.06120000
v 0.00320666 -0.00555409 0.06120000
v 0.00491288 -0.00412240 0.06120000
v 0.00602655 -0.00219348 0.06120000
v 0.00518848 -0.00376965 0.06120000
v 0.00602655 0.00219348 0.06120000
v 0.00627317 0.00133340 0.06120000
v 0.00641332 0.00000000 0.06120000
v 0.00627317 -0.00133340 0.06120000
v -0.00627317 0.00133340 0.12100000
v -0.00641332 0.00000000 0.12100000
v -0.00627317 -0.00133340 0.12100000
v -0.00585886 -0.00260853 0.12100000
v -0.00518848 -0.00376965 0.12100000
v -0.00429135 -0.00476602 0.12100000
v -0.00320666 -0.00555409 0.12100000
v -0.00198182 -0.00609943 0.12100000
v -0.00067037 -0.00637818 0.12100000
v 0.00067037 -0.00637818 0.12100000
v 0.00198182 -0.00609943 0.12100000
v 0.00320666 -0.00555409 0.12100000
v 0.00429135 -0.00476602 0.12100000
v 0.00518848 -0.00376965 0.12100000
v 0.00585886 -0.00260853 0.12100000
v 0.00627317 -0.00133340 0.12100000
v 0.00641332 0.00000000 0.12100000
v 0.00627317 0.00133340 0.12100000
v 0.00585886 0.00260853 0.12100000
v 0.00518848 0.00376965 0.12100000
v 0.00429135 0.00476602 0.12100000
v 0.00320666 0.00555409 0.12100000
v 0.00198182 0.00609943 0.12100000
v 0.00067037 0.00637818 0.12100000
v -0.00067037 0.00637818 0.12100000
v -0.00198182 0.00609943 0.12100000
v -0.00320666 0.00555409 0.12100000
v -0.00429135 0.00476602 0.12100000
v -0.00518848 0.00376965 0.12100000
v -0.00585886 0.00260853 0.12100000
v 0.00494531 -0.00220179 0.12200000
v 0.00529502 -0.00112549 0.12200000
v 0.00000000 0.00000000 0.12200000
v 0.00541332 0.00000000 0.12200000
v 0.00529502 0.00112549 0.12200000
v 0.00270666 -0.00468807 0.12200000
v 0.00362222 -0.00402288 0.12200000
v 0.00437946 -0.00318187 0.12200000
v -0.00056585 -0.00538366 0.12200000
v 0.00056585 -0.00538366 0.12200000
v 0.00167281 -0.00514837 0.12200000
v -0.00362222 -0.00402288 0.12200000
v -0.00270666 -0.00468807 0.12200000
v -0.00167281 -0.00514837 0.12200000
v -0.00529502 -0.00112549 0.12200000
v -0.00494531 -0.00220179 0.12200000
v -0.00437946 -0.00318187 0.12200000
v -0.00494531 0.00220179 0.12200000
v -0.00529502 0.00112549 0.12200000
v -0.00541332 0.00000000 0.12200000
v -0.00270666 0.00468807 0.12200000
v -0.00362222 0.00402288 0.12200000
v -0.00437946 0.00318187 0.12200000
v 0.00056585 0.00538366 0.12200000
v -0.00056585 0.00538366 0.12200000
v -0.00167281 0.00514837 0.12200000
v 0.00362222 0.00402288 0.12200000
v 0.00270666 0.00468807 0.12200000
v 0.00167281 0.00514837 0.12200000
v 0.00494531 0.00220179 0.12200000
v 0.00437946 0.00318187 0.12200000
v 0.00578410 0.00122945 0.12186603
v 0.00540208 0.00240516 0.12186603
v 0.00478397 0.00347576 0.12186603
v 0.00395678 0.00439445 0.12186603
v 0.00295666 0.00512108 0.12186603
v 0.00182732 0.00562390 0.12186603
v 0.00061811 0.00588092 0.12186603
v -0.00061811 0.00588092 0.12186603
v -0.00182732 0.00562390 0.12186603
v -0.00295666 0.00512108 0.12186603
v -0.00395678 0.00439445 0.12186603
v -0.00478397 0.00347576 0.12186603
v -0.00540208 0.00240516 0.12186603
v -0.00578410 0.00122945 0.12186603
v -0.00591332 0.00000000 0.12186603
v -0.00578410 -0.00122945 0.12186603
v -0.00540208 -0.00240516 0.12186603
v -0.00478397 -0.00347576 0.12186603
v -0.00395678 -0.00439445 0.12186603
v -0.00295666 -0.00512108 0.12186603
v -0.00182732 -0.00562390 0.12186603
v -0.00061811 -0.00588092 0.12186603
v 0.00061811 -0.00588092 0.12186603
v 0.00182732 -0.00562390 0.12186603
v 0.00295666 -0.00512108 0.12186603
v 0.00395678 -0.00439445 0.12186603
v 0.00478397 -0.00347576 0.12186603
v 0.00540208 -0.00240516 0.12186603
v 0.00578410 -0.00122945 0.12186603
v 0.00591332 0.00000000 0.12186603
v 0.00614212 0.00130555 0.12150000
v 0.00573646 0.00255404 0.12150000
v 0.00508009 0.00369090 0.12150000
v 0.00420170 0.00466646 0.12150000
v 0.00313967 0.00543807 0.12150000
v 0.00194042 0.00597201 0.12150000
v 0.00065637 0.00624494 0.12150000
v -0.00065637 0.00624494 0.12150000
v -0.00194042 0.00597201 0.12150000
v -0.00313967 0.00543807 0.12150000
v -0.00420170 0.00466646 0.12150000
v -0.00508009 0.00369090 0.12150000
v -0.00573646 0.00255404 0.12150000
v -0.00614212 0.00130555 0.12150000
v -0.00627934 0.00000000 0.12150000
v -0.00614212 -0.00130555 0.12150000
v -0.00573646 -0.00255404 0.12150000
v -0.00508009 -0.00369090 0.12150000
v -0.00420170 -0.00466646 0.12150000
v -0.00313967 -0.00543807 0.12150000
v -0.00194042 -0.00597201 0.12150000
v -0.00065637 -0.00624494 0.12150000
v 0.00065637 -0.00624494 0.12150000
v 0.00194042 -0.00597201 0.12150000
v 0.00313967 -0.00543807 0.12150000
v 0.00420170 -0.00466646 0.12150000
v 0.00508009 -0.00369090 0.12150000
v 0.00573646 -0.00255404 0.12150000
v 0.00614212 -0.00130555 0.12150000
v 0.00627934 0.00000000 0.12150000
v -0.00635796 0.00135143 -0.00000000
v -0.00525861 0.00382060 -0.00000000
v -0.00325000 0.00562917 -0.00000000
v -0.00067944 0.00646439 -0.00000000
v 0.00200861 0.00618187 -0.00000000
v 0.00434935 0.00483044 -0.00000000
v 0.00593805 0.00264379 -0.00000000
v 0.00650000 0.00000000 -0.00000000
v 0.00593805 -0.00264379 -0.00000000
v 0.00434935 -0.00483044 -0.00000000
v 0.00200861 -0.00618187 -0.00000000
v -0.00067944 -0.00646439 -0.00000000
v -0.00325000 -0.00562917 -0.00000000
v -0.00525861 -0.00382060 -0.00000000
v -0.00635796 -0.00135143 -0.00000000
v 0.00000000 0.00000000 -0.00000000
f 1 2 3
f 4 5 6
f 6 5 7
f 6 7 3
f 8 9 10
f 11 12 1
f 1 12 13
f 1 13 14
f 10 15 8
f 8 15 16
f 8 16 17
f 11 1 17
f 17 1 3
f 17 3 8
f 8 3 7
f 8 7 18
f 19 20 21
f 14 22 23
f 23 22 24
f 25 26 27
f 27 26 28
f 20 29 21
f 21 29 30
f 21 30 9
f 31 32 23
f 24 33 23
f 23 33 19
f 23 19 31
f 31 19 21
f 31 21 28
f 28 21 34
f 28 34 27
f 35 36 37
f 37 36 38
f 37 38 39
f 39 38 40
f 39 40 41
f 41 40 42
f 41 42 43
f 43 42 44
f 43 44 45
f 45 44 46
f 45 46 47
f 47 46 48
f 47 48 49
f 49 48 50
f 49 50 51
f 51 50 52
f 51 52 53
f 53 52 54
f 53 54 55
f 55 54 56
f 55 56 57
f 57 56 58
f 57 58 59
f 59 58 60
f 59 60 61
f 61 60 62
f 61 62 63
f 63 62 64
f 63 64 65
f 65 64 66
f 65 66 67
f 67 66 68
f 67 68 69
f 69 68 70
f 69 70 71
f 71 70 72
f 71 72 73
f 73 72 74
f 73 74 75
f 75 74 76
f 75 76 77
f 77 76 78
f 77 78 79
f 79 78 80
f 79 80 81
f 81 80 82
f 81 82 83
f 83 82 84
f 83 84 85
f 85 84 35
f 85 35 37
f 86 87 34
f 34 87 27
f 7 86 18
f 18 86 34
f 18 34 88
f 88 34 89
f 90 91 3
f 3 91 92
f 3 92 93
f 94 95 3
f 3 95 96
f 3 96 90
f 97 6 98
f 98 6 3
f 98 3 99
f 99 3 93
f 100 101 2
f 2 101 32
f 77 79 32
f 32 79 81
f 32 81 2
f 2 81 83
f 2 83 85
f 102 65 67
f 3 43 45
f 59 61 103
f 102 104 65
f 65 104 105
f 65 105 63
f 63 105 106
f 63 106 61
f 61 106 107
f 61 107 103
f 69 108 67
f 67 108 109
f 67 109 102
f 73 110 71
f 71 110 111
f 71 111 69
f 69 111 112
f 69 112 108
f 85 37 2
f 2 37 39
f 2 39 3
f 3 39 41
f 3 41 43
f 51 94 49
f 49 94 3
f 49 3 47
f 47 3 45
f 73 75 110
f 110 75 77
f 110 77 31
f 31 77 32
f 51 53 94
f 94 53 55
f 94 55 113
f 113 55 57
f 103 114 59
f 59 114 115
f 59 115 57
f 57 115 116
f 57 116 113
f 117 31 118
f 118 31 28
f 118 28 119
f 117 120 31
f 31 120 121
f 31 121 122
f 123 110 124
f 124 110 31
f 124 31 125
f 125 31 122
f 126 127 118
f 118 127 128
f 118 128 129
f 129 130 118
f 118 130 131
f 118 131 98
f 98 131 132
f 98 132 133
f 118 119 126
f 126 119 134
f 126 134 135
f 135 134 136
f 135 136 137
f 137 136 87
f 137 87 138
f 138 87 86
f 138 86 139
f 139 86 140
f 133 141 98
f 98 141 142
f 98 142 97
f 97 142 143
f 97 143 144
f 144 143 140
f 144 140 145
f 145 140 86
f 146 147 96
f 148 149 150
f 150 149 151
f 151 152 150
f 150 152 153
f 150 153 154
f 154 155 150
f 150 155 156
f 150 156 157
f 157 156 123
f 157 123 158
f 158 123 124
f 158 124 159
f 160 150 161
f 161 150 162
f 160 163 150
f 150 163 164
f 150 164 148
f 146 96 165
f 165 96 95
f 165 95 150
f 150 95 166
f 150 166 162
f 106 105 148
f 148 105 149
f 9 138 10
f 10 138 139
f 10 139 15
f 15 139 140
f 15 140 16
f 16 140 143
f 16 143 17
f 17 143 142
f 17 142 11
f 11 142 141
f 11 141 12
f 12 141 133
f 12 133 13
f 13 133 132
f 13 132 14
f 14 132 131
f 14 131 22
f 22 131 130
f 22 130 24
f 24 130 129
f 24 129 33
f 33 129 128
f 33 128 19
f 19 128 127
f 19 127 20
f 20 127 126
f 20 126 29
f 29 126 135
f 29 135 30
f 30 135 137
f 30 137 9
f 9 137 138
f 40 38 167
f 66 64 168
f 38 36 167
f 167 36 35
f 167 35 169
f 169 35 84
f 169 84 82
f 64 62 168
f 168 62 60
f 168 60 170
f 170 60 58
f 170 58 56
f 48 46 171
f 171 46 44
f 171 44 167
f 167 44 42
f 167 42 40
f 82 80 169
f 169 80 78
f 169 78 172
f 172 78 76
f 172 76 74
f 74 72 172
f 172 72 70
f 172 70 168
f 168 70 68
f 168 68 66
f 56 54 170
f 170 54 52
f 170 52 171
f 171 52 50
f 171 50 48
f 167 173 174
f 146 171 147
f 147 171 167
f 147 167 175
f 175 167 174
f 173 167 176
f 176 167 177
f 169 158 167
f 167 158 159
f 167 159 177
f 169 172 158
f 158 172 157
f 172 168 157
f 157 168 150
f 168 170 150
f 150 170 165
f 170 171 165
f 165 171 146
f 91 90 174
f 125 122 173
f 96 147 90
f 90 147 175
f 90 175 174
f 159 124 177
f 177 124 125
f 177 125 176
f 176 125 173
f 174 173 91
f 91 173 122
f 91 122 92
f 92 122 121
f 92 121 93
f 93 121 120
f 93 120 99
f 99 120 117
f 99 117 98
f 98 117 118
f 86 7 5
f 86 5 145
f 145 5 4
f 145 4 144
f 144 4 6
f 144 6 97
f 119 28 26
f 119 26 134
f 134 26 25
f 134 25 136
f 136 25 27
f 136 27 87
f 178 100 1
f 1 100 2
f 23 32 179
f 179 32 101
f 179 101 178
f 178 101 100
f 8 18 180
f 180 18 88
f 181 89 21
f 21 89 34
f 180 88 181
f 181 88 89
f 178 1 179
f 179 1 14
f 179 14 23
f 181 21 180
f 180 21 9
f 180 9 8
f 106 148 164
f 106 164 107
f 107 164 163
f 107 163 103
f 103 163 160
f 103 160 114
f 114 160 161
f 114 161 115
f 115 161 162
f 115 162 116
f 116 162 166
f 116 166 113
f 113 166 95
f 113 95 94
f 110 123 156
f 110 156 111
f 111 156 155
f 111 155 112
f 112 155 154
f 112 154 108
f 108 154 153
f 108 153 109
f 109 153 152
f 109 152 102
f 102 152 151
f 102 151 104
f 104 151 149
f 104 149 105
f 182 183 184
f 184 183 185
f 184 185 186
f 186 185 187
f 186 187 188
f 188 187 189
f 188 189 190
f 190 189 191
f 190 191 192
f 192 191 193
f 192 193 194
f 194 193 195
f 194 195 196
f 196 195 197
f 196 197 198
f 198 197 199
f 198 199 200
f 200 199 201
f 200 201 202
f 202 201 203
f 202 203 204
f 204 203 205
f 204 205 206
f 206 205 207
f 206 207 208
f 208 207 209
f 208 209 210
f 210 209 211
f 210 211 212
f 212 211 213
f 212 213 214
f 214 213 215
f 214 215 216
f 216 215 217
f 216 217 182
f 182 217 183
f 218 194 219
f 219 194 196
f 219 196 220
f 220 196 198
f 220 198 221
f 221 198 200
f 221 200 222
f 222 200 202
f 222 202 223
f 202 204 223
f 223 204 206
f 223 206 224
f 224 206 208
f 224 208 225
f 225 208 210
f 225 210 226
f 226 210 212
f 226 212 227
f 227 212 214
f 227 214 228
f 228 214 216
f 228 216 229
f 229 216 182
f 229 182 230
f 230 182 184
f 230 184 231
f 231 184 186
f 231 186 232
f 232 186 188
f 232 188 233
f 233 188 190
f 233 190 218
f 218 190 192
f 218 192 194
f 234 235 213
f 236 237 189
f 197 195 238
f 238 195 239
f 239 195 193
f 239 193 240
f 240 193 191
f 240 191 241
f 189 237 191
f 191 237 242
f 191 242 241
f 236 189 243
f 243 189 187
f 243 187 244
f 244 187 185
f 244 185 245
f 245 185 246
f 246 185 183
f 246 183 247
f 247 183 217
f 247 217 248
f 248 217 215
f 248 215 249
f 213 235 215
f 215 235 250
f 215 250 249
f 234 213 251
f 251 213 211
f 251 211 252
f 252 211 209
f 252 209 253
f 253 209 254
f 254 209 207
f 254 207 255
f 255 207 205
f 255 205 256
f 256 205 203
f 256 203 257
f 201 258 203
f 203 258 259
f 203 259 257
f 238 260 197
f 197 260 261
f 197 261 199
f 199 261 262
f 199 262 201
f 201 262 263
f 201 263 258
f 264 247 265
f 265 247 248
f 265 248 266
f 266 248 249
f 266 249 267
f 267 249 250
f 267 250 268
f 268 250 235
f 268 235 269
f 269 235 234
f 269 234 270
f 270 234 251
f 270 251 271
f 271 251 252
f 271 252 272
f 272 252 253
f 272 253 273
f 273 253 254
f 273 254 274
f 274 254 255
f 274 255 275
f 275 255 256
f 275 256 276
f 276 256 257
f 276 257 277
f 277 257 259
f 277 259 278
f 278 259 258
f 278 258 279
f 279 258 263
f 279 263 280
f 280 263 262
f 280 262 281
f 281 262 261
f 281 261 282
f 282 261 260
f 282 260 283
f 283 260 238
f 283 238 284
f 284 238 239
f 284 239 285
f 285 239 240
f 285 240 286
f 286 240 241
f 286 241 287
f 287 241 242
f 287 242 288
f 288 242 237
f 288 237 289
f 289 237 236
f 289 236 290
f 290 236 243
f 290 243 291
f 291 243 244
f 291 244 292
f 292 244 245
f 292 245 293
f 293 245 246
f 293 246 264
f 264 246 247
f 294 295 296
f 296 295 297
f 296 297 298
f 299 300 296
f 296 300 301
f 296 301 294
f 302 303 296
f 296 303 304
f 296 304 299
f 305 306 296
f 296 306 307
f 296 307 302
f 308 309 296
f 296 309 310
f 296 310 305
f 311 312 296
f 296 312 313
f 296 313 308
f 314 315 296
f 296 315 316
f 296 316 311
f 317 318 296
f 296 318 319
f 296 319 314
f 320 321 296
f 296 321 322
f 296 322 317
f 298 323 296
f 296 323 324
f 296 324 320
f 297 325 298
f 298 325 326
f 298 326 323
f 323 326 327
f 323 327 324
f 324 327 328
f 324 328 320
f 320 328 329
f 320 329 321
f 321 329 330
f 321 330 322
f 322 330 331
f 322 331 317
f 317 331 332
f 317 332 318
f 318 332 333
f 318 333 319
f 319 333 334
f 319 334 314
f 314 334 335
f 314 335 315
f 315 335 336
f 315 336 316
f 316 336 337
f 316 337 311
f 311 337 338
f 311 338 312
f 312 338 339
f 312 339 313
f 313 339 340
f 313 340 308
f 308 340 341
f 308 341 309
f 309 341 342
f 309 342 310
f 310 342 343
f 310 343 305
f 305 343 344
f 305 344 306
f 306 344 345
f 306 345 307
f 307 345 346
f 307 346 302
f 302 346 347
f 302 347 303
f 303 347 348
f 303 348 304
f 304 348 349
f 304 349 299
f 299 349 350
f 299 350 300
f 300 350 351
f 300 351 301
f 301 351 352
f 301 352 294
f 294 352 353
f 294 353 295
f 295 353 354
f 295 354 297
f 297 354 325
f 354 355 325
f 325 355 356
f 325 356 326
f 326 356 357
f 326 357 327
f 327 357 358
f 327 358 328
f 328 358 359
f 328 359 329
f 329 359 360
f 329 360 330
f 330 360 361
f 330 361 331
f 331 361 362
f 331 362 332
f 332 362 363
f 332 363 333
f 333 363 364
f 333 364 334
f 334 364 365
f 334 365 335
f 335 365 366
f 335 366 336
f 336 366 367
f 336 367 337
f 337 367 368
f 337 368 338
f 338 368 369
f 338 369 339
f 339 369 370
f 339 370 340
f 340 370 371
f 340 371 341
f 341 371 372
f 341 372 342
f 342 372 373
f 342 373 343
f 343 373 374
f 343 374 344
f 344 374 375
f 344 375 345
f 345 375 376
f 345 376 346
f 346 376 377
f 346 377 347
f 347 377 378
f 347 378 348
f 348 378 379
f 348 379 349
f 349 379 380
f 349 380 350
f 350 380 381
f 350 381 351
f 351 381 382
f 351 382 352
f 352 382 383
f 352 383 353
f 353 383 384
f 353 384 354
f 354 384 355
f 384 281 355
f 355 281 282
f 355 282 356
f 356 282 283
f 356 283 357
f 357 283 284
f 357 284 358
f 358 284 285
f 358 285 359
f 359 285 286
f 359 286 360
f 360 286 287
f 360 287 361
f 361 287 288
f 361 288 362
f 362 288 289
f 362 289 363
f 363 289 290
f 363 290 364
f 364 290 291
f 364 291 365
f 365 291 292
f 365 292 366
f 366 292 293
f 366 293 367
f 367 293 264
f 367 264 368
f 368 264 265
f 368 265 369
f 369 265 266
f 369 266 370
f 370 266 267
f 370 267 371
f 371 267 268
f 371 268 372
f 372 268 269
f 372 269 373
f 373 269 270
f 373 270 374
f 374 270 271
f 374 271 375
f 375 271 272
f 375 272 376
f 376 272 273
f 376 273 377
f 377 273 274
f 377 274 378
f 378 274 275
f 378 275 379
f 379 275 276
f 379 276 380
f 380 276 277
f 380 277 381
f 381 277 278
f 381 278 382
f 382 278 279
f 382 279 383
f 383 279 280
f 383 280 384
f 384 280 281
f 229 230 385
f 385 230 231
f 385 231 386
f 386 231 232
f 386 232 387
f 387 232 233
f 387 233 388
f 388 233 218
f 388 218 389
f 389 218 219
f 389 219 390
f 390 219 220
f 390 220 391
f 391 220 221
f 391 221 392
f 392 221 222
f 392 222 393
f 393 222 223
f 393 223 394
f 394 223 224
f 394 224 395
f 395 224 225
f 395 225 396
f 396 225 226
f 396 226 397
f 397 226 227
f 397 227 398
f 398 227 228
f 398 228 399
f 399 228 229
f 399 229 385
f 390 391 400
f 400 391 392
f 400 392 393
f 387 388 400
f 400 388 389
f 400 389 390
f 399 385 400
f 400 385 386
f 400 386 387
f 396 397 400
f 400 397 398
f 400 398 399
f 393 394 400
f 400 394 395
f 400 395 396

