# https://github.com/mikedh/trimesh
mtllib mtl_m13
usemtl mtl_m13
v -0.06115474 0.17090653 0.03459518
v -0.06208611 0.16816103 0.03483205
v -0.06834788 0.17295960 0.03652429
v -0.03254404 0.18000001 0.02912728
v -0.04711539 0.18000001 0.03147986
v -0.05000000 0.18500000 0.03205103
v -0.05004278 0.17972098 0.03205976
v -0.05310354 0.18475774 0.03270587
v -0.05286626 0.17888463 0.03265361
v -0.05604809 0.18406360 0.03336370
v -0.05547509 0.17753074 0.03323266
v -0.05778561 0.17569812 0.03377002
v -0.06103048 0.18168318 0.03456385
v -0.05906493 0.18282771 0.03407560
v -0.05970114 0.17346366 0.03423309
v -0.06410892 0.17917527 0.03535924
v -0.06163966 0.18126401 0.03471787
v -0.06795264 0.17381492 0.03641220
v -0.06617855 0.17675817 0.03591809
v -0.06573446 0.17734613 0.03579674
v -0.06250000 0.15500000 0.03493854
v -0.06834788 0.15500000 0.03652429
v -0.06250000 0.16461538 0.03493854
v -0.06248526 0.16529086 0.03493474
v -0.03254404 0.18500000 0.02912728
v -0.01087545 0.18500000 0.02723666
v -0.01087545 0.18000001 0.02723666
v 0.01087545 0.18500000 0.02723666
v 0.01087545 0.18000001 0.02723666
v 0.03254404 0.18500000 0.02912728
v 0.05398096 0.18459980 0.03289956
v 0.05363309 0.17855132 0.03282078
v 0.05075632 0.18498570 0.03220700
v 0.05086692 0.17953523 0.03222958
v 0.05000000 0.18500000 0.03205103
v 0.04794367 0.17997772 0.03164025
v 0.04711539 0.18000001 0.03147986
v 0.03254404 0.18000001 0.02912728
v 0.06834788 0.15500000 0.03652429
v 0.06250000 0.15500000 0.03493854
v 0.06834788 0.17295960 0.03652429
v 0.06250000 0.16461538 0.03493854
v 0.06222866 0.16749197 0.03486864
v 0.06141801 0.17028220 0.03466175
v 0.06674978 0.17592908 0.03607435
v 0.06010855 0.17285395 0.03433364
v 0.06465928 0.17860536 0.03550440
v 0.05833132 0.17514555 0.03390031
v 0.05614690 0.17707025 0.03338652
v 0.06103025 0.18168333 0.03456375
v 0.06223104 0.18082409 0.03486818
v 0.05519786 0.18431275 0.03317168
v 0.05710815 0.18369423 0.03361123
v 0.05978610 0.18244225 0.03425357
v -0.06250000 0.16461538 0.04700000
v -0.06250000 0.15500000 0.04700000
v -0.04711539 0.18000001 0.04700000
v -0.05117497 0.17945473 0.04700000
v -0.05596162 0.17720230 0.04700000
v -0.05970230 0.17346162 0.04700000
v -0.06195473 0.16867498 0.04700000
v 0.04711539 0.18000001 0.04700000
v 0.05117497 0.17945473 0.04700000
v 0.06250000 0.16461538 0.04700000
v 0.06195473 0.16867498 0.04700000
v 0.05970230 0.17346162 0.04700000
v 0.05596162 0.17720230 0.04700000
v 0.06250000 0.15500000 0.04700000
v -0.06225699 -0.03000000 0.08506015
v -0.06352845 -0.03000000 0.08476765
v -0.06485040 -0.03000000 0.08388225
v -0.06572263 -0.03000000 0.08255156
v -0.06600248 -0.03000000 0.08127726
v -0.02284035 -0.03000000 0.08673912
v -0.06779888 -0.03000000 0.04700000
v 0.02284035 -0.03000000 0.08673912
v 0.06485040 -0.03000000 0.08388225
v 0.06352845 -0.03000000 0.08476765
v 0.06572263 -0.03000000 0.08255156
v 0.06225699 -0.03000000 0.08506015
v 0.06600248 -0.03000000 0.08127726
v 0.06779888 -0.03000000 0.04700000
v 0.06779888 0.15500000 0.04700000
v -0.06779888 0.15500000 0.04700000
v 0.06764573 0.17441426 0.04992215
v 0.06576136 0.17731354 0.08245065
v 0.06600248 0.17699669 0.08127726
v 0.06682848 0.17580751 0.06551617
v 0.06225699 0.18080400 0.08506015
v 0.06273328 0.18042192 0.08500160
v 0.06404381 0.17924170 0.08451106
v 0.06514038 0.17806807 0.08355547
v 0.06103111 0.18168299 0.08513586
v 0.05944707 0.18262817 0.08523146
v 0.05637262 0.18395756 0.08540980
v 0.05310740 0.18475720 0.08558881
v 0.05000000 0.18500000 0.08574922
v -0.06225699 0.18080400 0.08506015
v -0.06103116 0.18168306 0.08513586
v -0.05965302 0.18251634 0.08521917
v -0.05658277 0.18388562 0.08539791
v -0.05000000 0.18500000 0.08574922
v -0.05333846 0.18471938 0.08557649
v -0.06552102 0.17761308 0.08298061
v -0.06463750 0.17862925 0.08408213
v -0.06355335 0.17970736 0.08475733
v -0.06591442 0.17711540 0.08192790
v -0.06600248 0.17699669 0.08127726
v -0.06691838 0.17566623 0.06380074
v -0.06772394 0.17426617 0.04842985
v 0.02284035 0.18500000 0.08673912
v -0.02284035 0.18500000 0.08673912
v 0.03150000 -0.16000000 0.00500000
v 0.03150000 -0.17500000 0.00500000
v 0.03150000 -0.16000000 0.01250000
v 0.03350000 -0.16000000 0.00500000
v 0.03350000 -0.16000000 0.01250000
v 0.03350000 -0.17500000 0.00500000
v 0.03150000 0.15500000 0.01500000
v 0.03150000 0.17500000 0.00500000
v 0.03150000 0.15500000 0.01050000
v 0.03150000 0.15500000 0.00500000
v 0.03350000 0.15500000 0.00500000
v 0.03350000 0.17500000 0.00500000
v 0.03350000 0.15500000 0.01050000
v 0.03350000 0.15500000 0.01500000
v -0.04350000 -0.16000000 0.00500000
v -0.04350000 -0.17500000 0.00500000
v -0.04350000 -0.16000000 0.01250000
v -0.04150000 -0.16000000 0.00500000
v -0.04150000 -0.16000000 0.01250000
v -0.04150000 -0.17500000 0.00500000
v -0.04350000 0.15500000 0.01500000
v -0.04350000 0.17500000 0.00500000
v -0.04350000 0.15500000 0.01050000
v -0.04350000 0.15500000 0.00500000
v -0.04150000 0.15500000 0.00500000
v -0.04150000 0.17500000 0.00500000
v -0.04150000 0.15500000 0.01050000
v -0.04150000 0.15500000 0.01500000
v -0.00600000 -0.16000000 0.00500000
v -0.00600000 -0.17500000 0.00500000
v -0.00600000 -0.16000000 0.01250000
v -0.00400000 -0.16000000 0.00500000
v -0.00400000 -0.16000000 0.01250000
v -0.00400000 -0.17500000 0.00500000
v -0.00600000 0.15500000 0.01500000
v -0.00600000 0.17500000 0.00500000
v -0.00600000 0.15500000 0.01050000
v -0.00600000 0.15500000 0.00500000
v -0.00400000 0.15500000 0.00500000
v -0.00400000 0.17500000 0.00500000
v -0.00400000 0.15500000 0.01050000
v -0.00400000 0.15500000 0.01500000
v -0.05250000 0.15500000 0.02066987
v -0.05433013 0.15500000 0.02250000
v -0.05000000 0.15500000 0.02500000
v -0.05500000 0.15500000 0.02500000
v -0.05433013 0.15500000 0.02750000
v -0.04566987 0.15500000 0.02250000
v -0.04750000 0.15500000 0.02066987
v -0.05000000 0.15500000 0.02000000
v -0.04750000 0.15500000 0.02933013
v -0.04566987 0.15500000 0.02750000
v -0.04500000 0.15500000 0.02500000
v -0.05250000 0.15500000 0.02933013
v -0.05000000 0.15500000 0.03000000
v -0.05900000 0.16473334 0.02500000
v -0.05779423 0.15500000 0.02950000
v -0.05779423 0.16473334 0.02950000
v -0.05450000 0.15500000 0.03279423
v -0.05450000 0.16473334 0.03279423
v -0.05000000 0.15500000 0.03400000
v -0.05000000 0.16473334 0.03400000
v -0.04550000 0.15500000 0.03279423
v -0.04550000 0.16473334 0.03279423
v -0.04220577 0.15500000 0.02950000
v -0.04220577 0.16473334 0.02950000
v -0.04100000 0.15500000 0.02500000
v -0.04100000 0.16473334 0.02500000
v -0.04220577 0.15500000 0.02050000
v -0.04220577 0.16473334 0.02050000
v -0.04550000 0.15500000 0.01720577
v -0.04550000 0.16473334 0.01720577
v -0.05000000 0.15500000 0.01600000
v -0.05000000 0.16473334 0.01600000
v -0.05450000 0.15500000 0.01720577
v -0.05450000 0.16473334 0.01720577
v -0.05779423 0.15500000 0.02050000
v -0.05779423 0.16473334 0.02050000
v -0.05900000 0.15500000 0.02500000
v -0.04243671 0.16500001 0.02936667
v -0.04563333 0.16500001 0.03256329
v -0.05000000 0.16500001 0.03373333
v -0.05436667 0.16500001 0.03256329
v -0.05756329 0.16500001 0.02936667
v -0.05873333 0.16500001 0.02500000
v -0.05756329 0.16500001 0.02063333
v -0.05436667 0.16500001 0.01743671
v -0.05000000 0.16500001 0.01626667
v -0.04563333 0.16500001 0.01743671
v -0.04243671 0.16500001 0.02063333
v -0.04126666 0.16500001 0.02500000
v -0.05720533 0.16500001 0.02916000
v -0.05416000 0.16500001 0.03220533
v -0.05000000 0.16500001 0.03332000
v -0.04584000 0.16500001 0.03220533
v -0.04279467 0.16500001 0.02916000
v -0.04168000 0.16500001 0.02500000
v -0.04279467 0.16500001 0.02084000
v -0.04584000 0.16500001 0.01779467
v -0.05000000 0.16500001 0.01668000
v -0.05416000 0.16500001 0.01779467
v -0.05720533 0.16500001 0.02084000
v -0.05832000 0.16500001 0.02500000
v -0.05692820 0.16468000 0.02900000
v -0.05400000 0.16468000 0.03192820
v -0.05000000 0.16468000 0.03300000
v -0.04600000 0.16468000 0.03192820
v -0.04307180 0.16468000 0.02900000
v -0.04200000 0.16468000 0.02500000
v -0.04307180 0.16468000 0.02100000
v -0.04600000 0.16468000 0.01807180
v -0.05000000 0.16468000 0.01700000
v -0.05400000 0.16468000 0.01807180
v -0.05692820 0.16468000 0.02100000
v -0.05800000 0.16468000 0.02500000
v -0.05800000 0.15600000 0.02500000
v -0.05692820 0.15600000 0.02900000
v -0.05400000 0.15600000 0.03192820
v -0.05000000 0.15600000 0.03300000
v -0.04600000 0.15600000 0.03192820
v -0.04307180 0.15600000 0.02900000
v -0.04200000 0.15600000 0.02500000
v -0.04307180 0.15600000 0.02100000
v -0.04600000 0.15600000 0.01807180
v -0.05000000 0.15600000 0.01700000
v -0.05400000 0.15600000 0.01807180
v -0.05692820 0.15600000 0.02100000
v -0.04400000 0.15600000 0.02500000
v -0.04480385 0.15600000 0.02200000
v -0.04700000 0.15600000 0.01980385
v -0.05000000 0.15600000 0.01900000
v -0.05300000 0.15600000 0.01980385
v -0.05519615 0.15600000 0.02200000
v -0.05600000 0.15600000 0.02500000
v -0.05519615 0.15600000 0.02800000
v -0.05300000 0.15600000 0.03019615
v -0.05000000 0.15600000 0.03100000
v -0.04700000 0.15600000 0.03019615
v -0.04480385 0.15600000 0.02800000
v -0.05600000 0.16166666 0.02500000
v -0.05519615 0.16166666 0.02800000
v -0.05300000 0.16166666 0.03019615
v -0.05000000 0.16166666 0.03100000
v -0.04700000 0.16166666 0.03019615
v -0.04480385 0.16166666 0.02800000
v -0.04400000 0.16166666 0.02500000
v -0.04480385 0.16166666 0.02200000
v -0.04700000 0.16166666 0.01980385
v -0.05000000 0.16166666 0.01900000
v -0.05300000 0.16166666 0.01980385
v -0.05519615 0.16166666 0.02200000
v -0.04750000 0.16166666 0.02933013
v -0.04566987 0.16166666 0.02750000
v -0.04500000 0.16166666 0.02500000
v -0.04566987 0.16166666 0.02250000
v -0.04750000 0.16166666 0.02066987
v -0.05000000 0.16166666 0.02000000
v -0.05250000 0.16166666 0.02066987
v -0.05433013 0.16166666 0.02250000
v -0.05500000 0.16166666 0.02500000
v -0.05433013 0.16166666 0.02750000
v -0.05250000 0.16166666 0.02933013
v -0.05000000 0.16166666 0.03000000
v -0.03250000 0.15500000 0.02066987
v -0.03433013 0.15500000 0.02250000
v -0.03000000 0.15500000 0.02500000
v -0.03500000 0.15500000 0.02500000
v -0.03433013 0.15500000 0.02750000
v -0.02566987 0.15500000 0.02250000
v -0.02750000 0.15500000 0.02066987
v -0.03000000 0.15500000 0.02000000
v -0.02750000 0.15500000 0.02933013
v -0.02566987 0.15500000 0.02750000
v -0.02500000 0.15500000 0.02500000
v -0.03250000 0.15500000 0.02933013
v -0.03000000 0.15500000 0.03000000
v -0.03900000 0.16473334 0.02500000
v -0.03779423 0.15500000 0.02950000
v -0.03779423 0.16473334 0.02950000
v -0.03450000 0.15500000 0.03279423
v -0.03450000 0.16473334 0.03279423
v -0.03000000 0.15500000 0.03400000
v -0.03000000 0.16473334 0.03400000
v -0.02550000 0.15500000 0.03279423
v -0.02550000 0.16473334 0.03279423
v -0.02220577 0.15500000 0.02950000
v -0.02220577 0.16473334 0.02950000
v -0.02100000 0.15500000 0.02500000
v -0.02100000 0.16473334 0.02500000
v -0.02220577 0.15500000 0.02050000
v -0.02220577 0.16473334 0.02050000
v -0.02550000 0.15500000 0.01720577
v -0.02550000 0.16473334 0.01720577
v -0.03000000 0.15500000 0.01600000
v -0.03000000 0.16473334 0.01600000
v -0.03450000 0.15500000 0.01720577
v -0.03450000 0.16473334 0.01720577
v -0.03779423 0.15500000 0.02050000
v -0.03779423 0.16473334 0.02050000
v -0.03900000 0.15500000 0.02500000
v -0.02243671 0.16500001 0.02936667
v -0.02563333 0.16500001 0.03256329
v -0.03000000 0.16500001 0.03373333
v -0.03436667 0.16500001 0.03256329
v -0.03756329 0.16500001 0.02936667
v -0.03873333 0.16500001 0.02500000
v -0.03756329 0.16500001 0.02063333
v -0.03436667 0.16500001 0.01743671
v -0.03000000 0.16500001 0.01626667
v -0.02563333 0.16500001 0.01743671
v -0.02243671 0.16500001 0.02063333
v -0.02126667 0.16500001 0.02500000
v -0.03416000 0.16500001 0.03220533
v -0.03000000 0.16500001 0.03332000
v -0.02584000 0.16500001 0.03220533
v -0.02279467 0.16500001 0.02916000
v -0.02168000 0.16500001 0.02500000
v -0.02279467 0.16500001 0.02084000
v -0.02584000 0.16500001 0.01779467
v -0.03000000 0.16500001 0.01668000
v -0.03416000 0.16500001 0.01779467
v -0.03720533 0.16500001 0.02084000
v -0.03832000 0.16500001 0.02500000
v -0.03720533 0.16500001 0.02916000
v -0.03692820 0.16468000 0.02900000
v -0.03400000 0.16468000 0.03192820
v -0.03000000 0.16468000 0.03300000
v -0.02600000 0.16468000 0.03192820
v -0.02307180 0.16468000 0.02900000
v -0.02200000 0.16468000 0.02500000
v -0.02307180 0.16468000 0.02100000
v -0.02600000 0.16468000 0.01807180
v -0.03000000 0.16468000 0.01700000
v -0.03400000 0.16468000 0.01807180
v -0.03692820 0.16468000 0.02100000
v -0.03800000 0.16468000 0.02500000
v -0.03800000 0.15600000 0.02500000
v -0.03692820 0.15600000 0.02900000
v -0.03400000 0.15600000 0.03192820
v -0.03000000 0.15600000 0.03300000
v -0.02600000 0.15600000 0.03192820
v -0.02307180 0.15600000 0.02900000
v -0.02200000 0.15600000 0.02500000
v -0.02307180 0.15600000 0.02100000
v -0.02600000 0.15600000 0.01807180
v -0.03000000 0.15600000 0.01700000
v -0.03400000 0.15600000 0.01807180
v -0.03692820 0.15600000 0.02100000
v -0.03519615 0.15600000 0.02800000
v -0.03300000 0.15600000 0.03019615
v -0.03000000 0.15600000 0.03100000
v -0.02700000 0.15600000 0.03019615
v -0.02480385 0.15600000 0.02800000
v -0.02400000 0.15600000 0.02500000
v -0.02480385 0.15600000 0.02200000
v -0.02700000 0.15600000 0.01980385
v -0.03000000 0.15600000 0.01900000
v -0.03300000 0.15600000 0.01980385
v -0.03519615 0.15600000 0.02200000
v -0.03600000 0.15600000 0.02500000
v -0.03600000 0.16166666 0.02500000
v -0.03519615 0.16166666 0.02800000
v -0.03300000 0.16166666 0.03019615
v -0.03000000 0.16166666 0.03100000
v -0.02700000 0.16166666 0.03019615
v -0.02480385 0.16166666 0.02800000
v -0.02400000 0.16166666 0.02500000
v -0.02480385 0.16166666 0.02200000
v -0.02700000 0.16166666 0.01980385
v -0.03000000 0.16166666 0.01900000
v -0.03300000 0.16166666 0.01980385
v -0.03519615 0.16166666 0.02200000
v -0.03433013 0.16166666 0.02750000
v -0.03250000 0.16166666 0.02933013
v -0.03000000 0.16166666 0.03000000
v -0.02750000 0.16166666 0.02933013
v -0.02566987 0.16166666 0.02750000
v -0.02500000 0.16166666 0.02500000
v -0.02566987 0.16166666 0.02250000
v -0.02750000 0.16166666 0.02066987
v -0.03000000 0.16166666 0.02000000
v -0.03250000 0.16166666 0.02066987
v -0.03433013 0.16166666 0.02250000
v -0.03500000 0.16166666 0.02500000
v -0.01250000 0.15500000 0.02066987
v -0.01433013 0.15500000 0.02250000
v -0.01000000 0.15500000 0.02500000
v -0.01500000 0.15500000 0.02500000
v -0.01433013 0.15500000 0.02750000
v -0.00566987 0.15500000 0.02250000
v -0.00750000 0.15500000 0.02066987
v -0.01000000 0.15500000 0.02000000
v -0.00750000 0.15500000 0.02933013
v -0.00566987 0.15500000 0.02750000
v -0.00500000 0.15500000 0.02500000
v -0.01250000 0.15500000 0.02933013
v -0.01000000 0.15500000 0.03000000
v -0.01900000 0.16473334 0.02500000
v -0.01779423 0.15500000 0.02950000
v -0.01779423 0.16473334 0.02950000
v -0.01450000 0.15500000 0.03279423
v -0.01450000 0.16473334 0.03279423
v -0.01000000 0.15500000 0.03400000
v -0.01000000 0.16473334 0.03400000
v -0.00550000 0.15500000 0.03279423
v -0.00550000 0.16473334 0.03279423
v -0.00220577 0.15500000 0.02950000
v -0.00220577 0.16473334 0.02950000
v -0.00100000 0.15500000 0.02500000
v -0.00100000 0.16473334 0.02500000
v -0.00220577 0.15500000 0.02050000
v -0.00220577 0.16473334 0.02050000
v -0.00550000 0.15500000 0.01720577
v -0.00550000 0.16473334 0.01720577
v -0.01000000 0.15500000 0.01600000
v -0.01000000 0.16473334 0.01600000
v -0.01450000 0.15500000 0.01720577
v -0.01450000 0.16473334 0.01720577
v -0.01779423 0.15500000 0.02050000
v -0.01779423 0.16473334 0.02050000
v -0.01900000 0.15500000 0.02500000
v -0.00243671 0.16500001 0.02936667
v -0.00563333 0.16500001 0.03256329
v -0.01000000 0.16500001 0.03373333
v -0.01436667 0.16500001 0.03256329
v -0.01756329 0.16500001 0.02936667
v -0.01873333 0.16500001 0.02500000
v -0.01756329 0.16500001 0.02063333
v -0.01436667 0.16500001 0.01743671
v -0.01000000 0.16500001 0.01626667
v -0.00563333 0.16500001 0.01743671
v -0.00243671 0.16500001 0.02063333
v -0.00126667 0.16500001 0.02500000
v -0.00168000 0.16500001 0.02500000
v -0.00279467 0.16500001 0.02084000
v -0.00584000 0.16500001 0.01779467
v -0.01000000 0.16500001 0.01668000
v -0.01416000 0.16500001 0.01779467
v -0.01720533 0.16500001 0.02084000
v -0.01832000 0.16500001 0.02500000
v -0.01720533 0.16500001 0.02916000
v -0.01416000 0.16500001 0.03220533
v -0.01000000 0.16500001 0.03332000
v -0.00584000 0.16500001 0.03220533
v -0.00279467 0.16500001 0.02916000
v -0.01692820 0.16468000 0.02900000
v -0.01400000 0.16468000 0.03192820
v -0.01000000 0.16468000 0.03300000
v -0.00600000 0.16468000 0.03192820
v -0.00307180 0.16468000 0.02900000
v -0.00200000 0.16468000 0.02500000
v -0.00307180 0.16468000 0.02100000
v -0.00600000 0.16468000 0.01807180
v -0.01000000 0.16468000 0.01700000
v -0.01400000 0.16468000 0.01807180
v -0.01692820 0.16468000 0.02100000
v -0.01800000 0.16468000 0.02500000
v -0.01800000 0.15600000 0.02500000
v -0.01692820 0.15600000 0.02900000
v -0.01400000 0.15600000 0.03192820
v -0.01000000 0.15600000 0.03300000
v -0.00600000 0.15600000 0.03192820
v -0.00307180 0.15600000 0.02900000
v -0.00200000 0.15600000 0.02500000
v -0.00307180 0.15600000 0.02100000
v -0.00600000 0.15600000 0.01807180
v -0.01000000 0.15600000 0.01700000
v -0.01400000 0.15600000 0.01807180
v -0.01692820 0.15600000 0.02100000
v -0.00400000 0.15600000 0.02500000
v -0.00480385 0.15600000 0.02200000
v -0.00700000 0.15600000 0.01980385
v -0.01000000 0.15600000 0.01900000
v -0.01300000 0.15600000 0.01980385
v -0.01519615 0.15600000 0.02200000
v -0.01600000 0.15600000 0.02500000
v -0.01519615 0.15600000 0.02800000
v -0.01300000 0.15600000 0.03019615
v -0.01000000 0.15600000 0.03100000
v -0.00700000 0.15600000 0.03019615
v -0.00480385 0.15600000 0.02800000
v -0.01600000 0.16166666 0.02500000
v -0.01519615 0.16166666 0.02800000
v -0.01300000 0.16166666 0.03019615
v -0.01000000 0.16166666 0.03100000
v -0.00700000 0.16166666 0.03019615
v -0.00480385 0.16166666 0.02800000
v -0.00400000 0.16166666 0.02500000
v -0.00480385 0.16166666 0.02200000
v -0.00700000 0.16166666 0.01980385
v -0.01000000 0.16166666 0.01900000
v -0.01300000 0.16166666 0.01980385
v -0.01519615 0.16166666 0.02200000
v -0.00566987 0.16166666 0.02250000
v -0.00750000 0.16166666 0.02066987
v -0.01000000 0.16166666 0.02000000
v -0.01250000 0.16166666 0.02066987
v -0.01433013 0.16166666 0.02250000
v -0.01500000 0.16166666 0.02500000
v -0.01433013 0.16166666 0.02750000
v -0.01250000 0.16166666 0.02933013
v -0.01000000 0.16166666 0.03000000
v -0.00750000 0.16166666 0.02933013
v -0.00566987 0.16166666 0.02750000
v -0.00500000 0.16166666 0.02500000
v 0.00750000 0.15500000 0.02066987
v 0.00566987 0.15500000 0.02250000
v 0.01000000 0.15500000 0.02500000
v 0.00500000 0.15500000 0.02500000
v 0.00566987 0.15500000 0.02750000
v 0.01433013 0.15500000 0.02250000
v 0.01250000 0.15500000 0.02066987
v 0.01000000 0.15500000 0.02000000
v 0.01250000 0.15500000 0.02933013
v 0.01433013 0.15500000 0.02750000
v 0.01500000 0.15500000 0.02500000
v 0.00750000 0.15500000 0.02933013
v 0.01000000 0.15500000 0.03000000
v 0.00100000 0.16473334 0.02500000
v 0.00220577 0.15500000 0.02950000
v 0.00220577 0.16473334 0.02950000
v 0.00550000 0.15500000 0.03279423
v 0.00550000 0.16473334 0.03279423
v 0.01000000 0.15500000 0.03400000
v 0.01000000 0.16473334 0.03400000
v 0.01450000 0.15500000 0.03279423
v 0.01450000 0.16473334 0.03279423
v 0.01779423 0.15500000 0.02950000
v 0.01779423 0.16473334 0.02950000
v 0.01900000 0.15500000 0.02500000
v 0.01900000 0.16473334 0.02500000
v 0.01779423 0.15500000 0.02050000
v 0.01779423 0.16473334 0.02050000
v 0.01450000 0.15500000 0.01720577
v 0.01450000 0.16473334 0.01720577
v 0.01000000 0.15500000 0.01600000
v 0.01000000 0.16473334 0.01600000
v 0.00550000 0.15500000 0.01720577
v 0.00550000 0.16473334 0.01720577
v 0.00220577 0.15500000 0.02050000
v 0.00220577 0.16473334 0.02050000
v 0.00100000 0.15500000 0.02500000
v 0.01756329 0.16500001 0.02936667
v 0.01436667 0.16500001 0.03256329
v 0.01000000 0.16500001 0.03373333
v 0.00563333 0.16500001 0.03256329
v 0.00243671 0.16500001 0.02936667
v 0.00126667 0.16500001 0.02500000
v 0.00243671 0.16500001 0.02063333
v 0.00563333 0.16500001 0.01743671
v 0.01000000 0.16500001 0.01626667
v 0.01436667 0.16500001 0.01743671
v 0.01756329 0.16500001 0.02063333
v 0.01873333 0.16500001 0.02500000
v 0.00584000 0.16500001 0.03220533
v 0.01000000 0.16500001 0.03332000
v 0.01416000 0.16500001 0.03220533
v 0.01720533 0.16500001 0.02916000
v 0.01832000 0.16500001 0.02500000
v 0.01720533 0.16500001 0.02084000
v 0.01416000 0.16500001 0.01779467
v 0.01000000 0.16500001 0.01668000
v 0.00584000 0.16500001 0.01779467
v 0.00279467 0.16500001 0.02084000
v 0.00168000 0.16500001 0.02500000
v 0.00279467 0.16500001 0.02916000
v 0.00307180 0.16468000 0.02900000
v 0.00600000 0.16468000 0.03192820
v 0.01000000 0.16468000 0.03300000
v 0.01400000 0.16468000 0.03192820
v 0.01692820 0.16468000 0.02900000
v 0.01800000 0.16468000 0.02500000
v 0.01692820 0.16468000 0.02100000
v 0.01400000 0.16468000 0.01807180
v 0.01000000 0.16468000 0.01700000
v 0.00600000 0.16468000 0.01807180
v 0.00307180 0.16468000 0.02100000
v 0.00200000 0.16468000 0.02500000
v 0.00200000 0.15600000 0.02500000
v 0.00307180 0.15600000 0.02900000
v 0.00600000 0.15600000 0.03192820
v 0.01000000 0.15600000 0.03300000
v 0.01400000 0.15600000 0.03192820
v 0.01692820 0.15600000 0.02900000
v 0.01800000 0.15600000 0.02500000
v 0.01692820 0.15600000 0.02100000
v 0.01400000 0.15600000 0.01807180
v 0.01000000 0.15600000 0.01700000
v 0.00600000 0.15600000 0.01807180
v 0.00307180 0.15600000 0.02100000
v 0.01600000 0.15600000 0.02500000
v 0.01519615 0.15600000 0.02200000
v 0.01300000 0.15600000 0.01980385
v 0.01000000 0.15600000 0.01900000
v 0.00700000 0.15600000 0.01980385
v 0.00480385 0.15600000 0.02200000
v 0.00400000 0.15600000 0.02500000
v 0.00480385 0.15600000 0.02800000
v 0.00700000 0.15600000 0.03019615
v 0.01000000 0.15600000 0.03100000
v 0.01300000 0.15600000 0.03019615
v 0.01519615 0.15600000 0.02800000
v 0.00400000 0.16166666 0.02500000
v 0.00480385 0.16166666 0.02800000
v 0.00700000 0.16166666 0.03019615
v 0.01000000 0.16166666 0.03100000
v 0.01300000 0.16166666 0.03019615
v 0.01519615 0.16166666 0.02800000
v 0.01600000 0.16166666 0.02500000
v 0.01519615 0.16166666 0.02200000
v 0.01300000 0.16166666 0.01980385
v 0.01000000 0.16166666 0.01900000
v 0.00700000 0.16166666 0.01980385
v 0.00480385 0.16166666 0.02200000
v 0.01500000 0.16166666 0.02500000
v 0.01433013 0.16166666 0.02250000
v 0.01250000 0.16166666 0.02066987
v 0.01000000 0.16166666 0.02000000
v 0.00750000 0.16166666 0.02066987
v 0.00566987 0.16166666 0.02250000
v 0.00500000 0.16166666 0.02500000
v 0.00566987 0.16166666 0.02750000
v 0.00750000 0.16166666 0.02933013
v 0.01000000 0.16166666 0.03000000
v 0.01250000 0.16166666 0.02933013
v 0.01433013 0.16166666 0.02750000
v 0.02750000 0.15500000 0.02066987
v 0.02566987 0.15500000 0.02250000
v 0.03000000 0.15500000 0.02500000
v 0.02500000 0.15500000 0.02500000
v 0.02566987 0.15500000 0.02750000
v 0.03433013 0.15500000 0.02250000
v 0.03250000 0.15500000 0.02066987
v 0.03000000 0.15500000 0.02000000
v 0.03250000 0.15500000 0.02933013
v 0.03433013 0.15500000 0.02750000
v 0.03500000 0.15500000 0.02500000
v 0.02750000 0.15500000 0.02933013
v 0.03000000 0.15500000 0.03000000
v 0.02100000 0.16473334 0.02500000
v 0.02220577 0.15500000 0.02950000
v 0.02220577 0.16473334 0.02950000
v 0.02550000 0.15500000 0.03279423
v 0.02550000 0.16473334 0.03279423
v 0.03000000 0.15500000 0.03400000
v 0.03000000 0.16473334 0.03400000
v 0.03450000 0.15500000 0.03279423
v 0.03450000 0.16473334 0.03279423
v 0.03779423 0.15500000 0.02950000
v 0.03779423 0.16473334 0.02950000
v 0.03900000 0.15500000 0.02500000
v 0.03900000 0.16473334 0.02500000
v 0.03779423 0.15500000 0.02050000
v 0.03779423 0.16473334 0.02050000
v 0.03450000 0.15500000 0.01720577
v 0.03450000 0.16473334 0.01720577
v 0.03000000 0.15500000 0.01600000
v 0.03000000 0.16473334 0.01600000
v 0.02550000 0.15500000 0.01720577
v 0.02550000 0.16473334 0.01720577
v 0.02220577 0.15500000 0.02050000
v 0.02220577 0.16473334 0.02050000
v 0.02100000 0.15500000 0.02500000
v 0.03756329 0.16500001 0.02936667
v 0.03436667 0.16500001 0.03256329
v 0.03000000 0.16500001 0.03373333
v 0.02563333 0.16500001 0.03256329
v 0.02243671 0.16500001 0.02936667
v 0.02126667 0.16500001 0.02500000
v 0.02243671 0.16500001 0.02063333
v 0.02563333 0.16500001 0.01743671
v 0.03000000 0.16500001 0.01626667
v 0.03436667 0.16500001 0.01743671
v 0.03756329 0.16500001 0.02063333
v 0.03873333 0.16500001 0.02500000
v 0.03000000 0.16500001 0.01668000
v 0.02584000 0.16500001 0.01779467
v 0.02279467 0.16500001 0.02084000
v 0.02168000 0.16500001 0.02500000
v 0.02279467 0.16500001 0.02916000
v 0.02584000 0.16500001 0.03220533
v 0.03000000 0.16500001 0.03332000
v 0.03416000 0.16500001 0.03220533
v 0.03720533 0.16500001 0.02916000
v 0.03832000 0.16500001 0.02500000
v 0.03720533 0.16500001 0.02084000
v 0.03416000 0.16500001 0.01779467
v 0.02307180 0.16468000 0.02900000
v 0.02600000 0.16468000 0.03192820
v 0.03000000 0.16468000 0.03300000
v 0.03400000 0.16468000 0.03192820
v 0.03692820 0.16468000 0.02900000
v 0.03800000 0.16468000 0.02500000
v 0.03692820 0.16468000 0.02100000
v 0.03400000 0.16468000 0.01807180
v 0.03000000 0.16468000 0.01700000
v 0.02600000 0.16468000 0.01807180
v 0.02307180 0.16468000 0.02100000
v 0.02200000 0.16468000 0.02500000
v 0.02200000 0.15600000 0.02500000
v 0.02307180 0.15600000 0.02900000
v 0.02600000 0.15600000 0.03192820
v 0.03000000 0.15600000 0.03300000
v 0.03400000 0.15600000 0.03192820
v 0.03692820 0.15600000 0.02900000
v 0.03800000 0.15600000 0.02500000
v 0.03692820 0.15600000 0.02100000
v 0.03400000 0.15600000 0.01807180
v 0.03000000 0.15600000 0.01700000
v 0.02600000 0.15600000 0.01807180
v 0.02307180 0.15600000 0.02100000
v 0.03000000 0.15600000 0.03100000
v 0.03300000 0.15600000 0.03019615
v 0.03519615 0.15600000 0.02800000
v 0.03600000 0.15600000 0.02500000
v 0.03519615 0.15600000 0.02200000
v 0.03300000 0.15600000 0.01980385
v 0.03000000 0.15600000 0.01900000
v 0.02700000 0.15600000 0.01980385
v 0.02480385 0.15600000 0.02200000
v 0.02400000 0.15600000 0.02500000
v 0.02480385 0.15600000 0.02800000
v 0.02700000 0.15600000 0.03019615
v 0.02400000 0.16166666 0.02500000
v 0.02480385 0.16166666 0.02800000
v 0.02700000 0.16166666 0.03019615
v 0.03000000 0.16166666 0.03100000
v 0.03300000 0.16166666 0.03019615
v 0.03519615 0.16166666 0.02800000
v 0.03600000 0.16166666 0.02500000
v 0.03519615 0.16166666 0.02200000
v 0.03300000 0.16166666 0.01980385
v 0.03000000 0.16166666 0.01900000
v 0.02700000 0.16166666 0.01980385
v 0.02480385 0.16166666 0.02200000
v 0.03250000 0.16166666 0.02933013
v 0.03433013 0.16166666 0.02750000
v 0.03500000 0.16166666 0.02500000
v 0.03433013 0.16166666 0.02250000
v 0.03250000 0.16166666 0.02066987
v 0.03000000 0.16166666 0.02000000
v 0.02750000 0.16166666 0.02066987
v 0.02566987 0.16166666 0.02250000
v 0.02500000 0.16166666 0.02500000
v 0.02566987 0.16166666 0.02750000
v 0.02750000 0.16166666 0.02933013
v 0.03000000 0.16166666 0.03000000
v 0.04750000 0.15500000 0.02066987
v 0.04566987 0.15500000 0.02250000
v 0.05000000 0.15500000 0.02500000
v 0.04500000 0.15500000 0.02500000
v 0.04566987 0.15500000 0.02750000
v 0.05433013 0.15500000 0.02250000
v 0.05250000 0.15500000 0.02066987
v 0.05000000 0.15500000 0.02000000
v 0.05250000 0.15500000 0.02933013
v 0.05433013 0.15500000 0.02750000
v 0.05500000 0.15500000 0.02500000
v 0.04750000 0.15500000 0.02933013
v 0.05000000 0.15500000 0.03000000
v 0.04100000 0.16473334 0.02500000
v 0.04220577 0.15500000 0.02950000
v 0.04220577 0.16473334 0.02950000
v 0.04550000 0.15500000 0.03279423
v 0.04550000 0.16473334 0.03279423
v 0.05000000 0.15500000 0.03400000
v 0.05000000 0.16473334 0.03400000
v 0.05450000 0.15500000 0.03279423
v 0.05450000 0.16473334 0.03279423
v 0.05779423 0.15500000 0.02950000
v 0.05779423 0.16473334 0.02950000
v 0.05900000 0.15500000 0.02500000
v 0.05900000 0.16473334 0.02500000
v 0.05779423 0.15500000 0.02050000
v 0.05779423 0.16473334 0.02050000
v 0.05450000 0.15500000 0.01720577
v 0.05450000 0.16473334 0.01720577
v 0.05000000 0.15500000 0.01600000
v 0.05000000 0.16473334 0.01600000
v 0.04550000 0.15500000 0.01720577
v 0.04550000 0.16473334 0.01720577
v 0.04220577 0.15500000 0.02050000
v 0.04220577 0.16473334 0.02050000
v 0.04100000 0.15500000 0.02500000
v 0.05756329 0.16500001 0.02936667
v 0.05436667 0.16500001 0.03256329
v 0.05000000 0.16500001 0.03373333
v 0.04563333 0.16500001 0.03256329
v 0.04243671 0.16500001 0.02936667
v 0.04126666 0.16500001 0.02500000
v 0.04243671 0.16500001 0.02063333
v 0.04563333 0.16500001 0.01743671
v 0.05000000 0.16500001 0.01626667
v 0.05436667 0.16500001 0.01743671
v 0.05756329 0.16500001 0.02063333
v 0.05873333 0.16500001 0.02500000
v 0.04584000 0.16500001 0.03220533
v 0.05000000 0.16500001 0.03332000
v 0.05416000 0.16500001 0.03220533
v 0.05720533 0.16500001 0.02916000
v 0.05832000 0.16500001 0.02500000
v 0.05720533 0.16500001 0.02084000
v 0.05416000 0.16500001 0.01779467
v 0.05000000 0.16500001 0.01668000
v 0.04584000 0.16500001 0.01779467
v 0.04279467 0.16500001 0.02084000
v 0.04168000 0.16500001 0.02500000
v 0.04279467 0.16500001 0.02916000
v 0.04307180 0.16468000 0.02900000
v 0.04600000 0.16468000 0.03192820
v 0.05000000 0.16468000 0.03300000
v 0.05400000 0.16468000 0.03192820
v 0.05692820 0.16468000 0.02900000
v 0.05800000 0.16468000 0.02500000
v 0.05692820 0.16468000 0.02100000
v 0.05400000 0.16468000 0.01807180
v 0.05000000 0.16468000 0.01700000
v 0.04600000 0.16468000 0.01807180
v 0.04307180 0.16468000 0.02100000
v 0.04200000 0.16468000 0.02500000
v 0.04200000 0.15600000 0.02500000
v 0.04307180 0.15600000 0.02900000
v 0.04600000 0.15600000 0.03192820
v 0.05000000 0.15600000 0.03300000
v 0.05400000 0.15600000 0.03192820
v 0.05692820 0.15600000 0.02900000
v 0.05800000 0.15600000 0.02500000
v 0.05692820 0.15600000 0.02100000
v 0.05400000 0.15600000 0.01807180
v 0.05000000 0.15600000 0.01700000
v 0.04600000 0.15600000 0.01807180
v 0.04307180 0.15600000 0.02100000
v 0.05600000 0.15600000 0.02500000
v 0.05519615 0.15600000 0.02200000
v 0.05300000 0.15600000 0.01980385
v 0.05000000 0.15600000 0.01900000
v 0.04700000 0.15600000 0.01980385
v 0.04480385 0.15600000 0.02200000
v 0.04400000 0.15600000 0.02500000
v 0.04480385 0.15600000 0.02800000
v 0.04700000 0.15600000 0.03019615
v 0.05000000 0.15600000 0.03100000
v 0.05300000 0.15600000 0.03019615
v 0.05519615 0.15600000 0.02800000
v 0.04400000 0.16166666 0.02500000
v 0.04480385 0.16166666 0.02800000
v 0.04700000 0.16166666 0.03019615
v 0.05000000 0.16166666 0.03100000
v 0.05300000 0.16166666 0.03019615
v 0.05519615 0.16166666 0.02800000
v 0.05600000 0.16166666 0.02500000
v 0.05519615 0.16166666 0.02200000
v 0.05300000 0.16166666 0.01980385
v 0.05000000 0.16166666 0.01900000
v 0.04700000 0.16166666 0.01980385
v 0.04480385 0.16166666 0.02200000
v 0.05250000 0.16166666 0.02933013
v 0.05433013 0.16166666 0.02750000
v 0.05500000 0.16166666 0.02500000
v 0.05433013 0.16166666 0.02250000
v 0.05250000 0.16166666 0.02066987
v 0.05000000 0.16166666 0.02000000
v 0.04750000 0.16166666 0.02066987
v 0.04566987 0.16166666 0.02250000
v 0.04500000 0.16166666 0.02500000
v 0.04566987 0.16166666 0.02750000
v 0.04750000 0.16166666 0.02933013
v 0.05000000 0.16166666 0.03000000
v -0.06150000 -0.17260000 0.00500000
v -0.06150000 -0.17260000 0.00000000
v -0.06280000 -0.17225167 0.00500000
v -0.06280000 -0.17225167 0.00000000
v -0.06375167 -0.17129999 0.00500000
v -0.06375167 -0.17129999 0.00000000
v -0.06410000 -0.17000000 0.00500000
v -0.06410000 -0.17000000 0.00000000
v -0.06375167 -0.16869999 0.00500000
v -0.06375167 -0.16869999 0.00000000
v -0.06280000 -0.16774833 0.00500000
v -0.06280000 -0.16774833 0.00000000
v -0.06150000 -0.16740000 0.00500000
v -0.06150000 -0.16740000 0.00000000
v -0.05653974 -0.16740000 0.00500000
v -0.05653974 -0.16740000 0.00000000
v -0.05497034 -0.16628005 0.00500000
v -0.05497034 -0.16628005 0.00000000
v -0.05305933 -0.16602434 0.00500000
v -0.05305933 -0.16602434 0.00000000
v -0.05125071 -0.16669233 0.00500000
v -0.05125071 -0.16669233 0.00000000
v -0.04996467 -0.16812879 0.00500000
v -0.04996467 -0.16812879 0.00000000
v -0.04950000 -0.17000000 0.00500000
v -0.04950000 -0.17000000 0.00000000
v -0.04996467 -0.17187120 0.00500000
v -0.04996467 -0.17187120 0.00000000
v -0.05125071 -0.17330767 0.00500000
v -0.05125071 -0.17330767 0.00000000
v -0.05305933 -0.17397565 0.00500000
v -0.05305933 -0.17397565 0.00000000
v -0.05497034 -0.17371996 0.00500000
v -0.05497034 -0.17371996 0.00000000
v -0.05653974 -0.17260000 0.00500000
v -0.05653974 -0.17260000 0.00000000
v 0.01350000 -0.17260000 0.00500000
v 0.01350000 -0.17260000 0.00000000
v 0.01220000 -0.17225167 0.00500000
v 0.01220000 -0.17225167 0.00000000
v 0.01124833 -0.17129999 0.00500000
v 0.01124833 -0.17129999 0.00000000
v 0.01090000 -0.17000000 0.00500000
v 0.01090000 -0.17000000 0.00000000
v 0.01124833 -0.16869999 0.00500000
v 0.01124833 -0.16869999 0.00000000
v 0.01220000 -0.16774833 0.00500000
v 0.01220000 -0.16774833 0.00000000
v 0.01350000 -0.16740000 0.00500000
v 0.01350000 -0.16740000 0.00000000
v 0.01846026 -0.16740000 0.00500000
v 0.01846026 -0.16740000 0.00000000
v 0.02002966 -0.16628005 0.00500000
v 0.02002966 -0.16628005 0.00000000
v 0.02194067 -0.16602434 0.00500000
v 0.02194067 -0.16602434 0.00000000
v 0.02374929 -0.16669233 0.00500000
v 0.02374929 -0.16669233 0.00000000
v 0.02503533 -0.16812879 0.00500000
v 0.02503533 -0.16812879 0.00000000
v 0.02550000 -0.17000000 0.00500000
v 0.02550000 -0.17000000 0.00000000
v 0.02503533 -0.17187120 0.00500000
v 0.02503533 -0.17187120 0.00000000
v 0.02374929 -0.17330767 0.00500000
v 0.02374929 -0.17330767 0.00000000
v 0.02194067 -0.17397565 0.00500000
v 0.02194067 -0.17397565 0.00000000
v 0.02002966 -0.17371996 0.00500000
v 0.02002966 -0.17371996 0.00000000
v 0.01846026 -0.17260000 0.00500000
v 0.01846026 -0.17260000 0.00000000
v -0.02450000 -0.17260000 0.00500000
v -0.02450000 -0.17260000 0.00000000
v -0.02580000 -0.17225167 0.00500000
v -0.02580000 -0.17225167 0.00000000
v -0.02675167 -0.17129999 0.00500000
v -0.02675167 -0.17129999 0.00000000
v -0.02710000 -0.17000000 0.00500000
v -0.02710000 -0.17000000 0.00000000
v -0.02675167 -0.16869999 0.00500000
v -0.02675167 -0.16869999 0.00000000
v -0.02580000 -0.16774833 0.00500000
v -0.02580000 -0.16774833 0.00000000
v -0.02450000 -0.16740000 0.00500000
v -0.02450000 -0.16740000 0.00000000
v -0.01953974 -0.16740000 0.00500000
v -0.01953974 -0.16740000 0.00000000
v -0.01797034 -0.16628005 0.00500000
v -0.01797034 -0.16628005 0.00000000
v -0.01605933 -0.16602434 0.00500000
v -0.01605933 -0.16602434 0.00000000
v -0.01425071 -0.16669233 0.00500000
v -0.01425071 -0.16669233 0.00000000
v -0.01296467 -0.16812879 0.00500000
v -0.01296467 -0.16812879 0.00000000
v -0.01250000 -0.17000000 0.00500000
v -0.01250000 -0.17000000 0.00000000
v -0.01296467 -0.17187120 0.00500000
v -0.01296467 -0.17187120 0.00000000
v -0.01425071 -0.17330767 0.00500000
v -0.01425071 -0.17330767 0.00000000
v -0.01605933 -0.17397565 0.00500000
v -0.01605933 -0.17397565 0.00000000
v -0.01797034 -0.17371996 0.00500000
v -0.01797034 -0.17371996 0.00000000
v -0.01953974 -0.17260000 0.00500000
v -0.01953974 -0.17260000 0.00000000
v 0.05050000 -0.17260000 0.00500000
v 0.05050000 -0.17260000 0.00000000
v 0.04920000 -0.17225167 0.00500000
v 0.04920000 -0.17225167 0.00000000
v 0.04824834 -0.17129999 0.00500000
v 0.04824834 -0.17129999 0.00000000
v 0.04790000 -0.17000000 0.00500000
v 0.04790000 -0.17000000 0.00000000
v 0.04824834 -0.16869999 0.00500000
v 0.04824834 -0.16869999 0.00000000
v 0.04920000 -0.16774833 0.00500000
v 0.04920000 -0.16774833 0.00000000
v 0.05050000 -0.16740000 0.00500000
v 0.05050000 -0.16740000 0.00000000
v 0.05546026 -0.16740000 0.00500000
v 0.05546026 -0.16740000 0.00000000
v 0.05702966 -0.16628005 0.00500000
v 0.05702966 -0.16628005 0.00000000
v 0.05894067 -0.16602434 0.00500000
v 0.05894067 -0.16602434 0.00000000
v 0.06074930 -0.16669233 0.00500000
v 0.06074930 -0.16669233 0.00000000
v 0.06203533 -0.16812879 0.00500000
v 0.06203533 -0.16812879 0.00000000
v 0.06250000 -0.17000000 0.00500000
v 0.06250000 -0.17000000 0.00000000
v 0.06203533 -0.17187120 0.00500000
v 0.06203533 -0.17187120 0.00000000
v 0.06074930 -0.17330767 0.00500000
v 0.06074930 -0.17330767 0.00000000
v 0.05894067 -0.17397565 0.00500000
v 0.05894067 -0.17397565 0.00000000
v 0.05702966 -0.17371996 0.00500000
v 0.05702966 -0.17371996 0.00000000
v 0.05546026 -0.17260000 0.00500000
v 0.05546026 -0.17260000 0.00000000
v -0.06150000 0.16740000 0.00500000
v -0.06150000 0.16740000 0.00000000
v -0.06280000 0.16774833 0.00500000
v -0.06280000 0.16774833 0.00000000
v -0.06375167 0.16869999 0.00500000
v -0.06375167 0.16869999 0.00000000
v -0.06410000 0.17000000 0.00500000
v -0.06410000 0.17000000 0.00000000
v -0.06375167 0.17129999 0.00500000
v -0.06375167 0.17129999 0.00000000
v -0.06280000 0.17225167 0.00500000
v -0.06280000 0.17225167 0.00000000
v -0.06150000 0.17260000 0.00500000
v -0.06150000 0.17260000 0.00000000
v -0.05653974 0.17260000 0.00500000
v -0.05653974 0.17260000 0.00000000
v -0.05497034 0.17371996 0.00500000
v -0.05497034 0.17371996 0.00000000
v -0.05305933 0.17397565 0.00500000
v -0.05305933 0.17397565 0.00000000
v -0.05125071 0.17330767 0.00500000
v -0.05125071 0.17330767 0.00000000
v -0.04996467 0.17187120 0.00500000
v -0.04996467 0.17187120 0.00000000
v -0.04950000 0.17000000 0.00500000
v -0.04950000 0.17000000 0.00000000
v -0.04996467 0.16812879 0.00500000
v -0.04996467 0.16812879 0.00000000
v -0.05125071 0.16669233 0.00500000
v -0.05125071 0.16669233 0.00000000
v -0.05305933 0.16602434 0.00500000
v -0.05305933 0.16602434 0.00000000
v -0.05497034 0.16628005 0.00500000
v -0.05497034 0.16628005 0.00000000
v -0.05653974 0.16740000 0.00500000
v -0.05653974 0.16740000 0.00000000
v 0.01350000 0.16740000 0.00500000
v 0.01350000 0.16740000 0.00000000
v 0.01220000 0.16774833 0.00500000
v 0.01220000 0.16774833 0.00000000
v 0.01124833 0.16869999 0.00500000
v 0.01124833 0.16869999 0.00000000
v 0.01090000 0.17000000 0.00500000
v 0.01090000 0.17000000 0.00000000
v 0.01124833 0.17129999 0.00500000
v 0.01124833 0.17129999 0.00000000
v 0.01220000 0.17225167 0.00500000
v 0.01220000 0.17225167 0.00000000
v 0.01350000 0.17260000 0.00500000
v 0.01350000 0.17260000 0.00000000
v 0.01846026 0.17260000 0.00500000
v 0.01846026 0.17260000 0.00000000
v 0.02002966 0.17371996 0.00500000
v 0.02002966 0.17371996 0.00000000
v 0.02194067 0.17397565 0.00500000
v 0.02194067 0.17397565 0.00000000
v 0.02374929 0.17330767 0.00500000
v 0.02374929 0.17330767 0.00000000
v 0.02503533 0.17187120 0.00500000
v 0.02503533 0.17187120 0.00000000
v 0.02550000 0.17000000 0.00500000
v 0.02550000 0.17000000 0.00000000
v 0.02503533 0.16812879 0.00500000
v 0.02503533 0.16812879 0.00000000
v 0.02374929 0.16669233 0.00500000
v 0.02374929 0.16669233 0.00000000
v 0.02194067 0.16602434 0.00500000
v 0.02194067 0.16602434 0.00000000
v 0.02002966 0.16628005 0.00500000
v 0.02002966 0.16628005 0.00000000
v 0.01846026 0.16740000 0.00500000
v 0.01846026 0.16740000 0.00000000
v -0.02450000 0.16740000 0.00500000
v -0.02450000 0.16740000 0.00000000
v -0.02580000 0.16774833 0.00500000
v -0.02580000 0.16774833 0.00000000
v -0.02675167 0.16869999 0.00500000
v -0.02675167 0.16869999 0.00000000
v -0.02710000 0.17000000 0.00500000
v -0.02710000 0.17000000 0.00000000
v -0.02675167 0.17129999 0.00500000
v -0.02675167 0.17129999 0.00000000
v -0.02580000 0.17225167 0.00500000
v -0.02580000 0.17225167 0.00000000
v -0.02450000 0.17260000 0.00500000
v -0.02450000 0.17260000 0.00000000
v -0.01953974 0.17260000 0.00500000
v -0.01953974 0.17260000 0.00000000
v -0.01797034 0.17371996 0.00500000
v -0.01797034 0.17371996 0.00000000
v -0.01605933 0.17397565 0.00500000
v -0.01605933 0.17397565 0.00000000
v -0.01425071 0.17330767 0.00500000
v -0.01425071 0.17330767 0.00000000
v -0.01296467 0.17187120 0.00500000
v -0.01296467 0.17187120 0.00000000
v -0.01250000 0.17000000 0.00500000
v -0.01250000 0.17000000 0.00000000
v -0.01296467 0.16812879 0.00500000
v -0.01296467 0.16812879 0.00000000
v -0.01425071 0.16669233 0.00500000
v -0.01425071 0.16669233 0.00000000
v -0.01605933 0.16602434 0.00500000
v -0.01605933 0.16602434 0.00000000
v -0.01797034 0.16628005 0.00500000
v -0.01797034 0.16628005 0.00000000
v -0.01953974 0.16740000 0.00500000
v -0.01953974 0.16740000 0.00000000
v 0.05050000 0.16740000 0.00500000
v 0.05050000 0.16740000 0.00000000
v 0.04920000 0.16774833 0.00500000
v 0.04920000 0.16774833 0.00000000
v 0.04824834 0.16869999 0.00500000
v 0.04824834 0.16869999 0.00000000
v 0.04790000 0.17000000 0.00500000
v 0.04790000 0.17000000 0.00000000
v 0.04824834 0.17129999 0.00500000
v 0.04824834 0.17129999 0.00000000
v 0.04920000 0.17225167 0.00500000
v 0.04920000 0.17225167 0.00000000
v 0.05050000 0.17260000 0.00500000
v 0.05050000 0.17260000 0.00000000
v 0.05546026 0.17260000 0.00500000
v 0.05546026 0.17260000 0.00000000
v 0.05702966 0.17371996 0.00500000
v 0.05702966 0.17371996 0.00000000
v 0.05894067 0.17397565 0.00500000
v 0.05894067 0.17397565 0.00000000
v 0.06074930 0.17330767 0.00500000
v 0.06074930 0.17330767 0.00000000
v 0.06203533 0.17187120 0.00500000
v 0.06203533 0.17187120 0.00000000
v 0.06250000 0.17000000 0.00500000
v 0.06250000 0.17000000 0.00000000
v 0.06203533 0.16812879 0.00500000
v 0.06203533 0.16812879 0.00000000
v 0.06074930 0.16669233 0.00500000
v 0.06074930 0.16669233 0.00000000
v 0.05894067 0.16602434 0.00500000
v 0.05894067 0.16602434 0.00000000
v 0.05702966 0.16628005 0.00500000
v 0.05702966 0.16628005 0.00000000
v 0.05546026 0.16740000 0.00500000
v 0.05546026 0.16740000 0.00000000
v -0.06291430 -0.15949379 0.08496388
v -0.06353066 -0.15959865 0.08476675
v -0.06444931 -0.15980622 0.08423648
v 0.06225699 -0.15942867 0.08506015
v 0.04869384 -0.15884522 0.08581375
v 0.06381424 -0.15965691 0.08463685
v 0.06512816 -0.15995468 0.08357079
v -0.06551039 -0.16000000 0.08300000
v 0.06551039 -0.16000000 0.08300000
v 0.02448183 -0.15752178 0.08670028
v -0.03498051 -0.15813257 0.08638799
v -0.04770644 -0.15879756 0.08586140
v -0.06225699 -0.15942867 0.08506015
v -0.00000000 -0.15600000 0.08700000
v -0.01001978 -0.15663041 0.08694980
v -0.02158165 -0.15734577 0.08676709
v 0.04000000 0.15500000 0.04700000
v 0.02000000 0.15500000 0.04700000
v 0.00000000 0.15500000 0.04700000
v -0.02000000 0.15500000 0.04700000
v -0.04000000 0.15500000 0.04700000
v -0.06450000 0.15500000 0.04700000
v 0.02000000 0.15500000 0.00500000
v 0.00000000 0.15500000 0.00500000
v 0.00000000 0.15500000 0.01050000
v 0.04000000 0.15500000 0.00500000
v 0.04000000 0.15500000 0.01050000
v 0.07000000 0.15500000 0.00500000
v 0.06971176 0.15500000 0.01050000
v -0.07000000 0.15500000 0.00500000
v -0.06971176 0.15500000 0.01050000
v -0.06450000 0.15500000 0.00500000
v -0.06450000 0.15500000 0.01050000
v -0.04000000 0.15500000 0.01050000
v -0.02000000 0.15500000 0.01050000
v 0.02000000 0.15500000 0.01050000
v -0.04000000 0.15500000 0.00500000
v -0.02000000 0.15500000 0.00500000
v -0.06500000 0.18000001 0.00500000
v 0.06500000 0.18000001 0.00500000
v -0.07000000 0.17500000 0.00500000
v 0.07000000 0.17500000 0.00500000
v 0.06750000 0.17933013 0.00500000
v 0.06933013 0.17749999 0.00500000
v -0.06933013 0.17749999 0.00500000
v -0.06750000 0.17933013 0.00500000
v -0.06500000 0.18000001 0.00000000
v -0.06750000 0.17933013 0.00000000
v -0.06933013 0.17749999 0.00000000
v -0.07000000 0.17500000 0.00000000
v 0.07000000 0.17500000 0.00000000
v 0.06933013 0.17749999 0.00000000
v 0.06750000 0.17933013 0.00000000
v 0.06500000 0.18000001 0.00000000
v -0.07000000 -0.17500000 0.00500000
v -0.07000000 -0.17500000 0.00000000
v -0.06933013 -0.17749999 0.00000000
v -0.06933013 -0.17749999 0.00500000
v -0.06750000 -0.17933013 0.00000000
v -0.06750000 -0.17933013 0.00500000
v -0.06500000 -0.18000001 0.00000000
v -0.06500000 -0.18000001 0.00500000
v 0.06500000 -0.18000001 0.00500000
v 0.06500000 -0.18000001 0.00000000
v 0.06750000 -0.17933013 0.00000000
v 0.06750000 -0.17933013 0.00500000
v 0.06933013 -0.17749999 0.00000000
v 0.06933013 -0.17749999 0.00500000
v 0.07000000 -0.17500000 0.00000000
v 0.07000000 -0.17500000 0.00500000
v 0.06600248 -0.16000000 0.08127726
v 0.06572263 -0.16000000 0.08255156
v -0.06572263 -0.16000000 0.08255156
v -0.06600248 -0.16000000 0.08127726
v -0.03830000 0.18000001 0.00000000
v -0.00080000 0.18000001 0.00000000
v 0.03670000 -0.17700000 0.00000000
v 0.06625000 -0.17700000 0.00000000
v 0.06625000 0.00000000 0.00000000
v 0.07000000 0.00000000 0.00000000
v 0.03670000 0.18000001 0.00000000
v 0.03670000 0.00000000 0.00000000
v -0.07000000 0.00000000 0.00000000
v -0.03830000 0.00000000 0.00000000
v -0.03830000 -0.17700000 0.00000000
v -0.03830000 -0.18000001 0.00000000
v -0.00080000 0.00000000 0.00000000
v -0.00080000 -0.17700000 0.00000000
v -0.00080000 -0.18000001 0.00000000
v 0.03670000 -0.18000001 0.00000000
v -0.07000000 -0.16000000 0.00500000
v 0.07000000 -0.16000000 0.00500000
f 1 2 3
f 4 5 6
f 6 5 7
f 6 7 8
f 8 7 9
f 8 9 10
f 10 9 11
f 12 13 11
f 11 13 14
f 11 14 10
f 15 16 12
f 12 16 17
f 12 17 13
f 3 18 1
f 1 18 19
f 1 19 15
f 15 19 20
f 15 20 16
f 21 22 23
f 23 22 3
f 23 3 24
f 24 3 2
f 6 25 4
f 4 25 26
f 4 26 27
f 27 26 28
f 27 28 29
f 29 28 30
f 31 32 33
f 33 32 34
f 33 34 35
f 34 36 35
f 35 36 37
f 35 37 30
f 30 37 38
f 30 38 29
f 39 40 41
f 41 40 42
f 42 43 41
f 41 43 44
f 41 44 45
f 45 44 46
f 45 46 47
f 47 46 48
f 49 50 48
f 48 50 51
f 48 51 47
f 31 52 32
f 32 52 53
f 32 53 49
f 49 53 54
f 49 54 50
f 55 56 23
f 23 56 21
f 55 23 24
f 5 57 7
f 7 57 58
f 7 58 9
f 9 58 59
f 9 59 11
f 60 15 59
f 59 15 12
f 59 12 11
f 55 24 61
f 61 24 2
f 61 2 60
f 60 2 1
f 60 1 15
f 62 37 36
f 62 36 63
f 42 64 43
f 43 64 65
f 43 65 44
f 44 65 66
f 67 48 66
f 66 48 46
f 66 46 44
f 36 34 63
f 63 34 32
f 63 32 67
f 67 32 49
f 67 49 48
f 68 64 40
f 40 64 42
f 69 70 71
f 71 72 69
f 69 72 73
f 69 73 74
f 74 73 75
f 74 75 76
f 77 78 79
f 79 78 80
f 79 80 81
f 81 80 76
f 81 76 82
f 82 76 75
f 68 83 82
f 75 84 82
f 82 84 56
f 82 56 68
f 68 56 57
f 68 57 62
f 61 60 59
f 56 55 57
f 57 55 61
f 57 61 58
f 58 61 59
f 67 66 63
f 63 66 65
f 63 65 62
f 62 65 64
f 62 64 68
f 85 41 45
f 86 87 88
f 51 89 90
f 90 91 51
f 51 91 92
f 51 92 47
f 47 92 86
f 47 86 45
f 45 86 88
f 45 88 85
f 89 51 93
f 93 51 50
f 93 50 94
f 94 50 54
f 94 54 95
f 33 35 96
f 96 35 97
f 54 53 95
f 95 53 52
f 95 52 96
f 96 52 31
f 96 31 33
f 98 99 16
f 100 101 14
f 102 6 103
f 103 6 8
f 103 8 101
f 101 8 10
f 101 10 14
f 16 99 17
f 100 14 99
f 99 14 13
f 99 13 17
f 104 105 16
f 16 105 106
f 16 106 98
f 19 18 107
f 104 16 107
f 107 16 20
f 107 20 19
f 108 107 109
f 109 107 18
f 109 18 110
f 110 18 3
f 90 89 80
f 90 80 91
f 80 78 91
f 91 78 77
f 91 77 92
f 92 77 79
f 92 79 86
f 86 79 81
f 86 81 87
f 80 89 76
f 76 89 93
f 76 93 94
f 94 95 76
f 76 95 96
f 76 96 97
f 74 103 101
f 98 69 99
f 99 69 74
f 99 74 100
f 100 74 101
f 97 111 76
f 76 111 112
f 76 112 74
f 74 112 102
f 74 102 103
f 108 73 107
f 107 73 72
f 107 72 104
f 104 72 71
f 104 71 105
f 105 71 70
f 105 70 106
f 106 70 69
f 106 69 98
f 3 22 110
f 110 22 84
f 110 84 109
f 75 73 84
f 84 73 108
f 84 108 109
f 41 85 39
f 39 85 83
f 81 82 87
f 87 82 83
f 87 83 88
f 88 83 85
f 38 37 62
f 5 4 57
f 57 4 27
f 57 27 62
f 62 27 29
f 62 29 38
f 6 102 25
f 25 102 112
f 25 112 26
f 26 112 28
f 28 112 111
f 28 111 30
f 30 111 97
f 30 97 35
f 21 56 22
f 22 56 84
f 39 83 40
f 40 83 68
f 113 114 115
f 116 117 118
f 115 114 117
f 117 114 118
f 119 120 121
f 121 120 122
f 123 124 125
f 125 124 126
f 126 124 119
f 119 124 120
f 127 128 129
f 130 131 132
f 129 128 131
f 131 128 132
f 133 134 135
f 135 134 136
f 137 138 139
f 139 138 140
f 140 138 133
f 133 138 134
f 141 142 143
f 144 145 146
f 143 142 145
f 145 142 146
f 147 148 149
f 149 148 150
f 151 152 153
f 153 152 154
f 154 152 147
f 147 152 148
f 155 156 157
f 157 156 158
f 157 158 159
f 160 161 157
f 157 161 162
f 157 162 155
f 163 164 157
f 157 164 165
f 157 165 160
f 159 166 157
f 157 166 167
f 157 167 163
f 168 169 170
f 170 169 171
f 170 171 172
f 172 171 173
f 172 173 174
f 174 173 175
f 174 175 176
f 176 175 177
f 176 177 178
f 178 177 179
f 178 179 180
f 180 179 181
f 180 181 182
f 182 181 183
f 182 183 184
f 184 183 185
f 184 185 186
f 186 185 187
f 186 187 188
f 188 187 189
f 188 189 190
f 190 189 191
f 190 191 168
f 168 191 169
f 180 192 178
f 178 192 193
f 178 193 176
f 176 193 194
f 176 194 174
f 174 194 195
f 174 195 172
f 172 195 196
f 172 196 170
f 170 196 197
f 170 197 168
f 168 197 198
f 168 198 190
f 190 198 199
f 190 199 188
f 188 199 200
f 188 200 186
f 186 200 201
f 186 201 184
f 184 201 202
f 184 202 182
f 182 202 203
f 182 203 180
f 180 203 192
f 204 196 205
f 205 196 195
f 205 195 206
f 206 195 194
f 206 194 207
f 207 194 193
f 207 193 208
f 208 193 192
f 208 192 209
f 209 192 203
f 209 203 210
f 210 203 202
f 210 202 211
f 211 202 201
f 211 201 212
f 212 201 200
f 212 200 213
f 213 200 199
f 213 199 214
f 214 199 198
f 214 198 215
f 215 198 197
f 215 197 204
f 204 197 196
f 216 204 217
f 217 204 205
f 217 205 218
f 218 205 206
f 218 206 219
f 219 206 207
f 219 207 220
f 220 207 208
f 220 208 221
f 221 208 209
f 221 209 222
f 222 209 210
f 222 210 223
f 223 210 211
f 223 211 224
f 224 211 212
f 224 212 225
f 225 212 213
f 225 213 226
f 226 213 214
f 226 214 227
f 227 214 215
f 227 215 216
f 216 215 204
f 228 227 229
f 229 227 216
f 229 216 230
f 230 216 217
f 230 217 231
f 231 217 218
f 231 218 232
f 232 218 219
f 232 219 233
f 233 219 220
f 233 220 234
f 234 220 221
f 234 221 235
f 235 221 222
f 235 222 236
f 236 222 223
f 236 223 237
f 237 223 224
f 237 224 238
f 238 224 225
f 238 225 239
f 239 225 226
f 239 226 228
f 228 226 227
f 240 234 241
f 241 234 235
f 241 235 242
f 242 235 236
f 242 236 243
f 243 236 237
f 243 237 244
f 244 237 238
f 244 238 245
f 245 238 239
f 245 239 246
f 246 239 228
f 246 228 247
f 247 228 229
f 247 229 248
f 248 229 230
f 248 230 249
f 249 230 231
f 249 231 250
f 250 231 232
f 250 232 251
f 251 232 233
f 251 233 240
f 240 233 234
f 252 247 253
f 253 247 248
f 253 248 254
f 254 248 249
f 254 249 255
f 255 249 250
f 255 250 256
f 256 250 251
f 256 251 257
f 257 251 240
f 257 240 258
f 258 240 241
f 258 241 259
f 259 241 242
f 259 242 260
f 260 242 243
f 260 243 261
f 261 243 244
f 261 244 262
f 262 244 245
f 262 245 263
f 263 245 246
f 263 246 252
f 252 246 247
f 264 256 265
f 265 256 257
f 265 257 266
f 266 257 258
f 266 258 267
f 267 258 259
f 267 259 268
f 268 259 260
f 268 260 269
f 269 260 261
f 269 261 270
f 270 261 262
f 270 262 271
f 271 262 263
f 271 263 272
f 272 263 252
f 272 252 273
f 273 252 253
f 273 253 274
f 274 253 254
f 274 254 275
f 275 254 255
f 275 255 264
f 264 255 256
f 158 272 159
f 159 272 273
f 159 273 166
f 166 273 274
f 166 274 167
f 167 274 275
f 167 275 163
f 163 275 264
f 163 264 164
f 164 264 265
f 164 265 165
f 165 265 266
f 165 266 160
f 160 266 267
f 160 267 161
f 161 267 268
f 161 268 162
f 162 268 269
f 162 269 155
f 155 269 270
f 155 270 156
f 156 270 271
f 156 271 158
f 158 271 272
f 276 277 278
f 278 277 279
f 278 279 280
f 281 282 278
f 278 282 283
f 278 283 276
f 284 285 278
f 278 285 286
f 278 286 281
f 280 287 278
f 278 287 288
f 278 288 284
f 289 290 291
f 291 290 292
f 291 292 293
f 293 292 294
f 293 294 295
f 295 294 296
f 295 296 297
f 297 296 298
f 297 298 299
f 299 298 300
f 299 300 301
f 301 300 302
f 301 302 303
f 303 302 304
f 303 304 305
f 305 304 306
f 305 306 307
f 307 306 308
f 307 308 309
f 309 308 310
f 309 310 311
f 311 310 312
f 311 312 289
f 289 312 290
f 301 313 299
f 299 313 314
f 299 314 297
f 297 314 315
f 297 315 295
f 295 315 316
f 295 316 293
f 293 316 317
f 293 317 291
f 291 317 318
f 291 318 289
f 289 318 319
f 289 319 311
f 311 319 320
f 311 320 309
f 309 320 321
f 309 321 307
f 307 321 322
f 307 322 305
f 305 322 323
f 305 323 303
f 303 323 324
f 303 324 301
f 301 324 313
f 325 316 326
f 326 316 315
f 326 315 327
f 327 315 314
f 327 314 328
f 328 314 313
f 328 313 329
f 329 313 324
f 329 324 330
f 330 324 323
f 330 323 331
f 331 323 322
f 331 322 332
f 332 322 321
f 332 321 333
f 333 321 320
f 333 320 334
f 334 320 319
f 334 319 335
f 335 319 318
f 335 318 336
f 336 318 317
f 336 317 325
f 325 317 316
f 337 336 338
f 338 336 325
f 338 325 339
f 339 325 326
f 339 326 340
f 340 326 327
f 340 327 341
f 341 327 328
f 341 328 342
f 342 328 329
f 342 329 343
f 343 329 330
f 343 330 344
f 344 330 331
f 344 331 345
f 345 331 332
f 345 332 346
f 346 332 333
f 346 333 347
f 347 333 334
f 347 334 348
f 348 334 335
f 348 335 337
f 337 335 336
f 349 348 350
f 350 348 337
f 350 337 351
f 351 337 338
f 351 338 352
f 352 338 339
f 352 339 353
f 353 339 340
f 353 340 354
f 354 340 341
f 354 341 355
f 355 341 342
f 355 342 356
f 356 342 343
f 356 343 357
f 357 343 344
f 357 344 358
f 358 344 345
f 358 345 359
f 359 345 346
f 359 346 360
f 360 346 347
f 360 347 349
f 349 347 348
f 361 350 362
f 362 350 351
f 362 351 363
f 363 351 352
f 363 352 364
f 364 352 353
f 364 353 365
f 365 353 354
f 365 354 366
f 366 354 355
f 366 355 367
f 367 355 356
f 367 356 368
f 368 356 357
f 368 357 369
f 369 357 358
f 369 358 370
f 370 358 359
f 370 359 371
f 371 359 360
f 371 360 372
f 372 360 349
f 372 349 361
f 361 349 350
f 373 361 374
f 374 361 362
f 374 362 375
f 375 362 363
f 375 363 376
f 376 363 364
f 376 364 377
f 377 364 365
f 377 365 378
f 378 365 366
f 378 366 379
f 379 366 367
f 379 367 380
f 380 367 368
f 380 368 381
f 381 368 369
f 381 369 382
f 382 369 370
f 382 370 383
f 383 370 371
f 383 371 384
f 384 371 372
f 384 372 373
f 373 372 361
f 385 374 386
f 386 374 375
f 386 375 387
f 387 375 376
f 387 376 388
f 388 376 377
f 388 377 389
f 389 377 378
f 389 378 390
f 390 378 379
f 390 379 391
f 391 379 380
f 391 380 392
f 392 380 381
f 392 381 393
f 393 381 382
f 393 382 394
f 394 382 383
f 394 383 395
f 395 383 384
f 395 384 396
f 396 384 373
f 396 373 385
f 385 373 374
f 279 396 280
f 280 396 385
f 280 385 287
f 287 385 386
f 287 386 288
f 288 386 387
f 288 387 284
f 284 387 388
f 284 388 285
f 285 388 389
f 285 389 286
f 286 389 390
f 286 390 281
f 281 390 391
f 281 391 282
f 282 391 392
f 282 392 283
f 283 392 393
f 283 393 276
f 276 393 394
f 276 394 277
f 277 394 395
f 277 395 279
f 279 395 396
f 397 398 399
f 399 398 400
f 399 400 401
f 402 403 399
f 399 403 404
f 399 404 397
f 405 406 399
f 399 406 407
f 399 407 402
f 401 408 399
f 399 408 409
f 399 409 405
f 410 411 412
f 412 411 413
f 412 413 414
f 414 413 415
f 414 415 416
f 416 415 417
f 416 417 418
f 418 417 419
f 418 419 420
f 420 419 421
f 420 421 422
f 422 421 423
f 422 423 424
f 424 423 425
f 424 425 426
f 426 425 427
f 426 427 428
f 428 427 429
f 428 429 430
f 430 429 431
f 430 431 432
f 432 431 433
f 432 433 410
f 410 433 411
f 422 434 420
f 420 434 435
f 420 435 418
f 418 435 436
f 418 436 416
f 416 436 437
f 416 437 414
f 414 437 438
f 414 438 412
f 412 438 439
f 412 439 410
f 410 439 440
f 410 440 432
f 432 440 441
f 432 441 430
f 430 441 442
f 430 442 428
f 428 442 443
f 428 443 426
f 426 443 444
f 426 444 424
f 424 444 445
f 424 445 422
f 422 445 434
f 446 445 447
f 447 445 444
f 447 444 448
f 448 444 443
f 448 443 449
f 449 443 442
f 449 442 450
f 450 442 441
f 450 441 451
f 451 441 440
f 451 440 452
f 452 440 439
f 452 439 453
f 453 439 438
f 453 438 454
f 454 438 437
f 454 437 455
f 455 437 436
f 455 436 456
f 456 436 435
f 456 435 457
f 457 435 434
f 457 434 446
f 446 434 445
f 458 453 459
f 459 453 454
f 459 454 460
f 460 454 455
f 460 455 461
f 461 455 456
f 461 456 462
f 462 456 457
f 462 457 463
f 463 457 446
f 463 446 464
f 464 446 447
f 464 447 465
f 465 447 448
f 465 448 466
f 466 448 449
f 466 449 467
f 467 449 450
f 467 450 468
f 468 450 451
f 468 451 469
f 469 451 452
f 469 452 458
f 458 452 453
f 470 469 471
f 471 469 458
f 471 458 472
f 472 458 459
f 472 459 473
f 473 459 460
f 473 460 474
f 474 460 461
f 474 461 475
f 475 461 462
f 475 462 476
f 476 462 463
f 476 463 477
f 477 463 464
f 477 464 478
f 478 464 465
f 478 465 479
f 479 465 466
f 479 466 480
f 480 466 467
f 480 467 481
f 481 467 468
f 481 468 470
f 470 468 469
f 482 476 483
f 483 476 477
f 483 477 484
f 484 477 478
f 484 478 485
f 485 478 479
f 485 479 486
f 486 479 480
f 486 480 487
f 487 480 481
f 487 481 488
f 488 481 470
f 488 470 489
f 489 470 471
f 489 471 490
f 490 471 472
f 490 472 491
f 491 472 473
f 491 473 492
f 492 473 474
f 492 474 493
f 493 474 475
f 493 475 482
f 482 475 476
f 494 489 495
f 495 489 490
f 495 490 496
f 496 490 491
f 496 491 497
f 497 491 492
f 497 492 498
f 498 492 493
f 498 493 499
f 499 493 482
f 499 482 500
f 500 482 483
f 500 483 501
f 501 483 484
f 501 484 502
f 502 484 485
f 502 485 503
f 503 485 486
f 503 486 504
f 504 486 487
f 504 487 505
f 505 487 488
f 505 488 494
f 494 488 489
f 506 501 507
f 507 501 502
f 507 502 508
f 508 502 503
f 508 503 509
f 509 503 504
f 509 504 510
f 510 504 505
f 510 505 511
f 511 505 494
f 511 494 512
f 512 494 495
f 512 495 513
f 513 495 496
f 513 496 514
f 514 496 497
f 514 497 515
f 515 497 498
f 515 498 516
f 516 498 499
f 516 499 517
f 517 499 500
f 517 500 506
f 506 500 501
f 400 511 401
f 401 511 512
f 401 512 408
f 408 512 513
f 408 513 409
f 409 513 514
f 409 514 405
f 405 514 515
f 405 515 406
f 406 515 516
f 406 516 407
f 407 516 517
f 407 517 402
f 402 517 506
f 402 506 403
f 403 506 507
f 403 507 404
f 404 507 508
f 404 508 397
f 397 508 509
f 397 509 398
f 398 509 510
f 398 510 400
f 400 510 511
f 518 519 520
f 520 519 521
f 520 521 522
f 523 524 520
f 520 524 525
f 520 525 518
f 526 527 520
f 520 527 528
f 520 528 523
f 522 529 520
f 520 529 530
f 520 530 526
f 531 532 533
f 533 532 534
f 533 534 535
f 535 534 536
f 535 536 537
f 537 536 538
f 537 538 539
f 539 538 540
f 539 540 541
f 541 540 542
f 541 542 543
f 543 542 544
f 543 544 545
f 545 544 546
f 545 546 547
f 547 546 548
f 547 548 549
f 549 548 550
f 549 550 551
f 551 550 552
f 551 552 553
f 553 552 554
f 553 554 531
f 531 554 532
f 543 555 541
f 541 555 556
f 541 556 539
f 539 556 557
f 539 557 537
f 537 557 558
f 537 558 535
f 535 558 559
f 535 559 533
f 533 559 560
f 533 560 531
f 531 560 561
f 531 561 553
f 553 561 562
f 553 562 551
f 551 562 563
f 551 563 549
f 549 563 564
f 549 564 547
f 547 564 565
f 547 565 545
f 545 565 566
f 545 566 543
f 543 566 555
f 567 558 568
f 568 558 557
f 568 557 569
f 569 557 556
f 569 556 570
f 570 556 555
f 570 555 571
f 571 555 566
f 571 566 572
f 572 566 565
f 572 565 573
f 573 565 564
f 573 564 574
f 574 564 563
f 574 563 575
f 575 563 562
f 575 562 576
f 576 562 561
f 576 561 577
f 577 561 560
f 577 560 578
f 578 560 559
f 578 559 567
f 567 559 558
f 579 578 580
f 580 578 567
f 580 567 581
f 581 567 568
f 581 568 582
f 582 568 569
f 582 569 583
f 583 569 570
f 583 570 584
f 584 570 571
f 584 571 585
f 585 571 572
f 585 572 586
f 586 572 573
f 586 573 587
f 587 573 574
f 587 574 588
f 588 574 575
f 588 575 589
f 589 575 576
f 589 576 590
f 590 576 577
f 590 577 579
f 579 577 578
f 591 590 592
f 592 590 579
f 592 579 593
f 593 579 580
f 593 580 594
f 594 580 581
f 594 581 595
f 595 581 582
f 595 582 596
f 596 582 583
f 596 583 597
f 597 583 584
f 597 584 598
f 598 584 585
f 598 585 599
f 599 585 586
f 599 586 600
f 600 586 587
f 600 587 601
f 601 587 588
f 601 588 602
f 602 588 589
f 602 589 591
f 591 589 590
f 603 597 604
f 604 597 598
f 604 598 605
f 605 598 599
f 605 599 606
f 606 599 600
f 606 600 607
f 607 600 601
f 607 601 608
f 608 601 602
f 608 602 609
f 609 602 591
f 609 591 610
f 610 591 592
f 610 592 611
f 611 592 593
f 611 593 612
f 612 593 594
f 612 594 613
f 613 594 595
f 613 595 614
f 614 595 596
f 614 596 603
f 603 596 597
f 615 610 616
f 616 610 611
f 616 611 617
f 617 611 612
f 617 612 618
f 618 612 613
f 618 613 619
f 619 613 614
f 619 614 620
f 620 614 603
f 620 603 621
f 621 603 604
f 621 604 622
f 622 604 605
f 622 605 623
f 623 605 606
f 623 606 624
f 624 606 607
f 624 607 625
f 625 607 608
f 625 608 626
f 626 608 609
f 626 609 615
f 615 609 610
f 627 621 628
f 628 621 622
f 628 622 629
f 629 622 623
f 629 623 630
f 630 623 624
f 630 624 631
f 631 624 625
f 631 625 632
f 632 625 626
f 632 626 633
f 633 626 615
f 633 615 634
f 634 615 616
f 634 616 635
f 635 616 617
f 635 617 636
f 636 617 618
f 636 618 637
f 637 618 619
f 637 619 638
f 638 619 620
f 638 620 627
f 627 620 621
f 521 633 522
f 522 633 634
f 522 634 529
f 529 634 635
f 529 635 530
f 530 635 636
f 530 636 526
f 526 636 637
f 526 637 527
f 527 637 638
f 527 638 528
f 528 638 627
f 528 627 523
f 523 627 628
f 523 628 524
f 524 628 629
f 524 629 525
f 525 629 630
f 525 630 518
f 518 630 631
f 518 631 519
f 519 631 632
f 519 632 521
f 521 632 633
f 639 640 641
f 641 640 642
f 641 642 643
f 644 645 641
f 641 645 646
f 641 646 639
f 647 648 641
f 641 648 649
f 641 649 644
f 643 650 641
f 641 650 651
f 641 651 647
f 652 653 654
f 654 653 655
f 654 655 656
f 656 655 657
f 656 657 658
f 658 657 659
f 658 659 660
f 660 659 661
f 660 661 662
f 662 661 663
f 662 663 664
f 664 663 665
f 664 665 666
f 666 665 667
f 666 667 668
f 668 667 669
f 668 669 670
f 670 669 671
f 670 671 672
f 672 671 673
f 672 673 674
f 674 673 675
f 674 675 652
f 652 675 653
f 664 676 662
f 662 676 677
f 662 677 660
f 660 677 678
f 660 678 658
f 658 678 679
f 658 679 656
f 656 679 680
f 656 680 654
f 654 680 681
f 654 681 652
f 652 681 682
f 652 682 674
f 674 682 683
f 674 683 672
f 672 683 684
f 672 684 670
f 670 684 685
f 670 685 668
f 668 685 686
f 668 686 666
f 666 686 687
f 666 687 664
f 664 687 676
f 688 684 689
f 689 684 683
f 689 683 690
f 690 683 682
f 690 682 691
f 691 682 681
f 691 681 692
f 692 681 680
f 692 680 693
f 693 680 679
f 693 679 694
f 694 679 678
f 694 678 695
f 695 678 677
f 695 677 696
f 696 677 676
f 696 676 697
f 697 676 687
f 697 687 698
f 698 687 686
f 698 686 699
f 699 686 685
f 699 685 688
f 688 685 684
f 700 692 701
f 701 692 693
f 701 693 702
f 702 693 694
f 702 694 703
f 703 694 695
f 703 695 704
f 704 695 696
f 704 696 705
f 705 696 697
f 705 697 706
f 706 697 698
f 706 698 707
f 707 698 699
f 707 699 708
f 708 699 688
f 708 688 709
f 709 688 689
f 709 689 710
f 710 689 690
f 710 690 711
f 711 690 691
f 711 691 700
f 700 691 692
f 712 711 713
f 713 711 700
f 713 700 714
f 714 700 701
f 714 701 715
f 715 701 702
f 715 702 716
f 716 702 703
f 716 703 717
f 717 703 704
f 717 704 718
f 718 704 705
f 718 705 719
f 719 705 706
f 719 706 720
f 720 706 707
f 720 707 721
f 721 707 708
f 721 708 722
f 722 708 709
f 722 709 723
f 723 709 710
f 723 710 712
f 712 710 711
f 724 715 725
f 725 715 716
f 725 716 726
f 726 716 717
f 726 717 727
f 727 717 718
f 727 718 728
f 728 718 719
f 728 719 729
f 729 719 720
f 729 720 730
f 730 720 721
f 730 721 731
f 731 721 722
f 731 722 732
f 732 722 723
f 732 723 733
f 733 723 712
f 733 712 734
f 734 712 713
f 734 713 735
f 735 713 714
f 735 714 724
f 724 714 715
f 736 734 737
f 737 734 735
f 737 735 738
f 738 735 724
f 738 724 739
f 739 724 725
f 739 725 740
f 740 725 726
f 740 726 741
f 741 726 727
f 741 727 742
f 742 727 728
f 742 728 743
f 743 728 729
f 743 729 744
f 744 729 730
f 744 730 745
f 745 730 731
f 745 731 746
f 746 731 732
f 746 732 747
f 747 732 733
f 747 733 736
f 736 733 734
f 748 740 749
f 749 740 741
f 749 741 750
f 750 741 742
f 750 742 751
f 751 742 743
f 751 743 752
f 752 743 744
f 752 744 753
f 753 744 745
f 753 745 754
f 754 745 746
f 754 746 755
f 755 746 747
f 755 747 756
f 756 747 736
f 756 736 757
f 757 736 737
f 757 737 758
f 758 737 738
f 758 738 759
f 759 738 739
f 759 739 748
f 748 739 740
f 642 756 643
f 643 756 757
f 643 757 650
f 650 757 758
f 650 758 651
f 651 758 759
f 651 759 647
f 647 759 748
f 647 748 648
f 648 748 749
f 648 749 649
f 649 749 750
f 649 750 644
f 644 750 751
f 644 751 645
f 645 751 752
f 645 752 646
f 646 752 753
f 646 753 639
f 639 753 754
f 639 754 640
f 640 754 755
f 640 755 642
f 642 755 756
f 760 761 762
f 762 761 763
f 762 763 764
f 765 766 762
f 762 766 767
f 762 767 760
f 768 769 762
f 762 769 770
f 762 770 765
f 764 771 762
f 762 771 772
f 762 772 768
f 773 774 775
f 775 774 776
f 775 776 777
f 777 776 778
f 777 778 779
f 779 778 780
f 779 780 781
f 781 780 782
f 781 782 783
f 783 782 784
f 783 784 785
f 785 784 786
f 785 786 787
f 787 786 788
f 787 788 789
f 789 788 790
f 789 790 791
f 791 790 792
f 791 792 793
f 793 792 794
f 793 794 795
f 795 794 796
f 795 796 773
f 773 796 774
f 785 797 783
f 783 797 798
f 783 798 781
f 781 798 799
f 781 799 779
f 779 799 800
f 779 800 777
f 777 800 801
f 777 801 775
f 775 801 802
f 775 802 773
f 773 802 803
f 773 803 795
f 795 803 804
f 795 804 793
f 793 804 805
f 793 805 791
f 791 805 806
f 791 806 789
f 789 806 807
f 789 807 787
f 787 807 808
f 787 808 785
f 785 808 797
f 809 800 810
f 810 800 799
f 810 799 811
f 811 799 798
f 811 798 812
f 812 798 797
f 812 797 813
f 813 797 808
f 813 808 814
f 814 808 807
f 814 807 815
f 815 807 806
f 815 806 816
f 816 806 805
f 816 805 817
f 817 805 804
f 817 804 818
f 818 804 803
f 818 803 819
f 819 803 802
f 819 802 820
f 820 802 801
f 820 801 809
f 809 801 800
f 821 820 822
f 822 820 809
f 822 809 823
f 823 809 810
f 823 810 824
f 824 810 811
f 824 811 825
f 825 811 812
f 825 812 826
f 826 812 813
f 826 813 827
f 827 813 814
f 827 814 828
f 828 814 815
f 828 815 829
f 829 815 816
f 829 816 830
f 830 816 817
f 830 817 831
f 831 817 818
f 831 818 832
f 832 818 819
f 832 819 821
f 821 819 820
f 833 832 834
f 834 832 821
f 834 821 835
f 835 821 822
f 835 822 836
f 836 822 823
f 836 823 837
f 837 823 824
f 837 824 838
f 838 824 825
f 838 825 839
f 839 825 826
f 839 826 840
f 840 826 827
f 840 827 841
f 841 827 828
f 841 828 842
f 842 828 829
f 842 829 843
f 843 829 830
f 843 830 844
f 844 830 831
f 844 831 833
f 833 831 832
f 845 839 846
f 846 839 840
f 846 840 847
f 847 840 841
f 847 841 848
f 848 841 842
f 848 842 849
f 849 842 843
f 849 843 850
f 850 843 844
f 850 844 851
f 851 844 833
f 851 833 852
f 852 833 834
f 852 834 853
f 853 834 835
f 853 835 854
f 854 835 836
f 854 836 855
f 855 836 837
f 855 837 856
f 856 837 838
f 856 838 845
f 845 838 839
f 857 852 858
f 858 852 853
f 858 853 859
f 859 853 854
f 859 854 860
f 860 854 855
f 860 855 861
f 861 855 856
f 861 856 862
f 862 856 845
f 862 845 863
f 863 845 846
f 863 846 864
f 864 846 847
f 864 847 865
f 865 847 848
f 865 848 866
f 866 848 849
f 866 849 867
f 867 849 850
f 867 850 868
f 868 850 851
f 868 851 857
f 857 851 852
f 869 861 870
f 870 861 862
f 870 862 871
f 871 862 863
f 871 863 872
f 872 863 864
f 872 864 873
f 873 864 865
f 873 865 874
f 874 865 866
f 874 866 875
f 875 866 867
f 875 867 876
f 876 867 868
f 876 868 877
f 877 868 857
f 877 857 878
f 878 857 858
f 878 858 879
f 879 858 859
f 879 859 880
f 880 859 860
f 880 860 869
f 869 860 861
f 763 877 764
f 764 877 878
f 764 878 771
f 771 878 879
f 771 879 772
f 772 879 880
f 772 880 768
f 768 880 869
f 768 869 769
f 769 869 870
f 769 870 770
f 770 870 871
f 770 871 765
f 765 871 872
f 765 872 766
f 766 872 873
f 766 873 767
f 767 873 874
f 767 874 760
f 760 874 875
f 760 875 761
f 761 875 876
f 761 876 763
f 763 876 877
f 881 882 883
f 883 882 884
f 883 884 885
f 885 884 886
f 885 886 887
f 887 886 888
f 887 888 889
f 889 888 890
f 889 890 891
f 891 890 892
f 891 892 893
f 893 892 894
f 895 893 896
f 896 893 894
f 895 896 897
f 897 896 898
f 897 898 899
f 899 898 900
f 899 900 901
f 901 900 902
f 901 902 903
f 903 902 904
f 903 904 905
f 905 904 906
f 905 906 907
f 907 906 908
f 907 908 909
f 909 908 910
f 909 910 911
f 911 910 912
f 911 912 913
f 913 912 914
f 913 914 915
f 915 914 916
f 881 915 882
f 882 915 916
f 917 918 919
f 919 918 920
f 919 920 921
f 921 920 922
f 921 922 923
f 923 922 924
f 923 924 925
f 925 924 926
f 925 926 927
f 927 926 928
f 927 928 929
f 929 928 930
f 931 929 932
f 932 929 930
f 931 932 933
f 933 932 934
f 933 934 935
f 935 934 936
f 935 936 937
f 937 936 938
f 937 938 939
f 939 938 940
f 939 940 941
f 941 940 942
f 941 942 943
f 943 942 944
f 943 944 945
f 945 944 946
f 945 946 947
f 947 946 948
f 947 948 949
f 949 948 950
f 949 950 951
f 951 950 952
f 917 951 918
f 918 951 952
f 953 954 955
f 955 954 956
f 955 956 957
f 957 956 958
f 957 958 959
f 959 958 960
f 959 960 961
f 961 960 962
f 961 962 963
f 963 962 964
f 963 964 965
f 965 964 966
f 967 965 968
f 968 965 966
f 967 968 969
f 969 968 970
f 969 970 971
f 971 970 972
f 971 972 973
f 973 972 974
f 973 974 975
f 975 974 976
f 975 976 977
f 977 976 978
f 977 978 979
f 979 978 980
f 979 980 981
f 981 980 982
f 981 982 983
f 983 982 984
f 983 984 985
f 985 984 986
f 985 986 987
f 987 986 988
f 953 987 954
f 954 987 988
f 989 990 991
f 991 990 992
f 991 992 993
f 993 992 994
f 993 994 995
f 995 994 996
f 995 996 997
f 997 996 998
f 997 998 999
f 999 998 1000
f 999 1000 1001
f 1001 1000 1002
f 1003 1001 1004
f 1004 1001 1002
f 1003 1004 1005
f 1005 1004 1006
f 1005 1006 1007
f 1007 1006 1008
f 1007 1008 1009
f 1009 1008 1010
f 1009 1010 1011
f 1011 1010 1012
f 1011 1012 1013
f 1013 1012 1014
f 1013 1014 1015
f 1015 1014 1016
f 1015 1016 1017
f 1017 1016 1018
f 1017 1018 1019
f 1019 1018 1020
f 1019 1020 1021
f 1021 1020 1022
f 1021 1022 1023
f 1023 1022 1024
f 989 1023 990
f 990 1023 1024
f 1025 1026 1027
f 1027 1026 1028
f 1027 1028 1029
f 1029 1028 1030
f 1029 1030 1031
f 1031 1030 1032
f 1031 1032 1033
f 1033 1032 1034
f 1033 1034 1035
f 1035 1034 1036
f 1035 1036 1037
f 1037 1036 1038
f 1039 1037 1040
f 1040 1037 1038
f 1039 1040 1041
f 1041 1040 1042
f 1041 1042 1043
f 1043 1042 1044
f 1043 1044 1045
f 1045 1044 1046
f 1045 1046 1047
f 1047 1046 1048
f 1047 1048 1049
f 1049 1048 1050
f 1049 1050 1051
f 1051 1050 1052
f 1051 1052 1053
f 1053 1052 1054
f 1053 1054 1055
f 1055 1054 1056
f 1055 1056 1057
f 1057 1056 1058
f 1057 1058 1059
f 1059 1058 1060
f 1025 1059 1026
f 1026 1059 1060
f 1061 1062 1063
f 1063 1062 1064
f 1063 1064 1065
f 1065 1064 1066
f 1065 1066 1067
f 1067 1066 1068
f 1067 1068 1069
f 1069 1068 1070
f 1069 1070 1071
f 1071 1070 1072
f 1071 1072 1073
f 1073 1072 1074
f 1075 1073 1076
f 1076 1073 1074
f 1075 1076 1077
f 1077 1076 1078
f 1077 1078 1079
f 1079 1078 1080
f 1079 1080 1081
f 1081 1080 1082
f 1081 1082 1083
f 1083 1082 1084
f 1083 1084 1085
f 1085 1084 1086
f 1085 1086 1087
f 1087 1086 1088
f 1087 1088 1089
f 1089 1088 1090
f 1089 1090 1091
f 1091 1090 1092
f 1091 1092 1093
f 1093 1092 1094
f 1093 1094 1095
f 1095 1094 1096
f 1061 1095 1062
f 1062 1095 1096
f 1097 1098 1099
f 1099 1098 1100
f 1099 1100 1101
f 1101 1100 1102
f 1101 1102 1103
f 1103 1102 1104
f 1103 1104 1105
f 1105 1104 1106
f 1105 1106 1107
f 1107 1106 1108
f 1107 1108 1109
f 1109 1108 1110
f 1111 1109 1112
f 1112 1109 1110
f 1111 1112 1113
f 1113 1112 1114
f 1113 1114 1115
f 1115 1114 1116
f 1115 1116 1117
f 1117 1116 1118
f 1117 1118 1119
f 1119 1118 1120
f 1119 1120 1121
f 1121 1120 1122
f 1121 1122 1123
f 1123 1122 1124
f 1123 1124 1125
f 1125 1124 1126
f 1125 1126 1127
f 1127 1126 1128
f 1127 1128 1129
f 1129 1128 1130
f 1129 1130 1131
f 1131 1130 1132
f 1097 1131 1098
f 1098 1131 1132
f 1133 1134 1135
f 1135 1134 1136
f 1135 1136 1137
f 1137 1136 1138
f 1137 1138 1139
f 1139 1138 1140
f 1139 1140 1141
f 1141 1140 1142
f 1141 1142 1143
f 1143 1142 1144
f 1143 1144 1145
f 1145 1144 1146
f 1147 1145 1148
f 1148 1145 1146
f 1147 1148 1149
f 1149 1148 1150
f 1149 1150 1151
f 1151 1150 1152
f 1151 1152 1153
f 1153 1152 1154
f 1153 1154 1155
f 1155 1154 1156
f 1155 1156 1157
f 1157 1156 1158
f 1157 1158 1159
f 1159 1158 1160
f 1159 1160 1161
f 1161 1160 1162
f 1161 1162 1163
f 1163 1162 1164
f 1163 1164 1165
f 1165 1164 1166
f 1165 1166 1167
f 1167 1166 1168
f 1133 1167 1134
f 1134 1167 1168
f 1169 1170 1171
f 1172 1173 1174
f 1174 1173 1171
f 1174 1171 1175
f 1175 1171 1176
f 1175 1176 1177
f 1178 1179 1173
f 1173 1179 1180
f 1173 1180 1171
f 1171 1180 1181
f 1171 1181 1169
f 1182 1183 1178
f 1178 1183 1184
f 1178 1184 1179
f 83 1185 82
f 82 1185 1186
f 82 1186 75
f 75 1186 1187
f 75 1187 1188
f 1188 1189 75
f 75 1189 1190
f 75 1190 84
f 1191 1192 1193
f 1194 1195 1196
f 1196 1195 1197
f 1195 796 794
f 788 1197 790
f 790 1197 1195
f 790 1195 792
f 792 1195 794
f 788 786 1197
f 1197 786 784
f 1197 784 83
f 784 782 83
f 83 782 780
f 83 780 1185
f 780 778 1185
f 1185 778 776
f 1185 776 774
f 1198 1199 1200
f 1200 1199 1201
f 1200 1201 136
f 136 1201 135
f 179 177 1189
f 1199 84 1201
f 1201 84 1190
f 1201 1190 191
f 191 1190 169
f 177 175 1189
f 1189 175 173
f 1189 173 1190
f 1190 173 171
f 1190 171 169
f 191 189 1201
f 1201 189 187
f 1201 187 135
f 135 187 185
f 135 185 133
f 1202 139 140
f 1188 413 411
f 1203 433 431
f 423 421 1193
f 427 425 147
f 147 425 154
f 1193 421 1187
f 421 419 1187
f 1187 419 417
f 1187 417 1188
f 1188 417 415
f 1188 415 413
f 147 149 427
f 427 149 1203
f 427 1203 429
f 429 1203 431
f 425 423 154
f 154 423 1193
f 154 1193 153
f 153 1193 1192
f 153 1192 151
f 655 653 1186
f 1186 653 675
f 1186 675 1204
f 1204 675 673
f 1204 673 671
f 122 1204 121
f 121 1204 671
f 121 671 119
f 119 671 669
f 119 669 126
f 126 669 667
f 665 663 1195
f 1195 663 1185
f 1195 1185 796
f 796 1185 774
f 663 661 1185
f 1185 661 659
f 1185 659 1186
f 1186 659 657
f 1186 657 655
f 667 665 126
f 126 665 1195
f 126 1195 125
f 125 1195 1194
f 125 1194 123
f 137 139 1205
f 1205 139 1202
f 1205 1202 1206
f 1206 1202 1203
f 1206 1203 150
f 150 1203 149
f 534 1187 536
f 536 1187 1186
f 536 1186 538
f 534 532 1187
f 1187 532 554
f 1187 554 1193
f 1193 554 552
f 1193 552 550
f 1204 548 546
f 122 1191 1204
f 1204 1191 1193
f 1204 1193 548
f 548 1193 550
f 546 544 1204
f 1204 544 542
f 1204 542 1186
f 1186 542 540
f 1186 540 538
f 1202 312 310
f 292 290 1189
f 185 183 133
f 133 183 181
f 133 181 140
f 140 181 179
f 140 179 1202
f 1202 179 1189
f 1202 1189 312
f 312 1189 290
f 310 308 1202
f 1202 308 306
f 1202 306 1203
f 1203 306 304
f 1203 304 302
f 302 300 1203
f 1203 300 1188
f 1203 1188 433
f 433 1188 411
f 300 298 1188
f 1188 298 296
f 1188 296 1189
f 1189 296 294
f 1189 294 292
f 1207 134 138
f 1149 1151 1208
f 1208 1151 1153
f 1207 138 1208
f 1208 138 148
f 1208 148 152
f 1141 1143 124
f 124 1143 1145
f 1209 1198 1029
f 152 120 1208
f 1208 120 124
f 1208 124 1149
f 1149 124 1145
f 1149 1145 1147
f 1210 1157 1196
f 1196 1157 1159
f 1167 1133 1194
f 1194 1133 1135
f 1194 1135 123
f 123 1135 1137
f 123 1137 124
f 124 1137 1139
f 124 1139 1141
f 1211 1208 1212
f 1212 1208 1153
f 1212 1153 1210
f 1210 1153 1155
f 1210 1155 1157
f 1029 1031 1209
f 1209 1031 1033
f 1209 1033 1213
f 1213 1033 1035
f 1069 1071 152
f 152 1071 1073
f 1159 1161 1196
f 1196 1161 1163
f 1196 1163 1194
f 1194 1163 1165
f 1194 1165 1167
f 1057 1200 1055
f 1055 1200 136
f 1055 136 1053
f 1057 1059 1200
f 1200 1059 1025
f 1200 1025 1198
f 1198 1025 1027
f 1198 1027 1029
f 1045 1047 134
f 134 1047 1049
f 134 1049 136
f 136 1049 1051
f 136 1051 1053
f 1117 1119 148
f 148 1119 1121
f 148 1121 150
f 1105 1107 138
f 138 1107 1109
f 1081 120 1079
f 1079 120 152
f 1079 152 1077
f 1077 152 1073
f 1077 1073 1075
f 1081 1083 120
f 120 1083 1085
f 120 1085 122
f 1037 1207 1035
f 1035 1207 1214
f 1035 1214 1213
f 1045 134 1043
f 1043 134 1207
f 1043 1207 1041
f 1041 1207 1037
f 1041 1037 1039
f 1129 1131 1206
f 1206 1131 1097
f 1206 1097 1205
f 1205 1097 1099
f 1205 1099 137
f 137 1099 1101
f 137 1101 138
f 138 1101 1103
f 138 1103 1105
f 1117 148 1115
f 1115 148 138
f 1115 138 1113
f 1113 138 1109
f 1113 1109 1111
f 1093 1095 1191
f 1191 1095 1061
f 1191 1061 1192
f 1192 1061 1063
f 1192 1063 151
f 151 1063 1065
f 151 1065 152
f 152 1065 1067
f 152 1067 1069
f 1121 1123 150
f 150 1123 1125
f 150 1125 1206
f 1206 1125 1127
f 1206 1127 1129
f 1085 1087 122
f 122 1087 1089
f 122 1089 1191
f 1191 1089 1091
f 1191 1091 1093
f 71 70 72
f 72 70 69
f 72 69 73
f 73 69 74
f 80 78 77
f 77 79 80
f 80 79 81
f 80 81 76
f 76 81 82
f 76 82 74
f 74 82 75
f 74 75 73
f 1207 1215 1216
f 1207 1216 1214
f 1214 1216 1217
f 1214 1217 1213
f 1213 1217 1218
f 1213 1218 1209
f 1210 1219 1220
f 1210 1220 1212
f 1212 1220 1221
f 1212 1221 1211
f 1211 1221 1222
f 1211 1222 1208
f 1223 1224 1225
f 1223 1225 1226
f 1226 1225 1227
f 1226 1227 1228
f 1228 1227 1229
f 1228 1229 1230
f 1231 1232 1233
f 1231 1233 1234
f 1234 1233 1235
f 1234 1235 1236
f 1236 1235 1237
f 1236 1237 1238
f 78 80 1172
f 1239 81 79
f 1172 1174 78
f 78 1174 1175
f 78 1175 77
f 77 1175 1177
f 77 1177 79
f 79 1177 1240
f 79 1240 1239
f 1172 80 1173
f 1173 80 76
f 74 1179 1184
f 1184 1183 74
f 74 1183 1182
f 74 1182 76
f 76 1182 1178
f 76 1178 1173
f 1179 74 1180
f 1180 74 69
f 1180 69 1181
f 1169 1181 69
f 1169 69 1170
f 69 70 1170
f 1170 70 71
f 1170 71 1171
f 1171 71 1176
f 1176 71 72
f 1176 72 1241
f 1241 72 73
f 1241 73 1242
f 1106 1104 1243
f 1070 1068 1244
f 998 996 1245
f 1229 1227 1225
f 1245 1246 1232
f 1233 1232 1235
f 1235 1232 1246
f 1235 1246 1237
f 1237 1246 1247
f 1237 1247 1248
f 1248 1247 1219
f 1219 1247 1221
f 1219 1221 1220
f 1144 1142 1249
f 1249 1142 1140
f 1249 1140 1250
f 1250 1140 1138
f 1250 1138 1136
f 1134 1168 1166
f 1222 1152 1249
f 1249 1152 1150
f 1150 1148 1249
f 1249 1148 1146
f 1249 1146 1144
f 1136 1134 1250
f 1250 1134 1166
f 1250 1166 1247
f 1247 1166 1164
f 1247 1164 1162
f 1162 1160 1247
f 1247 1160 1158
f 1247 1158 1221
f 1221 1158 1156
f 1221 1156 1222
f 1222 1156 1154
f 1222 1154 1152
f 1028 1251 1030
f 1030 1251 1218
f 1030 1218 1032
f 1026 1060 1058
f 1032 1218 1034
f 1034 1218 1217
f 1034 1217 1036
f 1036 1217 1216
f 1036 1216 1038
f 1038 1216 1215
f 1038 1215 1040
f 1028 1026 1251
f 1251 1026 1058
f 1251 1058 1252
f 1252 1058 1056
f 1056 1054 1252
f 1252 1054 1052
f 1252 1052 1243
f 1243 1052 1050
f 1243 1050 1048
f 1048 1046 1243
f 1243 1046 1044
f 1243 1044 1215
f 1215 1044 1042
f 1215 1042 1040
f 1225 1224 886
f 1251 890 1224
f 1224 890 888
f 1224 888 886
f 896 894 1251
f 1251 894 892
f 1251 892 890
f 1253 912 910
f 916 914 882
f 882 914 1225
f 882 1225 884
f 884 1225 886
f 910 908 1253
f 1253 908 906
f 1253 906 904
f 904 902 1252
f 1252 902 900
f 1252 900 1251
f 1251 900 898
f 1251 898 896
f 1229 1225 1254
f 1002 1000 1250
f 990 1024 1022
f 996 994 1245
f 1245 994 992
f 1245 992 1246
f 1246 992 990
f 1002 1250 1004
f 990 1022 1246
f 1246 1022 1020
f 1246 1020 1018
f 1012 1247 1014
f 1014 1247 1246
f 1014 1246 1016
f 1016 1246 1018
f 1012 1010 1247
f 1247 1010 1008
f 1247 1008 1250
f 1250 1008 1006
f 1250 1006 1004
f 1244 1068 1255
f 1255 1068 1066
f 1255 1066 1064
f 1062 1096 1094
f 1064 1062 1255
f 1255 1062 1094
f 1255 1094 1250
f 1250 1094 1092
f 1076 1074 1244
f 1244 1074 1072
f 1244 1072 1070
f 1092 1090 1250
f 1250 1090 1088
f 1250 1088 1249
f 1249 1088 1086
f 1249 1086 1084
f 1084 1082 1249
f 1249 1082 1080
f 1249 1080 1244
f 1244 1080 1078
f 1244 1078 1076
f 1255 926 1256
f 1256 926 924
f 1256 924 922
f 932 930 1255
f 1255 930 928
f 1255 928 926
f 1245 1256 948
f 948 1256 950
f 952 950 918
f 918 950 1256
f 918 1256 920
f 920 1256 922
f 948 946 1245
f 1245 946 944
f 1245 944 942
f 1000 998 1250
f 1250 998 1245
f 1250 1245 940
f 940 1245 942
f 940 938 1250
f 1250 938 936
f 1250 936 1255
f 1255 936 934
f 1255 934 932
f 1243 1104 1252
f 1252 1104 1102
f 1252 1102 1100
f 1098 1132 1130
f 1100 1098 1252
f 1252 1098 1130
f 1252 1130 1255
f 1255 1130 1128
f 1112 1110 1243
f 1243 1110 1108
f 1243 1108 1106
f 1128 1126 1255
f 1255 1126 1124
f 1255 1124 1244
f 1244 1124 1122
f 1244 1122 1120
f 1120 1118 1244
f 1244 1118 1116
f 1244 1116 1243
f 1243 1116 1114
f 1243 1114 1112
f 904 1252 1253
f 1253 1252 962
f 1253 962 960
f 968 966 1252
f 1252 966 964
f 1252 964 962
f 960 958 1253
f 1253 958 956
f 1253 956 954
f 982 1256 984
f 984 1256 1253
f 984 1253 986
f 986 1253 954
f 986 954 988
f 982 980 1256
f 1256 980 978
f 1256 978 1255
f 1255 978 976
f 976 974 1255
f 1255 974 972
f 1255 972 1252
f 1252 972 970
f 1252 970 968
f 914 912 1225
f 1225 912 1253
f 1225 1253 1254
f 1254 1253 1256
f 1254 1256 1257
f 1257 1256 1245
f 1257 1245 1258
f 1258 1245 1232
f 1229 1254 1230
f 1230 1254 1257
f 1230 1257 1231
f 1231 1257 1258
f 1231 1258 1232
f 1222 1249 1208
f 1208 1249 1244
f 1208 1244 1207
f 1207 1244 1243
f 1207 1243 1215
f 1199 1198 1259
f 84 1199 75
f 75 1199 1259
f 75 1259 73
f 73 1259 1242
f 1209 1218 1198
f 1198 1218 1251
f 1198 1251 1259
f 1259 1251 1224
f 1259 1224 1223
f 1238 1237 1260
f 1260 1237 1248
f 1260 1248 1196
f 1196 1248 1219
f 1196 1219 1210
f 81 1239 82
f 82 1239 1260
f 83 82 1197
f 1197 82 1260
f 1197 1260 1196
f 989 991 118
f 1238 1013 1015
f 917 919 146
f 1231 1019 1021
f 1023 989 1021
f 1021 989 118
f 1021 118 1231
f 1231 118 114
f 1231 114 146
f 991 993 118
f 118 993 995
f 118 995 116
f 116 995 997
f 116 997 999
f 114 941 943
f 953 955 132
f 1236 1238 1234
f 1234 1238 1015
f 1234 1015 1231
f 1231 1015 1017
f 1231 1017 1019
f 1001 1003 1005
f 907 909 128
f 1230 911 913
f 1013 1238 1011
f 1011 1238 1260
f 1011 1260 1009
f 943 945 114
f 114 945 947
f 114 947 146
f 146 947 949
f 146 949 917
f 917 949 951
f 919 921 146
f 146 921 923
f 146 923 144
f 144 923 925
f 144 925 927
f 142 977 979
f 955 957 132
f 132 957 959
f 132 959 130
f 130 959 961
f 130 961 963
f 965 967 969
f 146 142 1231
f 1231 142 132
f 1231 132 1230
f 1230 132 128
f 1230 128 911
f 911 128 909
f 999 1001 116
f 116 1001 1005
f 116 1005 1260
f 1260 1005 1007
f 1260 1007 1009
f 929 931 933
f 977 142 975
f 975 142 141
f 975 141 973
f 889 1259 887
f 887 1259 1223
f 887 1223 885
f 885 1223 1226
f 885 1226 883
f 883 1226 1228
f 883 1228 881
f 881 1228 1230
f 881 1230 915
f 915 1230 913
f 941 114 939
f 939 114 113
f 939 113 937
f 979 981 142
f 142 981 983
f 142 983 132
f 132 983 985
f 132 985 953
f 953 985 987
f 963 965 130
f 130 965 969
f 130 969 141
f 141 969 971
f 141 971 973
f 927 929 144
f 144 929 933
f 144 933 113
f 113 933 935
f 113 935 937
f 899 127 897
f 897 127 1259
f 895 897 893
f 893 897 1259
f 893 1259 891
f 891 1259 889
f 899 901 127
f 127 901 903
f 127 903 128
f 128 903 905
f 128 905 907
f 1242 1259 127
f 1176 1241 1177
f 1177 1241 1242
f 130 141 131
f 131 141 143
f 127 129 1242
f 1242 129 131
f 1242 131 1177
f 1177 131 143
f 1177 143 1240
f 144 113 145
f 145 113 115
f 116 1260 117
f 117 1260 1239
f 117 1239 115
f 115 1239 1240
f 115 1240 145
f 145 1240 143

