mtllib material.mtl
usemtl grey.006
v -0.00240900 -0.01525000 0.00178800
v -0.00294600 -0.01525000 0.00056600
v -0.00290000 -0.01525000 -0.00076800
v 0.00240900 -0.01525000 -0.00178800
v 0.00294600 -0.01525000 -0.00056600
v 0.00290000 -0.01525000 0.00076800
v 0.00139400 -0.01525000 -0.00265600
v 0.00010400 -0.01525000 -0.00299800
v -0.00120700 -0.01525000 -0.00274600
v -0.00227900 -0.01525000 -0.00195100
v -0.00139400 -0.01525000 0.00265600
v -0.00010400 -0.01525000 0.00299800
v 0.00120700 -0.01525000 0.00274600
v 0.00227900 -0.01525000 0.00195100
v 0.00227900 0.01535000 0.00195100
v 0.00290000 0.01535000 0.00076800
v -0.00120700 0.01535000 -0.00274600
v 0.00120700 0.01535000 0.00274600
v -0.00227900 0.01535000 -0.00195100
v -0.00290000 0.01535000 -0.00076800
v 0.00010400 0.01535000 -0.00299800
v 0.00139400 0.01535000 -0.00265600
v 0.00240900 0.01535000 -0.00178800
v 0.00294600 0.01535000 -0.00056600
v -0.00139400 0.01535000 0.00265600
v -0.00010400 0.01535000 0.00299800
v -0.00240900 0.01535000 0.00178800
v -0.00294600 0.01535000 0.00056600
v -0.03525800 -0.01325000 0.04504700
v -0.03632500 -0.01325000 0.04577900
v -0.03761500 -0.01325000 0.04587900
v -0.03878300 -0.01325000 0.04532100
v -0.03951500 -0.01325000 0.04425400
v -0.03961500 -0.01325000 0.04296400
v -0.03905700 -0.01325000 0.04179600
v -0.03816400 -0.01325000 0.04113300
v -0.03474100 -0.01325000 0.04406200
v -0.03707100 -0.01325000 0.04092300
v -0.03599500 -0.01325000 0.04120800
v -0.03470200 -0.01325000 0.04295000
v -0.03515000 -0.01325000 0.04193100
v -0.03905700 0.01335000 0.04179600
v -0.03961500 0.01335000 0.04296400
v -0.03951500 0.01335000 0.04425400
v -0.03878300 0.01335000 0.04532100
v -0.03761500 0.01335000 0.04587900
v -0.03632500 0.01335000 0.04577900
v -0.03525800 0.01335000 0.04504700
v -0.03474100 0.01335000 0.04406200
v -0.03515000 0.01335000 0.04193100
v -0.03599500 0.01335000 0.04120800
v -0.03707100 0.01335000 0.04092300
v -0.03816400 0.01335000 0.04113300
v -0.03470200 0.01335000 0.04295000
vn -0.00000000 -1.00000000 -0.00000000
vn -0.00000000 -1.00000000 -0.00000000
vn -0.00000000 -1.00000000 -0.00000000
vn -0.00000000 -1.00000000 -0.00000000
vn -0.00000000 -1.00000000 -0.00000000
vn -0.00000000 -1.00000000 -0.00000000
vn -0.00000000 -1.00000000 -0.00000000
vn -0.00000000 -1.00000000 -0.00000000
vn -0.00000000 -1.00000000 -0.00000000
vn -0.00000000 -1.00000000 -0.00000000
vn -0.00000000 -1.00000000 -0.00000000
vn -0.00000000 -1.00000000 -0.00000000
vn -0.00000000 -1.00000000 -0.00000000
vn -0.00000000 -1.00000000 -0.00000000
vn -0.00000000 1.00000000 -0.00000000
vn -0.00000000 1.00000000 -0.00000000
vn -0.00000000 1.00000000 -0.00000000
vn -0.00000000 1.00000000 -0.00000000
vn -0.00000000 1.00000000 -0.00000000
vn -0.00000000 1.00000000 -0.00000000
vn -0.00000000 1.00000000 -0.00000000
vn -0.00000000 1.00000000 -0.00000000
vn -0.00000000 1.00000000 -0.00000000
vn -0.00000000 1.00000000 -0.00000000
vn -0.00000000 1.00000000 -0.00000000
vn -0.00000000 1.00000000 -0.00000000
vn -0.00000000 1.00000000 -0.00000000
vn -0.00000000 1.00000000 -0.00000000
vn -0.00000000 -1.00000000 -0.00000000
vn -0.00000000 -1.00000000 -0.00000000
vn -0.00000000 -1.00000000 -0.00000000
vn -0.00000000 -1.00000000 -0.00000000
vn -0.00000000 -1.00000000 -0.00000000
vn -0.00000000 -1.00000000 -0.00000000
vn -0.00000000 -1.00000000 -0.00000000
vn -0.00000000 -1.00000000 -0.00000000
vn -0.00000000 -1.00000000 -0.00000000
vn -0.00000000 -1.00000000 -0.00000000
vn -0.00000000 -1.00000000 -0.00000000
vn -0.00000000 -1.00000000 -0.00000000
vn -0.00000000 -1.00000000 -0.00000000
vn -0.00000000 1.00000000 -0.00000000
vn -0.00000000 1.00000000 -0.00000000
vn -0.00000000 1.00000000 -0.00000000
vn -0.00000000 1.00000000 -0.00000000
vn -0.00000000 1.00000000 -0.00000000
vn -0.00000000 1.00000000 -0.00000000
vn -0.00000000 1.00000000 -0.00000000
vn -0.00000000 1.00000000 -0.00000000
vn -0.00000000 1.00000000 -0.00000000
vn -0.00000000 1.00000000 -0.00000000
vn -0.00000000 1.00000000 -0.00000000
vn -0.00000000 1.00000000 -0.00000000
vn -0.00000000 1.00000000 -0.00000000
f 1//1 2//2 3//3
f 4//4 5//5 6//6
f 7//7 4//4 8//8
f 8//8 4//4 1//1
f 8//8 1//1 9//9
f 9//9 1//1 3//3
f 9//9 3//3 10//10
f 11//11 1//1 12//12
f 12//12 1//1 4//4
f 12//12 4//4 13//13
f 13//13 4//4 6//6
f 13//13 6//6 14//14
f 15//15 16//16 17//17
f 15//15 17//17 18//18
f 18//18 17//17 19//19
f 18//18 19//19 20//20
f 21//21 17//17 22//22
f 22//22 17//17 16//16
f 22//22 16//16 23//23
f 23//23 16//16 24//24
f 25//25 26//26 27//27
f 27//27 26//26 18//18
f 27//27 18//18 28//28
f 28//28 18//18 20//20
f 35//35 36//36 37//37
f 36//36 38//38 39//39
f 29//29 30//30 31//31
f 37//37 36//36 40//40
f 40//40 36//36 39//39
f 40//40 39//39 41//41
f 35//35 37//37 34//34
f 34//34 37//37 29//29
f 34//34 29//29 33//33
f 33//33 29//29 31//31
f 33//33 31//31 32//32
f 48//48 49//49 43//43
f 50//50 51//51 52//52
f 42//42 43//43 53//53
f 53//53 43//43 49//49
f 53//53 49//49 52//52
f 52//52 49//49 54//54
f 52//52 54//54 50//50
f 46//46 47//47 45//45
f 45//45 47//47 48//48
f 45//45 48//48 44//44
f 44//44 48//48 43//43

