# https://github.com/mikedh/trimesh
v 0.00689850 0.01268225 0.01309161
v 0.00689850 0.01266895 0.01294821
v 0.00680534 0.01258914 0.01309161
v 0.00689850 -0.00859105 0.01309161
v 0.00689850 0.01265033 0.01277928
v 0.00682446 0.01257584 0.01277928
v 0.00648020 0.01221140 0.01277928
v 0.00647032 0.01222470 0.01309161
v 0.00558780 -0.00680076 0.01309161
v 0.00689850 -0.01301755 0.01281155
v 0.00689850 0.01252796 0.01213096
v 0.00654436 0.01213958 0.01186883
v 0.00650150 0.01218480 0.01235553
v 0.00586867 0.01134153 0.01162676
v 0.00584480 0.01136281 0.01204923
v 0.00628953 0.01199327 0.01309161
v 0.00558780 -0.00787014 0.01162676
v 0.00608385 -0.01358682 0.01162676
v 0.00610386 -0.01374909 0.01162676
v 0.00558780 0.01104093 0.01309161
v 0.00689850 -0.01378368 0.01252188
v 0.00689850 0.01239761 0.01162676
v 0.00672181 0.01224598 0.01162676
v 0.00657746 0.01211297 0.01162676
v 0.00603766 0.01154104 0.01162676
v 0.00558780 0.01099039 0.01162676
v 0.00558780 0.01102231 0.01204923
v 0.00582992 0.01137611 0.01277928
v 0.00596170 0.01155966 0.01309161
v 0.00636293 -0.01424654 0.01162676
v 0.00582851 0.01137611 0.01309161
v 0.00558780 0.01103827 0.01277928
v 0.00645800 -0.01437955 0.01162676
v 0.00689850 -0.01428911 0.01200047
v 0.00689850 -0.01448862 0.01162676
v 0.00688464 -0.01448596 0.01162676
v 0.00689850 -0.01433433 0.01191586
f 1 2 3
f 1 3 8
f 1 8 16
f 1 16 29
f 1 29 31
f 1 31 20
f 1 20 9
f 1 9 4
f 1 4 10
f 1 10 21
f 1 21 34
f 1 34 37
f 1 37 35
f 1 35 22
f 1 22 11
f 1 11 5
f 1 5 2
f 2 5 6
f 2 6 3
f 3 6 7
f 3 7 8
f 4 9 10
f 5 11 12
f 5 12 13
f 5 13 6
f 6 13 7
f 7 13 14
f 7 14 15
f 7 15 8
f 8 15 16
f 9 17 18
f 9 18 19
f 9 19 10
f 9 20 32
f 9 32 27
f 9 27 26
f 9 26 17
f 10 19 21
f 11 22 23
f 11 23 24
f 11 24 12
f 12 24 25
f 12 25 13
f 13 25 14
f 14 25 24
f 14 24 23
f 14 23 22
f 14 22 35
f 14 35 36
f 14 36 33
f 14 33 30
f 14 30 19
f 14 19 18
f 14 18 17
f 14 17 26
f 14 26 15
f 15 27 28
f 15 28 16
f 15 26 27
f 16 28 29
f 19 30 21
f 20 31 28
f 20 28 32
f 21 30 33
f 21 33 34
f 27 32 28
f 28 31 29
f 33 36 34
f 34 36 37
f 35 37 36

