# https://github.com/mikedh/trimesh
v 0.00614558 0.01635157 0.05576389
v 0.00614558 0.01635157 0.05148157
v -0.00042627 0.01635157 0.05576389
v 0.00687434 0.01631122 0.05576389
v 0.00614558 0.01626696 0.05075207
v 0.00103450 0.01635157 0.05148157
v 0.00687434 0.01631122 0.05148157
v 0.00687434 0.01622922 0.05075207
v -0.00042627 0.01635157 0.05294291
v -0.00115665 0.01634896 0.05576389
v 0.00746352 0.01604829 0.05576389
v 0.00614558 0.01600404 0.05002491
v 0.00176489 0.01626696 0.05075207
v 0.00687434 0.01598582 0.05004127
v 0.00103450 0.01625915 0.05075207
v 0.00030412 0.01633985 0.05148157
v -0.00042627 0.01634636 0.05221224
v -0.00115665 0.01634896 0.05294291
v 0.00746352 0.01604829 0.05148157
v 0.01389903 0.01297262 0.04382180
v 0.01374646 0.01303119 0.04382180
v 0.01348027 0.01311970 0.04382180
v 0.01307613 0.01319909 0.04382180
v -0.00186269 0.01608604 0.05576389
v 0.00775243 0.01553937 0.05576389
v 0.01309723 0.01291925 0.04678307
v 0.01381138 0.01290363 0.04454546
v 0.01387306 0.01295570 0.04405796
v 0.00249527 0.01600404 0.05002491
v 0.01271743 0.01323294 0.04382180
v 0.00942420 0.01327979 0.04382180
v 0.00176489 0.01600404 0.05004712
v 0.00103450 0.01599623 0.05013363
v 0.00024082 0.01609125 0.05068543
v -0.00042627 0.01622661 0.05148157
v -0.00115665 0.01626436 0.05221224
v -0.00186269 0.01608604 0.05294291
v 0.01412626 0.01257303 0.04382180
v -0.00222789 0.01563699 0.05576389
v 0.00779625 0.01545997 0.05576389
v 0.01298848 0.01272531 0.04726940
v 0.01317189 0.01250404 0.04705663
v 0.01338289 0.01253918 0.04637155
v 0.01382923 0.01222680 0.04532991
v 0.01389091 0.01239601 0.04491138
v 0.01399966 0.01261207 0.04425319
v 0.00906550 0.01327979 0.04382180
v 0.00869381 0.01327849 0.04382180
v 0.00833511 0.01327589 0.04382180
v 0.00044208 0.01593375 0.05026106
v 0.00796343 0.01321862 0.04382180
v 0.00760473 0.01314573 0.04382180
v -0.00042627 0.01596890 0.05092159
v -0.00110309 0.01598582 0.05151547
v -0.00159813 0.01589210 0.05178085
v -0.00174908 0.01600534 0.05221224
v -0.00222789 0.01563699 0.05294291
v 0.01429343 0.01180899 0.04382180
v -0.00226359 0.01532200 0.05576389
v 0.00845522 0.01399307 0.05576389
v 0.01310372 0.01223851 0.04750555
v 0.01383735 0.01180899 0.04535680
v 0.01418956 0.01180899 0.04418071
v 0.01353059 0.01180899 0.04637155
v -0.00004485 0.01575153 0.05039667
v 0.00736451 0.01304420 0.04382180
v 0.00717623 0.01296090 0.04382180
v -0.00082392 0.01585566 0.05108993
v -0.00166468 0.01545997 0.05172357
v -0.00206558 0.01545737 0.05226836
v -0.00226359 0.01521267 0.05254894
v -0.00226846 0.01527124 0.05294291
v 0.01375620 0.00305443 0.04576013
v 0.01429506 0.00340587 0.04382180
v -0.00226846 0.01527124 0.05576389
v 0.00865973 0.01340605 0.05576389
v 0.01311508 0.01180899 0.04752660
v 0.01328388 0.01180899 0.04710222
v 0.00868083 0.01332925 0.05576389
v 0.00869868 0.01323163 0.05576389
v 0.00872465 0.01296220 0.05576389
v 0.00876523 0.01253918 0.05576389
v 0.01330011 0.00888950 0.04710222
v 0.01356305 0.00450702 0.04637155
v 0.00699769 0.01253918 0.04382180
v -0.00169389 0.01472977 0.05170019
v -0.00205746 0.01472977 0.05216899
v 0.00693439 0.01218124 0.04382180
v 0.00688246 0.01180899 0.04382180
v -0.00226846 0.01472977 0.05253374
v -0.00228632 0.01472977 0.05294291
v 0.01429506 0.00305443 0.04382180
v 0.01356792 0.00305443 0.04637155
v -0.00228632 0.01472977 0.05576389
v 0.01311995 0.00961970 0.04753712
v 0.01330336 0.00815930 0.04710222
v 0.00876523 0.00305443 0.05576389
v 0.01293654 0.00305443 0.04790187
v 0.01312320 0.00815930 0.04754296
v 0.01312157 0.00888950 0.04754062
v -0.00169389 0.01253918 0.05170019
v 0.00687434 0.00305443 0.04382180
v -0.00205746 0.01253918 0.05216899
v -0.00226846 0.01253918 0.05253374
v -0.00228632 0.01253918 0.05294291
v 0.01330498 0.00742911 0.04710222
v 0.01330336 0.00596871 0.04710222
v 0.01329849 0.00450702 0.04710222
v 0.01329362 0.00305443 0.04710222
v -0.00228632 0.01253918 0.05576389
v 0.00317534 0.00305443 0.05576389
v 0.01311508 0.00305443 0.04753712
v 0.01311670 0.00377682 0.04753829
v 0.01312157 0.00669891 0.04754296
v -0.00167279 0.01180899 0.05170837
v 0.00348697 0.00305443 0.04736526
v -0.00205909 0.01183892 0.05226836
v -0.00226359 0.01210315 0.05254894
v -0.00226846 0.01206800 0.05294291
v -0.00226846 0.01207321 0.05513376
v -0.00226846 0.01207582 0.05576389
v -0.00219380 0.01171007 0.05576389
v -0.00219705 0.01170616 0.05440309
v -0.00219867 0.01170356 0.05294291
v 0.00317210 0.00305443 0.04930008
v -0.00160787 0.01134041 0.05176098
v 0.00348373 0.00305443 0.04737111
v 0.00327922 0.00305443 0.04783172
v -0.00219542 0.01170876 0.05513376
v 0.00327760 0.00305443 0.04783991
v 0.00317372 0.00305443 0.04856239
v 0.00317210 0.00305443 0.04929190
f 1 2 6
f 1 6 9
f 1 9 3
f 1 3 10
f 1 10 24
f 1 24 39
f 1 39 59
f 1 59 75
f 1 75 94
f 1 94 110
f 1 110 121
f 1 121 122
f 1 122 111
f 1 111 97
f 1 97 82
f 1 82 81
f 1 81 80
f 1 80 79
f 1 79 76
f 1 76 60
f 1 60 40
f 1 40 25
f 1 25 11
f 1 11 4
f 1 4 7
f 1 7 2
f 2 5 13
f 2 13 6
f 2 7 8
f 2 8 5
f 3 9 18
f 3 18 10
f 4 11 19
f 4 19 7
f 5 12 29
f 5 29 13
f 5 8 14
f 5 14 12
f 6 13 15
f 6 15 16
f 6 16 17
f 6 17 18
f 6 18 9
f 7 19 20
f 7 20 21
f 7 21 8
f 8 21 22
f 8 22 23
f 8 23 14
f 10 18 37
f 10 37 24
f 11 25 26
f 11 26 27
f 11 27 28
f 11 28 20
f 11 20 19
f 12 14 30
f 12 30 31
f 12 31 47
f 12 47 29
f 13 29 15
f 14 23 30
f 15 29 32
f 15 32 33
f 15 33 34
f 15 34 35
f 15 35 16
f 16 35 36
f 16 36 17
f 17 36 18
f 18 36 37
f 20 28 38
f 20 38 58
f 20 58 74
f 20 74 92
f 20 92 102
f 20 102 89
f 20 89 88
f 20 88 85
f 20 85 67
f 20 67 66
f 20 66 52
f 20 52 51
f 20 51 49
f 20 49 48
f 20 48 47
f 20 47 31
f 20 31 30
f 20 30 23
f 20 23 22
f 20 22 21
f 24 37 57
f 24 57 39
f 25 40 26
f 26 41 42
f 26 42 43
f 26 43 27
f 26 40 41
f 27 43 44
f 27 44 45
f 27 45 46
f 27 46 38
f 27 38 28
f 29 47 48
f 29 48 49
f 29 49 32
f 32 49 33
f 33 50 34
f 33 49 51
f 33 51 52
f 33 52 50
f 34 53 35
f 34 50 53
f 35 53 54
f 35 54 36
f 36 54 55
f 36 55 56
f 36 56 37
f 37 56 57
f 38 46 45
f 38 45 44
f 38 44 58
f 39 57 59
f 40 60 61
f 40 61 41
f 41 61 42
f 42 61 44
f 42 44 43
f 44 62 63
f 44 63 58
f 44 61 64
f 44 64 62
f 50 65 53
f 50 52 66
f 50 66 67
f 50 67 65
f 53 68 55
f 53 55 54
f 53 65 68
f 55 69 70
f 55 70 56
f 55 68 69
f 56 70 57
f 57 71 72
f 57 72 59
f 57 70 71
f 58 63 73
f 58 73 74
f 59 72 75
f 60 76 61
f 61 77 78
f 61 78 64
f 61 76 79
f 61 79 80
f 61 80 81
f 61 81 82
f 61 82 77
f 62 73 63
f 62 64 73
f 64 78 83
f 64 83 96
f 64 96 84
f 64 84 73
f 65 69 68
f 65 67 85
f 65 85 69
f 69 86 87
f 69 87 70
f 69 85 88
f 69 88 89
f 69 89 86
f 70 87 71
f 71 90 91
f 71 91 72
f 71 87 90
f 72 91 94
f 72 94 75
f 73 92 74
f 73 84 93
f 73 93 109
f 73 109 112
f 73 112 98
f 73 98 97
f 73 97 111
f 73 111 125
f 73 125 132
f 73 132 131
f 73 131 130
f 73 130 128
f 73 128 127
f 73 127 116
f 73 116 102
f 73 102 92
f 77 95 96
f 77 96 83
f 77 83 78
f 77 82 95
f 82 97 98
f 82 98 99
f 82 99 100
f 82 100 95
f 84 96 93
f 86 101 103
f 86 103 87
f 86 89 102
f 86 102 101
f 87 103 104
f 87 104 90
f 90 104 105
f 90 105 91
f 91 105 110
f 91 110 94
f 93 96 106
f 93 106 107
f 93 107 108
f 93 108 109
f 95 100 96
f 96 100 99
f 96 99 106
f 98 112 113
f 98 113 114
f 98 114 99
f 99 114 107
f 99 107 106
f 101 115 103
f 101 102 115
f 102 116 115
f 103 115 117
f 103 117 118
f 103 118 104
f 104 118 105
f 105 118 119
f 105 119 110
f 107 114 113
f 107 113 112
f 107 112 108
f 108 112 109
f 110 119 120
f 110 120 121
f 111 122 123
f 111 123 124
f 111 124 125
f 115 126 117
f 115 116 126
f 116 127 117
f 116 117 126
f 117 127 128
f 117 128 118
f 118 128 124
f 118 124 119
f 119 124 120
f 120 124 121
f 121 124 123
f 121 123 129
f 121 129 122
f 122 129 123
f 124 128 130
f 124 130 131
f 124 131 132
f 124 132 125

