# https://github.com/mikedh/trimesh
v 0.00687460 -0.00498554 0.04382180
v 0.00694903 -0.00717584 0.03483411
v 0.00694993 -0.00775873 0.03483411
v 0.00687550 -0.00534323 0.04382180
v 0.00687550 0.00231616 0.04382180
v 0.00694903 0.01180816 0.03483411
v 0.00695441 -0.00790667 0.03483411
v 0.00687819 -0.00571638 0.04382180
v 0.00688357 0.01107733 0.04382180
v 0.00688447 0.01180816 0.04382180
v 0.00693558 0.01218130 0.04382180
v 0.00699835 0.01253899 0.04382180
v 0.00697504 0.01195609 0.03483411
v 0.00696786 -0.00790667 0.03541740
v 0.00708354 -0.00853373 0.03483411
v 0.00696607 -0.00612043 0.04382180
v 0.00722432 0.01292097 0.03483411
v 0.00707816 0.01253899 0.03483411
v 0.00717679 0.01296071 0.04382180
v 0.00700194 -0.00790667 0.03614760
v 0.00711133 -0.00865296 0.03483411
v 0.00707636 -0.00650903 0.04382180
v 0.00752920 0.01305345 0.03483411
v 0.00736600 0.01304241 0.04382180
v 0.00727633 -0.00897532 0.03483411
v 0.00721984 -0.00829527 0.03735288
v 0.00718755 -0.00833943 0.03687781
v 0.00726198 -0.00679386 0.04382180
v 0.00760632 0.01308656 0.03483411
v 0.00760632 0.01314397 0.04382180
v 0.00729337 -0.00895986 0.03494232
v 0.00741083 -0.00903935 0.03483411
v 0.00729426 -0.00681152 0.04382180
v 0.00796500 0.01321904 0.04382180
v 0.00818917 0.01320359 0.03483411
v 0.00754534 -0.00693958 0.04382180
v 0.00761170 -0.00912767 0.03483411
v 0.00833713 0.01323229 0.03483411
v 0.00833713 0.01327424 0.04382180
v 0.00833713 -0.00709635 0.04382180
v 0.00780538 -0.00906364 0.03541740
v 0.00794168 -0.00901065 0.03582209
v 0.00833713 -0.00927339 0.03483411
v 0.00869491 0.01327645 0.04382180
v 0.00906705 0.01327866 0.04382180
v 0.01417826 0.01323229 0.03483411
v 0.01344745 -0.00753794 0.04161095
v 0.01271753 -0.00697712 0.04382180
v 0.01286459 -0.00927339 0.03483411
v 0.01344745 -0.00901727 0.03584144
v 0.01417826 -0.00856022 0.03760801
v 0.00942573 0.01327866 0.04382180
v 0.01476112 0.01321021 0.03483411
v 0.01417826 0.01323229 0.03687781
v 0.01344745 -0.00743417 0.04198925
v 0.01414688 -0.00835268 0.03839277
v 0.01437016 -0.00825994 0.03867165
v 0.01344745 -0.00722662 0.04271945
v 0.01344745 -0.00690867 0.04382180
v 0.01344745 -0.00926235 0.03483411
v 0.01344745 -0.00912104 0.03541740
v 0.01394512 -0.00901065 0.03582209
v 0.01417826 -0.00874128 0.03687781
v 0.01443203 -0.00899298 0.03574555
v 0.01490818 -0.00904818 0.03525200
v 0.01468938 -0.00833501 0.03818514
v 0.01344745 0.01323229 0.04052884
v 0.01271753 0.01323229 0.04382180
v 0.01344745 0.01323008 0.04125904
v 0.01417826 0.01322787 0.03760801
v 0.01490818 0.01319917 0.03483411
v 0.01402134 -0.00760197 0.04112796
v 0.01380882 -0.00682477 0.04382180
v 0.01358644 -0.00925573 0.03483411
v 0.01417916 -0.00922040 0.03483411
v 0.01418454 -0.00907468 0.03546842
v 0.01436836 -0.00920053 0.03483411
v 0.01490818 -0.00913650 0.03483411
v 0.01504358 -0.00911663 0.03483411
v 0.01529824 -0.00901727 0.03511212
v 0.01530004 -0.00829968 0.03733177
v 0.01450825 -0.00752248 0.04086051
v 0.01382586 -0.00682035 0.04382180
v 0.01307531 0.01319917 0.04382180
v 0.01344745 0.01321904 0.04198925
v 0.01417826 0.01321242 0.03833822
v 0.01537715 0.01306669 0.03483411
v 0.01344745 0.01319696 0.04271945
v 0.01417826 0.01318813 0.03906843
v 0.01417826 0.01316164 0.03979775
v 0.01490818 0.01315060 0.03614760
v 0.01534667 -0.00904376 0.03483411
v 0.01562644 -0.00873907 0.03483411
v 0.01572777 -0.00862205 0.03483411
v 0.01587662 -0.00827319 0.03483411
v 0.01572239 -0.00790667 0.03614760
v 0.01555560 -0.00790667 0.03687781
v 0.01538702 -0.00791771 0.03758866
v 0.01533142 -0.00768146 0.03819746
v 0.01459702 -0.00690205 0.04181506
v 0.01452349 -0.00673866 0.04230245
v 0.01408859 -0.00645383 0.04382180
v 0.01348152 0.01311968 0.04382180
v 0.01344745 0.01316605 0.04344966
v 0.01490818 0.01311527 0.03687781
v 0.01548207 0.01303357 0.03483411
v 0.01417826 0.01312852 0.04052884
v 0.01601381 -0.00790667 0.03483411
v 0.01598512 -0.00790667 0.03497400
v 0.01526776 -0.00748053 0.03868485
v 0.01457550 -0.00625070 0.04252679
v 0.01433249 -0.00571638 0.04382180
v 0.01374605 0.01303137 0.04382180
v 0.01394153 0.01300045 0.04344966
v 0.01401775 0.01303357 0.04271945
v 0.01410563 0.01305565 0.04198925
v 0.01461227 0.01296513 0.04052884
v 0.01537267 0.01298500 0.03614760
v 0.01587034 0.01254341 0.03483411
v 0.01532335 0.01294967 0.03687781
v 0.01603534 -0.00717584 0.03483411
v 0.01565603 -0.00717584 0.03687781
v 0.01551883 -0.00717584 0.03760801
v 0.01535294 -0.00721116 0.03839980
v 0.01497453 -0.00644500 0.04052884
v 0.01452349 -0.00571638 0.04297811
v 0.01442306 -0.00571638 0.04344966
v 0.01433518 -0.00498554 0.04382180
v 0.01389939 0.01297175 0.04382180
v 0.01457371 0.01293201 0.04108573
v 0.01528928 0.01292097 0.03734057
v 0.01538164 0.01257211 0.03759394
v 0.01532873 0.01234248 0.03833822
v 0.01528748 0.01221884 0.03878162
v 0.01601830 0.01200908 0.03483411
v 0.01603534 -0.00678944 0.03483411
v 0.01470732 -0.00571638 0.04198925
v 0.01565603 0.01180816 0.03687781
v 0.01452349 0.01180816 0.04297811
v 0.01440244 0.01180816 0.04344966
v 0.01429483 0.01180816 0.04382180
v 0.01412715 0.01257211 0.04382180
v 0.01452797 0.01288343 0.04157312
v 0.01462482 0.01241535 0.04198925
v 0.01457550 0.01227404 0.04252679
v 0.01592683 0.01180816 0.03541740
v 0.01603444 0.01180816 0.03483411
v 0.01470732 0.01180816 0.04198925
v 0.01423655 0.01253899 0.04344966
f 1 2 3
f 1 3 4
f 1 4 8
f 1 8 16
f 1 16 22
f 1 22 28
f 1 28 33
f 1 33 36
f 1 36 40
f 1 40 48
f 1 48 59
f 1 59 73
f 1 73 83
f 1 83 102
f 1 102 112
f 1 112 128
f 1 128 141
f 1 141 142
f 1 142 129
f 1 129 113
f 1 113 103
f 1 103 84
f 1 84 68
f 1 68 52
f 1 52 45
f 1 45 44
f 1 44 39
f 1 39 34
f 1 34 30
f 1 30 24
f 1 24 19
f 1 19 12
f 1 12 11
f 1 11 10
f 1 10 9
f 1 9 5
f 1 5 6
f 1 6 2
f 2 6 13
f 2 13 18
f 2 18 17
f 2 17 23
f 2 23 29
f 2 29 35
f 2 35 38
f 2 38 46
f 2 46 53
f 2 53 71
f 2 71 87
f 2 87 106
f 2 106 119
f 2 119 135
f 2 135 147
f 2 147 136
f 2 136 121
f 2 121 108
f 2 108 95
f 2 95 94
f 2 94 93
f 2 93 92
f 2 92 79
f 2 79 78
f 2 78 77
f 2 77 75
f 2 75 74
f 2 74 60
f 2 60 49
f 2 49 43
f 2 43 37
f 2 37 32
f 2 32 25
f 2 25 21
f 2 21 15
f 2 15 7
f 2 7 3
f 3 7 8
f 3 8 4
f 5 9 6
f 6 9 10
f 6 10 11
f 6 11 12
f 6 12 13
f 7 14 8
f 7 15 14
f 8 14 16
f 12 17 18
f 12 18 13
f 12 19 17
f 14 15 20
f 14 20 16
f 15 21 20
f 16 20 21
f 16 21 22
f 17 19 23
f 19 24 23
f 21 25 26
f 21 26 27
f 21 27 22
f 22 27 26
f 22 26 28
f 23 24 29
f 24 30 29
f 25 31 28
f 25 28 26
f 25 32 31
f 28 31 33
f 29 30 34
f 29 34 35
f 31 32 36
f 31 36 33
f 32 37 36
f 34 38 35
f 34 39 38
f 36 37 41
f 36 41 42
f 36 42 40
f 37 43 41
f 38 39 44
f 38 44 45
f 38 45 52
f 38 52 46
f 40 47 48
f 40 42 43
f 40 43 49
f 40 49 50
f 40 50 51
f 40 51 47
f 41 43 42
f 46 52 54
f 46 54 53
f 47 55 48
f 47 51 56
f 47 56 57
f 47 57 55
f 48 55 58
f 48 58 59
f 49 60 61
f 49 61 50
f 50 61 62
f 50 62 51
f 51 62 63
f 51 63 64
f 51 64 65
f 51 65 66
f 51 66 57
f 51 57 56
f 52 67 54
f 52 68 69
f 52 69 67
f 53 70 71
f 53 54 70
f 54 67 69
f 54 69 70
f 55 57 58
f 57 66 72
f 57 72 59
f 57 59 58
f 59 72 73
f 60 74 62
f 60 62 61
f 62 64 63
f 62 74 75
f 62 75 76
f 62 76 64
f 64 76 75
f 64 75 77
f 64 77 65
f 65 77 78
f 65 78 79
f 65 79 80
f 65 80 66
f 66 80 81
f 66 81 82
f 66 82 83
f 66 83 72
f 68 84 85
f 68 85 69
f 69 85 70
f 70 85 86
f 70 86 71
f 71 86 88
f 71 88 89
f 71 89 90
f 71 90 91
f 71 91 87
f 72 83 73
f 79 92 80
f 80 92 93
f 80 93 81
f 81 93 94
f 81 94 95
f 81 95 96
f 81 96 97
f 81 97 98
f 81 98 99
f 81 99 100
f 81 100 82
f 82 100 101
f 82 101 83
f 83 101 102
f 84 103 104
f 84 104 88
f 84 88 85
f 85 88 86
f 87 91 105
f 87 105 106
f 88 104 90
f 88 90 89
f 90 104 107
f 90 107 91
f 91 107 105
f 95 108 109
f 95 109 96
f 96 109 99
f 96 99 97
f 97 99 98
f 99 109 110
f 99 110 101
f 99 101 100
f 101 111 112
f 101 112 102
f 101 110 111
f 103 113 104
f 104 113 114
f 104 114 115
f 104 115 116
f 104 116 107
f 105 107 116
f 105 116 117
f 105 117 118
f 105 118 106
f 106 118 120
f 106 120 119
f 108 121 122
f 108 122 123
f 108 123 110
f 108 110 109
f 110 123 124
f 110 124 111
f 111 125 126
f 111 126 127
f 111 127 112
f 111 124 125
f 112 127 128
f 113 129 114
f 114 129 130
f 114 130 115
f 115 130 117
f 115 117 116
f 117 130 120
f 117 120 118
f 119 131 132
f 119 132 133
f 119 133 134
f 119 134 135
f 119 120 131
f 120 130 131
f 121 136 138
f 121 138 122
f 122 137 126
f 122 126 123
f 122 138 148
f 122 148 137
f 123 126 125
f 123 125 124
f 126 137 148
f 126 148 139
f 126 139 127
f 127 139 128
f 128 139 140
f 128 140 141
f 129 142 143
f 129 143 130
f 130 143 131
f 131 143 132
f 132 143 144
f 132 144 133
f 133 144 145
f 133 145 134
f 134 138 146
f 134 146 147
f 134 147 135
f 134 145 139
f 134 139 148
f 134 148 138
f 136 147 146
f 136 146 138
f 139 145 140
f 140 145 141
f 141 145 142
f 142 145 149
f 142 149 143
f 143 149 145
f 143 145 144

