# https://github.com/mikedh/trimesh
v -0.01663107 -0.00863778 0.01140165
v -0.01663107 -0.00790734 0.01139356
v -0.01868294 -0.00863778 0.01140165
v -0.01941281 -0.01103164 0.01140165
v -0.01663107 -0.00936736 0.01125954
v -0.01722272 -0.00790734 0.01139356
v -0.01663107 -0.00732084 0.01121217
v -0.01941281 -0.00936736 0.01140165
v -0.01795306 -0.00790734 0.01138547
v -0.01941281 -0.00863778 0.01138547
v -0.02014316 -0.01103164 0.01139125
v -0.01868294 -0.01103164 0.01126993
v -0.01663107 -0.00982027 0.01103539
v -0.01722272 -0.00718337 0.01116942
v -0.01663107 -0.00718337 0.01116942
v -0.02014316 -0.01009780 0.01138201
v -0.02014316 -0.01082824 0.01139125
v -0.01868294 -0.00790734 0.01136005
v -0.01795306 -0.00721655 0.01116133
v -0.01941281 -0.00790734 0.01125492
v -0.02014316 -0.00863778 0.01125260
v -0.02014316 -0.00936736 0.01135659
v -0.02085249 -0.01082824 0.01116711
v -0.02085062 -0.01103164 0.01116711
v -0.01823511 -0.01103164 0.01104695
v -0.01663107 -0.00992241 0.01058826
v -0.01663107 -0.00688731 0.01098340
v -0.01722272 -0.00681793 0.01093950
v -0.02082213 -0.01009780 0.01115786
v -0.01868294 -0.00729153 0.01113591
v -0.01941281 -0.00742728 0.01104579
v -0.01979573 -0.00752855 0.01096607
v -0.02008105 -0.00797112 0.01104579
v -0.02052000 -0.00825726 0.01096492
v -0.02061947 -0.00863778 0.01104348
v -0.02075256 -0.00936736 0.01113245
v -0.02121766 -0.01082824 0.01090484
v -0.02121579 -0.01103164 0.01089906
v -0.01813985 -0.01103164 0.01058826
v -0.01663107 -0.00993620 0.00985807
v -0.01663107 -0.00681793 0.01093950
v -0.01722272 -0.00672097 0.01057440
v -0.01795306 -0.00675028 0.01047157
v -0.01795306 -0.00685111 0.01083667
v -0.01865819 -0.00692998 0.01057325
v -0.01941281 -0.00720922 0.01058826
v -0.01986344 -0.00746348 0.01058826
v -0.02022861 -0.00782417 0.01058826
v -0.02058445 -0.00818918 0.01058826
v -0.02083334 -0.00863778 0.01058826
v -0.02111259 -0.00940313 0.01056169
v -0.02118731 -0.01009780 0.01080432
v -0.02129191 -0.01009780 0.01043922
v -0.02131993 -0.01082824 0.01053974
v -0.02124474 -0.01103164 0.01079739
v -0.01813051 -0.01103164 0.01006142
v -0.01812724 -0.01103164 0.00985807
v -0.01663107 -0.00993663 0.00401651
v -0.01663107 -0.00672097 0.01057440
v -0.01722272 -0.00662961 0.00985807
v -0.01795306 -0.00668865 0.00985807
v -0.01839809 -0.00679078 0.01032022
v -0.01941281 -0.00710623 0.00985807
v -0.01992181 -0.00740573 0.00985807
v -0.02028699 -0.00776341 0.00985807
v -0.02064329 -0.00812884 0.00985807
v -0.02093561 -0.00863778 0.00985807
v -0.02125548 -0.00967031 0.01030058
v -0.02134514 -0.01009780 0.00985807
v -0.02140165 -0.01082824 0.00985807
v -0.02131853 -0.01103164 0.01053396
v -0.01812724 -0.01103164 0.00401651
v -0.01813845 -0.01103164 0.00328631
v -0.01663107 -0.00993447 0.00387786
v -0.01663107 -0.00662961 0.00985807
v -0.01722272 -0.00662961 0.00109572
v -0.01843825 -0.00678001 0.00985807
v -0.01795306 -0.00668865 0.00109572
v -0.01880342 -0.00687783 0.00985807
v -0.01941281 -0.00710623 0.00109572
v -0.01992181 -0.00740573 0.00109572
v -0.02028699 -0.00776341 0.00109572
v -0.02064329 -0.00812884 0.00109572
v -0.02116582 -0.00927384 0.00985807
v -0.02093561 -0.00863778 0.00109572
v -0.02126342 -0.00963885 0.00985807
v -0.02134514 -0.01009780 0.00109572
v -0.02139838 -0.01103164 0.00985807
v -0.02140165 -0.01082824 0.00109572
v -0.01819168 -0.01103164 0.00294779
v -0.01663107 -0.00992327 0.00328631
v -0.01663107 -0.00662961 0.00109572
v -0.01722272 -0.00672097 0.00040943
v -0.01795306 -0.00675028 0.00050302
v -0.01843825 -0.00678001 0.00109572
v -0.01839809 -0.00679078 0.00064166
v -0.01880342 -0.00687783 0.00109572
v -0.01941281 -0.00722474 0.00036553
v -0.01985410 -0.00747080 0.00036553
v -0.02021881 -0.00783365 0.00036553
v -0.02057698 -0.00819866 0.00036553
v -0.02116582 -0.00927384 0.00109572
v -0.02081606 -0.00863778 0.00036553
v -0.02125548 -0.00967031 0.00066130
v -0.02126342 -0.00963885 0.00109572
v -0.02129191 -0.01009780 0.00053421
v -0.02139838 -0.01103164 0.00109572
v -0.02131993 -0.01082824 0.00044178
v -0.02131853 -0.01103164 0.00044641
v -0.02137736 -0.01103164 0.00091780
v -0.01663107 -0.00991292 0.00320428
v -0.01896032 -0.01103164 -0.00010586
v -0.01663107 -0.00672097 0.00040943
v -0.01722272 -0.00683474 0.00004434
v -0.01795306 -0.00686878 0.00013792
v -0.01865819 -0.00694377 0.00038517
v -0.01978312 -0.00753846 -0.00000303
v -0.02051020 -0.00827019 -0.00000072
v -0.02109812 -0.00940313 0.00039672
v -0.02117050 -0.01009780 0.00016911
v -0.02120038 -0.01082824 0.00007553
v -0.02128490 -0.01103164 0.00034358
v -0.01663107 -0.00982113 0.00281838
v -0.01927926 -0.01103164 -0.00025144
v -0.01663107 -0.00908208 -0.00009315
v -0.01663107 -0.00683474 0.00004434
v -0.01722272 -0.00719974 -0.00019252
v -0.01795306 -0.00723379 -0.00018327
v -0.01868294 -0.00730877 -0.00015786
v -0.01941281 -0.00744322 -0.00007351
v -0.01941281 -0.00790734 -0.00025953
v -0.02007311 -0.00797888 -0.00007120
v -0.02014316 -0.00863778 -0.00025722
v -0.02060219 -0.00863778 -0.00007120
v -0.02073434 -0.00936736 -0.00015786
v -0.02119851 -0.01103164 0.00008131
v -0.02080532 -0.01009780 -0.00018212
v -0.02083521 -0.01082824 -0.00019021
v -0.02083334 -0.01103164 -0.00018905
v -0.02109671 -0.01103164 0.00000274
v -0.01941281 -0.01103164 -0.00030690
v -0.01663107 -0.00900365 -0.00013128
v -0.01663107 -0.00719974 -0.00019252
v -0.01663107 -0.00777289 -0.00035542
v -0.01722272 -0.00790734 -0.00039355
v -0.01795306 -0.00790734 -0.00038431
v -0.01868294 -0.00790734 -0.00035889
v -0.01941281 -0.00863778 -0.00038546
v -0.02014316 -0.00936736 -0.00035773
v -0.02014316 -0.01009780 -0.00038315
v -0.02014316 -0.01082824 -0.00039124
v -0.02064235 -0.01103164 -0.00024566
v -0.01663107 -0.00863778 -0.00029419
v -0.01993956 -0.01103164 -0.00037275
v -0.01663107 -0.00849859 -0.00031845
v -0.01663107 -0.00790734 -0.00039355
v -0.01868294 -0.00863778 -0.00040164
v -0.01941281 -0.00936736 -0.00040164
v -0.02014316 -0.01103164 -0.00039009
f 1 2 6
f 1 6 3
f 1 3 8
f 1 8 4
f 1 4 5
f 1 5 13
f 1 13 26
f 1 26 40
f 1 40 58
f 1 58 74
f 1 74 91
f 1 91 111
f 1 111 123
f 1 123 125
f 1 125 142
f 1 142 153
f 1 153 155
f 1 155 156
f 1 156 144
f 1 144 143
f 1 143 126
f 1 126 113
f 1 113 92
f 1 92 75
f 1 75 59
f 1 59 41
f 1 41 27
f 1 27 15
f 1 15 7
f 1 7 2
f 2 7 6
f 3 6 9
f 3 9 10
f 3 10 8
f 4 8 17
f 4 17 11
f 4 11 24
f 4 24 38
f 4 38 55
f 4 55 71
f 4 71 88
f 4 88 107
f 4 107 110
f 4 110 109
f 4 109 122
f 4 122 136
f 4 136 140
f 4 140 139
f 4 139 152
f 4 152 159
f 4 159 154
f 4 154 141
f 4 141 124
f 4 124 112
f 4 112 90
f 4 90 73
f 4 73 72
f 4 72 57
f 4 57 56
f 4 56 39
f 4 39 25
f 4 25 12
f 4 12 5
f 5 12 13
f 6 7 14
f 6 14 9
f 7 15 14
f 8 10 16
f 8 16 17
f 9 18 10
f 9 14 19
f 9 19 18
f 10 18 20
f 10 20 21
f 10 21 22
f 10 22 16
f 11 17 23
f 11 23 24
f 12 25 13
f 13 25 26
f 14 15 27
f 14 27 28
f 14 28 19
f 16 22 29
f 16 29 23
f 16 23 17
f 18 19 30
f 18 30 20
f 19 28 30
f 20 30 31
f 20 31 32
f 20 32 33
f 20 33 21
f 21 33 34
f 21 34 35
f 21 35 36
f 21 36 22
f 22 36 29
f 23 29 37
f 23 37 24
f 24 37 38
f 25 39 26
f 26 39 40
f 27 41 28
f 28 41 59
f 28 59 42
f 28 42 43
f 28 43 44
f 28 44 30
f 29 36 37
f 30 44 31
f 31 44 45
f 31 45 46
f 31 46 32
f 32 34 33
f 32 46 47
f 32 47 48
f 32 48 34
f 34 48 49
f 34 49 50
f 34 50 35
f 35 50 51
f 35 51 52
f 35 52 36
f 36 52 37
f 37 52 53
f 37 53 54
f 37 54 55
f 37 55 38
f 39 56 40
f 40 56 57
f 40 57 58
f 42 59 75
f 42 75 60
f 42 60 43
f 43 60 61
f 43 61 62
f 43 62 44
f 44 62 45
f 45 62 46
f 46 62 63
f 46 63 47
f 47 63 64
f 47 64 65
f 47 65 48
f 48 65 66
f 48 66 49
f 49 66 67
f 49 67 50
f 50 67 68
f 50 68 51
f 51 68 52
f 52 68 53
f 53 68 69
f 53 69 70
f 53 70 54
f 54 71 55
f 54 70 71
f 57 72 58
f 58 72 73
f 58 73 74
f 60 75 92
f 60 92 76
f 60 76 78
f 60 78 61
f 61 77 62
f 61 78 95
f 61 95 77
f 62 77 79
f 62 79 63
f 63 79 97
f 63 97 80
f 63 80 81
f 63 81 64
f 64 81 82
f 64 82 65
f 65 82 83
f 65 83 66
f 66 83 85
f 66 85 67
f 67 84 68
f 67 85 102
f 67 102 84
f 68 84 86
f 68 86 69
f 69 86 105
f 69 105 87
f 69 87 89
f 69 89 70
f 70 88 71
f 70 89 107
f 70 107 88
f 73 90 91
f 73 91 74
f 76 92 113
f 76 113 93
f 76 93 94
f 76 94 78
f 77 95 97
f 77 97 79
f 78 94 96
f 78 96 95
f 80 97 96
f 80 96 98
f 80 98 99
f 80 99 81
f 81 99 82
f 82 99 100
f 82 100 101
f 82 101 83
f 83 101 85
f 84 102 105
f 84 105 86
f 85 101 103
f 85 103 104
f 85 104 102
f 87 105 104
f 87 104 106
f 87 106 89
f 89 106 108
f 89 108 109
f 89 109 110
f 89 110 107
f 90 111 91
f 90 112 111
f 93 113 126
f 93 126 114
f 93 114 94
f 94 114 115
f 94 115 96
f 95 96 97
f 96 115 116
f 96 116 98
f 98 117 99
f 98 116 117
f 99 117 100
f 100 117 118
f 100 118 101
f 101 118 103
f 102 104 105
f 103 118 119
f 103 119 104
f 104 119 120
f 104 120 106
f 106 120 121
f 106 121 108
f 108 121 109
f 109 121 122
f 111 112 123
f 112 124 125
f 112 125 123
f 114 126 143
f 114 143 127
f 114 127 128
f 114 128 129
f 114 129 115
f 115 129 130
f 115 130 116
f 116 130 117
f 117 130 131
f 117 131 132
f 117 132 118
f 118 132 133
f 118 133 134
f 118 134 119
f 119 134 120
f 120 134 135
f 120 135 121
f 121 136 122
f 121 135 137
f 121 137 138
f 121 138 139
f 121 139 140
f 121 140 136
f 124 141 142
f 124 142 125
f 127 143 144
f 127 144 145
f 127 145 146
f 127 146 128
f 128 146 147
f 128 147 129
f 129 147 131
f 129 131 130
f 131 147 148
f 131 148 133
f 131 133 132
f 133 148 149
f 133 149 135
f 133 135 134
f 135 149 137
f 137 149 150
f 137 150 138
f 138 150 151
f 138 151 152
f 138 152 139
f 141 153 142
f 141 154 155
f 141 155 153
f 144 156 145
f 145 156 157
f 145 157 146
f 146 157 148
f 146 148 147
f 148 157 158
f 148 158 150
f 148 150 149
f 150 158 151
f 151 158 159
f 151 159 152
f 154 159 156
f 154 156 155
f 156 159 158
f 156 158 157

