# https://github.com/mikedh/trimesh
v 0.00876599 -0.00061277 0.05576506
v 0.00876599 -0.00331551 0.05576506
v 0.00241793 -0.00061277 0.05576506
v 0.00775294 -0.00061277 0.06900787
v 0.00073161 -0.00331551 0.05576506
v 0.00775137 -0.00331551 0.06900787
v 0.00238332 -0.00061277 0.07045711
v 0.00754451 -0.00061277 0.06973766
v 0.00754373 -0.00331551 0.06973766
v 0.00760350 -0.00331551 0.06952767
v 0.00077330 -0.00331551 0.06827809
v 0.00238096 -0.00061277 0.07192873
v 0.00238096 -0.00061277 0.07191840
v 0.00238175 -0.00061277 0.07118690
v 0.00754215 -0.00061277 0.06974282
v 0.00736204 -0.00331551 0.07002165
v 0.00078274 -0.00331551 0.06900787
v 0.00207264 -0.00154896 0.07244508
v 0.00252568 -0.00061277 0.07264818
v 0.00728810 -0.00061277 0.07013697
v 0.00728810 -0.00331551 0.07013697
v 0.00078824 -0.00331551 0.06902681
v 0.00207500 -0.00206522 0.07243648
v 0.00235972 -0.00206522 0.07280137
v 0.00265703 -0.00133516 0.07315249
v 0.00228186 -0.00131743 0.07267572
v 0.00276321 -0.00061277 0.07309741
v 0.00252804 -0.00061277 0.07265851
v 0.00102813 -0.00331551 0.06977724
v 0.00496785 -0.00061277 0.07281342
v 0.00687518 -0.00331551 0.07021098
v 0.00462964 -0.00061277 0.07314905
v 0.00438739 -0.00103773 0.07307504
v 0.00365907 -0.00176938 0.07307848
v 0.00286074 -0.00243065 0.07302512
v 0.00211354 -0.00244758 0.07233321
v 0.00285917 -0.00243065 0.07302512
v 0.00272467 -0.00206522 0.07309741
v 0.00322490 -0.00133516 0.07329191
v 0.00322490 -0.00061277 0.07329535
v 0.00321940 -0.00061277 0.07329363
v 0.00276793 -0.00061277 0.07310258
v 0.00114926 -0.00331551 0.06996485
v 0.00614528 -0.00331551 0.07025057
v 0.00461155 -0.00061277 0.07315593
v 0.00392334 -0.00130287 0.07316626
v 0.00315254 -0.00203373 0.07311634
v 0.00249501 -0.00331551 0.07039343
v 0.00323434 -0.00331551 0.07037277
v 0.00139544 -0.00331551 0.07021442
v 0.00200500 -0.00331551 0.07035212
v 0.00395480 -0.00061277 0.07334699
v 0.00394772 -0.00061277 0.07334699
f 1 2 5
f 1 5 3
f 1 3 7
f 1 7 14
f 1 14 13
f 1 13 12
f 1 12 19
f 1 19 28
f 1 28 27
f 1 27 42
f 1 42 41
f 1 41 40
f 1 40 53
f 1 53 52
f 1 52 45
f 1 45 32
f 1 32 30
f 1 30 20
f 1 20 15
f 1 15 8
f 1 8 4
f 1 4 2
f 2 4 6
f 2 6 10
f 2 10 9
f 2 9 16
f 2 16 21
f 2 21 31
f 2 31 44
f 2 44 49
f 2 49 48
f 2 48 51
f 2 51 50
f 2 50 43
f 2 43 29
f 2 29 22
f 2 22 17
f 2 17 11
f 2 11 5
f 3 5 7
f 4 8 9
f 4 9 10
f 4 10 6
f 5 11 12
f 5 12 13
f 5 13 14
f 5 14 7
f 8 15 9
f 9 15 16
f 11 17 12
f 12 17 18
f 12 18 19
f 15 20 21
f 15 21 16
f 17 22 18
f 18 23 24
f 18 24 25
f 18 25 26
f 18 26 27
f 18 27 28
f 18 28 19
f 18 22 29
f 18 29 23
f 20 30 21
f 21 30 32
f 21 32 33
f 21 33 34
f 21 34 35
f 21 35 31
f 23 36 24
f 23 29 36
f 24 37 38
f 24 38 25
f 24 36 37
f 25 39 40
f 25 40 41
f 25 41 42
f 25 42 27
f 25 27 26
f 25 38 39
f 29 43 36
f 31 35 44
f 32 45 46
f 32 46 33
f 33 46 34
f 34 46 47
f 34 47 35
f 35 47 39
f 35 39 37
f 35 37 48
f 35 48 49
f 35 49 44
f 36 43 50
f 36 50 37
f 37 39 38
f 37 50 51
f 37 51 48
f 39 47 46
f 39 46 52
f 39 52 53
f 39 53 40
f 45 52 46

