# https://github.com/mikedh/trimesh
v 0.00241772 -0.00061250 0.05576506
v 0.00258856 0.00667471 0.05576506
v 0.00876674 -0.00061250 0.05576506
v 0.00239715 -0.00061250 0.06667954
v 0.00876612 0.00667471 0.05576506
v 0.00256861 0.00667471 0.06667954
v 0.00876674 -0.00060465 0.05576506
v 0.00802042 0.00158664 0.06667954
v 0.00797989 0.00085621 0.06667954
v 0.00775169 -0.00061036 0.06667954
v 0.00775107 -0.00061250 0.06609514
v 0.00335483 -0.00061250 0.06667954
v 0.00779035 0.00667471 0.06667954
v 0.00801917 0.00523667 0.06667954
v 0.00802042 0.00499486 0.06667954
f 1 2 5
f 1 5 7
f 1 7 3
f 1 3 11
f 1 11 12
f 1 12 4
f 1 4 2
f 2 4 6
f 2 6 13
f 2 13 5
f 3 7 15
f 3 15 8
f 3 8 9
f 3 9 10
f 3 10 11
f 4 12 10
f 4 10 9
f 4 9 8
f 4 8 15
f 4 15 14
f 4 14 13
f 4 13 6
f 5 13 14
f 5 14 15
f 5 15 7
f 10 12 11

