# https://github.com/mikedh/trimesh
v -0.00919219 -0.01536938 0.00109342
v -0.00919219 -0.01524178 0.00036438
v -0.00918959 -0.01524279 0.00036553
v -0.00771808 -0.01524480 0.00037709
v -0.00771808 -0.01536938 0.00109573
v -0.00919219 -0.01536938 0.00985464
v -0.00919219 -0.01497956 -0.00012204
v -0.00771808 -0.01524279 0.00036553
v -0.00771808 -0.01536938 0.00985811
v -0.00918959 -0.01536938 0.00985811
v -0.00919219 -0.01526188 0.01058484
v -0.00771808 -0.01497956 -0.00012204
v -0.00919219 -0.01447921 -0.00032192
v -0.00771808 -0.01448624 -0.00031960
v -0.00771808 -0.01536838 0.00986851
v -0.00918959 -0.01526188 0.01058831
v -0.00919219 -0.01499965 0.01109668
v -0.00919219 -0.01374879 -0.00040164
v -0.00771808 -0.01447921 -0.00032192
v -0.00771808 -0.01526188 0.01058831
v -0.00771808 -0.01499864 0.01109783
v -0.00918959 -0.01499864 0.01109783
v -0.00919219 -0.01448122 0.01132197
v -0.00919219 -0.00790742 -0.00040164
v -0.00771808 -0.01374879 -0.00040164
v -0.00771808 -0.01499161 0.01110130
v -0.00771808 -0.01447921 0.01132197
v -0.00919219 -0.01375180 0.01140054
v -0.00919219 -0.00717800 -0.00038662
v -0.00845925 -0.00717800 -0.00040164
v -0.00771808 -0.00717800 -0.00040164
v -0.00771808 -0.01374879 0.01140054
v -0.00771808 -0.00716695 0.01140169
v -0.00919219 -0.00791043 0.01140054
v -0.00845925 -0.00644758 -0.00031152
v -0.00772919 -0.00644758 -0.00037391
v -0.00919219 -0.00640739 -0.00018096
v -0.00771808 -0.00644758 -0.00037391
v -0.00771808 -0.00644758 0.01137628
v -0.00845925 -0.00717800 0.01140054
v -0.00918959 -0.00790742 0.01140054
v -0.00919219 -0.00718001 0.01138552
v -0.00771808 -0.00629788 -0.00032770
v -0.00771808 -0.00572821 -0.00014514
v -0.00919219 -0.00638629 -0.00017172
v -0.00845925 -0.00594924 -0.00011048
v -0.00771808 -0.00643653 0.01137397
v -0.00845925 -0.00644758 0.01131158
v -0.00918959 -0.00717800 0.01138552
v -0.00919219 -0.00710064 0.01136357
v -0.00897168 -0.00603063 -0.00005040
v -0.00771808 -0.00566391 -0.00007351
v -0.00919219 -0.00596030 0.00035398
v -0.00771808 -0.00573625 0.01113249
v -0.00771808 -0.00571314 0.01112325
v -0.00845925 -0.00592614 0.01108859
v -0.00919219 -0.00638428 0.01115675
v -0.00919219 -0.00640136 0.01116369
v -0.00919219 -0.00595025 0.00037709
v -0.00771808 -0.00525499 0.00044179
v -0.00771808 -0.00529317 0.00037246
v -0.00788216 -0.00547000 0.00020609
v -0.00771808 -0.00540570 0.01083440
v -0.00899189 -0.00601857 0.01101811
v -0.00919219 -0.00635816 0.01114289
v -0.00919219 -0.00584375 0.00109573
v -0.00812705 -0.00533537 0.00069250
v -0.00771808 -0.00510629 0.00109573
v -0.00771808 -0.00525801 0.01054094
v -0.00919219 -0.00606177 0.01093723
v -0.00919219 -0.00584174 0.00182593
v -0.00771808 -0.00510629 0.00985811
v -0.00771808 -0.00524896 0.01051899
v -0.00812705 -0.00533537 0.01026596
v -0.00919219 -0.00593719 0.01058138
v -0.00919219 -0.00584174 0.00912791
v -0.00919219 -0.00584375 0.00985811
v -0.00919219 -0.00585279 0.00992974
v -0.00919219 -0.00593317 0.01055711
f 1 2 3
f 1 3 8
f 1 8 4
f 1 4 5
f 1 5 9
f 1 9 10
f 1 10 6
f 1 6 11
f 1 11 17
f 1 17 23
f 1 23 28
f 1 28 34
f 1 34 42
f 1 42 50
f 1 50 58
f 1 58 57
f 1 57 65
f 1 65 70
f 1 70 75
f 1 75 79
f 1 79 78
f 1 78 77
f 1 77 76
f 1 76 71
f 1 71 66
f 1 66 59
f 1 59 53
f 1 53 45
f 1 45 37
f 1 37 29
f 1 29 24
f 1 24 18
f 1 18 13
f 1 13 7
f 1 7 2
f 2 7 3
f 3 7 12
f 3 12 8
f 4 8 12
f 4 12 14
f 4 14 19
f 4 19 25
f 4 25 31
f 4 31 38
f 4 38 43
f 4 43 44
f 4 44 52
f 4 52 61
f 4 61 60
f 4 60 68
f 4 68 72
f 4 72 73
f 4 73 69
f 4 69 63
f 4 63 55
f 4 55 54
f 4 54 47
f 4 47 39
f 4 39 33
f 4 33 32
f 4 32 27
f 4 27 26
f 4 26 21
f 4 21 20
f 4 20 15
f 4 15 9
f 4 9 5
f 6 10 16
f 6 16 11
f 7 13 14
f 7 14 12
f 9 15 10
f 10 15 16
f 11 16 17
f 13 18 25
f 13 25 19
f 13 19 14
f 15 20 16
f 16 20 17
f 17 21 22
f 17 22 23
f 17 20 21
f 18 24 30
f 18 30 31
f 18 31 25
f 21 26 22
f 22 26 23
f 23 26 27
f 23 27 28
f 24 29 30
f 27 32 28
f 28 32 33
f 28 33 34
f 29 35 36
f 29 36 30
f 29 37 35
f 30 36 38
f 30 38 31
f 33 39 40
f 33 40 41
f 33 41 34
f 34 41 42
f 35 43 36
f 35 37 44
f 35 44 43
f 36 43 38
f 37 45 46
f 37 46 44
f 39 47 48
f 39 48 49
f 39 49 40
f 40 49 42
f 40 42 41
f 42 49 50
f 44 46 51
f 44 51 52
f 45 53 51
f 45 51 46
f 47 54 48
f 48 54 55
f 48 55 56
f 48 56 57
f 48 57 58
f 48 58 50
f 48 50 49
f 51 53 59
f 51 59 60
f 51 60 61
f 51 61 62
f 51 62 52
f 52 62 61
f 55 63 64
f 55 64 56
f 56 64 57
f 57 64 65
f 59 66 67
f 59 67 60
f 60 67 68
f 63 69 64
f 64 69 70
f 64 70 65
f 66 71 68
f 66 68 67
f 68 71 76
f 68 76 72
f 69 73 70
f 70 73 74
f 70 74 75
f 72 76 77
f 72 77 74
f 72 74 73
f 74 77 78
f 74 78 79
f 74 79 75

