# https://github.com/mikedh/trimesh
v 0.00876672 0.00669789 0.05576506
v 0.00876672 0.00667471 0.05576506
v 0.00876595 0.00956273 0.05576506
v 0.00798797 0.00667471 0.06900852
v 0.00258806 0.00667471 0.05576506
v 0.00093705 0.00956273 0.05576506
v 0.00775112 0.00956273 0.06900852
v 0.00773579 0.00956273 0.06906370
v 0.00754341 0.00956273 0.06973794
v 0.00769364 0.00667471 0.06971553
v 0.00255511 0.00667471 0.07117093
v 0.00093628 0.00956273 0.05657553
v 0.00752424 0.00956273 0.06976898
v 0.00728817 0.00956273 0.07013628
v 0.00540414 0.00667471 0.07263150
v 0.00255511 0.00667471 0.07119852
v 0.00094395 0.00956273 0.06097622
v 0.00725674 0.00956273 0.07014318
v 0.00303799 0.00862777 0.07309709
v 0.00377919 0.00798485 0.07312985
v 0.00450658 0.00725147 0.07312124
v 0.00499254 0.00700041 0.07294534
v 0.00484844 0.00667471 0.07318676
v 0.00255664 0.00667471 0.07192794
v 0.00094548 0.00956273 0.06170737
v 0.00687579 0.00956273 0.07021043
v 0.00246696 0.00878835 0.07268496
v 0.00269154 0.00862777 0.07309709
v 0.00325874 0.00820000 0.07319021
v 0.00399534 0.00746832 0.07322470
v 0.00472426 0.00673352 0.07321435
v 0.00472120 0.00667471 0.07322815
v 0.00268924 0.00667471 0.07270910
v 0.00212434 0.00777988 0.07230904
v 0.00098381 0.00956273 0.06900852
v 0.00098304 0.00956273 0.06895334
v 0.00097461 0.00956273 0.06827737
v 0.00097078 0.00956273 0.06754795
v 0.00096694 0.00956273 0.06681679
v 0.00313917 0.00956273 0.07045702
v 0.00206532 0.00863936 0.07246079
v 0.00249455 0.00956273 0.07049668
v 0.00174570 0.00956273 0.07026389
v 0.00124671 0.00956273 0.06981037
v 0.00226691 0.00815816 0.07279532
v 0.00263175 0.00815816 0.07315228
v 0.00322502 0.00742817 0.07331782
v 0.00395548 0.00669789 0.07337990
v 0.00395548 0.00667471 0.07337990
v 0.00271530 0.00667471 0.07276601
v 0.00280038 0.00685311 0.07308158
v 0.00207758 0.00815816 0.07242975
v 0.00115627 0.00956273 0.06964310
v 0.00271377 0.00742817 0.07314021
v 0.00316446 0.00667471 0.07320918
v 0.00311081 0.00667471 0.07318676
f 1 2 5
f 1 5 6
f 1 6 3
f 1 3 4
f 1 4 2
f 2 4 10
f 2 10 15
f 2 15 23
f 2 23 32
f 2 32 49
f 2 49 55
f 2 55 56
f 2 56 50
f 2 50 33
f 2 33 24
f 2 24 16
f 2 16 11
f 2 11 5
f 3 6 12
f 3 12 17
f 3 17 25
f 3 25 39
f 3 39 38
f 3 38 37
f 3 37 36
f 3 36 35
f 3 35 53
f 3 53 44
f 3 44 43
f 3 43 42
f 3 42 40
f 3 40 26
f 3 26 18
f 3 18 14
f 3 14 13
f 3 13 9
f 3 9 8
f 3 8 7
f 3 7 4
f 4 7 8
f 4 8 9
f 4 9 10
f 5 11 6
f 6 11 12
f 9 13 10
f 10 13 14
f 10 14 15
f 11 16 12
f 12 16 17
f 14 18 19
f 14 19 20
f 14 20 21
f 14 21 22
f 14 22 23
f 14 23 15
f 16 24 25
f 16 25 17
f 18 26 19
f 19 27 28
f 19 28 29
f 19 29 20
f 19 26 27
f 20 29 30
f 20 30 21
f 21 30 31
f 21 31 23
f 21 23 22
f 23 31 32
f 24 33 34
f 24 34 35
f 24 35 36
f 24 36 37
f 24 37 38
f 24 38 39
f 24 39 25
f 26 40 27
f 27 41 28
f 27 40 42
f 27 42 43
f 27 43 44
f 27 44 41
f 28 41 45
f 28 45 46
f 28 46 47
f 28 47 29
f 29 47 48
f 29 48 30
f 30 48 32
f 30 32 31
f 32 48 49
f 33 50 34
f 34 50 51
f 34 51 45
f 34 45 52
f 34 52 35
f 35 52 53
f 41 52 45
f 41 44 53
f 41 53 52
f 45 51 54
f 45 54 46
f 46 54 47
f 47 49 48
f 47 54 55
f 47 55 49
f 50 56 51
f 51 56 54
f 54 56 55

