# https://github.com/mikedh/trimesh
v -0.00621147 -0.00644674 0.01162662
v -0.00619069 -0.00620421 0.01162662
v -0.00609829 -0.00703362 0.01162662
v 0.00558780 -0.00571546 0.02121022
v 0.00558780 -0.00498602 0.02126969
v 0.00558780 0.00888804 0.02126969
v 0.00558780 0.00951935 0.02126214
v -0.00611677 -0.00577840 0.01162662
v 0.00558780 0.01017658 0.02119417
v -0.00601166 -0.00711693 0.01162662
v 0.00558780 -0.00621717 0.02099876
v -0.00600589 -0.00550255 0.01162662
v 0.00558780 0.01061165 0.02105068
v 0.00502763 0.01002292 0.02048144
v -0.00555198 -0.00740204 0.01162662
v 0.00558780 -0.00630789 0.02090436
v -0.00567325 -0.00487679 0.01162662
v 0.00558780 0.01080049 0.02080146
v 0.00558780 0.01085788 0.02070517
v 0.00497912 0.01008957 0.02008118
v -0.00553812 -0.00740574 0.01162662
v 0.00558780 -0.00667261 0.02024733
v 0.00558780 -0.00638750 0.02079391
v -0.00536603 -0.00437507 0.01162662
v 0.00283548 0.00709778 0.01832438
v 0.00558780 0.01099858 0.02020013
v 0.00557509 0.01101339 0.02008118
v 0.00520896 0.01045428 0.02008118
v -0.00490635 -0.00754089 0.01162662
v 0.00558780 -0.00671704 0.02012366
v -0.00506112 -0.00391594 0.01162662
v 0.00558780 0.01103006 0.02008118
v 0.00558780 0.01104116 0.01935146
v 0.00556701 0.01101339 0.01935146
v 0.00494216 0.01013400 0.01935146
v -0.00479432 -0.00351790 0.01162662
v -0.00480702 -0.00754830 0.01162662
v 0.00558780 -0.00675036 0.01991315
v 0.00558780 0.01104302 0.01570097
v 0.00558780 0.01104302 0.01350993
v 0.00494216 0.01013400 0.01204954
v 0.00473080 0.00983593 0.01162662
v 0.00558780 -0.00787044 0.01162662
v 0.00558780 0.01103931 0.01278021
v 0.00556701 0.01101154 0.01278021
v 0.00494216 0.01013215 0.01162662
v 0.00558780 0.01099118 0.01162662
v 0.00558780 0.01102265 0.01204954
v 0.00556816 0.01099673 0.01204954
v 0.00520319 0.01049872 0.01204954
v 0.00536373 0.01070792 0.01162662
v 0.00557509 0.01097637 0.01162662
f 1 2 8
f 1 8 12
f 1 12 17
f 1 17 24
f 1 24 31
f 1 31 36
f 1 36 42
f 1 42 46
f 1 46 51
f 1 51 52
f 1 52 47
f 1 47 43
f 1 43 37
f 1 37 29
f 1 29 21
f 1 21 15
f 1 15 10
f 1 10 3
f 1 3 4
f 1 4 5
f 1 5 6
f 1 6 7
f 1 7 2
f 2 7 9
f 2 9 8
f 3 10 11
f 3 11 4
f 4 11 16
f 4 16 23
f 4 23 22
f 4 22 30
f 4 30 38
f 4 38 43
f 4 43 47
f 4 47 48
f 4 48 44
f 4 44 40
f 4 40 39
f 4 39 33
f 4 33 32
f 4 32 26
f 4 26 19
f 4 19 18
f 4 18 13
f 4 13 9
f 4 9 7
f 4 7 6
f 4 6 5
f 8 9 13
f 8 13 14
f 8 14 12
f 10 15 16
f 10 16 11
f 12 14 17
f 13 18 14
f 14 18 19
f 14 19 20
f 14 20 17
f 15 21 22
f 15 22 23
f 15 23 16
f 17 20 25
f 17 25 24
f 19 26 27
f 19 27 28
f 19 28 20
f 20 28 25
f 21 29 22
f 22 29 30
f 24 25 28
f 24 28 27
f 24 27 31
f 26 32 27
f 27 32 33
f 27 33 34
f 27 34 35
f 27 35 36
f 27 36 31
f 29 37 30
f 30 37 38
f 33 39 34
f 34 39 36
f 34 36 35
f 36 39 40
f 36 40 41
f 36 41 42
f 37 43 38
f 40 44 45
f 40 45 41
f 41 45 46
f 41 46 42
f 44 48 49
f 44 49 45
f 45 49 50
f 45 50 46
f 46 50 51
f 47 52 48
f 48 52 51
f 48 51 49
f 49 51 50

