# https://github.com/mikedh/trimesh
v -0.01663107 -0.01374904 0.01140165
v -0.01663107 -0.01315834 0.01139587
v -0.01941287 -0.01103207 0.01140165
v -0.01795267 -0.01374904 0.01140165
v -0.01663107 -0.01388790 0.01138663
v -0.01663107 -0.01301905 0.01139240
v -0.02014321 -0.01103207 0.01139125
v -0.01941287 -0.01228906 0.01140165
v -0.01868300 -0.01103207 0.01126993
v -0.01868300 -0.01301905 0.01140165
v -0.01941287 -0.01301905 0.01140049
v -0.01868300 -0.01374904 0.01139818
v -0.01722280 -0.01447945 0.01132193
v -0.01663107 -0.01447945 0.01132193
v -0.01663107 -0.01247209 0.01119715
v -0.02014321 -0.01155865 0.01139009
v -0.02085067 -0.01103207 0.01116711
v -0.01663107 -0.01232091 0.01113938
v -0.01823500 -0.01103207 0.01104695
v -0.02014321 -0.01228906 0.01137276
v -0.01941287 -0.01374904 0.01135659
v -0.01795267 -0.01447945 0.01130806
v -0.01722280 -0.01499923 0.01109894
v -0.01663107 -0.01499923 0.01109894
v -0.02084508 -0.01155865 0.01116595
v -0.02121561 -0.01103207 0.01089906
v -0.01663107 -0.01210433 0.01058826
v -0.01813980 -0.01103207 0.01058826
v -0.02014321 -0.01301905 0.01132193
v -0.02079188 -0.01228906 0.01114862
v -0.02015907 -0.01375413 0.01114284
v -0.01992621 -0.01423740 0.01104695
v -0.01937834 -0.01448030 0.01111974
v -0.01868300 -0.01447945 0.01126069
v -0.01795267 -0.01498140 0.01108392
v -0.01722280 -0.01526210 0.01058826
v -0.01663107 -0.01526210 0.01058826
v -0.02121048 -0.01155865 0.01088519
v -0.02124454 -0.01103207 0.01079739
v -0.02131454 -0.01155865 0.01052010
v -0.01663107 -0.01209881 0.00985807
v -0.01812720 -0.01103207 0.00985807
v -0.01813047 -0.01103207 0.01006142
v -0.02069107 -0.01301905 0.01109894
v -0.02059354 -0.01351420 0.01102615
v -0.01911187 -0.01487651 0.01099033
v -0.02041201 -0.01400468 0.01058826
v -0.02004707 -0.01436437 0.01058826
v -0.01959720 -0.01472958 0.01058826
v -0.01868300 -0.01492789 0.01103886
v -0.01795267 -0.01521454 0.01058826
v -0.01722280 -0.01537039 0.00985807
v -0.01663107 -0.01528291 0.01044962
v -0.02116288 -0.01232218 0.01062639
v -0.02128561 -0.01210094 0.01040803
v -0.02131828 -0.01103207 0.01053396
v -0.02139854 -0.01103207 0.00985807
v -0.02139014 -0.01155865 0.00985807
v -0.01663107 -0.01209924 0.00401651
v -0.01812720 -0.01103207 0.00401651
v -0.02097901 -0.01301905 0.01058826
v -0.02069061 -0.01363948 0.01058826
v -0.01923181 -0.01492152 0.01058826
v -0.01868300 -0.01508289 0.01058826
v -0.02074567 -0.01369978 0.00985807
v -0.02045867 -0.01406456 0.00985807
v -0.02009374 -0.01442977 0.00985807
v -0.01968494 -0.01479497 0.00985807
v -0.01795267 -0.01531136 0.00985807
v -0.01663107 -0.01537039 0.00985807
v -0.01722280 -0.01537039 0.00109572
v -0.02130894 -0.01218927 0.00985807
v -0.02121188 -0.01255447 0.00985807
v -0.02108401 -0.01301905 0.00985807
v -0.02139854 -0.01103207 0.00109572
v -0.02139014 -0.01155865 0.00109572
v -0.01663107 -0.01210178 0.00338105
v -0.01813840 -0.01103207 0.00328631
v -0.01932001 -0.01495040 0.00985807
v -0.01868300 -0.01515466 0.00985807
v -0.02074567 -0.01369978 0.00109572
v -0.02045867 -0.01406456 0.00109572
v -0.02009374 -0.01442977 0.00109572
v -0.01968494 -0.01479497 0.00109572
v -0.01795267 -0.01531136 0.00109572
v -0.01663107 -0.01537039 0.00109572
v -0.01795267 -0.01519585 0.00036553
v -0.01722280 -0.01524299 0.00036553
v -0.02130894 -0.01218927 0.00109572
v -0.02121188 -0.01255447 0.00109572
v -0.02108401 -0.01301905 0.00109572
v -0.02137708 -0.01103207 0.00091780
v -0.02131454 -0.01155865 0.00045796
v -0.02128561 -0.01210094 0.00056079
v -0.01663107 -0.01210348 0.00328631
v -0.01819160 -0.01103207 0.00294779
v -0.01932001 -0.01495040 0.00109572
v -0.01868300 -0.01515466 0.00109572
v -0.02068221 -0.01362674 0.00036553
v -0.02039941 -0.01399152 0.00036553
v -0.02003447 -0.01435290 0.00036553
v -0.01958554 -0.01471769 0.00036553
v -0.01922060 -0.01491600 0.00036553
v -0.01868300 -0.01506803 0.00036553
v -0.01663107 -0.01524299 0.00036553
v -0.01909647 -0.01486886 -0.00002730
v -0.01868300 -0.01491303 -0.00006889
v -0.01795267 -0.01496229 -0.00010933
v -0.01722280 -0.01498012 -0.00012204
v -0.02096128 -0.01301905 0.00036553
v -0.02131828 -0.01103207 0.00044641
v -0.02128468 -0.01103207 0.00034358
v -0.02119881 -0.01103207 0.00008131
v -0.02119368 -0.01155865 0.00009286
v -0.02114888 -0.01232218 0.00033665
v -0.01663107 -0.01285216 0.00036553
v -0.01896020 -0.01103207 -0.00010586
v -0.02058187 -0.01349722 -0.00005965
v -0.01990941 -0.01422168 -0.00007813
v -0.01663107 -0.01498012 -0.00012204
v -0.01936901 -0.01447096 -0.00014168
v -0.01868300 -0.01447945 -0.00026762
v -0.01795267 -0.01447945 -0.00031036
v -0.01722280 -0.01447945 -0.00032192
v -0.02109661 -0.01103207 0.00000274
v -0.02082827 -0.01155865 -0.00018789
v -0.02077461 -0.01228906 -0.00016941
v -0.02067334 -0.01301905 -0.00012204
v -0.01663107 -0.01312479 -0.00020060
v -0.01927940 -0.01103207 -0.00025144
v -0.02014321 -0.01301905 -0.00032307
v -0.02014881 -0.01374394 -0.00016363
v -0.01941287 -0.01374904 -0.00035658
v -0.01663107 -0.01447945 -0.00032192
v -0.01868300 -0.01374904 -0.00039817
v -0.01795267 -0.01374904 -0.00040164
v -0.02083341 -0.01103207 -0.00018905
v -0.02064208 -0.01103207 -0.00024566
v -0.02014321 -0.01155865 -0.00038893
v -0.02014321 -0.01228906 -0.00037044
v -0.01663107 -0.01374904 -0.00040164
v -0.01941287 -0.01103207 -0.00030690
v -0.01941287 -0.01301905 -0.00040049
v -0.02014321 -0.01103207 -0.00039009
v -0.01993927 -0.01103207 -0.00037275
f 1 2 3
f 1 3 8
f 1 8 10
f 1 10 4
f 1 4 5
f 1 5 14
f 1 14 24
f 1 24 37
f 1 37 53
f 1 53 70
f 1 70 86
f 1 86 105
f 1 105 120
f 1 120 134
f 1 134 141
f 1 141 129
f 1 129 116
f 1 116 95
f 1 95 77
f 1 77 59
f 1 59 41
f 1 41 27
f 1 27 18
f 1 18 15
f 1 15 6
f 1 6 2
f 2 6 3
f 3 7 8
f 3 6 9
f 3 9 19
f 3 19 28
f 3 28 43
f 3 43 42
f 3 42 60
f 3 60 78
f 3 78 96
f 3 96 117
f 3 117 130
f 3 130 142
f 3 142 145
f 3 145 144
f 3 144 138
f 3 138 137
f 3 137 125
f 3 125 113
f 3 113 112
f 3 112 111
f 3 111 92
f 3 92 75
f 3 75 57
f 3 57 56
f 3 56 39
f 3 39 26
f 3 26 17
f 3 17 7
f 4 10 11
f 4 11 12
f 4 12 13
f 4 13 5
f 5 13 14
f 6 15 9
f 7 16 11
f 7 11 8
f 7 17 16
f 8 11 10
f 9 15 18
f 9 18 19
f 11 16 20
f 11 20 21
f 11 21 12
f 12 21 22
f 12 22 13
f 13 22 23
f 13 23 24
f 13 24 14
f 16 17 25
f 16 25 20
f 17 26 25
f 18 27 19
f 19 27 28
f 20 29 21
f 20 25 30
f 20 30 29
f 21 29 31
f 21 31 32
f 21 32 33
f 21 33 34
f 21 34 22
f 22 34 35
f 22 35 23
f 23 35 36
f 23 36 37
f 23 37 24
f 25 26 38
f 25 38 30
f 26 39 40
f 26 40 38
f 27 41 42
f 27 42 43
f 27 43 28
f 29 30 44
f 29 44 45
f 29 45 31
f 30 38 44
f 31 45 32
f 32 46 33
f 32 45 47
f 32 47 48
f 32 48 49
f 32 49 46
f 33 46 34
f 34 46 50
f 34 50 35
f 35 50 51
f 35 51 36
f 36 51 52
f 36 52 53
f 36 53 37
f 38 54 44
f 38 40 55
f 38 55 54
f 39 56 40
f 40 56 57
f 40 57 58
f 40 58 55
f 41 59 60
f 41 60 42
f 44 54 45
f 45 54 61
f 45 61 62
f 45 62 47
f 46 49 63
f 46 63 64
f 46 64 51
f 46 51 50
f 47 62 65
f 47 65 66
f 47 66 67
f 47 67 48
f 48 67 68
f 48 68 49
f 49 68 63
f 51 64 69
f 51 69 52
f 52 70 53
f 52 69 85
f 52 85 71
f 52 71 86
f 52 86 70
f 54 55 61
f 55 58 72
f 55 72 73
f 55 73 74
f 55 74 61
f 57 75 76
f 57 76 58
f 58 76 89
f 58 89 72
f 59 77 60
f 60 77 78
f 61 74 62
f 62 74 65
f 63 68 79
f 63 79 80
f 63 80 64
f 64 80 69
f 65 74 91
f 65 91 81
f 65 81 82
f 65 82 66
f 66 82 83
f 66 83 67
f 67 83 84
f 67 84 68
f 68 84 97
f 68 97 79
f 69 80 98
f 69 98 85
f 71 85 87
f 71 87 88
f 71 88 105
f 71 105 86
f 72 89 90
f 72 90 73
f 73 90 91
f 73 91 74
f 75 92 93
f 75 93 76
f 76 93 94
f 76 94 89
f 77 95 78
f 78 95 96
f 79 97 98
f 79 98 80
f 81 91 99
f 81 99 100
f 81 100 82
f 82 100 83
f 83 100 101
f 83 101 84
f 84 101 102
f 84 102 103
f 84 103 97
f 85 98 104
f 85 104 87
f 87 104 106
f 87 106 107
f 87 107 108
f 87 108 88
f 88 108 109
f 88 109 120
f 88 120 105
f 89 94 90
f 90 94 91
f 91 94 110
f 91 110 99
f 92 111 93
f 93 111 112
f 93 112 113
f 93 113 114
f 93 114 94
f 94 114 115
f 94 115 110
f 95 116 117
f 95 117 96
f 97 103 98
f 98 103 104
f 99 110 118
f 99 118 100
f 100 118 119
f 100 119 101
f 101 119 102
f 102 119 106
f 102 106 103
f 103 106 104
f 106 119 121
f 106 121 122
f 106 122 107
f 107 122 108
f 108 122 123
f 108 123 109
f 109 123 124
f 109 124 134
f 109 134 120
f 110 115 118
f 113 125 114
f 114 125 126
f 114 126 127
f 114 127 128
f 114 128 115
f 115 128 118
f 116 129 117
f 117 129 130
f 118 128 131
f 118 131 132
f 118 132 119
f 119 132 133
f 119 133 121
f 121 133 122
f 122 133 123
f 123 133 135
f 123 135 124
f 124 135 136
f 124 136 141
f 124 141 134
f 125 137 126
f 126 137 138
f 126 138 139
f 126 139 140
f 126 140 127
f 127 140 131
f 127 131 128
f 129 141 142
f 129 142 130
f 131 140 133
f 131 133 132
f 133 140 143
f 133 143 135
f 135 143 136
f 136 143 141
f 138 144 139
f 139 144 143
f 139 143 140
f 141 143 144
f 141 144 145
f 141 145 142

