# https://github.com/mikedh/trimesh
v 0.00689758 0.01239875 0.01162545
v 0.00689758 0.01231896 0.01131815
v 0.00672125 0.01224601 0.01162545
v 0.00689758 -0.01089135 0.01162545
v 0.00689758 0.01224601 0.01105794
v 0.00573255 0.01075732 0.00934130
v 0.00661944 0.01207730 0.01131815
v 0.00657746 0.01211378 0.01162545
v 0.00603588 -0.01089135 0.01162545
v 0.00689758 -0.01089135 -0.00023798
v 0.00689758 0.01210922 0.01058816
v 0.00674224 0.01197927 0.01058816
v 0.00511120 0.00992748 0.00839703
v 0.00567377 0.01082115 0.00985818
v 0.00581232 0.01068665 0.00885386
v 0.00431247 0.00852999 0.00581854
v 0.00281998 0.00636877 0.00279734
v 0.00625104 0.01171254 0.01131815
v 0.00588579 0.01132498 0.01131815
v 0.00603693 0.01153928 0.01162545
v -0.00382279 -0.01089135 0.01140057
v -0.00382279 -0.00755833 0.01162545
v 0.00687554 -0.01089135 -0.00024033
v 0.00687554 -0.01082752 -0.00024151
v 0.00687554 -0.01009799 -0.00024387
v 0.00687554 -0.00936619 -0.00024622
v 0.00689758 -0.00719813 -0.00024975
v 0.00689758 0.01186985 0.00988290
v 0.00650294 0.01144809 0.00947553
v 0.00276330 0.00642804 0.00328714
v 0.00505977 0.00997308 0.00881501
v 0.00501359 0.01002095 0.00930245
v 0.00500309 0.00929143 0.00646728
v 0.00291654 0.00629809 0.00230990
v 0.00191839 0.00507614 0.00109601
v 0.00433976 0.00922988 0.00912702
v 0.00586794 0.01134094 0.01162545
v 0.00285671 0.00706410 0.00582913
v 0.00283572 0.00709145 0.00620708
v -0.00382279 -0.01089135 -0.00040164
v -0.00382279 -0.00221228 0.01162545
v 0.00614503 -0.01089135 -0.00030627
v 0.00614503 -0.00498447 -0.00032511
v 0.00687554 -0.00571628 -0.00025682
v 0.00689758 -0.00573908 -0.00025329
v 0.00689758 0.01169886 0.00945551
v 0.00664673 0.01136830 0.00898926
v 0.00569686 0.01004375 0.00716901
v 0.00155314 0.00471366 0.00109601
v 0.00214825 0.00558225 0.00228400
v 0.00268878 0.00650783 0.00401712
v 0.00363969 0.00703674 0.00298926
v 0.00270242 0.00570763 0.00124318
v 0.00201495 0.00497355 0.00054381
v 0.00129074 0.00425314 0.00049907
v 0.00494851 0.01011215 0.01058816
v 0.00557931 0.01096022 0.01131815
v 0.00220178 0.00624110 0.00547709
v 0.00557511 0.01097618 0.01162545
v 0.00112386 0.00442641 0.00182599
v 0.00075861 0.00404796 0.00182599
v 0.00011522 0.00321585 0.00109601
v 0.00133693 0.00494391 0.00328714
v 0.00070088 0.00410496 0.00255598
v 0.00395457 -0.01089135 -0.00040164
v -0.00382279 -0.00498447 -0.00040164
v -0.00382279 -0.00199342 0.00985818
v 0.00416763 0.00904293 0.01162545
v 0.00541453 -0.01089135 -0.00036867
v 0.00614503 -0.00279362 -0.00033100
v 0.00687554 -0.00498447 -0.00025800
v 0.00614503 0.00085401 -0.00034041
v 0.00614503 0.00377667 -0.00034748
v 0.00614503 0.00450620 -0.00034865
v 0.00689758 -0.00500727 -0.00025446
v 0.00689758 0.01157804 0.00915998
v 0.00689758 0.01125431 0.00838526
v 0.00587949 0.00993204 0.00668274
v 0.00056759 0.00351450 0.00050731
v 0.00119838 0.00434889 0.00109601
v 0.00184072 0.00516733 0.00182599
v 0.00437860 0.00776170 0.00371453
v 0.00288505 0.00558909 0.00075574
v 0.00219968 0.00482536 0.00005755
v 0.00140830 0.00413232 0.00001281
v 0.00246312 0.00512173 0.00032717
v 0.00068304 0.00339595 0.00001987
v 0.00536310 0.01070716 0.01162545
v 0.00432192 0.00924811 0.00968510
v 0.00130649 0.00499179 0.00401712
v 0.00048047 0.00360569 0.00109601
v -0.00014717 0.00277585 0.00051908
v -0.00019650 0.00285109 0.00109601
v 0.00395457 0.00377667 -0.00040164
v 0.00468507 -0.01089135 -0.00039928
v -0.00382279 -0.00425495 -0.00039810
v -0.00334733 -0.00425495 -0.00040164
v -0.00382279 -0.00199342 0.00182599
v 0.00473125 0.00983629 0.01162545
v 0.00494222 0.01013266 0.01162545
v 0.00474805 -0.01089135 -0.00039693
v 0.00541453 -0.00425495 -0.00037927
v 0.00687554 -0.00425495 -0.00025800
v 0.00541453 -0.00206409 -0.00038162
v 0.00541453 0.00158582 -0.00038516
v 0.00541453 0.00304487 -0.00038633
v 0.00541453 0.00450620 -0.00038751
v 0.00614503 0.00523572 -0.00034277
v 0.00687554 0.00523572 -0.00024622
v 0.00687554 0.00450620 -0.00024858
v 0.00687554 -0.00060276 -0.00025446
v 0.00687554 -0.00279362 -0.00025682
v 0.00689758 -0.00427775 -0.00025446
v 0.00689758 0.01088499 0.00759640
v 0.00686609 0.01090094 0.00766469
v 0.00636649 0.01005743 0.00641665
v 0.00562969 0.00933018 0.00567607
v 0.00026426 0.00308590 0.00026948
v 0.00511645 0.00848895 0.00445158
v 0.00436810 0.00703902 0.00223926
v 0.00464099 0.00694555 0.00178596
v 0.00390419 0.00622514 0.00104891
v 0.00436600 0.00630949 0.00077458
v 0.00337205 0.00570535 0.00054028
v 0.00585640 0.00921620 0.00519099
v 0.00659845 0.00994116 0.00593039
v 0.00366174 0.00555945 0.00005284
v 0.00268668 0.00495531 -0.00006726
v 0.00189425 0.00433977 -0.00011318
v 0.00117004 0.00364444 -0.00010964
v 0.00044793 0.00290808 -0.00010611
v -0.00003907 0.00265731 0.00003282
v 0.00494222 0.01013038 0.01131815
v 0.00281368 0.00712337 0.00693706
v -0.00382279 -0.00199570 0.00109601
v 0.00006694 0.00324321 0.00182599
v 0.00067989 0.00412548 0.00328714
v -0.00042846 0.00231990 0.00034601
v -0.00081575 0.00198477 0.00065919
v -0.00056176 0.00236550 0.00109601
v 0.00322406 0.00377667 -0.00040164
v 0.00468507 0.00450620 -0.00039928
v -0.00382279 -0.00352542 -0.00034277
v -0.00334733 -0.00352542 -0.00039693
v 0.00030414 0.00085401 -0.00040164
v 0.00541453 0.00523572 -0.00036749
v 0.00614503 0.00591965 -0.00016852
v 0.00687554 0.00589458 -0.00012142
v 0.00689758 0.00589002 -0.00011906
v 0.00689758 0.00523572 -0.00024151
v 0.00689758 0.00450620 -0.00024387
v 0.00689758 0.00375387 -0.00024504
v 0.00689758 0.00085401 -0.00024858
v 0.00689758 -0.00206409 -0.00025211
v 0.00689758 0.01058178 0.00695472
v 0.00485510 0.00715529 0.00200260
v 0.00634340 0.00933246 0.00495080
v 0.00392518 0.00584442 0.00032481
v 0.00559715 0.00788025 0.00275731
v 0.00463994 0.00657395 0.00104891
v 0.00485300 0.00642120 0.00058737
v 0.00685559 0.01018966 0.00618706
v 0.00463994 0.00617271 0.00035307
v 0.00414874 0.00568028 -0.00006608
v 0.00246312 0.00455179 -0.00018853
v 0.00322406 0.00508526 -0.00013908
v 0.00169588 0.00384278 -0.00021325
v 0.00096957 0.00310870 -0.00020972
v 0.00024432 0.00237461 -0.00020383
v -0.00022169 0.00216944 -0.00009905
v -0.00070870 0.00185255 0.00017175
v -0.00089132 0.00136468 -0.00007550
v -0.00382279 -0.00246305 -0.00006019
v -0.00376821 -0.00236730 -0.00004371
v -0.00382279 -0.00231259 0.00014350
v -0.00382279 -0.00205725 0.00083463
v -0.00382279 -0.00217808 0.00036602
v 0.00249356 0.00377667 -0.00038633
v 0.00395457 0.00450620 -0.00038986
v 0.00103465 0.00158582 -0.00040164
v -0.00382279 -0.00282781 -0.00018500
v -0.00334733 -0.00279362 -0.00032629
v -0.00042636 0.00085401 -0.00035336
v 0.00030414 0.00158582 -0.00037574
v -0.00042636 0.00012676 -0.00039693
v 0.00103465 0.00231534 -0.00038045
v 0.00468507 0.00523572 -0.00033453
v 0.00541453 0.00587862 -0.00017323
v 0.00614503 0.00628670 0.00004224
v 0.00687554 0.00625934 0.00004106
v 0.00689758 0.00625478 0.00004224
v 0.00689758 0.01016458 0.00609758
v 0.00513324 0.00703446 0.00151634
v 0.00689758 0.00986593 0.00551595
v 0.00663833 0.00921164 0.00446336
v 0.00634655 0.00859154 0.00353557
v 0.00597185 0.00775031 0.00226987
v 0.00541453 0.00650327 0.00046728
v 0.00541453 0.00624338 0.00010229
v 0.00468507 0.00578287 -0.00013437
v 0.00322406 0.00450620 -0.00034041
v 0.00392518 0.00528360 -0.00019088
v -0.00044945 0.00159949 -0.00018500
v 0.00687554 0.00658079 0.00040605
v 0.00614503 0.00655799 0.00040723
v 0.00687554 0.00694555 0.00089232
v 0.00689758 0.00658079 0.00040723
v 0.00689758 0.00942138 0.00469177
v 0.00689758 0.00907257 0.00407717
v 0.00645885 0.00780274 0.00217450
v 0.00687554 0.00866905 0.00342489
v 0.00614503 0.00692503 0.00093824
v 0.00689758 0.00694555 0.00089232
v 0.00689758 0.00782782 0.00214036
v 0.00689758 0.00757476 0.00177536
v 0.00687554 0.00720772 0.00125731
v 0.00689758 0.00720088 0.00124554
v 0.00689758 0.00867133 0.00342254
v 0.00689758 0.00843652 0.00305755
v 0.00687554 0.00810367 0.00255598
v 0.00689758 0.00810595 0.00255598
f 1 2 3
f 1 3 8
f 1 8 20
f 1 20 37
f 1 37 59
f 1 59 88
f 1 88 100
f 1 100 99
f 1 99 68
f 1 68 41
f 1 41 22
f 1 22 9
f 1 9 4
f 1 4 10
f 1 10 27
f 1 27 45
f 1 45 75
f 1 75 113
f 1 113 154
f 1 154 153
f 1 153 152
f 1 152 151
f 1 151 150
f 1 150 149
f 1 149 191
f 1 191 207
f 1 207 213
f 1 213 217
f 1 217 215
f 1 215 214
f 1 214 221
f 1 221 219
f 1 219 218
f 1 218 209
f 1 209 208
f 1 208 194
f 1 194 192
f 1 192 155
f 1 155 114
f 1 114 77
f 1 77 76
f 1 76 46
f 1 46 28
f 1 28 11
f 1 11 5
f 1 5 2
f 2 5 6
f 2 6 7
f 2 7 3
f 3 7 8
f 4 9 21
f 4 21 40
f 4 40 65
f 4 65 95
f 4 95 101
f 4 101 69
f 4 69 42
f 4 42 23
f 4 23 10
f 5 11 12
f 5 12 6
f 6 13 14
f 6 14 8
f 6 8 7
f 6 12 15
f 6 15 16
f 6 16 17
f 6 17 13
f 8 18 19
f 8 19 20
f 8 14 18
f 9 22 21
f 10 23 24
f 10 24 25
f 10 25 26
f 10 26 27
f 11 28 29
f 11 29 15
f 11 15 12
f 13 17 30
f 13 30 14
f 14 30 31
f 14 31 32
f 14 32 18
f 15 29 16
f 16 29 33
f 16 33 34
f 16 34 17
f 17 34 35
f 17 35 30
f 18 32 19
f 19 36 37
f 19 37 20
f 19 32 38
f 19 38 39
f 19 39 36
f 21 22 41
f 21 41 67
f 21 67 98
f 21 98 135
f 21 135 176
f 21 176 177
f 21 177 175
f 21 175 173
f 21 173 181
f 21 181 143
f 21 143 96
f 21 96 66
f 21 66 40
f 23 42 24
f 24 42 25
f 25 42 26
f 26 42 43
f 26 43 44
f 26 44 27
f 27 44 45
f 28 46 47
f 28 47 29
f 29 47 48
f 29 48 33
f 30 35 49
f 30 49 50
f 30 50 31
f 31 50 51
f 31 51 38
f 31 38 32
f 33 48 34
f 34 48 52
f 34 52 53
f 34 53 54
f 34 54 35
f 35 54 55
f 35 55 49
f 36 56 57
f 36 57 37
f 36 39 58
f 36 58 56
f 37 57 59
f 38 51 60
f 38 60 61
f 38 61 62
f 38 62 63
f 38 63 64
f 38 64 39
f 39 64 58
f 40 66 97
f 40 97 145
f 40 145 180
f 40 180 141
f 40 141 94
f 40 94 65
f 41 68 67
f 42 69 43
f 43 70 44
f 43 69 70
f 44 71 75
f 44 75 45
f 44 70 72
f 44 72 73
f 44 73 74
f 44 74 71
f 46 76 47
f 47 76 77
f 47 77 48
f 48 77 78
f 48 78 52
f 49 55 79
f 49 79 80
f 49 80 81
f 49 81 50
f 50 81 80
f 50 80 60
f 50 60 51
f 52 82 83
f 52 83 53
f 52 78 82
f 53 83 54
f 54 84 85
f 54 85 55
f 54 83 86
f 54 86 84
f 55 85 87
f 55 87 79
f 56 88 59
f 56 59 57
f 56 58 89
f 56 89 88
f 58 64 90
f 58 90 89
f 60 80 91
f 60 91 61
f 61 91 62
f 62 92 93
f 62 93 64
f 62 64 63
f 62 91 92
f 64 93 90
f 65 94 142
f 65 142 95
f 66 96 97
f 67 68 99
f 67 99 100
f 67 100 98
f 69 101 102
f 69 102 74
f 69 74 73
f 69 73 72
f 69 72 70
f 71 103 113
f 71 113 75
f 71 74 103
f 74 102 104
f 74 104 105
f 74 105 106
f 74 106 107
f 74 107 108
f 74 108 109
f 74 109 110
f 74 110 111
f 74 111 112
f 74 112 103
f 77 114 115
f 77 115 78
f 78 115 116
f 78 116 117
f 78 117 82
f 79 91 80
f 79 87 118
f 79 118 92
f 79 92 91
f 82 117 119
f 82 119 83
f 83 120 121
f 83 121 122
f 83 122 123
f 83 123 124
f 83 124 86
f 83 119 125
f 83 125 126
f 83 126 120
f 84 86 127
f 84 127 128
f 84 128 129
f 84 129 85
f 85 129 130
f 85 130 131
f 85 131 87
f 86 124 127
f 87 131 132
f 87 132 118
f 88 89 133
f 88 133 100
f 89 90 134
f 89 134 135
f 89 135 133
f 90 93 136
f 90 136 137
f 90 137 134
f 92 118 132
f 92 132 138
f 92 138 139
f 92 139 93
f 93 139 140
f 93 140 136
f 94 141 142
f 95 104 102
f 95 102 101
f 95 142 107
f 95 107 106
f 95 106 105
f 95 105 104
f 96 143 144
f 96 144 145
f 96 145 97
f 98 100 135
f 100 133 135
f 103 112 113
f 107 142 146
f 107 146 108
f 108 146 147
f 108 147 148
f 108 148 109
f 109 148 149
f 109 149 150
f 109 150 151
f 109 151 110
f 110 151 152
f 110 152 153
f 110 153 154
f 110 154 111
f 111 154 112
f 112 154 113
f 114 155 116
f 114 116 115
f 116 155 125
f 116 125 119
f 116 119 117
f 120 126 121
f 121 156 123
f 121 123 122
f 121 126 157
f 121 157 156
f 123 158 124
f 123 156 157
f 123 157 159
f 123 159 160
f 123 160 161
f 123 161 158
f 124 158 127
f 125 155 126
f 126 155 162
f 126 162 157
f 127 158 161
f 127 161 163
f 127 163 164
f 127 164 128
f 128 165 129
f 128 164 166
f 128 166 165
f 129 165 167
f 129 167 130
f 130 167 168
f 130 168 131
f 131 168 169
f 131 169 170
f 131 170 132
f 132 171 138
f 132 170 172
f 132 172 173
f 132 173 174
f 132 174 175
f 132 175 171
f 134 137 135
f 135 137 136
f 135 136 140
f 135 140 139
f 135 139 176
f 138 171 139
f 139 171 177
f 139 177 176
f 141 178 179
f 141 179 142
f 141 180 178
f 142 179 146
f 143 181 182
f 143 182 183
f 143 183 184
f 143 184 144
f 144 184 185
f 144 185 145
f 145 185 186
f 145 186 178
f 145 178 180
f 146 187 188
f 146 188 147
f 146 179 187
f 147 188 189
f 147 189 190
f 147 190 148
f 148 190 191
f 148 191 149
f 155 192 162
f 157 162 192
f 157 192 159
f 159 193 160
f 159 192 194
f 159 194 195
f 159 195 193
f 160 193 161
f 161 193 195
f 161 195 196
f 161 196 197
f 161 197 198
f 161 198 199
f 161 199 163
f 163 199 164
f 164 199 200
f 164 200 166
f 165 166 201
f 165 201 178
f 165 178 167
f 166 200 202
f 166 202 201
f 167 178 186
f 167 186 184
f 167 184 168
f 168 184 169
f 169 203 170
f 169 184 183
f 169 183 203
f 170 203 181
f 170 181 172
f 171 175 177
f 172 181 173
f 173 175 174
f 178 201 179
f 179 201 187
f 181 203 182
f 182 203 183
f 184 186 185
f 187 202 200
f 187 200 188
f 187 201 202
f 188 200 199
f 188 199 189
f 189 204 190
f 189 199 205
f 189 205 206
f 189 206 204
f 190 204 207
f 190 207 191
f 194 208 195
f 195 208 209
f 195 209 196
f 196 209 197
f 197 210 198
f 197 209 211
f 197 211 210
f 198 210 212
f 198 212 205
f 198 205 199
f 204 206 213
f 204 213 207
f 205 212 214
f 205 214 215
f 205 215 216
f 205 216 217
f 205 217 206
f 206 217 213
f 209 218 211
f 210 214 212
f 210 211 218
f 210 218 219
f 210 219 220
f 210 220 214
f 214 220 221
f 215 217 216
f 219 221 220

