# https://github.com/mikedh/trimesh
v 0.00876672 0.01180970 0.05576506
v 0.00876564 0.00956302 0.05576506
v 0.00876564 0.01253998 0.05576506
v 0.00775079 0.01473018 0.06900846
v 0.00775079 0.00956302 0.06900846
v 0.00093676 0.00956302 0.05576506
v 0.00872561 0.01296261 0.05576506
v 0.00771400 0.01546047 0.06900846
v 0.00754305 0.01473018 0.06973820
v 0.00773564 0.00956302 0.06906327
v -0.00182974 0.01117178 0.05576506
v 0.00093676 0.00956302 0.05659574
v 0.00869964 0.01323173 0.05576506
v 0.00745866 0.01604656 0.06900846
v 0.00735047 0.01593692 0.06973820
v 0.00750194 0.01546047 0.06973820
v 0.00868017 0.01332941 0.05576506
v 0.00866069 0.01340716 0.05576506
v 0.00845512 0.01399325 0.05576506
v 0.00780705 0.01546047 0.05951613
v 0.00754305 0.00956302 0.06973820
v 0.00726500 0.01546047 0.07012038
v 0.00728880 0.01473018 0.07013624
v -0.00219435 0.01171135 0.05576506
v 0.00093785 0.00956302 0.05732548
v 0.00094542 0.00956302 0.06170678
v -0.00180377 0.01118706 0.06900846
v 0.00687550 0.01630970 0.06900846
v 0.00746299 0.01604855 0.06097704
v 0.00687550 0.01609507 0.06973820
v 0.00724119 0.01582661 0.07010451
v 0.00779731 0.01546047 0.05576506
v 0.00746407 0.01604789 0.05576506
v 0.00746407 0.01604789 0.05805522
v 0.00728880 0.00956302 0.07013624
v 0.00687550 0.01546047 0.07017662
v 0.00687550 0.01473018 0.07021123
v -0.00226901 0.01207683 0.05586457
v -0.00226901 0.01207683 0.05576506
v -0.00216947 0.01173793 0.06900846
v -0.00219327 0.01171401 0.05659574
v -0.00219435 0.01171202 0.05586457
v -0.00226901 0.01210341 0.06900846
v 0.00096706 0.00956302 0.06681782
v 0.00097030 0.00956302 0.06754755
v 0.00097463 0.00956302 0.06827729
v 0.00098329 0.00956302 0.06895366
v 0.00098437 0.00956302 0.06900846
v 0.00115640 0.00956302 0.06964302
v -0.00169234 0.01129006 0.06973820
v 0.00614520 0.01635157 0.06900846
v 0.00614520 0.01614158 0.06973820
v 0.00687550 0.01631103 0.06097704
v 0.00687550 0.01631103 0.05576506
v 0.00687550 0.01585319 0.07012182
v 0.00687550 0.00956302 0.07021123
v 0.00614520 0.01546047 0.07021412
v 0.00614520 0.01473018 0.07025161
v 0.00249475 0.00956302 0.07049678
v 0.00313958 0.00956302 0.07045640
v -0.00228632 0.01253998 0.06900846
v -0.00228632 0.01253998 0.05576506
v -0.00226360 0.01212733 0.06940794
v -0.00218137 0.01172863 0.06316625
v 0.00124728 0.00956302 0.06981031
v -0.00156142 0.01141100 0.07012470
v -0.00201151 0.01185422 0.06968628
v -0.00042647 0.01635157 0.06900846
v 0.00614520 0.01635157 0.05576506
v -0.00042647 0.01614158 0.06973820
v 0.00614520 0.01587844 0.07014056
v -0.00115678 0.01546047 0.07021412
v -0.00042647 0.01473018 0.07025161
v 0.00174605 0.00956302 0.07026315
v -0.00115678 0.01473018 0.07025017
v -0.00115678 0.01253998 0.07025017
v -0.00115678 0.01180970 0.07022710
v -0.00226901 0.01253998 0.06942525
v -0.00228632 0.01473018 0.06900846
v -0.00228632 0.01473018 0.05576506
v -0.00204072 0.01253998 0.06979156
v -0.00162850 0.01180970 0.07015643
v -0.00115678 0.01634891 0.06900846
v -0.00115678 0.01614025 0.06973820
v -0.00042647 0.01635157 0.05576506
v -0.00115678 0.01587844 0.07013912
v -0.00042647 0.01587844 0.07014056
v -0.00157332 0.01586050 0.07012759
v -0.00163716 0.01546047 0.07015787
v -0.00167611 0.01473018 0.07017662
v -0.00167611 0.01253998 0.07017662
v -0.00226901 0.01473018 0.06942525
v -0.00226360 0.01521327 0.06940794
v -0.00226901 0.01527241 0.06900846
v -0.00226901 0.01527241 0.05576506
v -0.00204072 0.01473018 0.06979156
v -0.00186220 0.01608577 0.06900846
v -0.00173020 0.01598210 0.06973820
v -0.00115678 0.01634891 0.05576506
v -0.00176699 0.01612165 0.05576506
v -0.00204288 0.01545781 0.06968628
v -0.00222789 0.01563723 0.06900846
v -0.00226360 0.01532159 0.05576506
v -0.00186220 0.01608577 0.05576506
v -0.00191197 0.01602530 0.05576506
v -0.00222789 0.01563723 0.05576506
f 1 2 6
f 1 6 11
f 1 11 24
f 1 24 39
f 1 39 62
f 1 62 80
f 1 80 95
f 1 95 103
f 1 103 106
f 1 106 105
f 1 105 104
f 1 104 100
f 1 100 99
f 1 99 85
f 1 85 69
f 1 69 54
f 1 54 33
f 1 33 32
f 1 32 19
f 1 19 18
f 1 18 17
f 1 17 13
f 1 13 7
f 1 7 3
f 1 3 4
f 1 4 5
f 1 5 2
f 2 5 10
f 2 10 21
f 2 21 35
f 2 35 56
f 2 56 60
f 2 60 59
f 2 59 74
f 2 74 65
f 2 65 49
f 2 49 48
f 2 48 47
f 2 47 46
f 2 46 45
f 2 45 44
f 2 44 26
f 2 26 25
f 2 25 12
f 2 12 6
f 3 7 8
f 3 8 4
f 4 8 9
f 4 9 10
f 4 10 5
f 6 12 11
f 7 13 8
f 8 14 15
f 8 15 16
f 8 16 9
f 8 13 17
f 8 17 18
f 8 18 19
f 8 19 20
f 8 20 14
f 9 21 10
f 9 16 22
f 9 22 23
f 9 23 35
f 9 35 21
f 11 12 25
f 11 25 26
f 11 26 27
f 11 27 24
f 14 28 15
f 14 20 29
f 14 29 28
f 15 30 31
f 15 31 16
f 15 28 30
f 16 31 22
f 19 32 20
f 20 32 33
f 20 33 34
f 20 34 29
f 22 31 36
f 22 36 37
f 22 37 23
f 23 37 56
f 23 56 35
f 24 38 39
f 24 27 40
f 24 40 41
f 24 41 42
f 24 42 43
f 24 43 38
f 26 44 27
f 27 44 45
f 27 45 46
f 27 46 47
f 27 47 48
f 27 48 49
f 27 49 50
f 27 50 40
f 28 51 52
f 28 52 30
f 28 29 53
f 28 53 51
f 29 34 33
f 29 33 54
f 29 54 53
f 30 52 55
f 30 55 31
f 31 55 36
f 36 57 58
f 36 58 37
f 36 55 57
f 37 58 59
f 37 59 60
f 37 60 56
f 38 43 61
f 38 61 62
f 38 62 39
f 40 50 63
f 40 63 43
f 40 43 64
f 40 64 41
f 41 64 43
f 41 43 42
f 43 63 61
f 49 65 50
f 50 65 66
f 50 66 67
f 50 67 63
f 51 68 70
f 51 70 52
f 51 53 54
f 51 54 69
f 51 69 85
f 51 85 68
f 52 70 87
f 52 87 71
f 52 71 55
f 55 71 57
f 57 71 87
f 57 87 72
f 57 72 73
f 57 73 58
f 58 73 59
f 59 73 75
f 59 75 76
f 59 76 77
f 59 77 66
f 59 66 74
f 61 63 78
f 61 78 92
f 61 92 79
f 61 79 80
f 61 80 62
f 63 67 81
f 63 81 78
f 65 74 66
f 66 77 82
f 66 82 67
f 67 82 81
f 68 83 84
f 68 84 70
f 68 85 99
f 68 99 83
f 70 84 86
f 70 86 87
f 72 75 73
f 72 87 86
f 72 86 88
f 72 88 89
f 72 89 75
f 75 89 90
f 75 90 91
f 75 91 76
f 76 91 77
f 77 91 82
f 78 81 96
f 78 96 92
f 79 92 93
f 79 93 94
f 79 94 95
f 79 95 80
f 81 82 91
f 81 91 90
f 81 90 96
f 83 97 98
f 83 98 84
f 83 99 100
f 83 100 97
f 84 98 88
f 84 88 86
f 88 98 101
f 88 101 89
f 89 101 96
f 89 96 90
f 92 96 93
f 93 96 101
f 93 101 102
f 93 102 94
f 94 102 103
f 94 103 95
f 97 102 98
f 97 100 104
f 97 104 105
f 97 105 102
f 98 102 101
f 102 105 106
f 102 106 103

