# https://github.com/mikedh/trimesh
v 0.00112328 -0.01374906 0.01140165
v -0.00188683 -0.01089135 0.01140165
v -0.00382384 -0.01374906 0.01140165
v 0.00112328 -0.01439005 0.01133232
v 0.00112328 -0.01365962 0.01140049
v -0.00115706 -0.01089135 0.01139125
v -0.00382384 -0.01089135 0.01140165
v -0.00382384 -0.01447949 0.01132193
v 0.00112328 -0.01447949 0.01132193
v 0.00112328 -0.01301907 0.01138663
v 0.00112328 -0.01293007 0.01136121
v -0.00050623 -0.01089135 0.01116711
v -0.00382384 -0.01089135 -0.00040164
v -0.00382384 -0.01499947 0.01109894
v 0.00112328 -0.01499947 0.01109894
v 0.00112328 -0.01242368 0.01116364
v -0.00022972 -0.01089135 0.01063795
v -0.00188683 -0.01089135 -0.00040164
v -0.00382384 -0.01374906 -0.00040164
v -0.00382384 -0.01526209 0.01058826
v 0.00112328 -0.01523009 0.01065066
v 0.00112328 -0.01238422 0.01107005
v -0.00020841 -0.01089135 0.01058826
v -0.00182291 -0.01089135 -0.00038315
v 0.00112328 -0.01374906 -0.00040164
v -0.00382384 -0.01447949 -0.00032192
v -0.00382384 -0.01533268 0.01011225
v 0.00112328 -0.01526209 0.01058826
v 0.00112328 -0.01219920 0.01058826
v -0.00018469 -0.01089135 0.00994126
v -0.00121711 -0.01089135 -0.00019829
v 0.00112328 -0.01314402 -0.00019829
v 0.00112328 -0.01447949 -0.00032192
v 0.00112328 -0.01454043 -0.00029765
v -0.00382384 -0.01465355 -0.00025260
v 0.00112328 -0.01536995 0.00985807
v -0.00382384 -0.01536995 0.00985807
v 0.00112328 -0.01219744 0.01046811
v -0.00018227 -0.01089135 0.00985807
v -0.00090671 -0.01089135 0.00036553
v 0.00112328 -0.01290771 0.00036553
v 0.00112328 -0.01498018 -0.00012204
v -0.00382384 -0.01498018 -0.00012204
v 0.00112328 -0.01536995 0.00109572
v -0.00382384 -0.01536995 0.00109572
v 0.00112328 -0.01218912 0.00985807
v -0.00018178 -0.01089135 0.00921453
v -0.00020502 -0.01089135 0.00328631
v 0.00112328 -0.01219964 0.00328631
v 0.00112328 -0.01524280 0.00036553
v -0.00382384 -0.01524280 0.00036553
v 0.00112328 -0.01525859 0.00045565
v -0.00382384 -0.01528708 0.00061971
v 0.00112328 -0.01218912 0.00900771
v -0.00018178 -0.01089135 0.00474670
v -0.00018227 -0.01089135 0.00401651
v 0.00112328 -0.01218999 0.00401651
f 1 2 7
f 1 7 3
f 1 3 4
f 1 4 9
f 1 9 15
f 1 15 21
f 1 21 28
f 1 28 36
f 1 36 44
f 1 44 52
f 1 52 50
f 1 50 42
f 1 42 34
f 1 34 33
f 1 33 25
f 1 25 32
f 1 32 41
f 1 41 49
f 1 49 57
f 1 57 54
f 1 54 46
f 1 46 38
f 1 38 29
f 1 29 22
f 1 22 16
f 1 16 11
f 1 11 10
f 1 10 5
f 1 5 2
f 2 5 6
f 2 6 12
f 2 12 17
f 2 17 23
f 2 23 30
f 2 30 39
f 2 39 47
f 2 47 55
f 2 55 56
f 2 56 48
f 2 48 40
f 2 40 31
f 2 31 24
f 2 24 18
f 2 18 13
f 2 13 7
f 3 8 4
f 3 7 13
f 3 13 19
f 3 19 26
f 3 26 35
f 3 35 43
f 3 43 51
f 3 51 53
f 3 53 45
f 3 45 37
f 3 37 27
f 3 27 20
f 3 20 14
f 3 14 8
f 4 8 9
f 5 10 6
f 6 10 11
f 6 11 12
f 8 14 15
f 8 15 9
f 11 16 12
f 12 16 17
f 13 18 25
f 13 25 19
f 14 20 21
f 14 21 15
f 16 22 17
f 17 22 23
f 18 24 25
f 19 25 33
f 19 33 26
f 20 27 28
f 20 28 21
f 22 29 23
f 23 29 30
f 24 31 25
f 25 31 32
f 26 33 34
f 26 34 35
f 27 36 28
f 27 37 36
f 29 38 39
f 29 39 30
f 31 40 32
f 32 40 41
f 34 42 35
f 35 42 43
f 36 37 45
f 36 45 44
f 38 46 39
f 39 46 47
f 40 48 49
f 40 49 41
f 42 50 51
f 42 51 43
f 44 45 52
f 45 53 52
f 46 54 55
f 46 55 47
f 48 56 49
f 49 56 57
f 50 52 51
f 51 52 53
f 54 57 55
f 55 57 56

