# https://github.com/mikedh/trimesh
v 0.00876682 -0.00571685 0.05576506
v 0.00876141 -0.00644683 0.05576506
v 0.00876574 -0.00331642 0.05576506
v 0.00775087 -0.00331642 0.06900793
v 0.00775087 -0.00863742 0.06900793
v 0.00866404 -0.00706037 0.05576506
v 0.00073231 -0.00331642 0.05576506
v 0.00760373 -0.00331642 0.06952774
v 0.00754314 -0.00863742 0.06973824
v 0.00737328 -0.00932965 0.06968812
v 0.00752367 -0.00936740 0.06900793
v 0.00788395 -0.00873338 0.05878652
v 0.00829834 -0.00783642 0.05576506
v -0.00169125 -0.00450192 0.05576506
v 0.00073231 -0.00331642 0.05586529
v 0.00754314 -0.00331642 0.06973824
v 0.00736137 -0.00331642 0.07002177
v 0.00728780 -0.00863742 0.07013633
v 0.00727266 -0.00906031 0.07012630
v 0.00725967 -0.00974550 0.06941032
v 0.00726833 -0.00975190 0.06900793
v 0.00755180 -0.00936740 0.06024570
v 0.00755071 -0.00936740 0.05878652
v 0.00754747 -0.00936740 0.05576506
v 0.00787963 -0.00871291 0.05576506
v -0.00168800 -0.00450512 0.05805621
v 0.00077342 -0.00331642 0.06831772
v -0.00174102 -0.00456525 0.05576506
v -0.00204288 -0.00496831 0.06462610
v -0.00203747 -0.00496831 0.06754732
v -0.00203422 -0.00496831 0.06900793
v 0.00728780 -0.00331642 0.07013633
v 0.00699460 -0.00331642 0.07018931
v 0.00687558 -0.00863742 0.07021079
v 0.00687558 -0.00950623 0.06985136
v 0.00687558 -0.00914092 0.07015637
v 0.00687558 -0.00977174 0.06948621
v 0.00687558 -0.00981140 0.06900793
v 0.00727266 -0.00975446 0.06024570
v 0.00727266 -0.00975446 0.05576506
v -0.00168476 -0.00450831 0.06024570
v -0.00167610 -0.00451727 0.06535641
v -0.00167069 -0.00452303 0.06827763
v -0.00166853 -0.00452431 0.06900793
v 0.00078207 -0.00331642 0.06900793
v -0.00168151 -0.00451215 0.06243661
v -0.00205695 -0.00496831 0.05576506
v -0.00225927 -0.00533362 0.06900793
v -0.00225602 -0.00533938 0.06938741
v -0.00161876 -0.00455694 0.06955494
v -0.00167394 -0.00452047 0.06681701
v 0.00687558 -0.00331642 0.07021079
v 0.00635517 -0.00331642 0.07023943
v 0.00614527 -0.00863742 0.07025088
v 0.00614527 -0.00955741 0.06990864
v 0.00614527 -0.00919210 0.07017642
v 0.00614527 -0.00979221 0.06954349
v 0.00614527 -0.00985171 0.06900793
v 0.00687558 -0.00981396 0.06024570
v 0.00721856 -0.00976278 0.05576506
v 0.00102768 -0.00331642 0.06977833
v -0.00225927 -0.00533298 0.05576506
v -0.00225927 -0.00533298 0.06243661
v -0.00227550 -0.00571685 0.06900793
v -0.00226360 -0.00571685 0.06941032
v -0.00203531 -0.00571685 0.06977547
v -0.00161768 -0.00518136 0.07015065
v -0.00186220 -0.00501693 0.06971533
v 0.00114885 -0.00331642 0.06996449
v -0.00132555 -0.00469513 0.07004182
v 0.00139554 -0.00331642 0.07021509
v 0.00614527 -0.00331642 0.07025088
v 0.00323484 -0.00331642 0.07037403
v 0.00249479 -0.00331642 0.07039408
v -0.00115677 -0.00863742 0.07025088
v -0.00115677 -0.00955741 0.06990864
v -0.00115677 -0.00919210 0.07017642
v -0.00042646 -0.00979221 0.06954349
v -0.00042646 -0.00985171 0.06900793
v 0.00614527 -0.00985171 0.05576506
v 0.00687558 -0.00981396 0.05576506
v -0.00227550 -0.00571685 0.05576506
v -0.00228632 -0.00644683 0.06900793
v -0.00227766 -0.00581601 0.05576506
v -0.00226901 -0.00644683 0.06942607
v -0.00204072 -0.00644683 0.06979122
v -0.00167069 -0.00571685 0.07017499
v -0.00115677 -0.00571685 0.07024945
v 0.00200575 -0.00331642 0.07035256
v -0.00115677 -0.00644683 0.07025088
v -0.00167610 -0.00863742 0.07017642
v -0.00162417 -0.00912876 0.07015208
v -0.00160686 -0.00977174 0.06948621
v -0.00115677 -0.00979157 0.06954349
v -0.00115677 -0.00985107 0.06900793
v -0.00042646 -0.00985171 0.05576506
v -0.00228632 -0.00863742 0.06900793
v -0.00228632 -0.00644683 0.05576506
v -0.00226901 -0.00863742 0.06942607
v -0.00167610 -0.00644683 0.07017642
v -0.00204072 -0.00863742 0.06979122
v -0.00226360 -0.00903536 0.06940888
v -0.00185895 -0.00932517 0.06969098
v -0.00201475 -0.00941666 0.06900793
v -0.00164905 -0.00979157 0.06900793
v -0.00115677 -0.00985107 0.05576506
v -0.00226901 -0.00905135 0.06900793
v -0.00228632 -0.00863742 0.05576506
v -0.00204937 -0.00936740 0.05576506
v -0.00201475 -0.00941666 0.05576506
v -0.00196498 -0.00946784 0.05576506
v -0.00164905 -0.00979157 0.05576506
v -0.00226901 -0.00905135 0.05576506
f 1 2 6
f 1 6 13
f 1 13 25
f 1 25 24
f 1 24 40
f 1 40 60
f 1 60 81
f 1 81 80
f 1 80 96
f 1 96 106
f 1 106 112
f 1 112 111
f 1 111 110
f 1 110 109
f 1 109 113
f 1 113 108
f 1 108 98
f 1 98 84
f 1 84 82
f 1 82 62
f 1 62 47
f 1 47 28
f 1 28 14
f 1 14 7
f 1 7 3
f 1 3 4
f 1 4 5
f 1 5 2
f 2 5 6
f 3 7 15
f 3 15 27
f 3 27 45
f 3 45 61
f 3 61 69
f 3 69 71
f 3 71 89
f 3 89 74
f 3 74 73
f 3 73 72
f 3 72 53
f 3 53 52
f 3 52 33
f 3 33 32
f 3 32 17
f 3 17 16
f 3 16 8
f 3 8 4
f 4 8 5
f 5 8 9
f 5 9 10
f 5 10 11
f 5 11 6
f 6 12 13
f 6 11 12
f 7 14 15
f 8 16 9
f 9 16 17
f 9 17 18
f 9 18 19
f 9 19 10
f 10 20 11
f 10 19 20
f 11 20 21
f 11 21 22
f 11 22 12
f 12 22 23
f 12 23 24
f 12 24 25
f 12 25 13
f 14 26 27
f 14 27 15
f 14 28 29
f 14 29 30
f 14 30 31
f 14 31 26
f 17 32 18
f 18 32 33
f 18 33 34
f 18 34 19
f 19 35 20
f 19 34 36
f 19 36 35
f 20 35 37
f 20 37 38
f 20 38 21
f 21 38 39
f 21 39 22
f 22 39 40
f 22 40 23
f 23 40 24
f 26 31 41
f 26 41 27
f 27 42 43
f 27 43 44
f 27 44 45
f 27 41 46
f 27 46 42
f 28 47 29
f 29 48 30
f 29 47 48
f 30 48 31
f 31 48 49
f 31 49 50
f 31 50 44
f 31 44 43
f 31 43 51
f 31 51 46
f 31 46 41
f 33 52 34
f 34 52 53
f 34 53 54
f 34 54 36
f 35 36 55
f 35 55 37
f 36 54 56
f 36 56 55
f 37 57 58
f 37 58 38
f 37 55 57
f 38 58 59
f 38 59 39
f 39 59 60
f 39 60 40
f 42 51 43
f 42 46 51
f 44 50 45
f 45 50 61
f 47 62 63
f 47 63 48
f 48 64 49
f 48 63 64
f 49 65 66
f 49 66 67
f 49 67 68
f 49 68 50
f 49 64 65
f 50 69 61
f 50 68 70
f 50 70 71
f 50 71 69
f 53 72 54
f 54 72 73
f 54 73 74
f 54 74 75
f 54 75 77
f 54 77 56
f 55 76 78
f 55 78 57
f 55 56 77
f 55 77 76
f 57 78 79
f 57 79 58
f 58 79 96
f 58 96 80
f 58 80 81
f 58 81 59
f 59 81 60
f 62 82 64
f 62 64 63
f 64 83 65
f 64 82 84
f 64 84 83
f 65 83 85
f 65 85 86
f 65 86 66
f 66 86 87
f 66 87 67
f 67 87 88
f 67 88 89
f 67 89 71
f 67 71 70
f 67 70 68
f 74 89 88
f 74 88 90
f 74 90 75
f 75 90 100
f 75 100 91
f 75 91 92
f 75 92 77
f 76 93 94
f 76 94 78
f 76 77 92
f 76 92 93
f 78 94 95
f 78 95 79
f 79 95 106
f 79 106 96
f 83 97 99
f 83 99 85
f 83 84 98
f 83 98 108
f 83 108 97
f 85 99 101
f 85 101 86
f 86 100 87
f 86 101 91
f 86 91 100
f 87 100 88
f 88 100 90
f 91 101 92
f 92 101 102
f 92 102 103
f 92 103 93
f 93 103 102
f 93 102 104
f 93 104 105
f 93 105 95
f 93 95 94
f 95 105 112
f 95 112 106
f 97 107 102
f 97 102 99
f 97 108 113
f 97 113 107
f 99 102 101
f 102 107 104
f 104 107 109
f 104 109 110
f 104 110 111
f 104 111 105
f 105 111 112
f 107 113 109

