# https://github.com/mikedh/trimesh
v -0.00382422 -0.00221367 0.01162545
v -0.00465865 -0.00333178 0.01162545
v -0.00382422 -0.00755937 0.01162545
v -0.00382422 -0.00199634 0.00985818
v -0.00771808 -0.00510713 0.00985818
v -0.00771808 -0.00524853 0.01051987
v -0.00771808 -0.00525769 0.01054107
v -0.00771808 -0.00540564 0.01083424
v -0.00771808 -0.00571332 0.01112270
v -0.00771808 -0.00573688 0.01113330
v -0.00771808 -0.00643602 0.01137349
v -0.00479511 -0.00351900 0.01162545
v -0.00419169 -0.00755937 0.01162545
v -0.00382422 -0.01374822 0.01140057
v -0.00382422 -0.00199503 0.00912702
v -0.00771808 -0.00510713 0.00109601
v -0.00771808 -0.00644781 0.01137584
v -0.00536690 -0.00437526 0.01162545
v -0.00480845 -0.00754889 0.01162545
v -0.00771808 -0.01374822 0.01140057
v -0.00382422 -0.01422479 0.01134994
v -0.00382422 -0.00199503 0.00182599
v -0.00771808 -0.00525508 0.00044255
v -0.00382422 -0.00199634 0.00109601
v -0.00611708 -0.00578009 0.01162545
v -0.00600577 -0.00550383 0.01162545
v -0.00567452 -0.00487801 0.01162545
v -0.00771808 -0.00716659 0.01140057
v -0.00490680 -0.00754235 0.01162545
v -0.00771808 -0.01446831 0.01132404
v -0.00553843 -0.00740749 0.01162545
v -0.00555216 -0.00740356 0.01162545
v -0.00601187 -0.00711815 0.01162545
v -0.00609878 -0.00703566 0.01162545
v -0.00621123 -0.00644781 0.01162545
v -0.00382422 -0.01447878 0.01132286
v -0.00771808 -0.00529304 0.00037191
v -0.00382422 -0.00205918 0.00083463
v -0.00382422 -0.00217963 0.00036602
v -0.00619065 -0.00620690 0.01162545
v -0.00771808 -0.01447878 0.01132286
v -0.00771808 -0.01499070 0.01110151
v -0.00382422 -0.01499856 0.01109797
v -0.00739521 -0.00533494 -0.00001428
v -0.00771808 -0.00566356 -0.00007432
v -0.00382422 -0.00231318 0.00014350
v -0.00382422 -0.00246636 -0.00006019
v -0.00771808 -0.01499856 0.01109797
v -0.00382422 -0.01517007 0.01076595
v -0.00771808 -0.00572772 -0.00014496
v -0.00382422 -0.00283033 -0.00018500
v -0.00771808 -0.01526172 0.01058816
v -0.00382422 -0.01526172 0.01058816
v -0.00771808 -0.00629855 -0.00032746
v -0.00382422 -0.00352686 -0.00034277
v -0.00407809 -0.00352686 -0.00031333
v -0.00771808 -0.00644781 -0.00037456
v -0.00771808 -0.01537039 0.00985818
v -0.00382422 -0.01537039 0.00985818
v -0.00382422 -0.00425611 -0.00039810
v -0.00407809 -0.00425611 -0.00039575
v -0.00699877 -0.00644781 -0.00040164
v -0.00771808 -0.00717706 -0.00040164
v -0.00771808 -0.01537039 0.00109601
v -0.00382422 -0.01537039 0.00109601
v -0.00382422 -0.00498668 -0.00040164
v -0.00407809 -0.00498668 -0.00040164
v -0.00771808 -0.01374822 -0.00040164
v -0.00771808 -0.01524470 0.00037662
v -0.00382422 -0.01528659 0.00061916
v -0.00382422 -0.01374822 -0.00040164
v -0.00771808 -0.01447878 -0.00032275
v -0.00771808 -0.01524208 0.00036602
v -0.00382422 -0.01524208 0.00036602
v -0.00382422 -0.01447878 -0.00032275
v -0.00771808 -0.01497892 -0.00012142
v -0.00771808 -0.01498416 -0.00011435
v -0.00382422 -0.01507057 0.00004813
v -0.00382422 -0.01497892 -0.00012142
f 1 2 12
f 1 12 18
f 1 18 27
f 1 27 26
f 1 26 25
f 1 25 40
f 1 40 35
f 1 35 34
f 1 34 33
f 1 33 32
f 1 32 31
f 1 31 29
f 1 29 19
f 1 19 13
f 1 13 3
f 1 3 14
f 1 14 21
f 1 21 36
f 1 36 43
f 1 43 49
f 1 49 53
f 1 53 59
f 1 59 65
f 1 65 70
f 1 70 74
f 1 74 78
f 1 78 79
f 1 79 75
f 1 75 71
f 1 71 66
f 1 66 60
f 1 60 55
f 1 55 51
f 1 51 47
f 1 47 46
f 1 46 39
f 1 39 38
f 1 38 24
f 1 24 22
f 1 22 15
f 1 15 4
f 1 4 5
f 1 5 6
f 1 6 7
f 1 7 8
f 1 8 9
f 1 9 10
f 1 10 11
f 1 11 2
f 2 11 12
f 3 13 20
f 3 20 14
f 4 15 5
f 5 16 23
f 5 23 37
f 5 37 45
f 5 45 50
f 5 50 54
f 5 54 57
f 5 57 63
f 5 63 68
f 5 68 72
f 5 72 76
f 5 76 77
f 5 77 73
f 5 73 69
f 5 69 64
f 5 64 58
f 5 58 52
f 5 52 48
f 5 48 42
f 5 42 41
f 5 41 30
f 5 30 20
f 5 20 28
f 5 28 17
f 5 17 11
f 5 11 10
f 5 10 9
f 5 9 8
f 5 8 7
f 5 7 6
f 5 15 22
f 5 22 16
f 11 17 12
f 12 17 18
f 13 19 20
f 14 20 21
f 16 22 24
f 16 24 23
f 17 25 26
f 17 26 27
f 17 27 18
f 17 28 25
f 19 29 20
f 20 30 21
f 20 29 31
f 20 31 32
f 20 32 33
f 20 33 34
f 20 34 35
f 20 35 28
f 21 30 36
f 23 24 38
f 23 38 39
f 23 39 37
f 25 28 40
f 28 35 40
f 30 41 36
f 36 41 42
f 36 42 43
f 37 44 45
f 37 39 46
f 37 46 47
f 37 47 44
f 42 48 43
f 43 48 49
f 44 50 45
f 44 47 50
f 47 51 50
f 48 52 49
f 49 52 53
f 50 51 54
f 51 55 56
f 51 56 57
f 51 57 54
f 52 58 59
f 52 59 53
f 55 60 61
f 55 61 57
f 55 57 56
f 57 62 63
f 57 61 62
f 58 64 65
f 58 65 59
f 60 66 67
f 60 67 62
f 60 62 61
f 62 67 66
f 62 66 71
f 62 71 68
f 62 68 63
f 64 69 65
f 65 69 70
f 68 71 75
f 68 75 72
f 69 73 74
f 69 74 70
f 72 75 79
f 72 79 76
f 73 77 74
f 74 77 78
f 76 79 77
f 77 79 78

