# https://github.com/mikedh/trimesh
v 0.00689850 -0.00206401 0.02298807
v 0.00689850 -0.00500075 0.02298807
v 0.00689850 0.00961809 0.02297451
v 0.00558780 0.00880652 0.02127036
v 0.00558780 -0.00498610 0.02127036
v 0.00689850 -0.00571610 0.02297644
v 0.00689850 0.01034809 0.02297354
v 0.00689850 0.01104254 0.02297160
v 0.00558780 0.00951979 0.02126261
v 0.00558780 -0.00571610 0.02121029
v 0.00689850 -0.00643983 0.02289313
v 0.00689850 0.01175790 0.02295804
v 0.00558780 0.01017658 0.02119382
v 0.00689850 0.01181019 0.02295513
v 0.00558780 -0.00621602 0.02099909
v 0.00689850 -0.00715519 0.02227115
v 0.00558780 0.01061165 0.02105044
v 0.00689850 0.01226199 0.02269646
v 0.00558780 -0.00630805 0.02090511
v 0.00689850 -0.00717401 0.02225274
v 0.00652357 0.01210093 0.02184680
v 0.00558780 0.01079990 0.02080145
v 0.00689850 0.01253391 0.02226727
v 0.00558780 -0.00638545 0.02079370
v 0.00689850 -0.00783708 0.02153872
v 0.00647199 0.01223062 0.02135949
v 0.00558780 0.01085638 0.02070457
v 0.00689850 0.01269079 0.02186037
v 0.00558780 -0.00667201 0.02024729
v 0.00689850 -0.00823450 0.02081211
v 0.00675107 0.01262386 0.02081211
v 0.00645172 0.01225781 0.02081211
v 0.00558780 0.01102999 0.02008162
v 0.00558780 0.01099861 0.02020078
v 0.00689850 0.01277028 0.02110082
v 0.00558780 -0.00671803 0.02012328
v 0.00689850 -0.00832654 0.02008162
v 0.00558780 -0.00674940 0.01991305
v 0.00689850 0.01277446 0.02081211
v 0.00675004 0.01262386 0.01935113
v 0.00645069 0.01225781 0.02008162
v 0.00582658 0.01137930 0.01935113
v 0.00558780 0.01104254 0.01935113
v 0.00582658 0.01137721 0.02008162
v 0.00689850 -0.00859218 0.01309258
v 0.00558780 -0.00681006 0.01935113
v 0.00689850 0.01277655 0.01789113
v 0.00674966 0.01262386 0.01862065
v 0.00645069 0.01225781 0.01497015
v 0.00582658 0.01137930 0.01351014
v 0.00558780 0.01104254 0.01351014
v 0.00689850 0.01268452 0.01309258
v 0.00558780 -0.00682470 0.01637880
v 0.00558780 -0.00680169 0.01309258
v 0.00689850 0.01277446 0.01570063
v 0.00675068 0.01262386 0.01570063
v 0.00675017 0.01262386 0.01643112
v 0.00674979 0.01262386 0.01716161
v 0.00674966 0.01262386 0.01789113
v 0.00675145 0.01262386 0.01497015
v 0.00645069 0.01225572 0.01424063
v 0.00582851 0.01137721 0.01309258
v 0.00558780 0.01104045 0.01309258
v 0.00680534 0.01259039 0.01309258
v 0.00677968 0.01260921 0.01351014
v 0.00689850 0.01272844 0.01351014
v 0.00689850 0.01277237 0.01497015
v 0.00675928 0.01262177 0.01424063
v 0.00645711 0.01224317 0.01351014
v 0.00596170 0.01156128 0.01309258
v 0.00647032 0.01222434 0.01309258
v 0.00689850 0.01276191 0.01424063
v 0.00689850 0.01276609 0.01452546
v 0.00628953 0.01199426 0.01309258
f 1 2 6
f 1 6 11
f 1 11 16
f 1 16 20
f 1 20 25
f 1 25 30
f 1 30 37
f 1 37 45
f 1 45 52
f 1 52 66
f 1 66 72
f 1 72 73
f 1 73 67
f 1 67 55
f 1 55 47
f 1 47 39
f 1 39 35
f 1 35 28
f 1 28 23
f 1 23 18
f 1 18 14
f 1 14 12
f 1 12 8
f 1 8 7
f 1 7 3
f 1 3 4
f 1 4 5
f 1 5 2
f 2 5 6
f 3 7 4
f 4 7 8
f 4 8 9
f 4 9 13
f 4 13 17
f 4 17 22
f 4 22 27
f 4 27 34
f 4 34 33
f 4 33 43
f 4 43 51
f 4 51 63
f 4 63 54
f 4 54 53
f 4 53 46
f 4 46 38
f 4 38 36
f 4 36 29
f 4 29 24
f 4 24 19
f 4 19 15
f 4 15 10
f 4 10 5
f 5 10 6
f 6 10 11
f 8 12 9
f 9 12 14
f 9 14 13
f 10 15 11
f 11 15 16
f 13 14 17
f 14 18 17
f 15 19 20
f 15 20 16
f 17 18 21
f 17 21 22
f 18 23 21
f 19 24 25
f 19 25 20
f 21 23 26
f 21 26 27
f 21 27 22
f 23 28 26
f 24 29 30
f 24 30 25
f 26 28 31
f 26 31 32
f 26 32 33
f 26 33 34
f 26 34 27
f 28 35 31
f 29 36 30
f 30 36 38
f 30 38 37
f 31 35 39
f 31 39 40
f 31 40 41
f 31 41 32
f 32 41 42
f 32 42 43
f 32 43 44
f 32 44 33
f 33 44 43
f 37 38 46
f 37 46 45
f 39 47 40
f 40 48 41
f 40 47 48
f 41 48 59
f 41 59 49
f 41 49 50
f 41 50 42
f 42 50 51
f 42 51 43
f 45 46 53
f 45 53 54
f 45 54 63
f 45 63 62
f 45 62 70
f 45 70 74
f 45 74 71
f 45 71 64
f 45 64 52
f 47 55 56
f 47 56 57
f 47 57 58
f 47 58 59
f 47 59 48
f 49 59 58
f 49 58 57
f 49 57 56
f 49 56 60
f 49 60 61
f 49 61 50
f 50 62 63
f 50 63 51
f 50 61 62
f 52 64 65
f 52 65 66
f 55 67 60
f 55 60 56
f 60 68 61
f 60 67 68
f 61 68 69
f 61 69 70
f 61 70 62
f 64 71 65
f 65 71 69
f 65 69 68
f 65 68 72
f 65 72 66
f 67 73 68
f 68 73 72
f 69 71 74
f 69 74 70

