# https://github.com/mikedh/trimesh
v 0.00689863 -0.01089135 0.01162545
v 0.00603651 -0.01089135 0.01162545
v 0.00689863 -0.01449089 0.01162545
v 0.00689863 -0.01089135 -0.00023798
v 0.00605629 -0.01301907 0.01162545
v 0.00322515 -0.01089135 0.01139115
v 0.00112328 -0.01301907 0.01138644
v 0.00112328 -0.01365962 0.01140057
v 0.00112328 -0.01374906 0.01140057
v 0.00650290 -0.01439136 0.01162545
v 0.00112328 -0.01447949 0.01132286
v 0.00112328 -0.01493546 0.01112623
v 0.00112328 -0.01499947 0.01109797
v 0.00249475 -0.01499947 0.01109797
v 0.00322515 -0.01499728 0.01109680
v 0.00395498 -0.01498325 0.01108856
v 0.00468482 -0.01495914 0.01106854
v 0.00541522 -0.01492801 0.01104264
v 0.00689863 -0.01467065 0.01129224
v 0.00689863 -0.01231188 -0.00023445
v 0.00687545 -0.01155865 -0.00023916
v 0.00687545 -0.01089135 -0.00024033
v 0.00608343 -0.01358859 0.01162545
v 0.00315731 -0.01089135 0.01137231
v 0.00112328 -0.01293007 0.01136053
v 0.00645767 -0.01437997 0.01162545
v 0.00636270 -0.01424800 0.01162545
v 0.00610322 -0.01374906 0.01162545
v 0.00112328 -0.01523009 0.01065057
v 0.00249475 -0.01526209 0.01058816
v 0.00322515 -0.01525902 0.01058816
v 0.00395498 -0.01523535 0.01058816
v 0.00468482 -0.01518537 0.01058816
v 0.00614562 -0.01488504 0.01100732
v 0.00661710 -0.01485523 0.01097435
v 0.00689863 -0.01483725 0.01074947
v 0.00689863 -0.01301907 -0.00023209
v 0.00687545 -0.01301907 -0.00023445
v 0.00687545 -0.01228908 -0.00023680
v 0.00614562 -0.01089135 -0.00030627
v 0.00254054 -0.01089135 0.01116744
v 0.00112328 -0.01242368 0.01116391
v 0.00112328 -0.01526209 0.01058816
v 0.00112328 -0.01535680 0.00994766
v 0.00249475 -0.01536995 0.00985818
v 0.00322515 -0.01536776 0.00985818
v 0.00395498 -0.01534934 0.00985818
v 0.00468482 -0.01529717 0.00985818
v 0.00541522 -0.01510996 0.01058816
v 0.00614562 -0.01500210 0.01058816
v 0.00689863 -0.01486137 0.01058816
v 0.00614562 -0.01374906 -0.00028390
v 0.00541522 -0.01374906 -0.00036161
v 0.00689863 -0.01374994 -0.00018618
v 0.00541522 -0.01228908 -0.00036632
v 0.00541522 -0.01089135 -0.00036867
v 0.00219852 -0.01089135 0.01057050
v 0.00112328 -0.01238422 0.01106972
v 0.00112328 -0.01536995 0.00985818
v 0.00322515 -0.01536819 0.00839703
v 0.00249475 -0.01536995 0.00109601
v 0.00395498 -0.01535110 0.00766705
v 0.00395498 -0.01535022 0.00912702
v 0.00395498 -0.01535285 0.00328714
v 0.00395498 -0.01535241 0.00474711
v 0.00468482 -0.01529980 0.00766705
v 0.00541522 -0.01520729 0.00985818
v 0.00614562 -0.01507488 0.00985818
v 0.00679687 -0.01492012 0.00985818
v 0.00689863 -0.01489337 0.00985818
v 0.00614562 -0.01438961 -0.00013437
v 0.00468482 -0.01447949 -0.00030156
v 0.00468482 -0.01374906 -0.00039810
v 0.00689863 -0.01423397 -0.00006961
v 0.00687545 -0.01423791 -0.00007197
v 0.00468482 -0.01301907 -0.00039928
v 0.00474813 -0.01089135 -0.00039693
v 0.00219513 -0.01089135 0.01040096
v 0.00112328 -0.01219920 0.01058816
v 0.00112328 -0.01536995 0.00109601
v 0.00322515 -0.01536819 0.00109601
v 0.00112328 -0.01525859 0.00045550
v 0.00249475 -0.01524280 0.00036602
v 0.00468482 -0.01530506 0.00182599
v 0.00468482 -0.01530418 0.00328714
v 0.00468482 -0.01530375 0.00401712
v 0.00395498 -0.01535285 0.00109601
v 0.00468482 -0.01530506 0.00109601
v 0.00541522 -0.01519194 0.00328714
v 0.00541522 -0.01519019 0.00255598
v 0.00541522 -0.01518844 0.00182599
v 0.00541522 -0.01518625 0.00109601
v 0.00614562 -0.01501438 0.00109601
v 0.00667985 -0.01488548 0.00109601
v 0.00689863 -0.01486400 0.00547709
v 0.00689863 -0.01489249 0.00965096
v 0.00548532 -0.01455095 -0.00018147
v 0.00395498 -0.01447949 -0.00031569
v 0.00528915 -0.01490916 -0.00006255
v 0.00468482 -0.01495168 -0.00010258
v 0.00395498 -0.01497010 -0.00011553
v 0.00395498 -0.01374906 -0.00040164
v 0.00322515 -0.01447949 -0.00032158
v 0.00689863 -0.01461891 0.00039193
v 0.00577589 -0.01484208 0.00000339
v 0.00468482 -0.01089135 -0.00039928
v 0.00112328 -0.01219744 0.01046807
v 0.00218948 -0.01089135 0.00985818
v 0.00112328 -0.01218912 0.00985818
v 0.00322515 -0.01524105 0.00036602
v 0.00112328 -0.01524280 0.00036602
v 0.00249475 -0.01498018 -0.00012142
v 0.00395498 -0.01522395 0.00036602
v 0.00468482 -0.01518186 0.00036602
v 0.00548532 -0.01501964 0.00029420
v 0.00662049 -0.01487101 0.00065919
v 0.00689863 -0.01483155 0.00109601
v 0.00322515 -0.01497887 -0.00012024
v 0.00112328 -0.01374906 -0.00040164
v 0.00395498 -0.01089135 -0.00040164
v 0.00249475 -0.01447949 -0.00032275
v 0.00689863 -0.01463119 0.00042372
v 0.00218891 -0.01089135 0.00912702
v 0.00112328 -0.01218912 0.00900692
v 0.00112328 -0.01498018 -0.00012142
v 0.00689863 -0.01465837 0.00051437
v 0.00112328 -0.01314402 -0.00019912
v 0.00317823 -0.01089135 -0.00017205
v 0.00112328 -0.01447949 -0.00032275
v 0.00218891 -0.01089135 0.00469059
v 0.00112328 -0.01218999 0.00401712
v 0.00112328 -0.01290771 0.00036602
v 0.00291140 -0.01089135 0.00034954
v 0.00218948 -0.01089135 0.00401712
v 0.00219231 -0.01089135 0.00328125
v 0.00112328 -0.01219964 0.00328714
v 0.00221492 -0.01089135 0.00316351
f 1 2 5
f 1 5 23
f 1 23 28
f 1 28 27
f 1 27 26
f 1 26 10
f 1 10 3
f 1 3 19
f 1 19 36
f 1 36 51
f 1 51 70
f 1 70 96
f 1 96 95
f 1 95 117
f 1 117 126
f 1 126 122
f 1 122 104
f 1 104 74
f 1 74 54
f 1 54 37
f 1 37 20
f 1 20 4
f 1 4 22
f 1 22 40
f 1 40 56
f 1 56 77
f 1 77 106
f 1 106 120
f 1 120 128
f 1 128 133
f 1 133 137
f 1 137 135
f 1 135 134
f 1 134 130
f 1 130 123
f 1 123 108
f 1 108 78
f 1 78 57
f 1 57 41
f 1 41 24
f 1 24 6
f 1 6 2
f 2 6 7
f 2 7 8
f 2 8 9
f 2 9 5
f 3 10 11
f 3 11 12
f 3 12 13
f 3 13 14
f 3 14 15
f 3 15 16
f 3 16 17
f 3 17 18
f 3 18 19
f 4 20 21
f 4 21 22
f 5 9 23
f 6 24 7
f 7 24 25
f 7 25 42
f 7 42 58
f 7 58 79
f 7 79 107
f 7 107 109
f 7 109 124
f 7 124 131
f 7 131 136
f 7 136 132
f 7 132 127
f 7 127 119
f 7 119 129
f 7 129 125
f 7 125 111
f 7 111 82
f 7 82 80
f 7 80 59
f 7 59 44
f 7 44 43
f 7 43 29
f 7 29 13
f 7 13 12
f 7 12 11
f 7 11 9
f 7 9 8
f 9 11 26
f 9 26 27
f 9 27 28
f 9 28 23
f 10 26 11
f 13 29 14
f 14 29 30
f 14 30 15
f 15 30 31
f 15 31 16
f 16 31 32
f 16 32 17
f 17 32 18
f 18 32 33
f 18 33 34
f 18 34 19
f 19 34 35
f 19 35 36
f 20 37 38
f 20 38 39
f 20 39 21
f 21 39 40
f 21 40 22
f 24 41 25
f 25 41 42
f 29 43 30
f 30 43 44
f 30 44 45
f 30 45 46
f 30 46 31
f 31 46 47
f 31 47 32
f 32 47 33
f 33 47 48
f 33 48 49
f 33 49 35
f 33 35 34
f 35 49 50
f 35 50 36
f 36 50 51
f 37 52 53
f 37 53 38
f 37 54 52
f 38 53 40
f 38 40 39
f 40 53 55
f 40 55 56
f 41 57 42
f 42 57 58
f 44 59 45
f 45 60 46
f 45 59 80
f 45 80 61
f 45 61 81
f 45 81 60
f 46 62 63
f 46 63 47
f 46 60 64
f 46 64 65
f 46 65 62
f 47 63 66
f 47 66 48
f 48 66 67
f 48 67 49
f 49 67 50
f 50 67 68
f 50 68 51
f 51 68 69
f 51 69 70
f 52 54 71
f 52 71 72
f 52 72 53
f 53 73 55
f 53 72 73
f 54 74 75
f 54 75 71
f 55 73 56
f 56 73 76
f 56 76 77
f 57 78 79
f 57 79 58
f 60 81 87
f 60 87 64
f 61 80 82
f 61 82 83
f 61 83 110
f 61 110 81
f 62 65 84
f 62 84 85
f 62 85 86
f 62 86 63
f 63 86 66
f 64 87 88
f 64 88 84
f 64 84 65
f 66 86 67
f 67 86 85
f 67 85 84
f 67 84 88
f 67 88 89
f 67 89 68
f 68 89 90
f 68 90 91
f 68 91 92
f 68 92 93
f 68 93 69
f 69 93 94
f 69 94 95
f 69 95 96
f 69 96 70
f 71 97 72
f 71 75 97
f 72 98 73
f 72 97 99
f 72 99 100
f 72 100 101
f 72 101 98
f 73 102 76
f 73 98 103
f 73 103 102
f 74 104 105
f 74 105 99
f 74 99 97
f 74 97 75
f 76 106 77
f 76 102 120
f 76 120 106
f 78 107 79
f 78 108 109
f 78 109 107
f 81 110 87
f 82 111 83
f 83 111 125
f 83 125 112
f 83 112 110
f 87 110 113
f 87 113 114
f 87 114 88
f 88 114 92
f 88 92 91
f 88 91 90
f 88 90 89
f 92 114 115
f 92 115 116
f 92 116 93
f 93 116 94
f 94 116 117
f 94 117 95
f 98 101 118
f 98 118 103
f 99 105 115
f 99 115 114
f 99 114 100
f 100 114 113
f 100 113 101
f 101 113 110
f 101 110 118
f 102 119 120
f 102 103 121
f 102 121 129
f 102 129 119
f 103 118 112
f 103 112 121
f 104 122 116
f 104 116 105
f 105 116 115
f 108 123 109
f 109 123 130
f 109 130 124
f 110 112 118
f 112 125 129
f 112 129 121
f 116 122 126
f 116 126 117
f 119 127 128
f 119 128 120
f 124 130 131
f 127 132 133
f 127 133 128
f 130 134 131
f 131 134 135
f 131 135 136
f 132 136 137
f 132 137 133
f 135 137 136

