# https://github.com/mikedh/trimesh
v 0.00689863 -0.01489346 0.00986055
v 0.00715599 -0.01482188 0.00912897
v 0.00716230 -0.01482188 0.00986055
v 0.00710174 -0.01482188 0.01058870
v 0.00689863 -0.01486042 0.01058870
v 0.00689863 -0.01486868 0.00620949
v 0.00712445 -0.01481637 0.00620949
v 0.00760638 -0.01465668 0.00182684
v 0.00760638 -0.01467045 0.00474975
v 0.00760638 -0.01467320 0.00547790
v 0.00760638 -0.01467596 0.00620949
v 0.00760638 -0.01468146 0.00986055
v 0.00760638 -0.01468146 0.01058870
v 0.00760638 -0.01467871 0.00766923
v 0.00760638 -0.01463741 0.01132029
v 0.00833685 -0.01433731 0.01278003
v 0.00833685 -0.01424645 0.01351162
v 0.00805551 -0.01413081 0.01471376
v 0.00689863 -0.01483565 0.01075357
v 0.00689863 -0.01483289 0.00139750
v 0.00711310 -0.01481362 0.00547790
v 0.00704623 -0.01479435 0.00109868
v 0.00760638 -0.01464567 0.00109868
v 0.00833685 -0.01438136 0.00182684
v 0.00833685 -0.01438411 0.00255842
v 0.00833685 -0.01439788 0.01132029
v 0.00833685 -0.01438962 0.01205188
v 0.00882256 -0.01416661 0.01278003
v 0.00875191 -0.01413357 0.01351162
v 0.00870523 -0.01411429 0.01388600
v 0.00831414 -0.01415835 0.01417451
v 0.00833685 -0.01364624 0.01716268
v 0.00833685 -0.01350583 0.01789084
v 0.00792557 -0.01413081 0.01471376
v 0.00854249 -0.01407850 0.01437372
v 0.00831414 -0.01403445 0.01496449
v 0.00833685 -0.01390780 0.01570294
v 0.00872920 -0.01338744 0.01827895
v 0.00689863 -0.01467045 0.01129281
v 0.00790664 -0.01340946 0.01837169
v 0.00785744 -0.01269362 0.02133238
v 0.00761143 -0.01274042 0.02074849
v 0.00723800 -0.01265783 0.02046341
v 0.00724430 -0.01191996 0.02335885
v 0.00721655 -0.00902905 0.03445286
v 0.00711184 -0.00865185 0.03483411
v 0.00703614 -0.00863533 0.03395484
v 0.00699703 -0.00863533 0.03322325
v 0.00695414 -0.00790572 0.03483411
v 0.00689863 -0.01483014 0.00109868
v 0.00689863 -0.01465668 0.00051479
v 0.00689863 -0.01462915 0.00042549
v 0.00689863 -0.01461814 0.00039457
v 0.00833685 -0.01422167 0.00056974
v 0.00870775 -0.01411705 0.00072774
v 0.00833685 -0.01435658 0.00109868
v 0.00878976 -0.01415835 0.00182684
v 0.00920735 -0.01400967 0.01205188
v 0.00884274 -0.01417762 0.01205188
v 0.00918716 -0.01400416 0.01278003
v 0.00911651 -0.01397939 0.01351162
v 0.01009299 -0.01335440 0.01570294
v 0.01092816 -0.01266884 0.01913762
v 0.00906731 -0.01362422 0.01643110
v 0.01086004 -0.01264406 0.01962191
v 0.01384749 -0.01047450 0.02855552
v 0.00833685 -0.01340671 0.01836139
v 0.00912030 -0.01348655 0.01720390
v 0.00888059 -0.01342598 0.01789084
v 0.01106441 -0.01196401 0.02357867
v 0.01321165 -0.01049102 0.02936267
v 0.01082597 -0.01191720 0.02406639
v 0.00689863 -0.01429050 0.01200379
v 0.00695035 -0.00790572 0.03468642
v 0.00833685 -0.01318370 0.01935057
v 0.00833685 -0.01301850 0.02007873
v 0.00833685 -0.01284780 0.02081031
v 0.00833685 -0.01270738 0.02139764
v 0.00771740 -0.01202183 0.02372979
v 0.00833685 -0.01261928 0.02176172
v 0.00833685 -0.01249263 0.02227005
v 0.00789024 -0.01122063 0.02712669
v 0.00778301 -0.00980271 0.03249510
v 0.00761143 -0.00912816 0.03483411
v 0.00741083 -0.00904006 0.03483411
v 0.00728089 -0.00970084 0.03204172
v 0.00727584 -0.00897673 0.03483411
v 0.00708282 -0.00853346 0.03483411
v 0.00695035 -0.00775980 0.03483411
v 0.00761269 -0.01434557 0.00031558
v 0.00689863 -0.01423268 -0.00006911
v 0.00737299 -0.01415284 -0.00002446
v 0.00785996 -0.01402619 0.00003393
v 0.00957447 -0.01347279 0.00064531
v 0.00874939 -0.01413907 0.00109868
v 0.01006145 -0.01326905 0.00090978
v 0.01020148 -0.01340396 0.00139750
v 0.01022293 -0.01341497 0.00182684
v 0.01025068 -0.01343149 0.00620949
v 0.00979777 -0.01369580 0.01132029
v 0.00979777 -0.01369855 0.01205188
v 0.00979777 -0.01369305 0.01278003
v 0.01025447 -0.01343424 0.00693764
v 0.00979777 -0.01366001 0.01351162
v 0.01018382 -0.01339570 0.01475497
v 0.01014471 -0.01337367 0.01523926
v 0.01309054 -0.01119585 0.02486667
v 0.00939911 -0.01337367 0.01747524
v 0.01155013 -0.01190619 0.02325924
v 0.01301358 -0.01117107 0.02535096
v 0.01391688 -0.01050754 0.02811244
v 0.01516460 -0.00969808 0.03103536
v 0.01491606 -0.00967331 0.03182190
v 0.01490849 -0.00957144 0.03249510
v 0.01369736 -0.01043596 0.02904324
v 0.00906731 -0.01260276 0.02167929
v 0.00979777 -0.01297170 0.01935057
v 0.01052824 -0.01243481 0.02154190
v 0.01271837 -0.01094255 0.02738429
v 0.01452118 -0.00972837 0.03210354
v 0.01490849 -0.00944754 0.03322325
v 0.01490849 -0.00931538 0.03395484
v 0.01052824 -0.01169144 0.02519297
v 0.01490849 -0.00916946 0.03468642
v 0.01417803 -0.00957144 0.03322325
v 0.01287859 -0.01044422 0.02985039
v 0.01417803 -0.00941725 0.03395484
v 0.01365951 -0.00972011 0.03280422
v 0.00689863 -0.00783689 0.02153847
v 0.00689863 -0.00717336 0.02225288
v 0.00906731 -0.01246510 0.02227005
v 0.01317506 -0.00973938 0.03289352
v 0.01344757 -0.00929886 0.03468642
v 0.01198790 -0.01023772 0.03103536
v 0.00906731 -0.01197502 0.02429651
v 0.01052824 -0.01114079 0.02752855
v 0.01271837 -0.00949985 0.03395484
v 0.00906731 -0.01188141 0.02466403
v 0.00833685 -0.01188141 0.02466403
v 0.00792430 -0.00974764 0.03292100
v 0.00833685 -0.00927409 0.03483411
v 0.00694909 -0.00717611 0.03483411
v 0.00689863 -0.00643824 0.02289173
v 0.00689863 -0.00715408 0.02227005
v 0.00689863 -0.01374811 -0.00018589
v 0.00761269 -0.01377014 -0.00007598
v 0.00809840 -0.01354162 -0.00003476
v 0.01030115 -0.01278448 0.00066591
v 0.01103792 -0.01277071 0.00129789
v 0.01114768 -0.01283954 0.00182684
v 0.01058753 -0.01320572 0.00182684
v 0.01059005 -0.01321398 0.00255842
v 0.01025573 -0.01343700 0.00766923
v 0.01025573 -0.01343975 0.01205188
v 0.01025447 -0.01343700 0.01278003
v 0.01025573 -0.01343975 0.00912897
v 0.01023807 -0.01342598 0.01351162
v 0.01021031 -0.01340946 0.01424320
v 0.01582567 -0.00964027 0.02738429
v 0.01577395 -0.00961824 0.02811244
v 0.01567176 -0.00956868 0.02957218
v 0.01563770 -0.00948058 0.03103536
v 0.01312460 -0.01121513 0.02446138
v 0.01523651 -0.00971736 0.03046520
v 0.01563770 -0.00941175 0.03176351
v 0.01563770 -0.00931538 0.03249510
v 0.01534627 -0.00904281 0.03483411
v 0.01238278 -0.01119860 0.02632984
v 0.01239161 -0.01046624 0.02995343
v 0.01504348 -0.00911715 0.03483411
v 0.01490849 -0.00913642 0.03483411
v 0.01436853 -0.00919975 0.03483411
v 0.01417929 -0.00921902 0.03483411
v 0.01344757 -0.00947232 0.03395484
v 0.01358634 -0.00925481 0.03483411
v 0.01344757 -0.00926307 0.03483411
v 0.01271837 -0.00966229 0.03329538
v 0.01286597 -0.00927409 0.03483411
v 0.01271837 -0.00931263 0.03468642
v 0.01052824 -0.01081040 0.02884403
v 0.00833685 -0.01081040 0.02884403
v 0.00833685 -0.01024873 0.03103536
v 0.00833685 -0.00931263 0.03468642
v 0.00694909 0.01180753 0.03483411
v 0.00689863 -0.00500104 0.02298790
v 0.00689863 -0.00571414 0.02297416
v 0.00689863 -0.01301850 -0.00023054
v 0.00760638 -0.01301850 -0.00015498
v 0.00816905 -0.01301850 -0.00005194
v 0.00853365 -0.01301850 0.00005454
v 0.00979777 -0.01228614 0.00040144
v 0.01044245 -0.01228614 0.00062126
v 0.01080705 -0.01228614 0.00079643
v 0.01238909 -0.01124541 0.00143872
v 0.01174441 -0.01205762 0.00136315
v 0.01313848 -0.01124816 0.00213939
v 0.01240927 -0.01196676 0.00211535
v 0.01244586 -0.01198879 0.00255842
v 0.01198790 -0.01230541 0.00255842
v 0.01155013 -0.01260276 0.00255842
v 0.01118426 -0.01285055 0.00255842
v 0.01062033 -0.01321398 0.00693764
v 0.01062159 -0.01321398 0.01205188
v 0.01061907 -0.01321398 0.01278003
v 0.01060393 -0.01321123 0.01351162
v 0.01062159 -0.01321398 0.00766923
v 0.01586352 -0.00965403 0.02665270
v 0.01636816 -0.00929336 0.02811244
v 0.01636816 -0.00925206 0.02884403
v 0.01673907 -0.00900702 0.02924245
v 0.01620667 -0.00915019 0.03103536
v 0.01614486 -0.00911715 0.03176351
v 0.01608304 -0.00907310 0.03249510
v 0.01603636 -0.00903455 0.03301373
v 0.01569194 -0.00916671 0.03324386
v 0.01551154 -0.00912266 0.03395484
v 0.01562634 -0.00873720 0.03483411
v 0.01597076 -0.00896572 0.03350146
v 0.01125744 -0.01024873 0.03103536
v 0.00707904 0.01253714 0.03483411
v 0.00689863 0.01276842 0.02109883
v 0.00689863 0.01272161 0.02156251
v 0.00689863 0.01268857 0.02185789
v 0.00689863 0.01253439 0.02226662
v 0.00689863 0.01226182 0.02269595
v 0.00689863 0.01181029 0.02295355
v 0.00689863 0.01175798 0.02295699
v 0.00689863 0.01107792 0.02297073
v 0.00689863 0.00961870 0.02297416
v 0.00689863 -0.00133372 0.02298790
v 0.00689863 -0.01231092 -0.00023397
v 0.00689863 -0.01011933 -0.00024084
v 0.00689863 -0.00646853 -0.00025115
v 0.00689863 -0.00500655 -0.00025458
v 0.00689863 -0.00133372 -0.00025115
v 0.00760638 -0.00717611 -0.00014811
v 0.00817410 -0.01228614 -0.00005194
v 0.00853870 -0.01228614 0.00004424
v 0.00906731 -0.01228614 0.00018849
v 0.00979777 -0.01155653 0.00039114
v 0.01051310 -0.01155653 0.00061096
v 0.01087770 -0.01155653 0.00073804
v 0.01241306 -0.01082692 0.00142498
v 0.01375287 -0.01009731 0.00223900
v 0.01459309 -0.00985502 0.00287785
v 0.01326968 -0.01082692 0.00205696
v 0.01449595 -0.01034234 0.00304958
v 0.01458805 -0.01049928 0.00353731
v 0.01371755 -0.01112151 0.00328657
v 0.01461707 -0.01051580 0.00401816
v 0.01335169 -0.01137757 0.00328657
v 0.01417803 -0.01081866 0.00401816
v 0.01552667 -0.00990458 0.00547790
v 0.01155013 -0.01260276 0.01351162
v 0.01118426 -0.01285055 0.01278003
v 0.01118426 -0.01284505 0.01351162
v 0.01154004 -0.01260276 0.01497136
v 0.01462211 -0.01051305 0.02300164
v 0.01588371 -0.00965679 0.02592112
v 0.01678196 -0.00904281 0.02811244
v 0.01676051 -0.00902629 0.02884403
v 0.01684757 -0.00866837 0.02952066
v 0.01668734 -0.00893544 0.02973018
v 0.01757551 -0.00840406 0.02519297
v 0.01753387 -0.00836827 0.02592112
v 0.01749350 -0.00831871 0.02647754
v 0.01615495 -0.00868764 0.03324386
v 0.01680467 -0.00845912 0.03030377
v 0.01572853 -0.00862157 0.03483411
v 0.01609565 -0.00848390 0.03395484
v 0.01603888 -0.00834899 0.03447347
v 0.00710805 0.01261424 0.03483411
v 0.00689863 0.01277392 0.02081031
v 0.00722538 0.01291985 0.03483411
v 0.00689863 0.00156270 -0.00024771
v 0.00760638 -0.00571414 -0.00014467
v 0.00689863 0.00377631 -0.00024428
v 0.00815770 -0.00863533 -0.00004163
v 0.00851095 -0.00717611 0.00004424
v 0.00851851 -0.00790572 0.00004424
v 0.00979777 -0.00060686 0.00038084
v 0.00906731 -0.00717611 0.00018506
v 0.00906731 -0.00936770 0.00018506
v 0.00979777 -0.01009731 0.00038770
v 0.00979777 -0.00717611 0.00038427
v 0.00979777 -0.00352530 0.00038084
v 0.01051184 -0.00644650 0.00060752
v 0.01087896 -0.01082692 0.00073804
v 0.01125744 -0.01082692 0.00090291
v 0.01198790 -0.01082692 0.00122577
v 0.01241811 -0.01009731 0.00142498
v 0.01278271 -0.01009731 0.00163793
v 0.01376675 -0.00936770 0.00222182
v 0.01338701 -0.01009731 0.00200544
v 0.01417803 -0.00936770 0.00252064
v 0.01461833 -0.00936770 0.00286067
v 0.01579413 -0.00863533 0.00385330
v 0.01537402 -0.00936770 0.00356135
v 0.01530211 -0.00976692 0.00361974
v 0.01540304 -0.00984401 0.00401816
v 0.01676682 -0.00902905 0.00572176
v 0.01550775 -0.00990458 0.00474975
v 0.01678953 -0.00904281 0.00620949
v 0.01589128 -0.00965403 0.00547790
v 0.01636816 -0.00933190 0.00620949
v 0.01679458 -0.00904281 0.00693764
v 0.01716044 -0.00879502 0.00766923
v 0.01855955 -0.00784515 0.01058870
v 0.01552667 -0.00990458 0.02372979
v 0.01198790 -0.01230541 0.01497136
v 0.01335547 -0.01137757 0.01861899
v 0.01245343 -0.01198603 0.01716268
v 0.01154634 -0.01260276 0.01424320
v 0.01462337 -0.01051580 0.02227005
v 0.01589128 -0.00965679 0.02519297
v 0.01636816 -0.00932915 0.02665270
v 0.01678701 -0.00904281 0.02738429
v 0.01895695 -0.00756982 0.01643110
v 0.01894434 -0.00755881 0.01716268
v 0.01893046 -0.00754780 0.01760919
v 0.01891154 -0.00751201 0.01809692
v 0.01888883 -0.00740738 0.01861899
v 0.01822775 -0.00761938 0.02281960
v 0.01745565 -0.00814250 0.02696526
v 0.01675799 -0.00834349 0.03080180
v 0.01587614 -0.00827466 0.03483411
v 0.01619280 -0.00790572 0.03395484
v 0.01606159 -0.00790572 0.03460742
v 0.01601365 -0.00790572 0.03483411
v 0.00712445 0.01299418 0.02154190
v 0.00711688 0.01299418 0.02081031
v 0.00711688 0.01299694 0.02007873
v 0.00711562 0.01299694 0.01935057
v 0.00689863 0.01277392 0.01526674
v 0.00752942 0.01305200 0.03483411
v 0.00760638 -0.00279294 -0.00013093
v 0.00814634 -0.00717611 -0.00003820
v 0.00689863 0.00523553 -0.00024084
v 0.00906731 0.00012275 0.00020567
v 0.00906731 -0.00133372 0.00019880
v 0.00979777 0.00377631 0.00039114
v 0.00979777 0.00085511 0.00038427
v 0.01050174 0.00523553 0.00060409
v 0.01050300 0.00450592 0.00060409
v 0.01050427 0.00304395 0.00060409
v 0.01050553 0.00085511 0.00060409
v 0.01050553 0.00012275 0.00060409
v 0.01087896 -0.00790572 0.00073804
v 0.01125744 0.00012275 0.00090291
v 0.01198790 0.00231434 0.00122577
v 0.01241811 -0.00790572 0.00142498
v 0.01278271 -0.00644650 0.00163793
v 0.01340215 -0.00936770 0.00200544
v 0.01376675 0.00669751 0.00222182
v 0.01417803 0.00669751 0.00253781
v 0.01459940 0.00742712 0.00287441
v 0.01498167 -0.00863533 0.00315949
v 0.01542953 -0.00863533 0.00352700
v 0.01578909 -0.00790572 0.00384643
v 0.01615873 -0.00717611 0.00421394
v 0.01615621 -0.00790572 0.00421394
v 0.01614359 -0.00863533 0.00421737
v 0.01608935 -0.00912541 0.00427576
v 0.01670122 -0.00891892 0.00523404
v 0.01622686 -0.00923829 0.00474975
v 0.01755153 -0.00836001 0.00638466
v 0.01762849 -0.00841782 0.00693764
v 0.01806248 -0.00817279 0.00840081
v 0.01895821 -0.00756982 0.01058870
v 0.01769788 -0.00842884 0.00840081
v 0.01806248 -0.00818105 0.00912897
v 0.01896326 -0.00756982 0.01205188
v 0.01896452 -0.00756982 0.01278003
v 0.01855955 -0.00784515 0.01643110
v 0.01716044 -0.00879502 0.02372979
v 0.01245343 -0.01198879 0.01643110
v 0.01679458 -0.00904281 0.02592112
v 0.01636816 -0.00933190 0.02592112
v 0.01896074 -0.00756982 0.01570294
v 0.01933038 -0.00722842 0.01278003
v 0.01968742 -0.00686224 0.01278003
v 0.01967228 -0.00684021 0.01351162
v 0.01965966 -0.00682094 0.01396843
v 0.01964578 -0.00671081 0.01445615
v 0.01955621 -0.00644650 0.01570294
v 0.01898344 -0.00704395 0.01861899
v 0.01944267 -0.00644650 0.01643110
v 0.01894181 -0.00690629 0.01907580
v 0.01727525 -0.00790572 0.02811244
v 0.01714530 -0.00790572 0.02884403
v 0.01687532 -0.00790572 0.03030377
v 0.01646909 -0.00790572 0.03249510
v 0.01633283 -0.00790572 0.03322325
v 0.01603510 -0.00717611 0.03483411
v 0.00760638 0.01315663 0.02154190
v 0.00760638 0.01315938 0.02081031
v 0.00760638 0.01308504 0.03483411
v 0.00760638 0.01316213 0.01935057
v 0.00711562 0.01299694 0.01643110
v 0.00711688 0.01299418 0.01497136
v 0.00689863 0.01277117 0.01497136
v 0.00760638 0.00085511 -0.00011376
v 0.00839362 0.00231434 0.00006828
v 0.00689863 0.00587428 -0.00012063
v 0.00760638 0.00573938 -0.00004163
v 0.00798360 0.00561273 -0.00000041
v 0.00760638 0.00523553 -0.00008972
v 0.00906731 0.00450592 0.00022971
v 0.00979777 0.00523553 0.00039801
v 0.01049796 0.00596514 0.00061783
v 0.01086256 0.00596514 0.00074148
v 0.01086634 0.00523553 0.00074148
v 0.01087265 -0.00206333 0.00073804
v 0.01087391 -0.00279294 0.00073804
v 0.01125744 0.00523553 0.00090634
v 0.01198790 0.00596514 0.00122920
v 0.01241306 0.00596514 0.00142841
v 0.01241684 -0.00571414 0.00142498
v 0.01278144 -0.00279294 0.00163793
v 0.01340215 0.00523553 0.00200544
v 0.01364564 0.00742712 0.00224587
v 0.01417803 0.00742712 0.00256186
v 0.01340089 0.00669751 0.00200544
v 0.01458300 0.00786764 0.00288815
v 0.01537402 0.00815673 0.00356478
v 0.01573989 0.00815673 0.00389451
v 0.01613729 0.00815673 0.00425859
v 0.01616757 -0.00352530 0.00422081
v 0.01616630 -0.00425491 0.00421737
v 0.01616000 -0.00644650 0.00421394
v 0.01684883 0.00523553 0.00496957
v 0.01653090 -0.00279294 0.00462610
v 0.01653217 -0.00352530 0.00462953
v 0.01652964 -0.00498452 0.00463297
v 0.01652333 -0.00717611 0.00463984
v 0.01652207 -0.00790572 0.00464327
v 0.01681855 -0.00790572 0.00500735
v 0.01747584 -0.00762489 0.00582824
v 0.01678953 -0.00843159 0.00504513
v 0.01744052 -0.00811221 0.00589693
v 0.01823532 -0.00762214 0.00722272
v 0.01832489 -0.00772951 0.00766923
v 0.01892289 -0.00753679 0.00951365
v 0.01894560 -0.00755881 0.00999794
v 0.01967985 -0.00684847 0.01219957
v 0.01896452 -0.00756982 0.01351162
v 0.01896326 -0.00756982 0.01424320
v 0.01975050 -0.00644650 0.01278003
v 0.01973788 -0.00644650 0.01351162
v 0.01968489 -0.00645751 0.01422260
v 0.01962938 -0.00645751 0.01497823
v 0.01966597 -0.00622349 0.01474123
v 0.01964074 -0.00571414 0.01517400
v 0.01957135 -0.00571414 0.01570294
v 0.01945024 -0.00571414 0.01643110
v 0.01931272 -0.00644650 0.01716268
v 0.01824541 -0.00717611 0.02291577
v 0.01817855 -0.00717611 0.02327985
v 0.01809528 -0.00717611 0.02372979
v 0.01895064 -0.00644650 0.01912389
v 0.01603510 0.01180753 0.03483411
v 0.00833685 0.01323372 0.03483411
v 0.00760638 0.01316213 0.01789084
v 0.00760638 0.01315938 0.01497136
v 0.00760638 0.01315387 0.01424320
v 0.00712445 0.01298868 0.01424320
v 0.00689863 0.01276566 0.01452485
v 0.00689863 0.00589080 -0.00011719
v 0.00827124 0.00590182 0.00012323
v 0.00906731 0.00596514 0.00028466
v 0.00799369 0.00523553 -0.00000385
v 0.00979777 0.00596514 0.00042892
v 0.01038315 0.00645522 0.00066248
v 0.01125744 0.00596514 0.00090978
v 0.01231718 0.00698384 0.00147306
v 0.01239287 0.00649652 0.00143872
v 0.01278018 -0.00060686 0.00163793
v 0.01417803 0.00801081 0.00275420
v 0.01266916 0.00672229 0.00161389
v 0.01313595 0.00780706 0.00217717
v 0.01534627 0.00860275 0.00359226
v 0.01646909 0.00888634 0.00461236
v 0.01650189 0.00815673 0.00460893
v 0.01650820 0.00596514 0.00460549
v 0.01651324 0.00450592 0.00460549
v 0.01685135 0.00742712 0.00497300
v 0.01684630 0.00304395 0.00497300
v 0.01721595 0.00815673 0.00545042
v 0.01721595 0.00596514 0.00545042
v 0.01748846 -0.00498452 0.00581106
v 0.01683621 -0.00133372 0.00498674
v 0.01718820 -0.00644650 0.00545042
v 0.01718693 -0.00717611 0.00545386
v 0.01748341 -0.00717611 0.00581793
v 0.01772311 -0.00717611 0.00620949
v 0.01806879 -0.00717611 0.00681399
v 0.01825803 -0.00717611 0.00718150
v 0.01848638 -0.00717611 0.00766923
v 0.01894812 -0.00690629 0.00869963
v 0.01878790 -0.00715959 0.00843516
v 0.01888883 -0.00742941 0.00912897
v 0.01909573 -0.00724769 0.00979873
v 0.01965083 -0.00673008 0.01171185
v 0.01969120 -0.00647128 0.01199349
v 0.01978203 -0.00571414 0.01278003
v 0.01978582 -0.00571414 0.01351162
v 0.01974040 0.01180753 0.01424320
v 0.01964200 0.01180753 0.01521178
v 0.01957387 0.01180753 0.01570294
v 0.01945024 0.01180753 0.01643110
v 0.01917899 -0.00644650 0.01789084
v 0.01895064 0.01180753 0.01912389
v 0.01675799 0.01225081 0.03080180
v 0.01601743 0.01200852 0.03483411
v 0.01747079 0.01219574 0.02705456
v 0.00833685 0.01323372 0.01351162
v 0.01417803 0.01323372 0.03483411
v 0.00833685 0.01322821 0.01278003
v 0.00760638 0.01314011 0.01351162
v 0.00689863 0.01276016 0.01424320
v 0.00714590 0.01297491 0.01351162
v 0.00689863 0.01274089 0.01376235
v 0.00689863 0.00625423 0.00004424
v 0.00760638 0.00610556 0.00007515
v 0.00979777 0.00654332 0.00059379
v 0.01183020 0.00714078 0.00139750
v 0.01125744 0.00720135 0.00132881
v 0.01271837 0.00783460 0.00214626
v 0.01344757 0.00848712 0.00296715
v 0.01417803 0.00875418 0.00337244
v 0.01563770 0.00935164 0.00427920
v 0.01604771 0.00929107 0.00434789
v 0.01490849 0.00869912 0.00348922
v 0.01610449 0.00888634 0.00429294
v 0.01681098 0.00942047 0.00502796
v 0.01685009 0.00888634 0.00497987
v 0.01685135 0.00815673 0.00497644
v 0.01721469 0.00888634 0.00545042
v 0.01748341 0.00888634 0.00581793
v 0.01748467 0.00669751 0.00581450
v 0.01748719 -0.00060686 0.00581106
v 0.01748846 -0.00352530 0.00581106
v 0.01773447 0.00596514 0.00620949
v 0.01773320 -0.00133372 0.00620949
v 0.01773194 -0.00352530 0.00620949
v 0.01772816 -0.00571414 0.00620949
v 0.01772564 -0.00644650 0.00620949
v 0.01807383 -0.00279294 0.00680369
v 0.01826307 -0.00425491 0.00717120
v 0.01851918 -0.00571414 0.00766923
v 0.01851666 -0.00644650 0.00766923
v 0.01881565 -0.00644650 0.00830121
v 0.01896074 -0.00644650 0.00866872
v 0.01910456 -0.00644650 0.00912897
v 0.01932281 -0.00644650 0.00986055
v 0.01950322 -0.00644650 0.01058870
v 0.01901372 -0.00706323 0.00912897
v 0.01962055 -0.00647128 0.01135807
v 0.01966092 -0.00624276 0.01162598
v 0.01978330 -0.00498452 0.01278003
v 0.01971012 -0.00571414 0.01205188
v 0.01971265 -0.00498452 0.01205188
v 0.01972274 -0.00060686 0.01205188
v 0.01978708 0.01180753 0.01351162
v 0.01978456 -0.00352530 0.01278003
v 0.01978582 -0.00133372 0.01278003
v 0.01967101 0.01221226 0.01476871
v 0.01894181 0.01222878 0.01907580
v 0.01604519 0.01230312 0.03454560
v 0.01822901 0.01228109 0.02282304
v 0.01586983 0.01254265 0.03483411
v 0.00906731 0.01323372 0.01205188
v 0.01476089 0.01320894 0.03483411
v 0.01490849 0.01322270 0.03395484
v 0.01490849 0.01323096 0.03322325
v 0.01490849 0.01323372 0.03249510
v 0.00833685 0.01321169 0.01205188
v 0.00760638 0.01310431 0.01278003
v 0.00689863 0.01272712 0.01351162
v 0.00719006 0.01294187 0.01278003
v 0.00689863 0.01266930 0.01294833
v 0.00689863 0.00657912 0.00040831
v 0.00906731 0.00693979 0.00088230
v 0.00979777 0.00690675 0.00088573
v 0.00906731 0.00657636 0.00053196
v 0.01052824 0.00721787 0.00127042
v 0.01198790 0.00785387 0.00211535
v 0.00979777 0.00721787 0.00124981
v 0.00833685 0.00695080 0.00088230
v 0.01490849 0.00975912 0.00468793
v 0.01563770 0.01034281 0.00547790
v 0.01563770 0.01002618 0.00505544
v 0.01490849 0.00939294 0.00420707
v 0.01611710 0.01001242 0.00507604
v 0.01660282 0.00990779 0.00515161
v 0.01746575 0.00998764 0.00584198
v 0.01747458 0.00961870 0.00582824
v 0.01772564 0.00961870 0.00620949
v 0.01773447 0.00888634 0.00620949
v 0.01808014 0.00888634 0.00678651
v 0.01807888 0.00742712 0.00678651
v 0.01807762 0.00450592 0.00678995
v 0.01807636 0.00085511 0.00679682
v 0.01807510 -0.00133372 0.00680025
v 0.01826938 0.00085511 0.00716089
v 0.01853684 0.00158472 0.00766923
v 0.01852296 -0.00425491 0.00766923
v 0.01882322 -0.00060686 0.00828060
v 0.01882070 -0.00279294 0.00828747
v 0.01896452 -0.00425491 0.00865842
v 0.01911465 -0.00352530 0.00912897
v 0.01933795 -0.00133372 0.00986055
v 0.01951584 -0.00571414 0.01058870
v 0.01962686 -0.00571414 0.01122755
v 0.01972400 0.00012275 0.01205188
v 0.01972652 0.00158472 0.01205188
v 0.01962812 -0.00498452 0.01122069
v 0.01963064 -0.00279294 0.01119664
v 0.01967101 0.00012275 0.01152981
v 0.01967354 0.00231434 0.01151607
v 0.01972022 0.01230587 0.01351162
v 0.01969751 0.01226733 0.01424320
v 0.01978582 0.00158472 0.01278003
v 0.01978330 0.00377631 0.01278003
v 0.01977573 0.00961870 0.01278003
v 0.01977194 0.01180753 0.01278003
v 0.01971391 0.01230312 0.01278003
v 0.01972779 0.00304395 0.01205188
v 0.01973031 0.00815673 0.01205188
v 0.01949944 0.01249034 0.01499540
v 0.01939599 0.01253714 0.01570294
v 0.01928875 0.01253714 0.01643110
v 0.01917268 0.01253714 0.01716268
v 0.01898344 0.01235268 0.01861899
v 0.01608178 0.01254265 0.03388614
v 0.01600482 0.01290333 0.03359763
v 0.01680467 0.01238572 0.03030377
v 0.01548126 0.01303273 0.03483411
v 0.01593543 0.01279044 0.03408192
v 0.01782909 0.01323372 0.01205188
v 0.00906731 0.01319242 0.01132029
v 0.01490849 0.01319792 0.03483411
v 0.01490849 0.01320343 0.03468642
v 0.01563770 0.01321720 0.03030377
v 0.01782909 0.01321444 0.01861899
v 0.01782909 0.01322821 0.01789084
v 0.01636816 0.01323372 0.02519297
v 0.00833685 0.01313735 0.01132029
v 0.00758367 0.01302447 0.01209997
v 0.00689863 0.01265003 0.01278003
v 0.00722916 0.01291434 0.01237474
v 0.00689863 0.00694530 0.00089260
v 0.00760638 0.00695080 0.00088230
v 0.01636816 0.01156525 0.00713685
v 0.01636816 0.01093200 0.00627818
v 0.01636816 0.01065943 0.00591410
v 0.01052824 0.01034281 0.00547790
v 0.01709862 0.01156525 0.00714372
v 0.01709862 0.01127065 0.00677964
v 0.01709862 0.01090447 0.00634344
v 0.01757551 0.01082462 0.00646365
v 0.01815710 0.01139455 0.00732576
v 0.01824920 0.01090722 0.00721585
v 0.01827695 0.01034831 0.00716089
v 0.01808014 0.00961870 0.00678651
v 0.01827695 0.00961870 0.00715059
v 0.01827443 0.00523553 0.00715402
v 0.01827191 0.00304395 0.00715746
v 0.01853936 0.00304395 0.00766923
v 0.01882448 0.00012275 0.00828060
v 0.01896831 -0.00133372 0.00864811
v 0.01912096 -0.00133372 0.00912897
v 0.01934174 0.00012275 0.00986055
v 0.01953098 0.00012275 0.01058870
v 0.01963317 0.00012275 0.01116230
v 0.01968111 0.00888634 0.01150576
v 0.01948934 0.01267205 0.01351162
v 0.01948178 0.01263076 0.01424320
v 0.01949061 0.01266930 0.01278003
v 0.01973031 0.00888634 0.01205188
v 0.01972779 0.01107792 0.01205188
v 0.01972652 0.01180753 0.01205188
v 0.01967101 0.01222327 0.01157446
v 0.01968994 0.01227283 0.01205188
v 0.01949691 0.01263626 0.01205188
v 0.01897714 0.01295289 0.01716268
v 0.01894307 0.01292260 0.01763667
v 0.01903769 0.01257569 0.01788397
v 0.01827947 0.01242702 0.02227005
v 0.01675799 0.01292811 0.02935923
v 0.01603257 0.01293086 0.03322325
v 0.01818359 0.01288956 0.02186819
v 0.01747332 0.01291434 0.02561543
v 0.01537781 0.01306577 0.03483411
v 0.01608304 0.01297216 0.03249510
v 0.01563770 0.01309605 0.03322325
v 0.01855955 0.01320068 0.01205188
v 0.01782909 0.01319242 0.01132029
v 0.01782909 0.01323372 0.01716268
v 0.01855955 0.01321444 0.01351162
v 0.00979777 0.01309330 0.01058870
v 0.00906731 0.01307953 0.01058870
v 0.01563770 0.01313735 0.03249510
v 0.01563770 0.01316764 0.03176351
v 0.01636816 0.01318416 0.02738429
v 0.01782909 0.01318966 0.01935057
v 0.01855955 0.01317865 0.01570294
v 0.01855955 0.01319792 0.01497136
v 0.01855955 0.01320894 0.01424320
v 0.00942182 0.01290608 0.00948961
v 0.00863584 0.01292811 0.01014906
v 0.00836965 0.01298868 0.01061962
v 0.00791800 0.01293637 0.01088065
v 0.00781202 0.01299418 0.01132029
v 0.00689863 0.01252889 0.01213088
v 0.00732505 0.01284276 0.01189045
v 0.00710805 0.01228385 0.01058870
v 0.00689863 0.01210764 0.01058870
v 0.00689863 0.01224530 0.01105926
v 0.00689863 0.01231964 0.01132029
v 0.00689863 0.00720961 0.00125668
v 0.00760638 0.00758405 0.00174784
v 0.00833685 0.00848712 0.00296715
v 0.00979777 0.01066218 0.00591410
v 0.01052824 0.01156525 0.00713685
v 0.01490849 0.01193143 0.00765549
v 0.01563770 0.01193143 0.00765892
v 0.01636816 0.01193143 0.00766579
v 0.01703680 0.01197824 0.00774136
v 0.01723992 0.01217096 0.00804017
v 0.01782909 0.01213792 0.00808139
v 0.01767012 0.01152395 0.00720211
v 0.01787955 0.01175522 0.00760740
v 0.01838040 0.01228935 0.00857942
v 0.01835643 0.01164234 0.00781005
v 0.01886738 0.01203605 0.00883015
v 0.01843087 0.01112197 0.00760740
v 0.01881439 0.01107792 0.00830121
v 0.01854315 0.01034831 0.00766923
v 0.01854315 0.00888634 0.00766923
v 0.01854189 0.00596514 0.00766923
v 0.01882701 0.00304395 0.00828403
v 0.01896831 0.00231434 0.00864811
v 0.01913231 0.00961870 0.00912897
v 0.01913105 0.00815673 0.00912897
v 0.01912600 0.00231434 0.00912897
v 0.01912348 0.00012275 0.00912897
v 0.01912222 -0.00060686 0.00912897
v 0.01934552 0.00231434 0.00986055
v 0.01953098 0.00158472 0.01058870
v 0.01963317 0.00158472 0.01115199
v 0.01963317 0.00085511 0.01115543
v 0.01935057 0.00815673 0.00986055
v 0.01935183 0.01034831 0.00986055
v 0.01963317 0.00231434 0.01115199
v 0.01963191 0.00377631 0.01114856
v 0.01962938 0.00669751 0.01114169
v 0.01962812 0.00888634 0.01114169
v 0.01962686 0.01034831 0.01114512
v 0.01967985 0.01107792 0.01151607
v 0.01912474 0.01304925 0.01351162
v 0.01911718 0.01304650 0.01424320
v 0.01910203 0.01303273 0.01497136
v 0.01907176 0.01301346 0.01570294
v 0.01902634 0.01298592 0.01643110
v 0.01913105 0.01303824 0.01205188
v 0.01967858 0.01180753 0.01151950
v 0.01962434 0.01180753 0.01115199
v 0.01951079 0.01180753 0.01058870
v 0.01933164 0.01180753 0.00986055
v 0.01901877 0.01231138 0.00931444
v 0.01911844 0.01244904 0.00986055
v 0.01948178 0.01249585 0.01132716
v 0.01908942 0.01300795 0.01132029
v 0.01855955 0.01311533 0.01716268
v 0.01709862 0.01310707 0.02519297
v 0.01826686 0.01296665 0.02081031
v 0.01679458 0.01295839 0.02884403
v 0.01755532 0.01298042 0.02446138
v 0.01636816 0.01312359 0.02884403
v 0.01855955 0.01315387 0.01132029
v 0.01782909 0.01309055 0.01058870
v 0.01344757 0.01309330 0.01058870
v 0.00979777 0.01297216 0.00986055
v 0.01709862 0.01314561 0.02446138
v 0.01855955 0.01315112 0.01643110
v 0.00979777 0.01290608 0.00948617
v 0.01052824 0.01275465 0.00911866
v 0.00979777 0.01274089 0.00912210
v 0.00983940 0.01233891 0.00834586
v 0.00962367 0.01215444 0.00806422
v 0.00906731 0.01231413 0.00852790
v 0.00913417 0.01268307 0.00920109
v 0.00893484 0.01283725 0.00966478
v 0.00836965 0.01270234 0.00988803
v 0.00814887 0.01282624 0.01039293
v 0.00744616 0.01275740 0.01132029
v 0.00833685 0.01234717 0.00913584
v 0.00787132 0.01222603 0.00938313
v 0.00761900 0.01232515 0.00988459
v 0.00738434 0.01209938 0.00966134
v 0.00719636 0.01220951 0.01014563
v 0.00689863 0.01186811 0.00988459
v 0.00689863 0.00757304 0.00177532
v 0.00760638 0.00847610 0.00298776
v 0.00906731 0.01002068 0.00505887
v 0.00760638 0.00784836 0.00211191
v 0.00979777 0.01128717 0.00678995
v 0.00979777 0.01154873 0.00715746
v 0.01011065 0.01217922 0.00802643
v 0.01052824 0.01193143 0.00765549
v 0.01417803 0.01218198 0.00801956
v 0.01490849 0.01218198 0.00802300
v 0.01636816 0.01217647 0.00802987
v 0.01675295 0.01217372 0.00803330
v 0.01703680 0.01232515 0.00832869
v 0.01820252 0.01290608 0.00948961
v 0.01782909 0.01235268 0.00844546
v 0.01853558 0.01254265 0.00915988
v 0.01894938 0.01155148 0.00870306
v 0.01896200 0.01107792 0.00866528
v 0.01882575 0.01034831 0.00829777
v 0.01882575 0.00961870 0.00829434
v 0.01882701 0.00377631 0.00828403
v 0.01896704 0.00450592 0.00865154
v 0.01913231 0.01107792 0.00912897
v 0.01935183 0.01107792 0.00986055
v 0.01952972 0.00304395 0.01058870
v 0.01952341 0.00742712 0.01058870
v 0.01951962 0.00961870 0.01058870
v 0.01951710 0.01107792 0.01058870
v 0.01906419 0.01179927 0.00909462
v 0.01871851 0.01281522 0.00986055
v 0.01888504 0.01288956 0.01026241
v 0.01900363 0.01295564 0.01074670
v 0.01920423 0.01260322 0.01054062
v 0.01782909 0.01313185 0.02081031
v 0.01860875 0.01301070 0.01054062
v 0.01782909 0.01297216 0.00986055
v 0.01782909 0.01290608 0.00948617
v 0.01198790 0.01275190 0.00911866
v 0.01271837 0.01239398 0.00840081
v 0.01125744 0.01239673 0.00840081
v 0.01052824 0.01239673 0.00840081
v 0.00906731 0.01209938 0.00816382
v 0.00849454 0.01000416 0.00508291
v 0.00800883 0.00997938 0.00512069
v 0.00864468 0.01145787 0.00727767
v 0.00837595 0.01121559 0.00699603
v 0.00712571 0.00928831 0.00432728
v 0.00784608 0.01076405 0.00649113
v 0.00815770 0.01138904 0.00741163
v 0.00858033 0.01223429 0.00866185
v 0.00784230 0.01151018 0.00789935
v 0.00760134 0.01162582 0.00840081
v 0.00689863 0.01091823 0.00766579
v 0.00689863 0.01126790 0.00841455
v 0.00689863 0.01159003 0.00919079
v 0.00692260 0.01188738 0.00988459
v 0.00689863 0.00781808 0.00212909
v 0.00833685 0.00937917 0.00420707
v 0.01052824 0.01218198 0.00802300
v 0.01125744 0.01218198 0.00801956
v 0.01490849 0.01238296 0.00840081
v 0.01636816 0.01236920 0.00840081
v 0.01344757 0.01274639 0.00911866
v 0.01896326 0.01034831 0.00866185
v 0.01896452 0.00742712 0.00865498
v 0.01271837 0.01274914 0.00911866
v 0.00689863 0.00810717 0.00255842
v 0.00689863 0.00842655 0.00304615
v 0.00689863 0.00867159 0.00342396
v 0.00689863 0.00907081 0.00407655
v 0.00689863 0.00942047 0.00469479
v 0.00708660 0.01005647 0.00571146
v 0.00689863 0.01016384 0.00609958
v 0.00710427 0.01078333 0.00716089
v 0.00689863 0.01055756 0.00691016
v 0.00689863 0.00986649 0.00551568
f 1 2 3
f 1 3 4
f 1 4 5
f 1 5 19
f 1 19 39
f 1 39 73
f 1 73 129
f 1 129 130
f 1 130 144
f 1 144 143
f 1 143 186
f 1 186 185
f 1 185 230
f 1 230 229
f 1 229 228
f 1 228 227
f 1 227 226
f 1 226 225
f 1 225 224
f 1 224 223
f 1 223 222
f 1 222 221
f 1 221 273
f 1 273 334
f 1 334 401
f 1 401 467
f 1 467 520
f 1 520 522
f 1 522 579
f 1 579 581
f 1 581 650
f 1 650 715
f 1 715 720
f 1 720 719
f 1 719 718
f 1 718 803
f 1 803 858
f 1 858 857
f 1 857 856
f 1 856 878
f 1 878 876
f 1 876 879
f 1 879 874
f 1 874 873
f 1 873 872
f 1 872 871
f 1 871 870
f 1 870 860
f 1 860 804
f 1 804 721
f 1 721 652
f 1 652 582
f 1 582 523
f 1 523 468
f 1 468 404
f 1 404 338
f 1 338 277
f 1 277 275
f 1 275 235
f 1 235 234
f 1 234 233
f 1 233 232
f 1 232 231
f 1 231 187
f 1 187 145
f 1 145 91
f 1 91 53
f 1 53 52
f 1 52 51
f 1 51 50
f 1 50 20
f 1 20 6
f 1 6 7
f 1 7 2
f 2 7 8
f 2 8 9
f 2 9 10
f 2 10 11
f 2 11 3
f 3 12 13
f 3 13 4
f 3 11 14
f 3 14 12
f 4 13 15
f 4 15 16
f 4 16 5
f 5 16 17
f 5 17 18
f 5 18 19
f 6 20 21
f 6 21 7
f 7 21 8
f 8 21 22
f 8 22 23
f 8 23 24
f 8 24 9
f 9 24 10
f 10 24 25
f 10 25 11
f 11 25 14
f 12 26 13
f 12 14 26
f 13 26 27
f 13 27 15
f 14 25 26
f 15 27 16
f 16 27 28
f 16 28 29
f 16 29 30
f 16 30 17
f 17 30 31
f 17 31 18
f 18 32 33
f 18 33 34
f 18 34 19
f 18 31 35
f 18 35 36
f 18 36 37
f 18 37 38
f 18 38 32
f 19 34 40
f 19 40 41
f 19 41 42
f 19 42 43
f 19 43 44
f 19 44 45
f 19 45 46
f 19 46 47
f 19 47 48
f 19 48 49
f 19 49 39
f 20 50 22
f 20 22 21
f 22 50 51
f 22 51 23
f 23 51 52
f 23 52 53
f 23 53 54
f 23 54 55
f 23 55 56
f 23 56 24
f 24 56 57
f 24 57 58
f 24 58 25
f 25 58 59
f 25 59 26
f 26 59 27
f 27 59 28
f 28 60 61
f 28 61 29
f 28 59 60
f 29 61 62
f 29 62 63
f 29 63 30
f 30 64 35
f 30 35 31
f 30 63 65
f 30 65 66
f 30 66 64
f 32 38 33
f 33 38 67
f 33 67 40
f 33 40 34
f 35 64 68
f 35 68 36
f 36 68 37
f 37 68 69
f 37 69 38
f 38 70 71
f 38 71 72
f 38 72 67
f 38 69 70
f 39 49 74
f 39 74 73
f 40 67 75
f 40 75 76
f 40 76 77
f 40 77 78
f 40 78 41
f 41 79 44
f 41 44 43
f 41 43 42
f 41 78 80
f 41 80 81
f 41 81 82
f 41 82 83
f 41 83 79
f 44 79 83
f 44 83 84
f 44 84 85
f 44 85 86
f 44 86 87
f 44 87 45
f 45 87 46
f 46 87 85
f 46 85 84
f 46 84 141
f 46 141 178
f 46 178 176
f 46 176 175
f 46 175 173
f 46 173 172
f 46 172 171
f 46 171 170
f 46 170 167
f 46 167 217
f 46 217 269
f 46 269 326
f 46 326 329
f 46 329 394
f 46 394 461
f 46 461 514
f 46 514 571
f 46 571 638
f 46 638 694
f 46 694 642
f 46 642 573
f 46 573 517
f 46 517 462
f 46 462 397
f 46 397 335
f 46 335 274
f 46 274 272
f 46 272 220
f 46 220 184
f 46 184 142
f 46 142 89
f 46 89 49
f 46 49 88
f 46 88 47
f 47 88 49
f 47 49 48
f 49 89 74
f 53 90 54
f 53 91 92
f 53 92 90
f 54 90 93
f 54 93 94
f 54 94 55
f 55 95 56
f 55 94 96
f 55 96 97
f 55 97 95
f 56 95 97
f 56 97 98
f 56 98 57
f 57 98 99
f 57 99 58
f 58 100 101
f 58 101 102
f 58 102 60
f 58 60 59
f 58 99 103
f 58 103 100
f 60 102 104
f 60 104 105
f 60 105 61
f 61 105 106
f 61 106 62
f 62 106 107
f 62 107 63
f 63 107 65
f 64 108 68
f 64 66 109
f 64 109 108
f 65 107 110
f 65 110 111
f 65 111 66
f 66 111 112
f 66 112 113
f 66 113 114
f 66 114 115
f 66 115 109
f 67 116 75
f 67 72 116
f 68 108 109
f 68 109 117
f 68 117 69
f 69 117 118
f 69 118 70
f 70 118 119
f 70 119 71
f 71 119 120
f 71 120 121
f 71 121 122
f 71 122 72
f 72 123 116
f 72 122 124
f 72 124 125
f 72 125 126
f 72 126 127
f 72 127 128
f 72 128 123
f 73 74 129
f 74 89 130
f 74 130 129
f 75 116 76
f 76 116 131
f 76 131 77
f 77 131 132
f 77 132 133
f 77 133 78
f 78 133 134
f 78 134 80
f 80 135 81
f 80 134 136
f 80 136 137
f 80 137 135
f 81 135 138
f 81 138 139
f 81 139 140
f 81 140 82
f 82 140 83
f 83 140 84
f 84 140 141
f 85 87 86
f 89 142 143
f 89 143 144
f 89 144 130
f 90 92 93
f 91 145 92
f 92 145 146
f 92 146 93
f 93 146 147
f 93 147 148
f 93 148 94
f 94 148 149
f 94 149 96
f 96 149 97
f 97 149 150
f 97 150 151
f 97 151 98
f 98 151 152
f 98 152 99
f 99 152 103
f 100 103 153
f 100 153 101
f 101 154 155
f 101 155 102
f 101 153 156
f 101 156 154
f 102 155 157
f 102 157 158
f 102 158 104
f 103 152 153
f 104 158 105
f 105 158 159
f 105 159 160
f 105 160 161
f 105 161 162
f 105 162 163
f 105 163 106
f 106 163 107
f 107 163 164
f 107 164 112
f 107 112 110
f 109 115 118
f 109 118 117
f 110 112 111
f 112 164 162
f 112 162 165
f 112 165 166
f 112 166 113
f 113 166 114
f 114 121 120
f 114 120 115
f 114 166 167
f 114 167 121
f 115 120 168
f 115 168 118
f 116 123 128
f 116 128 169
f 116 169 132
f 116 132 131
f 118 168 119
f 119 168 120
f 121 167 122
f 122 167 170
f 122 170 124
f 124 170 171
f 124 171 172
f 124 172 127
f 124 127 125
f 125 127 126
f 127 172 173
f 127 173 128
f 128 173 132
f 128 132 169
f 132 173 174
f 132 174 133
f 133 174 173
f 133 173 175
f 133 175 176
f 133 176 134
f 134 176 177
f 134 177 136
f 135 137 138
f 136 177 137
f 137 177 176
f 137 176 178
f 137 178 179
f 137 179 180
f 137 180 138
f 138 180 181
f 138 181 139
f 139 181 140
f 140 181 182
f 140 182 183
f 140 183 141
f 141 183 179
f 141 179 178
f 142 184 230
f 142 230 185
f 142 185 186
f 142 186 143
f 145 187 188
f 145 188 147
f 145 147 146
f 147 188 189
f 147 189 190
f 147 190 191
f 147 191 192
f 147 192 148
f 148 192 193
f 148 193 194
f 148 194 195
f 148 195 149
f 149 195 196
f 149 196 197
f 149 197 150
f 150 197 198
f 150 198 199
f 150 199 200
f 150 200 201
f 150 201 151
f 151 201 152
f 152 201 202
f 152 202 153
f 153 202 156
f 154 203 204
f 154 204 155
f 154 156 206
f 154 206 203
f 155 204 205
f 155 205 157
f 156 202 206
f 157 205 207
f 157 207 158
f 158 207 159
f 159 207 208
f 159 208 209
f 159 209 160
f 160 209 161
f 161 209 162
f 162 209 210
f 162 210 211
f 162 211 165
f 162 164 163
f 165 212 213
f 165 213 214
f 165 214 166
f 165 211 212
f 166 214 215
f 166 215 216
f 166 216 167
f 167 216 215
f 167 215 214
f 167 214 218
f 167 218 217
f 179 183 182
f 179 182 219
f 179 219 180
f 180 219 182
f 180 182 181
f 184 220 221
f 184 221 222
f 184 222 223
f 184 223 224
f 184 224 225
f 184 225 226
f 184 226 227
f 184 227 228
f 184 228 229
f 184 229 230
f 187 231 188
f 188 231 232
f 188 232 233
f 188 233 234
f 188 234 235
f 188 235 236
f 188 236 237
f 188 237 189
f 189 237 238
f 189 238 239
f 189 239 191
f 189 191 190
f 191 240 241
f 191 241 192
f 191 239 240
f 192 241 242
f 192 242 193
f 193 242 194
f 194 243 244
f 194 244 245
f 194 245 246
f 194 246 196
f 194 196 195
f 194 242 243
f 196 246 245
f 196 245 247
f 196 247 248
f 196 248 197
f 197 248 249
f 197 249 198
f 198 249 250
f 198 250 251
f 198 251 199
f 199 251 252
f 199 252 253
f 199 253 200
f 200 253 309
f 200 309 254
f 200 254 255
f 200 255 201
f 201 206 202
f 201 255 203
f 201 203 206
f 203 255 204
f 204 255 256
f 204 256 257
f 204 257 205
f 205 257 258
f 205 258 207
f 207 258 259
f 207 259 260
f 207 260 208
f 208 260 261
f 208 261 209
f 209 261 210
f 210 262 263
f 210 263 214
f 210 214 213
f 210 213 212
f 210 212 211
f 210 261 264
f 210 264 265
f 210 265 266
f 210 266 262
f 214 267 218
f 214 263 268
f 214 268 267
f 217 218 269
f 218 267 270
f 218 270 271
f 218 271 269
f 220 272 221
f 221 272 274
f 221 274 273
f 235 275 236
f 236 276 237
f 236 275 277
f 236 277 276
f 237 278 279
f 237 279 280
f 237 280 281
f 237 281 282
f 237 282 238
f 237 276 278
f 238 282 283
f 238 283 239
f 239 283 284
f 239 284 240
f 240 284 241
f 241 284 285
f 241 285 286
f 241 286 287
f 241 287 288
f 241 288 242
f 242 288 289
f 242 289 290
f 242 290 243
f 243 291 292
f 243 292 293
f 243 293 294
f 243 294 244
f 243 290 291
f 244 295 296
f 244 296 245
f 244 294 293
f 244 293 295
f 245 296 297
f 245 297 298
f 245 298 299
f 245 299 247
f 247 299 248
f 248 299 300
f 248 300 301
f 248 301 302
f 248 302 250
f 248 250 249
f 250 252 251
f 250 302 303
f 250 303 304
f 250 304 252
f 252 304 253
f 253 304 303
f 253 303 305
f 253 305 306
f 253 306 307
f 253 307 308
f 253 308 374
f 253 374 309
f 254 310 255
f 254 309 311
f 254 311 310
f 255 310 312
f 255 312 313
f 255 313 257
f 255 257 256
f 257 313 312
f 257 312 258
f 258 314 315
f 258 315 259
f 258 312 314
f 259 315 316
f 259 316 260
f 260 316 317
f 260 317 318
f 260 318 319
f 260 319 261
f 261 319 320
f 261 320 264
f 262 268 263
f 262 266 268
f 264 321 265
f 264 320 321
f 265 321 266
f 266 321 322
f 266 322 323
f 266 323 324
f 266 324 325
f 266 325 268
f 267 268 325
f 267 325 270
f 269 271 326
f 270 325 271
f 271 327 328
f 271 328 329
f 271 329 326
f 271 325 327
f 273 274 330
f 273 330 331
f 273 331 332
f 273 332 333
f 273 333 399
f 273 399 334
f 274 335 330
f 276 336 337
f 276 337 278
f 276 277 338
f 276 338 336
f 278 337 279
f 279 337 339
f 279 339 340
f 279 340 341
f 279 341 280
f 280 341 342
f 280 342 281
f 281 342 343
f 281 343 344
f 281 344 345
f 281 345 346
f 281 346 347
f 281 347 286
f 281 286 283
f 281 283 282
f 283 286 285
f 283 285 284
f 286 347 287
f 287 347 288
f 288 348 349
f 288 349 289
f 288 347 346
f 288 346 348
f 289 349 350
f 289 350 290
f 290 350 351
f 290 351 291
f 291 351 352
f 291 352 292
f 292 352 420
f 292 420 353
f 292 353 293
f 293 353 420
f 293 420 354
f 293 354 295
f 295 354 355
f 295 355 296
f 296 355 356
f 296 356 357
f 296 357 358
f 296 358 297
f 297 358 359
f 297 359 360
f 297 360 361
f 297 361 362
f 297 362 298
f 298 362 363
f 298 363 299
f 299 363 364
f 299 364 365
f 299 365 300
f 300 365 364
f 300 364 301
f 301 303 302
f 301 364 366
f 301 366 367
f 301 367 368
f 301 368 303
f 303 307 306
f 303 306 305
f 303 368 369
f 303 369 370
f 303 370 307
f 307 370 308
f 308 370 371
f 308 371 369
f 308 369 372
f 308 372 373
f 308 373 446
f 308 446 374
f 309 375 315
f 309 315 311
f 309 374 375
f 310 376 312
f 310 311 376
f 311 315 314
f 311 314 312
f 311 312 376
f 315 377 378
f 315 378 316
f 315 375 377
f 316 378 317
f 317 378 377
f 317 377 379
f 317 379 318
f 318 379 380
f 318 380 381
f 318 381 319
f 319 381 382
f 319 382 320
f 320 382 383
f 320 383 321
f 321 383 384
f 321 384 322
f 322 384 385
f 322 385 386
f 322 386 323
f 323 386 385
f 323 385 387
f 323 387 388
f 323 388 389
f 323 389 324
f 324 389 325
f 325 389 390
f 325 390 391
f 325 391 392
f 325 392 393
f 325 393 327
f 327 393 394
f 327 394 328
f 328 394 329
f 330 395 396
f 330 396 332
f 330 332 331
f 330 335 397
f 330 397 395
f 332 398 333
f 332 396 398
f 333 398 463
f 333 463 399
f 334 399 400
f 334 400 401
f 336 402 337
f 336 338 402
f 337 402 403
f 337 403 339
f 338 404 405
f 338 405 406
f 338 406 407
f 338 407 402
f 339 408 409
f 339 409 340
f 339 403 408
f 340 409 341
f 341 409 343
f 341 343 342
f 343 409 410
f 343 410 411
f 343 411 412
f 343 412 413
f 343 413 414
f 343 414 344
f 344 414 348
f 344 348 345
f 345 348 346
f 348 414 349
f 349 414 415
f 349 415 350
f 350 416 417
f 350 417 418
f 350 418 351
f 350 415 416
f 351 418 419
f 351 419 352
f 352 419 420
f 354 421 422
f 354 422 356
f 354 356 355
f 354 420 423
f 354 423 421
f 356 422 424
f 356 424 425
f 356 425 359
f 356 359 358
f 356 358 357
f 359 426 427
f 359 427 428
f 359 428 429
f 359 429 430
f 359 430 360
f 359 425 426
f 360 430 431
f 360 431 432
f 360 432 433
f 360 433 361
f 361 433 434
f 361 434 435
f 361 435 436
f 361 436 362
f 362 436 437
f 362 437 438
f 362 438 439
f 362 439 363
f 363 439 440
f 363 440 364
f 364 440 366
f 366 440 441
f 366 441 442
f 366 442 443
f 366 443 367
f 367 443 444
f 367 444 368
f 368 444 369
f 369 445 381
f 369 381 380
f 369 380 372
f 369 371 370
f 369 444 445
f 372 380 373
f 373 380 446
f 374 446 447
f 374 447 379
f 374 379 377
f 374 377 375
f 379 447 380
f 380 447 446
f 381 448 449
f 381 449 382
f 381 445 448
f 382 449 383
f 383 449 384
f 384 449 450
f 384 450 451
f 384 451 385
f 385 451 452
f 385 452 453
f 385 453 454
f 385 454 387
f 387 454 455
f 387 455 456
f 387 456 457
f 387 457 389
f 387 389 388
f 389 457 390
f 390 457 458
f 390 458 391
f 391 458 459
f 391 459 460
f 391 460 392
f 392 394 393
f 392 460 394
f 394 460 512
f 394 512 461
f 395 397 462
f 395 462 396
f 396 462 398
f 398 462 516
f 398 516 463
f 399 464 400
f 399 463 464
f 400 464 465
f 400 465 466
f 400 466 467
f 400 467 401
f 402 407 403
f 403 407 408
f 404 468 405
f 405 469 470
f 405 470 406
f 405 468 469
f 406 471 407
f 406 470 472
f 406 472 409
f 406 409 471
f 407 471 408
f 408 471 409
f 409 472 410
f 410 473 411
f 410 472 473
f 411 474 415
f 411 415 412
f 411 473 475
f 411 475 476
f 411 476 474
f 412 415 413
f 413 415 414
f 415 474 416
f 416 476 417
f 416 474 476
f 417 476 423
f 417 423 477
f 417 477 418
f 418 477 419
f 419 477 420
f 420 477 423
f 421 478 424
f 421 424 422
f 421 423 479
f 421 479 475
f 421 475 480
f 421 480 478
f 423 476 479
f 424 478 481
f 424 481 425
f 425 481 482
f 425 482 426
f 426 482 427
f 427 483 428
f 427 482 483
f 428 483 484
f 428 484 485
f 428 485 429
f 429 485 486
f 429 486 431
f 429 431 430
f 431 487 433
f 431 433 432
f 431 486 488
f 431 488 489
f 431 489 490
f 431 490 487
f 433 487 434
f 434 487 491
f 434 491 492
f 434 492 435
f 435 492 493
f 435 493 436
f 436 493 494
f 436 494 437
f 437 494 438
f 438 494 495
f 438 495 496
f 438 496 441
f 438 441 440
f 438 440 439
f 441 497 498
f 441 498 499
f 441 499 500
f 441 500 501
f 441 501 442
f 441 496 497
f 442 501 443
f 443 501 502
f 443 502 503
f 443 503 445
f 443 445 444
f 445 503 504
f 445 504 448
f 448 504 505
f 448 505 506
f 448 506 449
f 449 506 452
f 449 452 450
f 450 452 451
f 452 506 453
f 453 506 507
f 453 507 508
f 453 508 454
f 454 508 509
f 454 509 455
f 455 510 512
f 455 512 460
f 455 460 511
f 455 511 456
f 455 509 510
f 456 511 458
f 456 458 457
f 458 511 459
f 459 511 460
f 461 513 514
f 461 512 515
f 461 515 513
f 462 517 576
f 462 576 647
f 462 647 699
f 462 699 640
f 462 640 572
f 462 572 516
f 463 516 464
f 464 516 518
f 464 518 465
f 465 519 466
f 465 518 519
f 466 520 467
f 466 519 521
f 466 521 522
f 466 522 520
f 468 523 524
f 468 524 473
f 468 473 469
f 469 473 470
f 470 473 472
f 473 524 525
f 473 525 526
f 473 526 475
f 475 526 480
f 475 479 476
f 478 480 481
f 480 526 527
f 480 527 528
f 480 528 529
f 480 529 530
f 480 530 531
f 480 531 532
f 480 532 533
f 480 533 481
f 481 533 532
f 481 532 534
f 481 534 482
f 482 535 536
f 482 536 483
f 482 534 535
f 483 536 537
f 483 537 486
f 483 486 484
f 484 486 485
f 486 537 538
f 486 538 488
f 487 490 494
f 487 494 491
f 488 538 539
f 488 539 540
f 488 540 541
f 488 541 542
f 488 542 490
f 488 490 489
f 490 542 599
f 490 599 543
f 490 543 544
f 490 544 545
f 490 545 546
f 490 546 547
f 490 547 495
f 490 495 494
f 491 494 492
f 492 494 493
f 495 547 496
f 496 547 546
f 496 546 548
f 496 548 549
f 496 549 550
f 496 550 551
f 496 551 497
f 497 551 552
f 497 552 498
f 498 552 499
f 499 552 553
f 499 553 554
f 499 554 555
f 499 555 556
f 499 556 557
f 499 557 501
f 499 501 500
f 501 557 502
f 502 557 503
f 503 556 558
f 503 558 559
f 503 559 504
f 503 557 556
f 504 559 505
f 505 560 506
f 505 559 561
f 505 561 562
f 505 562 563
f 505 563 615
f 505 615 560
f 506 564 507
f 506 560 565
f 506 565 566
f 506 566 564
f 507 564 567
f 507 567 508
f 508 567 509
f 509 567 568
f 509 568 510
f 510 568 515
f 510 515 512
f 513 569 514
f 513 515 568
f 513 568 570
f 513 570 569
f 514 569 571
f 516 572 518
f 517 573 574
f 517 574 575
f 517 575 576
f 518 572 577
f 518 577 519
f 519 577 578
f 519 578 521
f 521 579 522
f 521 578 580
f 521 580 581
f 521 581 579
f 523 582 583
f 523 583 584
f 523 584 585
f 523 585 525
f 523 525 524
f 525 585 584
f 525 584 527
f 525 527 526
f 527 586 528
f 527 584 586
f 528 586 587
f 528 587 529
f 529 587 588
f 529 588 589
f 529 589 590
f 529 590 591
f 529 591 592
f 529 592 593
f 529 593 594
f 529 594 530
f 530 594 531
f 531 594 532
f 532 594 595
f 532 595 596
f 532 596 535
f 532 535 534
f 535 596 536
f 536 596 597
f 536 597 538
f 536 538 537
f 538 597 539
f 539 597 598
f 539 598 599
f 539 599 540
f 540 599 541
f 541 599 542
f 543 599 665
f 543 665 600
f 543 600 544
f 544 600 545
f 545 600 601
f 545 601 602
f 545 602 603
f 545 603 604
f 545 604 546
f 546 604 548
f 548 604 605
f 548 605 549
f 549 605 606
f 549 606 607
f 549 607 550
f 550 607 608
f 550 608 609
f 550 609 552
f 550 552 551
f 552 609 610
f 552 610 553
f 553 610 611
f 553 611 554
f 554 611 555
f 555 611 612
f 555 612 613
f 555 613 556
f 556 613 614
f 556 614 558
f 558 614 559
f 559 614 561
f 560 615 616
f 560 616 628
f 560 628 565
f 561 614 562
f 562 614 617
f 562 617 563
f 563 617 618
f 563 618 619
f 563 619 620
f 563 620 615
f 564 621 622
f 564 622 567
f 564 566 623
f 564 623 624
f 564 624 625
f 564 625 626
f 564 626 627
f 564 627 621
f 565 628 566
f 566 628 629
f 566 629 680
f 566 680 623
f 567 622 630
f 567 630 631
f 567 631 632
f 567 632 633
f 567 633 634
f 567 634 568
f 568 634 570
f 569 635 636
f 569 636 571
f 569 570 637
f 569 637 635
f 570 634 637
f 571 636 639
f 571 639 638
f 572 640 698
f 572 698 641
f 572 641 577
f 573 642 643
f 573 643 574
f 574 643 644
f 574 644 645
f 574 645 646
f 574 646 575
f 575 646 647
f 575 647 576
f 577 641 648
f 577 648 578
f 578 648 649
f 578 649 580
f 580 650 581
f 580 649 651
f 580 651 650
f 582 652 653
f 582 653 589
f 582 589 583
f 583 589 588
f 583 588 586
f 583 586 584
f 586 588 587
f 589 653 657
f 589 657 591
f 589 591 590
f 591 654 655
f 591 655 656
f 591 656 592
f 591 657 725
f 591 725 654
f 592 656 594
f 592 594 593
f 594 656 658
f 594 658 659
f 594 659 660
f 594 660 595
f 595 660 661
f 595 661 596
f 596 661 662
f 596 662 663
f 596 663 664
f 596 664 598
f 596 598 597
f 598 665 599
f 598 664 665
f 600 665 666
f 600 666 601
f 601 666 667
f 601 667 602
f 602 667 603
f 603 667 604
f 604 667 668
f 604 668 605
f 605 668 606
f 606 668 667
f 606 667 669
f 606 669 670
f 606 670 608
f 606 608 607
f 608 670 671
f 608 671 609
f 609 671 610
f 610 671 672
f 610 672 611
f 611 672 612
f 612 672 673
f 612 673 613
f 613 673 674
f 613 674 675
f 613 675 618
f 613 618 617
f 613 617 614
f 615 620 616
f 616 620 676
f 616 676 628
f 618 675 619
f 619 675 620
f 620 675 676
f 621 677 678
f 621 678 622
f 621 627 679
f 621 679 677
f 622 678 630
f 623 680 681
f 623 681 624
f 624 681 625
f 625 681 682
f 625 682 626
f 626 682 683
f 626 683 684
f 626 684 627
f 627 684 685
f 627 685 679
f 628 676 629
f 629 676 680
f 630 678 686
f 630 686 631
f 631 686 687
f 631 687 632
f 632 687 633
f 633 687 688
f 633 688 634
f 634 689 637
f 634 688 689
f 635 637 636
f 636 690 691
f 636 691 638
f 636 638 639
f 636 637 689
f 636 689 688
f 636 688 692
f 636 692 693
f 636 693 690
f 638 691 695
f 638 695 696
f 638 696 694
f 640 697 698
f 640 699 700
f 640 700 697
f 641 698 783
f 641 783 701
f 641 701 702
f 641 702 648
f 642 694 696
f 642 696 703
f 642 703 704
f 642 704 643
f 643 704 705
f 643 705 706
f 643 706 645
f 643 645 644
f 645 706 707
f 645 707 708
f 645 708 646
f 646 708 709
f 646 709 699
f 646 699 647
f 648 702 710
f 648 710 711
f 648 711 712
f 648 712 713
f 648 713 714
f 648 714 649
f 649 714 651
f 650 651 715
f 651 714 716
f 651 716 717
f 651 717 718
f 651 718 719
f 651 719 720
f 651 720 715
f 652 721 807
f 652 807 722
f 652 722 653
f 653 722 723
f 653 723 724
f 653 724 725
f 653 725 657
f 654 725 811
f 654 811 726
f 654 726 727
f 654 727 728
f 654 728 658
f 654 658 655
f 655 658 656
f 658 728 729
f 658 729 730
f 658 730 731
f 658 731 732
f 658 732 659
f 659 732 660
f 660 732 661
f 661 732 662
f 662 732 733
f 662 733 734
f 662 734 735
f 662 735 736
f 662 736 737
f 662 737 663
f 663 737 738
f 663 738 664
f 664 738 739
f 664 739 666
f 664 666 665
f 666 739 740
f 666 740 741
f 666 741 669
f 666 669 667
f 669 741 670
f 670 742 671
f 670 741 740
f 670 740 742
f 671 742 824
f 671 824 743
f 671 743 826
f 671 826 744
f 671 744 745
f 671 745 746
f 671 746 747
f 671 747 748
f 671 748 672
f 672 748 673
f 673 748 747
f 673 747 749
f 673 749 674
f 674 750 755
f 674 755 751
f 674 751 752
f 674 752 675
f 674 749 753
f 674 753 754
f 674 754 827
f 674 827 750
f 675 752 676
f 676 752 751
f 676 751 755
f 676 755 756
f 676 756 757
f 676 757 758
f 676 758 759
f 676 759 760
f 676 760 680
f 677 761 762
f 677 762 763
f 677 763 678
f 677 679 761
f 678 763 764
f 678 764 765
f 678 765 686
f 679 685 766
f 679 766 761
f 680 760 681
f 681 760 682
f 682 760 767
f 682 767 683
f 683 685 684
f 683 767 768
f 683 768 769
f 683 769 770
f 683 770 771
f 683 771 772
f 683 772 773
f 683 773 685
f 685 773 774
f 685 774 766
f 686 765 775
f 686 775 776
f 686 776 777
f 686 777 778
f 686 778 690
f 686 690 687
f 687 690 693
f 687 693 692
f 687 692 688
f 690 778 691
f 691 778 695
f 695 778 777
f 695 777 779
f 695 779 696
f 696 780 703
f 696 779 776
f 696 776 780
f 697 766 774
f 697 774 781
f 697 781 698
f 697 700 766
f 698 781 782
f 698 782 783
f 699 709 700
f 700 709 762
f 700 762 761
f 700 761 766
f 701 783 839
f 701 839 784
f 701 784 710
f 701 710 702
f 703 780 837
f 703 837 785
f 703 785 704
f 704 785 786
f 704 786 707
f 704 707 705
f 705 707 706
f 707 786 763
f 707 763 708
f 708 763 762
f 708 762 709
f 710 784 787
f 710 787 788
f 710 788 789
f 710 789 790
f 710 790 791
f 710 791 792
f 710 792 793
f 710 793 794
f 710 794 711
f 711 794 795
f 711 795 796
f 711 796 713
f 711 713 712
f 713 797 714
f 713 796 798
f 713 798 799
f 713 799 800
f 713 800 801
f 713 801 802
f 713 802 797
f 714 797 716
f 716 797 717
f 717 797 802
f 717 802 718
f 718 802 803
f 721 804 805
f 721 805 806
f 721 806 724
f 721 724 807
f 722 807 723
f 723 807 724
f 724 806 808
f 724 808 725
f 725 808 809
f 725 809 810
f 725 810 811
f 726 811 863
f 726 863 812
f 726 812 813
f 726 813 727
f 727 729 728
f 727 813 729
f 729 813 814
f 729 814 815
f 729 815 730
f 730 815 816
f 730 816 817
f 730 817 818
f 730 818 731
f 731 818 817
f 731 817 734
f 731 734 733
f 731 733 732
f 734 817 819
f 734 819 771
f 734 771 735
f 735 771 736
f 736 771 820
f 736 820 737
f 737 820 738
f 738 820 821
f 738 821 822
f 738 822 739
f 739 822 823
f 739 823 824
f 739 824 742
f 739 742 740
f 743 824 823
f 743 823 825
f 743 825 826
f 744 826 827
f 744 827 754
f 744 754 753
f 744 753 745
f 745 753 749
f 745 749 746
f 746 749 747
f 750 827 828
f 750 828 758
f 750 758 757
f 750 757 756
f 750 756 755
f 758 828 759
f 759 828 829
f 759 829 830
f 759 830 831
f 759 831 768
f 759 768 767
f 759 767 760
f 763 786 764
f 764 786 775
f 764 775 765
f 768 831 769
f 769 831 827
f 769 827 770
f 770 827 826
f 770 826 820
f 770 820 832
f 770 832 771
f 771 819 833
f 771 833 834
f 771 834 772
f 771 832 820
f 772 834 835
f 772 835 836
f 772 836 773
f 773 835 774
f 773 836 835
f 774 835 781
f 775 786 837
f 775 837 780
f 775 780 776
f 776 779 777
f 781 835 838
f 781 838 817
f 781 817 782
f 782 817 839
f 782 839 783
f 784 839 840
f 784 840 787
f 785 837 786
f 787 840 788
f 788 841 842
f 788 842 843
f 788 843 844
f 788 844 789
f 788 840 841
f 789 844 790
f 790 844 810
f 790 810 791
f 791 845 792
f 791 810 846
f 791 846 847
f 791 847 845
f 792 845 848
f 792 848 849
f 792 849 850
f 792 850 851
f 792 851 852
f 792 852 853
f 792 853 793
f 793 853 794
f 794 853 795
f 795 853 798
f 795 798 796
f 798 853 854
f 798 854 855
f 798 855 799
f 799 855 856
f 799 856 857
f 799 857 801
f 799 801 800
f 801 857 802
f 802 857 858
f 802 858 859
f 802 859 803
f 803 859 858
f 804 860 805
f 805 860 846
f 805 846 810
f 805 810 809
f 805 809 861
f 805 861 806
f 806 861 809
f 806 809 808
f 810 844 862
f 810 862 811
f 811 862 863
f 812 863 844
f 812 844 843
f 812 843 842
f 812 842 813
f 813 842 864
f 813 864 814
f 814 864 865
f 814 865 816
f 814 816 815
f 816 865 817
f 817 840 839
f 817 838 835
f 817 835 834
f 817 834 833
f 817 833 819
f 817 865 864
f 817 864 866
f 817 866 840
f 820 826 821
f 821 867 822
f 821 826 867
f 822 867 823
f 823 867 868
f 823 868 825
f 825 868 867
f 825 867 826
f 827 831 830
f 827 830 829
f 827 829 828
f 840 866 869
f 840 869 841
f 841 869 842
f 842 869 866
f 842 866 864
f 844 863 862
f 845 847 848
f 846 860 847
f 847 860 870
f 847 870 871
f 847 871 872
f 847 872 850
f 847 850 848
f 848 850 849
f 850 872 873
f 850 873 851
f 851 873 874
f 851 874 875
f 851 875 852
f 852 875 853
f 853 875 854
f 854 875 876
f 854 876 877
f 854 877 855
f 855 877 856
f 856 877 878
f 874 879 875
f 875 879 876
f 876 878 877

