# https://github.com/mikedh/trimesh
v 0.01429488 0.00305443 0.04382180
v 0.01375633 0.00305443 0.04576013
v 0.01376121 0.00158519 0.04580806
v 0.01406384 -0.00425517 0.04491138
v 0.01407035 -0.00498537 0.04491138
v 0.01425258 -0.00498537 0.04418071
v 0.01433556 -0.00498537 0.04382180
v 0.00687556 0.00305443 0.04382180
v 0.01356759 0.00305443 0.04637155
v 0.01375795 0.00231539 0.04578701
v 0.01376284 0.00085498 0.04582559
v 0.01376446 0.00012478 0.04583962
v 0.01388975 -0.00425517 0.04549358
v 0.01389137 -0.00498537 0.04549475
v 0.01403455 -0.00571558 0.04491138
v 0.01424444 -0.00571558 0.04418071
v 0.01433230 -0.00571558 0.04382180
v 0.00687394 0.00231539 0.04382180
v -0.00169245 -0.00571558 0.05170019
v 0.00348643 0.00305443 0.04736526
v 0.01329588 0.00305443 0.04709404
v 0.01357247 0.00085498 0.04637155
v 0.01376446 -0.00133562 0.04585131
v 0.01376446 -0.00060542 0.04584664
v 0.01386859 -0.00571558 0.04542694
v 0.01376284 -0.00206583 0.04585482
v 0.01375958 -0.00425517 0.04585950
v 0.01375795 -0.00498537 0.04585950
v 0.01383280 -0.00611479 0.04532991
v 0.01390439 -0.00621459 0.04491138
v 0.01408825 -0.00645336 0.04382180
v 0.00687394 -0.00534416 0.04382180
v -0.00169245 -0.00863639 0.05170019
v -0.00205853 -0.00644578 0.05216899
v -0.00205690 -0.00571558 0.05217951
v -0.00162737 -0.00498537 0.05175163
v -0.00225703 -0.00533532 0.05256180
v 0.00327817 0.00305443 0.04783172
v 0.01329262 0.00305443 0.04710222
v 0.01329262 0.00304559 0.04710222
v 0.01329099 0.00231539 0.04710222
v 0.01357247 -0.00060542 0.04637155
v 0.01309412 -0.00542122 0.04749737
v 0.01356759 -0.00206583 0.04637155
v 0.01355783 -0.00498537 0.04637155
v 0.01382141 -0.00681846 0.04383700
v 0.01304206 -0.00590887 0.04735708
v 0.00754753 -0.00936659 0.05576389
v 0.00727256 -0.00975443 0.05576389
v 0.01382466 -0.00682099 0.04382180
v 0.00687719 -0.00571558 0.04382180
v -0.00008330 -0.00903812 0.05036861
v -0.00086103 -0.00912024 0.05105720
v -0.00163550 -0.00917835 0.05174929
v -0.00205853 -0.00863639 0.05216899
v -0.00226842 -0.00644578 0.05253374
v -0.00226354 -0.00571558 0.05254426
v -0.00227656 -0.00571558 0.05294291
v -0.00225866 -0.00533026 0.05294291
v -0.00205853 -0.00496516 0.05294291
v 0.00317241 0.00305443 0.04856239
v 0.01311527 0.00305443 0.04753712
v 0.01311527 0.00304559 0.04753712
v 0.01311039 0.00012478 0.04753127
v 0.01310551 -0.00279603 0.04752309
v 0.01327635 -0.00206583 0.04710222
v 0.01291026 -0.00568526 0.04777795
v 0.01326659 -0.00498537 0.04710222
v 0.01310063 -0.00498537 0.04751491
v 0.01295094 -0.00498537 0.04787966
v 0.01237009 -0.00546923 0.04895754
v 0.01250839 -0.00571431 0.04860214
v 0.01232453 -0.00595561 0.04887220
v 0.00866368 -0.00705976 0.05576389
v 0.00829760 -0.00783544 0.05576389
v 0.00787945 -0.00871219 0.05576389
v 0.00687556 -0.00981381 0.05576389
v 0.00727256 -0.00975443 0.05148157
v 0.01380839 -0.00682478 0.04382180
v 0.00726117 -0.00974685 0.05104551
v 0.00696505 -0.00611984 0.04382180
v 0.00030393 -0.00919099 0.05022599
v -0.00062836 -0.00960662 0.05125711
v 0.00707569 -0.00650895 0.04382180
v 0.00726117 -0.00679446 0.04382180
v -0.00113600 -0.00939186 0.05150261
v -0.00186491 -0.00935017 0.05224965
v -0.00226354 -0.00903434 0.05254894
v -0.00141097 -0.00966473 0.05195037
v -0.00226842 -0.00863639 0.05253374
v -0.00228632 -0.00644578 0.05294291
v -0.00228632 -0.00644578 0.05576389
v -0.00227656 -0.00581538 0.05576389
v -0.00227493 -0.00571558 0.05576389
v -0.00225866 -0.00533279 0.05576389
v -0.00223100 -0.00528226 0.05576389
v -0.00205853 -0.00496769 0.05440309
v 0.00317567 0.00305443 0.05576389
v 0.00317241 0.00305443 0.04930008
v 0.01293630 0.00305443 0.04790187
v 0.01294443 0.00012478 0.04789602
v 0.01294606 -0.00060542 0.04789485
v 0.01294931 -0.00206583 0.04789135
v 0.01295094 -0.00279603 0.04788901
v 0.01295094 -0.00425517 0.04788316
v 0.01310388 -0.00352497 0.04752075
v 0.01261252 -0.00498537 0.04856239
v 0.00876130 -0.00644578 0.05576389
v 0.00875154 -0.00692837 0.05563763
v 0.00687556 -0.00981381 0.05148157
v 0.00614502 -0.00985171 0.05576389
v 0.01344719 -0.00690816 0.04382180
v 0.00687556 -0.00977338 0.05092392
v 0.00687556 -0.00969127 0.05055800
v 0.00030393 -0.00955609 0.05058723
v -0.00014188 -0.00975696 0.05106070
v 0.00124111 -0.00908866 0.04956429
v 0.00729209 -0.00681088 0.04382180
v -0.00160621 -0.00977212 0.05243670
v -0.00226842 -0.00905076 0.05294291
v -0.00228632 -0.00863639 0.05294291
v -0.00201460 -0.00941586 0.05294291
v -0.00092448 -0.00976833 0.05174461
v -0.00228632 -0.00863639 0.05576389
v -0.00205690 -0.00496769 0.05576389
v 0.00876619 0.00305443 0.05576389
v 0.01261252 -0.00206583 0.04856239
v 0.01258974 0.00305443 0.04855538
v 0.01260601 -0.00060542 0.04856239
v 0.01261414 -0.00352497 0.04856239
v 0.01261414 -0.00425517 0.04856239
v 0.00876619 -0.00581412 0.05576389
v 0.00614502 -0.00985171 0.05148157
v -0.00042661 -0.00985171 0.05576389
v 0.01271665 -0.00697764 0.04382180
v 0.00614502 -0.00979107 0.05083741
v 0.00614502 -0.00971148 0.05047266
v 0.00103448 -0.00970137 0.05048903
v 0.00754428 -0.00693848 0.04382180
v 0.00030393 -0.00978096 0.05095198
v -0.00040220 -0.00979233 0.05149326
v -0.00164852 -0.00979107 0.05294291
v -0.00116366 -0.00980117 0.05220055
v -0.00115552 -0.00985044 0.05294291
v -0.00226842 -0.00905076 0.05576389
v -0.00196416 -0.00946766 0.05576389
v -0.00201460 -0.00941586 0.05576389
v 0.00103448 -0.00985171 0.05148157
v -0.00115552 -0.00985044 0.05576389
v -0.00042661 -0.00985171 0.05294291
v 0.00833502 -0.00709639 0.04382180
v 0.00176502 -0.00979107 0.05083741
v 0.00176502 -0.00971148 0.05047266
v 0.00103448 -0.00979107 0.05085378
v 0.00030393 -0.00984034 0.05148157
v -0.00122223 -0.00984286 0.05576389
v -0.00164852 -0.00979107 0.05576389
v -0.00042661 -0.00984792 0.05221224
f 1 2 3
f 1 3 4
f 1 4 5
f 1 5 6
f 1 6 7
f 1 7 17
f 1 17 31
f 1 31 50
f 1 50 79
f 1 79 112
f 1 112 135
f 1 135 151
f 1 151 139
f 1 139 118
f 1 118 85
f 1 85 84
f 1 84 81
f 1 81 51
f 1 51 32
f 1 32 18
f 1 18 8
f 1 8 20
f 1 20 38
f 1 38 61
f 1 61 99
f 1 99 98
f 1 98 126
f 1 126 128
f 1 128 100
f 1 100 62
f 1 62 39
f 1 39 21
f 1 21 9
f 1 9 2
f 2 9 10
f 2 10 3
f 3 11 4
f 3 10 9
f 3 9 11
f 4 11 5
f 5 11 12
f 5 12 13
f 5 13 14
f 5 14 15
f 5 15 16
f 5 16 6
f 6 16 17
f 6 17 7
f 8 18 19
f 8 19 20
f 9 21 22
f 9 22 23
f 9 23 24
f 9 24 12
f 9 12 11
f 12 24 13
f 13 24 14
f 14 25 15
f 14 24 23
f 14 23 26
f 14 26 27
f 14 27 28
f 14 28 25
f 15 25 29
f 15 29 16
f 16 29 30
f 16 30 17
f 17 30 31
f 18 32 33
f 18 33 19
f 19 33 55
f 19 55 34
f 19 34 35
f 19 35 36
f 19 36 20
f 20 36 37
f 20 37 38
f 21 39 40
f 21 40 41
f 21 41 42
f 21 42 22
f 22 42 23
f 23 42 26
f 25 28 43
f 25 43 29
f 26 42 27
f 27 42 28
f 28 42 44
f 28 44 45
f 28 45 43
f 29 46 30
f 29 43 47
f 29 47 48
f 29 48 49
f 29 49 46
f 30 46 50
f 30 50 31
f 32 51 33
f 33 52 53
f 33 53 54
f 33 54 55
f 33 51 52
f 34 55 90
f 34 90 56
f 34 56 35
f 35 56 57
f 35 57 37
f 35 37 36
f 37 57 58
f 37 58 59
f 37 59 60
f 37 60 61
f 37 61 38
f 39 62 63
f 39 63 40
f 40 63 41
f 41 63 64
f 41 64 65
f 41 65 66
f 41 66 44
f 41 44 42
f 43 67 47
f 43 45 68
f 43 68 69
f 43 69 70
f 43 70 71
f 43 71 72
f 43 72 67
f 44 66 68
f 44 68 45
f 46 49 50
f 47 67 73
f 47 73 74
f 47 74 75
f 47 75 76
f 47 76 48
f 48 76 75
f 48 75 74
f 48 74 108
f 48 108 132
f 48 132 126
f 48 126 98
f 48 98 125
f 48 125 96
f 48 96 95
f 48 95 94
f 48 94 93
f 48 93 92
f 48 92 124
f 48 124 145
f 48 145 147
f 48 147 146
f 48 146 157
f 48 157 156
f 48 156 149
f 48 149 134
f 48 134 111
f 48 111 77
f 48 77 49
f 49 77 110
f 49 110 78
f 49 78 50
f 50 78 80
f 50 80 79
f 51 81 52
f 52 82 83
f 52 83 53
f 52 81 84
f 52 84 85
f 52 85 82
f 53 83 86
f 53 86 54
f 54 87 88
f 54 88 55
f 54 86 89
f 54 89 87
f 55 88 90
f 56 90 121
f 56 121 91
f 56 91 57
f 57 91 58
f 58 91 92
f 58 92 93
f 58 93 94
f 58 94 95
f 58 95 59
f 59 95 96
f 59 96 60
f 60 96 97
f 60 97 98
f 60 98 99
f 60 99 61
f 62 100 101
f 62 101 102
f 62 102 103
f 62 103 104
f 62 104 63
f 63 104 105
f 63 105 70
f 63 70 64
f 64 70 65
f 65 70 106
f 65 106 68
f 65 68 66
f 67 72 73
f 68 106 69
f 69 106 70
f 70 105 107
f 70 107 71
f 71 107 108
f 71 108 109
f 71 109 72
f 72 109 74
f 72 74 73
f 74 109 108
f 77 111 133
f 77 133 110
f 78 110 80
f 79 80 112
f 80 110 113
f 80 113 114
f 80 114 112
f 82 115 116
f 82 116 83
f 82 85 117
f 82 117 115
f 83 89 86
f 83 116 89
f 85 118 117
f 87 89 119
f 87 119 88
f 88 120 121
f 88 121 90
f 88 119 122
f 88 122 120
f 89 116 123
f 89 123 119
f 91 121 124
f 91 124 92
f 96 125 97
f 97 125 98
f 100 127 101
f 100 128 129
f 100 129 127
f 101 127 102
f 102 127 130
f 102 130 103
f 103 130 104
f 104 130 131
f 104 131 105
f 105 131 107
f 107 131 132
f 107 132 108
f 110 133 113
f 111 134 150
f 111 150 148
f 111 148 133
f 112 114 135
f 113 133 136
f 113 136 137
f 113 137 114
f 114 137 135
f 115 138 116
f 115 117 139
f 115 139 138
f 116 138 140
f 116 140 141
f 116 141 123
f 117 118 139
f 119 142 122
f 119 123 143
f 119 143 144
f 119 144 142
f 120 122 147
f 120 147 145
f 120 145 124
f 120 124 121
f 122 142 146
f 122 146 147
f 123 141 143
f 126 132 131
f 126 131 130
f 126 130 127
f 126 127 129
f 126 129 128
f 133 148 152
f 133 152 136
f 134 149 144
f 134 144 150
f 135 137 151
f 136 152 153
f 136 153 137
f 137 153 151
f 138 153 154
f 138 154 140
f 138 139 151
f 138 151 153
f 140 155 141
f 140 154 155
f 141 155 143
f 142 144 156
f 142 156 157
f 142 157 146
f 143 155 158
f 143 158 144
f 144 149 156
f 144 158 148
f 144 148 150
f 148 158 155
f 148 155 154
f 148 154 152
f 152 154 153

