# https://github.com/mikedh/trimesh
v 0.00801101 0.00667471 0.06827848
v 0.00778990 0.00667471 0.06668020
v 0.00800295 0.00667471 0.06867012
v 0.01052648 0.00616041 0.06827848
v 0.01109582 0.00577807 0.06779041
v 0.01119698 0.00523667 0.06772833
v 0.00801907 0.00523667 0.06668020
v 0.00256828 0.00667471 0.06668020
v 0.00798774 0.00667471 0.06900893
v 0.01052648 0.00610691 0.06900893
v 0.01120772 0.00588150 0.06827848
v 0.01152372 0.00523667 0.06827848
v 0.01152551 0.00450695 0.06827848
v 0.01119698 0.00158664 0.06772833
v 0.00801996 0.00499486 0.06668020
v 0.00239730 -0.00061250 0.06668020
v 0.00238118 -0.00061250 0.07118773
v 0.00255485 0.00667471 0.07117188
v 0.00769411 0.00667471 0.06971626
v 0.01048352 0.00581731 0.06969777
v 0.01109403 0.00581231 0.06900893
v 0.00540512 0.00667471 0.07263278
v 0.00484832 0.00667471 0.07318690
v 0.01129814 0.00523667 0.06900893
v 0.01129903 0.00450695 0.06900893
v 0.01152551 0.00158664 0.06827848
v 0.01115401 0.00085621 0.06776333
v 0.00775141 -0.00061036 0.06668020
v 0.00797968 0.00085621 0.06668020
v 0.00801996 0.00158664 0.06668020
v 0.00335515 -0.00061250 0.06668020
v 0.00238029 -0.00061250 0.07192941
v 0.00255485 0.00667471 0.07119896
v 0.01021138 0.00568035 0.07013961
v 0.01094454 0.00568606 0.06942699
v 0.00472120 0.00667471 0.07322785
v 0.00533530 0.00596710 0.07318756
v 0.00519117 0.00651350 0.07311029
v 0.01097139 0.00523667 0.06945341
v 0.01129903 0.00158664 0.06900893
v 0.01122025 0.00085621 0.06900893
v 0.01142794 0.00085621 0.06827848
v 0.01103764 0.00043108 0.06783664
v 0.01111104 0.00040040 0.06827848
v 0.00775230 -0.00061250 0.06681824
v 0.00252531 -0.00061250 0.07264863
v 0.00268913 0.00667471 0.07270940
v 0.00255664 0.00667471 0.07192941
v 0.00598341 0.00377652 0.07316841
v 0.01023644 0.00523667 0.07015810
v 0.01060168 0.00523667 0.06981863
v 0.00577662 0.00558905 0.07301650
v 0.00583481 0.00510257 0.07307660
v 0.00589927 0.00450695 0.07312679
v 0.00468539 0.00596710 0.07338833
v 0.00395492 0.00667471 0.07338107
v 0.00541586 0.00450695 0.07332757
v 0.00548569 0.00530229 0.07321530
v 0.01097139 0.00158664 0.06945341
v 0.01094633 0.00085621 0.06942831
v 0.01091141 0.00047602 0.06939397
v 0.01101705 0.00043393 0.06900893
v 0.00775320 -0.00061250 0.06900893
v 0.00775320 -0.00061250 0.06754869
v 0.00252799 -0.00061250 0.07265986
v 0.00271509 0.00667471 0.07276619
v 0.00600400 0.00304608 0.07317699
v 0.00541586 0.00377652 0.07336918
v 0.01023644 0.00158664 0.07015810
v 0.01060168 0.00158664 0.06981863
v 0.00468539 0.00523667 0.07342400
v 0.00316447 0.00667471 0.07320935
v 0.00322534 -0.00060465 0.07329521
v 0.00395492 0.00012578 0.07338833
v 0.00468539 0.00450695 0.07342664
v 0.01057662 0.00085621 0.06979354
v 0.01017826 0.00047887 0.07011583
v 0.00462900 -0.00061250 0.07314925
v 0.00496827 -0.00061250 0.07281441
v 0.00728860 -0.00061250 0.07013763
v 0.00754462 -0.00061250 0.06973938
v 0.00276343 -0.00061250 0.07309708
v 0.00287712 0.00636584 0.07299273
v 0.00311076 0.00667471 0.07318756
v 0.01021138 0.00085621 0.07013961
v 0.00541586 0.00304608 0.07337842
v 0.00541586 0.00231636 0.07334871
v 0.00541586 0.00158664 0.07329587
v 0.00593597 0.00231636 0.07314793
v 0.00321908 -0.00061250 0.07329389
v 0.00322534 -0.00061250 0.07329521
v 0.00394776 -0.00061250 0.07334804
v 0.00395492 -0.00060465 0.07334871
v 0.00468539 0.00085621 0.07340947
v 0.00468539 0.00158664 0.07342664
v 0.00585630 0.00158664 0.07309509
v 0.00580527 0.00112513 0.07305018
v 0.00523772 0.00012578 0.07314265
v 0.00511508 -0.00030435 0.07307000
v 0.00461109 -0.00061250 0.07315718
v 0.00276790 -0.00061250 0.07310236
v 0.00468539 0.00012578 0.07333549
v 0.00545346 0.00087190 0.07318756
v 0.00395492 -0.00061250 0.07334672
v 0.00465317 -0.00057042 0.07315651
f 1 2 8
f 1 8 18
f 1 18 33
f 1 33 48
f 1 48 47
f 1 47 66
f 1 66 84
f 1 84 72
f 1 72 56
f 1 56 36
f 1 36 23
f 1 23 22
f 1 22 19
f 1 19 9
f 1 9 3
f 1 3 4
f 1 4 2
f 2 4 5
f 2 5 6
f 2 6 7
f 2 7 15
f 2 15 30
f 2 30 29
f 2 29 28
f 2 28 31
f 2 31 16
f 2 16 8
f 3 9 4
f 4 10 11
f 4 11 5
f 4 9 10
f 5 11 12
f 5 12 6
f 6 12 13
f 6 13 26
f 6 26 14
f 6 14 30
f 6 30 15
f 6 15 7
f 8 16 17
f 8 17 18
f 9 19 10
f 10 20 21
f 10 21 11
f 10 19 22
f 10 22 23
f 10 23 20
f 11 21 12
f 12 21 24
f 12 24 13
f 13 24 25
f 13 25 40
f 13 40 26
f 14 26 27
f 14 27 28
f 14 28 29
f 14 29 30
f 16 31 45
f 16 45 64
f 16 64 63
f 16 63 81
f 16 81 80
f 16 80 79
f 16 79 78
f 16 78 100
f 16 100 104
f 16 104 92
f 16 92 91
f 16 91 90
f 16 90 101
f 16 101 82
f 16 82 65
f 16 65 46
f 16 46 32
f 16 32 17
f 17 32 18
f 18 32 33
f 20 34 35
f 20 35 21
f 20 23 34
f 21 35 24
f 23 36 37
f 23 37 38
f 23 38 34
f 24 35 39
f 24 39 25
f 25 39 59
f 25 59 40
f 26 40 41
f 26 41 42
f 26 42 27
f 27 42 43
f 27 43 28
f 28 43 44
f 28 44 45
f 28 45 31
f 32 46 47
f 32 47 48
f 32 48 33
f 34 49 50
f 34 50 51
f 34 51 35
f 34 38 37
f 34 37 52
f 34 52 53
f 34 53 54
f 34 54 49
f 35 51 39
f 36 55 37
f 36 56 55
f 37 55 57
f 37 57 58
f 37 58 53
f 37 53 52
f 39 51 70
f 39 70 59
f 40 59 60
f 40 60 41
f 41 60 61
f 41 61 62
f 41 62 42
f 42 62 44
f 42 44 43
f 44 62 63
f 44 63 64
f 44 64 45
f 46 65 47
f 47 65 66
f 49 67 50
f 49 54 58
f 49 58 57
f 49 57 68
f 49 68 67
f 50 69 70
f 50 70 51
f 50 67 69
f 53 58 54
f 55 71 68
f 55 68 57
f 55 56 71
f 56 72 73
f 56 73 74
f 56 74 75
f 56 75 71
f 59 70 76
f 59 76 60
f 60 76 61
f 61 76 77
f 61 77 78
f 61 78 79
f 61 79 80
f 61 80 81
f 61 81 62
f 62 81 63
f 65 82 66
f 66 82 83
f 66 83 84
f 67 85 69
f 67 68 86
f 67 86 87
f 67 87 88
f 67 88 89
f 67 89 85
f 68 71 86
f 69 85 70
f 70 85 76
f 71 75 86
f 72 84 90
f 72 90 73
f 73 90 91
f 73 91 74
f 74 91 92
f 74 92 93
f 74 93 94
f 74 94 95
f 74 95 75
f 75 95 86
f 76 85 77
f 77 85 89
f 77 89 96
f 77 96 97
f 77 97 98
f 77 98 99
f 77 99 78
f 78 99 100
f 82 101 83
f 83 101 84
f 84 101 90
f 86 95 94
f 86 94 87
f 87 94 88
f 88 94 102
f 88 102 103
f 88 103 96
f 88 96 89
f 92 104 93
f 93 104 102
f 93 102 94
f 96 103 97
f 97 103 98
f 98 102 99
f 98 103 102
f 99 102 105
f 99 105 100
f 100 105 104
f 102 104 105

