# https://github.com/mikedh/trimesh
v -0.01663034 -0.01537039 0.00109572
v -0.01663034 -0.01534613 0.00095708
v -0.00992048 -0.01537039 0.00109572
v -0.01663034 -0.01537039 0.00985807
v -0.01663034 -0.01524259 0.00036553
v -0.00992048 -0.01524259 0.00036553
v -0.00919233 -0.01536945 0.00109341
v -0.00919233 -0.01537039 0.00182361
v -0.00992048 -0.01537039 0.00985807
v -0.01663034 -0.01526218 0.01058826
v -0.01663034 -0.01497954 -0.00012204
v -0.00919233 -0.01497954 -0.00012204
v -0.00919233 -0.01524166 0.00036437
v -0.00919233 -0.01537039 0.00985460
v -0.00992048 -0.01526218 0.01058826
v -0.01663034 -0.01499913 0.01109894
v -0.01663034 -0.01488439 -0.00016017
v -0.00919233 -0.01447862 -0.00032192
v -0.00919233 -0.01526218 0.01058480
v -0.00919233 -0.01500006 0.01109663
v -0.00992048 -0.01499913 0.01109894
v -0.00919233 -0.01448142 0.01132193
v -0.01663034 -0.01457843 0.01127918
v -0.01663034 -0.01447862 -0.00032192
v -0.00919233 -0.01374916 -0.00040164
v -0.00919233 -0.01375196 0.01140049
v -0.00992048 -0.01374916 0.01140165
v -0.01663034 -0.01388815 0.01138663
v -0.01663034 -0.01447862 0.01132193
v -0.01663034 -0.01374916 -0.00040164
v -0.00919233 -0.00790788 -0.00040164
v -0.00919233 -0.01302156 0.01140165
v -0.01663034 -0.01374916 0.01140165
v -0.01503133 -0.00863828 -0.00040164
v -0.01663034 -0.00790788 -0.00039355
v -0.01211074 -0.00790788 -0.00040164
v -0.00919233 -0.00717749 -0.00038662
v -0.00919233 -0.00791068 0.01140165
v -0.01663034 -0.00863828 0.01140165
v -0.01663034 -0.00777356 -0.00035542
v -0.00919233 -0.00640699 -0.00018096
v -0.00992048 -0.00790788 0.01140165
v -0.00919233 -0.00718029 0.01138547
v -0.01211074 -0.00790788 0.01140165
v -0.01663034 -0.00790788 0.01139356
v -0.01663034 -0.00719988 -0.00019252
v -0.00919233 -0.00638553 -0.00017172
v -0.00919233 -0.00710100 0.01136352
v -0.00919233 -0.00640139 0.01116364
v -0.01663034 -0.00732114 0.01121217
v -0.01663034 -0.00683515 0.00004434
v -0.00945883 -0.00613554 0.00014139
v -0.00919233 -0.00596017 0.00035398
v -0.00919233 -0.00638460 0.01115671
v -0.01663034 -0.00718309 0.01116942
v -0.01663034 -0.00672135 0.00040943
v -0.00919233 -0.00595084 0.00037708
v -0.00919233 -0.00635755 0.01114284
v -0.01663034 -0.00688739 0.01098340
v -0.01663034 -0.00670362 0.00053999
v -0.00919233 -0.00584357 0.00109572
v -0.00919233 -0.00606185 0.01093719
v -0.01663034 -0.00681836 0.01093950
v -0.01663034 -0.00662993 0.00109572
v -0.00919233 -0.00584170 0.00182592
v -0.00919233 -0.00593778 0.01058133
v -0.01663034 -0.00672135 0.01057440
v -0.01663034 -0.00662993 0.00985807
v -0.00919233 -0.00584170 0.00912787
v -0.00919233 -0.00593312 0.01055707
v -0.00919233 -0.00584357 0.00985807
f 1 2 3
f 1 3 8
f 1 8 14
f 1 14 9
f 1 9 4
f 1 4 10
f 1 10 16
f 1 16 23
f 1 23 29
f 1 29 28
f 1 28 33
f 1 33 39
f 1 39 45
f 1 45 50
f 1 50 55
f 1 55 59
f 1 59 63
f 1 63 67
f 1 67 68
f 1 68 64
f 1 64 60
f 1 60 56
f 1 56 51
f 1 51 46
f 1 46 40
f 1 40 35
f 1 35 30
f 1 30 24
f 1 24 17
f 1 17 11
f 1 11 5
f 1 5 2
f 2 5 6
f 2 6 3
f 3 6 7
f 3 7 8
f 4 9 15
f 4 15 10
f 5 11 12
f 5 12 6
f 6 12 13
f 6 13 7
f 7 13 12
f 7 12 18
f 7 18 25
f 7 25 31
f 7 31 37
f 7 37 41
f 7 41 47
f 7 47 53
f 7 53 57
f 7 57 61
f 7 61 65
f 7 65 69
f 7 69 71
f 7 71 70
f 7 70 66
f 7 66 62
f 7 62 58
f 7 58 54
f 7 54 49
f 7 49 48
f 7 48 43
f 7 43 38
f 7 38 32
f 7 32 26
f 7 26 22
f 7 22 20
f 7 20 19
f 7 19 14
f 7 14 8
f 9 14 19
f 9 19 15
f 10 15 21
f 10 21 16
f 11 17 12
f 12 17 18
f 15 19 20
f 15 20 21
f 16 21 22
f 16 22 23
f 17 24 18
f 18 24 30
f 18 30 25
f 20 22 21
f 22 26 27
f 22 27 28
f 22 28 29
f 22 29 23
f 25 30 34
f 25 34 36
f 25 36 31
f 26 32 27
f 27 32 38
f 27 38 42
f 27 42 44
f 27 44 39
f 27 39 33
f 27 33 28
f 30 35 34
f 31 36 37
f 34 35 36
f 35 40 41
f 35 41 37
f 35 37 36
f 38 43 42
f 39 44 45
f 40 46 41
f 41 46 47
f 42 43 44
f 43 48 45
f 43 45 44
f 45 48 49
f 45 49 50
f 46 51 47
f 47 51 52
f 47 52 53
f 49 54 55
f 49 55 50
f 51 56 57
f 51 57 53
f 51 53 52
f 54 58 55
f 55 58 59
f 56 60 61
f 56 61 57
f 58 62 63
f 58 63 59
f 60 64 61
f 61 64 65
f 62 66 63
f 63 66 67
f 64 68 69
f 64 69 65
f 66 70 67
f 67 70 71
f 67 71 68
f 68 71 69

