# https://github.com/mikedh/trimesh
v 19.70320072 -11.15842735 -0.52644911
v 19.70320072 -11.15842735 2.54360394
v 19.70320072 -10.89914165 -0.52644911
v 33.56218574 -11.15842735 -0.52644911
v 19.70320072 -11.10998662 2.44279959
v 19.73859620 -11.15842735 4.59762477
v 19.70320072 -10.71379178 0.88481729
v 20.32423214 -9.85613483 0.88481729
v 20.52534367 -9.85613483 0.39077480
v 21.03214408 -9.85613483 0.18417417
v 21.65156732 -9.85613483 0.16021992
v 20.38858810 -10.86752747 -0.52644911
v 33.53966118 -11.14848407 -0.52644911
v 35.26921943 -9.85613483 0.23807079
v 35.26921943 -9.87257905 0.23807079
v 35.71488299 -10.49160152 0.44566759
v 35.66983386 -11.11049670 0.49058021
v 35.66178884 -11.15842735 0.49956421
v 19.70320072 -10.79677848 1.69524783
v 19.78686260 -11.15842735 4.98088274
v 20.03141463 -10.63144245 5.21742481
v 19.75951121 -11.11049670 4.59762477
v 19.70320072 -10.72296994 1.14531269
v 20.32101441 -9.85613483 4.59762477
v 20.32101441 -9.85613483 1.50361838
v 21.03375318 -10.85643722 -0.52644911
v 34.64979572 -9.85613483 0.16021992
v 33.41095017 -11.09277728 -0.52644911
v 35.70522749 -9.85613483 0.43967949
v 35.71649162 -9.87257905 0.44566759
v 35.99000183 -9.85613483 0.87383910
v 35.99643821 -9.87257905 0.88481729
v 35.97230501 -10.49160152 0.88481729
v 35.85002853 -11.11049670 0.88481729
v 35.83072308 -11.15842735 0.88481729
v 19.70320072 -10.76822384 1.50361838
v 19.81743126 -11.15842735 5.21742481
v 20.32262350 -9.85613483 4.61658802
v 20.07646284 -10.72845166 5.54978021
v 20.42076586 -9.85613483 5.23039903
v 20.41754813 -9.85613483 5.21742481
v 31.56877094 -10.85643722 -0.52644911
v 32.95563296 -10.97422492 -0.52644911
v 32.76739327 -10.93101041 -0.52644911
v 32.22841602 -10.86905725 -0.52644911
v 32.17371324 -10.86421336 -0.52644911
v 35.71649162 -9.85613483 0.44566759
v 35.99643821 -9.85613483 0.88481729
v 36.13480287 -9.85613483 1.48764918
v 36.13802014 -9.87257905 1.50361838
v 36.09457964 -10.49160152 1.50361838
v 35.83876625 -11.15842735 0.93072792
v 35.95138908 -11.11049670 1.50361838
v 35.93369041 -11.15842735 1.50361838
v 19.97349366 -11.15842735 5.56075932
v 21.26382473 -9.85613483 7.54591420
v 21.25738881 -9.85613483 7.53194103
v 36.13802014 -9.85613483 1.50361838
v 36.13962877 -9.85613483 2.10645120
v 36.09779691 -10.49160152 3.36102060
v 36.09618827 -10.49160152 2.12341749
v 35.96265136 -11.11049670 2.12341749
v 35.93690768 -11.15842735 1.55152597
v 19.98636550 -11.15842735 5.58670869
v 19.99762778 -11.15842735 5.60866691
v 21.47780718 -9.85613483 7.84234006
v 36.13962877 -9.85613483 5.83622590
v 36.09779691 -10.49160152 4.59762477
v 35.96265136 -11.11049670 2.74221951
v 35.94656317 -11.15842735 2.12341749
v 21.60812729 -11.15842735 7.73355065
v 21.78832242 -9.85613483 8.15872627
v 36.10745240 -9.87257905 9.66880144
v 36.10745240 -9.85613483 9.66880144
v 35.95782361 -11.11049670 4.59762477
v 35.95943225 -11.11049670 3.97982170
v 35.94656317 -11.15842735 2.79012618
v 21.90899027 -11.15842735 8.00602226
v 21.80119426 -9.85613483 8.17170141
v 35.82589533 -10.44724002 9.66880144
v 35.88703265 -11.15842735 5.21942084
v 35.94173543 -11.15842735 4.59762477
v 28.64863353 -9.85613483 9.66880144
v 35.94334406 -11.15842735 4.02772929
v 22.24685690 -9.85613483 8.44018187
v 22.52036895 -11.15842735 8.09185635
v 29.96309780 -10.81462518 9.66880144
v 22.89041380 -9.85613483 8.59587993
v 35.40597545 -10.75662351 9.66880144
v 35.87577221 -11.15842735 5.25235725
v 28.65506899 -9.86238120 9.66880144
v 30.31705262 -11.15842735 8.83940811
v 30.43611182 -10.84674898 9.66880144
v 30.32509763 -10.84126772 9.66880144
v 30.03067149 -10.82023419 9.66880144
v 29.65419026 -10.61436086 9.66880144
v 29.27288313 -10.36348821 9.66880144
v 35.09545928 -10.82571544 9.66880144
v 35.69235842 -11.15842735 5.75538282
v 30.93647632 -11.15842735 8.89030976
v 30.93647632 -10.85363271 9.66880144
v 34.64979572 -10.85044588 9.66880144
v 31.94364169 -11.15842735 8.80547415
v 32.43918028 -11.15842735 8.57591866
v 31.67334875 -10.85337768 9.66880144
v 31.05553368 -10.85363271 9.66880144
v 31.44327719 -11.15842735 8.87234453
v 31.55428954 -11.15842735 8.86635596
f 1 2 5
f 1 5 19
f 1 19 36
f 1 36 23
f 1 23 7
f 1 7 3
f 1 3 12
f 1 12 26
f 1 26 42
f 1 42 46
f 1 46 45
f 1 45 44
f 1 44 43
f 1 43 28
f 1 28 13
f 1 13 4
f 1 4 18
f 1 18 35
f 1 35 52
f 1 52 54
f 1 54 63
f 1 63 70
f 1 70 77
f 1 77 84
f 1 84 82
f 1 82 81
f 1 81 90
f 1 90 99
f 1 99 104
f 1 104 103
f 1 103 108
f 1 108 107
f 1 107 100
f 1 100 92
f 1 92 86
f 1 86 78
f 1 78 71
f 1 71 65
f 1 65 64
f 1 64 55
f 1 55 37
f 1 37 20
f 1 20 6
f 1 6 2
f 2 6 5
f 3 7 8
f 3 8 9
f 3 9 10
f 3 10 11
f 3 11 12
f 4 13 14
f 4 14 15
f 4 15 16
f 4 16 17
f 4 17 18
f 5 6 19
f 6 20 21
f 6 21 22
f 6 22 19
f 7 23 24
f 7 24 25
f 7 25 8
f 8 25 24
f 8 24 38
f 8 38 41
f 8 41 40
f 8 40 57
f 8 57 56
f 8 56 66
f 8 66 72
f 8 72 79
f 8 79 85
f 8 85 88
f 8 88 83
f 8 83 74
f 8 74 67
f 8 67 59
f 8 59 58
f 8 58 49
f 8 49 48
f 8 48 31
f 8 31 47
f 8 47 29
f 8 29 14
f 8 14 27
f 8 27 11
f 8 11 10
f 8 10 9
f 11 26 12
f 11 27 42
f 11 42 26
f 13 28 14
f 14 28 27
f 14 29 15
f 15 29 16
f 16 29 30
f 16 30 31
f 16 31 32
f 16 32 33
f 16 33 17
f 17 33 34
f 17 34 18
f 18 34 35
f 19 22 24
f 19 24 36
f 20 37 21
f 21 38 22
f 21 37 39
f 21 39 40
f 21 40 41
f 21 41 38
f 22 38 24
f 23 36 24
f 27 28 43
f 27 43 44
f 27 44 45
f 27 45 46
f 27 46 42
f 29 47 30
f 30 47 31
f 31 48 32
f 32 48 49
f 32 49 50
f 32 50 33
f 33 50 51
f 33 51 34
f 34 52 35
f 34 51 53
f 34 53 54
f 34 54 52
f 37 55 39
f 39 55 56
f 39 56 57
f 39 57 40
f 49 58 50
f 50 58 59
f 50 59 60
f 50 60 61
f 50 61 51
f 51 61 62
f 51 62 53
f 53 62 63
f 53 63 54
f 55 64 56
f 56 65 66
f 56 64 65
f 59 67 68
f 59 68 60
f 60 68 69
f 60 69 62
f 60 62 61
f 62 69 77
f 62 77 70
f 62 70 63
f 65 71 66
f 66 71 72
f 67 73 68
f 67 74 73
f 68 73 75
f 68 75 76
f 68 76 69
f 69 76 84
f 69 84 77
f 71 78 79
f 71 79 72
f 73 80 81
f 73 81 82
f 73 82 75
f 73 74 83
f 73 83 91
f 73 91 97
f 73 97 96
f 73 96 87
f 73 87 95
f 73 95 94
f 73 94 93
f 73 93 101
f 73 101 106
f 73 106 105
f 73 105 102
f 73 102 98
f 73 98 89
f 73 89 80
f 75 82 84
f 75 84 76
f 78 85 79
f 78 86 87
f 78 87 88
f 78 88 85
f 80 89 81
f 81 89 90
f 83 88 91
f 86 92 93
f 86 93 94
f 86 94 95
f 86 95 87
f 87 96 88
f 88 96 97
f 88 97 91
f 89 98 99
f 89 99 90
f 92 100 93
f 93 100 101
f 98 102 103
f 98 103 104
f 98 104 99
f 100 105 106
f 100 106 101
f 100 107 102
f 100 102 105
f 102 107 108
f 102 108 103

