# https://github.com/mikedh/trimesh
v 19.70320072 -18.57177741 1.37880997
v 17.53953175 -17.75491141 -3.18967181
v 19.70320072 -18.56793200 0.88560869
v 19.70320072 -18.57177741 2.61644536
v 17.53953175 -17.59030867 0.88560869
v 17.53953175 -10.84616788 -3.18967181
v 19.70320072 -17.75491141 -3.18967181
v 19.70320072 -18.55254851 0.79414623
v 19.70320072 -18.57100814 3.23352621
v 19.70320072 -18.56793200 3.85060706
v 19.70320072 -18.56254713 4.59735544
v 17.53953175 -17.53185088 1.10558109
v 19.39927912 -18.30794944 5.21675239
v 19.08985044 -18.01873937 5.21675239
v 18.77216230 -17.70876095 5.21675239
v 19.70320072 -10.84616788 -3.18967181
v 17.53953175 -10.91000962 0.88560869
v 19.70320072 -10.71463899 0.88560869
v 19.70320072 -18.47255402 5.21675239
v 17.53953175 -17.37263116 1.50384713
v 19.45265045 -18.25795358 5.54555293
v 18.82744018 -17.65107335 5.55249939
v 17.53953175 -11.05076878 1.28271715
v 19.70320072 -12.24991502 7.72212326
v 19.70320072 -11.40689765 5.21675239
v 19.70320072 -11.23614079 4.59735544
v 19.70320072 -10.79694036 1.69603370
v 19.70320072 -10.76848119 1.50384713
v 19.70320072 -10.72309954 1.14494466
v 19.70320072 -18.30794944 5.56291954
v 17.53953175 -17.26494677 1.66593269
v 18.23865754 -16.39885325 5.53397520
v 19.70320072 -15.96888402 8.28479004
v 19.43020059 -15.83658586 8.12617818
v 17.53953175 -11.12922474 1.50384713
v 19.44841487 -12.60604390 8.09028738
v 19.70320072 -12.47912968 8.23732243
v 17.53953175 -17.07265229 1.87432735
v 19.36369778 -15.39123222 8.32415361
v 19.22666827 -14.82434924 8.31141828
v 18.21917269 -16.06195419 5.55134180
v 18.13466775 -16.06195419 5.21675239
v 17.53953175 -16.92881606 1.95189689
v 19.70320072 -15.68659643 8.49086952
v 19.65808887 -15.56275836 8.53949473
v 19.47997186 -15.14971114 8.62401073
v 17.53953175 -11.29305959 1.71224179
v 19.38233543 -13.02678378 8.30331331
v 19.48293685 -13.27215119 8.62285314
v 19.66486653 -12.85910305 8.50360485
v 17.53953175 -11.38382243 1.82685973
v 19.70320072 -12.76449434 8.46424128
v 19.19341686 -14.20593093 8.31141828
v 18.94561990 -14.20593093 7.69317984
v 18.22425593 -15.44276754 5.54671052
v 18.14546930 -15.44276754 5.21675239
v 17.53953175 -11.60611461 1.83612137
v 17.53953175 -16.06195419 2.00746856
v 17.53953175 -16.41962160 1.99357564
v 17.53953175 -16.68960277 1.97157868
v 19.70320072 -15.51891570 8.56264974
v 19.70320072 -15.30046985 8.62864155
v 19.47022920 -14.82434924 8.62864155
v 19.24043482 -13.58674428 8.31141828
v 19.02017095 -13.58674428 7.69317984
v 19.47298251 -13.58674428 8.62748396
v 19.70320072 -13.23599935 8.62864155
v 19.70320072 -13.12062322 8.62632637
v 19.70320072 -12.83756636 8.51518212
v 18.24543521 -15.12278958 5.52818725
v 19.46366368 -14.20593093 8.63095719
v 19.70320072 -14.82434924 8.63443042
v 19.70320072 -14.20593093 8.63790365
v 19.70320072 -13.58674428 8.63327283
f 1 2 3
f 1 3 8
f 1 8 7
f 1 7 16
f 1 16 18
f 1 18 29
f 1 29 28
f 1 28 27
f 1 27 26
f 1 26 25
f 1 25 24
f 1 24 37
f 1 37 52
f 1 52 69
f 1 69 68
f 1 68 67
f 1 67 74
f 1 74 73
f 1 73 72
f 1 72 62
f 1 62 61
f 1 61 44
f 1 44 33
f 1 33 30
f 1 30 19
f 1 19 11
f 1 11 10
f 1 10 9
f 1 9 4
f 1 4 2
f 2 5 12
f 2 12 20
f 2 20 31
f 2 31 38
f 2 38 43
f 2 43 60
f 2 60 59
f 2 59 58
f 2 58 57
f 2 57 51
f 2 51 47
f 2 47 35
f 2 35 23
f 2 23 17
f 2 17 6
f 2 6 16
f 2 16 7
f 2 7 8
f 2 8 3
f 2 4 9
f 2 9 10
f 2 10 11
f 2 11 5
f 5 11 13
f 5 13 14
f 5 14 15
f 5 15 12
f 6 17 18
f 6 18 16
f 11 19 13
f 12 15 20
f 13 19 21
f 13 21 14
f 14 21 22
f 14 22 15
f 15 22 20
f 17 23 24
f 17 24 25
f 17 25 26
f 17 26 27
f 17 27 28
f 17 28 29
f 17 29 18
f 19 30 21
f 20 22 32
f 20 32 31
f 21 30 33
f 21 33 22
f 22 33 34
f 22 34 32
f 23 35 24
f 24 35 36
f 24 36 37
f 31 32 38
f 32 34 39
f 32 39 40
f 32 40 41
f 32 41 42
f 32 42 43
f 32 43 38
f 33 44 45
f 33 45 34
f 34 45 46
f 34 46 39
f 35 47 36
f 36 48 49
f 36 49 50
f 36 50 37
f 36 47 51
f 36 51 48
f 37 50 52
f 39 46 40
f 40 46 53
f 40 53 54
f 40 54 41
f 41 55 42
f 41 54 55
f 42 55 56
f 42 56 51
f 42 51 57
f 42 57 58
f 42 58 59
f 42 59 60
f 42 60 43
f 44 61 45
f 45 61 62
f 45 62 46
f 46 62 63
f 46 63 53
f 48 64 49
f 48 51 65
f 48 65 64
f 49 66 67
f 49 67 68
f 49 68 69
f 49 69 50
f 49 64 53
f 49 53 66
f 50 69 52
f 51 56 55
f 51 55 70
f 51 70 54
f 51 54 65
f 53 63 71
f 53 71 66
f 53 64 54
f 54 64 65
f 54 70 55
f 62 72 63
f 63 72 73
f 63 73 71
f 66 71 73
f 66 73 74
f 66 74 67

