# https://github.com/mikedh/trimesh
v 24.45797597 -11.15842735 5.95940354
v 23.47507109 -11.15842735 7.72796010
v 27.74193399 -14.20049073 5.95940354
v 20.94344000 -11.15842735 5.95940354
v 23.43572320 -11.15842735 7.75525338
v 23.25393649 -11.35800865 8.07516308
v 23.92992987 -11.94311605 8.17252694
v 27.74193399 -14.20606929 5.96124093
v 27.74193399 -14.21784534 5.95940354
v 24.50834078 -12.55735505 8.15074490
v 24.27146851 -12.82387637 8.56329402
v 24.44931941 -13.23667454 8.62785338
v 20.41382032 -11.40325517 5.95940354
v 20.76716268 -11.43672564 7.69331820
v 21.07643547 -11.32825722 7.69331820
v 21.59110334 -11.15842735 7.69331820
v 22.88957720 -11.15842735 8.03028644
v 22.88957720 -11.29540705 8.17751334
v 23.25472328 -12.01997352 8.62811579
v 23.66787472 -12.18980340 8.58533895
v 24.10069873 -12.37326930 8.36804146
v 24.46112406 -13.58687157 8.63100239
v 24.46663252 -14.20606929 8.63100239
v 24.46269764 -14.82402733 8.63100239
v 24.45089392 -15.18909962 8.62811579
v 24.28563353 -15.60189779 8.58533895
v 24.52565389 -15.88205560 8.17252694
v 23.95826083 -16.49567383 8.19667121
v 23.60964014 -16.86818421 7.69331820
v 23.46720132 -17.23945490 5.95940354
v 23.85910386 -12.60260157 8.62811579
v 24.08968180 -13.00548321 8.63283977
v 24.12745518 -13.58687157 8.64018793
v 19.85901777 -11.82225174 5.95940354
v 19.99043920 -11.93691765 7.69331820
v 20.02821304 -11.97162780 8.13631054
v 20.41382032 -11.64374410 7.69331820
v 21.16378734 -11.35986817 8.14418399
v 21.60762966 -11.15842735 7.73425904
v 22.51970853 -11.15842735 8.09222161
v 22.27103161 -11.27495277 8.25860546
v 22.27103161 -11.64560363 8.56828042
v 22.88957720 -11.68217330 8.48692542
v 22.88957720 -11.99208162 8.63100239
v 22.88957720 -12.34909644 8.64045035
v 23.48057955 -12.37760772 8.63283977
v 24.12745518 -14.20606929 8.64045035
v 24.12745518 -14.82402733 8.64045035
v 24.09833835 -15.41471238 8.63283977
v 23.87326980 -15.85292401 8.62811579
v 23.71273108 -16.26572219 8.60922034
v 24.12194672 -16.07357897 8.39087364
v 23.49002290 -16.65310781 8.35072098
v 23.26731472 -17.02561819 8.09248357
v 22.88957720 -17.18924966 7.69331820
v 22.88957720 -17.39502936 5.95940354
v 23.50890959 -12.96767386 8.64045035
v 19.70320118 -12.05716258 5.95940354
v 19.70320118 -12.24496737 7.69331820
v 19.70320118 -12.24992563 7.72271174
v 19.70320118 -12.47925790 8.23761113
v 19.84721359 -12.40797899 8.32001580
v 20.27531638 -12.20963737 8.54912255
v 20.45395500 -11.87121731 8.33051343
v 20.68768011 -12.02245289 8.62811579
v 21.65169922 -11.30780340 8.24417203
v 21.90903270 -11.15842735 8.00588021
v 21.65169922 -11.64932267 8.55384653
v 21.03315317 -11.99828002 8.63100239
v 21.65169922 -11.95861161 8.63100239
v 22.27103161 -11.95489256 8.63100239
v 21.03315317 -12.34909644 8.64045035
v 23.50890959 -15.44322412 8.64045035
v 23.50733600 -16.06056232 8.63283977
v 23.29957963 -16.39836254 8.62811579
v 22.27103161 -16.87376277 8.60817067
v 22.88957720 -16.76901340 8.52261652
v 22.88957720 -17.09007885 8.21320398
v 22.27103161 -17.30887428 7.69331820
v 22.27103161 -17.49048113 5.95940354
v 19.70320118 -16.55207748 5.95940354
v 19.70320118 -12.76437397 8.46514291
v 19.70320118 -12.83751240 8.51526837
v 20.07779107 -12.62243601 8.62811579
v 20.45395500 -12.38938470 8.63283977
v 20.41382032 -12.96767386 8.64045035
v 22.88957720 -16.06242184 8.64045035
v 22.88957720 -16.45972492 8.63100239
v 22.27103161 -17.14958170 8.29875859
v 22.27103161 -16.56447429 8.63100239
v 21.65169922 -16.55021796 8.63100239
v 21.65169922 -16.86012720 8.60213460
v 21.65169922 -17.14338329 8.29272253
v 22.23483181 -17.48986129 5.95940354
v 21.65169922 -17.29585855 7.69331820
v 19.78425734 -16.65372765 5.95940354
v 19.70320118 -16.26324282 7.69331820
v 19.70320118 -13.12076895 8.62732854
v 19.84091787 -13.02655687 8.62995272
v 19.79527473 -13.58687157 8.63651362
v 19.79527473 -14.20606929 8.64045035
v 21.03315317 -16.06242184 8.64045035
v 21.03315317 -16.44299015 8.63100239
v 20.66721983 -16.39402458 8.62811579
v 21.03315317 -16.75227862 8.49217377
v 21.03315317 -17.07334407 8.18276169
v 21.65169922 -17.47622479 5.95940354
v 21.03315317 -17.15578011 7.69331820
v 21.06935297 -17.38201271 5.95940354
v 21.63045123 -17.47374543 5.95940354
v 19.78740496 -16.65744670 5.95940354
v 19.70320118 -15.96882960 8.28484907
v 19.79999640 -16.67108227 5.95940354
v 19.94243522 -16.51860793 7.69331820
v 19.99594813 -16.46964237 8.17305178
v 19.70320118 -13.58687157 8.63388944
v 19.79527473 -14.82402733 8.63782617
v 20.41382032 -15.44322412 8.64045035
v 19.70320118 -14.20606929 8.63782617
v 20.44215082 -16.03391010 8.63283977
v 20.07149581 -15.80891625 8.62811579
v 20.25485564 -16.22171535 8.58560091
v 20.47048132 -16.63823256 8.32290286
v 20.68531973 -17.01136278 8.05994193
v 21.03315317 -17.37333586 5.95940354
v 20.52871590 -17.24007474 5.95940354
v 19.70320118 -15.68681319 8.49086168
v 19.82753964 -16.02895229 8.35623221
v 20.16042127 -16.98408979 5.95940354
v 20.44293761 -17.19792742 5.95940354
v 19.70320118 -14.82402733 8.63520153
v 19.70320118 -15.30066632 8.62864063
v 19.83698345 -15.39116028 8.63100239
v 19.70320118 -15.51946175 8.56276919
v 20.48228550 -17.22210029 5.95940354
f 1 2 3
f 1 3 9
f 1 9 30
f 1 30 56
f 1 56 80
f 1 80 94
f 1 94 107
f 1 107 110
f 1 110 109
f 1 109 125
f 1 125 126
f 1 126 135
f 1 135 130
f 1 130 129
f 1 129 113
f 1 113 111
f 1 111 96
f 1 96 81
f 1 81 58
f 1 58 34
f 1 34 13
f 1 13 4
f 1 4 16
f 1 16 39
f 1 39 67
f 1 67 40
f 1 40 17
f 1 17 5
f 1 5 2
f 2 5 6
f 2 6 7
f 2 7 3
f 3 8 9
f 3 7 10
f 3 10 11
f 3 11 12
f 3 12 8
f 4 13 14
f 4 14 15
f 4 15 16
f 5 17 6
f 6 17 18
f 6 18 19
f 6 19 20
f 6 20 7
f 7 20 21
f 7 21 10
f 8 12 22
f 8 22 23
f 8 23 24
f 8 24 25
f 8 25 9
f 9 25 26
f 9 26 27
f 9 27 28
f 9 28 29
f 9 29 30
f 10 21 11
f 11 21 20
f 11 20 12
f 12 20 31
f 12 31 32
f 12 32 33
f 12 33 22
f 13 34 35
f 13 35 36
f 13 36 37
f 13 37 14
f 14 38 15
f 14 37 36
f 14 36 38
f 15 38 39
f 15 39 16
f 17 40 18
f 18 40 41
f 18 41 42
f 18 42 43
f 18 43 19
f 19 43 42
f 19 42 44
f 19 44 45
f 19 45 46
f 19 46 31
f 19 31 20
f 22 33 47
f 22 47 23
f 23 47 48
f 23 48 24
f 24 48 25
f 25 48 49
f 25 49 50
f 25 50 51
f 25 51 26
f 26 52 27
f 26 51 52
f 27 52 28
f 28 51 53
f 28 53 54
f 28 54 29
f 28 52 51
f 29 54 30
f 30 54 55
f 30 55 56
f 31 46 32
f 32 46 57
f 32 57 33
f 33 57 47
f 34 58 59
f 34 59 35
f 35 59 60
f 35 60 36
f 36 60 61
f 36 61 62
f 36 62 63
f 36 63 64
f 36 64 38
f 38 64 65
f 38 65 66
f 38 66 67
f 38 67 39
f 40 67 66
f 40 66 41
f 41 66 68
f 41 68 42
f 42 68 69
f 42 69 70
f 42 70 71
f 42 71 44
f 44 71 45
f 45 57 46
f 45 71 72
f 45 72 86
f 45 86 101
f 45 101 118
f 45 118 102
f 45 102 87
f 45 87 73
f 45 73 48
f 45 48 47
f 45 47 57
f 48 73 74
f 48 74 49
f 49 74 50
f 50 74 75
f 50 75 51
f 51 75 76
f 51 76 77
f 51 77 53
f 53 77 78
f 53 78 54
f 54 78 55
f 55 78 79
f 55 79 56
f 56 79 80
f 58 81 97
f 58 97 112
f 58 112 127
f 58 127 134
f 58 134 132
f 58 132 131
f 58 131 119
f 58 119 116
f 58 116 98
f 58 98 83
f 58 83 82
f 58 82 61
f 58 61 60
f 58 60 59
f 61 82 62
f 62 82 63
f 63 82 83
f 63 83 84
f 63 84 65
f 63 65 64
f 65 72 69
f 65 69 68
f 65 68 66
f 65 84 85
f 65 85 72
f 69 72 70
f 70 72 71
f 72 85 86
f 73 87 74
f 74 87 75
f 75 87 88
f 75 88 76
f 76 89 78
f 76 78 77
f 76 88 90
f 76 90 91
f 76 91 92
f 76 92 93
f 76 93 89
f 78 89 79
f 79 94 80
f 79 89 93
f 79 93 95
f 79 95 94
f 81 96 97
f 83 98 84
f 84 99 85
f 84 98 99
f 85 99 86
f 86 99 100
f 86 100 101
f 87 102 90
f 87 90 88
f 90 102 91
f 91 102 103
f 91 103 92
f 92 103 104
f 92 104 105
f 92 105 106
f 92 106 93
f 93 106 95
f 94 95 107
f 95 106 108
f 95 108 109
f 95 109 110
f 95 110 107
f 96 111 97
f 97 111 113
f 97 113 114
f 97 114 115
f 97 115 112
f 98 116 99
f 99 116 100
f 100 116 119
f 100 119 101
f 101 117 118
f 101 119 131
f 101 131 117
f 102 118 120
f 102 120 104
f 102 104 103
f 104 120 121
f 104 121 122
f 104 122 105
f 105 122 123
f 105 123 106
f 106 123 124
f 106 124 108
f 108 125 109
f 108 124 126
f 108 126 125
f 112 115 128
f 112 128 127
f 113 129 114
f 114 129 130
f 114 130 124
f 114 124 115
f 115 122 128
f 115 124 123
f 115 123 122
f 117 131 132
f 117 132 133
f 117 133 118
f 118 133 120
f 120 133 121
f 121 133 132
f 121 132 122
f 122 132 134
f 122 134 127
f 122 127 128
f 124 130 135
f 124 135 126

