# https://github.com/mikedh/trimesh
v 20.32075383 -9.85613483 1.50363591
v 20.32075383 -9.85613483 2.75853644
v 20.72646673 -8.94897041 1.50363591
v 21.45117479 -7.32903448 0.88456455
v 20.58864812 -9.25878373 0.88456455
v 20.32385119 -9.85613483 0.88456455
v 20.32230251 -9.85613483 4.59899543
v 20.72646673 -8.94897041 4.59899543
v 21.45117479 -7.32903448 7.07435292
v 24.38407381 -0.77639354 0.88456455
v 26.28720680 3.45366402 0.56059821
v 23.80492683 -2.10271618 0.55128954
v 21.32264733 -7.66112147 0.54197901
v 20.63355520 -9.36002989 0.46378132
v 20.52515873 -9.85613483 0.39023797
v 20.32385119 -9.85613483 4.61761463
v 21.15385836 -8.01548306 7.07435292
v 21.31335618 -7.63884780 7.07435292
v 24.38407381 -0.77639354 7.07435292
v 28.34673979 8.07655711 8.31249655
v 28.34673979 8.07655711 1.50363591
v 28.04168135 7.39415871 0.88456455
v 28.34983714 8.07655711 0.88456455
v 26.88338740 4.73948834 0.52708439
v 21.92037615 -6.37529762 0.51126001
v 24.40265611 -0.81689210 0.51870732
v 22.51810543 -5.08744822 0.48705486
v 21.83056198 -6.77623166 0.42747453
v 21.65248232 -8.01548306 0.24966697
v 21.03152516 -9.85613483 0.18450070
v 22.41745143 -5.53900534 0.40513259
v 20.41676272 -9.85613483 5.21713702
v 20.96493888 -8.63308322 7.07435292
v 21.32264733 -7.66112147 7.42438393
v 28.63631327 8.64555973 8.93063768
v 28.62702212 8.64960898 8.31249655
v 28.62702212 8.64960898 0.88456455
v 28.67502656 8.56253798 0.46098835
v 28.07884596 7.31113696 0.47774619
v 27.48111668 6.02531265 0.49915651
v 25.59656600 1.75475652 0.47309185
v 26.79976703 4.36285399 0.44236915
v 27.38665648 5.60210447 0.41630264
v 24.90128007 0.03154980 0.40978693
v 22.27189035 -6.77623166 0.21987589
v 21.65248232 -8.63308322 0.17146744
v 21.65248232 -9.25270892 0.16029740
v 21.65248232 -9.85613483 0.15936579
v 22.88975153 -5.53900534 0.19753395
v 23.50915955 -4.29975439 0.18357093
v 27.22251309 4.36285399 0.23477051
v 20.42140783 -9.85613483 5.23110096
v 21.17398935 -9.27295797 7.74462569
v 20.95874462 -9.25270892 7.07435292
v 21.17553757 -8.62295915 7.74090204
v 21.24831811 -8.01548306 7.55099099
v 28.83762127 8.80957767 9.66886924
v 28.81749029 8.85210132 9.54970949
v 28.80200534 8.95537212 8.93063768
v 28.80200534 8.95942230 8.31249655
v 28.80200534 8.95942230 0.88456455
v 29.20307174 9.19026312 0.43957618
v 29.02963812 8.73870554 0.34275929
v 28.56043630 8.07655711 0.38651339
v 27.97509460 6.83933125 0.39861504
v 27.84192203 5.60210447 0.20870584
v 25.36583586 0.03154980 0.20218829
v 22.27189035 -7.39585736 0.16402013
v 24.12856757 -3.06252831 0.17332881
v 27.22251309 3.74525292 0.16774471
v 22.88975153 -6.15660595 0.16029740
v 32.17313583 -9.85613483 0.15936579
v 25.36583586 -0.58605128 0.16029740
v 28.45978230 6.21970463 0.16029740
v 29.07919032 7.45895603 0.16029740
v 31.55527649 9.93543330 0.16029740
v 28.45978230 6.83933125 0.19008664
v 29.07919032 8.07655711 0.17798499
v 21.25760926 -9.85613483 7.53237271
v 21.26380352 -9.85613483 7.54633665
v 21.35671458 -9.49164918 7.98573816
v 21.31800175 -9.08059062 8.02856158
v 21.31800175 -8.82342594 8.02856158
v 21.36290884 -8.41034183 7.97922153
v 28.72303100 8.49774065 9.66886924
v 28.88872215 8.93309844 9.66886924
v 29.13803459 9.28138430 9.66886924
v 29.12719476 9.28340893 9.54970949
v 29.11170981 9.28340893 8.93063768
v 29.11170981 9.28340893 0.88456455
v 29.82248068 9.80988882 0.43957618
v 29.64904706 9.36440605 0.32972788
v 29.69704966 8.69618281 0.16215876
v 27.84192203 4.98247877 0.16215876
v 34.64922200 -9.85613483 0.16029740
v 34.64922200 9.93543330 0.16029740
v 30.93586755 9.93543330 0.16215876
v 31.55527649 10.53076069 0.36789604
v 21.47749957 -9.85613483 7.84237419
v 22.00864256 -9.46330069 8.59457015
v 21.93276466 -9.05021658 8.64670225
v 21.80113984 -9.85613483 8.17192555
v 21.93276466 -8.85177442 8.64670225
v 28.64095931 8.20412713 9.66886924
v 29.42141428 9.59119761 9.66886924
v 29.42141428 9.59322224 9.54970949
v 29.42141428 9.59322224 0.88456455
v 30.03927363 10.21082239 0.88456455
v 30.44188962 10.41938862 0.43957618
v 30.26845416 9.98403175 0.32972788
v 35.26863095 -9.85613483 0.23756348
v 34.64922200 10.53076069 0.36789604
v 35.26863095 10.48216224 0.40699396
v 35.26863095 9.93543330 0.23756348
v 30.93586755 10.51861108 0.36975741
v 31.55527649 10.82234774 0.88456455
v 22.23162930 -9.85613483 8.43165629
v 22.24556557 -9.85613483 8.44003429
v 22.42209747 -9.65364341 8.68766338
v 22.23782309 -9.25473355 8.72024606
v 22.24246913 -8.64118265 8.72397018
v 28.54804778 7.65942282 9.66886924
v 29.48025671 9.65194476 9.66886924
v 29.98042935 10.15209987 9.66886924
v 30.03927363 10.21082239 9.66886924
v 30.34897810 10.50646147 0.88456455
v 30.93586755 10.79602481 0.88456455
v 35.71770178 -9.85613483 0.44516212
v 34.64922200 10.82234774 0.88456455
v 35.66505223 10.36876645 0.48891623
v 35.26863095 10.73932599 0.88456455
v 35.71150707 9.93543330 0.44516212
v 35.71770178 9.31580851 0.44516212
v 31.55527649 10.83044810 1.50363591
v 22.88975153 -9.85613483 8.59643151
v 22.88975153 -9.25270892 8.83288918
v 28.64870178 -9.85613483 9.66886924
v 22.88975153 -8.63308322 8.84033695
v 28.40558406 6.30070267 9.66886924
v 28.46907345 7.05599691 9.66886924
v 30.34897810 10.50646147 9.66886924
v 30.93586755 10.79804851 1.50363591
v 35.99798412 -9.25270892 0.88456455
v 35.99023980 -9.85613483 0.87339267
v 35.26863095 10.75755226 1.50363591
v 34.64922200 10.83044810 1.50363591
v 35.75176904 10.44976450 0.88456455
v 35.96236727 9.93543330 0.88456455
v 35.79667612 10.46596152 1.50363591
v 35.99798412 9.31580851 0.88456455
v 31.43604018 10.82437329 9.66886924
v 31.55527649 10.83044810 9.66886924
v 28.57901768 -9.77513863 9.66886924
v 28.32815748 -9.27498260 9.66886924
v 28.32196369 -9.25270892 9.66886924
v 36.10792835 -9.85613483 9.66886924
v 28.31112385 -8.67358131 9.66886924
v 28.31112385 -8.63308322 9.66886924
v 28.31731765 -6.81065541 9.66886924
v 28.32196369 -5.53900534 9.66886924
v 28.35757962 3.74525292 9.66886924
v 28.36687077 4.99665394 9.66886924
v 28.37306456 5.62437907 9.66886924
v 30.93586755 10.79804851 9.66886924
v 36.14044784 -9.25270892 1.50363591
v 36.13580273 -9.85613483 1.48780968
v 35.99643452 -9.85613483 0.88456455
v 35.14939464 10.77172558 9.66886924
v 35.26863095 10.75755226 9.66886924
v 35.69447252 10.52266034 9.66886924
v 34.64922200 10.83044810 9.66886924
v 36.07695846 9.93543330 1.50363591
v 36.14044784 9.31580851 1.50363591
v 35.79667612 10.46596152 9.66886924
v 36.13889824 -9.85613483 5.83620837
v 36.14044784 -9.25270892 9.66886924
v 36.13889824 -9.85613483 1.50363591
v 36.08934604 9.81596363 9.66886924
v 36.07695846 9.93543330 9.66886924
v 36.14044784 9.31580851 9.66886924
f 1 2 8
f 1 8 3
f 1 3 4
f 1 4 5
f 1 5 6
f 1 6 15
f 1 15 30
f 1 30 48
f 1 48 72
f 1 72 95
f 1 95 111
f 1 111 128
f 1 128 144
f 1 144 167
f 1 167 166
f 1 166 177
f 1 177 175
f 1 175 156
f 1 156 137
f 1 137 135
f 1 135 118
f 1 118 117
f 1 117 102
f 1 102 99
f 1 99 80
f 1 80 79
f 1 79 52
f 1 52 32
f 1 32 16
f 1 16 7
f 1 7 2
f 2 7 8
f 3 8 9
f 3 9 4
f 4 9 19
f 4 19 10
f 4 10 11
f 4 11 5
f 5 11 12
f 5 12 13
f 5 13 6
f 6 13 14
f 6 14 15
f 7 16 17
f 7 17 18
f 7 18 9
f 7 9 8
f 9 18 20
f 9 20 19
f 10 19 20
f 10 20 21
f 10 21 22
f 10 22 11
f 11 22 23
f 11 23 24
f 11 24 12
f 12 24 13
f 13 25 14
f 13 24 26
f 13 26 25
f 14 25 27
f 14 27 28
f 14 28 15
f 15 29 30
f 15 28 31
f 15 31 29
f 16 32 33
f 16 33 17
f 17 34 18
f 17 33 34
f 18 34 20
f 20 35 36
f 20 36 37
f 20 37 21
f 20 34 35
f 21 37 23
f 21 23 22
f 23 37 38
f 23 38 39
f 23 39 40
f 23 40 24
f 24 40 26
f 25 26 40
f 25 40 27
f 27 40 39
f 27 39 41
f 27 41 28
f 28 41 42
f 28 42 43
f 28 43 44
f 28 44 31
f 29 45 30
f 29 31 45
f 30 46 47
f 30 47 48
f 30 45 49
f 30 49 50
f 30 50 46
f 31 44 51
f 31 51 45
f 32 52 53
f 32 53 54
f 32 54 33
f 33 54 55
f 33 55 56
f 33 56 34
f 34 56 57
f 34 57 58
f 34 58 35
f 35 58 59
f 35 59 36
f 36 59 60
f 36 60 61
f 36 61 37
f 37 61 38
f 38 61 62
f 38 62 63
f 38 63 64
f 38 64 65
f 38 65 39
f 39 65 43
f 39 43 42
f 39 42 41
f 43 65 44
f 44 65 51
f 45 51 66
f 45 66 67
f 45 67 49
f 46 68 47
f 46 50 69
f 46 69 70
f 46 70 68
f 47 68 71
f 47 71 48
f 48 71 73
f 48 73 74
f 48 74 75
f 48 75 76
f 48 76 96
f 48 96 72
f 49 67 77
f 49 77 50
f 50 77 78
f 50 78 69
f 51 65 64
f 51 64 66
f 52 79 53
f 53 79 80
f 53 80 81
f 53 81 82
f 53 82 83
f 53 83 55
f 53 55 54
f 55 84 56
f 55 83 84
f 56 84 57
f 57 85 104
f 57 104 122
f 57 122 140
f 57 140 139
f 57 139 163
f 57 163 162
f 57 162 161
f 57 161 160
f 57 160 159
f 57 159 158
f 57 158 157
f 57 157 155
f 57 155 154
f 57 154 153
f 57 153 137
f 57 137 156
f 57 156 176
f 57 176 180
f 57 180 178
f 57 178 179
f 57 179 174
f 57 174 170
f 57 170 169
f 57 169 168
f 57 168 171
f 57 171 152
f 57 152 151
f 57 151 164
f 57 164 141
f 57 141 125
f 57 125 124
f 57 124 123
f 57 123 105
f 57 105 87
f 57 87 86
f 57 86 58
f 57 84 85
f 58 86 59
f 59 86 87
f 59 87 88
f 59 88 89
f 59 89 60
f 60 89 90
f 60 90 61
f 61 90 62
f 62 90 107
f 62 107 91
f 62 91 110
f 62 110 92
f 62 92 63
f 63 93 78
f 63 78 64
f 63 92 93
f 64 78 77
f 64 77 66
f 66 77 67
f 68 73 71
f 68 70 73
f 69 78 70
f 70 78 94
f 70 94 73
f 72 96 95
f 73 94 74
f 74 94 78
f 74 78 75
f 75 78 93
f 75 93 97
f 75 97 76
f 76 97 98
f 76 98 112
f 76 112 96
f 80 99 81
f 81 100 101
f 81 101 82
f 81 99 102
f 81 102 100
f 82 101 103
f 82 103 83
f 83 103 84
f 84 103 85
f 85 103 104
f 87 105 88
f 88 105 89
f 89 105 106
f 89 106 107
f 89 107 90
f 91 107 108
f 91 108 109
f 91 109 110
f 92 110 97
f 92 97 93
f 95 96 114
f 95 114 111
f 96 112 113
f 96 113 114
f 97 110 109
f 97 109 115
f 97 115 98
f 98 115 116
f 98 116 129
f 98 129 112
f 100 102 117
f 100 117 118
f 100 118 119
f 100 119 120
f 100 120 101
f 101 121 103
f 101 120 121
f 103 121 104
f 104 121 122
f 105 123 106
f 106 123 124
f 106 124 107
f 107 124 108
f 108 124 125
f 108 125 141
f 108 141 126
f 108 126 109
f 109 126 127
f 109 127 115
f 111 114 133
f 111 133 128
f 112 129 113
f 113 130 114
f 113 129 131
f 113 131 130
f 114 130 132
f 114 132 133
f 115 127 116
f 116 134 146
f 116 146 129
f 116 127 134
f 118 135 119
f 119 136 120
f 119 135 137
f 119 137 136
f 120 136 138
f 120 138 121
f 121 138 139
f 121 139 140
f 121 140 122
f 126 141 164
f 126 164 142
f 126 142 127
f 127 142 134
f 128 143 144
f 128 133 150
f 128 150 143
f 129 145 131
f 129 146 145
f 130 131 147
f 130 147 148
f 130 148 132
f 131 145 149
f 131 149 147
f 132 148 150
f 132 150 133
f 134 142 151
f 134 151 152
f 134 152 171
f 134 171 146
f 136 137 153
f 136 153 154
f 136 154 155
f 136 155 138
f 138 155 157
f 138 157 158
f 138 158 159
f 138 159 160
f 138 160 161
f 138 161 162
f 138 162 163
f 138 163 139
f 142 164 151
f 143 165 166
f 143 166 167
f 143 167 144
f 143 150 173
f 143 173 165
f 145 168 169
f 145 169 170
f 145 170 149
f 145 146 168
f 146 171 168
f 147 149 172
f 147 172 148
f 148 172 173
f 148 173 150
f 149 174 179
f 149 179 172
f 149 170 174
f 156 175 176
f 165 176 175
f 165 175 177
f 165 177 166
f 165 173 180
f 165 180 176
f 172 178 173
f 172 179 178
f 173 178 180

