# https://github.com/mikedh/trimesh
v 33.35080349 -11.15842735 5.95969040
v 32.67900141 -11.15842735 8.10539415
v 33.79401351 -13.11210594 8.16105159
v 33.82957133 -13.03127209 7.69340952
v 34.01244461 -12.93302873 5.95969040
v 28.60437949 -11.15842735 5.95969040
v 32.43961564 -11.15842735 8.57590483
v 33.11713280 -12.63829821 8.62754668
v 33.58891821 -13.58653490 8.58508576
v 33.86513100 -13.58653490 8.27552379
v 34.00800057 -13.58653490 7.69340952
v 34.01498485 -12.94049034 5.95969040
v 27.91289378 -13.02318925 5.95969040
v 28.13005476 -13.22651542 8.06264636
v 29.49651646 -11.15842735 8.33118170
v 31.94433716 -11.15842735 8.80570982
v 33.70384700 -14.02054694 8.62094796
v 33.86703480 -14.21827794 8.37364263
v 34.08356210 -14.20584239 7.69340952
v 34.18071289 -13.58715659 5.95969040
v 27.78907416 -13.58653490 5.95969040
v 28.01956909 -13.58653490 7.69340952
v 28.08560610 -13.58653490 8.16305962
v 28.82916026 -12.71726609 8.61750517
v 28.63803351 -12.48595854 8.20465996
v 29.69780232 -11.15842735 8.52082111
v 31.55509939 -11.15842735 8.86710586
v 33.72226143 -14.43279721 8.62238273
v 33.72226143 -14.51922624 8.62238273
v 33.84481093 -14.76483532 8.35298588
v 34.22897006 -14.18594476 5.95969040
v 34.02768420 -14.82390557 7.69340952
v 27.74272078 -14.20024537 5.95969040
v 27.94400757 -14.20584239 7.69340952
v 28.04750804 -14.20584239 8.23908786
v 28.41071250 -13.58653490 8.47262204
v 28.74724814 -13.13013759 8.62812041
v 30.31753594 -11.15842735 8.84013726
v 31.44461280 -11.15842735 8.87284354
v 33.12030764 -15.78084725 8.62812041
v 33.57240758 -14.93209820 8.58652052
v 33.80353803 -15.33315537 8.17396217
v 34.16991733 -14.82390557 5.95969040
v 33.99148994 -15.43761696 5.95969040
v 33.84417633 -15.43139827 7.69340952
v 27.74272078 -14.21765625 5.95969040
v 27.74272078 -14.20584239 5.96112471
v 27.77383457 -14.77540581 5.95969040
v 28.00052006 -14.82390557 7.69340952
v 28.07544698 -14.82390557 8.18486472
v 28.40563295 -14.82390557 8.49442623
v 28.39102887 -14.20584239 8.54864983
v 28.71994471 -13.58653490 8.63098947
v 28.70089568 -14.20584239 8.63098947
v 28.71486424 -14.82390557 8.63098947
v 28.74915286 -15.44321306 8.62754668
v 28.76756729 -15.75721859 8.62324331
v 30.93663497 -11.15842735 8.89034435
v 32.51136773 -16.38833994 8.62812041
v 32.92410041 -16.19309660 8.51450925
v 33.26444641 -16.01712920 8.30966484
v 33.15142142 -16.41942975 8.10166403
v 33.71654635 -15.74105201 7.69340952
v 33.62638168 -16.06189793 5.95969040
v 27.77827953 -14.82390557 5.95969040
v 28.12116484 -15.20941784 8.08445054
v 28.65644702 -15.90893658 8.31224658
v 28.91996138 -16.21796863 8.31224658
v 29.37968112 -16.37839113 8.62496448
v 31.55509939 -16.52016122 8.63098947
v 32.17419841 -16.42253909 8.63098947
v 29.69907336 -16.40388577 8.62898099
v 30.31753594 -16.49653257 8.63098947
v 30.93663497 -16.57923148 8.63098947
v 30.93663497 -16.88888522 8.61348866
v 31.55509939 -16.82981404 8.58709424
v 32.04974327 -17.06609600 8.16707659
v 32.74821326 -16.52824406 8.30966484
v 33.32413374 -16.57301371 5.95969040
v 33.47970267 -16.06189793 7.69340952
v 32.45295144 -16.97655762 7.69340952
v 32.79329559 -16.73778893 7.69340952
v 32.79329559 -16.98650643 5.95969040
v 27.89321015 -15.37357230 5.95969040
v 27.90209915 -15.40901390 5.95969040
v 27.91352838 -15.43575099 5.95969040
v 28.07735170 -15.77773790 5.95969040
v 28.23800019 -15.55575748 7.69340952
v 28.54723240 -16.05754613 7.69340952
v 28.77455249 -16.36719895 7.69340952
v 29.22982819 -16.50088529 8.31224658
v 29.88194479 -17.04868604 8.13781310
v 30.31753594 -17.11521836 8.25371961
v 30.31753594 -16.80556462 8.56328157
v 30.93663497 -17.15439100 8.30392670
v 31.55509939 -17.13076327 8.27753182
v 31.55509939 -17.27066646 7.69340952
v 32.14371923 -17.10340357 7.69340952
v 32.22689963 -17.29242914 5.95969040
v 28.34531009 -16.20491139 5.95969040
v 28.61390401 -16.52762237 5.95969040
v 28.91551642 -16.82981404 5.95969040
v 29.08441930 -16.61964749 7.69340952
v 29.50794662 -16.92930123 7.69340952
v 29.29967463 -17.10029515 5.95969040
v 29.68573757 -17.26942309 5.95969040
v 29.70605764 -17.27626255 5.95969040
v 30.31753594 -17.23957666 7.69340952
v 30.93663497 -17.31916714 7.69340952
v 31.55509939 -17.45409593 5.95969040
v 30.93663497 -17.51067945 5.95969040
v 30.31753594 -17.42984559 5.95969040
v 30.32515666 -17.43108988 5.95969040
v 30.88774319 -17.50632673 5.95969040
f 1 2 3
f 1 3 4
f 1 4 5
f 1 5 12
f 1 12 20
f 1 20 31
f 1 31 43
f 1 43 44
f 1 44 64
f 1 64 79
f 1 79 83
f 1 83 99
f 1 99 110
f 1 110 111
f 1 111 114
f 1 114 113
f 1 113 112
f 1 112 107
f 1 107 106
f 1 106 105
f 1 105 102
f 1 102 101
f 1 101 100
f 1 100 87
f 1 87 86
f 1 86 85
f 1 85 84
f 1 84 65
f 1 65 48
f 1 48 46
f 1 46 33
f 1 33 21
f 1 21 13
f 1 13 6
f 1 6 15
f 1 15 26
f 1 26 38
f 1 38 58
f 1 58 39
f 1 39 27
f 1 27 16
f 1 16 7
f 1 7 2
f 2 7 3
f 3 8 9
f 3 9 10
f 3 10 11
f 3 11 4
f 3 7 8
f 4 11 12
f 4 12 5
f 6 13 14
f 6 14 15
f 7 16 8
f 8 17 9
f 8 16 17
f 9 17 10
f 10 18 19
f 10 19 11
f 10 17 18
f 11 19 20
f 11 20 12
f 13 21 14
f 14 21 22
f 14 22 23
f 14 23 24
f 14 24 25
f 14 25 15
f 15 25 24
f 15 24 26
f 16 27 17
f 17 28 18
f 17 27 28
f 18 28 29
f 18 29 30
f 18 30 19
f 19 31 20
f 19 30 32
f 19 32 31
f 21 33 34
f 21 34 22
f 22 34 23
f 23 34 35
f 23 35 36
f 23 36 24
f 24 36 37
f 24 37 38
f 24 38 26
f 27 39 40
f 27 40 29
f 27 29 28
f 29 40 41
f 29 41 42
f 29 42 30
f 30 42 32
f 31 32 43
f 32 44 43
f 32 42 45
f 32 45 44
f 33 46 47
f 33 47 34
f 34 47 46
f 34 46 48
f 34 48 49
f 34 49 50
f 34 50 35
f 35 50 51
f 35 51 52
f 35 52 36
f 36 52 37
f 37 52 53
f 37 53 38
f 38 53 54
f 38 54 55
f 38 55 56
f 38 56 57
f 38 57 58
f 39 58 59
f 39 59 40
f 40 60 61
f 40 61 42
f 40 42 41
f 40 59 60
f 42 61 62
f 42 62 63
f 42 63 45
f 44 45 63
f 44 63 64
f 48 65 49
f 49 65 66
f 49 66 50
f 50 66 57
f 50 57 51
f 51 57 52
f 52 57 56
f 52 56 55
f 52 55 54
f 52 54 53
f 57 66 67
f 57 67 68
f 57 68 69
f 57 69 58
f 58 70 71
f 58 71 59
f 58 69 72
f 58 72 73
f 58 73 74
f 58 74 70
f 59 71 75
f 59 75 76
f 59 76 77
f 59 77 78
f 59 78 60
f 60 62 61
f 60 78 62
f 62 79 80
f 62 80 63
f 62 78 77
f 62 77 81
f 62 81 82
f 62 82 83
f 62 83 79
f 63 80 79
f 63 79 64
f 65 84 66
f 66 84 85
f 66 85 86
f 66 86 87
f 66 87 88
f 66 88 89
f 66 89 67
f 67 89 90
f 67 90 68
f 68 90 91
f 68 91 69
f 69 91 92
f 69 92 93
f 69 93 94
f 69 94 75
f 69 75 72
f 70 74 75
f 70 75 71
f 72 75 73
f 73 75 74
f 75 95 96
f 75 96 76
f 75 94 93
f 75 93 95
f 76 96 77
f 77 96 97
f 77 97 98
f 77 98 81
f 81 98 99
f 81 99 83
f 81 83 82
f 87 100 89
f 87 89 88
f 89 100 90
f 90 100 101
f 90 101 102
f 90 102 103
f 90 103 91
f 91 103 92
f 92 103 104
f 92 104 105
f 92 105 106
f 92 106 107
f 92 107 108
f 92 108 93
f 93 108 109
f 93 109 95
f 95 109 96
f 96 109 97
f 97 110 99
f 97 99 98
f 97 109 111
f 97 111 110
f 102 105 104
f 102 104 103
f 107 112 108
f 108 112 113
f 108 113 114
f 108 114 109
f 109 114 111

