# https://github.com/mikedh/trimesh
v 35.94792461 -11.15842781 2.12287236
v 35.94633442 -11.15842781 2.78885329
v 35.76029000 -11.72988120 2.12287236
v 35.93679331 -11.15842781 1.55148723
v 35.94315405 -11.15842781 4.02685395
v 35.61399839 -12.13750803 2.12287236
v 34.96681653 -13.91553560 1.77686663
v 35.94156387 -11.15842781 4.59823816
v 35.74915870 -11.72988120 4.59823816
v 35.60922783 -12.12430829 4.59823816
v 34.96999690 -13.92407594 4.59823816
v 35.93361293 -11.15842781 1.50387204
v 34.74897022 -14.20592079 -0.52644911
v 35.50268904 -12.44730382 2.12287236
v 34.96999690 -13.92407594 2.12287236
v 34.84914827 -14.23387173 2.12287236
v 34.51363187 -14.82473664 -0.52644911
v 34.58041600 -14.65159173 -0.52644911
v 35.88590919 -11.15842781 5.21914320
v 35.59809653 -12.09635689 5.05534663
v 34.96681653 -13.91475896 4.96329015
v 34.84914827 -14.23309600 4.59823816
v 35.83979563 -11.15842781 0.93058219
v 34.89367165 -13.58710494 -0.52644911
v 35.83025451 -11.15842781 0.88487171
v 34.59631787 -14.82473664 4.59823816
v 34.59631787 -14.82473664 2.12287236
v 34.40391270 -15.08095864 -0.52644911
v 35.87477973 -11.15842781 5.25215710
v 35.54403204 -12.00163196 5.46801290
v 35.67442363 -11.76947951 5.24390362
v 34.92070297 -13.81848166 5.37595642
v 34.34507765 -15.14384941 5.53340516
v 34.37210897 -15.20130550 5.21723848
v 34.89367165 -12.96751244 -0.52644911
v 35.66170214 -11.15842781 0.49887057
v 34.22899958 -15.51110128 5.21723848
v 34.02069255 -16.06236742 4.59823816
v 34.02069255 -16.06236742 2.12287236
v 34.22104865 -15.48936166 -0.52644911
v 34.32281689 -15.26652527 -0.52644911
v 34.36097951 -15.18034160 -0.52644911
v 35.69191568 -11.15842781 5.75497513
v 34.99703007 -13.40541969 5.55626086
v 33.99047901 -15.43734025 5.95876894
v 33.73765045 -16.40865632 5.54800739
v 33.77263270 -16.48241736 5.21723848
v 34.72988799 -12.34869705 -0.52644911
v 34.47546740 -11.87585043 -0.52644911
v 34.26398183 -11.65301450 -0.52644911
v 34.18129399 -11.56605465 -0.52644911
v 33.87122057 -11.29275059 -0.52644911
v 33.56273548 -11.15842781 -0.52644911
v 33.65496445 -16.84811594 4.59823816
v 33.65496445 -16.84811594 2.74123809
v 33.79807384 -16.53832016 2.12287236
v 33.65178407 -16.84811594 2.12287236
v 33.43711630 -17.29999912 2.12287236
v 33.18905645 -17.74256533 0.88487171
v 33.94754582 -16.06236742 -0.52644911
v 35.65375120 -11.15842781 5.77084747
v 34.17016453 -14.82473664 5.95876894
v 33.62634109 -16.06236742 5.95876894
v 33.12227047 -17.63852342 5.54292783
v 33.43552611 -17.29999912 4.59823816
v 33.16202513 -17.69364957 5.21723848
v 19.70320072 -11.15842781 -0.52644911
v 33.43870648 -17.29999912 3.36023750
v 33.43870648 -17.29999912 2.74123809
v 33.19700738 -17.74411769 2.12287236
v 33.19382701 -17.74334105 1.50387204
v 32.95371809 -18.05236111 0.88487171
v 33.16043494 -17.69830852 0.48871146
v 33.75673084 -16.42340798 -0.52644911
v 35.26894087 -11.15842781 5.89401220
v 34.22899958 -14.18573354 5.95876894
v 33.32262657 -16.57325906 5.95876894
v 32.53392366 -18.27286757 5.55753006
v 32.91078491 -18.00344628 5.21723848
v 33.19700738 -17.74334105 2.74123809
v 33.19223682 -17.73557736 4.59823816
v 33.19541719 -17.74178868 3.36023750
v 32.95053772 -18.04537315 4.59823816
v 19.70320072 -17.65715738 -0.52644911
v 19.70320072 -11.15842781 2.54315751
v 32.95371809 -18.05313776 2.12287236
v 32.95371809 -18.05313776 1.50387204
v 32.64364282 -18.36681585 0.88487171
v 32.58958018 -18.32100668 0.46649128
v 33.28128357 -16.98709768 -0.52644911
v 33.50390043 -16.73320469 -0.52644911
v 35.25780956 -11.15842781 5.89464772
v 34.18129399 -13.58710494 5.95876894
v 32.79311481 -16.98632103 5.95876894
v 32.22703060 -17.29223544 5.95876894
v 31.35564169 -18.86839051 5.54546715
v 31.76907354 -18.78764151 5.39754293
v 32.12208199 -18.64633077 5.20136706
v 32.60070964 -18.33109938 5.21723848
v 32.95371809 -18.05080782 3.36023750
v 32.95371809 -18.05236111 2.74123809
v 32.95212791 -18.04847881 3.97923783
v 32.64205264 -18.36681585 4.59823816
v 19.70320072 -18.39787245 0.42014528
v 19.79542784 -17.66026304 -0.52644911
v 21.65269539 -18.96855011 0.41062261
v 21.03254578 -18.93205792 0.45188813
v 20.59844151 -18.87925986 0.52045431
v 19.73818390 -11.15842781 4.59823816
v 19.70320072 -11.23607115 4.59823816
v 32.64364282 -18.36681585 3.97923783
v 32.19999928 -18.67661164 0.88487171
v 31.88197308 -18.85752024 0.55727764
v 33.19382701 -17.07871602 -0.52644911
v 33.34965974 -11.15842781 5.95876894
v 34.01274162 -12.93334972 5.95876894
v 31.55440761 -17.45373251 5.95876894
v 30.93584910 -18.89168342 5.56451341
v 30.93584910 -18.99417204 5.21723848
v 31.55917816 -18.89944711 5.20136706
v 31.88197308 -18.85752024 4.98487573
v 32.19999928 -18.67661164 4.59823816
v 19.70320072 -18.55238248 0.79408535
v 20.01963581 -17.66414534 -0.52644911
v 21.65269539 -19.08967361 0.88487171
v 20.41398681 -17.66492199 -0.52644911
v 30.31728875 -18.96855011 0.41062261
v 21.03254578 -19.01668922 0.88487171
v 20.53483636 -18.89556573 0.88487171
v 20.22635220 -18.81248679 0.88487171
v 19.79542784 -18.62381450 0.88487171
v 19.81768953 -11.15842781 5.21723848
v 19.70320072 -11.40688566 5.21723848
v 31.89151420 -18.86217919 0.88487171
v 31.55440761 -18.94603293 0.88487171
v 30.93584910 -19.05240477 0.88487171
v 31.55440761 -18.89634237 0.49759953
v 32.18409742 -17.53370486 -0.52644911
v 32.79311481 -17.30931610 -0.52644911
v 33.08410784 -17.14238343 -0.52644911
v 20.94349903 -11.15842781 5.95876894
v 31.54645667 -17.45450916 5.95876894
v 30.93584910 -17.51041196 5.95876894
v 30.31728875 -18.90488271 5.57467161
v 30.31728875 -19.02600528 5.21723848
v 30.93584910 -19.05240477 4.59823816
v 30.31728875 -19.08967361 4.59823816
v 31.55440761 -18.94603293 4.59823816
v 31.89151420 -18.86217919 4.59823816
v 19.70320072 -18.56791170 0.88487171
v 21.65269539 -19.08967361 4.59823816
v 30.31728875 -19.08967361 0.88487171
v 30.93584910 -17.66492199 -0.52644911
v 31.55440761 -17.65172270 -0.52644911
v 30.93584910 -18.94991616 0.42839875
v 21.03254578 -19.01668922 4.59823816
v 20.53483636 -18.89556573 4.59823816
v 20.22635220 -18.81714574 1.50387204
v 19.79542784 -18.62769681 1.50387204
v 19.70320072 -18.57101736 1.37816707
v 19.97352226 -11.15842781 5.56070490
v 19.70320072 -12.05675903 5.95876894
v 20.41398681 -11.15842781 5.80639976
v 20.41398681 -11.40300382 5.95876894
v 22.27125390 -17.49022471 5.95876894
v 21.65269539 -18.90488271 5.57467161
v 21.65269539 -19.02600528 5.21723848
v 21.03254578 -18.96233879 5.21723848
v 20.62388357 -18.87304854 5.21723848
v 20.22635220 -18.81714574 4.59823816
v 19.79542784 -18.62769681 3.36023750
v 19.70320072 -18.57101736 3.23389885
v 19.98624282 -11.15842781 5.58673452
v 19.70320072 -16.55229609 5.95876894
v 19.85903345 -11.82227665 5.95876894
v 19.99737413 -11.15842781 5.60895470
v 22.23468146 -17.48944806 5.95876894
v 21.65269539 -17.47624878 5.95876894
v 21.63043325 -17.47391976 5.95876894
v 21.06911868 -17.38152477 5.95876894
v 21.03254578 -18.87770749 5.55181683
v 20.71611069 -18.84897991 5.52832561
v 20.31380922 -18.75270169 5.21723848
v 19.79542784 -18.52210253 5.21723848
v 19.79542784 -18.62148549 4.59823816
v 19.70320072 -18.56791170 3.85099446
v 19.70320072 -18.30780739 5.56324422
v 19.78429746 -16.65400806 5.95876894
v 21.03254578 -17.37376016 5.95876894
v 20.52847608 -17.23943738 5.95876894
v 20.48236252 -17.22235579 5.95876894
v 19.79542784 -18.32644135 5.56959297
v 19.70320072 -18.47241013 5.21723848
v 19.70320072 -18.56247703 4.59823816
v 20.44419943 -17.19751051 5.95876894
v 20.16115687 -16.98399202 5.95876894
v 19.80019840 -16.67108965 5.95876894
v 19.78747783 -16.65789036 5.95876894
f 1 2 3
f 1 3 4
f 1 4 12
f 1 12 23
f 1 23 25
f 1 25 36
f 1 36 53
f 1 53 67
f 1 67 85
f 1 85 109
f 1 109 132
f 1 132 161
f 1 161 173
f 1 173 176
f 1 176 163
f 1 163 141
f 1 141 115
f 1 115 92
f 1 92 75
f 1 75 61
f 1 61 43
f 1 43 29
f 1 29 19
f 1 19 8
f 1 8 5
f 1 5 2
f 2 5 3
f 3 6 7
f 3 7 4
f 3 5 8
f 3 8 9
f 3 9 10
f 3 10 11
f 3 11 6
f 4 7 13
f 4 13 12
f 6 11 14
f 6 14 7
f 7 15 16
f 7 16 17
f 7 17 18
f 7 18 13
f 7 14 15
f 8 19 20
f 8 20 9
f 9 20 21
f 9 21 10
f 10 21 11
f 11 21 22
f 11 22 16
f 11 16 15
f 11 15 14
f 12 13 23
f 13 18 17
f 13 17 28
f 13 28 42
f 13 42 41
f 13 41 40
f 13 40 60
f 13 60 74
f 13 74 91
f 13 91 90
f 13 90 114
f 13 114 140
f 13 140 139
f 13 139 138
f 13 138 154
f 13 154 153
f 13 153 126
f 13 126 124
f 13 124 105
f 13 105 84
f 13 84 67
f 13 67 53
f 13 53 52
f 13 52 51
f 13 51 50
f 13 50 49
f 13 49 48
f 13 48 35
f 13 35 24
f 13 24 25
f 13 25 23
f 16 22 26
f 16 26 27
f 16 27 17
f 17 27 28
f 19 29 30
f 19 30 31
f 19 31 20
f 20 31 32
f 20 32 21
f 21 26 22
f 21 32 33
f 21 33 34
f 21 34 26
f 24 35 36
f 24 36 25
f 26 34 37
f 26 37 38
f 26 38 39
f 26 39 27
f 27 39 40
f 27 40 41
f 27 41 42
f 27 42 28
f 29 43 30
f 30 43 44
f 30 44 32
f 30 32 31
f 32 44 33
f 33 45 46
f 33 46 47
f 33 47 37
f 33 37 34
f 33 44 45
f 35 48 36
f 36 48 49
f 36 49 50
f 36 50 51
f 36 51 52
f 36 52 53
f 37 47 54
f 37 54 38
f 38 54 55
f 38 55 39
f 39 55 56
f 39 56 40
f 40 56 57
f 40 57 58
f 40 58 59
f 40 59 60
f 43 61 62
f 43 62 45
f 43 45 44
f 45 62 76
f 45 76 93
f 45 93 116
f 45 116 115
f 45 115 141
f 45 141 164
f 45 164 175
f 45 175 162
f 45 162 174
f 45 174 188
f 45 188 198
f 45 198 197
f 45 197 196
f 45 196 195
f 45 195 191
f 45 191 190
f 45 190 189
f 45 189 180
f 45 180 179
f 45 179 178
f 45 178 177
f 45 177 165
f 45 165 143
f 45 143 142
f 45 142 117
f 45 117 95
f 45 95 94
f 45 94 77
f 45 77 63
f 45 63 64
f 45 64 46
f 46 64 47
f 47 65 54
f 47 64 66
f 47 66 65
f 54 65 68
f 54 68 69
f 54 69 55
f 55 69 58
f 55 58 57
f 55 57 56
f 58 69 70
f 58 70 71
f 58 71 59
f 59 71 72
f 59 72 73
f 59 73 74
f 59 74 60
f 61 75 62
f 62 75 76
f 63 77 64
f 64 78 79
f 64 79 66
f 64 77 78
f 65 80 68
f 65 66 81
f 65 81 82
f 65 82 80
f 66 79 83
f 66 83 81
f 67 84 104
f 67 104 123
f 67 123 150
f 67 150 160
f 67 160 172
f 67 172 186
f 67 186 194
f 67 194 193
f 67 193 187
f 67 187 174
f 67 174 162
f 67 162 133
f 67 133 110
f 67 110 85
f 68 80 70
f 68 70 69
f 70 80 101
f 70 101 86
f 70 86 87
f 70 87 72
f 70 72 71
f 72 87 88
f 72 88 89
f 72 89 73
f 73 89 90
f 73 90 91
f 73 91 74
f 75 92 76
f 76 92 93
f 77 94 78
f 78 94 95
f 78 95 96
f 78 96 97
f 78 97 98
f 78 98 99
f 78 99 79
f 79 99 83
f 80 82 100
f 80 100 101
f 81 83 102
f 81 102 82
f 82 102 100
f 83 99 103
f 83 103 102
f 84 105 106
f 84 106 107
f 84 107 108
f 84 108 104
f 85 110 109
f 86 101 111
f 86 111 88
f 86 88 87
f 88 111 122
f 88 122 112
f 88 112 113
f 88 113 89
f 89 114 90
f 89 113 114
f 92 115 116
f 92 116 93
f 95 117 96
f 96 117 118
f 96 118 119
f 96 119 120
f 96 120 97
f 97 120 121
f 97 121 98
f 98 121 99
f 99 121 122
f 99 122 103
f 100 102 103
f 100 103 111
f 100 111 101
f 103 122 111
f 104 108 123
f 105 124 106
f 106 125 107
f 106 124 126
f 106 126 153
f 106 153 127
f 106 127 152
f 106 152 125
f 107 125 128
f 107 128 108
f 108 128 129
f 108 129 130
f 108 130 131
f 108 131 123
f 109 110 133
f 109 133 132
f 112 122 149
f 112 149 134
f 112 134 113
f 113 134 135
f 113 135 136
f 113 136 137
f 113 137 138
f 113 138 139
f 113 139 140
f 113 140 114
f 117 142 118
f 118 142 143
f 118 143 144
f 118 144 145
f 118 145 119
f 119 146 120
f 119 145 147
f 119 147 146
f 120 146 148
f 120 148 121
f 121 149 122
f 121 148 149
f 123 131 150
f 125 151 156
f 125 156 128
f 125 152 147
f 125 147 151
f 127 153 154
f 127 154 155
f 127 155 152
f 128 156 157
f 128 157 129
f 129 157 170
f 129 170 158
f 129 158 130
f 130 158 131
f 131 158 159
f 131 159 160
f 131 160 150
f 132 133 162
f 132 162 161
f 134 149 148
f 134 148 135
f 135 148 146
f 135 146 136
f 136 155 137
f 136 146 147
f 136 147 152
f 136 152 155
f 137 155 138
f 138 155 154
f 141 163 164
f 143 165 166
f 143 166 144
f 144 166 167
f 144 167 145
f 145 167 151
f 145 151 147
f 151 167 168
f 151 168 156
f 156 168 169
f 156 169 157
f 157 169 170
f 158 170 171
f 158 171 159
f 159 171 172
f 159 172 160
f 161 162 173
f 162 175 176
f 162 176 173
f 163 176 175
f 163 175 164
f 165 177 166
f 166 177 178
f 166 178 179
f 166 179 180
f 166 180 181
f 166 181 167
f 167 181 168
f 168 181 182
f 168 182 169
f 169 182 183
f 169 183 170
f 170 183 184
f 170 184 185
f 170 185 171
f 171 185 172
f 172 185 186
f 174 187 188
f 180 189 181
f 181 189 190
f 181 190 182
f 182 190 191
f 182 191 192
f 182 192 187
f 182 187 184
f 182 184 183
f 184 187 193
f 184 193 185
f 185 193 194
f 185 194 186
f 187 192 191
f 187 191 195
f 187 195 196
f 187 196 197
f 187 197 198
f 187 198 188

