# https://github.com/mikedh/trimesh
v -4.96444878 -6.80954993 -4.68710344
v -4.96444878 -6.80954993 -11.49523355
v -8.05939784 -6.80954993 -4.68710344
v -4.96444878 -6.94846249 -4.13762764
v -0.01392104 -6.96121949 -4.15192272
v 2.46134237 -6.96830707 -4.16264448
v 4.93834631 -6.97539420 -4.17515383
v -0.01392104 -6.83364716 -4.68710344
v -4.96444878 -6.94846249 -11.96340507
v -8.05939784 -6.80954993 -11.49523355
v -0.01392104 -6.83364716 -11.49523355
v 4.93834631 -6.97539420 -11.93392022
v 2.46134237 -6.96830707 -11.94374727
v -0.01392104 -6.96121949 -11.95089573
v -8.67908350 -6.92720020 -4.68710344
v -8.67908350 -7.00799624 -4.23501457
v -8.05939784 -6.94846249 -4.13762764
v -5.58413443 -7.39780128 -3.84189357
v -4.96444878 -7.39780128 -3.84278828
v -0.01392104 -7.39780128 -3.85887093
v 2.46134237 -7.39780128 -3.86959085
v 4.93834631 -7.39780128 -3.88299306
v 7.41361018 -7.39780128 -3.89996857
v 7.41361018 -6.98531672 -4.19123463
v 2.46134237 -6.84782186 -4.68710344
v -4.96444878 -7.39780128 -12.16889884
v -8.05939784 -6.94846249 -11.96340507
v -0.01392104 -7.39780128 -12.15638950
v -8.67908350 -7.00799624 -11.89728874
v -8.67908350 -6.92720020 -11.49523355
v 2.46134237 -6.84782186 -11.49523355
v 7.41361018 -6.98531672 -11.92409131
v 7.41361018 -7.39780128 -12.11975987
v 4.93834631 -7.39780128 -12.13405310
v 2.46134237 -7.39780128 -12.14656244
v -9.00459391 -7.06611276 -4.68710344
v -8.99937138 -7.07319988 -4.34669656
v -8.05939784 -7.39780128 -3.84278828
v -7.44145364 -7.39780128 -3.84189357
v 8.65124142 -10.84651193 -3.18967181
v 7.41361018 -7.85847983 -3.77756481
v 8.03329630 -7.89675130 -3.81330342
v 8.06636922 -7.37512175 -4.07776690
v 7.88185595 -6.99523878 -4.21803905
v 7.41361018 -6.88184115 -4.68710344
v 4.93834631 -6.86483151 -4.68710344
v -8.05939784 -7.39780128 -12.16889884
v 7.41361018 -8.01581927 -12.23233473
v 4.93834631 -8.01581927 -12.23680091
v 2.46134237 -8.01581927 -12.24037421
v -0.01392104 -8.01581927 -12.24216179
v -8.99937138 -7.07319988 -11.82223822
v -9.00459391 -7.06611276 -11.49523355
v 4.93834631 -6.86483151 -11.49523355
v 7.41361018 -6.88184115 -11.49523355
v 7.88185595 -6.99523878 -11.91068911
v 8.06636922 -7.38362658 -11.99467566
v 8.03329630 -8.01581927 -12.18498149
v -9.00459391 -7.17667545 -4.68710344
v -8.99937138 -7.14690834 -4.34669656
v -8.40405505 -8.63525450 -3.73467959
v -8.38664786 -8.22135270 -3.74897466
v -7.86618098 -11.15126828 -3.18967181
v -7.44145364 -10.89045328 -3.18967181
v -6.82524721 -10.84651193 -3.18967181
v 8.77657190 -10.96416173 -3.18967181
v 8.77657190 -10.84651193 -3.19056468
v 8.36924991 -8.27238163 -3.74897466
v 8.77657190 -8.66502161 -3.72306495
v 8.77657190 -8.08244015 -4.08670109
v 7.96366846 -6.94846249 -4.68710344
v 8.41798949 -7.56648048 -4.23501457
v 8.27177075 -7.18092809 -4.68710344
v -7.44145364 -8.01581927 -12.24216179
v -8.05939784 -8.01581927 -12.23680091
v -8.72086002 -7.37086911 -11.96072279
v 8.03329630 -8.63525450 -12.28236842
v 7.41361018 -8.63525450 -12.29576878
v -8.99937138 -7.14690834 -11.82223822
v -9.00459391 -7.17667545 -11.49523355
v 7.96366846 -6.94846249 -10.87606812
v 7.96192792 -6.94846249 -11.49523355
v 8.27177075 -7.19226785 -11.49523355
v 8.40580391 -7.58065518 -11.87763278
v 8.77657190 -8.58139063 -12.08491413
v 8.77657190 -9.25469020 -12.31542658
v -8.94889127 -7.48710214 -4.68710344
v -8.84096890 -8.01581927 -4.68710344
v -8.70345283 -8.63525450 -4.68710344
v -7.84877379 -11.70408264 -3.18967181
v 8.77657190 -17.75527298 -3.18967181
v 8.77657190 -7.99455699 -4.68710344
v 8.27351129 -7.17525821 -5.30626703
v -7.44145364 -8.63525450 -12.29576878
v -7.44145364 -8.99387519 -12.31721231
v -7.59115253 -9.10302064 -12.31721231
v -8.05939784 -8.63525450 -12.27075378
v -8.60075299 -8.01581927 -12.01879780
v 7.81396865 -9.03639930 -12.31721231
v 7.41361018 -8.99387519 -12.31721231
v -8.40579651 -9.69410646 -11.89192786
v -8.70345283 -8.63525450 -11.49523355
v -8.83574637 -8.01581927 -11.49523355
v -8.94367058 -7.48710214 -11.49523355
v -7.89055031 -11.21363698 -12.31721231
v -7.84703417 -11.68565529 -12.31721231
v -8.94889127 -7.48710214 -10.87606812
v 8.27351129 -7.17525821 -10.87606812
v 8.77657190 -7.98746986 -10.87606812
v 8.77657190 -8.04133374 -11.50416774
v 8.77657190 -8.04700362 -11.51935568
v 8.77657190 -8.20576030 -11.81955778
v 8.77657190 -9.29437936 -12.31721231
v -8.84096890 -8.01581927 -10.87606812
v -8.55723685 -9.25469020 -4.68710344
v -8.21954178 -10.49214388 -4.68710344
v -8.04024919 -11.11157911 -4.68710344
v -7.84877379 -11.70408264 -8.40030293
v -7.62422545 -12.34903233 -3.18967181
v -8.42320370 -9.75931010 -4.68710344
v -8.33790920 -10.06831909 -4.68710344
v 8.77657190 -20.85386730 -3.70966275
v -4.34476312 -17.75527298 -3.18967181
v 8.77657190 -7.98746986 -5.30626703
v -7.89055031 -11.08322970 -12.31721231
v -8.55723685 -9.25469020 -11.49523355
v -7.73388928 -11.99466429 -12.31721231
v -7.74085142 -12.01309163 -8.40030293
v -8.04024919 -11.11157911 -11.49523355
v -8.21954178 -10.49214388 -11.49523355
v -8.33790920 -10.06831909 -11.49523355
v -8.42320370 -9.75931010 -11.49523355
v 8.77657190 -20.44705262 -12.31721231
v -7.62422545 -12.34903233 -4.06793800
v -7.39967712 -12.96846803 -3.18967181
v 8.77657190 -21.08775014 -3.99467506
v 0.60402408 -20.85386730 -3.70966275
v -4.92441187 -17.70849623 -3.18967181
v -1.24981221 -20.79008090 -3.70966275
v -0.63186708 -20.82268341 -3.70966275
v -0.01392104 -20.84961512 -3.70966275
v -7.19427375 -13.44615576 -12.31721231
v 8.77657190 -20.99561526 -12.07240478
v -0.01392104 -20.44705262 -12.31721231
v -7.02368660 -13.90258260 -12.31721231
v -6.91054170 -14.20450401 -12.31721231
v -6.83221119 -14.40720296 -12.31721231
v -6.67032579 -14.82393970 -12.31721231
v -7.20819987 -13.45749552 -3.18967181
v 8.77657190 -21.14728435 -4.06793800
v 0.60402408 -21.14728435 -4.06793800
v -5.45706342 -17.31727349 -3.18967181
v -3.37345627 -20.04165564 -3.81687673
v -2.20893255 -20.72062555 -3.74540135
v -1.86949787 -20.75322621 -3.72395782
v -0.01392104 -21.13736137 -4.06793800
v 8.77657190 -21.05514763 -11.95536190
v 0.60402408 -20.99561526 -12.07240478
v -0.01392104 -20.99136308 -12.07240478
v -0.58486804 -20.43996504 -12.31721231
v -6.52933050 -15.16838569 -12.31721231
v -6.67032579 -14.82393970 -12.11439899
v -6.66684472 -14.82393970 -10.25690453
v -6.66336365 -14.82393970 -8.40030293
v -6.65292045 -14.82393970 -3.18967181
v 8.77657190 -21.29044909 -4.68710344
v 0.60402408 -21.29044909 -4.68710344
v -4.84260029 -18.51787249 -4.68710344
v -4.64067983 -18.82688148 -4.68710344
v -4.57105291 -18.76026061 -4.06793800
v -4.06277069 -19.49876381 -4.23769501
v -3.98966086 -19.41938547 -3.82491805
v -5.59457949 -17.09614812 -3.18967181
v -3.71985309 -19.77091904 -4.02773322
v -3.45178678 -20.11111192 -4.22965368
v -2.27856131 -20.76031380 -4.06793800
v -1.86949787 -20.88505119 -4.06793800
v -1.24981221 -20.99136308 -4.06793800
v -0.63186708 -21.07924578 -4.06793800
v -0.01392104 -21.28052610 -4.68710344
v 8.77657190 -21.28761369 -11.49523355
v 0.60402408 -21.28761369 -11.49523355
v -0.01392104 -21.27910932 -11.49523355
v -0.63186708 -20.96017734 -12.06883148
v -1.22544288 -20.41728551 -12.31721231
v -6.52933050 -15.16838569 -12.11439899
v -6.29433712 -15.66875295 -12.31721231
v -5.93575378 -16.46253818 -3.18967181
v -6.52062690 -15.14995834 -3.44877441
v -6.51888545 -15.14995834 -3.18967181
v 8.77657190 -21.29044909 -10.87606812
v 0.60402408 -21.29044909 -10.87606812
v -4.84260029 -18.51787249 -11.49523355
v -5.15244312 -18.00333006 -4.68710344
v -4.37087206 -19.15715322 -4.68710344
v -4.64067983 -18.82688148 -11.49523355
v -4.07495535 -19.51435575 -4.68710344
v -3.77729719 -19.82336475 -4.68710344
v -5.78779635 -16.77296396 -3.18967181
v -3.46745436 -20.12386846 -4.68710344
v -3.10712957 -20.34215935 -4.68710344
v -2.64236533 -20.61431458 -4.68710344
v -2.33426395 -20.79291631 -4.68710344
v -1.86949787 -20.96726493 -4.68710344
v -1.24981221 -21.10617748 -4.68710344
v -0.63186708 -21.21673971 -4.68710344
v -0.01392104 -21.28052610 -10.87606812
v 8.77657190 -21.28903046 -11.36925648
v -0.63186708 -21.21673971 -11.49523355
v -1.24981221 -20.90489531 -12.05989729
v -1.24981221 -20.41445103 -12.31721231
v -6.52236652 -15.15421052 -5.30626703
v -5.92879164 -16.44552762 -12.31721231
v -5.78257383 -16.75453661 -12.31721231
v -5.15244312 -18.00333006 -11.49523355
v -5.30388346 -17.66597166 -11.97680544
v -5.45706342 -17.33570084 -12.31721231
v -5.31954919 -17.69432106 -4.68710344
v -4.37087206 -19.15715322 -11.49523355
v -5.32477172 -17.52422462 -12.31721231
v -4.06277069 -19.49876381 -11.85976256
v -4.07495535 -19.51435575 -11.49523355
v -3.77729719 -19.82336475 -11.49523355
v -5.52321111 -17.30026385 -7.78113934
v -5.52321111 -17.30026385 -4.68710344
v -5.51798859 -17.30026385 -11.49523355
v -3.46745436 -20.12386846 -11.49523355
v -3.10712957 -20.34215935 -11.49523355
v -2.64236533 -20.61431458 -11.49523355
v -2.33426395 -20.79291631 -11.49523355
v -1.86949787 -20.96726493 -11.49523355
v -1.24981221 -21.10617748 -11.49523355
v -1.86949787 -20.83543995 -12.01611735
v -1.86949787 -20.39460599 -12.28326128
v -1.39777148 -20.39460599 -12.31721231
v -5.31954919 -17.69432106 -11.49523355
v -5.18377643 -17.71558289 -12.31721231
v -3.68504055 -19.73264665 -11.97948588
v -3.45178678 -20.11111192 -11.86333771
v -2.28204238 -20.76314920 -11.92051801
v -2.48918537 -20.42012091 -12.08223369
v -3.10712957 -19.77517122 -12.24305650
v -2.28726491 -19.97786924 -12.31721231
v -4.97141091 -17.88568025 -12.31721231
v -3.10712957 -20.21316978 -11.97501971
v -2.59884919 -19.77517122 -12.31721231
f 1 2 10
f 1 10 3
f 1 3 17
f 1 17 4
f 1 4 5
f 1 5 6
f 1 6 7
f 1 7 8
f 1 8 11
f 1 11 2
f 2 9 27
f 2 27 10
f 2 11 12
f 2 12 13
f 2 13 14
f 2 14 9
f 3 10 30
f 3 30 15
f 3 15 16
f 3 16 17
f 4 17 39
f 4 39 18
f 4 18 19
f 4 19 20
f 4 20 21
f 4 21 5
f 5 21 22
f 5 22 6
f 6 22 23
f 6 23 7
f 7 23 24
f 7 24 8
f 8 24 25
f 8 25 31
f 8 31 11
f 9 26 47
f 9 47 27
f 9 14 28
f 9 28 26
f 10 27 29
f 10 29 30
f 11 31 32
f 11 32 12
f 12 32 33
f 12 33 34
f 12 34 13
f 13 34 35
f 13 35 14
f 14 35 28
f 15 30 53
f 15 53 36
f 15 36 37
f 15 37 16
f 16 37 38
f 16 38 17
f 17 38 39
f 18 39 65
f 18 65 40
f 18 40 19
f 19 40 41
f 19 41 20
f 20 41 21
f 21 41 22
f 22 41 23
f 23 41 42
f 23 42 43
f 23 43 44
f 23 44 24
f 24 44 45
f 24 45 46
f 24 46 25
f 25 46 54
f 25 54 31
f 26 28 48
f 26 48 49
f 26 49 50
f 26 50 51
f 26 51 74
f 26 74 47
f 27 47 29
f 28 35 48
f 29 52 30
f 29 47 52
f 30 52 53
f 31 54 32
f 32 55 56
f 32 56 33
f 32 54 55
f 33 56 57
f 33 57 58
f 33 58 48
f 33 48 34
f 34 48 35
f 36 53 80
f 36 80 59
f 36 59 60
f 36 60 37
f 37 60 61
f 37 61 62
f 37 62 38
f 38 63 64
f 38 64 65
f 38 65 39
f 38 62 63
f 40 66 67
f 40 67 41
f 40 65 64
f 40 64 63
f 40 63 90
f 40 90 119
f 40 119 135
f 40 135 149
f 40 149 165
f 40 165 190
f 40 190 188
f 40 188 199
f 40 199 173
f 40 173 152
f 40 152 138
f 40 138 123
f 40 123 91
f 40 91 66
f 41 67 68
f 41 68 42
f 42 68 43
f 43 68 69
f 43 69 70
f 43 70 44
f 44 71 45
f 44 70 72
f 44 72 73
f 44 73 71
f 45 71 81
f 45 81 55
f 45 55 54
f 45 54 46
f 47 74 75
f 47 75 76
f 47 76 52
f 48 58 77
f 48 77 78
f 48 78 49
f 49 78 50
f 50 78 51
f 51 78 94
f 51 94 74
f 52 79 80
f 52 80 53
f 52 76 79
f 55 81 82
f 55 82 56
f 56 82 83
f 56 83 84
f 56 84 57
f 57 84 85
f 57 85 86
f 57 86 58
f 58 86 77
f 59 87 60
f 59 80 107
f 59 107 87
f 60 87 88
f 60 88 89
f 60 89 90
f 60 90 63
f 60 63 61
f 61 63 62
f 66 91 122
f 66 122 136
f 66 136 150
f 66 150 166
f 66 166 191
f 66 191 208
f 66 208 181
f 66 181 157
f 66 157 143
f 66 143 133
f 66 133 113
f 66 113 86
f 66 86 85
f 66 85 112
f 66 112 111
f 66 111 110
f 66 110 109
f 66 109 124
f 66 124 92
f 66 92 70
f 66 70 69
f 66 69 67
f 67 69 68
f 70 92 73
f 70 73 72
f 71 73 93
f 71 93 108
f 71 108 81
f 73 92 93
f 74 94 75
f 75 94 95
f 75 95 96
f 75 96 97
f 75 97 76
f 76 98 79
f 76 97 98
f 77 86 78
f 78 86 99
f 78 99 100
f 78 100 95
f 78 95 94
f 79 101 102
f 79 102 103
f 79 103 104
f 79 104 80
f 79 98 105
f 79 105 106
f 79 106 101
f 80 104 107
f 81 108 82
f 82 108 83
f 83 108 109
f 83 109 110
f 83 110 111
f 83 111 84
f 84 111 112
f 84 112 85
f 86 113 99
f 87 107 114
f 87 114 88
f 88 114 102
f 88 102 89
f 89 102 126
f 89 126 115
f 89 115 90
f 90 116 117
f 90 117 129
f 90 129 118
f 90 118 134
f 90 134 119
f 90 115 120
f 90 120 121
f 90 121 116
f 91 123 137
f 91 137 122
f 92 124 93
f 93 124 109
f 93 109 108
f 95 100 99
f 95 99 113
f 95 113 133
f 95 133 144
f 95 144 160
f 95 160 185
f 95 185 211
f 95 211 235
f 95 235 243
f 95 243 246
f 95 246 244
f 95 244 237
f 95 237 220
f 95 220 217
f 95 217 214
f 95 214 213
f 95 213 187
f 95 187 161
f 95 161 148
f 95 148 147
f 95 147 146
f 95 146 145
f 95 145 142
f 95 142 127
f 95 127 106
f 95 106 105
f 95 105 125
f 95 125 96
f 96 125 97
f 97 125 105
f 97 105 98
f 101 126 102
f 101 106 126
f 102 114 103
f 103 114 107
f 103 107 104
f 106 127 128
f 106 128 118
f 106 118 129
f 106 129 130
f 106 130 131
f 106 131 132
f 106 132 126
f 115 126 132
f 115 132 120
f 116 121 131
f 116 131 130
f 116 130 129
f 116 129 117
f 118 128 134
f 119 134 135
f 120 132 131
f 120 131 121
f 122 137 136
f 123 138 139
f 123 139 140
f 123 140 141
f 123 141 137
f 127 142 128
f 128 142 135
f 128 135 134
f 133 143 158
f 133 158 144
f 135 142 145
f 135 145 146
f 135 146 147
f 135 147 148
f 135 148 149
f 136 137 151
f 136 151 150
f 137 141 151
f 138 152 153
f 138 153 154
f 138 154 155
f 138 155 139
f 139 155 156
f 139 156 140
f 140 156 141
f 141 156 151
f 143 157 158
f 144 158 159
f 144 159 160
f 148 161 186
f 148 186 162
f 148 162 149
f 149 162 163
f 149 163 164
f 149 164 165
f 150 151 167
f 150 167 166
f 151 156 180
f 151 180 167
f 152 168 169
f 152 169 170
f 152 170 171
f 152 171 172
f 152 172 153
f 152 173 168
f 153 172 174
f 153 174 175
f 153 175 154
f 154 176 177
f 154 177 178
f 154 178 179
f 154 179 155
f 154 175 176
f 155 179 156
f 156 179 180
f 157 181 182
f 157 182 158
f 158 182 159
f 159 182 183
f 159 183 184
f 159 184 185
f 159 185 160
f 161 187 188
f 161 188 186
f 162 186 163
f 163 186 189
f 163 189 164
f 164 189 165
f 165 189 190
f 166 167 192
f 166 192 191
f 167 180 207
f 167 207 192
f 168 193 196
f 168 196 169
f 168 173 194
f 168 194 215
f 168 215 193
f 169 195 171
f 169 171 170
f 169 196 219
f 169 219 195
f 171 195 197
f 171 197 198
f 171 198 175
f 171 175 174
f 171 174 172
f 173 199 194
f 175 198 200
f 175 200 201
f 175 201 202
f 175 202 203
f 175 203 176
f 176 203 204
f 176 204 177
f 177 204 205
f 177 205 206
f 177 206 178
f 178 206 179
f 179 206 180
f 180 206 209
f 180 209 207
f 181 208 182
f 182 192 183
f 182 208 192
f 183 192 207
f 183 207 209
f 183 209 210
f 183 210 184
f 184 210 211
f 184 211 185
f 186 188 212
f 186 212 189
f 187 213 188
f 188 213 214
f 188 214 199
f 188 190 189
f 188 189 212
f 191 192 208
f 193 215 216
f 193 216 217
f 193 217 196
f 194 218 236
f 194 236 215
f 194 199 218
f 195 219 222
f 195 222 197
f 196 217 220
f 196 220 221
f 196 221 219
f 197 222 223
f 197 223 198
f 198 223 227
f 198 227 200
f 199 224 225
f 199 225 218
f 199 214 226
f 199 226 224
f 200 227 228
f 200 228 201
f 201 228 229
f 201 229 202
f 202 229 230
f 202 230 203
f 203 230 231
f 203 231 204
f 204 231 232
f 204 232 205
f 205 232 209
f 205 209 206
f 209 232 233
f 209 233 210
f 210 233 234
f 210 234 235
f 210 235 211
f 214 217 216
f 214 216 215
f 214 215 236
f 214 236 226
f 218 225 224
f 218 224 236
f 219 221 222
f 220 237 221
f 221 238 239
f 221 239 223
f 221 223 222
f 221 237 238
f 223 239 227
f 224 226 236
f 227 239 228
f 228 239 229
f 229 239 230
f 230 240 231
f 230 239 240
f 231 233 232
f 231 240 233
f 233 240 241
f 233 241 234
f 234 241 242
f 234 242 243
f 234 243 235
f 237 244 242
f 237 242 238
f 238 242 245
f 238 245 239
f 239 245 240
f 240 245 241
f 241 245 242
f 242 246 243
f 242 244 246

