# https://github.com/mikedh/trimesh
v 19.70320072 -17.72620319 -12.89038963
v 19.70320072 -20.39520092 -12.33957454
v 19.70320072 -17.72620319 -3.15487034
v 31.55438916 -17.72620319 -12.89038963
v 19.70320072 -20.90736914 -12.11181447
v 27.84054399 -20.39520092 -12.33957454
v 19.70320072 -20.85468822 -3.70949672
v 30.31644015 -17.72620319 -3.15487034
v 32.17336458 -17.72620319 -12.88848399
v 19.70320072 -20.99598790 -12.07179048
v 27.22156949 -20.99598790 -12.07179048
v 28.45951849 -20.39520092 -12.33671516
v 27.84054399 -20.99180029 -12.07179048
v 19.70320072 -20.89760111 -3.76191014
v 27.22156949 -20.85468822 -3.70949672
v 27.84054399 -20.84980329 -3.70949672
v 30.93541558 -17.72620319 -3.15582409
v 32.73451589 -17.72620319 -12.67311336
v 30.93541558 -19.77627254 -12.24332399
v 29.69746658 -20.39520092 -12.28334983
v 29.07849300 -20.39520092 -12.32718511
v 19.70320072 -21.24579105 -11.58005948
v 27.22156949 -21.28870579 -11.49524462
v 28.45951849 -20.96074922 -12.06893109
v 27.84054399 -21.28033240 -11.49524462
v 19.70320072 -21.14740426 -4.06781256
v 27.22156949 -21.14740426 -4.06781256
v 27.84054399 -21.13798490 -4.06781256
v 28.45951849 -20.82363716 -3.70949672
v 29.07849300 -20.79049229 -3.70949672
v 29.69746658 -20.75385897 -3.72379179
v 31.47685374 -17.72620319 -3.19108305
v 32.85147575 -17.72620319 -12.54732076
v 31.89081688 -19.49925544 -11.85927923
v 31.27972782 -20.11120600 -11.86309051
v 30.93541558 -20.21412814 -11.97553993
v 30.31644015 -20.42101931 -12.08227243
v 29.69746658 -20.83584765 -12.01556577
v 29.07849300 -20.90597450 -12.05940289
v 19.70320072 -21.28870579 -11.49524462
v 27.22156949 -21.29010043 -10.87581538
v 19.70320072 -21.29010043 -10.96730091
v 28.45951849 -21.21718245 -11.49524462
v 27.84054399 -21.28137838 -10.87581538
v 19.70320072 -21.29010043 -4.68724179
v 27.22156949 -21.29010043 -4.68724179
v 27.84054399 -21.28137838 -4.68724179
v 28.45951849 -21.08007039 -4.06781256
v 30.03783655 -20.72106276 -3.74570943
v 32.17336458 -17.72620319 -3.30162683
v 33.00391965 -17.72620319 -12.31003249
v 31.90395897 -19.51495530 -11.49524462
v 31.60564223 -19.82441903 -11.49524462
v 32.46773722 -18.82764429 -11.49524462
v 32.19833346 -19.15769282 -11.49524462
v 31.29681217 -20.12376608 -11.49524462
v 30.93541558 -20.34251908 -11.49524462
v 30.47151284 -20.61430351 -11.49524462
v 30.16136931 -20.79328341 -11.49524462
v 30.11011624 -20.76397750 -11.92026896
v 29.07849300 -21.10728250 -11.49524462
v 29.69746658 -20.96703064 -11.49524462
v 28.45951849 -21.21753111 -10.87581538
v 28.45951849 -21.21753111 -4.68724179
v 29.07849300 -20.99180029 -4.06781256
v 29.69746658 -20.88504012 -4.06781256
v 30.10748745 -20.76118452 -4.06781256
v 31.27972782 -20.11120600 -4.22981787
v 31.20219240 -20.04282338 -3.81718296
v 30.78954273 -20.15132777 -3.72569743
v 31.40457405 -19.63008793 -3.72569743
v 32.74371388 -17.72620319 -3.53796321
v 33.06831482 -17.72620319 -12.02223643
v 32.67012072 -18.51817964 -11.49524462
v 31.90395897 -19.51495530 -4.68724179
v 31.60564223 -19.82441903 -4.68724179
v 32.46773722 -18.82764429 -4.68724179
v 32.19833346 -19.15769282 -4.68724179
v 31.29681217 -20.12376608 -4.68724179
v 30.93541558 -20.34251908 -4.68724179
v 30.47151284 -20.61430351 -4.68724179
v 30.16136931 -20.79328341 -4.68724179
v 29.07849300 -21.10728250 -4.68724179
v 29.69746658 -20.96703064 -4.68724179
v 31.89081688 -19.49925544 -4.23839417
v 31.54781995 -19.77069029 -4.02778856
v 31.81722372 -19.42005696 -3.82575926
v 32.53870344 -18.33326882 -3.72283805
v 32.91192682 -17.72620319 -3.73999251
v 32.97895077 -18.00147607 -11.49524462
v 33.12876588 -17.72620319 -11.49524462
v 32.66749193 -18.51817964 -4.68724179
v 32.61623886 -18.45189082 -4.06781256
v 32.39940164 -18.76135547 -4.06781256
v 33.02363279 -17.72620319 -3.92486919
v 32.97763730 -17.98821776 -4.68724179
v 33.11299499 -17.72620319 -4.68724179
v 33.09459717 -17.72620319 -4.32987970
v 33.07225708 -17.72620319 -4.17549880
v 32.95135311 -17.88529562 -4.04398928
f 1 2 5
f 1 5 10
f 1 10 22
f 1 22 40
f 1 40 42
f 1 42 45
f 1 45 26
f 1 26 14
f 1 14 7
f 1 7 3
f 1 3 8
f 1 8 17
f 1 17 32
f 1 32 50
f 1 50 72
f 1 72 89
f 1 89 95
f 1 95 99
f 1 99 98
f 1 98 97
f 1 97 91
f 1 91 73
f 1 73 51
f 1 51 33
f 1 33 18
f 1 18 9
f 1 9 4
f 1 4 6
f 1 6 2
f 2 6 5
f 3 7 15
f 3 15 8
f 4 9 6
f 5 6 11
f 5 11 10
f 6 9 12
f 6 12 13
f 6 13 11
f 7 14 15
f 8 15 16
f 8 16 17
f 9 18 19
f 9 19 20
f 9 20 21
f 9 21 12
f 10 11 22
f 11 13 23
f 11 23 22
f 12 21 13
f 13 21 24
f 13 24 25
f 13 25 23
f 14 26 27
f 14 27 15
f 15 27 16
f 16 27 28
f 16 28 29
f 16 29 17
f 17 29 30
f 17 30 31
f 17 31 32
f 18 33 34
f 18 34 35
f 18 35 36
f 18 36 19
f 19 36 37
f 19 37 20
f 20 37 38
f 20 38 39
f 20 39 21
f 21 39 24
f 22 23 40
f 23 25 41
f 23 41 42
f 23 42 40
f 24 39 25
f 25 39 43
f 25 43 44
f 25 44 41
f 26 45 46
f 26 46 27
f 27 46 47
f 27 47 28
f 28 47 48
f 28 48 31
f 28 31 30
f 28 30 29
f 31 48 49
f 31 49 32
f 32 49 50
f 33 51 34
f 34 52 53
f 34 53 35
f 34 51 54
f 34 54 55
f 34 55 52
f 35 53 56
f 35 56 57
f 35 57 58
f 35 58 59
f 35 59 60
f 35 60 36
f 36 60 37
f 37 60 38
f 38 61 43
f 38 43 39
f 38 60 62
f 38 62 61
f 41 44 47
f 41 47 46
f 41 46 45
f 41 45 42
f 43 63 44
f 43 61 63
f 44 63 64
f 44 64 47
f 47 64 48
f 48 64 65
f 48 65 49
f 49 65 66
f 49 66 67
f 49 67 68
f 49 68 69
f 49 69 70
f 49 70 50
f 50 70 71
f 50 71 72
f 51 73 74
f 51 74 54
f 52 75 76
f 52 76 53
f 52 55 78
f 52 78 75
f 53 76 79
f 53 79 56
f 54 74 77
f 54 77 78
f 54 78 55
f 56 79 80
f 56 80 57
f 57 80 81
f 57 81 58
f 58 81 82
f 58 82 59
f 59 82 84
f 59 84 62
f 59 62 60
f 61 62 84
f 61 84 83
f 61 83 64
f 61 64 63
f 64 83 66
f 64 66 65
f 66 84 67
f 66 83 84
f 67 84 82
f 67 82 68
f 68 81 80
f 68 80 79
f 68 79 76
f 68 76 85
f 68 85 86
f 68 86 69
f 68 82 81
f 69 86 87
f 69 87 71
f 69 71 70
f 71 87 72
f 72 87 88
f 72 88 89
f 73 90 74
f 73 91 90
f 74 90 92
f 74 92 77
f 75 85 76
f 75 78 85
f 77 92 93
f 77 93 94
f 77 94 85
f 77 85 78
f 85 87 86
f 85 94 87
f 87 94 88
f 88 94 93
f 88 93 95
f 88 95 89
f 90 91 96
f 90 96 92
f 91 97 96
f 92 96 98
f 92 98 99
f 92 99 93
f 93 99 100
f 93 100 95
f 95 100 99
f 96 97 98

