# https://github.com/mikedh/trimesh
v 19.70320072 -16.68120725 -15.24045077
v 19.70320072 -17.19427848 -15.09498377
v 19.70320072 -11.72959941 -15.24045077
v 32.79204669 -16.68120725 -15.24045077
v 19.70320072 -17.28315735 -15.06905746
v 32.17361362 -17.28315735 -15.06905746
v 19.70320072 -11.18555552 -15.06905746
v 34.64893791 -11.72959941 -15.24045077
v 34.03050300 -13.58662069 -15.24045077
v 33.41206994 -15.44296862 -15.23901185
v 33.41206994 -16.06242461 -15.17851836
v 33.23242315 -17.17879169 -15.01288440
v 32.79204669 -17.27777064 -15.06905746
v 19.70320072 -17.53901963 -14.66001430
v 32.17361362 -17.58278573 -14.58944102
v 19.70320072 -11.14784947 -14.99848049
v 34.64893791 -11.18555552 -15.06905746
v 35.26895931 -11.20912192 -15.04313115
v 35.64256456 -11.29530697 -14.97831722
v 35.31983421 -11.77403884 -15.08345768
v 34.64893791 -12.34905539 -15.23901185
v 34.03050300 -14.20607667 -15.23036729
v 33.42796811 -16.64956126 -15.05609246
v 34.03050300 -14.82418598 -15.15835509
v 33.83018749 -16.06242461 -15.00856397
v 33.74592975 -16.42197829 -14.93222764
v 33.29919438 -17.27305727 -14.58944102
v 32.79204669 -17.56931895 -14.58944102
v 19.70320072 -17.58278573 -14.58944102
v 32.17361362 -17.72552986 -12.88845816
v 31.55518056 -17.72552986 -12.88989708
v 19.70320072 -10.93036658 -14.58944102
v 34.64893791 -10.93036658 -14.58944102
v 35.26895931 -10.98759900 -14.58944102
v 35.67595109 -11.23268831 -14.58944102
v 35.94462617 -10.84754822 -11.49425583
v 35.64256456 -11.59762870 -14.97831722
v 35.19106048 -12.34905539 -15.06905746
v 34.64893791 -12.96783804 -15.19580380
v 34.04163246 -15.39718343 -15.04601267
v 34.53288198 -14.20607667 -15.06041290
v 34.42159476 -14.82418598 -14.98840070
v 34.35323335 -15.16084706 -14.91782742
v 33.60920693 -16.75729269 -14.58944102
v 33.12749484 -17.72552986 -11.49425583
v 33.06867270 -17.72552986 -12.02284336
v 33.00349166 -17.72552986 -12.30946062
v 32.85087067 -17.72552986 -12.54710862
v 32.73322455 -17.72552986 -12.67241419
v 19.70320072 -17.72552986 -12.88989708
v 19.70320072 -10.84754822 -12.97919471
v 34.64893791 -10.84754822 -12.97919471
v 35.31188512 -10.84754822 -12.75307095
v 35.42317049 -10.84754822 -12.63784701
v 35.58850929 -10.84754822 -12.45637022
v 35.76179902 -10.84754822 -12.14382666
v 35.94303599 -10.84754822 -5.92465582
v 35.86831568 -11.11081676 -11.49425583
v 35.67595109 -11.68583377 -14.58944102
v 35.00187442 -13.39203132 -14.95527243
v 35.07977326 -12.96783804 -15.02584940
v 34.50426416 -14.82418598 -14.58944102
v 34.35959410 -15.17431383 -14.58944102
v 34.21333016 -15.48404137 -14.58944102
v 33.93988452 -16.06242461 -14.58944102
v 33.75705736 -16.44756516 -14.58944102
v 35.20218809 -12.96783804 -14.58944102
v 35.02254131 -13.44926327 -14.58944102
v 33.61079527 -16.75729269 -13.97011509
v 33.34688890 -17.29998990 -11.49425583
v 33.14657338 -17.69186292 -11.49425583
v 33.11318685 -17.72552986 -4.68744656
v 19.70320072 -17.72552986 -3.15497918
v 19.70320072 -10.84754822 -3.17802213
v 35.94144580 -10.84754822 -4.68744656
v 35.86513530 -11.11081676 -5.30677065
v 35.86672549 -11.11081676 -7.78262991
v 35.67595109 -11.69593339 -9.63772249
v 35.67595109 -11.69526005 -10.25704842
v 35.56625406 -12.00498851 -10.25704842
v 34.92397374 -13.79804352 -5.30677065
v 34.92079336 -13.79131106 -7.16330583
v 34.74432511 -14.20607667 -13.97011509
v 34.75545457 -14.20607667 -10.87637250
v 34.50744453 -14.82418598 -13.35223177
v 34.36118244 -15.17768053 -13.35223177
v 33.95419250 -16.06242461 -8.39907432
v 33.61397564 -16.76537276 -10.25704842
v 33.76341626 -16.45968433 -9.01839841
v 33.76500645 -16.46170435 -7.78262991
v 33.61397564 -16.76941279 -9.01839841
v 33.61397564 -16.77075947 -8.39907432
v 33.76818682 -16.46305103 -4.68744656
v 33.60761674 -16.77277948 -4.68744656
v 33.33417110 -17.29998990 -4.68744656
v 33.09411015 -17.72552986 -4.33025418
v 33.94783360 -16.06242461 -0.52644911
v 33.75705736 -16.42332496 -0.52644911
v 20.41384246 -17.66493029 -0.52644911
v 20.01957125 -17.66425695 -0.52644911
v 19.79540939 -17.66021692 -0.52644911
v 19.75725415 -17.65887116 -0.52644911
v 19.70320072 -17.65685115 -0.52644911
v 30.31672425 -17.72552986 -3.15497918
v 19.70320072 -10.89939392 -0.52644911
v 20.38840547 -10.86774792 -0.52644911
v 21.03386571 -10.85697450 -0.52644911
v 31.55518056 -10.84754822 -3.17802213
v 35.86354512 -11.11081676 -4.68744656
v 35.89216294 -10.84754822 -4.33169494
v 34.89376757 -13.58662069 -0.52644911
v 34.74909382 -14.20607667 -0.52644911
v 35.67277072 -11.68785379 -4.68744656
v 35.67436091 -11.68987334 -5.92465582
v 35.67595109 -11.69458671 -9.01839841
v 35.56625406 -12.00364183 -8.39907432
v 35.56625406 -12.00566185 -9.63772249
v 35.03525911 -13.48966267 -4.68744656
v 34.92397374 -13.79939020 -4.68744656
v 34.76817237 -14.20607667 -5.30677065
v 34.76340181 -14.20607667 -7.78262991
v 34.51221509 -14.82418598 -10.87637250
v 34.36118244 -15.17835387 -12.73290584
v 34.22128109 -15.48942808 -7.78262991
v 33.95896306 -16.06242461 -5.30677065
v 33.95737288 -16.06242461 -6.54397990
v 34.51380343 -14.82418598 -9.01839841
v 33.76818682 -16.46237769 -5.92465582
v 33.76818682 -16.46372437 -5.30677065
v 33.95896306 -16.06242461 -4.68744656
v 34.22128109 -15.48942808 -0.52644911
v 33.19426791 -17.07914032 -0.52644911
v 33.07185307 -17.72552986 -4.17614446
v 33.50427861 -16.73305342 -0.52644911
v 33.28011583 -16.98756901 -0.52644911
v 30.93515731 -17.66493029 -0.52644911
v 30.93515731 -17.72552986 -3.15641810
v 31.56789836 -10.85697450 -0.52644911
v 32.17361362 -10.84754822 -3.18090365
v 35.83810951 -10.84754822 -4.06812248
v 34.89376757 -12.96783804 -0.52644911
v 34.58057465 -14.65114253 -0.52644911
v 35.43906867 -12.34905539 -4.68744656
v 35.56466387 -11.99960180 -5.92465582
v 34.76817237 -14.20607667 -4.68744656
v 34.36118244 -15.17970055 -10.25704842
v 34.36118244 -15.18037296 -8.39907432
v 34.51380343 -14.82418598 -0.52644911
v 34.40410824 -15.08072159 -0.52644911
v 34.36118244 -15.18037296 -0.52644911
v 32.79204669 -17.30941664 -0.52644911
v 33.02415855 -17.72552986 -3.92553331
v 31.47727988 -17.72552986 -3.19098528
v 32.17361362 -17.72552986 -3.30188694
v 32.74435217 -17.72552986 -3.53809603
v 31.55518056 -17.65146444 -0.52644911
v 32.17361362 -10.86438123 -0.52644911
v 35.65687254 -10.84754822 -3.71669130
v 32.83815102 -10.84754822 -3.25435845
v 32.79204669 -10.84754822 -3.24859725
v 35.75544012 -10.84754822 -3.86792134
v 34.73001712 -12.34905539 -0.52644911
v 32.18474308 -17.53430626 -0.52644911
v 32.91128299 -17.72552986 -3.73973608
v 32.22925723 -10.86976794 -0.52644911
v 33.87152311 -11.29261362 -0.52644911
v 34.18153565 -11.56598270 -0.52644911
v 34.26420505 -11.65284063 -0.52644911
v 34.47564818 -11.87571023 -0.52644911
v 32.76661109 -10.93171326 -0.52644911
v 32.95579714 -10.97480602 -0.52644911
v 33.41206994 -11.09331088 -0.52644911
f 1 2 5
f 1 5 14
f 1 14 29
f 1 29 50
f 1 50 73
f 1 73 103
f 1 103 105
f 1 105 74
f 1 74 51
f 1 51 32
f 1 32 16
f 1 16 7
f 1 7 3
f 1 3 8
f 1 8 9
f 1 9 4
f 1 4 2
f 2 4 6
f 2 6 5
f 3 7 17
f 3 17 8
f 4 9 10
f 4 10 11
f 4 11 12
f 4 12 13
f 4 13 6
f 5 6 14
f 6 13 15
f 6 15 14
f 7 16 17
f 8 17 18
f 8 18 19
f 8 19 20
f 8 20 21
f 8 21 9
f 9 21 10
f 10 21 22
f 10 22 11
f 11 23 12
f 11 22 24
f 11 24 25
f 11 25 23
f 12 23 25
f 12 25 26
f 12 26 27
f 12 27 28
f 12 28 13
f 13 28 15
f 14 15 29
f 15 28 30
f 15 30 31
f 15 31 50
f 15 50 29
f 16 32 33
f 16 33 17
f 17 33 18
f 18 34 19
f 18 33 34
f 19 35 36
f 19 36 37
f 19 37 20
f 19 34 35
f 20 37 38
f 20 38 39
f 20 39 21
f 21 39 22
f 22 39 24
f 24 40 25
f 24 39 41
f 24 41 40
f 25 40 42
f 25 42 43
f 25 43 26
f 26 44 27
f 26 43 44
f 27 44 45
f 27 45 46
f 27 46 28
f 28 46 47
f 28 47 48
f 28 48 49
f 28 49 30
f 30 49 48
f 30 48 47
f 30 47 46
f 30 46 45
f 30 45 72
f 30 72 96
f 30 96 133
f 30 133 152
f 30 152 164
f 30 164 155
f 30 155 154
f 30 154 153
f 30 153 137
f 30 137 104
f 30 104 73
f 30 73 50
f 30 50 31
f 32 51 52
f 32 52 33
f 33 52 53
f 33 53 54
f 33 54 55
f 33 55 34
f 34 55 56
f 34 56 35
f 35 56 36
f 36 56 55
f 36 55 54
f 36 54 53
f 36 53 52
f 36 52 51
f 36 51 74
f 36 74 108
f 36 108 139
f 36 139 160
f 36 160 159
f 36 159 158
f 36 158 161
f 36 161 140
f 36 140 110
f 36 110 75
f 36 75 57
f 36 57 58
f 36 58 59
f 36 59 37
f 37 59 60
f 37 60 61
f 37 61 38
f 38 61 39
f 39 61 41
f 40 41 42
f 41 61 42
f 42 61 60
f 42 60 43
f 43 62 63
f 43 63 64
f 43 64 65
f 43 65 66
f 43 66 44
f 43 60 59
f 43 59 67
f 43 67 68
f 43 68 62
f 44 66 69
f 44 69 70
f 44 70 71
f 44 71 45
f 45 71 72
f 57 75 76
f 57 76 77
f 57 77 58
f 58 77 78
f 58 78 79
f 58 79 59
f 59 79 80
f 59 80 81
f 59 81 82
f 59 82 67
f 62 83 84
f 62 84 85
f 62 85 63
f 62 68 83
f 63 86 64
f 63 85 86
f 64 86 65
f 65 86 87
f 65 87 66
f 66 87 69
f 67 82 84
f 67 84 83
f 67 83 68
f 69 88 70
f 69 87 89
f 69 89 90
f 69 90 88
f 70 88 91
f 70 91 92
f 70 92 93
f 70 93 71
f 71 93 94
f 71 94 95
f 71 95 72
f 72 95 97
f 72 97 98
f 72 98 96
f 73 99 100
f 73 100 101
f 73 101 102
f 73 102 103
f 73 104 136
f 73 136 99
f 74 105 106
f 74 106 107
f 74 107 138
f 74 138 108
f 75 109 76
f 75 110 111
f 75 111 112
f 75 112 109
f 76 109 113
f 76 113 114
f 76 114 115
f 76 115 78
f 76 78 77
f 78 115 116
f 78 116 117
f 78 117 80
f 78 80 79
f 80 117 118
f 80 118 119
f 80 119 81
f 81 119 120
f 81 120 121
f 81 121 84
f 81 84 82
f 84 121 85
f 85 121 120
f 85 120 122
f 85 122 86
f 86 123 124
f 86 124 125
f 86 125 126
f 86 126 87
f 86 122 127
f 86 127 123
f 87 126 128
f 87 128 90
f 87 90 89
f 88 90 128
f 88 128 91
f 91 128 129
f 91 129 92
f 92 129 93
f 93 129 130
f 93 130 131
f 93 131 97
f 93 97 94
f 94 97 95
f 96 132 133
f 96 98 134
f 96 134 135
f 96 135 132
f 97 131 150
f 97 150 149
f 97 149 148
f 97 148 142
f 97 142 112
f 97 112 111
f 97 111 141
f 97 141 162
f 97 162 169
f 97 169 168
f 97 168 167
f 97 167 166
f 97 166 172
f 97 172 171
f 97 171 170
f 97 170 165
f 97 165 157
f 97 157 138
f 97 138 107
f 97 107 106
f 97 106 105
f 97 105 103
f 97 103 102
f 97 102 101
f 97 101 100
f 97 100 99
f 97 99 136
f 97 136 156
f 97 156 163
f 97 163 151
f 97 151 132
f 97 132 135
f 97 135 134
f 97 134 98
f 104 137 136
f 108 138 139
f 109 112 113
f 110 140 111
f 111 140 141
f 112 142 119
f 112 119 118
f 112 118 143
f 112 143 113
f 113 143 114
f 114 143 118
f 114 118 144
f 114 144 116
f 114 116 115
f 116 144 118
f 116 118 117
f 119 142 145
f 119 145 120
f 120 145 148
f 120 148 127
f 120 127 122
f 123 127 146
f 123 146 124
f 124 146 147
f 124 147 150
f 124 150 131
f 124 131 130
f 124 130 125
f 125 130 129
f 125 129 128
f 125 128 126
f 127 148 149
f 127 149 147
f 127 147 146
f 132 151 152
f 132 152 133
f 136 137 153
f 136 153 154
f 136 154 155
f 136 155 156
f 138 157 158
f 138 158 159
f 138 159 160
f 138 160 139
f 140 161 141
f 141 161 162
f 142 148 145
f 147 149 150
f 151 163 152
f 152 163 156
f 152 156 164
f 155 164 156
f 157 165 158
f 158 166 167
f 158 167 168
f 158 168 169
f 158 169 161
f 158 165 170
f 158 170 171
f 158 171 172
f 158 172 166
f 161 169 162

