# https://github.com/mikedh/trimesh
v 28.31306731 -8.67383774 9.66979946
v 29.42338265 -8.63350936 17.01046214
v 28.31306731 -8.63350936 9.66979946
v 28.32302811 -9.25329924 9.66979946
v 29.42874722 -9.25329924 17.01046214
v 29.42338265 8.69726569 17.01046214
v 28.31459939 -8.01371947 9.66979946
v 28.32992476 -9.27452510 9.66979946
v 29.69157440 -9.87096673 17.01046214
v 29.42414822 8.75245272 17.01046214
v 28.37436789 5.62378598 9.66979946
v 28.36823774 4.99762797 9.66979946
v 28.36287409 4.36934756 9.66979946
v 28.35980901 3.74531287 9.66979946
v 28.32609319 -4.91901345 9.66979946
v 28.32149604 -6.15647129 9.66979946
v 28.57972607 -9.77545132 9.66979946
v 29.98045518 -10.20845519 17.01046214
v 29.44330610 9.31493317 17.01046214
v 28.40731721 6.30088530 9.66979946
v 28.65558644 -9.86035380 9.66979946
v 30.30458570 -10.51835059 17.01046214
v 29.46169470 9.35314008 17.01046214
v 28.89006329 8.93287153 9.66979946
v 28.83872352 8.80976215 9.66979946
v 28.72531667 8.49774434 9.66979946
v 28.64179314 8.20482999 9.66979946
v 28.54907532 7.65932966 9.66979946
v 28.47015079 7.05652082 9.66979946
v 29.27319490 -10.36128003 9.66979946
v 30.61415551 -10.80914255 17.01046214
v 30.59806363 -10.79428390 17.01046214
v 29.73525103 9.91986533 17.01046214
v 29.13986460 9.28097200 9.66979946
v 29.65556092 -10.61386600 9.66979946
v 29.96436330 -10.81338735 9.66979946
v 30.03102938 -10.81975547 9.66979946
v 30.93675303 -10.83249080 17.01046214
v 30.00497578 10.21065729 17.01046214
v 29.42184965 9.59086740 9.66979946
v 30.32604030 -10.84098040 9.66979946
v 30.96893494 -10.83461320 17.01046214
v 30.02336623 10.22976074 17.01046214
v 29.48161815 9.65242163 9.66979946
v 30.43714858 -10.84522613 9.66979946
v 31.55589264 -10.84947093 17.01046214
v 30.10075960 10.26796672 9.66979946
v 30.04099110 10.21065729 9.66979946
v 29.98122260 10.15122546 9.66979946
v 30.32987188 10.51206217 17.01046214
v 30.35056090 10.50569404 9.66979946
v 30.93675303 -10.85371665 9.66979946
v 34.65006506 -10.84947093 17.01046214
v 30.93675303 10.79860932 9.66979946
v 30.93675303 10.80709892 17.01046214
v 31.05629003 -10.85371665 9.66979946
v 34.73588716 -10.84522613 9.66979946
v 35.09603116 -10.82400027 16.35945977
v 35.07764071 -10.82400027 16.97812758
v 35.07534029 -10.82400027 17.01046214
v 34.65006506 -10.84947093 9.66979946
v 31.55589264 10.83044810 9.66979946
v 31.55589264 10.83044810 17.01046214
v 35.09603116 -10.82400027 9.66979946
v 35.40560096 -10.75607792 16.35945977
v 35.36958564 -10.74546499 17.01046214
v 34.65006506 10.83044810 9.66979946
v 34.65006506 10.83044810 17.01046214
v 35.40560096 -10.75607792 9.66979946
v 35.48682407 -10.69664609 9.66979946
v 35.82627904 -10.44618344 16.35945977
v 35.80942159 -10.43132479 16.97812758
v 35.38721052 -10.74122019 16.97812758
v 35.38491194 -10.73909779 17.01046214
v 35.26920651 10.75827910 9.66979946
v 35.23702276 10.74766801 17.01046214
v 35.26920651 10.75827910 16.35945977
v 35.82627904 -10.44618344 9.66979946
v 36.10749852 -9.87096673 16.35945977
v 36.07531477 -9.87096673 16.97812758
v 35.80788859 -10.42920239 17.01046214
v 35.69524732 10.52267509 9.66979946
v 35.26920651 10.74129989 17.01046214
v 35.26920651 10.74342137 16.97812758
v 35.79716129 10.46536566 16.35945977
v 36.10749852 -9.87096673 9.66979946
v 36.14044784 -9.25329924 16.35945977
v 36.10979709 -9.25329924 16.97812758
v 36.07148320 -9.87096673 17.01046214
v 36.05922290 -9.89855978 17.01046214
v 36.10673110 -9.25329924 17.01046214
v 35.79716129 10.46536566 9.66979946
v 35.75425024 10.46536566 17.01046214
v 35.78030384 10.45050794 16.97812758
v 36.07761335 9.93472398 16.35945977
v 36.14044784 -9.25329924 9.66979946
v 36.14044784 9.31493317 16.35945977
v 36.10979709 9.31493317 16.97812758
v 36.10673110 9.31493317 17.01046214
v 36.07761335 9.93472398 9.66979946
v 35.77800527 10.44838461 17.01046214
v 35.79026557 10.42503728 17.01046214
v 36.04619702 9.93472398 16.97812758
v 36.08987365 9.81585940 9.66979946
v 36.14044784 9.31493317 9.66979946
v 36.04236545 9.93472398 17.01046214
f 1 2 6
f 1 6 3
f 1 3 7
f 1 7 16
f 1 16 15
f 1 15 14
f 1 14 13
f 1 13 12
f 1 12 11
f 1 11 20
f 1 20 29
f 1 29 28
f 1 28 27
f 1 27 26
f 1 26 25
f 1 25 24
f 1 24 34
f 1 34 40
f 1 40 44
f 1 44 49
f 1 49 48
f 1 48 47
f 1 47 51
f 1 51 54
f 1 54 62
f 1 62 67
f 1 67 75
f 1 75 82
f 1 82 92
f 1 92 100
f 1 100 104
f 1 104 105
f 1 105 96
f 1 96 86
f 1 86 78
f 1 78 70
f 1 70 69
f 1 69 64
f 1 64 57
f 1 57 61
f 1 61 56
f 1 56 52
f 1 52 45
f 1 45 41
f 1 41 37
f 1 37 36
f 1 36 35
f 1 35 30
f 1 30 21
f 1 21 17
f 1 17 8
f 1 8 4
f 1 4 5
f 1 5 2
f 2 5 9
f 2 9 18
f 2 18 22
f 2 22 32
f 2 32 31
f 2 31 38
f 2 38 42
f 2 42 46
f 2 46 53
f 2 53 60
f 2 60 66
f 2 66 74
f 2 74 81
f 2 81 90
f 2 90 89
f 2 89 91
f 2 91 99
f 2 99 106
f 2 106 102
f 2 102 101
f 2 101 93
f 2 93 83
f 2 83 76
f 2 76 68
f 2 68 63
f 2 63 55
f 2 55 50
f 2 50 43
f 2 43 39
f 2 39 33
f 2 33 23
f 2 23 19
f 2 19 10
f 2 10 6
f 3 6 7
f 4 8 5
f 5 8 9
f 6 10 11
f 6 11 12
f 6 12 13
f 6 13 14
f 6 14 15
f 6 15 16
f 6 16 7
f 8 17 9
f 9 17 18
f 10 19 11
f 11 19 20
f 17 21 18
f 18 21 22
f 19 23 24
f 19 24 25
f 19 25 26
f 19 26 27
f 19 27 28
f 19 28 29
f 19 29 20
f 21 30 31
f 21 31 32
f 21 32 22
f 23 33 24
f 24 33 34
f 30 35 31
f 31 36 37
f 31 37 38
f 31 35 36
f 33 39 40
f 33 40 34
f 37 41 38
f 38 41 42
f 39 43 40
f 40 43 44
f 41 45 42
f 42 45 46
f 43 47 48
f 43 48 49
f 43 49 44
f 43 50 51
f 43 51 47
f 45 52 46
f 46 52 56
f 46 56 53
f 50 54 51
f 50 55 54
f 53 57 58
f 53 58 59
f 53 59 60
f 53 56 61
f 53 61 57
f 54 55 62
f 55 63 62
f 57 64 58
f 58 64 69
f 58 69 65
f 58 65 59
f 59 65 60
f 60 65 66
f 62 63 68
f 62 68 67
f 65 69 70
f 65 70 71
f 65 71 72
f 65 72 73
f 65 73 66
f 66 73 74
f 67 68 77
f 67 77 75
f 68 76 77
f 70 78 71
f 71 78 86
f 71 86 79
f 71 79 72
f 72 79 80
f 72 80 81
f 72 81 73
f 73 81 74
f 75 77 82
f 76 83 84
f 76 84 77
f 77 84 85
f 77 85 82
f 79 86 96
f 79 96 87
f 79 87 88
f 79 88 80
f 80 89 90
f 80 90 81
f 80 88 91
f 80 91 89
f 82 85 92
f 83 93 84
f 84 93 85
f 85 93 94
f 85 94 95
f 85 95 100
f 85 100 92
f 87 96 105
f 87 105 97
f 87 97 98
f 87 98 88
f 88 98 99
f 88 99 91
f 93 101 94
f 94 101 102
f 94 102 103
f 94 103 95
f 95 103 98
f 95 98 97
f 95 97 104
f 95 104 100
f 97 105 104
f 98 103 99
f 99 103 106
f 102 106 103

