mtllib material.mtl
usemtl mtl_lift_low_500mm
v -0.08120710 0.07605825 -0.23639999
v -0.07526536 0.08100000 -0.23639999
v -0.08100000 0.07526536 -0.23639999
v -0.08100000 0.07526536 -0.23840000
v -0.08142378 0.07573379 -0.23639999
v -0.08150000 0.07535115 -0.23639999
v -0.08150000 0.01791421 -0.23639999
v -0.08100000 0.01700000 -0.23639999
v -0.08100000 -0.07526536 -0.23840000
v -0.07605825 0.08120710 -0.23639999
v -0.01700000 0.08100000 -0.23639999
v -0.07526536 0.08100000 -0.23840000
v -0.01720711 0.08120710 -0.23639999
v -0.01720711 0.08120710 0.23800001
v 0.01579289 0.07979289 -0.23639999
v 0.01700000 0.08100000 -0.23639999
v -0.01579289 0.07979289 -0.23639999
v 0.01546843 0.07957622 -0.23639999
v 0.01508579 0.07950000 -0.23639999
v -0.01508579 0.07950000 -0.23639999
v -0.01546843 0.07957622 -0.23639999
v -0.07573379 0.08142378 -0.23639999
v -0.01753157 0.08142378 -0.23639999
v -0.07535115 0.08150000 -0.23639999
v -0.01791421 0.08150000 -0.23639999
v -0.01753157 0.08142378 0.23800001
v -0.07535115 0.08150000 0.23800001
v -0.01791421 0.08150000 0.23800001
v -0.07573379 0.08142378 0.23800001
v -0.08120710 0.07605825 0.23800001
v -0.07605825 0.08120710 0.23800001
v -0.08142378 0.07573379 0.23800001
v -0.08150000 0.01791421 0.23800001
v -0.08150000 0.07535115 0.23800001
v -0.08142378 0.01753157 -0.23639999
v -0.08120710 0.01720711 -0.23639999
v -0.08142378 0.01753157 0.23800001
v -0.07979289 0.01579289 0.23800001
v -0.08120710 0.01720711 0.23800001
v -0.07979289 -0.01579289 -0.23639999
v -0.08100000 -0.01700000 -0.23639999
v -0.07979289 0.01579289 -0.23639999
v 0.08100000 0.07526536 -0.23639999
v 0.08120710 0.01720711 -0.23639999
v 0.08100000 0.01700000 -0.23639999
v 0.08120710 0.01720711 0.23800001
v 0.08100000 0.07526536 -0.23840000
v 0.07979289 0.01579289 -0.23639999
v 0.08100000 -0.01700000 -0.23639999
v 0.08142378 0.01753157 -0.23639999
v 0.08150000 0.01791421 -0.23639999
v 0.08142378 0.01753157 0.23800001
v 0.08150000 0.07535115 -0.23639999
v 0.08150000 0.07535115 0.23800001
v 0.08150000 0.01791421 0.23800001
v 0.07526536 0.08100000 -0.23639999
v 0.08142378 0.07573379 -0.23639999
v 0.08120710 0.07605825 -0.23639999
v 0.08142378 0.07573379 0.23800001
v 0.07605825 0.08120710 -0.23639999
v 0.07605825 0.08120710 0.23800001
v 0.08120710 0.07605825 0.23800001
v 0.01753157 0.08142378 -0.23639999
v 0.07573379 0.08142378 -0.23639999
v 0.01720711 0.08120710 -0.23639999
v 0.01791421 0.08150000 -0.23639999
v 0.07535115 0.08150000 -0.23639999
v 0.07573379 0.08142378 0.23800001
v 0.01791421 0.08150000 0.23800001
v 0.07535115 0.08150000 0.23800001
v 0.01753157 0.08142378 0.23800001
v 0.01579289 0.07979289 0.23800001
v 0.01720711 0.08120710 0.23800001
v 0.07526536 0.08100000 -0.23840000
v -0.07573379 -0.08142378 -0.23639999
v -0.03000000 -0.08150000 -0.23639999
v -0.07535115 -0.08150000 -0.23639999
v -0.03000000 -0.08150000 -0.21140000
v -0.07573379 -0.08142378 0.23800001
v -0.07535115 -0.08150000 0.23800001
v -0.01791421 -0.08150000 0.23800001
v 0.03000000 -0.08250000 -0.23639999
v -0.03000000 -0.08250000 -0.23639999
v -0.03000000 -0.08250000 -0.21140000
v 0.03000000 -0.08150000 -0.23639999
v 0.03000000 -0.08150000 -0.21140000
v 0.03000000 -0.08250000 -0.21140000
v 0.07573379 -0.08142378 -0.23639999
v 0.07535115 -0.08150000 0.23800001
v 0.07535115 -0.08150000 -0.23639999
v -0.07605825 -0.08120710 -0.23639999
v 0.07605825 -0.08120710 -0.23639999
v 0.07573379 -0.08142378 0.23800001
v 0.07526536 -0.08100000 -0.23639999
v 0.08120710 -0.07605825 -0.23639999
v 0.08120710 -0.07605825 0.23800001
v -0.07526536 -0.08100000 -0.23639999
v 0.07605825 -0.08120710 0.23800001
v 0.08100000 -0.07526536 -0.23639999
v 0.08142378 -0.07573379 -0.23639999
v 0.08150000 -0.07535115 -0.23639999
v 0.08142378 -0.07573379 0.23800001
v 0.08150000 -0.01791421 -0.23639999
v 0.08150000 -0.01791421 0.23800001
v 0.08150000 -0.07535115 0.23800001
v 0.08142378 -0.01753157 -0.23639999
v 0.08120710 -0.01720711 -0.23639999
v 0.08142378 -0.01753157 0.23800001
v 0.07979289 -0.01579289 0.23800001
v 0.08120710 -0.01720711 0.23800001
v 0.07979289 -0.01579289 -0.23639999
v 0.08100000 -0.07526536 -0.23840000
v 0.07526536 -0.08100000 -0.23840000
v -0.08150000 -0.07535115 -0.23639999
v -0.08100000 -0.07526536 -0.23639999
v -0.07526536 -0.08100000 -0.23840000
v -0.08142378 -0.07573379 -0.23639999
v -0.08120710 -0.07605825 -0.23639999
v -0.08120710 -0.01720711 -0.23639999
v -0.08142378 -0.01753157 -0.23639999
v -0.08150000 -0.01791421 -0.23639999
v -0.08120710 -0.01720711 0.23800001
v -0.08142378 -0.01753157 0.23800001
v -0.08150000 -0.07535115 0.23800001
v -0.08150000 -0.01791421 0.23800001
v -0.08142378 -0.07573379 0.23800001
v -0.07605825 -0.08120710 0.23800001
v -0.08120710 -0.07605825 0.23800001
v -0.07653473 0.07653473 0.23800001
v -0.07800000 0.07300000 0.23800001
v -0.07300000 0.07800000 0.23800001
v -0.01579289 0.07979289 0.23800001
v -0.01546843 0.07957622 0.23800001
v -0.01508579 0.07950000 0.23800001
v 0.01508579 0.07950000 0.23800001
v 0.01546843 0.07957622 0.23800001
v 0.07300000 0.07800000 0.23800001
v 0.07653473 0.07653473 0.23800001
v 0.07800000 0.07300000 0.23800001
v 0.07300000 0.06214100 0.23800001
v 0.07653473 0.06946526 0.23800001
v 0.07979289 0.01579289 0.23800001
v 0.07957622 0.01546843 0.23800001
v 0.07950000 0.01508579 0.23800001
v 0.07957622 0.01546843 -0.23639999
v 0.07300000 -0.06214100 0.23800001
v 0.07950000 -0.01508579 0.23800001
v 0.07950000 -0.01508579 -0.23639999
v 0.07950000 0.01508579 -0.23639999
v 0.07957622 -0.01546843 0.23800001
v 0.07957622 -0.01546843 -0.23639999
v 0.07800000 -0.07300000 0.23800001
v 0.07300000 -0.06800000 0.23800001
v 0.07653473 -0.06946526 0.23800001
v 0.07653473 -0.07653473 0.23800001
v 0.07300000 -0.07800000 0.23800001
v 0.01753157 -0.08142378 0.23800001
v 0.01720711 -0.08120710 0.23800001
v 0.01791421 -0.08150000 0.23800001
v 0.01791421 -0.08150000 -0.21140000
v 0.01753157 -0.08142378 -0.21140000
v 0.01579289 -0.07979289 0.23800001
v 0.01579289 -0.07979289 -0.21140000
v 0.01720711 -0.08120710 -0.21140000
v 0.01546843 -0.07957622 0.23800001
v 0.01508579 -0.07950000 0.23800001
v 0.01546843 -0.07957622 -0.21140000
v -0.01508579 -0.07950000 0.23800001
v -0.01508579 -0.07950000 -0.21140000
v 0.01508579 -0.07950000 -0.21140000
v -0.01546843 -0.07957622 0.23800001
v -0.07300000 -0.07800000 0.23800001
v -0.01579289 -0.07979289 0.23800001
v -0.01546843 -0.07957622 -0.21140000
v -0.01720711 -0.08120710 0.23800001
v -0.01720711 -0.08120710 -0.21140000
v -0.01579289 -0.07979289 -0.21140000
v -0.01753157 -0.08142378 0.23800001
v -0.01753157 -0.08142378 -0.21140000
v -0.01791421 -0.08150000 -0.21140000
v -0.07653473 -0.07653473 0.23800001
v -0.07800000 -0.07300000 0.23800001
v -0.07300000 -0.06214100 0.23800001
v -0.07653473 -0.06946526 0.23800001
v -0.07979289 -0.01579289 0.23800001
v -0.07957622 -0.01546843 0.23800001
v -0.07950000 -0.01508579 0.23800001
v -0.07957622 -0.01546843 -0.23639999
v -0.07300000 0.06214100 0.23800001
v -0.07950000 0.01508579 0.23800001
v -0.07950000 0.01508579 -0.23639999
v -0.07950000 -0.01508579 -0.23639999
v -0.07957622 0.01546843 0.23800001
v -0.07957622 0.01546843 -0.23639999
v -0.07300000 0.06800000 0.23800001
v -0.07653473 0.06946526 0.23800001
v -0.07300000 -0.06214100 -0.23639999
v -0.06946526 0.06946526 0.23800001
v -0.06214100 0.07300000 0.23800001
v -0.07300000 0.06214100 -0.23639999
v -0.06946526 -0.06946526 0.23800001
v -0.06214100 -0.07300000 0.23800001
v -0.06214100 -0.07300000 -0.23639999
v -0.07300000 -0.06800000 0.23800001
v -0.06946526 -0.07653473 0.23800001
v 0.06214100 -0.07300000 0.23800001
v 0.06214100 -0.07300000 -0.23639999
v -0.06800000 -0.07300000 0.23800001
v 0.06946526 -0.06946526 0.23800001
v 0.07300000 -0.06214100 -0.23639999
v 0.06800000 -0.07300000 0.23800001
v 0.07300000 0.06214100 -0.23639999
v 0.06946526 0.06946526 0.23800001
v 0.06214100 0.07300000 0.23800001
v 0.06214100 0.07300000 -0.23639999
v 0.07300000 0.06800000 0.23800001
v 0.06946526 0.07653473 0.23800001
v -0.06214100 0.07300000 -0.23639999
v 0.06800000 0.07300000 0.23800001
v -0.06800000 0.07300000 0.23800001
v 0.07718800 -0.07300000 0.23718800
v 0.07596137 -0.07596137 0.23718800
v 0.07596137 -0.07003864 0.23718800
v 0.07300000 -0.06881200 0.23718800
v 0.07003864 -0.07003864 0.23718800
v 0.06946526 -0.07653473 0.23800001
v 0.06881200 -0.07300000 0.23718800
v 0.07003864 -0.07596137 0.23718800
v 0.07300000 -0.07718800 0.23718800
v -0.06881200 -0.07300000 0.23718800
v -0.07003864 -0.07596137 0.23718800
v -0.07003864 -0.07003864 0.23718800
v -0.07300000 -0.06881200 0.23718800
v -0.07596137 -0.07003864 0.23718800
v -0.07718800 -0.07300000 0.23718800
v -0.07596137 -0.07596137 0.23718800
v -0.07300000 -0.07718800 0.23718800
v -0.06946526 0.07653473 0.23800001
v -0.06881200 0.07300000 0.23718800
v -0.07003864 0.07003864 0.23718800
v -0.07003864 0.07596137 0.23718800
v -0.07300000 0.07718800 0.23718800
v -0.07596137 0.07596137 0.23718800
v -0.07718800 0.07300000 0.23718800
v -0.07596137 0.07003864 0.23718800
v -0.07300000 0.06881200 0.23718800
v 0.07718800 0.07300000 0.23718800
v 0.07596137 0.07003864 0.23718800
v 0.07596137 0.07596137 0.23718800
v 0.07300000 0.07718800 0.23718800
v 0.07003864 0.07596137 0.23718800
v 0.06881200 0.07300000 0.23718800
v 0.07003864 0.07003864 0.23718800
v 0.07300000 0.06881200 0.23718800
v 0.07003864 -0.07003864 0.20800000
v 0.06881200 -0.07300000 0.20800000
v 0.07300000 -0.07300000 0.20558205
v 0.07003864 -0.07596137 0.20800000
v 0.07300000 -0.06881200 0.20800000
v 0.07596137 -0.07003864 0.20800000
v 0.07718800 -0.07300000 0.20800000
v 0.07596137 -0.07596137 0.20800000
v 0.07300000 -0.07718800 0.20800000
v -0.07596137 -0.07003864 0.20800000
v -0.07718800 -0.07300000 0.20800000
v -0.07300000 -0.07300000 0.20558205
v -0.07596137 -0.07596137 0.20800000
v -0.07300000 -0.06881200 0.20800000
v -0.07003864 -0.07003864 0.20800000
v -0.06881200 -0.07300000 0.20800000
v -0.07003864 -0.07596137 0.20800000
v -0.07300000 -0.07718800 0.20800000
v -0.07596137 0.07596137 0.20800000
v -0.07718800 0.07300000 0.20800000
v -0.07300000 0.07300000 0.20558205
v -0.07596137 0.07003864 0.20800000
v -0.07300000 0.07718800 0.20800000
v -0.07003864 0.07596137 0.20800000
v -0.06881200 0.07300000 0.20800000
v -0.07003864 0.07003864 0.20800000
v -0.07300000 0.06881200 0.20800000
v 0.07003864 0.07596137 0.20800000
v 0.06881200 0.07300000 0.20800000
v 0.07300000 0.07300000 0.20558205
v 0.07003864 0.07003864 0.20800000
v 0.07300000 0.07718800 0.20800000
v 0.07596137 0.07596137 0.20800000
v 0.07718800 0.07300000 0.20800000
v 0.07596137 0.07003864 0.20800000
v 0.07300000 0.06881200 0.20800000
v -0.07800000 -0.07300000 -0.23840000
v -0.07653473 0.07653473 -0.23840000
v -0.07653473 -0.06946526 -0.23840000
v -0.07300000 -0.06800000 -0.23840000
v -0.07653473 0.06946526 -0.23840000
v -0.07800000 0.07300000 -0.23840000
v -0.07300000 -0.07800000 -0.23840000
v -0.07653473 -0.07653473 -0.23840000
v 0.07653473 -0.07653473 -0.23840000
v 0.07300000 -0.07800000 -0.23840000
v 0.07800000 0.07300000 -0.23840000
v 0.07800000 -0.07300000 -0.23840000
v 0.07653473 -0.06946526 -0.23840000
v 0.07300000 0.06800000 -0.23840000
v 0.07653473 0.06946526 -0.23840000
v 0.07300000 0.07800000 -0.23840000
v 0.07653473 0.07653473 -0.23840000
v -0.07300000 0.07800000 -0.23840000
v -0.06946526 -0.06946526 -0.23840000
v 0.06946526 -0.06946526 -0.23840000
v 0.06800000 -0.07300000 -0.23840000
v 0.06881200 -0.07300000 -0.23758800
v -0.06800000 -0.07300000 -0.23840000
v 0.06946526 -0.07653473 -0.23840000
v 0.07003864 -0.07596137 -0.23758800
v 0.07300000 -0.06800000 -0.23840000
v 0.07003864 -0.07003864 -0.23758800
v -0.07300000 0.06800000 -0.23840000
v 0.07300000 -0.06881200 -0.23758800
v 0.07596137 -0.07003864 -0.23758800
v 0.07718800 -0.07300000 -0.23758800
v 0.07596137 -0.07596137 -0.23758800
v -0.06946526 -0.07653473 -0.23840000
v 0.07300000 -0.07718800 -0.23758800
v -0.07718800 -0.07300000 -0.23758800
v -0.07596137 -0.07596137 -0.23758800
v -0.07596137 -0.07003864 -0.23758800
v -0.07300000 -0.06881200 -0.23758800
v -0.07003864 -0.07003864 -0.23758800
v -0.06881200 -0.07300000 -0.23758800
v -0.07003864 -0.07596137 -0.23758800
v -0.07300000 -0.07718800 -0.23758800
v -0.07718800 0.07300000 -0.23758800
v -0.07596137 0.07003864 -0.23758800
v -0.07596137 0.07596137 -0.23758800
v 0.06946526 0.07653473 -0.23840000
v -0.06946526 0.07653473 -0.23840000
v -0.07300000 0.07718800 -0.23758800
v 0.06800000 0.07300000 -0.23840000
v -0.06800000 0.07300000 -0.23840000
v -0.07003864 0.07596137 -0.23758800
v 0.06946526 0.06946526 -0.23840000
v -0.06946526 0.06946526 -0.23840000
v -0.06881200 0.07300000 -0.23758800
v -0.07003864 0.07003864 -0.23758800
v -0.07300000 0.06881200 -0.23758800
v 0.06881200 0.07300000 -0.23758800
v 0.07003864 0.07003864 -0.23758800
v 0.07003864 0.07596137 -0.23758800
v 0.07300000 0.07718800 -0.23758800
v 0.07596137 0.07596137 -0.23758800
v 0.07718800 0.07300000 -0.23758800
v 0.07596137 0.07003864 -0.23758800
v 0.07300000 0.06881200 -0.23758800
v 0.07596137 -0.07003864 -0.20840000
v 0.07718800 -0.07300000 -0.20840000
v 0.07300000 -0.07300000 -0.20598206
v 0.07596137 -0.07596137 -0.20840000
v 0.07300000 -0.06881200 -0.20840000
v 0.07003864 -0.07003864 -0.20840000
v 0.06881200 -0.07300000 -0.20840000
v 0.07003864 -0.07596137 -0.20840000
v 0.07300000 -0.07718800 -0.20840000
v -0.07003864 -0.07003864 -0.20840000
v -0.06881200 -0.07300000 -0.20840000
v -0.07300000 -0.07300000 -0.20598206
v -0.07003864 -0.07596137 -0.20840000
v -0.07300000 -0.06881200 -0.20840000
v -0.07596137 -0.07003864 -0.20840000
v -0.07718800 -0.07300000 -0.20840000
v -0.07596137 -0.07596137 -0.20840000
v -0.07300000 -0.07718800 -0.20840000
v -0.07003864 0.07596137 -0.20840000
v -0.06881200 0.07300000 -0.20840000
v -0.07300000 0.07300000 -0.20598206
v -0.07003864 0.07003864 -0.20840000
v -0.07300000 0.07718800 -0.20840000
v -0.07596137 0.07596137 -0.20840000
v -0.07718800 0.07300000 -0.20840000
v -0.07596137 0.07003864 -0.20840000
v -0.07300000 0.06881200 -0.20840000
v 0.07596137 0.07596137 -0.20840000
v 0.07718800 0.07300000 -0.20840000
v 0.07300000 0.07300000 -0.20598206
v 0.07596137 0.07003864 -0.20840000
v 0.07300000 0.07718800 -0.20840000
v 0.07003864 0.07596137 -0.20840000
v 0.06881200 0.07300000 -0.20840000
v 0.07003864 0.07003864 -0.20840000
v 0.07300000 0.06881200 -0.20840000
f 1 2 3
f 4 3 2
f 5 1 3
f 6 5 3
f 7 6 3
f 8 7 3
f 9 8 3
f 9 3 4
f 10 11 2
f 12 2 11
f 1 10 2
f 12 4 2
f 10 13 11
f 14 11 13
f 15 16 11
f 12 11 16
f 17 11 14
f 18 15 11
f 18 11 19
f 20 19 11
f 21 20 11
f 21 11 17
f 22 23 13
f 14 13 23
f 10 22 13
f 24 25 23
f 26 23 25
f 22 24 23
f 14 23 26
f 27 25 24
f 28 25 27
f 26 25 28
f 27 24 22
f 29 22 10
f 27 22 29
f 30 10 1
f 31 10 30
f 29 10 31
f 30 1 5
f 32 5 6
f 30 5 32
f 33 6 7
f 32 6 34
f 33 34 6
f 8 35 7
f 33 7 35
f 8 36 35
f 37 35 36
f 33 35 37
f 38 36 8
f 39 36 38
f 37 36 39
f 40 8 41
f 9 41 8
f 42 38 8
f 40 42 8
f 43 44 45
f 46 45 44
f 47 43 45
f 48 49 45
f 47 45 49
f 48 45 46
f 43 50 44
f 46 44 50
f 43 51 50
f 52 50 51
f 46 50 52
f 43 53 51
f 54 51 53
f 55 51 54
f 52 51 55
f 56 57 53
f 54 53 57
f 43 56 53
f 56 58 57
f 59 57 58
f 54 57 59
f 56 60 58
f 61 58 60
f 62 58 61
f 59 58 62
f 63 64 60
f 61 60 64
f 65 63 60
f 56 65 60
f 66 67 64
f 68 64 67
f 63 66 64
f 61 64 68
f 69 67 66
f 70 67 69
f 68 67 70
f 69 66 63
f 71 63 65
f 69 63 71
f 56 16 65
f 72 65 16
f 73 65 72
f 71 65 73
f 12 16 56
f 15 72 16
f 74 56 43
f 12 56 74
f 74 43 47
f 75 76 77
f 78 77 76
f 79 75 77
f 80 77 81
f 78 81 77
f 79 77 80
f 82 83 76
f 84 76 83
f 85 82 76
f 75 85 76
f 84 78 76
f 84 83 82
f 86 82 85
f 87 82 86
f 87 84 82
f 85 75 88
f 89 85 90
f 86 85 89
f 88 90 85
f 89 90 88
f 91 92 88
f 93 88 92
f 75 91 88
f 89 88 93
f 94 95 92
f 96 92 95
f 97 94 92
f 91 97 92
f 98 92 96
f 93 92 98
f 99 100 95
f 96 95 100
f 94 99 95
f 99 101 100
f 102 100 101
f 96 100 102
f 99 103 101
f 104 101 103
f 105 101 104
f 102 101 105
f 49 106 103
f 104 103 106
f 99 49 103
f 49 107 106
f 108 106 107
f 104 106 108
f 109 107 49
f 110 107 109
f 108 107 110
f 47 49 99
f 111 109 49
f 48 111 49
f 112 99 94
f 47 99 112
f 113 94 97
f 112 94 113
f 114 115 97
f 116 97 115
f 117 114 97
f 118 117 97
f 91 118 97
f 113 97 116
f 119 41 115
f 9 115 41
f 120 119 115
f 121 120 115
f 114 121 115
f 116 115 9
f 122 41 119
f 40 41 122
f 122 119 120
f 123 120 121
f 122 120 123
f 124 121 114
f 125 121 124
f 123 121 125
f 124 114 117
f 126 117 118
f 124 117 126
f 127 118 91
f 128 118 127
f 126 118 128
f 127 91 75
f 127 75 79
f 129 32 34
f 130 34 33
f 130 129 34
f 129 30 32
f 131 31 30
f 129 131 30
f 26 29 31
f 14 26 31
f 131 14 31
f 28 27 29
f 26 28 29
f 131 132 14
f 17 14 132
f 131 133 132
f 17 132 133
f 131 134 133
f 21 133 134
f 21 17 133
f 131 135 134
f 19 134 135
f 20 134 19
f 21 134 20
f 61 136 135
f 19 135 136
f 137 61 135
f 137 135 131
f 61 72 136
f 18 136 72
f 18 19 136
f 61 73 72
f 18 72 15
f 68 71 73
f 61 68 73
f 70 69 71
f 68 70 71
f 138 62 61
f 137 138 61
f 139 59 62
f 138 139 62
f 139 54 59
f 140 55 54
f 141 140 54
f 141 54 139
f 142 52 55
f 140 142 55
f 142 46 52
f 48 46 142
f 140 143 142
f 48 142 143
f 140 144 143
f 145 143 144
f 145 48 143
f 146 147 144
f 148 144 147
f 140 146 144
f 149 144 148
f 145 144 149
f 146 150 147
f 148 147 150
f 146 109 150
f 151 150 109
f 151 148 150
f 146 110 109
f 151 109 111
f 146 108 110
f 146 104 108
f 152 105 104
f 153 104 146
f 154 152 104
f 153 154 104
f 155 102 105
f 155 105 152
f 155 96 102
f 156 98 96
f 155 156 96
f 157 93 98
f 158 157 98
f 156 158 98
f 159 89 93
f 157 159 93
f 160 89 159
f 86 89 160
f 160 159 157
f 161 157 158
f 161 160 157
f 156 162 158
f 163 158 162
f 164 158 163
f 161 158 164
f 156 165 162
f 163 162 165
f 156 166 165
f 167 165 166
f 167 163 165
f 156 168 166
f 169 166 168
f 170 166 169
f 167 166 170
f 127 171 168
f 169 168 171
f 172 127 168
f 172 168 156
f 127 173 171
f 174 171 173
f 174 169 171
f 127 175 173
f 176 173 175
f 177 173 176
f 174 173 177
f 79 178 175
f 176 175 178
f 127 79 175
f 80 81 178
f 179 178 81
f 79 80 178
f 179 176 178
f 78 180 81
f 179 81 180
f 181 128 127
f 172 181 127
f 182 126 128
f 181 182 128
f 182 124 126
f 183 125 124
f 184 183 124
f 182 184 124
f 185 123 125
f 183 185 125
f 185 122 123
f 40 122 185
f 183 186 185
f 40 185 186
f 183 187 186
f 188 186 187
f 188 40 186
f 189 190 187
f 191 187 190
f 183 189 187
f 192 187 191
f 188 187 192
f 189 193 190
f 191 190 193
f 189 38 193
f 194 193 38
f 194 191 193
f 189 39 38
f 194 38 42
f 189 37 39
f 189 33 37
f 195 33 189
f 196 130 33
f 195 196 33
f 197 189 183
f 198 189 199
f 200 199 189
f 198 195 189
f 197 200 189
f 201 202 183
f 203 183 202
f 204 201 183
f 184 204 183
f 197 183 203
f 205 206 202
f 207 202 206
f 201 208 202
f 205 202 208
f 203 202 207
f 209 146 206
f 210 206 146
f 211 209 206
f 205 211 206
f 207 206 210
f 212 146 140
f 209 153 146
f 210 146 212
f 213 214 140
f 215 140 214
f 216 213 140
f 141 216 140
f 212 140 215
f 217 199 214
f 218 214 199
f 219 217 214
f 213 219 214
f 215 214 218
f 198 199 220
f 217 220 199
f 218 199 200
f 221 152 154
f 222 155 152
f 222 152 221
f 223 154 153
f 221 154 223
f 224 153 209
f 223 153 224
f 225 209 211
f 224 209 225
f 205 226 211
f 227 211 226
f 225 211 227
f 172 156 226
f 228 226 156
f 205 172 226
f 228 227 226
f 229 156 155
f 228 156 229
f 229 155 222
f 230 208 201
f 231 205 208
f 231 208 230
f 232 201 204
f 230 201 232
f 233 204 184
f 232 204 233
f 234 184 182
f 233 184 234
f 235 182 181
f 234 182 235
f 236 181 172
f 236 235 181
f 237 172 205
f 236 172 237
f 237 205 231
f 217 238 220
f 239 220 238
f 240 198 220
f 240 220 239
f 137 131 238
f 241 238 131
f 217 137 238
f 239 238 241
f 242 131 129
f 241 131 242
f 243 129 130
f 242 129 243
f 244 130 196
f 243 130 244
f 245 196 195
f 245 244 196
f 246 195 198
f 245 195 246
f 246 198 240
f 247 139 138
f 248 141 139
f 248 139 247
f 249 138 137
f 247 138 249
f 250 137 217
f 249 137 250
f 251 217 219
f 250 217 251
f 252 219 213
f 251 219 252
f 253 213 216
f 253 252 213
f 254 216 141
f 253 216 254
f 254 141 248
f 188 194 42
f 188 42 40
f 192 191 194
f 188 192 194
f 87 180 78
f 87 179 180
f 87 78 84
f 87 176 179
f 87 177 176
f 87 174 177
f 87 169 174
f 164 170 169
f 161 164 169
f 161 169 160
f 87 160 169
f 164 167 170
f 164 163 167
f 87 86 160
f 145 151 111
f 145 111 48
f 149 148 151
f 145 149 151
f 203 218 200
f 197 203 200
f 207 215 218
f 203 207 218
f 210 212 215
f 207 210 215
f 255 256 257
f 258 257 256
f 259 255 257
f 260 259 257
f 261 260 257
f 262 261 257
f 263 262 257
f 258 263 257
f 227 256 255
f 228 256 227
f 228 258 256
f 225 255 259
f 225 227 255
f 224 259 260
f 224 225 259
f 223 260 261
f 223 224 260
f 221 223 261
f 262 221 261
f 222 221 262
f 222 262 263
f 229 263 258
f 229 222 263
f 228 229 258
f 264 265 266
f 267 266 265
f 268 264 266
f 269 268 266
f 270 269 266
f 271 270 266
f 272 271 266
f 267 272 266
f 235 265 264
f 236 265 235
f 236 267 265
f 234 264 268
f 234 235 264
f 233 268 269
f 233 234 268
f 232 269 270
f 232 233 269
f 230 232 270
f 271 230 270
f 231 230 271
f 231 271 272
f 237 272 267
f 237 231 272
f 236 237 267
f 273 274 275
f 276 275 274
f 277 273 275
f 278 277 275
f 279 278 275
f 280 279 275
f 281 280 275
f 276 281 275
f 244 274 273
f 245 274 244
f 245 276 274
f 243 273 277
f 243 244 273
f 242 277 278
f 242 243 277
f 241 278 279
f 241 242 278
f 239 241 279
f 280 239 279
f 240 239 280
f 240 280 281
f 246 281 276
f 246 240 281
f 245 246 276
f 282 283 284
f 285 284 283
f 286 282 284
f 287 286 284
f 288 287 284
f 289 288 284
f 290 289 284
f 285 290 284
f 252 283 282
f 253 283 252
f 253 285 283
f 251 282 286
f 251 252 282
f 250 286 287
f 250 251 286
f 249 287 288
f 249 250 287
f 247 249 288
f 289 247 288
f 248 247 289
f 248 289 290
f 254 290 285
f 254 248 290
f 253 254 285
f 291 9 4
f 292 4 12
f 293 291 4
f 294 293 4
f 295 294 4
f 292 296 4
f 295 4 296
f 297 116 9
f 298 9 291
f 298 297 9
f 297 113 116
f 299 112 113
f 300 299 113
f 297 300 113
f 301 47 112
f 302 303 112
f 304 112 303
f 299 302 112
f 305 301 112
f 304 305 112
f 306 74 47
f 307 306 47
f 301 307 47
f 306 12 74
f 308 292 12
f 306 308 12
f 309 310 311
f 312 311 310
f 313 311 314
f 315 314 311
f 313 309 311
f 315 311 312
f 294 316 310
f 317 310 316
f 309 294 310
f 312 310 317
f 318 303 316
f 319 316 303
f 295 316 294
f 295 318 316
f 317 316 319
f 320 303 302
f 304 303 318
f 319 303 320
f 321 302 299
f 320 302 321
f 322 299 300
f 322 321 299
f 323 314 300
f 324 300 314
f 297 323 300
f 322 300 324
f 323 313 314
f 324 314 315
f 325 291 293
f 326 298 291
f 326 291 325
f 327 293 294
f 325 293 327
f 328 294 309
f 327 294 328
f 329 309 313
f 328 309 329
f 330 313 323
f 329 313 330
f 331 323 297
f 331 330 323
f 332 297 298
f 331 297 332
f 332 298 326
f 333 296 292
f 334 295 296
f 334 296 333
f 335 292 308
f 333 292 335
f 336 337 308
f 338 308 337
f 306 336 308
f 335 308 338
f 339 340 337
f 341 337 340
f 336 339 337
f 338 337 341
f 342 343 340
f 344 340 343
f 342 340 339
f 341 340 344
f 304 318 343
f 345 343 318
f 342 304 343
f 345 344 343
f 346 318 295
f 345 318 346
f 346 295 334
f 347 339 336
f 348 342 339
f 348 339 347
f 349 336 306
f 347 336 349
f 350 306 307
f 349 306 350
f 351 307 301
f 350 307 351
f 352 301 305
f 351 301 352
f 353 305 304
f 353 352 305
f 354 304 342
f 353 304 354
f 354 342 348
f 355 356 357
f 358 357 356
f 359 355 357
f 360 359 357
f 361 360 357
f 362 361 357
f 363 362 357
f 358 363 357
f 321 356 355
f 322 356 321
f 322 358 356
f 320 355 359
f 320 321 355
f 319 359 360
f 319 320 359
f 317 360 361
f 317 319 360
f 312 317 361
f 362 312 361
f 315 312 362
f 315 362 363
f 324 363 358
f 324 315 363
f 322 324 358
f 364 365 366
f 367 366 365
f 368 364 366
f 369 368 366
f 370 369 366
f 371 370 366
f 372 371 366
f 367 372 366
f 330 365 364
f 331 365 330
f 331 367 365
f 329 364 368
f 329 330 364
f 328 368 369
f 328 329 368
f 327 369 370
f 327 328 369
f 325 327 370
f 371 325 370
f 326 325 371
f 326 371 372
f 332 372 367
f 332 326 372
f 331 332 367
f 373 374 375
f 376 375 374
f 377 373 375
f 378 377 375
f 379 378 375
f 380 379 375
f 381 380 375
f 376 381 375
f 344 374 373
f 345 374 344
f 345 376 374
f 341 373 377
f 341 344 373
f 338 377 378
f 338 341 377
f 335 378 379
f 335 338 378
f 333 335 379
f 380 333 379
f 334 333 380
f 334 380 381
f 346 381 376
f 346 334 381
f 345 346 376
f 382 383 384
f 385 384 383
f 386 382 384
f 387 386 384
f 388 387 384
f 389 388 384
f 390 389 384
f 385 390 384
f 352 383 382
f 353 383 352
f 353 385 383
f 351 382 386
f 351 352 382
f 350 386 387
f 350 351 386
f 349 387 388
f 349 350 387
f 347 349 388
f 389 347 388
f 348 347 389
f 348 389 390
f 354 390 385
f 354 348 390
f 353 354 385

