mtllib material.mtl
usemtl grey.003
v 0.00101400 -0.01280000 -0.00055300
v 0.00101400 -0.01280000 -0.00055300
v 0.00101400 -0.01280000 -0.00055300
v 0.00098600 -0.01280000 0.00060200
v 0.00098600 -0.01280000 0.00060200
v 0.00098600 -0.01280000 0.00060200
v 0.00002800 -0.01280000 -0.00115400
v 0.00002800 -0.01280000 -0.00115400
v 0.00002800 -0.01280000 -0.00115400
v -0.00002800 -0.01280000 0.00115400
v -0.00002800 -0.01280000 0.00115400
v -0.00002800 -0.01280000 0.00115400
v -0.00098600 -0.01280000 -0.00060200
v -0.00098600 -0.01280000 -0.00060200
v -0.00098600 -0.01280000 -0.00060200
v -0.00101400 -0.01280000 0.00055300
v -0.00101400 -0.01280000 0.00055300
v -0.00101400 -0.01280000 0.00055300
v -0.00101400 -0.01430000 0.00055300
v -0.00101400 -0.01430000 0.00055300
v -0.00101400 -0.01430000 0.00055300
v -0.00002800 -0.01430000 0.00115400
v -0.00002800 -0.01430000 0.00115400
v -0.00002800 -0.01430000 0.00115400
v -0.00098600 -0.01430000 -0.00060200
v -0.00098600 -0.01430000 -0.00060200
v -0.00098600 -0.01430000 -0.00060200
v 0.00002800 -0.01430000 -0.00115400
v 0.00002800 -0.01430000 -0.00115400
v 0.00002800 -0.01430000 -0.00115400
v 0.00101400 -0.01430000 -0.00055300
v 0.00101400 -0.01430000 -0.00055300
v 0.00101400 -0.01430000 -0.00055300
v 0.00098600 -0.01430000 0.00060200
v 0.00098600 -0.01430000 0.00060200
v 0.00098600 -0.01430000 0.00060200
v 0.00048700 -0.01430000 0.00240100
v -0.00006000 -0.01430000 0.00244900
v 0.00223300 -0.01430000 -0.00100900
v 0.00240100 -0.01430000 -0.00048700
v 0.00218100 -0.01430000 0.00111700
v 0.00237400 -0.01430000 0.00060300
v 0.00244900 -0.01430000 0.00006000
v -0.00195200 -0.01430000 0.00148000
v -0.00223300 -0.01430000 0.00100900
v 0.00006000 -0.01430000 -0.00244900
v 0.00060300 -0.01430000 -0.00237500
v -0.00218100 -0.01430000 -0.00111700
v -0.00187800 -0.01430000 -0.00157400
v 0.00111700 -0.01430000 -0.00218100
v 0.00157400 -0.01430000 -0.00187800
v 0.00195200 -0.01430000 -0.00148000
v -0.00148000 -0.01430000 -0.00195200
v -0.00100900 -0.01430000 -0.00223300
v -0.00048700 -0.01430000 -0.00240100
v -0.00240100 -0.01430000 0.00048700
v -0.00244900 -0.01430000 -0.00006000
v -0.00237500 -0.01430000 -0.00060300
v 0.00187800 -0.01430000 0.00157400
v 0.00148000 -0.01430000 0.00195200
v 0.00100900 -0.01430000 0.00223300
v -0.00060300 -0.01430000 0.00237500
v -0.00111700 -0.01430000 0.00218100
v -0.00157400 -0.01430000 0.00187800
v 0.00274900 -0.01400000 0.00006700
v 0.00270900 -0.01415000 0.00006600
v 0.00265600 -0.01415000 -0.00053800
v 0.00259900 -0.01426000 0.00006400
v 0.00259900 -0.01426000 0.00006400
v 0.00254800 -0.01426000 -0.00051600
v 0.00254800 -0.01426000 -0.00051600
v 0.00236900 -0.01426000 -0.00107000
v 0.00236900 -0.01426000 -0.00107000
v 0.00207200 -0.01426000 -0.00157100
v 0.00207200 -0.01426000 -0.00157100
v 0.00167000 -0.01426000 -0.00199200
v 0.00167000 -0.01426000 -0.00199200
v 0.00118500 -0.01426000 -0.00231400
v 0.00118500 -0.01426000 -0.00231400
v 0.00064000 -0.01426000 -0.00252000
v 0.00064000 -0.01426000 -0.00252000
v 0.00006400 -0.01426000 -0.00259900
v 0.00006400 -0.01426000 -0.00259900
v -0.00051600 -0.01426000 -0.00254800
v -0.00051600 -0.01426000 -0.00254800
v -0.00107000 -0.01426000 -0.00236900
v -0.00107000 -0.01426000 -0.00236900
v -0.00157100 -0.01426000 -0.00207200
v -0.00157100 -0.01426000 -0.00207200
v -0.00199200 -0.01426000 -0.00167000
v -0.00199200 -0.01426000 -0.00167000
v -0.00231400 -0.01426000 -0.00118500
v -0.00231400 -0.01426000 -0.00118500
v -0.00252000 -0.01426000 -0.00064000
v -0.00252000 -0.01426000 -0.00064000
v -0.00259900 -0.01426000 -0.00006400
v -0.00259900 -0.01426000 -0.00006400
v 0.00246900 -0.01415000 -0.00111600
v 0.00215900 -0.01415000 -0.00163700
v 0.00174100 -0.01415000 -0.00207700
v 0.00123500 -0.01415000 -0.00241200
v 0.00066700 -0.01415000 -0.00262600
v 0.00006600 -0.01415000 -0.00270900
v -0.00053800 -0.01415000 -0.00265600
v -0.00111600 -0.01415000 -0.00246900
v -0.00163700 -0.01415000 -0.00215900
v -0.00207700 -0.01415000 -0.00174100
v -0.00241200 -0.01415000 -0.00123500
v -0.00262600 -0.01415000 -0.00066700
v -0.00270900 -0.01415000 -0.00006600
v 0.00269500 -0.01400000 -0.00054600
v 0.00250600 -0.01400000 -0.00113200
v 0.00219100 -0.01400000 -0.00166100
v 0.00176700 -0.01400000 -0.00210700
v 0.00125300 -0.01400000 -0.00244800
v 0.00067700 -0.01400000 -0.00266500
v 0.00006700 -0.01400000 -0.00274900
v -0.00054600 -0.01400000 -0.00269500
v -0.00113200 -0.01400000 -0.00250600
v -0.00166100 -0.01400000 -0.00219100
v -0.00210700 -0.01400000 -0.00176700
v -0.00244800 -0.01400000 -0.00125300
v -0.00266500 -0.01400000 -0.00067700
v -0.00274900 -0.01400000 -0.00006700
v -0.00265600 -0.01415000 0.00053800
v -0.00254800 -0.01426000 0.00051600
v -0.00254800 -0.01426000 0.00051600
v -0.00236900 -0.01426000 0.00107000
v -0.00236900 -0.01426000 0.00107000
v -0.00207200 -0.01426000 0.00157100
v -0.00207200 -0.01426000 0.00157100
v -0.00167000 -0.01426000 0.00199200
v -0.00167000 -0.01426000 0.00199200
v -0.00118500 -0.01426000 0.00231400
v -0.00118500 -0.01426000 0.00231400
v -0.00064000 -0.01426000 0.00252000
v -0.00064000 -0.01426000 0.00252000
v -0.00006400 -0.01426000 0.00259900
v -0.00006400 -0.01426000 0.00259900
v 0.00051600 -0.01426000 0.00254800
v 0.00051600 -0.01426000 0.00254800
v 0.00107000 -0.01426000 0.00236900
v 0.00107000 -0.01426000 0.00236900
v 0.00157100 -0.01426000 0.00207200
v 0.00157100 -0.01426000 0.00207200
v 0.00199200 -0.01426000 0.00167000
v 0.00199200 -0.01426000 0.00167000
v 0.00231400 -0.01426000 0.00118500
v 0.00231400 -0.01426000 0.00118500
v 0.00252000 -0.01426000 0.00064000
v 0.00252000 -0.01426000 0.00064000
v -0.00246900 -0.01415000 0.00111600
v -0.00215900 -0.01415000 0.00163700
v -0.00174100 -0.01415000 0.00207700
v -0.00123500 -0.01415000 0.00241200
v -0.00066700 -0.01415000 0.00262600
v -0.00006600 -0.01415000 0.00270900
v 0.00053800 -0.01415000 0.00265600
v 0.00111600 -0.01415000 0.00246900
v 0.00163700 -0.01415000 0.00215900
v 0.00207700 -0.01415000 0.00174100
v 0.00241200 -0.01415000 0.00123500
v 0.00262600 -0.01415000 0.00066700
v -0.00269500 -0.01400000 0.00054600
v -0.00250600 -0.01400000 0.00113200
v -0.00219100 -0.01400000 0.00166100
v -0.00176700 -0.01400000 0.00210700
v -0.00125300 -0.01400000 0.00244800
v -0.00067700 -0.01400000 0.00266500
v -0.00006700 -0.01400000 0.00274900
v 0.00054600 -0.01400000 0.00269500
v 0.00113200 -0.01400000 0.00250600
v 0.00166100 -0.01400000 0.00219100
v 0.00210700 -0.01400000 0.00176700
v 0.00244800 -0.01400000 0.00125300
v 0.00266500 -0.01400000 0.00067700
v 0.00274900 -0.01230000 0.00006700
v 0.00250600 -0.01230000 -0.00113200
v 0.00176700 -0.01230000 -0.00210700
v 0.00067700 -0.01230000 -0.00266500
v -0.00054600 -0.01230000 -0.00269500
v -0.00166100 -0.01230000 -0.00219100
v -0.00244800 -0.01230000 -0.00125300
v -0.00274900 -0.01230000 -0.00006700
v -0.00250600 -0.01230000 0.00113200
v -0.00176700 -0.01230000 0.00210700
v -0.00067700 -0.01230000 0.00266500
v 0.00054600 -0.01230000 0.00269500
v 0.00166100 -0.01230000 0.00219100
v 0.00244800 -0.01230000 0.00125300
v 0.00533500 0.01250000 0.04470300
v 0.00428700 0.01250000 0.04507700
v 0.00350600 0.01250000 0.04586900
v 0.00314500 0.01250000 0.04692200
v 0.00327700 0.01250000 0.04802600
v 0.00387500 0.01250000 0.04896500
v 0.00482100 0.01250000 0.04955000
v 0.00592800 0.01250000 0.04966800
v 0.00738700 0.01250000 0.04540600
v 0.00644100 0.01250000 0.04482000
v 0.00798600 0.01250000 0.04634400
v 0.00811700 0.01250000 0.04744900
v 0.00775700 0.01250000 0.04850100
v 0.00697500 0.01250000 0.04929300
v 0.00592800 -0.01410000 0.04966800
v 0.00482100 -0.01410000 0.04955000
v 0.00387500 -0.01410000 0.04896500
v 0.00327700 -0.01410000 0.04802600
v 0.00314500 -0.01410000 0.04692200
v 0.00350600 -0.01410000 0.04586900
v 0.00428700 -0.01410000 0.04507700
v 0.00533500 -0.01410000 0.04470300
v 0.00798600 -0.01410000 0.04634400
v 0.00811700 -0.01410000 0.04744900
v 0.00738700 -0.01410000 0.04540600
v 0.00775700 -0.01410000 0.04850100
v 0.00697500 -0.01410000 0.04929300
v 0.00644100 -0.01410000 0.04482000
v 0.00061000 0.01070000 -0.00268100
v 0.00171300 0.01070000 -0.00215100
v 0.00247700 0.01070000 -0.00119500
v 0.00275000 0.01070000 -0.00000200
v 0.00247900 0.01070000 0.00119100
v 0.00171600 0.01070000 0.00214900
v 0.00061400 0.01070000 0.00268100
v -0.00061000 0.01070000 0.00268100
v -0.00171300 0.01070000 0.00215100
v -0.00247700 0.01070000 0.00119500
v -0.00275000 0.01070000 0.00000200
v -0.00247900 0.01070000 -0.00119100
v -0.00171600 0.01070000 -0.00214900
v -0.00061400 0.01070000 -0.00268100
v 0.00247900 0.01240000 0.00119100
v 0.00192200 0.01240000 0.00196700
v 0.00171600 0.01240000 0.00214900
v 0.00113300 0.01240000 0.00250600
v 0.00061400 0.01240000 0.00268100
v 0.00020800 0.01240000 0.00274200
v -0.00074300 0.01240000 0.00264800
v -0.00160300 0.01240000 0.00223400
v -0.00227100 0.01240000 0.00155100
v -0.00247700 0.01240000 0.00119500
v -0.00266400 0.01240000 0.00068100
v -0.00247900 0.01240000 -0.00119100
v -0.00273700 0.01240000 -0.00027200
v -0.00275000 0.01240000 0.00000200
v -0.00215100 0.01240000 -0.00171300
v -0.00171600 0.01240000 -0.00214900
v -0.00119500 0.01240000 -0.00247700
v -0.00061400 0.01240000 -0.00268100
v -0.00000200 0.01240000 -0.00275000
v 0.00061000 0.01240000 -0.00268100
v 0.00119100 0.01240000 -0.00247900
v 0.00171300 0.01240000 -0.00215100
v 0.00214900 0.01240000 -0.00171600
v 0.00247700 0.01240000 -0.00119500
v 0.00268100 0.01240000 -0.00061400
v 0.00268100 0.01240000 0.00061000
v 0.00275000 0.01240000 -0.00000200
v 0.00179200 0.01267700 0.00183500
v 0.00234300 0.01266000 0.00112600
v 0.00220800 0.01270000 0.00106100
v -0.00220800 0.01270000 -0.00106100
v -0.00255200 0.01267700 -0.00025300
v -0.00243800 0.01270000 -0.00024200
v -0.00248500 0.01267700 0.00063500
v -0.00237400 0.01270000 0.00060600
v -0.00211800 0.01267700 0.00144600
v -0.00202300 0.01270000 0.00138200
v -0.00149500 0.01267700 0.00208400
v -0.00142900 0.01270000 0.00199000
v -0.00069300 0.01267700 0.00246900
v -0.00066200 0.01270000 0.00235900
v 0.00019400 0.01267700 0.00255700
v 0.00018500 0.01270000 0.00244300
v 0.00105700 0.01267700 0.00233700
v 0.00100900 0.01270000 0.00223200
v 0.00171200 0.01270000 0.00175200
v 0.00244200 0.01255000 0.00117400
v 0.00239900 0.01261200 0.00115300
v 0.00186000 0.01261200 0.00190400
v 0.00109700 0.01261200 0.00242600
v 0.00020100 0.01261200 0.00265400
v -0.00071900 0.01261200 0.00256300
v -0.00155200 0.01261200 0.00216300
v -0.00219800 0.01261200 0.00150100
v -0.00257900 0.01261200 0.00065900
v -0.00264900 0.01261200 -0.00026300
v -0.00231200 0.01267700 -0.00111100
v -0.00234300 0.01266000 -0.00112600
v -0.00239900 0.01261200 -0.00115300
v -0.00244200 0.01255000 -0.00117400
v 0.00190600 0.01251500 0.00195100
v 0.00112400 0.01251500 0.00248500
v 0.00020600 0.01251500 0.00271900
v -0.00073600 0.01251500 0.00262600
v -0.00159000 0.01251500 0.00221600
v -0.00225200 0.01251500 0.00153800
v -0.00264200 0.01251500 0.00067500
v -0.00271400 0.01251500 -0.00026900
v -0.00245800 0.01251500 -0.00118100
v 0.00245800 0.01251500 0.00118100
v -0.00203400 0.01266000 -0.00161900
v -0.00212000 0.01255000 -0.00168800
v 0.00253500 0.01266000 0.00057600
v 0.00238900 0.01270000 0.00054300
v 0.00260000 0.01266000 -0.00000200
v 0.00260000 0.01266000 -0.00000200
v 0.00245000 0.01270000 -0.00000200
v 0.00253400 0.01266000 -0.00058100
v 0.00253400 0.01266000 -0.00058100
v 0.00238800 0.01270000 -0.00054700
v 0.00234200 0.01266000 -0.00113000
v 0.00234200 0.01266000 -0.00113000
v 0.00220700 0.01270000 -0.00106500
v 0.00203100 0.01266000 -0.00162300
v 0.00203100 0.01266000 -0.00162300
v 0.00191400 0.01270000 -0.00152900
v 0.00161900 0.01266000 -0.00203400
v 0.00161900 0.01266000 -0.00203400
v 0.00152600 0.01270000 -0.00191700
v 0.00112600 0.01266000 -0.00234300
v 0.00112600 0.01266000 -0.00234300
v 0.00106100 0.01270000 -0.00220800
v 0.00057700 0.01266000 -0.00253500
v 0.00057700 0.01266000 -0.00253500
v 0.00054300 0.01270000 -0.00238900
v -0.00000200 0.01266000 -0.00260000
v -0.00000200 0.01266000 -0.00260000
v -0.00000200 0.01270000 -0.00245000
v -0.00058100 0.01266000 -0.00253400
v -0.00058100 0.01266000 -0.00253400
v -0.00054700 0.01270000 -0.00238800
v -0.00113000 0.01266000 -0.00234200
v -0.00113000 0.01266000 -0.00234200
v -0.00106500 0.01270000 -0.00220700
v -0.00162300 0.01266000 -0.00203100
v -0.00162300 0.01266000 -0.00203100
v -0.00152900 0.01270000 -0.00191400
v -0.00191700 0.01270000 -0.00152600
v -0.00169100 0.01255000 -0.00211700
v -0.00117800 0.01255000 -0.00244000
v -0.00060500 0.01255000 -0.00264100
v -0.00000200 0.01255000 -0.00271000
v 0.00060100 0.01255000 -0.00264200
v 0.00117400 0.01255000 -0.00244200
v 0.00168800 0.01255000 -0.00212000
v 0.00211700 0.01255000 -0.00169100
v 0.00244000 0.01255000 -0.00117800
v 0.00264100 0.01255000 -0.00060500
v 0.00271000 0.01255000 -0.00000200
v 0.00264200 0.01255000 0.00060100
v -0.00065100 0.01270000 -0.00095400
v -0.00065100 0.01270000 -0.00095400
v -0.00065100 0.01270000 -0.00095400
v -0.00065100 0.01270000 -0.00095400
v -0.00115100 0.01270000 0.00008700
v -0.00115100 0.01270000 0.00008700
v -0.00115100 0.01270000 0.00008700
v 0.00050000 0.01270000 -0.00104100
v 0.00050000 0.01270000 -0.00104100
v 0.00050000 0.01270000 -0.00104100
v 0.00050000 0.01270000 -0.00104100
v 0.00115100 0.01270000 -0.00008700
v 0.00115100 0.01270000 -0.00008700
v 0.00115100 0.01270000 -0.00008700
v 0.00065100 0.01270000 0.00095400
v 0.00065100 0.01270000 0.00095400
v 0.00065100 0.01270000 0.00095400
v 0.00065100 0.01270000 0.00095400
v -0.00050000 0.01270000 0.00104100
v -0.00050000 0.01270000 0.00104100
v -0.00050000 0.01270000 0.00104100
v -0.00065100 0.01120000 -0.00095400
v -0.00065100 0.01120000 -0.00095400
v -0.00065100 0.01120000 -0.00095400
v -0.00090100 0.01120000 -0.00043300
v -0.00090100 0.01120000 -0.00043300
v -0.00090100 0.01120000 -0.00043300
v -0.00090100 0.01120000 -0.00043300
v -0.00115100 0.01120000 0.00008700
v -0.00115100 0.01120000 0.00008700
v -0.00115100 0.01120000 0.00008700
v 0.00050000 0.01120000 -0.00104100
v 0.00050000 0.01120000 -0.00104100
v 0.00050000 0.01120000 -0.00104100
v -0.00007600 0.01120000 -0.00099700
v -0.00007600 0.01120000 -0.00099700
v -0.00007600 0.01120000 -0.00099700
v -0.00007600 0.01120000 -0.00099700
v 0.00115100 0.01120000 -0.00008700
v 0.00115100 0.01120000 -0.00008700
v 0.00115100 0.01120000 -0.00008700
v 0.00082600 0.01120000 -0.00056400
v 0.00082600 0.01120000 -0.00056400
v 0.00082600 0.01120000 -0.00056400
v 0.00065100 0.01120000 0.00095400
v 0.00065100 0.01120000 0.00095400
v 0.00065100 0.01120000 0.00095400
v 0.00065100 0.01120000 0.00095400
v 0.00090100 0.01120000 0.00043300
v 0.00090100 0.01120000 0.00043300
v 0.00090100 0.01120000 0.00043300
v 0.00090100 0.01120000 0.00043300
v -0.00050000 0.01120000 0.00104100
v -0.00050000 0.01120000 0.00104100
v -0.00050000 0.01120000 0.00104100
v 0.00007600 0.01120000 0.00099700
v 0.00007600 0.01120000 0.00099700
v 0.00007600 0.01120000 0.00099700
v 0.00007600 0.01120000 0.00099700
v -0.00082600 0.01120000 0.00056400
v -0.00082600 0.01120000 0.00056400
v -0.00082600 0.01120000 0.00056400
v -0.00090100 0.01120000 0.00043500
v -0.00090100 0.01120000 0.00043500
v -0.00100000 0.01120000 0.00000100
v -0.00100000 0.01120000 0.00000100
v -0.00056400 0.01120000 -0.00082600
v -0.00056400 0.01120000 -0.00082600
v 0.00043300 0.01120000 -0.00090100
v 0.00043300 0.01120000 -0.00090100
v 0.00099700 0.01120000 -0.00007600
v 0.00099700 0.01120000 -0.00007600
v 0.00062400 0.01120000 0.00078100
v 0.00062400 0.01120000 0.00078100
v 0.00022300 0.01120000 0.00097500
v 0.00022300 0.01120000 0.00097500
v 0.00022300 0.01120000 0.00097500
v -0.00022200 0.01120000 0.00097500
v -0.00022200 0.01120000 0.00097500
v -0.00062300 0.01120000 0.00078200
v -0.00062300 0.01120000 0.00078200
v 0.00000000 0.01062300 0.00000000
vn -0.00000000 -1.00000000 -0.00000000
vn -0.52100000 -0.00000000 0.85360000
vn -0.99970000 -0.00000000 -0.02440000
vn -0.00000000 -1.00000000 -0.00000000
vn -0.99970000 -0.00000000 -0.02440000
vn -0.47860000 -0.00000000 -0.87800000
vn -0.52100000 -0.00000000 0.85360000
vn 0.47860000 -0.00000000 0.87800000
vn -0.00000000 -1.00000000 -0.00000000
vn -0.00000000 -1.00000000 -0.00000000
vn -0.47860000 -0.00000000 -0.87800000
vn 0.52100000 -0.00000000 -0.85360000
vn 0.47860000 -0.00000000 0.87800000
vn -0.00000000 -1.00000000 -0.00000000
vn 0.99970000 -0.00000000 0.02440000
vn 0.52100000 -0.00000000 -0.85360000
vn -0.00000000 -1.00000000 -0.00000000
vn 0.99970000 -0.00000000 0.02440000
vn -0.00000000 -1.00000000 -0.00000000
vn 0.99970000 -0.00000000 0.02440000
vn 0.52100000 -0.00000000 -0.85360000
vn -0.47860000 -0.00000000 -0.87800000
vn -0.00000000 -1.00000000 -0.00000000
vn 0.52100000 -0.00000000 -0.85360000
vn 0.99970000 -0.00000000 0.02440000
vn 0.47860000 -0.00000000 0.87800000
vn -0.00000000 -1.00000000 -0.00000000
vn -0.52100000 -0.00000000 0.85360000
vn 0.47860000 -0.00000000 0.87800000
vn -0.00000000 -1.00000000 -0.00000000
vn -0.52100000 -0.00000000 0.85360000
vn -0.99970000 -0.00000000 -0.02440000
vn -0.00000000 -1.00000000 -0.00000000
vn -0.99970000 -0.00000000 -0.02440000
vn -0.47860000 -0.00000000 -0.87800000
vn -0.00000000 -1.00000000 -0.00000000
vn 0.02780000 -0.99020000 0.13700000
vn -0.00340000 -0.99020000 0.13970000
vn 0.12740000 -0.99020000 -0.05760000
vn 0.13650000 -0.99020000 -0.02770000
vn 0.12440000 -0.99020000 0.06370000
vn 0.13540000 -0.99020000 0.03440000
vn 0.13970000 -0.99020000 0.00340000
vn -0.11140000 -0.99020000 0.08450000
vn -0.12740000 -0.99020000 0.05760000
vn 0.00340000 -0.99020000 -0.13970000
vn 0.03440000 -0.99020000 -0.13550000
vn -0.12440000 -0.99020000 -0.06370000
vn -0.10720000 -0.99020000 -0.08980000
vn 0.06370000 -0.99020000 -0.12440000
vn 0.08980000 -0.99020000 -0.10720000
vn 0.11140000 -0.99020000 -0.08450000
vn -0.08450000 -0.99020000 -0.11140000
vn -0.05740000 -0.99020000 -0.12710000
vn -0.02780000 -0.99020000 -0.13700000
vn -0.13700000 -0.99020000 0.02780000
vn -0.13970000 -0.99020000 -0.00340000
vn -0.13520000 -0.99020000 -0.03430000
vn 0.10720000 -0.99020000 0.08980000
vn 0.08450000 -0.99020000 0.11140000
vn 0.05760000 -0.99020000 0.12740000
vn -0.03440000 -0.99020000 0.13550000
vn -0.06370000 -0.99020000 0.12440000
vn -0.08980000 -0.99020000 0.10720000
vn 0.99130000 -0.12930000 0.02420000
vn 0.87020000 -0.49230000 0.02130000
vn 0.85320000 -0.49200000 -0.17290000
vn 0.25900000 -0.96590000 0.00630000
vn 0.70680000 -0.70720000 0.01730000
vn 0.25390000 -0.96590000 -0.05150000
vn 0.69290000 -0.70720000 -0.14040000
vn 0.64450000 -0.70700000 -0.29120000
vn 0.23610000 -0.96590000 -0.10670000
vn 0.20600000 -0.96600000 -0.15620000
vn 0.56340000 -0.70720000 -0.42720000
vn 0.45420000 -0.70720000 -0.54180000
vn 0.16650000 -0.96580000 -0.19860000
vn 0.32230000 -0.70720000 -0.62930000
vn 0.11810000 -0.96590000 -0.23060000
vn 0.17410000 -0.70710000 -0.68540000
vn 0.06380000 -0.96590000 -0.25110000
vn 0.01730000 -0.70720000 -0.70680000
vn 0.00630000 -0.96600000 -0.25850000
vn -0.14040000 -0.70720000 -0.69290000
vn -0.05150000 -0.96590000 -0.25390000
vn -0.29110000 -0.70720000 -0.64430000
vn -0.10670000 -0.96590000 -0.23610000
vn -0.42720000 -0.70720000 -0.56340000
vn -0.15650000 -0.96590000 -0.20640000
vn -0.54180000 -0.70720000 -0.45420000
vn -0.19810000 -0.96600000 -0.16610000
vn -0.62930000 -0.70720000 -0.32230000
vn -0.23060000 -0.96590000 -0.11810000
vn -0.68540000 -0.70710000 -0.17410000
vn -0.25110000 -0.96590000 -0.06380000
vn -0.25900000 -0.96590000 -0.00630000
vn -0.70680000 -0.70720000 -0.01730000
vn 0.79340000 -0.49200000 -0.35840000
vn 0.69360000 -0.49230000 -0.52590000
vn 0.55920000 -0.49230000 -0.66700000
vn 0.39680000 -0.49220000 -0.77480000
vn 0.21440000 -0.49220000 -0.84360000
vn 0.02130000 -0.49230000 -0.87020000
vn -0.17290000 -0.49230000 -0.85310000
vn -0.35840000 -0.49230000 -0.79320000
vn -0.52590000 -0.49230000 -0.69360000
vn -0.66700000 -0.49230000 -0.55920000
vn -0.77480000 -0.49220000 -0.39680000
vn -0.84360000 -0.49220000 -0.21440000
vn -0.87020000 -0.49230000 -0.02130000
vn 0.97240000 -0.12490000 -0.19710000
vn 0.90360000 -0.12940000 -0.40830000
vn 0.79060000 -0.12490000 -0.59940000
vn 0.63700000 -0.12940000 -0.75990000
vn 0.45220000 -0.12480000 -0.88310000
vn 0.24420000 -0.12940000 -0.96100000
vn 0.02430000 -0.12490000 -0.99190000
vn -0.19700000 -0.12940000 -0.97180000
vn -0.40850000 -0.12490000 -0.90420000
vn -0.59910000 -0.12940000 -0.79020000
vn -0.76040000 -0.12490000 -0.63740000
vn -0.88260000 -0.12930000 -0.45200000
vn -0.96160000 -0.12500000 -0.24440000
vn -0.99130000 -0.12930000 -0.02420000
vn -0.85310000 -0.49230000 0.17290000
vn -0.69290000 -0.70720000 0.14040000
vn -0.25390000 -0.96590000 0.05150000
vn -0.23610000 -0.96590000 0.10670000
vn -0.64430000 -0.70720000 0.29110000
vn -0.20640000 -0.96590000 0.15650000
vn -0.56340000 -0.70720000 0.42720000
vn -0.45420000 -0.70720000 0.54180000
vn -0.16650000 -0.96580000 0.19860000
vn -0.11810000 -0.96590000 0.23060000
vn -0.32230000 -0.70720000 0.62930000
vn -0.17410000 -0.70710000 0.68540000
vn -0.06380000 -0.96590000 0.25110000
vn -0.01730000 -0.70720000 0.70680000
vn -0.00630000 -0.96600000 0.25860000
vn 0.14040000 -0.70720000 0.69290000
vn 0.05150000 -0.96590000 0.25390000
vn 0.29110000 -0.70720000 0.64430000
vn 0.10670000 -0.96590000 0.23610000
vn 0.42720000 -0.70720000 0.56340000
vn 0.15650000 -0.96590000 0.20640000
vn 0.54180000 -0.70720000 0.45420000
vn 0.19820000 -0.96600000 0.16620000
vn 0.62930000 -0.70720000 0.32230000
vn 0.23020000 -0.96600000 0.11780000
vn 0.25100000 -0.96590000 0.06380000
vn 0.68540000 -0.70710000 0.17410000
vn -0.79320000 -0.49230000 0.35840000
vn -0.69360000 -0.49230000 0.52590000
vn -0.55920000 -0.49230000 0.66700000
vn -0.39680000 -0.49220000 0.77480000
vn -0.21440000 -0.49220000 0.84360000
vn -0.02130000 -0.49230000 0.87020000
vn 0.17290000 -0.49230000 0.85310000
vn 0.35840000 -0.49230000 0.79320000
vn 0.52590000 -0.49230000 0.69360000
vn 0.66700000 -0.49230000 0.55920000
vn 0.77480000 -0.49220000 0.39680000
vn 0.84360000 -0.49220000 0.21440000
vn -0.97240000 -0.12490000 0.19710000
vn -0.90360000 -0.12940000 0.40830000
vn -0.79060000 -0.12490000 0.59940000
vn -0.63700000 -0.12940000 0.75990000
vn -0.45220000 -0.12480000 0.88310000
vn -0.24420000 -0.12940000 0.96100000
vn -0.02430000 -0.12490000 0.99190000
vn 0.19700000 -0.12940000 0.97180000
vn 0.40850000 -0.12490000 0.90420000
vn 0.59910000 -0.12940000 0.79020000
vn 0.76040000 -0.12490000 0.63740000
vn 0.88260000 -0.12930000 0.45200000
vn 0.96160000 -0.12500000 0.24440000
vn 0.99920000 0.03230000 0.02440000
vn 0.91080000 0.03230000 -0.41150000
vn 0.64210000 0.03220000 -0.76590000
vn 0.24620000 0.03220000 -0.96870000
vn -0.19850000 0.03220000 -0.97960000
vn -0.60390000 0.03220000 -0.79640000
vn -0.88960000 0.03230000 -0.45550000
vn -0.99920000 0.03230000 -0.02440000
vn -0.91080000 0.03230000 0.41150000
vn -0.64210000 0.03220000 0.76590000
vn -0.24620000 0.03220000 0.96870000
vn 0.19850000 0.03220000 0.97960000
vn 0.60390000 0.03220000 0.79640000
vn 0.88960000 0.03230000 0.45550000
vn -0.00000000 1.00000000 -0.00000000
vn -0.00000000 1.00000000 -0.00000000
vn -0.00000000 1.00000000 -0.00000000
vn -0.00000000 1.00000000 -0.00000000
vn -0.00000000 1.00000000 -0.00000000
vn -0.00000000 1.00000000 -0.00000000
vn -0.00000000 1.00000000 -0.00000000
vn -0.00000000 1.00000000 -0.00000000
vn -0.00000000 1.00000000 -0.00000000
vn -0.00000000 1.00000000 -0.00000000
vn -0.00000000 1.00000000 -0.00000000
vn -0.00000000 1.00000000 -0.00000000
vn -0.00000000 1.00000000 -0.00000000
vn -0.00000000 1.00000000 -0.00000000
vn -0.00000000 -1.00000000 -0.00000000
vn -0.00000000 -1.00000000 -0.00000000
vn -0.00000000 -1.00000000 -0.00000000
vn -0.00000000 -1.00000000 -0.00000000
vn -0.00000000 -1.00000000 -0.00000000
vn -0.00000000 -1.00000000 -0.00000000
vn -0.00000000 -1.00000000 -0.00000000
vn -0.00000000 -1.00000000 -0.00000000
vn -0.00000000 -1.00000000 -0.00000000
vn -0.00000000 -1.00000000 -0.00000000
vn -0.00000000 -1.00000000 -0.00000000
vn -0.00000000 -1.00000000 -0.00000000
vn -0.00000000 -1.00000000 -0.00000000
vn -0.00000000 -1.00000000 -0.00000000
vn 0.22160000 -0.03230000 -0.97460000
vn 0.62250000 -0.03230000 -0.78190000
vn 0.90010000 -0.03230000 -0.43440000
vn 0.99950000 -0.03220000 -0.00080000
vn 0.89920000 -0.02580000 0.43690000
vn 0.62640000 -0.02830000 0.77890000
vn 0.22210000 -0.03200000 0.97450000
vn -0.22690000 -0.01890000 0.97370000
vn -0.61850000 -0.01890000 0.78550000
vn -0.89970000 -0.03200000 0.43540000
vn -0.99960000 -0.02830000 -0.00250000
vn -0.90290000 -0.02580000 -0.42910000
vn -0.62380000 -0.03220000 -0.78090000
vn -0.22320000 -0.03230000 -0.97420000
vn 0.88330000 0.09710000 0.45860000
vn 0.73870000 0.09420000 0.66740000
vn 0.55400000 0.24530000 0.79560000
vn 0.43110000 0.10070000 0.89660000
vn 0.23310000 0.22370000 0.94640000
vn 0.02750000 0.09540000 0.99510000
vn -0.27320000 0.09560000 0.95720000
vn -0.57680000 0.09570000 0.81130000
vn -0.79410000 0.09560000 0.60020000
vn -0.87270000 0.31050000 0.37680000
vn -0.96260000 0.10440000 0.25010000
vn -0.90990000 0.09710000 -0.40320000
vn -0.98260000 0.09410000 -0.15980000
vn -0.97830000 0.20140000 0.04790000
vn -0.77470000 0.12290000 -0.62020000
vn -0.61890000 0.12940000 -0.77470000
vn -0.43120000 0.12500000 -0.89360000
vn -0.22150000 0.12940000 -0.96650000
vn -0.00080000 0.12480000 -0.99220000
vn 0.21990000 0.12920000 -0.96690000
vn 0.42980000 0.12490000 -0.89430000
vn 0.61760000 0.12930000 -0.77580000
vn 0.77520000 0.12490000 -0.61930000
vn 0.89300000 0.12940000 -0.43100000
vn 0.96710000 0.12500000 -0.22160000
vn 0.96830000 0.12280000 0.21750000
vn 0.99160000 0.12930000 -0.00080000
vn 0.27850000 0.91650000 0.28710000
vn 0.40680000 0.88900000 0.21010000
vn 0.12590000 0.99000000 0.06320000
vn -0.09790000 0.99430000 -0.04300000
vn -0.39830000 0.91650000 -0.03780000
vn -0.10830000 0.99410000 -0.01070000
vn -0.38830000 0.91620000 0.09920000
vn -0.10530000 0.99410000 0.02690000
vn -0.33100000 0.91620000 0.22610000
vn -0.08980000 0.99410000 0.06140000
vn -0.23380000 0.91610000 0.32570000
vn -0.06340000 0.99410000 0.08830000
vn -0.10830000 0.91610000 0.38600000
vn -0.02940000 0.99410000 0.10470000
vn 0.03030000 0.91610000 0.39970000
vn 0.00820000 0.99410000 0.10840000
vn 0.16520000 0.91610000 0.36520000
vn 0.04480000 0.99410000 0.09910000
vn 0.07600000 0.99410000 0.07780000
vn 0.75560000 0.52420000 0.39280000
vn 0.63300000 0.70110000 0.32830000
vn 0.49960000 0.69640000 0.51510000
vn 0.29570000 0.69640000 0.65390000
vn 0.05420000 0.69640000 0.71560000
vn -0.19380000 0.69650000 0.69090000
vn -0.41840000 0.69650000 0.58300000
vn -0.59270000 0.69630000 0.40480000
vn -0.69530000 0.69640000 0.17760000
vn -0.71430000 0.69650000 -0.06830000
vn -0.30360000 0.94330000 -0.13450000
vn -0.48920000 0.84500000 -0.21610000
vn -0.65180000 0.70110000 -0.28910000
vn -0.77900000 0.52380000 -0.34470000
vn 0.65790000 0.39130000 0.64350000
vn 0.39560000 0.38590000 0.83340000
vn 0.04790000 0.38920000 0.91990000
vn -0.25030000 0.37540000 0.89240000
vn -0.54040000 0.37540000 0.75300000
vn -0.74940000 0.38910000 0.53570000
vn -0.89230000 0.38230000 0.24020000
vn -0.91310000 0.39150000 -0.11400000
vn -0.86670000 0.31780000 -0.38450000
vn 0.84170000 0.31780000 0.43650000
vn -0.39680000 0.85830000 -0.32540000
vn -0.67700000 0.49150000 -0.54790000
vn 0.49950000 0.85950000 0.10890000
vn 0.13620000 0.99020000 0.03100000
vn 0.25880000 0.96590000 -0.00020000
vn 0.70690000 0.70730000 -0.00060000
vn 0.13970000 0.99020000 -0.00010000
vn 0.68930000 0.70700000 -0.15790000
vn 0.25220000 0.96590000 -0.05780000
vn 0.13610000 0.99020000 -0.03120000
vn 0.23310000 0.96590000 -0.11250000
vn 0.63690000 0.70710000 -0.30730000
vn 0.12580000 0.99020000 -0.06070000
vn 0.55250000 0.70710000 -0.44130000
vn 0.20220000 0.96590000 -0.16150000
vn 0.10910000 0.99020000 -0.08710000
vn 0.16110000 0.96600000 -0.20240000
vn 0.44050000 0.70710000 -0.55320000
vn 0.08690000 0.99020000 -0.10920000
vn 0.11210000 0.96590000 -0.23320000
vn 0.30630000 0.70710000 -0.63730000
vn 0.06050000 0.99020000 -0.12590000
vn 0.05740000 0.96590000 -0.25240000
vn 0.15680000 0.70690000 -0.68970000
vn 0.03100000 0.99020000 -0.13620000
vn -0.00020000 0.96590000 -0.25880000
vn -0.00060000 0.70730000 -0.70690000
vn -0.00010000 0.99020000 -0.13970000
vn -0.05780000 0.96590000 -0.25220000
vn -0.15790000 0.70700000 -0.68930000
vn -0.03120000 0.99020000 -0.13610000
vn -0.30730000 0.70710000 -0.63690000
vn -0.11250000 0.96590000 -0.23310000
vn -0.06070000 0.99020000 -0.12580000
vn -0.44130000 0.70710000 -0.55250000
vn -0.16150000 0.96590000 -0.20220000
vn -0.08710000 0.99020000 -0.10910000
vn -0.10540000 0.99050000 -0.08830000
vn -0.54330000 0.49220000 -0.68010000
vn -0.37830000 0.49220000 -0.78400000
vn -0.19440000 0.49220000 -0.84850000
vn -0.00070000 0.49220000 -0.87050000
vn 0.19300000 0.49220000 -0.84880000
vn 0.37710000 0.49220000 -0.78460000
vn 0.54220000 0.49210000 -0.68110000
vn 0.68010000 0.49220000 -0.54330000
vn 0.78400000 0.49220000 -0.37830000
vn 0.84850000 0.49220000 -0.19440000
vn 0.87050000 0.49220000 -0.00070000
vn 0.85070000 0.49160000 0.18630000
vn 0.07550000 -0.00000000 0.99710000
vn 0.90130000 -0.00000000 0.43320000
vn 0.90130000 -0.00000000 0.43310000
vn -0.00000000 1.00000000 -0.00000000
vn 0.90130000 -0.00000000 0.43310000
vn -0.00000000 1.00000000 -0.00000000
vn 0.82580000 -0.00000000 -0.56400000
vn -0.00000000 1.00000000 -0.00000000
vn -0.82580000 -0.00000000 0.56400000
vn 0.07550000 -0.00000000 0.99710000
vn 0.07540000 -0.00000000 0.99720000
vn -0.82580000 -0.00000000 0.56400000
vn -0.90130000 -0.00000000 -0.43310000
vn -0.00000000 1.00000000 -0.00000000
vn -0.90130000 -0.00000000 -0.43320000
vn -0.07550000 -0.00000000 -0.99710000
vn -0.90130000 -0.00000000 -0.43310000
vn -0.00000000 1.00000000 -0.00000000
vn -0.07550000 -0.00000000 -0.99710000
vn 0.82580000 -0.00000000 -0.56400000
vn -0.00000000 1.00000000 -0.00000000
vn 0.90130000 -0.00000000 0.43320000
vn 0.07550000 -0.00000000 0.99710000
vn -0.00000000 1.00000000 -0.00000000
vn 0.90130000 -0.00000000 0.43310000
vn 0.90130000 -0.00000000 0.43320000
vn -0.00000000 1.00000000 -0.00000000
vn 0.44700000 0.86600000 0.22400000
vn 0.82580000 -0.00000000 -0.56400000
vn -0.00000000 1.00000000 -0.00000000
vn 0.90130000 -0.00000000 0.43310000
vn -0.00000000 1.00000000 -0.00000000
vn -0.82580000 -0.00000000 0.56400000
vn 0.07540000 -0.00000000 0.99720000
vn 0.07540000 -0.00000000 0.99720000
vn 0.07550000 -0.00000000 0.99710000
vn 0.03780000 0.86600000 0.49860000
vn -0.00000000 1.00000000 -0.00000000
vn -0.00000000 1.00000000 -0.00000000
vn -0.82580000 -0.00000000 0.56400000
vn -0.90130000 -0.00000000 -0.43310000
vn -0.00000000 1.00000000 -0.00000000
vn -0.82580000 -0.00000000 0.56400000
vn -0.41290000 0.86600000 0.28200000
vn -0.07550000 -0.00000000 -0.99710000
vn -0.00000000 1.00000000 -0.00000000
vn -0.90130000 -0.00000000 -0.43320000
vn -0.00000000 1.00000000 0.00010000
vn -0.45420000 0.86600000 -0.20910000
vn -0.90130000 -0.00000000 -0.43310000
vn -0.90130000 -0.00000000 -0.43320000
vn -0.00000000 1.00000000 -0.00000000
vn 0.82580000 -0.00000000 -0.56400000
vn -0.00000000 1.00000000 -0.00000000
vn -0.07550000 -0.00000000 -0.99710000
vn -0.07550000 -0.00000000 -0.99710000
vn -0.00000000 1.00000000 0.00010000
vn -0.00000000 1.00000000 -0.00000000
vn -0.02020000 0.86590000 -0.49980000
vn 0.82580000 -0.00000000 -0.56400000
vn 0.40290000 0.86590000 -0.29650000
vn -0.00000000 1.00000000 -0.00000000
vn 0.46510000 0.86550000 -0.18590000
vn -0.00000000 1.00000000 -0.00000000
vn 0.50000000 0.86600000 -0.00040000
vn -0.00000000 1.00000000 -0.00000000
vn -0.00000000 1.00000000 -0.00000000
vn 0.28200000 0.86600000 0.41290000
vn -0.00000000 1.00000000 -0.00000000
vn -0.21660000 0.86600000 0.45060000
vn -0.49860000 0.86600000 0.03780000
vn -0.00000000 1.00000000 -0.00000000
vn -0.31210000 0.86600000 -0.39070000
vn -0.00000000 1.00000000 -0.00000000
vn -0.00000000 1.00000000 -0.00000000
vn -0.14540000 0.86550000 -0.47930000
vn -0.00000000 1.00000000 0.00010000
vn 0.12750000 0.86590000 -0.48370000
vn -0.00000000 1.00000000 -0.00000000
vn 0.29800000 0.86590000 -0.40170000
vn -0.00000000 1.00000000 -0.00000000
vn -0.00130000 1.00000000 0.00270000
f 1//1 4//4 9//9
f 9//9 4//4 10//10
f 9//9 10//10 14//14
f 14//14 10//10 17//17
f 16//16 12//12 21//21
f 21//21 12//12 24//24
f 15//15 18//18 25//25
f 25//25 18//18 20//20
f 8//8 13//13 29//29
f 29//29 13//13 26//26
f 2//2 7//7 31//31
f 31//31 7//7 28//28
f 5//5 3//3 34//34
f 34//34 3//3 32//32
f 11//11 6//6 22//22
f 22//22 6//6 35//35
f 37//37 38//38 23//23
f 33//33 39//39 40//40
f 41//41 36//36 42//42
f 42//42 36//36 33//33
f 42//42 33//33 43//43
f 43//43 33//33 40//40
f 44//44 45//45 19//19
f 30//30 46//46 47//47
f 27//27 48//48 49//49
f 47//47 50//50 30//30
f 30//30 50//50 51//51
f 30//30 51//51 33//33
f 33//33 51//51 52//52
f 33//33 52//52 39//39
f 49//49 53//53 27//27
f 27//27 53//53 54//54
f 27//27 54//54 30//30
f 30//30 54//54 55//55
f 30//30 55//55 46//46
f 45//45 56//56 19//19
f 19//19 56//56 57//57
f 19//19 57//57 27//27
f 27//27 57//57 58//58
f 27//27 58//58 48//48
f 41//41 59//59 36//36
f 36//36 59//59 60//60
f 36//36 60//60 23//23
f 23//23 60//60 61//61
f 23//23 61//61 37//37
f 38//38 62//62 23//23
f 23//23 62//62 63//63
f 23//23 63//63 19//19
f 19//19 63//63 64//64
f 19//19 64//64 44//44
f 65//65 66//66 67//67
f 66//66 69//69 71//71
f 68//68 43//43 40//40
f 68//68 40//40 70//70
f 70//70 40//40 39//39
f 70//70 39//39 73//73
f 73//73 39//39 52//52
f 73//73 52//52 74//74
f 74//74 52//52 51//51
f 74//74 51//51 77//77
f 77//77 51//51 50//50
f 77//77 50//50 79//79
f 79//79 50//50 47//47
f 79//79 47//47 81//81
f 81//81 47//47 46//46
f 81//81 46//46 83//83
f 83//83 46//46 55//55
f 83//83 55//55 85//85
f 85//85 55//55 54//54
f 85//85 54//54 87//87
f 87//87 54//54 53//53
f 87//87 53//53 89//89
f 89//89 53//53 49//49
f 89//89 49//49 91//91
f 91//91 49//49 48//48
f 91//91 48//48 93//93
f 93//93 48//48 58//58
f 93//93 58//58 95//95
f 95//95 58//58 57//57
f 95//95 57//57 96//96
f 66//66 71//71 67//67
f 67//67 71//71 72//72
f 67//67 72//72 98//98
f 98//98 72//72 75//75
f 98//98 75//75 99//99
f 99//99 75//75 76//76
f 99//99 76//76 100//100
f 100//100 76//76 78//78
f 100//100 78//78 101//101
f 101//101 78//78 80//80
f 101//101 80//80 102//102
f 102//102 80//80 82//82
f 102//102 82//82 103//103
f 103//103 82//82 84//84
f 103//103 84//84 104//104
f 104//104 84//84 86//86
f 104//104 86//86 105//105
f 105//105 86//86 88//88
f 105//105 88//88 106//106
f 106//106 88//88 90//90
f 106//106 90//90 107//107
f 107//107 90//90 92//92
f 107//107 92//92 108//108
f 108//108 92//92 94//94
f 108//108 94//94 109//109
f 109//109 94//94 97//97
f 109//109 97//97 110//110
f 65//65 67//67 111//111
f 111//111 67//67 98//98
f 111//111 98//98 112//112
f 112//112 98//98 99//99
f 112//112 99//99 113//113
f 113//113 99//99 100//100
f 113//113 100//100 114//114
f 114//114 100//100 101//101
f 114//114 101//101 115//115
f 115//115 101//101 102//102
f 115//115 102//102 116//116
f 116//116 102//102 103//103
f 116//116 103//103 117//117
f 117//117 103//103 104//104
f 117//117 104//104 118//118
f 118//118 104//104 105//105
f 118//118 105//105 119//119
f 119//119 105//105 106//106
f 119//119 106//106 120//120
f 120//120 106//106 107//107
f 120//120 107//107 121//121
f 121//121 107//107 108//108
f 121//121 108//108 122//122
f 122//122 108//108 109//109
f 122//122 109//109 123//123
f 123//123 109//109 110//110
f 123//123 110//110 124//124
f 124//124 110//110 125//125
f 110//110 97//97 126//126
f 96//96 57//57 56//56
f 96//96 56//56 127//127
f 127//127 56//56 45//45
f 127//127 45//45 128//128
f 128//128 45//45 44//44
f 128//128 44//44 130//130
f 130//130 44//44 64//64
f 130//130 64//64 133//133
f 133//133 64//64 63//63
f 133//133 63//63 134//134
f 134//134 63//63 62//62
f 134//134 62//62 137//137
f 137//137 62//62 38//38
f 137//137 38//38 139//139
f 139//139 38//38 37//37
f 139//139 37//37 141//141
f 141//141 37//37 61//61
f 141//141 61//61 143//143
f 143//143 61//61 60//60
f 143//143 60//60 145//145
f 145//145 60//60 59//59
f 145//145 59//59 147//147
f 147//147 59//59 41//41
f 147//147 41//41 149//149
f 149//149 41//41 42//42
f 149//149 42//42 150//150
f 150//150 42//42 43//43
f 150//150 43//43 68//68
f 110//110 126//126 125//125
f 125//125 126//126 129//129
f 125//125 129//129 152//152
f 152//152 129//129 131//131
f 152//152 131//131 153//153
f 153//153 131//131 132//132
f 153//153 132//132 154//154
f 154//154 132//132 135//135
f 154//154 135//135 155//155
f 155//155 135//135 136//136
f 155//155 136//136 156//156
f 156//156 136//136 138//138
f 156//156 138//138 157//157
f 157//157 138//138 140//140
f 157//157 140//140 158//158
f 158//158 140//140 142//142
f 158//158 142//142 159//159
f 159//159 142//142 144//144
f 159//159 144//144 160//160
f 160//160 144//144 146//146
f 160//160 146//146 161//161
f 161//161 146//146 148//148
f 161//161 148//148 162//162
f 162//162 148//148 151//151
f 162//162 151//151 163//163
f 163//163 151//151 69//69
f 163//163 69//69 66//66
f 124//124 125//125 164//164
f 164//164 125//125 152//152
f 164//164 152//152 165//165
f 165//165 152//152 153//153
f 165//165 153//153 166//166
f 166//166 153//153 154//154
f 166//166 154//154 167//167
f 167//167 154//154 155//155
f 167//167 155//155 168//168
f 168//168 155//155 156//156
f 168//168 156//156 169//169
f 169//169 156//156 157//157
f 169//169 157//157 170//170
f 170//170 157//157 158//158
f 170//170 158//158 171//171
f 171//171 158//158 159//159
f 171//171 159//159 172//172
f 172//172 159//159 160//160
f 172//172 160//160 173//173
f 173//173 160//160 161//161
f 173//173 161//161 174//174
f 174//174 161//161 162//162
f 174//174 162//162 175//175
f 175//175 162//162 163//163
f 175//175 163//163 176//176
f 176//176 163//163 66//66
f 176//176 66//66 65//65
f 65//65 111//111 177//177
f 177//177 111//111 178//178
f 111//111 112//112 178//178
f 178//178 112//112 113//113
f 178//178 113//113 179//179
f 113//113 114//114 179//179
f 179//179 114//114 115//115
f 179//179 115//115 180//180
f 115//115 116//116 180//180
f 180//180 116//116 117//117
f 180//180 117//117 181//181
f 117//117 118//118 181//181
f 181//181 118//118 119//119
f 181//181 119//119 182//182
f 119//119 120//120 182//182
f 182//182 120//120 121//121
f 182//182 121//121 183//183
f 124//124 184//184 123//123
f 123//123 184//184 183//183
f 123//123 183//183 122//122
f 122//122 183//183 121//121
f 124//124 164//164 184//184
f 184//184 164//164 185//185
f 164//164 165//165 185//185
f 185//185 165//165 166//166
f 185//185 166//166 186//186
f 166//166 167//167 186//186
f 186//186 167//167 168//168
f 186//186 168//168 187//187
f 168//168 169//169 187//187
f 187//187 169//169 170//170
f 187//187 170//170 188//188
f 170//170 171//171 188//188
f 188//188 171//171 172//172
f 188//188 172//172 189//189
f 172//172 173//173 189//189
f 189//189 173//173 174//174
f 189//189 174//174 190//190
f 65//65 177//177 176//176
f 176//176 177//177 190//190
f 176//176 190//190 175//175
f 175//175 190//190 174//174
f 193//193 194//194 198//198
f 199//199 200//200 201//201
f 201//201 200//200 191//191
f 201//201 191//191 202//202
f 203//203 202//202 204//204
f 204//204 202//202 191//191
f 204//204 191//191 198//198
f 198//198 191//191 192//192
f 198//198 192//192 193//193
f 194//194 195//195 198//198
f 198//198 195//195 196//196
f 198//198 196//196 197//197
f 213//213 214//214 215//215
f 215//215 214//214 209//209
f 214//214 216//216 217//217
f 218//218 215//215 212//212
f 212//212 215//215 209//209
f 212//212 209//209 211//211
f 211//211 209//209 210//210
f 208//208 209//209 207//207
f 207//207 209//209 214//214
f 207//207 214//214 206//206
f 206//206 214//214 217//217
f 206//206 217//217 205//205
f 233//233 234//234 223//223
f 223//223 234//234 224//224
f 234//234 235//235 224//224
f 224//224 235//235 236//236
f 224//224 236//236 225//225
f 236//236 237//237 225//225
f 225//225 237//237 238//238
f 225//225 238//238 226//226
f 238//238 239//239 226//226
f 226//226 239//239 240//240
f 226//226 240//240 227//227
f 227//227 240//240 241//241
f 227//227 241//241 228//228
f 241//241 242//242 228//228
f 228//228 242//242 243//243
f 228//228 243//243 229//229
f 244//244 230//230 245//245
f 245//245 230//230 229//229
f 245//245 229//229 246//246
f 246//246 229//229 243//243
f 244//244 247//247 230//230
f 230//230 247//247 231//231
f 247//247 248//248 231//231
f 231//231 248//248 249//249
f 231//231 249//249 232//232
f 249//249 250//250 232//232
f 232//232 250//250 251//251
f 232//232 251//251 219//219
f 251//251 252//252 219//219
f 219//219 252//252 253//253
f 219//219 253//253 220//220
f 253//253 254//254 220//220
f 220//220 254//254 255//255
f 220//220 255//255 221//221
f 255//255 256//256 221//221
f 221//221 256//256 257//257
f 221//221 257//257 222//222
f 233//233 223//223 258//258
f 258//258 223//223 222//222
f 258//258 222//222 259//259
f 259//259 222//222 257//257
f 260//260 261//261 262//262
f 263//263 264//264 265//265
f 265//265 264//264 266//266
f 265//265 266//266 267//267
f 267//267 266//266 268//268
f 267//267 268//268 269//269
f 269//269 268//268 270//270
f 269//269 270//270 271//271
f 271//271 270//270 272//272
f 271//271 272//272 273//273
f 273//273 272//272 274//274
f 273//273 274//274 275//275
f 275//275 274//274 276//276
f 275//275 276//276 277//277
f 277//277 276//276 260//260
f 277//277 260//260 278//278
f 278//278 260//260 262//262
f 279//279 280//280 281//281
f 281//281 280//280 261//261
f 261//261 260//260 281//281
f 281//281 260//260 276//276
f 281//281 276//276 282//282
f 282//282 276//276 274//274
f 282//282 274//274 283//283
f 283//283 274//274 272//272
f 283//283 272//272 284//284
f 284//284 272//272 270//270
f 284//284 270//270 285//285
f 285//285 270//270 268//268
f 285//285 268//268 286//286
f 286//286 268//268 266//266
f 286//286 266//266 287//287
f 287//287 266//266 264//264
f 287//287 264//264 288//288
f 263//263 289//289 264//264
f 264//264 289//289 290//290
f 264//264 290//290 288//288
f 288//288 290//290 291//291
f 288//288 291//291 292//292
f 279//279 281//281 293//293
f 293//293 281//281 282//282
f 293//293 282//282 294//294
f 294//294 282//282 283//283
f 294//294 283//283 295//295
f 295//295 283//283 284//284
f 295//295 284//284 296//296
f 296//296 284//284 285//285
f 296//296 285//285 297//297
f 297//297 285//285 286//286
f 297//297 286//286 298//298
f 298//298 286//286 287//287
f 298//298 287//287 299//299
f 299//299 287//287 288//288
f 299//299 288//288 300//300
f 300//300 288//288 292//292
f 300//300 292//292 301//301
f 234//234 233//233 293//293
f 293//293 233//233 302//302
f 293//293 302//302 279//279
f 242//242 241//241 298//298
f 298//298 241//241 240//240
f 298//298 240//240 297//297
f 297//297 240//240 239//239
f 297//297 239//239 296//296
f 296//296 239//239 238//238
f 296//296 238//238 295//295
f 295//295 238//238 237//237
f 295//295 237//237 294//294
f 294//294 237//237 236//236
f 294//294 236//236 293//293
f 293//293 236//236 235//235
f 293//293 235//235 234//234
f 242//242 298//298 243//243
f 243//243 298//298 299//299
f 243//243 299//299 246//246
f 246//246 299//299 300//300
f 246//246 300//300 245//245
f 245//245 300//300 301//301
f 245//245 301//301 244//244
f 291//291 290//290 303//303
f 303//303 290//290 289//289
f 301//301 292//292 304//304
f 304//304 292//292 291//291
f 247//247 244//244 301//301
f 262//262 305//305 306//306
f 306//306 305//305 307//307
f 306//306 307//307 309//309
f 309//309 307//307 311//311
f 309//309 311//311 312//312
f 312//312 311//311 313//313
f 312//312 313//313 315//315
f 315//315 313//313 317//317
f 315//315 317//317 318//318
f 318//318 317//317 319//319
f 318//318 319//319 321//321
f 321//321 319//319 322//322
f 321//321 322//322 324//324
f 324//324 322//322 325//325
f 324//324 325//325 327//327
f 327//327 325//325 328//328
f 327//327 328//328 330//330
f 330//330 328//328 331//331
f 330//330 331//331 333//333
f 333//333 331//331 335//335
f 333//333 335//335 336//336
f 336//336 335//335 338//338
f 336//336 338//338 339//339
f 339//339 338//338 303//303
f 339//339 303//303 340//340
f 340//340 303//303 289//289
f 340//340 289//289 263//263
f 291//291 303//303 304//304
f 304//304 303//303 337//337
f 304//304 337//337 341//341
f 341//341 337//337 334//334
f 341//341 334//334 342//342
f 342//342 334//334 332//332
f 342//342 332//332 343//343
f 343//343 332//332 329//329
f 343//343 329//329 344//344
f 344//344 329//329 326//326
f 344//344 326//326 345//345
f 345//345 326//326 323//323
f 345//345 323//323 346//346
f 346//346 323//323 320//320
f 346//346 320//320 347//347
f 347//347 320//320 316//316
f 347//347 316//316 348//348
f 348//348 316//316 314//314
f 348//348 314//314 349//349
f 349//349 314//314 310//310
f 349//349 310//310 350//350
f 350//350 310//310 308//308
f 350//350 308//308 351//351
f 351//351 308//308 305//305
f 351//351 305//305 352//352
f 262//262 261//261 305//305
f 305//305 261//261 280//280
f 305//305 280//280 352//352
f 352//352 280//280 279//279
f 352//352 279//279 302//302
f 301//301 304//304 247//247
f 247//247 304//304 341//341
f 247//247 341//341 248//248
f 248//248 341//341 342//342
f 248//248 342//342 249//249
f 249//249 342//342 343//343
f 249//249 343//343 250//250
f 250//250 343//343 344//344
f 250//250 344//344 251//251
f 251//251 344//344 345//345
f 251//251 345//345 252//252
f 252//252 345//345 346//346
f 252//252 346//346 253//253
f 253//253 346//346 347//347
f 253//253 347//347 254//254
f 254//254 347//347 348//348
f 254//254 348//348 255//255
f 255//255 348//348 349//349
f 255//255 349//349 256//256
f 256//256 349//349 350//350
f 256//256 350//350 257//257
f 257//257 350//350 351//351
f 257//257 351//351 259//259
f 259//259 351//351 352//352
f 259//259 352//352 258//258
f 258//258 352//352 302//302
f 258//258 302//302 233//233
f 336//336 339//339 356//356
f 356//356 339//339 340//340
f 267//267 358//358 265//265
f 265//265 358//358 356//356
f 265//265 356//356 263//263
f 263//263 356//356 340//340
f 324//324 327//327 360//360
f 360//360 327//327 330//330
f 360//360 330//330 356//356
f 356//356 330//330 333//333
f 356//356 333//333 336//336
f 306//306 309//309 366//366
f 366//366 309//309 312//312
f 306//306 366//366 262//262
f 262//262 366//366 370//370
f 262//262 370//370 278//278
f 267//267 269//269 358//358
f 358//358 269//269 271//271
f 358//358 271//271 373//373
f 312//312 315//315 366//366
f 366//366 315//315 318//318
f 366//366 318//318 360//360
f 360//360 318//318 321//321
f 360//360 321//321 324//324
f 271//271 273//273 373//373
f 373//373 273//273 275//275
f 373//373 275//275 370//370
f 370//370 275//275 277//277
f 370//370 277//277 278//278
f 374//374 354//354 378//378
f 377//377 355//355 357//357
f 377//377 357//357 383//383
f 386//386 363//363 387//387
f 388//388 362//362 353//353
f 388//388 353//353 375//375
f 392//392 364//364 395//395
f 395//395 364//364 361//361
f 395//395 361//361 385//385
f 399//399 367//367 403//403
f 402//402 369//369 365//365
f 402//402 365//365 393//393
f 407//407 371//371 408//408
f 408//408 371//371 368//368
f 408//408 368//368 397//397
f 381//381 359//359 412//412
f 412//412 359//359 372//372
f 412//412 372//372 405//405
f 414//414 416//416 382//382
f 382//382 416//416 418//418
f 382//382 418//418 379//379
f 390//390 376//376 419//419
f 419//419 376//376 379//379
f 394//394 384//384 421//421
f 421//421 384//384 390//390
f 404//404 391//391 424//424
f 424//424 391//391 394//394
f 404//404 426//426 398//398
f 398//398 426//426 427//427
f 400//400 429//429 409//409
f 410//410 431//431 406//406
f 406//406 431//431 433//433
f 406//406 433//433 414//414
f 434//434 417//417 415//415
f 380//380 417//417 434//434
f 434//434 432//432 430//430
f 413//413 432//432 434//434
f 434//434 425//425 401//401
f 428//428 425//425 434//434
f 411//411 428//428 434//434
f 430//430 411//411 434//434
f 415//415 413//413 434//434
f 434//434 396//396 422//422
f 423//423 396//396 434//434
f 401//401 423//423 434//434
f 434//434 420//420 380//380
f 389//389 420//420 434//434
f 422//422 389//389 434//434

