mtllib material.mtl
usemtl mtl_end-cover
v 0.46373340 0.02673463 0.22165072
v 0.40778118 0.28996870 0.22165072
v 0.46218064 0.02640458 0.22165072
v 0.40622839 0.28963867 0.22165072
v 0.31113505 -0.38684648 0.00365359
v 0.32925084 -0.38111719 0.00365359
v 0.31149918 -0.38839164 0.00365359
v 0.36192811 -0.36193031 0.00365356
v 0.37575814 -0.34890202 0.00365356
v 0.36292711 -0.36316395 0.00365356
v 0.40778136 -0.28996846 0.22165072
v 0.46373340 -0.02673437 0.22165072
v 0.40622857 -0.28963843 0.22165072
v 0.46218064 -0.02640432 0.22165072
v 0.39686009 0.31742775 0.00365356
v 0.39829579 0.31810522 0.00365356
v 0.40518054 0.30014169 0.00365356
v 0.46218061 0.02640456 0.00365356
v 0.40622839 0.28963864 0.00365356
v 0.40778118 0.28996867 0.00365356
v 0.46464646 -0.00885883 0.22165072
v 0.46623009 -0.00896956 0.22165072
v 0.46464646 0.00885909 0.22165072
v 0.46623009 0.00896983 0.22165072
v 0.32984143 -0.38259074 0.00365359
v 0.29236734 -0.38980898 0.00365359
v 0.29249683 -0.39139110 0.00365359
v 0.37693006 -0.34997284 0.00365356
v 0.36292711 -0.36316398 0.22165073
v 0.34711289 -0.37411836 0.22165073
v 0.34711289 -0.37411836 0.17863999
v 0.36277440 -0.36326975 0.17864090
v 0.36292711 -0.36316395 0.17864075
v 0.32984143 -0.38259077 0.22165073
v 0.31149921 -0.38839167 0.22165073
v 0.31149921 -0.38839164 0.17832361
v 0.31267962 -0.38801834 0.17864053
v 0.32938293 -0.38273576 0.17864043
v 0.32984141 -0.38259074 0.17864002
v 0.37575793 0.34890226 0.00365356
v 0.36192790 0.36193043 0.00365356
v 0.37692985 0.34997305 0.00365356
v 0.40365988 0.29968607 0.22165072
v 0.40518054 0.30014172 0.22165072
v 0.39686009 0.31742778 0.22165072
v 0.39829579 0.31810525 0.22165072
v 0.38748956 0.33395654 0.22165072
v 0.38880810 0.33484054 0.22165072
v 0.37575796 0.34890229 0.22165073
v 0.37692988 0.34997308 0.22165073
v 0.36192787 0.36193049 0.22165073
v 0.36292690 0.36316416 0.22165073
v 0.34630889 0.37274960 0.22165073
v 0.34711269 0.37411854 0.22165073
v 0.32925060 0.38111740 0.22165073
v 0.32984120 0.38259095 0.22165073
v 0.31113485 0.38684669 0.22165073
v 0.31149897 0.38839185 0.22165073
v 0.29236710 0.38980916 0.22165073
v 0.29249659 0.39139131 0.22165073
v 0.34630889 0.37274957 0.00365356
v 0.34711272 0.37411845 0.00365356
v 0.36292690 0.36316413 0.00365356
v 0.40778133 -0.28996843 0.00365356
v 0.40622854 -0.28963843 0.00365356
v 0.46373340 -0.02673439 0.00365356
v 0.46218064 -0.02640433 0.00365356
v 0.46464646 -0.00885884 0.00365356
v 0.46623009 -0.00896959 0.00365356
v 0.38748953 0.33395651 0.00365356
v 0.38880807 0.33484051 0.00365356
v 0.23200586 0.39023247 0.00365359
v 0.23200586 0.39181995 0.00365359
v 0.28200525 0.39181998 0.00365359
v 0.34630910 -0.37274939 0.00365356
v 0.34711292 -0.37411833 0.00365356
v 0.32925063 0.38111737 0.00365359
v 0.23200609 -0.39023241 0.00365359
v 0.28200546 -0.39023238 0.00365359
v 0.23200609 -0.39181983 0.00365359
v 0.31113485 0.38684666 0.00365359
v 0.29236713 0.38980910 0.00365359
v 0.31149897 0.38839182 0.00365359
v 0.39686027 -0.31742755 0.00365356
v 0.40366003 -0.29968584 0.00365356
v 0.39829597 -0.31810498 0.00365356
v 0.40518069 -0.30014145 0.00365356
v 0.29249662 0.39139128 0.00365359
v 0.28200525 0.39023250 0.00365359
v 0.39829597 -0.31810501 0.22165072
v 0.38880828 -0.33484030 0.22165072
v 0.38880828 -0.33484030 0.17863448
v 0.39722329 -0.31999713 0.17863938
v 0.39829597 -0.31810501 0.17806382
v 0.28200546 -0.39181980 0.00365359
v 0.46464646 0.00885907 0.00365356
v 0.46623009 0.00896982 0.00365356
v 0.46373338 0.02673462 0.00365356
v 0.38880810 0.33484054 0.17863467
v 0.38076529 0.34508687 0.17864130
v 0.37692985 0.34997308 0.17863968
v 0.40518072 -0.30014148 0.22165072
v 0.39887646 -0.31659040 0.17764673
v 0.39887646 -0.31659043 0.16481881
v 0.39829597 -0.31810501 0.16437635
v 0.39985883 -0.31402725 0.16753030
v 0.39985880 -0.31402725 0.17493668
v 0.40021762 -0.31309107 0.17123377
v 0.28200522 0.39023259 0.21165088
v 0.28200522 0.39182001 0.21165088
v 0.23200583 0.39023256 0.21165088
v 0.23200583 0.39181998 0.21165088
v 0.40365988 0.29968604 0.00365356
v 0.23200606 -0.39023244 0.21165088
v 0.23200606 -0.39181986 0.21165088
v 0.28200546 -0.39023241 0.21165088
v 0.28200546 -0.39181983 0.21165088
v 0.32984123 0.38259086 0.00365359
v 0.29236734 -0.38980898 0.22165073
v 0.29249683 -0.39139113 0.22165073
v 0.31113508 -0.38684651 0.22165073
v 0.32925084 -0.38111722 0.22165073
v 0.34630910 -0.37274942 0.22165073
v 0.36192808 -0.36193031 0.22165073
v 0.37575814 -0.34890205 0.22165073
v 0.37693006 -0.34997284 0.22165073
v 0.38748974 -0.33395630 0.22165072
v 0.39686027 -0.31742755 0.22165072
v 0.40366006 -0.29968584 0.22165072
v 0.38748974 -0.33395627 0.00365356
v 0.38880828 -0.33484030 0.00365356
v 0.37575814 -0.34890205 0.17864802
v 0.37545180 -0.34919062 0.17864823
v 0.36192808 -0.36193028 0.17864928
v 0.34711272 0.37411854 0.17864013
v 0.34678671 0.37427840 0.17864041
v 0.32984120 0.38259092 0.17864019
v 0.38748974 -0.33395630 0.17864290
v 0.37945130 -0.34419709 0.17864959
v 0.36192787 0.36193049 0.17864938
v 0.37545186 0.34919065 0.17864835
v 0.37575796 0.34890229 0.17864814
v 0.36292690 0.36316416 0.17864086
v 0.36277443 0.36326975 0.17864102
v 0.34630910 -0.37274942 0.17864865
v 0.34592059 -0.37293997 0.17864895
v 0.32925081 -0.38111719 0.17864871
v 0.31113485 0.38684669 0.17833561
v 0.31230354 0.38647708 0.17864938
v 0.32876551 0.38127083 0.17864928
v 0.32925060 0.38111740 0.17864887
v 0.31113508 -0.38684651 0.17833553
v 0.30866838 -0.38723588 0.17765680
v 0.30898526 -0.38718584 0.11542889
v 0.31113505 -0.38684651 0.11486360
v 0.30632880 -0.38760516 0.11813997
v 0.30598378 -0.38765964 0.17494586
v 0.30500299 -0.38781443 0.17124188
v 0.30535826 -0.38775837 0.12184393
v 0.30632880 -0.38760516 0.12554820
v 0.30598378 -0.38765964 0.16753741
v 0.31113505 -0.38684651 0.16417453
v 0.31113505 -0.38684651 0.12886369
v 0.30898526 -0.38718584 0.12826009
v 0.30866835 -0.38723588 0.16482523
v 0.34592062 0.37294003 0.17864910
v 0.34630889 0.37274960 0.17864875
v 0.36168572 0.36209819 0.17864963
v 0.39686027 -0.31742755 0.16442807
v 0.39736322 -0.31611532 0.16482387
v 0.39833233 -0.31358674 0.16753598
v 0.39686027 -0.31742752 0.17801602
v 0.39736322 -0.31611532 0.17765467
v 0.39868629 -0.31266320 0.17124026
v 0.39833233 -0.31358677 0.17494398
v 0.39686009 0.31742775 0.17801622
v 0.39736310 0.31611532 0.17765477
v 0.39736313 0.31611532 0.16482399
v 0.39686009 0.31742778 0.16442809
v 0.39833221 0.31358674 0.16753609
v 0.39833224 0.31358674 0.17494410
v 0.39868620 0.31266317 0.17124036
v 0.37693003 -0.34997284 0.17863956
v 0.38076529 -0.34508687 0.17864119
v 0.39829579 0.31810528 0.17806402
v 0.39722326 0.31999710 0.17863950
v 0.39829579 0.31810525 0.16437641
v 0.39887640 0.31659037 0.16481893
v 0.39985874 0.31402725 0.16753042
v 0.39887640 0.31659037 0.17764686
v 0.40021753 0.31309104 0.17123389
v 0.39985874 0.31402725 0.17493680
v 0.31149897 0.38839182 0.17832370
v 0.30899096 0.38878772 0.17764847
v 0.30938113 0.38872612 0.11543496
v 0.31149894 0.38839182 0.11488135
v 0.30668688 0.38915142 0.11814542
v 0.30626699 0.38921767 0.17493820
v 0.30527183 0.38937476 0.17123508
v 0.30570251 0.38930681 0.12184854
v 0.30668688 0.38915142 0.12555200
v 0.30626702 0.38921770 0.16753151
v 0.31149897 0.38839182 0.16417047
v 0.31149897 0.38839182 0.12884481
v 0.30938113 0.38872615 0.12826328
v 0.30899096 0.38878772 0.16481996
v 0.31149918 -0.38839164 0.11488117
v 0.30938113 -0.38872597 0.11543481
v 0.30668688 -0.38915125 0.11814529
v 0.30899096 -0.38878760 0.17764834
v 0.30570248 -0.38930663 0.12184842
v 0.30626702 -0.38921753 0.17493805
v 0.30527186 -0.38937464 0.17123494
v 0.30668691 -0.38915128 0.12555186
v 0.30938113 -0.38872600 0.12826315
v 0.31149918 -0.38839164 0.12884474
v 0.31149921 -0.38839164 0.16417027
v 0.30899096 -0.38878757 0.16481982
v 0.30626705 -0.38921756 0.16753137
v 0.39570442 -0.31946635 0.17864767
v 0.34678671 -0.37427837 0.17864028
v 0.38748959 0.33395654 0.17864308
v 0.39570442 0.31946632 0.17864779
v 0.32938296 0.38273585 0.17864057
v 0.31267959 0.38801846 0.17864068
v 0.37672663 -0.35016447 0.17863970
v 0.37945130 0.34419709 0.17864971
v 0.36168572 -0.36209822 0.17864951
v 0.32876545 -0.38127074 0.17864913
v 0.31230354 -0.38647696 0.17864925
v 0.37672669 0.35016447 0.17863981
v 0.31113487 0.38684669 0.11486377
v 0.30898529 0.38718599 0.11542903
v 0.30632883 0.38760528 0.11814010
v 0.30866835 0.38723603 0.17765695
v 0.30535823 0.38775852 0.12184407
v 0.30598375 0.38765976 0.17494603
v 0.30500296 0.38781461 0.17124203
v 0.30632880 0.38760531 0.12554835
v 0.30898529 0.38718596 0.12826023
v 0.31113482 0.38684666 0.12886378
v 0.31113485 0.38684669 0.16417475
v 0.30866832 0.38723603 0.16482538
v 0.30598378 0.38765979 0.16753756
v 0.34630889 0.37274960 0.12925291
v 0.34630889 0.37274960 0.16383246
v 0.34592062 0.37294003 0.16383263
v 0.32925060 0.38111740 0.16383252
v 0.32925063 0.38111737 0.12925281
v 0.34572870 0.37303421 0.12925275
v 0.34630889 0.37274960 0.11443694
v 0.34572870 0.37303421 0.11443658
v 0.32925063 0.38111740 0.11443675
v 0.36292690 0.36316416 0.12925556
v 0.36292690 0.36316416 0.16382773
v 0.37672666 0.35016447 0.16382712
v 0.37692988 0.34997308 0.16382703
v 0.37692985 0.34997308 0.12925605
v 0.37622964 0.35063267 0.12925588
v 0.36292690 0.36316416 0.11444268
v 0.37622961 0.35063267 0.11444336
v 0.37692985 0.34997308 0.11444372
v 0.38880810 0.33484054 0.16382405
v 0.38076529 0.34508687 0.16382800
v 0.37945127 0.34419709 0.16383301
v 0.38748956 0.33395651 0.16382906
v 0.39570439 0.31946632 0.16383187
v 0.39722323 0.31999713 0.16382693
v 0.38427594 -0.34061435 0.12555227
v 0.38290662 -0.33979505 0.12554879
v 0.38351369 -0.33902168 0.12184483
v 0.38489121 -0.33983052 0.12184907
v 0.34711289 -0.37411836 0.12925555
v 0.34663376 -0.37435338 0.12925540
v 0.34572867 -0.37303415 0.12925260
v 0.34630910 -0.37274942 0.12925275
v 0.36130384 -0.36236271 0.12925249
v 0.36241451 -0.36351904 0.12925526
v 0.34711272 0.37411848 0.11444291
v 0.34663379 0.37435341 0.11444263
v 0.36130387 0.36236271 0.11443633
v 0.36241454 0.36351904 0.11444230
v 0.34711269 0.37411854 0.16382731
v 0.34678671 0.37427843 0.16382748
v 0.36168572 0.36209822 0.16383296
v 0.36277443 0.36326978 0.16382784
v 0.38259515 0.34275568 0.12826334
v 0.38124812 0.34190798 0.12826045
v 0.37898281 0.34479386 0.12925290
v 0.38029939 0.34568042 0.12925558
v 0.38427597 0.34061435 0.11814599
v 0.38290662 0.33979505 0.11814095
v 0.38351372 0.33902168 0.12184493
v 0.38489121 0.33983052 0.12184919
v 0.36192787 0.36193046 0.11443678
v 0.37494761 0.34966564 0.11443745
v 0.32984120 0.38259092 0.12925562
v 0.32984120 0.38259092 0.16382733
v 0.34711272 0.37411848 0.12925570
v 0.34663379 0.37435341 0.12925555
v 0.32984120 0.38259092 0.11444278
v 0.39722329 -0.31999710 0.16382682
v 0.38880828 -0.33484030 0.16382399
v 0.32947847 -0.38270554 0.11444245
v 0.32880470 -0.38125828 0.11443634
v 0.31256184 -0.38639525 0.11443628
v 0.31300592 -0.38791510 0.11444238
v 0.39570442 -0.31946635 0.16383174
v 0.37575796 0.34890229 0.16383207
v 0.37575793 0.34890229 0.12925331
v 0.37898278 0.34479386 0.11443692
v 0.37575793 0.34890229 0.11443786
v 0.38124812 0.34190795 0.11542945
v 0.38290662 0.33979505 0.12554891
v 0.37693003 -0.34997284 0.16382690
v 0.38076529 -0.34508687 0.16382788
v 0.37945127 -0.34419709 0.16383289
v 0.37575814 -0.34890205 0.16383195
v 0.37545180 -0.34919059 0.16383208
v 0.37672666 -0.35016447 0.16382700
v 0.34630910 -0.37274942 0.16383231
v 0.36168569 -0.36209819 0.16383284
v 0.36192808 -0.36193034 0.16383268
v 0.36192808 -0.36193031 0.12925272
v 0.34630910 -0.37274942 0.11443679
v 0.36130387 -0.36236271 0.11443619
v 0.36192808 -0.36193031 0.11443664
v 0.37545186 0.34919065 0.16383220
v 0.36192787 0.36193049 0.16383280
v 0.36192787 0.36193046 0.12925282
v 0.37494761 0.34966564 0.12925313
v 0.36241454 0.36351904 0.12925538
v 0.32947853 0.38270563 0.11444257
v 0.32880473 0.38125840 0.11443648
v 0.37575814 -0.34890205 0.12925319
v 0.37494758 -0.34966561 0.12925301
v 0.37494758 -0.34966558 0.11443733
v 0.37575814 -0.34890205 0.11443774
v 0.38290659 -0.33979505 0.11814083
v 0.38427594 -0.34061435 0.11814587
v 0.32925084 -0.38111719 0.12925266
v 0.32925084 -0.38111722 0.16383237
v 0.34592059 -0.37293997 0.16383252
v 0.32925084 -0.38111719 0.11443661
v 0.34572864 -0.37303415 0.11443646
v 0.36292711 -0.36316398 0.12925543
v 0.36292711 -0.36316398 0.16382764
v 0.36277440 -0.36326975 0.16382772
v 0.34711289 -0.37411836 0.16382718
v 0.36292711 -0.36316398 0.11444254
v 0.36241451 -0.36351904 0.11444217
v 0.34711292 -0.37411833 0.11444280
v 0.38029936 -0.34568039 0.12925546
v 0.37898281 -0.34479386 0.12925278
v 0.38124812 -0.34190795 0.12826033
v 0.38259515 -0.34275568 0.12826322
v 0.38029933 0.34568042 0.11444274
v 0.38259515 0.34275568 0.11543503
v 0.32880473 0.38125840 0.12925269
v 0.32947853 0.38270563 0.12925552
v 0.38427594 0.34061435 0.12555239
v 0.32984141 -0.38259074 0.11444266
v 0.34663376 -0.37435338 0.11444251
v 0.37693006 -0.34997284 0.12925591
v 0.37622961 -0.35063267 0.12925576
v 0.34678668 -0.37427837 0.16382733
v 0.32984141 -0.38259074 0.16382718
v 0.32984141 -0.38259077 0.12925547
v 0.31300592 0.38791525 0.12925549
v 0.31256184 0.38639536 0.12925266
v 0.31267959 0.38801846 0.16382763
v 0.32938296 0.38273585 0.16382757
v 0.31300592 0.38791525 0.11444251
v 0.38748977 -0.33395630 0.16382900
v 0.31230351 -0.38647696 0.16383266
v 0.32876545 -0.38127074 0.16383260
v 0.32880470 -0.38125831 0.12925255
v 0.31256184 -0.38639528 0.12925251
v 0.38259515 -0.34275568 0.11543493
v 0.38124812 -0.34190798 0.11542931
v 0.37898284 -0.34479386 0.11443679
v 0.38029936 -0.34568039 0.11444262
v 0.32938293 -0.38273579 0.16382742
v 0.31267962 -0.38801837 0.16382749
v 0.37622964 -0.35063267 0.11444324
v 0.36130387 0.36236271 0.12925261
v 0.31256181 0.38639536 0.11443640
v 0.31300592 -0.38791513 0.12925534
v 0.32947850 -0.38270554 0.12925538
v 0.32876551 0.38127083 0.16383275
v 0.37693006 -0.34997284 0.11444360
v 0.31230354 0.38647708 0.16383281
f 1 2 3
f 3 2 4
f 5 6 7
f 8 9 10
f 11 12 13
f 13 12 14
f 15 16 17
f 18 19 20
f 14 12 21
f 21 12 22
f 21 22 23
f 23 22 24
f 23 24 3
f 3 24 1
f 6 25 7
f 26 5 27
f 9 28 10
f 29 30 31
f 32 33 29
f 31 32 29
f 34 35 36
f 34 36 37
f 38 39 34
f 37 38 34
f 40 41 42
f 4 2 43
f 43 2 44
f 43 44 45
f 45 44 46
f 45 46 47
f 47 46 48
f 47 48 49
f 49 48 50
f 49 50 51
f 51 50 52
f 51 52 53
f 53 52 54
f 53 54 55
f 55 54 56
f 55 56 57
f 57 56 58
f 57 58 59
f 59 58 60
f 61 62 63
f 64 65 66
f 65 67 66
f 67 68 66
f 68 69 66
f 70 71 16
f 15 70 16
f 72 73 74
f 5 7 27
f 6 75 25
f 75 76 25
f 75 8 76
f 61 77 62
f 78 79 80
f 81 82 83
f 84 85 86
f 85 87 86
f 88 82 89
f 89 74 88
f 90 91 92
f 93 94 90
f 92 93 90
f 79 95 80
f 96 18 97
f 98 18 20
f 50 48 99
f 100 101 50
f 99 100 50
f 102 90 94
f 102 94 103
f 86 87 102
f 104 105 86
f 106 104 86
f 102 103 107
f 108 106 86
f 102 107 108
f 108 86 102
f 109 110 111
f 111 110 112
f 19 113 20
f 113 17 20
f 114 115 116
f 116 115 117
f 77 118 62
f 41 61 63
f 119 120 121
f 121 120 35
f 121 35 122
f 122 35 34
f 122 34 123
f 123 34 30
f 123 30 124
f 124 30 29
f 124 29 125
f 125 29 126
f 125 126 127
f 127 126 91
f 127 91 128
f 128 91 90
f 128 90 129
f 129 90 102
f 129 102 13
f 13 102 11
f 70 40 71
f 40 42 71
f 41 63 42
f 82 88 83
f 89 72 74
f 81 83 118
f 77 81 118
f 8 10 76
f 9 130 28
f 130 131 28
f 130 84 131
f 84 86 131
f 85 65 87
f 65 64 87
f 113 15 17
f 18 98 97
f 68 96 69
f 96 97 69
f 116 79 26
f 26 119 116
f 11 64 66
f 66 12 11
f 60 110 109
f 109 59 60
f 124 125 132
f 133 134 124
f 132 133 124
f 43 113 19
f 19 4 43
f 56 54 135
f 136 137 56
f 135 136 56
f 125 127 138
f 139 132 125
f 138 139 125
f 2 20 17
f 17 44 2
f 114 78 80
f 80 115 114
f 115 80 95
f 95 117 115
f 49 51 140
f 141 142 49
f 140 141 49
f 1 98 20
f 20 2 1
f 54 52 143
f 144 135 54
f 143 144 54
f 122 123 145
f 146 147 122
f 145 146 122
f 55 57 148
f 55 148 149
f 150 151 55
f 149 150 55
f 119 121 152
f 119 152 153
f 5 26 119
f 154 155 5
f 156 154 5
f 119 153 157
f 119 157 158
f 159 156 5
f 159 5 119
f 159 119 158
f 160 159 158
f 160 158 161
f 162 163 164
f 164 160 161
f 165 162 164
f 161 165 164
f 116 79 78
f 78 114 116
f 13 65 85
f 85 129 13
f 53 55 151
f 166 167 53
f 151 166 53
f 51 53 167
f 168 140 51
f 167 168 51
f 129 85 84
f 84 169 170
f 84 170 171
f 172 128 129
f 173 172 129
f 129 84 171
f 129 171 174
f 175 173 129
f 129 174 175
f 98 1 24
f 24 97 98
f 43 45 176
f 43 176 177
f 15 113 43
f 178 179 15
f 180 178 15
f 43 177 181
f 182 180 15
f 43 181 182
f 182 15 43
f 111 72 89
f 89 109 111
f 112 73 72
f 72 111 112
f 91 126 183
f 184 92 91
f 183 184 91
f 110 74 73
f 73 112 110
f 48 46 185
f 186 99 48
f 185 186 48
f 44 17 16
f 16 187 188
f 16 188 189
f 185 46 44
f 190 185 44
f 44 16 189
f 44 189 191
f 192 190 44
f 44 191 192
f 119 26 27
f 27 120 119
f 60 58 193
f 60 193 194
f 83 88 60
f 195 196 83
f 197 195 83
f 60 194 198
f 60 198 199
f 200 197 83
f 200 83 60
f 200 60 199
f 201 200 199
f 201 199 202
f 203 204 205
f 205 201 202
f 206 203 205
f 202 206 205
f 12 66 69
f 69 22 12
f 120 27 7
f 7 207 208
f 7 208 209
f 36 35 120
f 210 36 120
f 7 209 211
f 120 7 211
f 212 210 120
f 213 212 120
f 120 211 214
f 215 216 217
f 120 214 215
f 213 120 215
f 215 217 218
f 219 213 215
f 215 218 219
f 127 128 172
f 220 138 127
f 172 220 127
f 109 89 82
f 82 59 109
f 30 34 39
f 221 31 30
f 39 221 30
f 23 96 68
f 68 21 23
f 45 47 222
f 223 176 45
f 222 223 45
f 60 88 74
f 74 110 60
f 58 56 137
f 58 137 224
f 225 193 58
f 224 225 58
f 117 95 79
f 79 116 117
f 126 29 33
f 226 183 126
f 33 226 126
f 47 49 142
f 227 222 47
f 142 227 47
f 22 69 97
f 97 24 22
f 14 67 65
f 65 13 14
f 21 68 67
f 67 14 21
f 123 124 134
f 228 145 123
f 134 228 123
f 4 19 18
f 18 3 4
f 102 87 64
f 64 11 102
f 121 122 147
f 121 147 229
f 230 152 121
f 229 230 121
f 52 50 101
f 231 143 52
f 101 231 52
f 59 82 81
f 81 232 233
f 81 233 234
f 148 57 59
f 235 148 59
f 81 234 236
f 59 81 236
f 237 235 59
f 238 237 59
f 59 236 239
f 240 241 242
f 59 239 240
f 238 59 240
f 240 242 243
f 244 238 240
f 240 243 244
f 3 18 96
f 96 23 3
f 117 95 27
f 27 120 117
f 245 246 247
f 247 248 249
f 249 250 245
f 247 249 245
f 61 251 252
f 252 253 77
f 252 77 61
f 254 255 256
f 256 257 258
f 258 259 254
f 256 258 254
f 63 260 261
f 261 262 42
f 261 42 63
f 263 264 265
f 266 267 268
f 263 265 266
f 266 268 263
f 211 159 160
f 160 214 211
f 269 270 271
f 271 272 269
f 273 274 275
f 276 277 278
f 273 275 276
f 276 278 273
f 224 150 149
f 149 225 224
f 279 280 252
f 251 281 282
f 279 252 251
f 251 282 279
f 194 235 237
f 237 198 194
f 283 284 247
f 246 285 286
f 283 247 246
f 246 286 283
f 287 288 289
f 289 290 287
f 92 184 139
f 138 220 93
f 92 139 138
f 138 93 92
f 193 225 149
f 148 235 194
f 193 149 148
f 148 194 193
f 218 165 161
f 161 219 218
f 137 136 166
f 151 150 224
f 137 166 151
f 151 224 137
f 183 226 133
f 132 139 184
f 183 133 132
f 132 184 183
f 291 292 293
f 293 294 291
f 260 282 281
f 295 296 261
f 260 281 295
f 295 261 260
f 297 298 284
f 284 283 299
f 299 300 297
f 284 299 297
f 118 301 280
f 280 279 62
f 280 62 118
f 86 105 302
f 302 303 131
f 302 131 86
f 135 144 168
f 167 166 136
f 135 168 167
f 167 136 135
f 304 305 306
f 306 307 304
f 105 104 170
f 169 308 302
f 105 170 169
f 169 302 105
f 266 265 309
f 309 310 289
f 309 289 288
f 40 70 266
f 311 312 40
f 313 311 40
f 266 309 288
f 266 288 314
f 292 313 40
f 266 314 293
f 293 292 40
f 266 293 40
f 315 316 317
f 318 319 320
f 315 317 318
f 318 320 315
f 276 321 322
f 322 323 324
f 324 277 276
f 322 324 276
f 75 325 326
f 326 327 8
f 326 8 75
f 310 309 328
f 328 329 330
f 330 331 310
f 328 330 310
f 40 312 296
f 296 295 41
f 296 41 40
f 299 283 286
f 286 255 254
f 254 332 299
f 286 254 299
f 62 279 282
f 282 260 63
f 282 63 62
f 207 307 306
f 155 154 208
f 207 306 155
f 155 208 207
f 15 179 267
f 267 266 70
f 267 70 15
f 301 333 334
f 253 252 280
f 301 334 253
f 253 280 301
f 39 38 229
f 147 146 221
f 39 229 147
f 147 221 39
f 324 323 319
f 319 318 335
f 335 336 324
f 319 335 324
f 8 327 337
f 337 338 9
f 337 9 8
f 258 290 289
f 310 331 259
f 258 289 310
f 310 259 258
f 272 271 339
f 339 340 272
f 341 342 343
f 343 321 276
f 276 275 341
f 343 276 341
f 6 344 345
f 345 325 75
f 345 75 6
f 346 347 348
f 348 349 273
f 273 278 346
f 348 273 346
f 10 350 351
f 351 352 76
f 351 76 10
f 94 93 220
f 172 173 103
f 94 220 172
f 172 103 94
f 353 354 355
f 355 356 353
f 357 311 313
f 313 358 357
f 99 186 223
f 222 227 100
f 99 223 222
f 222 100 99
f 297 300 250
f 249 359 360
f 297 250 249
f 249 360 297
f 187 268 267
f 179 178 188
f 187 267 179
f 179 188 187
f 212 157 153
f 153 210 212
f 361 314 288
f 288 287 361
f 362 363 345
f 344 305 304
f 362 345 344
f 344 304 362
f 143 231 141
f 140 168 144
f 143 141 140
f 140 144 143
f 106 171 170
f 170 104 106
f 262 261 296
f 312 311 357
f 262 296 312
f 312 357 262
f 364 365 336
f 335 354 353
f 364 336 335
f 335 353 364
f 273 349 366
f 366 367 368
f 368 274 273
f 366 368 273
f 76 352 363
f 363 362 25
f 363 25 76
f 201 239 236
f 236 200 201
f 204 369 370
f 241 240 205
f 204 370 241
f 241 205 204
f 204 203 371
f 371 372 298
f 298 297 360
f 369 204 371
f 298 360 369
f 371 298 369
f 83 196 373
f 333 301 118
f 83 373 333
f 333 118 83
f 205 240 239
f 239 201 205
f 130 374 308
f 308 169 84
f 308 84 130
f 71 263 268
f 268 187 16
f 268 16 71
f 163 162 375
f 375 376 342
f 342 341 377
f 378 163 375
f 342 377 378
f 375 342 378
f 5 155 306
f 305 344 6
f 5 306 305
f 305 6 5
f 198 237 238
f 238 199 198
f 379 380 381
f 381 382 379
f 383 376 375
f 375 384 383
f 209 156 159
f 159 211 209
f 356 355 270
f 270 269 356
f 219 161 158
f 158 213 219
f 192 181 177
f 177 190 192
f 103 173 175
f 175 107 103
f 101 100 227
f 142 141 231
f 101 227 142
f 142 231 101
f 350 385 337
f 327 326 351
f 350 337 327
f 327 351 350
f 208 154 156
f 156 209 208
f 188 178 180
f 180 189 188
f 185 190 177
f 176 223 186
f 185 177 176
f 176 186 185
f 330 329 285
f 285 246 245
f 245 386 330
f 285 245 330
f 41 295 281
f 281 251 61
f 281 61 41
f 214 160 164
f 164 215 214
f 196 195 233
f 232 387 373
f 196 233 232
f 232 373 196
f 37 230 229
f 229 38 37
f 346 278 277
f 324 336 365
f 346 277 324
f 324 365 346
f 108 174 171
f 171 106 108
f 294 293 314
f 314 361 294
f 255 286 285
f 329 328 256
f 255 285 329
f 329 256 255
f 216 215 164
f 163 378 388
f 216 164 163
f 163 388 216
f 367 366 343
f 342 376 383
f 367 343 342
f 342 383 367
f 368 389 377
f 341 275 274
f 368 377 341
f 341 274 368
f 368 367 383
f 384 217 216
f 368 383 384
f 388 389 368
f 384 216 388
f 384 388 368
f 25 362 304
f 307 207 7
f 25 304 307
f 307 7 25
f 360 359 370
f 370 369 360
f 358 313 292
f 292 291 358
f 299 332 386
f 245 250 300
f 299 386 245
f 245 300 299
f 213 158 157
f 157 212 213
f 352 351 326
f 325 345 363
f 352 326 325
f 325 363 352
f 33 32 228
f 134 133 226
f 33 228 134
f 134 226 33
f 197 234 233
f 233 195 197
f 31 221 146
f 145 228 32
f 31 146 145
f 145 32 31
f 298 372 390
f 248 247 284
f 298 390 248
f 248 284 298
f 257 256 328
f 309 265 264
f 257 328 309
f 309 264 257
f 347 320 319
f 323 322 348
f 347 319 323
f 323 348 347
f 258 257 264
f 263 71 42
f 42 262 357
f 42 357 358
f 258 264 263
f 290 258 263
f 42 358 291
f 42 291 294
f 287 290 263
f 361 287 263
f 263 42 294
f 263 294 361
f 364 315 320
f 320 347 346
f 346 365 364
f 320 346 364
f 28 391 385
f 385 350 10
f 385 10 28
f 217 384 375
f 162 165 218
f 217 375 162
f 162 218 217
f 200 236 234
f 234 197 200
f 202 244 243
f 243 206 202
f 189 180 182
f 182 191 189
f 303 302 308
f 374 317 316
f 303 308 374
f 374 316 303
f 388 378 377
f 377 389 388
f 391 382 381
f 338 337 385
f 391 381 338
f 338 385 391
f 107 175 174
f 174 108 107
f 191 182 181
f 181 192 191
f 203 206 243
f 242 392 371
f 203 243 242
f 242 371 203
f 371 392 390
f 390 372 371
f 373 387 334
f 334 333 373
f 199 238 244
f 244 202 199
f 36 210 153
f 152 230 37
f 36 153 152
f 152 37 36
f 349 348 322
f 321 343 366
f 349 322 321
f 321 366 349
f 303 316 315
f 315 364 353
f 315 353 356
f 28 131 303
f 382 391 28
f 379 382 28
f 303 315 356
f 303 356 269
f 340 379 28
f 303 269 272
f 272 340 28
f 303 272 28
f 254 259 331
f 330 386 332
f 254 331 330
f 330 332 254
f 249 248 390
f 392 242 241
f 249 390 392
f 370 359 249
f 392 241 370
f 392 370 249
f 77 253 334
f 387 232 81
f 77 334 387
f 387 81 77
f 335 318 317
f 374 130 9
f 9 338 381
f 9 381 380
f 335 317 374
f 354 335 374
f 9 380 339
f 9 339 271
f 355 354 374
f 270 355 374
f 374 9 271
f 374 271 270
f 340 339 380
f 380 379 340

