# https://github.com/mikedh/trimesh
mtllib mtl_finger_v6
usemtl mtl_finger_v6
v 0.00296423 -0.00955850 0.00000000
v 0.00254915 0.00416364 -0.00000000
v 0.00494205 0.00530980 -0.00000000
v 0.00214318 0.00429718 0.00011429
v 0.00419622 -0.01436139 0.00000000
v 0.00344752 -0.01438455 0.00000000
v 0.00343650 -0.01100000 0.00000000
v 0.00494205 -0.01429202 0.00000000
v 0.00571469 0.00547027 0.00001881
v 0.00486688 0.00559369 0.00007919
v 0.00174232 -0.00867976 0.00000000
v 0.00236208 0.00402758 -0.00000000
v 0.00032876 0.00192942 -0.00000000
v -0.00000097 0.00216386 0.00016276
v -0.00143650 -0.01100000 0.00000000
v -0.00247386 -0.00201960 0.00000000
v -0.00281074 -0.00178052 0.00017111
v -0.00097097 -0.00956767 0.00000000
v 0.00023850 -0.00868610 0.00000000
v -0.00556351 -0.01100000 0.00000000
v -0.00542049 -0.00502060 0.00000000
v -0.00602904 -0.01243233 0.00000000
v -0.00876150 -0.00868610 0.00000000
v -0.00915442 -0.00694934 0.00000000
v -0.00740012 -0.00576685 0.00017111
v -0.00603578 -0.00955850 0.00000000
v -0.00725769 -0.00867976 0.00000000
v -0.00486671 -0.00404851 0.00017111
v -0.01043651 -0.01100000 0.00000000
v -0.01330711 -0.00761545 0.00000000
v -0.01026765 -0.00683833 0.00017111
v -0.00997098 -0.00956767 0.00000000
v -0.01776151 -0.00868610 0.00000000
v -0.01782501 -0.00761545 0.00000000
v -0.01782501 -0.00720236 0.00017111
v -0.01502905 -0.01243233 0.00000000
v -0.01456351 -0.01100000 0.00000000
v -0.01503578 -0.00955850 0.00000000
v -0.01625769 -0.00867976 0.00000000
v -0.01330711 -0.00720236 0.00017111
v -0.01897098 -0.00956767 0.00000000
v -0.01912170 -0.00796331 0.00000000
v -0.01943651 -0.01100000 0.00000000
v -0.02006792 -0.00890950 0.00000000
v -0.01994909 -0.00808218 0.00017111
v -0.01897455 -0.00743102 0.00017111
v -0.02041581 -0.01179375 0.00000000
v -0.02041581 -0.01020625 0.00000000
v -0.02060025 -0.00905671 0.00017111
v -0.02006796 -0.01309043 0.00000000
v -0.02082891 -0.01179375 0.00017111
v -0.02082891 -0.01020625 0.00017111
v -0.01912177 -0.01403665 0.00000000
v -0.01994909 -0.01391782 0.00017111
v -0.02060025 -0.01294329 0.00017111
v -0.01896425 -0.01244150 0.00000000
v -0.01782501 -0.01438455 0.00000000
v -0.01897455 -0.01456898 0.00017111
v 0.00176150 -0.01331390 0.00000000
v 0.00344752 -0.01479764 0.00017111
v -0.00874233 -0.01332024 0.00000000
v -0.00723851 -0.01331390 0.00000000
v 0.00025768 -0.01332024 0.00000000
v -0.00996424 -0.01244150 0.00000000
v -0.01623852 -0.01331390 0.00000000
v -0.01774234 -0.01332024 0.00000000
v -0.01782501 -0.01479764 0.00017111
v 0.00499221 -0.01469557 0.00016477
v 0.00297097 -0.01243233 0.00000000
v 0.00649166 0.00555985 0.00007581
v 0.00772865 -0.01364117 0.00024649
v 0.00795945 -0.01396897 0.00044735
v -0.00556351 -0.01100000 0.00276200
v -0.00602904 -0.00956767 0.00276200
v -0.00603578 -0.01244150 0.00276200
v -0.00725769 -0.01332024 0.00276200
v -0.00096423 -0.01244150 0.00000000
v -0.00876150 -0.01331390 0.00276200
v -0.00997098 -0.01243233 0.00276200
v -0.01043651 -0.01100000 0.00276200
v -0.00996424 -0.00955850 0.00276200
v -0.00874233 -0.00867976 0.00276200
v -0.00723851 -0.00868610 0.00276200
v -0.01456351 -0.01100000 0.00276200
v -0.01502905 -0.00956767 0.00276200
v -0.01503578 -0.01244150 0.00276200
v -0.01625769 -0.01332024 0.00276200
v -0.01776151 -0.01331390 0.00276200
v -0.01897098 -0.01243233 0.00276200
v -0.01943651 -0.01100000 0.00276200
v -0.01896425 -0.00955850 0.00276200
v -0.01774234 -0.00867976 0.00276200
v -0.01623852 -0.00868610 0.00276200
v 0.00343650 -0.01100000 0.00276200
v 0.00297097 -0.00956767 0.00276200
v 0.00296423 -0.01244150 0.00276200
v 0.00174232 -0.01332024 0.00276200
v 0.00023850 -0.01331390 0.00276200
v -0.00097097 -0.01243233 0.00276200
v -0.00143650 -0.01100000 0.00276200
v -0.00096423 -0.00955850 0.00276200
v 0.00025768 -0.00867976 0.00276200
v 0.00176150 -0.00868610 0.00276200
v 0.00202307 0.00447700 0.00042832
v 0.00220958 0.00460928 0.00041738
v 0.00481261 0.00579841 0.00029128
v -0.00014766 0.00226753 0.00058420
v 0.00734060 0.01256301 0.01267848
v 0.00794430 0.01264030 0.01122972
v -0.00295028 -0.00168149 0.00058420
v -0.00015996 0.00225020 0.01537122
v 0.00662939 0.01181670 0.02106815
v 0.00708404 0.01245733 0.02157029
v 0.00708423 0.01245760 0.01438835
v 0.00717225 0.01251510 0.01348784
v 0.00687539 0.01216334 0.02130519
v 0.00643369 0.00602980 0.00031017
v 0.00646569 0.00582319 0.00013667
v 0.00646929 0.00579278 0.00012259
v 0.00912013 0.01243332 0.00949101
v 0.00975589 0.01212380 0.00869782
v 0.00562291 0.00595334 0.00027999
v -0.00295028 -0.00168149 0.01041581
v -0.00576633 -0.00455018 0.00058420
v -0.00401337 -0.00317944 0.01090656
v -0.00520157 -0.00485366 0.01130027
v -0.00521520 -0.00507038 0.01169534
v -0.00017582 0.00203274 0.01576268
v -0.00453270 -0.00373160 0.01081655
v -0.00551119 -0.00551078 0.01151488
v -0.00552631 -0.00528720 0.01125056
v -0.00576633 -0.00455018 0.01041581
v 0.00731187 0.01267995 0.02181718
v 0.00740128 0.01273296 0.01438835
v 0.00746321 0.01273293 0.01333728
v 0.00661184 0.01159687 0.02145820
v 0.00710940 0.01238954 0.02197075
v -0.00000348 0.00173982 0.01605470
v -0.00503509 -0.00536818 0.01199193
v -0.00539271 -0.00579268 0.01170316
v 0.00034584 -0.00943104 0.00276200
v -0.00020002 -0.00979608 0.00276200
v 0.00099328 -0.00930003 0.00276200
v 0.00000000 0.00172649 0.01605762
v -0.00333438 -0.00567690 0.01336520
v -0.00056866 -0.01034530 0.00276200
v 0.00678293 0.01130218 0.02174917
v 0.00000000 -0.00567690 0.01605762
v -0.00321505 -0.00614554 0.01321742
v 0.00678293 -0.00567690 0.02174917
v 0.00012708 -0.00615272 0.01590700
v 0.00219259 -0.00978884 0.00276200
v 0.00164159 -0.00942586 0.00276200
v -0.00403682 -0.00574169 0.01279801
v -0.00540919 -0.00580867 0.01168985
v -0.00466977 -0.00592007 0.01228692
v -0.00399425 -0.00612615 0.01268619
v -0.00600553 -0.00616130 0.01120833
v -0.00519563 -0.00617538 0.01186230
v -0.00477102 -0.00624596 0.01213965
v -0.00591391 -0.00614108 0.01128231
v -0.00581504 -0.00610184 0.01136215
v -0.00578332 -0.00663807 0.01138776
v -0.00551532 -0.00655375 0.01158848
v -0.00616227 -0.00713825 0.01108177
v -0.00616227 -0.00614880 0.01108177
v -0.00626834 -0.00603340 0.01102199
v -0.00627096 -0.00713827 0.01102105
v -0.00612019 -0.00598400 0.01109471
v -0.00621261 -0.00585830 0.01102196
v -0.00596682 -0.00577232 0.01112437
v -0.00605923 -0.00582557 0.01108177
v -0.00585914 -0.00587939 0.01128506
v 0.00720026 -0.00567690 0.02229220
v 0.00669933 -0.00592748 0.02161586
v 0.00702381 0.01183180 0.02200129
v 0.00720978 0.01224048 0.02231294
v 0.00724753 -0.00567690 0.02240415
v 0.00723519 0.01224619 0.02237252
v 0.00741989 0.01266097 0.02237725
v 0.00731910 0.01261290 0.02222591
v 0.00725863 0.01224788 0.02243446
v 0.00735000 -0.00567690 0.02296526
v 0.00732699 0.01224788 0.02269596
v 0.00752111 0.01266097 0.02296526
v 0.00735000 0.01224788 0.02296526
v 0.00735000 -0.00622800 0.04275534
v 0.00752111 0.01266097 0.04349419
v 0.00735000 -0.00611531 0.04331943
v 0.00735000 0.01224788 0.04349419
v 0.00718068 -0.00636562 0.02202497
v 0.00735000 -0.00675502 0.02263458
v 0.00761426 0.01281044 0.02207289
v 0.00780920 0.01283208 0.02223912
v 0.00771285 0.01282684 0.02215198
v 0.00790272 0.01283208 0.02259686
v 0.01862940 0.01283208 0.01545319
v 0.00780921 0.01283208 0.01438835
v 0.00793420 0.01283208 0.02296526
v 0.00793420 0.01283208 0.04349419
v 0.01351230 0.01283208 0.04302656
v 0.01883053 0.01283208 0.01347447
v 0.00784809 0.01283208 0.01356953
v 0.00795943 0.01283208 0.01282543
v 0.01870531 0.01283208 0.01148949
v 0.00843083 0.01283208 0.01148949
v 0.00767169 0.01273293 0.01229636
v 0.01833035 0.01252628 0.00960346
v 0.00817404 0.01278306 0.01135236
v 0.00937205 0.01253692 0.00963571
v 0.01903556 0.01266097 0.01552857
v 0.01912032 0.01265454 0.01142880
v 0.01391846 0.01266097 0.04310193
v 0.01027100 0.01283208 0.04349419
v 0.01235752 0.01283208 0.04686438
v 0.01262664 0.01275381 0.04697846
v 0.01033635 0.01283208 0.05045603
v 0.01040225 0.01283208 0.05036284
v 0.01073883 0.01266097 0.05060234
v 0.01027100 0.01283208 0.05054959
v 0.01060506 0.01266731 0.05078149
v 0.00941412 0.01296059 0.04470998
v 0.00932960 0.01298794 0.05238415
v 0.00793420 0.01283538 0.04367170
v 0.00793420 0.01284528 0.04384895
v 0.00930526 0.01296565 0.04461573
v 0.00807121 0.01273309 0.01129746
v 0.01043328 0.01166534 0.00794446
v 0.00988359 0.01217820 0.00877315
v 0.00849547 0.00628499 0.00065587
v 0.01023844 0.00667469 0.00118379
v 0.01349019 0.00790452 0.00284980
v 0.01777503 0.01166537 0.00794449
v 0.01031038 0.00643807 0.00099720
v 0.01603536 0.00960407 0.00515212
v 0.01367928 0.00770648 0.00271554
v 0.01696110 0.01054467 0.00642633
v 0.01703095 0.01006704 0.00598758
v 0.01556646 0.00876425 0.00422273
v 0.01372072 0.00764199 0.00270168
v 0.00220002 -0.01220392 0.00276200
v 0.00256866 -0.01165470 0.00276200
v 0.01871169 0.01234432 0.00954950
v 0.01811347 0.01149329 0.00791999
v 0.01889045 0.01197469 0.00962349
v 0.01830822 0.01119536 0.00805273
v 0.01849912 -0.00706369 0.00850205
v 0.01743341 0.01005057 0.00642717
v 0.01732706 -0.00782436 0.00626275
v 0.01890445 0.01198948 0.00967092
v 0.00165416 -0.01256896 0.00276200
v 0.01928336 0.01224788 0.01140496
v 0.00100672 -0.01269997 0.00276200
v 0.01941467 0.01224788 0.01348565
v 0.01917551 -0.00662579 0.01077761
v 0.01941653 -0.00647001 0.01313320
v 0.01920379 0.01224788 0.01555979
v 0.01645241 0.00910681 0.00508701
v 0.01381678 0.00743451 0.00271237
v 0.01205656 0.00670294 0.00168348
v 0.01381678 -0.01009573 0.00271237
v 0.01215123 -0.01118431 0.00173133
v 0.01565987 -0.00890431 0.00422499
v 0.01023317 0.00615136 0.00090771
v 0.01045388 -0.01229395 0.00098758
v 0.00784608 -0.01359892 0.00026788
v 0.01059545 -0.01261056 0.00118553
v 0.01389403 -0.01039415 0.00289817
v 0.00779301 -0.01420218 0.00081228
v 0.00501411 -0.01487176 0.00058420
v 0.00792840 -0.01415201 0.00083571
v 0.00560799 -0.01478364 0.01041581
v 0.00423232 -0.01494448 0.00058420
v 0.00453165 -0.01492239 0.01041581
v 0.00784035 -0.01418484 0.01168065
v 0.00730686 -0.01436815 0.01103682
v 0.00726289 -0.01438209 0.01100001
v 0.00649214 -0.01459840 0.01056729
v 0.00735000 -0.01435431 0.01107465
v 0.01057910 -0.01277735 0.00153543
v 0.00810576 -0.01408361 0.01238836
v 0.01220659 -0.01167286 0.00224759
v 0.00937684 -0.01349966 0.01280148
v 0.01057910 -0.01277735 0.01320593
v 0.01916053 -0.00695363 0.01306712
v 0.01557994 -0.00938357 0.00464697
v 0.01381824 -0.01057913 0.00319676
v 0.01715399 -0.00831536 0.00656655
v 0.01826539 -0.00756111 0.00866807
v 0.01891544 -0.00711996 0.01081057
v 0.00344752 -0.01496875 0.00058420
v 0.00344752 -0.01496875 0.01041581
v -0.01782501 -0.01496875 0.00058420
v -0.01782501 -0.01496875 0.01041581
v -0.01941252 -0.01454338 0.00058420
v -0.01941252 -0.01454338 0.01041581
v -0.02100001 -0.01179375 0.00058420
v -0.02057465 -0.01338125 0.00058420
v -0.02100001 -0.01179375 0.01041581
v -0.02100001 -0.01020625 0.00058420
v -0.02057465 -0.01338125 0.01041581
v -0.02057465 -0.00861875 0.00058420
v -0.02057465 -0.00861875 0.01041581
v -0.02100001 -0.01020625 0.01041581
v -0.01782501 -0.00703125 0.00058420
v -0.01941252 -0.00745662 0.00058420
v -0.01782501 -0.00703125 0.01041581
v -0.01330711 -0.00703125 0.00058420
v -0.01941252 -0.00745662 0.01041581
v -0.00933788 -0.00639505 0.00058420
v -0.00933788 -0.00639505 0.01041581
v -0.01330711 -0.00703125 0.01041581
v -0.01014553 -0.00680802 0.01082891
v -0.01330711 -0.00720236 0.01082891
v -0.01782501 -0.00720236 0.01082891
v -0.00717767 -0.00564917 0.01082891
v -0.00460325 -0.00381554 0.01083058
v -0.00585959 -0.00567384 0.01116391
v -0.00019259 -0.01221116 0.00276200
v -0.00610943 -0.00549653 0.01100001
v -0.00596439 -0.00559946 0.01104580
v -0.00955569 -0.00707430 0.01100001
v -0.01330711 -0.00761545 0.01100001
v -0.01782501 -0.00761545 0.01100001
v -0.00639361 -0.00589701 0.01100001
v -0.00956719 -0.01034203 0.01100001
v -0.00639368 -0.00713827 0.01100001
v -0.00679999 -0.00979608 0.01100001
v -0.00734584 -0.00943104 0.01100001
v -0.00799329 -0.00930003 0.01100001
v -0.00864160 -0.00942586 0.01100001
v -0.00919259 -0.00978884 0.01100001
v -0.01579999 -0.00979608 0.01100001
v -0.00956867 -0.01165470 0.01100001
v -0.00970001 -0.01100000 0.01100001
v -0.00920003 -0.01220392 0.01100001
v -0.01530001 -0.01100000 0.01100001
v -0.01543135 -0.01034530 0.01100001
v 0.00035841 -0.01257414 0.00276200
v -0.00630001 -0.01100000 0.01100001
v -0.00635875 -0.00749274 0.01100001
v -0.00643135 -0.01034530 0.01100001
v -0.00626352 -0.00780245 0.01100001
v -0.00615758 -0.00800960 0.01100001
v -0.00620901 -0.00777948 0.01100480
v -0.00602569 -0.00819146 0.01100001
v -0.00610470 -0.00797522 0.01100542
v -0.00615584 -0.00775707 0.01101904
v 0.00100672 -0.00930003 0.01100001
v 0.00550850 -0.00819150 0.01100001
v 0.00550850 -0.00727075 0.01124673
v -0.00020002 -0.01220392 0.01100001
v -0.00056866 -0.01165470 0.01100001
v -0.00070000 -0.01100000 0.01100001
v -0.00056719 -0.01034203 0.01100001
v 0.00035841 -0.00942586 0.01100001
v -0.00019259 -0.00978884 0.01100001
v -0.00587792 -0.00763110 0.01108736
v 0.00220002 -0.00979608 0.01100001
v 0.00550850 -0.01420797 0.01100001
v 0.00614104 -0.01403378 0.01111206
v 0.00165416 -0.00943104 0.01100001
v 0.00642925 -0.00819150 0.01124673
v -0.00056719 -0.01165797 0.00276200
v 0.00256866 -0.01034530 0.01100001
v 0.00448179 -0.01434032 0.01100001
v 0.00344752 -0.01479764 0.01082891
v 0.00557984 -0.01462126 0.01082250
v 0.00344752 -0.01438455 0.01100001
v -0.01700673 -0.01269997 0.01100001
v -0.01782501 -0.01438455 0.01100001
v -0.01782501 -0.01479764 0.01082891
v -0.00735841 -0.01257414 0.01100001
v -0.00800672 -0.01269997 0.01100001
v -0.01543283 -0.01165797 0.01100001
v -0.00680742 -0.01221116 0.01100001
v -0.00643282 -0.01165797 0.01100001
v 0.00034584 -0.01256896 0.01100001
v -0.01635842 -0.01257414 0.01100001
v -0.01580743 -0.01221116 0.01100001
v 0.00099328 -0.01269997 0.01100001
v 0.00164159 -0.01257414 0.01100001
v 0.00219259 -0.01221116 0.01100001
v 0.00256719 -0.01165797 0.01100001
v 0.00270000 -0.01100000 0.01100001
v -0.01856868 -0.01165470 0.01100001
v -0.01912170 -0.01403669 0.01100001
v -0.01820003 -0.01220392 0.01100001
v -0.01765418 -0.01256896 0.01100001
v -0.01912177 -0.00796335 0.01100001
v -0.02006792 -0.01309050 0.01100001
v -0.01994909 -0.01391782 0.01082891
v -0.01870001 -0.01100000 0.01100001
v -0.01897455 -0.01456898 0.01082891
v -0.02041581 -0.01020625 0.01100001
v -0.02041581 -0.01179375 0.01100001
v -0.02060025 -0.01294329 0.01082891
v -0.02006796 -0.00890957 0.01100001
v -0.02082891 -0.01020625 0.01082891
v -0.02082891 -0.01179375 0.01082891
v -0.01994909 -0.00808218 0.01082891
v -0.02060025 -0.00905671 0.01082891
v -0.01819260 -0.00978884 0.01100001
v -0.01897455 -0.00743102 0.01082891
v -0.01856720 -0.01034203 0.01100001
v -0.01634585 -0.00943104 0.01100001
v -0.01699330 -0.00930003 0.01100001
v -0.01764161 -0.00942586 0.01100001
v -0.00970001 -0.01100000 0.00276200
v -0.00956867 -0.01034530 0.00276200
v -0.00956719 -0.01165797 0.00276200
v -0.00865417 -0.01256896 0.01100001
v -0.00919259 -0.01221116 0.00276200
v -0.00864160 -0.01257414 0.00276200
v -0.00799329 -0.01269997 0.00276200
v -0.00734584 -0.01256896 0.00276200
v -0.00679999 -0.01220392 0.00276200
v -0.00643135 -0.01165470 0.00276200
v -0.00630001 -0.01100000 0.00276200
v -0.00643282 -0.01034203 0.00276200
v -0.00680742 -0.00978884 0.00276200
v -0.00735841 -0.00942586 0.00276200
v -0.00800672 -0.00930003 0.00276200
v -0.00865417 -0.00943104 0.00276200
v -0.00920003 -0.00979608 0.00276200
v -0.01870001 -0.01100000 0.00276200
v -0.01856868 -0.01034530 0.00276200
v -0.01856720 -0.01165797 0.00276200
v -0.01819260 -0.01221116 0.00276200
v -0.01764161 -0.01257414 0.00276200
v -0.01699330 -0.01269997 0.00276200
v -0.01634585 -0.01256896 0.00276200
v -0.01579999 -0.01220392 0.00276200
v -0.01543135 -0.01165470 0.00276200
v -0.01530001 -0.01100000 0.00276200
v -0.01543283 -0.01034203 0.00276200
v -0.01580743 -0.00978884 0.00276200
v -0.01635842 -0.00942586 0.00276200
v -0.01700673 -0.00930003 0.00276200
v -0.01765418 -0.00943104 0.00276200
v -0.01820003 -0.00979608 0.00276200
v -0.00070000 -0.01100000 0.00276200
v 0.00270000 -0.01100000 0.00276200
v 0.00256719 -0.01034203 0.00276200
v -0.00618393 -0.00744955 0.01104687
v -0.00535723 -0.00705154 0.01139527
v -0.00291152 -0.00635000 0.01284151
v -0.00372852 -0.00641452 0.01235833
v -0.00493560 -0.00679202 0.01164461
v -0.00439682 -0.00657295 0.01196320
v 0.00550850 -0.00635000 0.01284151
v 0.00042777 -0.00635000 0.01553795
v 0.00550850 -0.00659623 0.01192160
v 0.00629581 -0.00621393 0.02099148
v 0.00646637 -0.00613208 0.02125216
v 0.00550850 -0.00635000 0.01980113
v 0.00582225 -0.00632931 0.02028060
v 0.00608316 -0.00628094 0.02067101
v 0.00609949 -0.00644741 0.01284151
v 0.00673102 -0.00671378 0.02049473
v 0.00641049 -0.00658603 0.01980115
v 0.00642841 -0.00659623 0.01284151
v 0.00635839 -0.00659623 0.01248948
v 0.00615898 -0.00659623 0.01219104
v 0.00586054 -0.00659623 0.01199162
v 0.00699772 -0.00667514 0.02127685
v 0.00735000 -0.00716978 0.02230007
v 0.00732533 -0.00747259 0.02140941
v 0.00724725 -0.00748563 0.02055240
v 0.00642985 -0.00659706 0.01980115
v 0.00735000 -0.00728789 0.02217646
v 0.00735000 -0.00776229 0.02148700
v 0.00710297 -0.00727020 0.01980115
v 0.00711443 -0.00729032 0.01980115
v 0.00735000 -0.00808816 0.02062314
v 0.00710329 -0.00727075 0.01284151
v 0.00735000 -0.00819150 0.01980113
v 0.00735000 -0.00819150 0.01284151
v 0.00715965 -0.00737613 0.01284151
v 0.00662796 -0.00672933 0.01284151
v 0.00735000 -0.01210268 0.01983080
v 0.00735000 -0.01291948 0.01619092
v 0.00735000 -0.00606373 0.04389235
v 0.00735000 0.01225158 0.04369341
v 0.00751477 0.01266822 0.04386214
v 0.00735000 0.01226269 0.04389235
v 0.00719827 -0.00611039 0.04456964
v 0.00721309 0.01240308 0.04453729
v 0.00736557 0.01279287 0.04455897
v 0.00752111 -0.00662816 0.04285789
v 0.00736057 -0.00650662 0.04459423
v 0.00752754 -0.00648288 0.04390749
v 0.00739287 -0.01231546 0.01988533
v 0.00751419 -0.01249602 0.01993160
v 0.00741425 -0.01372715 0.01287619
v 0.00735000 -0.01346300 0.01284151
v 0.00710329 -0.00819150 0.01192076
v 0.00734042 -0.01349917 0.01265394
v 0.00737857 -0.01380165 0.01248909
v 0.00698189 -0.00727075 0.01223122
v 0.00663618 -0.00727075 0.01171383
v 0.00611880 -0.00727075 0.01136812
v 0.00677022 -0.01379837 0.01150017
v 0.00731154 -0.01354325 0.01246714
v 0.00711897 -0.01363986 0.01194848
v 0.00673901 -0.01381156 0.01147149
v 0.00670710 -0.01382489 0.01144349
v 0.00685179 -0.01404445 0.01149793
v 0.00679228 -0.01407678 0.01143675
v 0.00630294 -0.01444591 0.01097579
v 0.00784317 -0.01403516 0.01291662
v 0.00780008 -0.01411437 0.01244478
v 0.00806891 -0.01409681 0.01238662
v 0.00810792 -0.01405040 0.01264873
v 0.01561221 -0.00892618 0.03276583
v 0.00759148 -0.01393211 0.01290309
v 0.00755040 -0.01400521 0.01248154
v 0.00717198 -0.01435141 0.01126290
v 0.00699487 -0.01424086 0.01141325
v 0.00770352 -0.01262261 0.01996404
v 0.00811649 -0.01401315 0.01291492
v 0.00803068 -0.01349141 0.01626739
v 0.00793420 -0.01266859 0.01997583
v 0.01551867 -0.00889733 0.03319102
v 0.01509945 -0.00867417 0.03509134
v 0.01456044 -0.00817175 0.03752369
v 0.01495187 -0.00800290 0.03755306
v 0.00859692 -0.00679391 0.04290036
v 0.01351230 -0.00672441 0.04317158
v 0.01581259 -0.00867851 0.03324239
v 0.01647626 -0.00877529 0.02882302
v 0.01895745 -0.00709145 0.01545319
v 0.01666114 -0.00856484 0.02888383
v 0.01914085 -0.00688390 0.01551337
v 0.00793420 -0.00679391 0.04290036
v 0.01672260 -0.00829189 0.02892961
v 0.01920379 -0.00660805 0.01555979
v 0.01600731 -0.00837678 0.03278394
v 0.01408669 0.01224788 0.04313315
v 0.01917114 -0.00681356 0.01552785
v 0.01592933 -0.00834434 0.03320415
v 0.01513484 -0.00760583 0.03748526
v 0.01391532 -0.00654414 0.04320018
v 0.01408669 -0.00615849 0.04313315
v 0.01935970 -0.00668471 0.01249918
v 0.01289557 0.01224788 0.04709247
v 0.01398372 -0.00603052 0.04364834
v 0.01594264 -0.00900368 0.00462904
v 0.01763346 -0.00785621 0.00686204
v 0.01882015 -0.00705088 0.00953385
v 0.01282351 0.01253998 0.04706192
v 0.01087825 0.01224788 0.05070154
v 0.01243322 -0.00576580 0.04810042
v 0.01386662 -0.00590334 0.04416031
v 0.01372146 -0.00580014 0.04471988
v 0.01355603 -0.00576580 0.04528564
v 0.01081431 0.01224788 0.05079195
v 0.01087825 -0.00576580 0.05070154
v 0.01075091 0.01224788 0.05088273
v 0.01338642 -0.00618522 0.04523319
v 0.01369467 -0.00628661 0.04421670
v 0.01073883 -0.00617889 0.05060234
v 0.01061074 -0.00617841 0.05078543
v 0.01081431 -0.00576580 0.05079195
v 0.01341252 -0.00659648 0.04367079
v 0.01329897 -0.00646926 0.04416724
v 0.00882018 -0.00671656 0.04320221
v 0.00921385 -0.00654800 0.04385997
v 0.00900222 -0.00663992 0.04350128
v 0.01315991 -0.00638044 0.04463236
v 0.00944487 -0.00646926 0.04416724
v 0.01299792 -0.00635000 0.04511303
v 0.01190948 -0.00635000 0.04784147
v 0.00985098 -0.00638035 0.04463305
v 0.01027100 -0.00635000 0.04511303
v 0.01040225 -0.00635000 0.05036284
v 0.01033635 -0.00635000 0.05045603
v 0.01027100 -0.00635000 0.05054959
v 0.00933186 -0.00650509 0.05237912
v 0.00925110 -0.00632940 0.05335345
v 0.00890382 -0.00664614 0.04395843
v 0.00897156 -0.00665516 0.04421033
v 0.00894091 -0.00667040 0.04491938
v 0.00842741 -0.00700529 0.05473909
v 0.00793420 -0.00669351 0.04340297
v 0.00658634 -0.00697183 0.04582343
v 0.00844932 -0.00687920 0.04556461
v 0.00806646 -0.00715312 0.04623037
v 0.00820522 -0.00715481 0.04630728
v 0.00604206 -0.00715311 0.04623036
v 0.00735646 -0.00805918 0.04803292
v 0.00748784 -0.00818224 0.04842941
v 0.00728439 -0.00820245 0.04831794
v 0.00715844 -0.00682763 0.04539571
v 0.00872829 -0.00672606 0.04496486
v 0.00865725 -0.00683624 0.04568793
v 0.00832085 -0.00709634 0.04640145
v 0.00773885 -0.00668685 0.04472078
v 0.00772855 -0.00668955 0.04474056
v 0.00793420 -0.00664755 0.04391344
v 0.00581090 -0.00694654 0.04605870
v 0.00692000 -0.00663131 0.04516755
v 0.00698002 -0.00934184 0.05058469
v 0.00085273 -0.00934185 0.05058471
v 0.00046352 -0.00931179 0.05064001
v 0.00768696 -0.00790902 0.04822913
v 0.00769263 -0.00789833 0.05774872
v 0.00723542 -0.00925812 0.05063729
v 0.00762816 -0.00802697 0.04849454
v 0.00735547 -0.00909237 0.06123839
v 0.00735975 -0.00903253 0.05075580
v 0.00723231 -0.00935022 0.05104098
v 0.00735649 -0.00907633 0.05089010
v 0.00697518 -0.00945007 0.05104098
v 0.00697630 -0.00942178 0.05080289
v 0.00735547 -0.00909237 0.05104098
v 0.00723622 -0.00934659 0.06123839
v 0.00735587 -0.00908065 0.06126035
v 0.00723972 -0.00934277 0.06127923
v 0.00797333 -0.00724839 0.05691265
v 0.00735565 -0.00906907 0.06128207
v 0.00824919 -0.00689677 0.05596223
v 0.00057717 -0.00942266 0.05080657
v 0.00697518 -0.00945007 0.06123839
v 0.00032798 -0.00945007 0.05104098
v 0.00021088 -0.00938368 0.05086079
v 0.00023036 -0.00945007 0.05110893
v 0.00013133 -0.00945007 0.05118716
v -0.00011357 -0.00906907 0.05089530
v 0.00566655 -0.00663114 0.04604520
v 0.00000529 -0.00913728 0.05080918
v 0.00013368 -0.00920325 0.05074199
v -0.00174858 -0.00547497 0.05226723
v 0.00621464 -0.00642642 0.04558530
v -0.00004460 -0.00933411 0.05097749
v -0.00174858 -0.00906907 0.05226723
v 0.00678293 -0.00626584 0.04510845
v -0.00151941 -0.00510934 0.05207493
v -0.00134218 -0.00506857 0.05192622
v -0.00119805 -0.00506857 0.05180529
v -0.00165151 -0.00521143 0.05218578
v -0.00172601 -0.00534125 0.05224830
v 0.00307752 0.00707766 0.04821765
v 0.00678293 0.01266035 0.04510845
v 0.00703363 0.01252439 0.04484335
v 0.00377443 0.00325024 0.04763288
v 0.00307728 -0.00057839 0.04821786
v 0.00216257 -0.00244297 0.04898539
v 0.00081631 -0.00419931 0.05011503
v -0.00005359 -0.00482047 0.05084496
v -0.00013124 -0.00485472 0.05091012
v 0.00719624 0.01241563 0.04457393
v -0.00127321 -0.00480353 0.05200841
v -0.00166587 -0.00495695 0.05234351
v -0.00147463 -0.00483722 0.05218303
v -0.00181921 -0.00517220 0.05247217
v -0.00184898 -0.00906907 0.05239808
v -0.00184948 -0.00547497 0.05239915
v -0.00188323 -0.00906907 0.05252589
v -0.00185558 -0.00920377 0.05250269
v -0.00167685 -0.00933848 0.05235272
v -0.00178004 -0.00930238 0.05243930
v -0.00174858 0.01556893 0.05226723
v 0.00656926 0.01273893 0.04528774
v 0.00692282 0.01299218 0.04513687
v -0.00174858 0.01197483 0.05226723
v -0.00005138 0.01131928 0.05084311
v 0.00081631 0.01069917 0.05011503
v 0.00216035 0.00894643 0.04898725
v 0.00635828 0.01282440 0.04546477
v -0.00011166 0.01556893 0.05089370
v 0.00000477 0.01563600 0.05080918
v 0.00013064 0.01570101 0.05074285
v 0.00650706 0.01314491 0.04547969
v -0.00167685 0.01583834 0.05235272
v -0.00003713 0.01584264 0.05098253
v -0.00184865 0.01197483 0.05239738
v -0.00184898 0.01556893 0.05239808
v -0.00177309 0.01583834 0.05255910
v -0.00171995 0.01182526 0.05224321
v -0.00163238 0.01169024 0.05216973
v -0.00181904 0.01167150 0.05247202
v -0.00188323 0.01197483 0.05252586
v -0.00119805 0.01156843 0.05180529
v -0.00150253 0.01160150 0.05206077
v -0.00166527 0.01145619 0.05234299
v -0.00013105 0.01135449 0.05090997
v -0.00134218 0.01156843 0.05192622
v -0.00147411 0.01133687 0.05218260
v -0.00112909 0.01130339 0.05188748
v -0.00127024 0.01129870 0.05201196
v -0.00013720 0.01112969 0.05102417
v 0.00075647 0.01054659 0.05023656
v 0.00252547 0.00807010 0.04872370
v 0.00355446 0.00495249 0.04784613
v 0.00355545 0.00155338 0.04784529
v 0.00252687 -0.00156752 0.04872251
v -0.00013719 -0.00462982 0.05102417
v 0.00075648 -0.00404683 0.05023645
v -0.00112352 -0.00479486 0.05189412
v -0.00183026 -0.00518734 0.05253553
v -0.00188327 -0.00547497 0.05252633
v -0.00188468 -0.00547497 0.05255910
v -0.00188468 -0.00906907 0.05255910
v -0.00165405 -0.00491819 0.06946900
v -0.00188468 -0.00906907 0.06946900
v -0.00188468 -0.00547497 0.06946900
v -0.00166837 -0.00493288 0.05246541
v -0.00141214 -0.00475326 0.05235445
v -0.00109728 -0.00468757 0.05221809
v -0.00109728 -0.00468757 0.06946900
v -0.00095315 -0.00468757 0.05209715
v -0.00185586 -0.00921444 0.05255910
v -0.00177309 -0.00906907 0.06973841
v -0.00168254 -0.00513707 0.06973841
v -0.00177309 -0.00547497 0.06973841
v -0.00177340 -0.00933817 0.05255910
v -0.00177309 -0.00933848 0.06946900
v -0.00177309 -0.00930238 0.06960370
v -0.00177309 -0.00920377 0.06970231
v -0.00109728 -0.00479916 0.06973841
v -0.00095315 -0.00468757 0.06946900
v -0.00143518 -0.00488970 0.06973841
v -0.00000715 -0.00449216 0.06946900
v -0.00045268 -0.00463453 0.05160856
v -0.00095315 -0.00479916 0.06973841
v -0.00003557 -0.00450421 0.05120492
v 0.00078401 -0.00393793 0.05040690
v 0.00208895 -0.00223339 0.04927208
v 0.00001447 -0.00448271 0.05115598
v 0.00078401 -0.00393793 0.06946900
v 0.00204447 -0.00230517 0.06975257
v 0.00111361 -0.00357147 0.06946900
v 0.00186010 -0.00258967 0.06960359
v 0.00164782 -0.00289411 0.06950453
v 0.00142554 -0.00319000 0.06946900
v 0.00078401 0.01043779 0.05040690
v 0.00297089 0.00692972 0.04850510
v 0.00208935 0.00873260 0.04927171
v 0.00363834 0.00324675 0.04792473
v 0.00296960 -0.00043330 0.04850623
v 0.00078401 0.01043779 0.06946900
v 0.00001238 0.01098350 0.05115801
v -0.00000715 0.01099202 0.06946900
v 0.00215059 0.00863161 0.06986310
v 0.00111770 0.01006655 0.06946900
v 0.00143342 0.00967973 0.06946900
v 0.00164190 0.00940214 0.06949929
v 0.00183591 0.00912540 0.06958091
v 0.00201501 0.00885186 0.06970868
v 0.00331429 0.00583555 0.07232650
v 0.00224830 0.00846492 0.07003352
v 0.00233314 0.00831421 0.07029795
v 0.00235752 0.00826980 0.07054807
v 0.00235752 0.00826980 0.07232650
v 0.00363834 0.00324015 0.07232650
v 0.00234444 -0.00179384 0.07054821
v 0.00330849 0.00064164 0.07232650
v 0.00231249 -0.00185156 0.07026517
v 0.00220963 -0.00203187 0.06998267
v -0.00095315 0.01118743 0.05209715
v -0.00003568 0.01100412 0.05120500
v -0.00045439 0.01113475 0.05161022
v -0.00095315 0.01118743 0.06946900
v -0.00109728 0.01118743 0.05221809
v -0.00139491 0.01124585 0.05234685
v -0.00165405 0.01141805 0.06946900
v -0.00109728 0.01118743 0.06946900
v -0.00164916 0.01141321 0.05245709
v -0.00188468 0.01197483 0.05255910
v -0.00182319 0.01166979 0.05253234
v -0.00188468 0.01197483 0.06946900
v -0.00188468 0.01556893 0.05255910
v -0.00177309 0.01583834 0.06946900
v -0.00188468 0.01556893 0.06946900
v -0.00150368 0.01594993 0.05255910
v -0.00150368 0.01594993 0.06946900
v 0.00013313 0.01594993 0.05118565
v 0.00697414 0.01594993 0.05104222
v 0.00697414 0.01594993 0.06128310
v 0.00020568 0.01588001 0.05085794
v 0.00022807 0.01594993 0.05111048
v 0.00046214 0.01581046 0.05063948
v 0.00032582 0.01594993 0.05104222
v 0.00697517 0.01592151 0.05080357
v 0.00057634 0.01592214 0.05080621
v 0.00696900 0.01594993 0.06174590
v 0.00696900 0.01594993 0.06946900
v -0.00150368 0.01583834 0.06973841
v 0.00723841 0.01583834 0.06946900
v 0.00696900 0.01583834 0.06973841
v 0.00697379 0.01594993 0.06131446
v 0.00697020 0.01594993 0.06153017
v -0.00163838 0.01583834 0.06970231
v -0.00173699 0.01583834 0.06960370
v 0.00723592 0.01584575 0.06128310
v 0.00723983 0.01584201 0.05104222
v 0.00724743 0.01583397 0.06132054
v 0.00723841 0.01583834 0.06174590
v 0.00735000 0.01556893 0.06946900
v 0.00735000 0.01556893 0.06174590
v 0.00735000 0.00629793 0.06946900
v 0.00735117 0.01556893 0.06153439
v 0.00735141 -0.00906907 0.06151395
v 0.00735000 -0.00906907 0.06174590
v 0.00735000 0.00020193 0.06643812
v 0.00735000 0.00629793 0.06643812
v 0.00723841 0.01580224 0.06960370
v 0.00723841 0.01556893 0.06973841
v 0.00723841 0.01570363 0.06970231
v 0.00735470 0.01556893 0.06132293
v 0.00735489 0.01557953 0.06130305
v 0.00735455 0.01559018 0.06128310
v 0.00796705 0.01373966 0.05693666
v 0.00735455 0.01559018 0.05104227
v 0.00768563 0.01439363 0.05778929
v 0.00723879 0.01575300 0.05063823
v 0.00697866 0.01584065 0.05058384
v 0.00735548 0.01557416 0.05089146
v 0.00748115 0.01456577 0.04812782
v 0.00085236 0.01584065 0.05058384
v 0.00673395 0.01334569 0.04564859
v 0.00715787 0.01499283 0.04890677
v 0.00751208 0.01479359 0.04910950
v 0.00735855 0.01552976 0.05075573
v 0.00694365 0.01326999 0.04549181
v 0.00843934 0.01334570 0.04564860
v 0.00838383 0.01338338 0.04572314
v 0.00749311 0.01430792 0.04755197
v 0.00715843 0.01319958 0.04533124
v 0.00772826 0.01298104 0.04467761
v 0.00774565 0.01297254 0.04464385
v 0.00855295 0.01335758 0.04572873
v 0.00865069 0.01332268 0.04582048
v 0.00841995 0.01349347 0.05476254
v 0.00780311 0.01419047 0.04776095
v 0.00925101 0.01281151 0.05335365
v 0.00824964 0.01337835 0.05596083
v 0.00928124 0.01259203 0.05338823
v 0.01075091 -0.00576580 0.05088273
v 0.00928557 -0.00610781 0.05337937
v 0.00723841 -0.00933848 0.06174590
v 0.00735000 -0.00906907 0.06946900
v 0.00723841 -0.00933848 0.06946900
v 0.00697476 -0.00945007 0.06127278
v -0.00150368 -0.00945007 0.05255910
v 0.00697044 -0.00945007 0.06150932
v 0.00696900 -0.00945007 0.06174590
v 0.00696900 -0.00945007 0.06946900
v -0.00150368 -0.00945007 0.06946900
v 0.00696900 -0.00933848 0.06973841
v -0.00150368 -0.00933848 0.06973841
v 0.00723841 -0.00930238 0.06960370
v -0.00150368 -0.00906907 0.06985000
v 0.00696900 -0.00906907 0.06985000
v -0.00150368 -0.00547497 0.06985000
v 0.00014366 -0.00484164 0.06985000
v 0.00516120 -0.00140582 0.06985000
v 0.00696900 0.00020193 0.06985000
v -0.00138464 -0.00518761 0.06985000
v -0.00109728 -0.00506857 0.06985000
v -0.00095315 -0.00506857 0.06985000
v 0.00006833 -0.00466707 0.06979895
v 0.00001307 -0.00453903 0.06965950
v 0.00086520 -0.00401449 0.06973841
v 0.00106121 -0.00419931 0.06985000
v 0.00151744 -0.00326147 0.06974315
v 0.00235331 -0.00329312 0.06985000
v 0.00140280 -0.00381952 0.06985000
v 0.01000653 0.00578993 0.06985000
v 0.00777222 0.00070993 0.06985000
v 0.01000653 0.00070993 0.06985000
v 0.00912238 0.00070993 0.06794500
v 0.01114953 0.00578993 0.06870700
v 0.01114953 0.00070993 0.06794500
v 0.01114953 0.00070993 0.06870700
v 0.00674224 0.00157659 0.06985000
v 0.00733955 0.00056268 0.06985000
v 0.00745574 0.00056114 0.06967818
v 0.00866523 0.00070993 0.06777861
v 0.00783628 0.00070993 0.06966427
v 0.00887916 0.00070993 0.06790206
v 0.00723841 0.00020193 0.06973841
v 0.00723841 -0.00906907 0.06973841
v 0.00204431 -0.00338056 0.06985000
v 0.00172614 -0.00342410 0.06985000
v 0.00229421 -0.00312904 0.06987213
v 0.00198284 -0.00320580 0.06987453
v 0.00207357 -0.00287467 0.06996318
v 0.00491664 -0.00093550 0.07005458
v 0.00250481 -0.00270334 0.07005513
v 0.00242753 -0.00278443 0.07001337
v 0.00223886 -0.00297535 0.06993709
v 0.00673119 0.00494962 0.06985000
v 0.00627284 0.00173495 0.07005458
v 0.00696900 0.00629793 0.06985000
v 0.00513069 0.00792157 0.06985000
v 0.00492799 0.00740418 0.07005458
v 0.00733777 0.00593825 0.06985000
v 0.00777222 0.00578993 0.06985000
v 0.00627692 0.00473005 0.07005458
v 0.00696900 0.01556893 0.06985000
v 0.00231061 0.00979042 0.06985000
v 0.00252062 0.00917848 0.07005537
v 0.00202635 0.00987059 0.06985000
v 0.00197423 0.00970859 0.06987081
v 0.00225770 0.00964045 0.06986834
v 0.00240633 0.00929841 0.06999586
v 0.00173417 0.00991365 0.06985000
v 0.00140705 0.01031442 0.06985000
v 0.00086520 0.01051435 0.06973841
v 0.00151816 0.00974575 0.06973417
v 0.00220757 0.00949836 0.06992241
v 0.00106121 0.01069917 0.06985000
v 0.00014366 0.01134150 0.06985000
v 0.00006833 0.01116693 0.06979895
v -0.00095315 0.01156843 0.06985000
v -0.00095315 0.01129902 0.06973841
v -0.00109728 0.01156843 0.06985000
v -0.00109728 0.01129902 0.06973841
v -0.00138464 0.01168747 0.06985000
v -0.00150368 0.01197483 0.06985000
v -0.00168254 0.01163693 0.06973841
v -0.00143518 0.01138956 0.06973841
v -0.00150368 0.01556893 0.06985000
v -0.00177309 0.01556893 0.06973841
v -0.00177309 0.01197483 0.06973841
v 0.00723841 0.00629793 0.06973841
v 0.00745602 0.00593872 0.06967754
v 0.00783628 0.00578993 0.06966427
v 0.00785800 0.00578993 0.06710126
v 0.00866523 0.00578993 0.06777861
v 0.00887916 0.00578993 0.06790206
v 0.00785800 0.00578993 0.06946900
v 0.00912238 0.00578993 0.06794500
v 0.00785800 0.00070993 0.06946900
v 0.00749879 0.00056114 0.06946900
v 0.00785800 0.00070993 0.06710126
v 0.01114953 0.00578993 0.06794500
v 0.00753146 0.00590878 0.06682727
v 0.00768320 0.00581982 0.06695459
v 0.00768336 0.00068009 0.06695472
v 0.00735000 0.00020193 0.06946900
v 0.00740044 0.00042257 0.06665880
v 0.00753146 0.00059108 0.06682727
v 0.00740044 0.00607724 0.06665876
v 0.00749879 0.00593872 0.06946900
v 0.00723841 -0.00920377 0.06970231
v 0.00001307 0.01103889 0.06965950
v 0.00194543 0.00931300 0.06990040
v 0.00183089 0.00915457 0.06967266
v 0.00192430 0.00929263 0.06988332
v 0.00201195 0.00892352 0.06985760
v 0.00217059 0.00873525 0.07007939
v 0.00229047 0.00861937 0.07032596
v 0.00233407 0.00858310 0.07232647
v 0.00233405 0.00858305 0.07054847
v 0.00236974 0.00826369 0.07243061
v 0.00371299 0.00491098 0.07282042
v 0.00267882 0.00809885 0.07282027
v 0.00263553 0.00812321 0.07279120
v 0.00240892 0.00824389 0.07253808
v 0.00247741 0.00820860 0.07264432
v 0.00254831 0.00817098 0.07272034
v 0.00370864 0.00156146 0.07282042
v 0.00234444 -0.00179384 0.07232650
v 0.00266619 -0.00162371 0.07282027
v 0.00232320 -0.00211513 0.07054850
v 0.00232017 -0.00210706 0.07232650
v 0.00240554 -0.00206796 0.07261550
v 0.00235676 -0.00178768 0.07243089
v 0.00239608 -0.00176798 0.07253842
v 0.00246471 -0.00173282 0.07264460
v 0.00253573 -0.00169539 0.07272057
v 0.00262307 -0.00164782 0.07279137
v 0.00225014 -0.00216486 0.07026043
v 0.00207549 -0.00235139 0.06995742
v 0.00185405 -0.00262432 0.06970184
v 0.00193887 -0.00275868 0.06989829
v 0.00215207 0.00911330 0.07003698
v 0.00425031 -0.00133650 0.07054850
v 0.00285234 -0.00231623 0.07054850
v 0.00285234 -0.00231623 0.07232650
v 0.00278346 -0.00239603 0.07031466
v 0.00253877 -0.00233176 0.07054850
v 0.00253168 -0.00232888 0.07232650
v 0.00533086 -0.00001487 0.07054850
v 0.00601325 0.00154993 0.07054850
v 0.00533087 -0.00001486 0.07232650
v 0.00624652 0.00324104 0.07054850
v 0.00601435 0.00492823 0.07054850
v 0.00624652 0.00324104 0.07232650
v 0.00533510 0.00649001 0.07054850
v 0.00425925 0.00781026 0.07054850
v 0.00533510 0.00649001 0.07232650
v 0.00284009 0.00882221 0.07040117
v 0.00286677 0.00879088 0.07054850
v 0.00276575 0.00890799 0.07026679
v 0.00268002 0.00900474 0.07017256
v 0.00256146 0.00913470 0.07008080
v 0.00254490 0.00880385 0.07054847
v 0.00286677 0.00879088 0.07232650
v 0.00248423 0.00883534 0.07038627
v 0.00233845 0.00894584 0.07020311
v 0.00257878 -0.00262411 0.07010300
v 0.00222814 -0.00255309 0.07011188
v 0.00197395 -0.00279323 0.06992621
v 0.00243706 -0.00238145 0.07033783
v 0.00286498 -0.00229478 0.07246202
v 0.00523679 0.00022757 0.07282042
v 0.00299813 -0.00205984 0.07276714
v 0.00304158 -0.00197965 0.07282027
v 0.00294797 -0.00215014 0.07268991
v 0.00291072 -0.00221578 0.07261405
v 0.00524449 0.00624110 0.07282042
v 0.00604193 0.00323331 0.07282042
v 0.00305500 0.00845414 0.07282005
v 0.00301088 0.00853600 0.07276574
v 0.00299427 0.00856631 0.07274221
v 0.00295193 0.00864251 0.07267134
v 0.00290876 0.00871851 0.07257215
v 0.00287797 0.00877178 0.07245433
v 0.00254617 0.00880437 0.07232647
v 0.00261226 -0.00227953 0.07258394
v 0.00331707 -0.00120397 0.07301968
v 0.00339173 -0.00125236 0.07302020
v 0.00345591 -0.00109915 0.07302500
v 0.00411327 0.00102614 0.07302500
v 0.00499763 0.00083187 0.07302500
v 0.00333009 -0.00139277 0.07300683
v 0.00318585 -0.00129756 0.07300454
v 0.00327151 -0.00152067 0.07298631
v 0.00306318 -0.00138084 0.07298086
v 0.00321624 -0.00163691 0.07295974
v 0.00294931 -0.00145453 0.07294958
v 0.00308605 -0.00173094 0.07295022
v 0.00316433 -0.00174245 0.07292794
v 0.00284435 -0.00151950 0.07291151
v 0.00295896 -0.00180433 0.07293423
v 0.00311605 -0.00183769 0.07289169
v 0.00282716 -0.00187329 0.07290387
v 0.00305093 -0.00196213 0.07283046
v 0.00272618 -0.00158945 0.07285549
v 0.00269033 -0.00193831 0.07285307
v 0.00254821 -0.00200160 0.07276872
v 0.00287974 -0.00213071 0.07274991
v 0.00274989 -0.00220261 0.07270238
v 0.00433684 0.00323950 0.07302500
v 0.00554800 0.00323376 0.07302500
v 0.00411821 0.00544926 0.07302500
v 0.00500392 0.00563712 0.07302500
v 0.00273851 0.00806454 0.07285538
v 0.00285655 0.00799426 0.07291144
v 0.00296143 0.00792897 0.07294956
v 0.00307522 0.00785491 0.07298087
v 0.00319776 0.00777125 0.07300457
v 0.00332874 0.00767732 0.07301968
v 0.00346718 0.00757223 0.07302500
v 0.00284054 0.00834796 0.07290389
v 0.00297214 0.00827866 0.07293423
v 0.00309901 0.00820494 0.07295023
v 0.00322082 0.00812750 0.07295517
v 0.00333022 0.00789276 0.07300326
v 0.00326920 0.00802582 0.07297989
v 0.00339687 0.00774122 0.07301914
v 0.00241948 0.00854368 0.07261574
v 0.00256196 0.00847697 0.07276882
v 0.00270389 0.00841333 0.07285312
v 0.00316462 0.00824164 0.07291907
v 0.00312120 0.00832740 0.07288490
v 0.00289380 0.00860522 0.07274994
v 0.00276417 0.00867745 0.07270245
v 0.00262676 0.00875470 0.07258414
v 0.00693436 -0.01427242 0.01134290
f 1 2 3
f 4 3 2
f 5 6 3
f 7 3 6
f 8 5 3
f 9 8 3
f 1 3 7
f 10 3 4
f 9 3 10
f 11 12 2
f 4 2 12
f 1 11 2
f 11 13 12
f 14 12 13
f 14 4 12
f 15 16 13
f 17 13 16
f 18 15 13
f 19 18 13
f 11 19 13
f 17 14 13
f 20 21 16
f 17 16 21
f 22 20 16
f 15 22 16
f 23 24 21
f 25 21 24
f 26 21 20
f 27 23 21
f 26 27 21
f 28 17 21
f 25 28 21
f 29 30 24
f 31 24 30
f 32 29 24
f 23 32 24
f 31 25 24
f 33 34 30
f 35 30 34
f 36 30 29
f 36 37 30
f 38 30 37
f 39 33 30
f 38 39 30
f 40 30 35
f 31 30 40
f 41 42 34
f 35 34 42
f 33 41 34
f 43 44 42
f 45 42 44
f 41 43 42
f 46 35 42
f 45 46 42
f 47 48 44
f 49 44 48
f 50 47 44
f 43 50 44
f 49 45 44
f 51 48 47
f 52 48 51
f 49 48 52
f 51 47 50
f 43 53 50
f 54 50 53
f 55 51 50
f 54 55 50
f 56 57 53
f 58 53 57
f 43 56 53
f 58 54 53
f 59 6 57
f 60 57 6
f 61 62 57
f 63 57 62
f 64 61 57
f 29 64 57
f 65 29 57
f 66 65 57
f 56 66 57
f 63 59 57
f 67 57 60
f 58 57 67
f 68 6 5
f 69 7 6
f 59 69 6
f 60 6 68
f 68 5 8
f 9 70 8
f 71 8 70
f 72 8 71
f 72 68 8
f 73 20 22
f 74 26 20
f 74 20 73
f 15 62 22
f 75 22 62
f 73 22 75
f 76 62 61
f 77 63 62
f 15 77 62
f 75 62 76
f 78 61 64
f 76 61 78
f 79 64 29
f 78 64 79
f 80 29 32
f 65 36 29
f 79 29 80
f 81 32 23
f 81 80 32
f 82 23 27
f 81 23 82
f 83 27 26
f 82 27 83
f 83 26 74
f 84 37 36
f 85 38 37
f 85 37 84
f 86 36 65
f 84 36 86
f 87 65 66
f 86 65 87
f 88 66 56
f 87 66 88
f 89 56 43
f 88 56 89
f 90 43 41
f 89 43 90
f 91 41 33
f 91 90 41
f 92 33 39
f 91 33 92
f 93 39 38
f 92 39 93
f 93 38 85
f 94 7 69
f 95 1 7
f 95 7 94
f 96 69 59
f 94 69 96
f 97 59 63
f 96 59 97
f 98 63 77
f 97 63 98
f 99 77 15
f 98 77 99
f 100 15 18
f 99 15 100
f 101 18 19
f 101 100 18
f 102 19 11
f 101 19 102
f 103 11 1
f 102 11 103
f 103 1 95
f 14 104 4
f 105 4 104
f 106 10 4
f 105 106 4
f 14 107 104
f 108 104 107
f 109 105 104
f 108 109 104
f 110 107 14
f 111 107 110
f 112 107 111
f 113 114 107
f 115 107 114
f 116 113 107
f 112 116 107
f 108 107 115
f 17 110 14
f 117 10 106
f 118 10 117
f 119 10 118
f 9 10 119
f 120 106 105
f 120 121 106
f 122 106 121
f 117 106 122
f 120 105 109
f 28 110 17
f 123 111 110
f 124 123 110
f 124 110 28
f 125 126 111
f 127 111 126
f 123 125 111
f 128 112 111
f 128 111 127
f 129 126 125
f 130 127 126
f 131 126 129
f 130 126 131
f 129 125 123
f 132 123 124
f 129 123 132
f 133 114 113
f 134 114 133
f 135 114 134
f 115 114 135
f 136 113 116
f 137 113 136
f 133 113 137
f 136 116 112
f 136 112 128
f 138 127 139
f 140 139 127
f 141 142 101
f 143 141 102
f 144 138 139
f 145 144 139
f 140 145 139
f 138 128 127
f 130 140 127
f 136 128 138
f 142 146 101
f 136 138 147
f 141 101 102
f 147 138 144
f 145 148 144
f 147 144 148
f 149 148 145
f 147 148 150
f 151 150 148
f 152 153 95
f 151 148 149
f 140 154 145
f 149 145 154
f 155 156 154
f 157 154 156
f 140 155 154
f 143 102 103
f 157 149 154
f 158 159 156
f 160 156 159
f 161 158 156
f 162 161 156
f 155 162 156
f 160 157 156
f 158 163 159
f 164 159 163
f 164 160 159
f 158 165 163
f 164 163 165
f 158 166 165
f 167 165 166
f 168 165 167
f 143 103 95
f 153 143 95
f 169 166 158
f 170 166 169
f 167 166 170
f 171 158 161
f 172 169 158
f 171 172 158
f 171 161 162
f 130 162 155
f 130 173 162
f 171 162 173
f 130 155 140
f 174 147 150
f 175 174 150
f 175 150 151
f 174 176 147
f 137 147 176
f 137 136 147
f 174 177 176
f 137 176 177
f 178 179 177
f 180 177 179
f 174 178 177
f 181 137 177
f 180 181 177
f 178 182 179
f 180 179 182
f 183 184 182
f 185 182 184
f 178 183 182
f 185 180 182
f 183 186 184
f 185 184 186
f 187 186 183
f 188 185 186
f 189 190 186
f 188 186 190
f 187 189 186
f 191 183 178
f 192 183 191
f 187 183 192
f 175 178 174
f 191 178 175
f 133 137 181
f 133 181 193
f 180 193 181
f 134 133 193
f 180 194 193
f 195 193 194
f 134 193 195
f 196 194 180
f 134 195 194
f 197 194 196
f 197 198 194
f 134 194 198
f 185 199 180
f 196 180 199
f 200 199 185
f 197 196 199
f 201 197 199
f 200 201 199
f 188 200 185
f 202 203 198
f 134 198 203
f 197 202 198
f 202 204 203
f 135 203 204
f 135 134 203
f 205 206 204
f 207 204 206
f 202 205 204
f 135 204 207
f 208 206 205
f 209 207 206
f 210 209 206
f 208 210 206
f 211 205 202
f 212 208 205
f 211 212 205
f 211 202 197
f 213 197 201
f 213 211 197
f 214 215 201
f 216 201 215
f 200 214 201
f 216 213 201
f 217 218 215
f 219 215 218
f 220 217 215
f 214 220 215
f 219 216 215
f 221 218 217
f 221 219 218
f 152 95 94
f 221 217 220
f 222 220 214
f 223 220 222
f 221 220 223
f 224 214 200
f 225 226 214
f 222 214 226
f 224 225 214
f 188 224 200
f 108 227 109
f 210 109 227
f 210 120 109
f 108 207 227
f 209 227 207
f 210 227 209
f 108 135 207
f 108 115 135
f 122 121 228
f 229 228 121
f 117 122 228
f 230 117 228
f 231 230 228
f 232 231 228
f 233 232 228
f 229 233 228
f 229 121 120
f 229 120 210
f 118 117 230
f 234 230 231
f 119 118 230
f 234 119 230
f 234 231 232
f 233 235 232
f 236 232 235
f 234 232 236
f 233 237 235
f 238 235 237
f 239 235 238
f 240 235 239
f 236 235 240
f 96 241 242
f 238 237 233
f 208 233 229
f 243 233 208
f 244 233 243
f 238 233 244
f 208 229 210
f 212 243 208
f 244 245 246
f 247 246 245
f 248 244 246
f 249 248 246
f 249 246 247
f 244 243 245
f 250 245 243
f 96 251 241
f 247 245 250
f 212 252 243
f 250 243 252
f 97 98 253
f 248 238 244
f 254 252 212
f 255 250 252
f 255 252 256
f 254 256 252
f 254 212 257
f 211 257 212
f 247 250 255
f 258 239 238
f 248 258 238
f 259 240 239
f 258 259 239
f 260 240 259
f 260 236 240
f 261 259 258
f 262 260 259
f 261 262 259
f 249 258 248
f 263 261 258
f 263 258 249
f 96 97 251
f 260 234 236
f 70 119 234
f 9 119 70
f 264 70 234
f 260 264 234
f 71 70 264
f 265 264 260
f 266 71 264
f 265 266 264
f 262 265 260
f 72 71 266
f 267 266 265
f 267 72 266
f 267 265 262
f 267 262 261
f 268 267 261
f 263 268 261
f 269 270 68
f 60 68 270
f 271 269 68
f 72 271 68
f 272 270 269
f 273 60 270
f 274 273 270
f 272 274 270
f 275 269 271
f 276 277 269
f 278 269 277
f 279 276 269
f 275 279 269
f 278 272 269
f 280 271 72
f 281 271 280
f 275 271 281
f 267 280 72
f 282 280 267
f 283 280 284
f 285 284 280
f 281 280 283
f 286 280 287
f 282 287 280
f 288 280 286
f 289 280 288
f 290 280 289
f 285 280 290
f 97 253 251
f 282 267 268
f 273 291 60
f 67 60 291
f 292 291 273
f 293 67 291
f 294 293 291
f 294 291 292
f 274 292 273
f 295 67 293
f 295 58 67
f 296 295 293
f 296 293 294
f 297 51 55
f 52 51 297
f 298 55 54
f 298 297 55
f 295 54 58
f 295 298 54
f 299 297 298
f 300 52 297
f 299 300 297
f 301 298 295
f 301 299 298
f 296 301 295
f 302 52 300
f 302 49 52
f 303 302 300
f 304 300 299
f 303 300 304
f 305 35 46
f 40 35 305
f 306 46 45
f 306 305 46
f 302 45 49
f 302 306 45
f 307 305 306
f 308 40 305
f 307 308 305
f 309 306 302
f 309 307 306
f 303 309 302
f 310 40 308
f 310 31 40
f 311 310 308
f 311 308 312
f 307 312 308
f 124 28 25
f 310 25 31
f 310 124 25
f 132 124 310
f 311 132 310
f 313 311 312
f 314 313 312
f 315 314 312
f 315 312 307
f 316 132 311
f 317 129 132
f 316 317 132
f 313 316 311
f 318 129 317
f 99 100 319
f 318 131 129
f 320 317 316
f 321 317 320
f 321 318 317
f 322 316 313
f 322 320 316
f 322 313 314
f 323 322 314
f 324 323 314
f 315 324 314
f 325 320 322
f 170 321 320
f 170 320 325
f 326 322 323
f 327 325 322
f 328 327 322
f 329 328 322
f 330 329 322
f 331 330 322
f 332 331 322
f 326 332 322
f 333 323 324
f 334 335 323
f 326 323 335
f 336 334 323
f 337 336 323
f 338 337 323
f 333 338 323
f 99 339 253
f 130 131 173
f 173 131 318
f 171 318 321
f 171 173 318
f 171 321 172
f 170 172 321
f 170 169 172
f 167 170 325
f 168 167 325
f 168 325 327
f 340 341 327
f 168 327 341
f 342 340 327
f 328 342 327
f 340 343 341
f 168 341 343
f 340 344 343
f 345 343 344
f 345 168 343
f 340 346 344
f 347 344 346
f 345 344 348
f 347 348 344
f 349 350 346
f 351 346 350
f 352 346 340
f 353 354 346
f 355 346 354
f 352 353 346
f 356 349 346
f 357 356 346
f 355 357 346
f 347 346 358
f 351 358 346
f 359 360 350
f 361 350 360
f 362 359 350
f 349 362 350
f 363 351 350
f 361 363 350
f 100 364 319
f 365 366 360
f 367 360 366
f 359 365 360
f 368 361 360
f 367 368 360
f 365 369 366
f 367 366 369
f 370 371 369
f 372 369 371
f 373 374 369
f 375 369 374
f 376 373 369
f 377 376 369
f 340 377 369
f 378 340 369
f 379 370 369
f 380 379 369
f 375 380 369
f 381 378 369
f 382 381 369
f 383 382 369
f 384 383 369
f 385 384 369
f 365 385 369
f 372 367 369
f 386 387 371
f 372 371 387
f 388 386 371
f 389 388 371
f 370 389 371
f 390 391 387
f 392 387 391
f 393 390 387
f 386 393 387
f 394 372 387
f 394 387 392
f 395 396 391
f 397 391 396
f 398 395 391
f 390 398 391
f 392 391 397
f 399 396 395
f 397 396 400
f 399 400 396
f 399 395 398
f 401 398 390
f 402 399 398
f 402 398 401
f 403 324 390
f 404 390 324
f 405 390 393
f 405 403 390
f 401 390 404
f 406 333 324
f 407 406 324
f 408 407 324
f 403 408 324
f 404 324 315
f 409 335 334
f 410 326 335
f 410 335 409
f 411 334 336
f 411 409 334
f 337 412 336
f 413 336 412
f 413 411 336
f 375 374 412
f 414 412 374
f 337 375 412
f 414 413 412
f 415 374 373
f 415 414 374
f 416 373 376
f 416 415 373
f 417 376 377
f 417 416 376
f 418 377 340
f 418 417 377
f 419 340 342
f 378 352 340
f 418 340 419
f 420 342 328
f 420 419 342
f 421 328 329
f 420 328 421
f 422 329 330
f 421 329 422
f 423 330 331
f 422 330 423
f 424 331 332
f 423 331 424
f 425 332 326
f 424 332 425
f 425 326 410
f 426 393 386
f 427 405 393
f 427 393 426
f 428 386 388
f 428 426 386
f 429 388 389
f 429 428 388
f 430 389 370
f 430 429 389
f 431 370 379
f 431 430 370
f 432 379 380
f 432 431 379
f 433 380 375
f 433 432 380
f 434 375 337
f 434 433 375
f 435 337 338
f 434 337 435
f 436 338 333
f 436 435 338
f 437 333 406
f 436 333 437
f 438 406 407
f 437 406 438
f 439 407 408
f 438 407 439
f 440 408 403
f 439 408 440
f 441 403 405
f 440 403 441
f 441 405 427
f 442 354 353
f 146 355 354
f 146 354 442
f 364 353 352
f 364 442 353
f 319 352 378
f 319 364 352
f 339 378 381
f 339 319 378
f 253 381 382
f 253 339 381
f 251 382 383
f 251 253 382
f 241 383 384
f 241 251 383
f 242 384 385
f 242 241 384
f 443 385 365
f 242 385 443
f 444 365 359
f 444 443 365
f 152 359 362
f 444 359 152
f 153 362 349
f 152 362 153
f 143 349 356
f 153 349 143
f 141 356 357
f 143 356 141
f 142 357 355
f 141 357 142
f 142 355 146
f 345 165 168
f 348 445 165
f 446 165 445
f 345 348 165
f 446 164 165
f 358 445 348
f 358 446 445
f 347 358 348
f 447 149 157
f 151 149 447
f 448 157 160
f 448 447 157
f 449 160 164
f 450 448 160
f 449 450 160
f 446 449 164
f 451 447 448
f 452 151 447
f 451 452 447
f 451 448 450
f 453 450 449
f 453 451 450
f 453 449 446
f 351 446 358
f 351 453 446
f 454 151 452
f 455 175 151
f 454 455 151
f 451 456 452
f 457 452 456
f 458 454 452
f 457 458 452
f 459 456 451
f 460 457 456
f 461 460 456
f 459 461 456
f 459 451 462
f 463 462 451
f 464 463 451
f 465 464 451
f 453 465 451
f 191 175 455
f 466 455 454
f 466 191 455
f 466 454 458
f 460 458 457
f 460 466 458
f 467 191 466
f 467 192 191
f 468 466 460
f 468 467 466
f 469 460 461
f 469 468 460
f 470 469 461
f 462 470 461
f 459 462 461
f 187 192 467
f 471 467 468
f 187 467 471
f 472 468 469
f 472 471 468
f 473 474 469
f 475 469 474
f 470 473 469
f 475 472 469
f 476 474 473
f 477 475 474
f 478 477 474
f 479 478 474
f 476 479 474
f 480 473 470
f 480 476 473
f 462 480 470
f 187 471 472
f 187 472 475
f 481 475 477
f 481 187 475
f 482 481 477
f 478 482 477
f 483 484 190
f 485 190 484
f 189 483 190
f 188 190 485
f 483 486 484
f 485 484 486
f 487 486 483
f 488 489 486
f 485 486 489
f 487 488 486
f 490 483 189
f 101 442 100
f 491 487 483
f 492 491 483
f 490 492 483
f 490 189 187
f 493 187 481
f 494 490 187
f 493 494 187
f 495 481 482
f 493 481 495
f 478 496 482
f 495 482 496
f 497 496 478
f 498 496 497
f 499 496 498
f 495 496 499
f 500 478 479
f 497 478 500
f 500 479 476
f 463 476 480
f 500 476 463
f 463 480 462
f 500 463 464
f 501 464 465
f 501 500 464
f 502 465 453
f 502 501 465
f 351 502 453
f 497 500 501
f 363 501 502
f 363 497 501
f 363 502 351
f 503 497 363
f 504 498 497
f 505 504 497
f 503 505 497
f 506 503 363
f 507 506 363
f 361 507 363
f 499 498 504
f 503 504 505
f 508 504 503
f 508 499 504
f 509 503 506
f 508 503 509
f 509 506 507
f 510 507 361
f 509 507 510
f 99 319 339
f 368 510 361
f 511 512 513
f 279 513 512
f 514 511 513
f 515 514 513
f 100 442 364
f 444 94 443
f 275 513 279
f 516 517 512
f 518 512 517
f 511 516 512
f 518 279 512
f 495 499 517
f 519 517 499
f 516 495 517
f 518 517 519
f 519 499 508
f 494 495 516
f 493 495 494
f 520 516 511
f 494 516 520
f 514 521 511
f 522 511 521
f 523 511 522
f 520 511 523
f 515 521 514
f 515 524 521
f 522 521 524
f 522 525 526
f 527 526 525
f 523 522 526
f 528 523 526
f 529 526 527
f 528 526 529
f 522 524 525
f 527 525 524
f 530 524 515
f 527 524 530
f 284 531 515
f 530 515 531
f 283 284 515
f 281 283 515
f 513 281 515
f 532 531 284
f 530 531 533
f 534 533 531
f 532 534 531
f 285 532 284
f 275 281 513
f 535 523 528
f 490 523 535
f 520 523 490
f 530 533 536
f 537 536 533
f 538 530 536
f 539 538 536
f 539 536 537
f 540 537 533
f 534 540 533
f 538 541 530
f 542 530 541
f 527 530 542
f 539 541 538
f 539 542 541
f 543 527 542
f 539 544 542
f 543 542 544
f 529 527 543
f 257 539 537
f 256 257 537
f 545 537 540
f 256 537 545
f 546 544 539
f 547 544 546
f 543 544 547
f 211 539 257
f 213 539 211
f 546 539 213
f 254 257 256
f 285 540 534
f 285 545 540
f 285 534 532
f 263 548 268
f 98 99 253
f 249 549 548
f 288 548 549
f 263 249 548
f 286 287 548
f 268 548 287
f 288 286 548
f 247 550 549
f 289 549 550
f 249 247 549
f 289 288 549
f 255 545 550
f 290 550 545
f 247 255 550
f 290 289 550
f 255 256 545
f 285 290 545
f 282 268 287
f 551 546 213
f 216 551 213
f 552 546 551
f 553 546 552
f 554 547 546
f 555 554 546
f 556 555 546
f 553 556 546
f 219 551 216
f 219 552 551
f 557 552 219
f 558 553 552
f 557 558 552
f 559 219 221
f 557 219 559
f 543 547 554
f 560 554 555
f 561 543 554
f 560 561 554
f 560 555 556
f 562 556 553
f 562 560 556
f 562 553 558
f 563 562 558
f 564 558 557
f 563 558 564
f 94 96 443
f 565 529 543
f 566 565 543
f 561 566 543
f 567 529 565
f 567 528 529
f 568 565 566
f 569 567 565
f 568 569 565
f 570 566 561
f 571 566 570
f 568 566 571
f 560 572 561
f 570 561 572
f 573 572 560
f 574 570 572
f 575 572 573
f 574 572 575
f 576 573 560
f 562 576 560
f 574 571 570
f 575 573 576
f 577 576 562
f 577 575 576
f 577 562 578
f 563 578 562
f 577 578 575
f 579 575 578
f 579 574 575
f 580 579 578
f 580 578 563
f 579 571 574
f 579 568 571
f 581 528 567
f 581 535 528
f 581 567 569
f 582 569 568
f 582 581 569
f 582 568 583
f 584 583 568
f 579 584 568
f 585 535 581
f 492 535 585
f 490 535 492
f 586 587 588
f 589 588 587
f 590 586 588
f 591 590 588
f 592 588 589
f 593 591 588
f 592 593 588
f 594 595 587
f 596 587 595
f 586 594 587
f 597 589 587
f 596 597 587
f 598 581 595
f 583 595 581
f 599 598 595
f 594 599 595
f 583 596 595
f 600 585 581
f 598 600 581
f 582 583 581
f 492 585 600
f 599 600 598
f 492 600 599
f 491 599 594
f 492 599 491
f 601 594 586
f 602 594 601
f 491 594 602
f 601 586 590
f 593 590 591
f 603 590 593
f 604 590 603
f 605 590 604
f 605 601 590
f 592 589 597
f 584 597 596
f 606 592 597
f 607 606 597
f 584 607 597
f 584 596 583
f 608 593 592
f 608 603 593
f 606 609 592
f 608 592 609
f 610 609 606
f 608 609 611
f 610 611 609
f 607 610 606
f 612 608 611
f 610 613 611
f 612 611 613
f 612 603 608
f 614 615 603
f 604 603 615
f 612 614 603
f 610 616 613
f 612 613 616
f 617 616 610
f 617 612 616
f 618 610 607
f 619 610 618
f 619 617 610
f 620 607 584
f 621 607 620
f 618 607 621
f 580 584 579
f 620 584 622
f 580 622 584
f 623 615 614
f 623 604 615
f 624 614 612
f 625 623 614
f 624 625 614
f 624 612 617
f 626 604 623
f 626 605 604
f 626 623 625
f 627 625 624
f 628 625 627
f 626 625 628
f 629 630 601
f 602 601 630
f 631 629 601
f 632 631 601
f 605 632 601
f 633 630 629
f 634 602 630
f 633 634 630
f 635 629 631
f 636 633 629
f 635 636 629
f 635 631 632
f 626 632 605
f 635 632 626
f 634 637 602
f 491 602 637
f 633 637 634
f 638 639 637
f 640 637 639
f 641 638 637
f 642 641 637
f 633 642 637
f 643 644 637
f 645 637 644
f 646 643 637
f 647 646 637
f 648 647 637
f 649 648 637
f 650 649 637
f 651 650 637
f 640 651 637
f 652 637 645
f 487 637 652
f 491 637 487
f 653 639 638
f 653 640 639
f 654 638 641
f 655 638 654
f 653 638 655
f 440 441 91
f 656 641 642
f 654 641 656
f 656 642 633
f 657 633 636
f 658 656 633
f 657 658 633
f 657 636 659
f 660 659 636
f 661 636 635
f 662 636 661
f 660 636 662
f 663 664 644
f 665 644 664
f 666 663 644
f 667 666 644
f 668 667 644
f 669 668 644
f 643 669 644
f 652 644 665
f 652 645 644
f 663 670 664
f 665 664 670
f 663 671 670
f 672 670 671
f 673 670 672
f 674 670 673
f 665 670 674
f 675 671 663
f 676 671 675
f 672 671 676
f 677 663 666
f 678 663 677
f 679 663 678
f 679 675 663
f 667 680 666
f 677 666 680
f 667 681 680
f 682 680 681
f 683 680 682
f 677 680 683
f 684 685 681
f 686 681 685
f 687 684 681
f 667 687 681
f 682 681 686
f 684 688 685
f 689 685 688
f 686 685 689
f 690 688 684
f 691 688 690
f 689 688 691
f 690 684 687
f 692 687 667
f 692 690 687
f 692 667 668
f 693 668 669
f 692 668 693
f 694 669 643
f 694 693 669
f 695 643 646
f 695 694 643
f 696 646 647
f 696 695 646
f 697 647 648
f 697 696 647
f 697 648 649
f 698 649 650
f 698 699 649
f 697 649 699
f 698 650 651
f 700 651 640
f 698 651 700
f 441 427 91
f 700 640 653
f 701 702 703
f 704 703 702
f 705 701 703
f 706 703 704
f 706 707 703
f 705 703 707
f 701 656 702
f 658 702 656
f 659 702 658
f 659 704 702
f 708 654 656
f 701 708 656
f 709 655 654
f 708 709 654
f 710 653 655
f 709 710 655
f 700 653 710
f 711 710 709
f 712 710 711
f 700 710 712
f 705 709 708
f 705 711 709
f 705 708 701
f 657 659 658
f 660 704 659
f 713 706 704
f 713 704 660
f 714 707 706
f 715 705 707
f 716 707 714
f 715 707 716
f 717 706 713
f 718 706 717
f 719 706 718
f 720 706 719
f 714 706 720
f 721 711 705
f 722 712 711
f 721 722 711
f 723 721 705
f 715 723 705
f 724 712 722
f 698 700 712
f 725 698 712
f 724 725 712
f 726 722 721
f 724 722 726
f 727 728 699
f 729 699 728
f 698 727 699
f 729 697 699
f 727 730 728
f 731 728 730
f 732 729 728
f 733 728 731
f 734 732 728
f 735 734 728
f 736 735 728
f 733 736 728
f 724 730 727
f 731 730 724
f 725 727 698
f 724 727 725
f 737 693 694
f 692 693 737
f 738 694 695
f 739 737 694
f 738 739 694
f 740 695 696
f 740 738 695
f 741 696 697
f 741 740 696
f 729 741 697
f 742 737 739
f 743 692 737
f 744 743 737
f 744 737 742
f 745 739 738
f 746 742 739
f 746 739 747
f 748 747 739
f 749 748 739
f 750 749 739
f 745 750 739
f 751 738 740
f 752 745 738
f 753 752 738
f 754 753 738
f 755 754 738
f 751 755 738
f 756 740 741
f 756 751 740
f 757 741 729
f 758 756 741
f 757 758 741
f 759 757 729
f 760 759 729
f 732 760 729
f 692 761 690
f 691 690 761
f 762 763 761
f 764 761 763
f 692 762 761
f 691 761 765
f 764 765 761
f 439 440 92
f 764 763 762
f 743 762 692
f 744 762 743
f 744 764 762
f 766 691 765
f 767 766 765
f 767 765 768
f 764 768 765
f 440 91 92
f 766 689 691
f 766 686 689
f 769 682 686
f 766 769 686
f 770 683 682
f 771 770 682
f 769 771 682
f 678 683 770
f 678 677 683
f 772 770 771
f 773 678 770
f 772 773 770
f 767 771 769
f 767 772 771
f 767 769 766
f 679 678 773
f 774 679 773
f 774 773 775
f 772 775 773
f 679 776 675
f 676 675 776
f 777 776 679
f 778 676 776
f 779 778 776
f 780 776 777
f 780 779 776
f 774 777 679
f 781 676 778
f 673 672 676
f 781 673 676
f 782 781 778
f 779 782 778
f 783 673 781
f 674 673 783
f 782 784 781
f 783 781 784
f 779 784 782
f 785 784 779
f 786 784 785
f 783 784 786
f 787 777 788
f 789 788 777
f 790 787 788
f 791 790 788
f 789 791 788
f 439 92 93
f 792 780 777
f 793 792 777
f 787 793 777
f 794 789 777
f 795 777 774
f 794 777 795
f 796 779 780
f 797 779 796
f 785 779 797
f 437 438 85
f 796 780 798
f 798 780 792
f 799 792 793
f 798 792 799
f 799 793 787
f 790 799 787
f 800 801 799
f 798 799 801
f 790 800 799
f 802 801 800
f 803 798 801
f 804 803 801
f 805 804 801
f 806 805 801
f 807 806 801
f 802 807 801
f 808 800 790
f 809 802 800
f 810 809 800
f 810 800 808
f 808 790 791
f 803 811 798
f 812 798 811
f 813 796 798
f 812 813 798
f 804 811 803
f 814 812 811
f 621 814 811
f 804 621 811
f 797 796 813
f 814 813 812
f 815 797 813
f 816 815 813
f 814 816 813
f 817 797 815
f 817 818 797
f 785 797 818
f 438 439 85
f 819 817 815
f 816 819 815
f 820 818 817
f 786 785 818
f 821 786 818
f 822 821 818
f 823 822 818
f 823 818 820
f 439 93 85
f 820 817 824
f 819 825 817
f 824 817 825
f 816 825 819
f 816 824 825
f 783 786 821
f 674 783 821
f 822 674 821
f 665 674 822
f 826 665 822
f 226 826 822
f 827 226 822
f 828 827 822
f 829 828 822
f 823 829 822
f 826 830 665
f 489 665 830
f 489 652 665
f 226 830 826
f 831 830 226
f 489 830 831
f 222 226 827
f 832 831 226
f 225 832 226
f 833 222 827
f 828 833 827
f 485 831 832
f 485 489 831
f 485 832 225
f 188 225 224
f 188 485 225
f 833 834 222
f 223 222 834
f 828 834 833
f 835 834 836
f 828 836 834
f 835 223 834
f 816 836 824
f 820 824 836
f 816 835 836
f 828 820 836
f 837 223 835
f 444 152 94
f 837 221 223
f 838 835 816
f 838 837 835
f 814 838 816
f 829 820 828
f 823 820 829
f 559 221 837
f 839 837 838
f 839 559 837
f 620 838 814
f 622 839 838
f 620 622 838
f 621 620 814
f 840 559 839
f 564 557 559
f 840 564 559
f 841 840 839
f 622 841 839
f 563 564 840
f 563 840 841
f 580 841 622
f 96 242 443
f 580 563 841
f 842 621 804
f 619 618 621
f 842 619 621
f 842 804 805
f 843 805 806
f 844 805 843
f 844 842 805
f 436 437 84
f 845 624 617
f 619 845 617
f 437 85 84
f 628 627 624
f 846 628 624
f 846 624 845
f 847 845 619
f 847 846 845
f 847 619 848
f 842 848 619
f 661 628 846
f 635 626 628
f 661 635 628
f 849 850 846
f 718 846 850
f 848 849 846
f 847 848 846
f 717 661 846
f 718 717 846
f 851 850 849
f 852 718 850
f 851 852 850
f 842 849 848
f 844 849 842
f 853 849 844
f 851 849 853
f 717 662 661
f 717 660 662
f 717 713 660
f 852 719 718
f 852 720 719
f 854 714 720
f 852 854 720
f 716 714 854
f 855 854 852
f 716 854 856
f 857 856 854
f 858 857 854
f 855 859 854
f 858 854 859
f 851 855 852
f 860 716 856
f 857 860 856
f 860 715 716
f 861 721 723
f 726 721 861
f 860 723 715
f 860 861 723
f 862 861 860
f 862 726 861
f 857 862 860
f 863 726 862
f 864 724 726
f 863 864 726
f 857 863 862
f 731 724 864
f 865 864 863
f 865 731 864
f 865 863 857
f 865 857 866
f 858 866 857
f 867 865 866
f 868 869 866
f 867 866 869
f 858 868 866
f 733 731 865
f 733 865 736
f 867 736 865
f 870 871 872
f 873 872 871
f 874 870 872
f 875 876 872
f 874 872 876
f 873 875 872
f 877 878 871
f 879 871 878
f 870 877 871
f 880 871 881
f 879 881 871
f 882 873 871
f 880 882 871
f 86 87 432
f 86 433 434
f 877 858 878
f 858 859 878
f 883 878 859
f 883 879 878
f 884 859 855
f 884 883 859
f 851 884 855
f 885 886 869
f 867 869 886
f 868 885 869
f 887 886 885
f 888 886 887
f 888 889 886
f 867 886 889
f 887 885 868
f 887 868 858
f 890 858 877
f 891 858 890
f 892 858 891
f 893 887 858
f 892 893 858
f 870 894 877
f 895 877 894
f 890 877 895
f 896 897 894
f 898 894 897
f 899 896 894
f 86 432 433
f 900 899 894
f 870 900 894
f 901 894 898
f 895 894 901
f 902 903 897
f 904 897 903
f 896 902 897
f 898 897 904
f 902 905 903
f 906 903 905
f 907 903 906
f 908 903 907
f 908 904 903
f 902 909 905
f 906 905 909
f 902 910 909
f 911 909 910
f 912 909 911
f 913 909 912
f 913 906 909
f 902 914 910
f 911 910 914
f 902 915 914
f 916 914 915
f 916 911 914
f 902 917 915
f 918 915 917
f 916 915 918
f 902 919 917
f 920 917 919
f 920 918 917
f 902 921 919
f 920 919 921
f 902 922 921
f 923 921 922
f 924 920 921
f 924 921 923
f 902 925 922
f 926 922 925
f 927 922 926
f 923 922 927
f 791 925 902
f 789 925 791
f 794 925 789
f 926 925 794
f 928 902 896
f 809 902 928
f 810 902 809
f 810 791 902
f 928 896 899
f 87 88 431
f 929 928 899
f 929 899 900
f 930 900 870
f 929 900 930
f 931 870 932
f 933 932 870
f 934 870 931
f 933 870 935
f 874 935 870
f 934 930 870
f 880 881 936
f 937 936 881
f 938 880 936
f 937 938 936
f 879 937 881
f 939 876 875
f 874 876 939
f 935 875 873
f 939 875 935
f 935 873 882
f 933 882 880
f 933 935 882
f 940 880 938
f 941 880 940
f 931 932 880
f 933 880 932
f 941 931 880
f 942 938 937
f 940 938 942
f 943 937 879
f 944 937 943
f 945 942 937
f 944 945 937
f 883 943 879
f 843 943 883
f 944 943 806
f 843 806 943
f 884 843 883
f 946 944 806
f 946 806 807
f 940 942 945
f 940 945 944
f 946 940 944
f 947 807 802
f 947 946 807
f 947 802 928
f 809 928 802
f 853 844 843
f 948 843 884
f 853 843 948
f 947 940 946
f 934 941 940
f 947 934 940
f 934 931 941
f 874 939 935
f 929 930 934
f 929 934 947
f 929 947 928
f 810 808 791
f 926 774 775
f 927 926 775
f 927 775 772
f 926 795 774
f 926 794 795
f 927 772 767
f 924 767 768
f 918 768 764
f 920 768 918
f 924 768 920
f 923 927 767
f 924 923 767
f 949 918 764
f 949 764 744
f 916 918 949
f 744 742 911
f 912 911 742
f 949 744 911
f 916 949 911
f 912 742 746
f 912 746 747
f 950 912 747
f 951 747 748
f 952 950 747
f 951 952 747
f 950 913 912
f 951 748 749
f 951 749 750
f 953 750 745
f 953 951 750
f 954 745 752
f 954 953 745
f 955 752 753
f 955 954 752
f 955 753 754
f 956 754 755
f 957 754 956
f 955 754 957
f 958 755 751
f 956 755 958
f 959 751 756
f 960 751 959
f 961 751 960
f 962 958 751
f 963 962 751
f 964 963 751
f 961 964 751
f 965 756 758
f 959 756 965
f 757 966 758
f 967 758 966
f 965 758 967
f 968 966 757
f 969 966 968
f 970 966 969
f 971 966 970
f 972 966 971
f 973 966 972
f 974 966 973
f 975 966 974
f 967 966 975
f 968 757 759
f 976 759 760
f 87 431 432
f 976 968 759
f 977 760 732
f 977 976 760
f 977 732 734
f 978 734 735
f 978 977 734
f 978 735 736
f 979 978 736
f 867 979 736
f 907 906 913
f 980 913 950
f 908 907 913
f 980 908 913
f 953 950 952
f 980 950 953
f 953 952 951
f 890 981 982
f 983 982 981
f 984 890 982
f 985 984 982
f 986 982 983
f 89 90 429
f 986 985 982
f 890 987 981
f 983 981 987
f 895 988 987
f 989 987 988
f 890 895 987
f 989 983 987
f 895 990 988
f 989 988 990
f 901 991 990
f 992 990 991
f 895 901 990
f 992 989 990
f 898 993 991
f 992 991 993
f 901 898 991
f 898 994 993
f 995 993 994
f 995 992 993
f 996 997 994
f 995 994 997
f 998 996 994
f 999 998 994
f 1000 999 994
f 904 1000 994
f 898 904 994
f 1001 997 996
f 1002 995 997
f 1001 1002 997
f 90 428 429
f 1003 996 998
f 1003 1001 996
f 1003 998 999
f 1004 999 1000
f 1003 999 1004
f 1004 1000 904
f 980 904 908
f 1004 904 980
f 1005 891 890
f 984 1005 890
f 1006 891 1005
f 1007 892 891
f 1007 891 1006
f 1008 1005 984
f 1006 1005 1008
f 1008 984 985
f 888 887 893
f 889 893 892
f 888 893 889
f 889 892 1007
f 1009 983 989
f 1009 986 983
f 1010 989 992
f 1011 989 1012
f 1010 1012 989
f 91 426 90
f 1013 989 1011
f 1014 989 1013
f 1009 989 1014
f 1015 992 995
f 1016 992 1015
f 1010 992 1016
f 1017 995 1002
f 1015 995 1017
f 90 426 428
f 1018 1017 1002
f 1019 1018 1002
f 1020 1019 1002
f 1021 1020 1002
f 1022 1021 1002
f 1023 1022 1002
f 1001 1023 1002
f 89 430 431
f 84 86 435
f 969 968 985
f 1008 985 968
f 986 969 985
f 88 89 431
f 1008 968 976
f 424 425 81
f 425 410 81
f 1024 969 986
f 1024 970 969
f 86 434 435
f 1009 1024 986
f 1006 976 977
f 1006 1008 976
f 1006 977 978
f 979 1006 978
f 979 1007 1006
f 867 1007 979
f 867 889 1007
f 1025 1026 1027
f 1010 1027 1026
f 1025 1027 967
f 1028 967 1027
f 1029 1028 1027
f 1010 1029 1027
f 1025 1030 1026
f 1010 1026 1030
f 1031 1032 1030
f 1010 1030 1032
f 1025 1031 1030
f 1033 1034 1032
f 1010 1032 1034
f 1031 1033 1032
f 423 424 82
f 424 81 82
f 1033 1035 1034
f 1035 1036 1034
f 1037 1034 1036
f 1010 1034 1037
f 1038 1039 1036
f 1040 1036 1039
f 1035 1038 1036
f 1040 1037 1036
f 967 1041 1039
f 1042 1039 1041
f 1043 967 1039
f 1038 1043 1039
f 1042 1040 1039
f 974 1044 1041
f 1011 1041 1044
f 975 974 1041
f 967 975 1041
f 1012 1042 1041
f 1011 1012 1041
f 973 1045 1044
f 1046 1044 1045
f 974 973 1044
f 1046 1011 1044
f 972 970 1045
f 1047 1045 970
f 973 972 1045
f 1047 1046 1045
f 972 971 970
f 1024 1047 970
f 1038 967 1043
f 1035 967 1038
f 1033 967 1035
f 1031 967 1033
f 1025 967 1031
f 965 967 1028
f 1010 1037 1040
f 1010 1040 1042
f 1010 1042 1012
f 427 426 91
f 1014 1046 1047
f 1013 1011 1046
f 1014 1013 1046
f 1014 1047 1024
f 1009 1014 1024
f 965 1028 1048
f 1049 1048 1028
f 959 965 1048
f 1050 959 1048
f 1051 1050 1048
f 1049 1051 1048
f 1029 1049 1028
f 1052 960 959
f 1053 1052 959
f 1054 1053 959
f 1055 1054 959
f 1056 1055 959
f 1057 1056 959
f 1058 1057 959
f 1050 1058 959
f 1059 960 1052
f 1059 961 960
f 1060 1052 1053
f 1060 1059 1052
f 1061 1053 1054
f 1061 1060 1053
f 1062 1054 1055
f 1061 1054 1062
f 1063 1055 1056
f 1064 1055 1063
f 1062 1055 1064
f 1065 1056 1057
f 1063 1056 1065
f 1065 1057 1058
f 1051 1058 1050
f 1015 1058 1051
f 1017 1065 1058
f 1015 1017 1058
f 1066 958 962
f 423 82 83
f 1066 956 958
f 1067 962 963
f 1067 1066 962
f 1068 963 964
f 1068 1067 963
f 1068 964 961
f 1059 1068 961
f 1016 1051 1049
f 1016 1015 1051
f 1016 1049 1029
f 1010 1016 1029
f 1017 1063 1065
f 1017 1064 1063
f 1017 1062 1064
f 422 423 74
f 423 83 74
f 1017 1069 1062
f 1061 1062 1069
f 1017 1070 1069
f 1061 1069 1070
f 1060 1070 1017
f 1061 1070 1060
f 436 84 435
f 1059 1017 1018
f 1060 1017 1059
f 1071 1018 1019
f 1059 1018 1068
f 1071 1068 1018
f 1071 1019 1020
f 1072 1020 1021
f 1071 1020 1072
f 1073 1021 1022
f 1072 1021 1073
f 1023 1073 1022
f 421 422 74
f 1023 956 1066
f 957 956 1023
f 420 421 73
f 1072 1066 1067
f 1073 1023 1066
f 1072 1073 1066
f 1071 1067 1068
f 1071 1072 1067
f 75 417 418
f 75 76 416
f 1001 957 1023
f 89 429 430
f 421 74 73
f 955 957 1001
f 1003 955 1001
f 1004 953 954
f 1004 980 953
f 1003 954 955
f 1003 1004 954
f 851 948 884
f 851 853 948
f 488 652 489
f 487 652 488
f 146 442 101
f 494 520 490
f 518 277 276
f 1074 278 277
f 518 1074 277
f 518 276 279
f 368 292 274
f 367 292 368
f 294 292 367
f 368 274 272
f 510 272 278
f 368 272 510
f 1074 510 278
f 1074 509 510
f 519 509 1074
f 519 508 509
f 518 519 1074
f 372 294 367
f 394 294 372
f 394 296 294
f 400 299 301
f 304 299 400
f 392 301 296
f 397 400 301
f 392 397 301
f 394 392 296
f 399 304 400
f 402 304 399
f 402 303 304
f 315 307 309
f 401 309 303
f 404 315 309
f 401 404 309
f 402 401 303
f 75 418 419
f 73 75 419
f 420 73 419
f 80 409 411
f 81 409 80
f 410 409 81
f 80 411 413
f 79 413 414
f 79 80 413
f 79 414 415
f 76 415 416
f 78 79 415
f 76 78 415
f 75 416 417

