# https://github.com/mikedh/trimesh
v 1.55405451 25.26764866 -52.06552211
v 1.55405451 25.26764866 -36.40928333
v 1.55405451 25.88159160 -52.06992679
v 2.16841095 25.26764866 -51.99506894
v 21.60548698 25.26764866 -29.59283795
v 1.55405451 25.43701099 -36.40928333
v 1.55405451 26.23090185 -52.07213092
v 3.62346282 25.26764866 -51.82333708
v 42.82904397 25.26764866 -29.59283795
v 21.60548698 25.48993897 -29.59283795
v 21.60952849 117.91981610 -29.59283795
v 21.61761331 119.61344657 -29.59283795
v 1.55405451 120.33323826 -36.58101160
v 1.55405451 35.88459591 -52.07873253
v 3.62346282 52.77855826 -51.92461576
v 3.62346282 50.36513429 -51.92241523
v 3.62346282 47.95171033 -51.91801055
v 3.62346282 45.53828816 -51.90920481
v 9.27391696 25.26764866 -50.99329915
v 6.03642474 79.31562817 -51.70004222
v 42.80479490 25.26764866 -29.63026688
v 42.84521361 125.14949700 -29.59283795
v 21.62165482 120.33323826 -29.59283795
v 22.49064443 122.74666043 -29.59283795
v 1.55405451 120.61903495 -36.63825795
v 1.55405451 43.12486600 -52.08313721
v 3.62346282 62.43225051 -51.92681630
v 6.03642474 93.78558186 -51.73967348
v 6.03642474 88.95873573 -51.73526881
v 6.03642474 86.54531356 -51.72866720
v 6.03642474 84.13188960 -51.71985785
v 12.04660034 45.07253996 -50.66965105
v 11.91322058 35.88459591 -50.64983542
v 11.80409169 28.64432402 -50.63442446
v 11.02806403 25.26764866 -50.73349902
v 8.44938756 86.54531356 -51.37639413
v 8.44938756 93.78558186 -51.40721604
v 42.43698862 25.26764866 -30.16307755
v 42.43698862 26.23090185 -30.16307755
v 42.42082258 129.97634133 -30.16307755
v 42.84117210 129.97634133 -29.59283795
v 22.49872746 122.75724602 -29.59283795
v 1.55405451 122.71490364 -37.08960557
v 1.55405451 47.95171033 -52.08313721
v 3.62346282 86.54531356 -51.92681630
v 6.03642474 122.74666043 -51.74187402
v 8.44938756 105.85269808 -51.42923581
v 8.44938756 98.61242799 -51.42263060
v 8.44938756 96.19900582 -51.41602539
v 12.09914448 50.36513429 -50.68065734
v 13.27531141 26.23090185 -50.37462434
v 12.36994550 25.26764866 -50.52434003
v 11.77175781 26.23090185 -50.62781925
v 11.75558996 25.26764866 -50.62561512
v 41.30124130 25.26764866 -31.68224707
v 41.26486410 122.74666043 -31.63380646
v 41.26082259 129.97634133 -31.63160593
v 41.17998518 131.53236626 -31.54353766
v 42.44911316 131.10895685 -29.59283795
v 23.64256140 124.23917179 -29.59283795
v 30.56214442 130.54794189 -29.59283795
v 31.98486420 131.78641335 -29.59283795
v 32.53050775 132.20982277 -29.59283795
v 1.55405451 124.65199561 -38.11779620
v 1.55405451 50.36513429 -52.08093667
v 3.62346282 88.95873573 -51.92241523
v 6.03642474 127.56291917 -51.73747294
v 8.44938756 127.56291917 -51.42703167
v 8.44938756 125.14949700 -51.42923581
v 12.14764621 60.01882835 -50.69607189
v 12.15168772 57.60540438 -50.69386776
v 12.11935293 52.77855826 -50.68506201
v 13.27531141 35.88459591 -50.37682487
v 15.68827423 26.23090185 -49.68769689
v 13.27531141 25.26764866 -50.37021966
v 36.72995063 25.26764866 -36.79677939
v 38.93678110 129.97634133 -34.13933481
v 38.82361160 131.61705102 -34.02044463
v 39.70472575 132.09338122 -32.43962769
v 41.71754930 131.98753246 -30.16307755
v 34.28465302 129.97634133 -39.15479258
v 41.90751471 132.11455241 -29.59283795
v 34.98792989 133.19423995 -29.59283795
v 1.55405451 131.95577568 -42.88446373
v 1.55405451 130.41033634 -41.85186842
v 1.55405451 130.14571085 -41.67793243
v 1.55405451 52.77855826 -52.07433146
v 3.62346282 91.37215790 -51.91581002
v 6.03642474 129.97634133 -51.73086773
v 8.44938756 129.97634133 -51.42042646
v 12.13552077 62.43225051 -50.69166722
v 13.35614792 60.01882835 -50.34820350
v 13.35614792 57.60540438 -50.35260457
v 13.34402249 55.19198222 -50.35700924
v 13.32381314 52.77855826 -50.36361445
v 10.62792476 103.43927591 -50.95146735
v 18.06081745 45.53828816 -48.77399177
v 18.04869291 43.12486600 -48.76959069
v 17.97998183 28.64432402 -48.73876518
v 15.68827423 25.26764866 -49.68329222
v 15.68827423 33.47117554 -49.68769689
v 19.52799565 101.02585375 -48.35126552
v 19.51587112 98.61242799 -48.34906499
v 19.50778630 96.19900582 -48.34466391
v 36.03071887 25.26764866 -37.52333810
v 36.47127235 131.69114299 -36.49514747
v 34.11489877 131.75465656 -38.97205444
v 37.32409591 132.18865158 -34.89011382
v 39.81385374 133.09897679 -30.16307755
v 32.99127238 122.74666043 -40.36132029
v 32.98723087 125.14949700 -40.36132029
v 32.97510634 129.97634133 -40.36132029
v 35.56590913 25.26764866 -38.00330710
v 34.36144893 72.07535853 -39.15919725
v 39.81385374 133.16248316 -29.59283795
v 37.40089182 133.39535906 -29.59283795
v 34.98792989 133.32126709 -30.16307755
v 1.55405451 133.06722000 -44.63921307
v 1.55405451 62.43225051 -52.04130541
v 1.55405451 88.95873573 -51.94663193
v 1.55405451 93.43626981 -51.92902044
v 3.62346282 120.33323826 -51.79691624
v 1.55405451 79.31562817 -51.98185852
v 3.62346282 129.97634133 -51.75728857
v 6.03642474 132.17806598 -51.20025760
v 8.44938756 131.97694687 -51.04394029
v 10.16715744 131.57470864 -50.81936675
v 10.43391785 129.97634133 -50.89642513
v 10.45008479 127.56291917 -50.90303034
v 10.50262803 120.33323826 -50.91844130
v 10.55517217 113.09296458 -50.93385585
v 10.57538062 110.67954241 -50.93825693
v 13.27531141 79.31562817 -50.29096074
v 15.68827423 64.83508888 -49.65467084
v 10.52283738 117.91981610 -50.92284597
v 11.80005018 108.26612025 -50.59479320
v 13.27531141 98.61242799 -50.20949768
v 15.68827423 62.43225051 -49.66127605
v 15.68827423 52.77855826 -49.68108808
v 15.68827423 47.95171033 -49.68549275
v 20.51419807 28.64432402 -47.62030574
v 19.44716003 84.13188960 -48.32264415
v 19.40269982 74.48878114 -48.30282852
v 19.37036593 67.24851195 -48.28741756
v 23.47280535 25.26764866 -46.29928893
v 19.17231570 26.23090185 -48.20155343
v 17.96381399 25.26764866 -48.72995943
v 19.52799565 103.43927591 -48.35126552
v 20.72033132 108.26612025 -47.84047461
v 20.72841434 105.85269808 -47.83606994
v 20.73245586 101.02585375 -47.82506365
v 20.72437283 98.61242799 -47.82065898
v 31.63322397 131.58529424 -41.19356235
v 32.49008905 132.20982277 -39.79108248
v 34.94751119 132.27332914 -37.34059635
v 37.40089182 133.17306876 -32.57613296
v 33.01148353 108.26612025 -40.35911975
v 31.80298182 108.26612025 -41.33006763
v 31.79894031 113.09296458 -41.32125828
v 31.79085728 117.91981610 -41.31025200
v 31.77872916 125.14949700 -41.29263691
v 31.77468764 127.56291917 -41.28603170
v 31.76660462 129.97634133 -41.28163062
v 34.83838320 25.26764866 -38.65500796
v 34.36144893 55.19198222 -39.13277642
v 34.36144893 69.66193501 -39.15699312
v 37.40089182 133.39535906 -30.16307755
v 30.16200605 133.40594466 -37.40224378
v 1.55405451 133.39535906 -47.05226848
v 1.55405451 98.26311774 -51.90920481
v 1.55405451 127.56291917 -51.78811049
v 1.55405451 129.63761668 -51.77930474
v 1.55405451 129.97634133 -51.77710061
v 1.55405451 132.19923717 -51.22227736
v 6.03642474 133.28951030 -49.46532389
v 8.44938756 133.08839119 -49.46532389
v 15.68827423 132.13572360 -48.81582356
v 18.10123615 131.65938621 -48.46795876
v 19.37440744 131.25715517 -48.28081235
v 11.63837715 129.97634133 -50.54855674
v 13.27531141 127.56291917 -50.08620283
v 15.68827423 125.14949700 -49.39927538
v 15.68827423 117.91981610 -49.43009730
v 15.68827423 84.13188960 -49.57320778
v 18.10123615 110.67954241 -48.76298188
v 18.10123615 105.85269808 -48.78280111
v 18.10123615 103.43927591 -48.79160686
v 19.51991263 105.85269808 -48.34686445
v 20.61120153 74.48878114 -47.77002143
v 24.31754410 26.23090185 -45.92940437
v 24.30945928 25.26764866 -45.92720383
v 20.51419807 25.26764866 -47.60489478
v 19.70583652 25.26764866 -47.96156893
v 20.63545240 127.56291917 -47.85368503
v 20.65970326 122.74666043 -47.85148449
v 20.67182959 120.33323826 -47.84928036
v 20.70012197 113.09296458 -47.84487569
v 22.92311849 110.67954241 -46.74183080
v 24.43879842 72.07535853 -46.02407784
v 24.43879842 69.66193501 -46.01967317
v 22.92311849 72.07535853 -46.73522559
v 22.92311849 69.66193501 -46.72641625
v 22.92311849 64.83508888 -46.70660062
v 24.19224826 131.29949036 -45.88536844
v 27.11447834 131.80758454 -43.78495483
v 30.16200605 132.02987484 -41.64711051
v 30.16200605 133.13073357 -39.81530279
v 32.57496797 133.26833911 -37.40224378
v 34.98792989 133.22599673 -34.98918837
v 33.00340051 103.43927591 -40.36132029
v 31.80298182 105.85269808 -41.33226817
v 28.90500081 52.77855826 -43.39965931
v 30.16200605 122.74666043 -42.31422233
v 30.16200605 129.97634133 -42.28119628
v 28.89691778 55.19198222 -43.39525464
v 30.16200605 108.26612025 -42.38027443
v 34.35740742 25.26764866 -39.07993474
v 34.36144893 31.05774618 -39.09094462
v 34.36144893 33.47117554 -39.09534929
v 32.99935541 101.02585375 -40.36132029
v 27.74904233 133.38477347 -39.81530279
v 20.51419807 133.37418787 -44.63921307
v 22.92311849 133.39535906 -42.22615406
v 18.10123615 133.39535906 -44.63921307
v 10.86234949 133.39535906 -47.05226848
v 1.55405451 133.38477347 -47.40013687
v 1.55405451 133.30009590 -49.46532389
v 13.27531141 133.37418787 -47.05226848
v 15.68827423 133.24716792 -47.05226848
v 18.10123615 132.77083772 -47.05226848
v 20.31210814 132.09338122 -47.12932686
v 22.92311849 131.79699894 -46.27286809
v 20.62332786 129.97634133 -47.84928036
v 19.41482615 129.97634133 -48.29622331
v 18.10123615 129.97634133 -48.67931829
v 13.27531141 129.97634133 -50.07519295
v 18.10123615 125.14949700 -48.70133805
v 18.10123615 117.91981610 -48.73215997
v 19.43099219 127.56291917 -48.30062798
v 19.46332788 120.33323826 -48.31603894
v 19.49566176 113.09296458 -48.33145349
v 24.34987798 33.47117554 -45.94481532
v 25.51796279 25.26764866 -45.38338327
v 24.79043506 25.26764866 -45.71143604
v 22.92311849 129.97634133 -46.70440008
v 22.92311849 127.56291917 -46.71320583
v 22.92311849 122.74666043 -46.72201517
v 22.92311849 120.33323826 -46.72641625
v 24.43475691 74.48878114 -46.02187371
v 27.69649909 50.36513429 -44.14603365
v 27.68841607 45.53828816 -44.15703994
v 27.66820671 35.88459591 -44.17685556
v 25.58263056 40.71144383 -45.37457752
v 25.56646452 35.88459591 -45.38338327
v 25.55837970 33.47117554 -45.38338327
v 24.43071540 64.83508888 -46.01086742
v 24.36200431 35.88459591 -45.94922000
v 24.22862366 129.97634133 -45.90738820
v 25.12994896 132.07221003 -44.60838756
v 22.92311849 132.89785767 -44.63921307
v 25.33608041 133.31068149 -42.22615406
v 32.96702332 86.54531356 -40.36352442
v 32.93468763 72.07535853 -40.36572496
v 31.75448009 84.13188960 -41.31905775
v 28.90500081 50.36513429 -43.39965931
v 27.69649909 52.77855826 -44.13942844
v 28.82416519 74.48878114 -43.35342284
v 27.59949563 79.31562817 -44.07998155
v 27.56312023 88.95873573 -44.05796538
v 27.67224823 60.01882835 -44.12401389
v 27.68841607 55.19198222 -44.13502377
v 33.43991607 25.26764866 -39.80649344
v 32.91852159 64.83508888 -40.35471508
v 26.36674305 25.26764866 -44.90341427
v 24.26500086 120.33323826 -45.92940437
v 24.37412885 91.37215790 -45.99545647
v 24.41050604 81.71846564 -46.01086742
v 24.41858907 79.31562817 -46.01527210
v 24.42667209 76.90220510 -46.01967317
v 27.66416520 33.47117554 -44.17685556
v 27.64799736 25.26764866 -44.17685556
v 25.57050603 93.78558186 -45.25348321
v 31.71810289 67.24851195 -41.29043637
v 30.16200605 43.12486600 -42.41109634
v 30.16200605 50.36513429 -42.43531665
v 28.90095930 47.95171033 -43.39525464
v 25.64325862 74.48878114 -45.29751914
v 32.82960115 25.26764866 -40.28646244
v 32.83768417 28.64432402 -40.29306765
v 32.88618590 50.36513429 -40.33049837
v 28.12897314 25.26764866 -43.85100693
v 30.16200605 25.26764866 -42.34944892
v 28.85649908 26.23090185 -43.36002805
v 28.85245757 25.26764866 -43.35782752
v 29.37385205 25.26764866 -42.95711744
f 1 2 6
f 1 6 13
f 1 13 25
f 1 25 43
f 1 43 64
f 1 64 86
f 1 86 85
f 1 85 84
f 1 84 118
f 1 118 169
f 1 169 226
f 1 226 227
f 1 227 174
f 1 174 173
f 1 173 172
f 1 172 171
f 1 171 170
f 1 170 121
f 1 121 120
f 1 120 123
f 1 123 119
f 1 119 87
f 1 87 65
f 1 65 44
f 1 44 26
f 1 26 14
f 1 14 7
f 1 7 3
f 1 3 4
f 1 4 8
f 1 8 19
f 1 19 35
f 1 35 54
f 1 54 52
f 1 52 75
f 1 75 100
f 1 100 147
f 1 147 193
f 1 193 192
f 1 192 145
f 1 145 191
f 1 191 244
f 1 244 243
f 1 243 274
f 1 274 281
f 1 281 291
f 1 291 294
f 1 294 295
f 1 295 292
f 1 292 288
f 1 288 272
f 1 272 217
f 1 217 164
f 1 164 113
f 1 113 105
f 1 105 76
f 1 76 55
f 1 55 38
f 1 38 21
f 1 21 9
f 1 9 5
f 1 5 2
f 2 5 10
f 2 10 6
f 3 7 4
f 4 7 8
f 5 9 22
f 5 22 41
f 5 41 59
f 5 59 82
f 5 82 115
f 5 115 116
f 5 116 83
f 5 83 63
f 5 63 62
f 5 62 61
f 5 61 60
f 5 60 42
f 5 42 24
f 5 24 23
f 5 23 12
f 5 12 11
f 5 11 10
f 6 10 11
f 6 11 12
f 6 12 13
f 7 14 15
f 7 15 16
f 7 16 17
f 7 17 18
f 7 18 8
f 8 18 20
f 8 20 19
f 9 21 22
f 12 23 13
f 13 23 24
f 13 24 25
f 14 26 15
f 15 26 27
f 15 27 28
f 15 28 29
f 15 29 16
f 16 29 17
f 17 29 30
f 17 30 31
f 17 31 18
f 18 31 20
f 19 32 33
f 19 33 34
f 19 34 35
f 19 20 36
f 19 36 32
f 20 31 37
f 20 37 36
f 21 38 22
f 22 38 39
f 22 39 40
f 22 40 41
f 24 42 43
f 24 43 25
f 26 44 45
f 26 45 27
f 27 45 46
f 27 46 28
f 28 46 47
f 28 47 48
f 28 48 29
f 29 48 49
f 29 49 30
f 30 49 37
f 30 37 31
f 32 50 51
f 32 51 52
f 32 52 33
f 32 36 37
f 32 37 49
f 32 49 50
f 33 52 34
f 34 52 53
f 34 53 35
f 35 53 54
f 38 55 39
f 39 55 40
f 40 56 57
f 40 57 58
f 40 58 41
f 40 55 56
f 41 58 59
f 42 60 43
f 43 60 61
f 43 61 62
f 43 62 63
f 43 63 64
f 44 65 45
f 45 66 67
f 45 67 46
f 45 65 66
f 46 67 68
f 46 68 69
f 46 69 47
f 47 69 70
f 47 70 71
f 47 71 48
f 48 71 49
f 49 71 72
f 49 72 50
f 50 72 51
f 51 73 74
f 51 74 100
f 51 100 75
f 51 75 52
f 51 72 71
f 51 71 70
f 51 70 73
f 52 54 53
f 55 76 56
f 56 76 57
f 57 77 58
f 57 76 77
f 58 78 79
f 58 79 80
f 58 80 59
f 58 77 81
f 58 81 78
f 59 80 82
f 63 83 84
f 63 84 85
f 63 85 86
f 63 86 64
f 65 87 88
f 65 88 66
f 66 88 89
f 66 89 67
f 67 89 90
f 67 90 68
f 68 90 70
f 68 70 69
f 70 91 92
f 70 92 93
f 70 93 94
f 70 94 95
f 70 95 73
f 70 90 96
f 70 96 91
f 73 95 74
f 74 97 98
f 74 98 99
f 74 99 100
f 74 95 101
f 74 101 148
f 74 148 102
f 74 102 103
f 74 103 104
f 74 104 97
f 76 105 81
f 76 81 77
f 78 81 106
f 78 106 79
f 79 106 107
f 79 107 108
f 79 108 109
f 79 109 80
f 80 109 82
f 81 110 111
f 81 111 112
f 81 112 107
f 81 107 106
f 81 105 113
f 81 113 114
f 81 114 110
f 82 109 115
f 83 116 117
f 83 117 118
f 83 118 84
f 87 119 88
f 88 120 121
f 88 121 170
f 88 170 122
f 88 122 89
f 88 119 123
f 88 123 120
f 89 122 124
f 89 124 125
f 89 125 126
f 89 126 90
f 90 126 127
f 90 127 128
f 90 128 129
f 90 129 130
f 90 130 131
f 90 131 132
f 90 132 96
f 91 133 134
f 91 134 92
f 91 96 132
f 91 132 135
f 91 135 136
f 91 136 137
f 91 137 133
f 92 134 138
f 92 138 139
f 92 139 93
f 93 139 140
f 93 140 94
f 94 140 95
f 95 140 101
f 97 104 142
f 97 142 98
f 98 141 99
f 98 142 143
f 98 143 152
f 98 152 144
f 98 144 141
f 99 141 145
f 99 145 146
f 99 146 147
f 99 147 100
f 101 140 148
f 102 148 149
f 102 149 150
f 102 150 151
f 102 151 103
f 103 151 152
f 103 152 104
f 104 152 142
f 107 112 153
f 107 153 154
f 107 154 155
f 107 155 108
f 108 155 109
f 109 155 156
f 109 156 115
f 110 157 158
f 110 158 111
f 110 114 157
f 111 158 112
f 112 158 159
f 112 159 160
f 112 160 161
f 112 161 162
f 112 162 163
f 112 163 153
f 113 164 165
f 113 165 166
f 113 166 114
f 114 166 157
f 115 156 167
f 115 167 116
f 116 167 168
f 116 168 169
f 116 169 117
f 117 169 118
f 122 170 124
f 124 171 172
f 124 172 173
f 124 173 125
f 124 170 171
f 125 174 175
f 125 175 176
f 125 176 126
f 125 173 174
f 126 176 177
f 126 177 178
f 126 178 127
f 127 178 179
f 127 179 128
f 128 179 180
f 128 180 129
f 129 180 181
f 129 181 182
f 129 182 183
f 129 183 137
f 129 137 136
f 129 136 135
f 129 135 130
f 130 135 132
f 130 132 131
f 133 137 184
f 133 184 134
f 134 184 185
f 134 185 186
f 134 186 187
f 134 187 188
f 134 188 148
f 134 148 138
f 137 183 184
f 138 148 139
f 139 148 140
f 141 144 189
f 141 189 145
f 142 152 143
f 144 152 189
f 145 190 191
f 145 192 146
f 145 189 152
f 145 152 190
f 146 192 193
f 146 193 147
f 148 188 194
f 148 194 195
f 148 195 196
f 148 196 197
f 148 197 149
f 149 197 198
f 149 198 199
f 149 199 150
f 150 199 200
f 150 200 151
f 151 200 201
f 151 201 152
f 152 201 202
f 152 202 203
f 152 203 190
f 153 204 205
f 153 205 206
f 153 206 154
f 153 163 204
f 154 207 208
f 154 208 155
f 154 206 207
f 155 208 209
f 155 209 156
f 156 209 167
f 157 210 211
f 157 211 158
f 157 166 210
f 158 211 212
f 158 212 159
f 159 212 160
f 160 212 161
f 161 212 162
f 162 212 215
f 162 215 163
f 163 213 214
f 163 214 204
f 163 215 216
f 163 216 213
f 164 217 218
f 164 218 219
f 164 219 165
f 165 219 220
f 165 220 166
f 166 220 210
f 167 209 208
f 167 208 168
f 168 208 221
f 168 221 222
f 168 222 223
f 168 223 224
f 168 224 225
f 168 225 169
f 169 225 226
f 174 227 175
f 175 227 225
f 175 225 228
f 175 228 229
f 175 229 176
f 176 229 177
f 177 229 230
f 177 230 231
f 177 231 178
f 178 232 179
f 178 231 232
f 179 232 204
f 179 204 233
f 179 233 234
f 179 234 235
f 179 235 236
f 179 236 180
f 180 236 181
f 181 236 235
f 181 235 237
f 181 237 182
f 182 237 238
f 182 238 183
f 183 238 185
f 183 185 184
f 185 238 234
f 185 234 186
f 186 234 239
f 186 239 187
f 187 239 240
f 187 240 241
f 187 241 188
f 188 241 194
f 190 203 242
f 190 242 243
f 190 243 244
f 190 244 191
f 194 241 233
f 194 233 245
f 194 245 246
f 194 246 195
f 195 246 247
f 195 247 248
f 195 248 198
f 195 198 196
f 196 198 197
f 198 248 199
f 199 249 250
f 199 250 251
f 199 251 252
f 199 252 253
f 199 253 254
f 199 254 255
f 199 255 200
f 199 248 249
f 200 256 201
f 200 255 243
f 200 243 256
f 201 256 243
f 201 243 257
f 201 257 202
f 202 257 242
f 202 242 203
f 204 232 205
f 204 214 258
f 204 258 245
f 204 245 233
f 205 259 206
f 205 232 259
f 206 259 260
f 206 260 207
f 207 260 261
f 207 261 208
f 208 261 221
f 210 220 211
f 211 220 262
f 211 262 263
f 211 263 264
f 211 264 265
f 211 265 212
f 212 265 252
f 212 252 251
f 212 251 250
f 212 250 266
f 212 266 271
f 212 271 215
f 213 216 267
f 213 267 214
f 214 268 269
f 214 269 258
f 214 267 270
f 214 270 268
f 215 271 270
f 215 270 267
f 215 267 216
f 217 272 273
f 217 273 263
f 217 263 218
f 218 263 219
f 219 263 262
f 219 262 220
f 221 261 222
f 222 224 223
f 222 261 260
f 222 260 230
f 222 230 229
f 222 229 228
f 222 228 225
f 222 225 224
f 225 227 226
f 230 260 231
f 231 260 232
f 232 260 259
f 233 241 240
f 233 240 239
f 233 239 234
f 234 238 237
f 234 237 235
f 242 257 243
f 243 255 274
f 245 258 275
f 245 275 276
f 245 276 277
f 245 277 278
f 245 278 279
f 245 279 246
f 246 279 249
f 246 249 247
f 247 249 248
f 249 279 266
f 249 266 250
f 252 265 280
f 252 280 254
f 252 254 253
f 254 280 281
f 254 281 255
f 255 281 274
f 258 269 282
f 258 282 275
f 263 273 264
f 264 273 283
f 264 283 284
f 264 284 285
f 264 285 286
f 264 286 265
f 265 286 281
f 265 281 280
f 266 279 287
f 266 287 271
f 268 282 269
f 268 270 287
f 268 287 282
f 270 271 287
f 272 288 289
f 272 289 290
f 272 290 273
f 273 290 284
f 273 284 283
f 275 282 287
f 275 287 276
f 276 287 277
f 277 287 278
f 278 287 279
f 281 286 291
f 284 289 292
f 284 292 293
f 284 293 285
f 284 290 289
f 285 293 286
f 286 293 291
f 288 292 289
f 291 293 294
f 292 295 293
f 293 295 294

