# https://github.com/mikedh/trimesh
v 1.20829137 20.83154367 -52.28004222
v 1.20829137 25.26722078 -52.10662040
v 2.01060414 20.83154367 -52.25490862
v -1.20399457 20.83154367 -52.26496206
v 3.62057731 25.26722078 -51.82261435
v 10.92162109 20.83154367 -51.56122495
v 9.23676490 20.83154367 -51.73966989
v 6.82715323 20.83154367 -51.94073866
v 4.41754155 20.83154367 -52.11164712
v -1.20399457 25.26722078 -52.07394672
v -2.38071972 20.83154367 -52.16945439
v 4.58067801 25.26722078 -51.68186621
v 9.27420551 25.26722078 -50.99320566
v 10.54988297 25.26722078 -50.80470368
v 11.75335167 25.26722078 -50.62625515
v 12.36578353 25.26722078 -50.52320740
v 13.26972197 25.26722078 -50.36989246
v 11.90044164 20.83154367 -51.36015617
v -2.38071972 25.26722078 -51.93068522
v -2.38071972 20.83154367 -36.36045799
v 14.22982267 25.26722078 -50.09593985
v 15.68200881 25.26722078 -49.68123550
v 16.47897215 20.83154367 -49.82198365
v -2.38071972 25.26722078 -36.58917372
v 24.94069369 20.83154367 -26.60361731
v 24.94069369 25.26722078 -26.76447233
v 16.58594635 25.26722078 -49.30674491
v 18.97683637 20.83154367 -48.95236120
v 24.94069369 20.83154367 -46.04189789
v 24.94069369 25.26722078 -45.64478706
v 17.95790094 25.26722078 -48.73118555
v 18.43928842 25.26722078 -48.52006693
v 21.46935565 25.26722078 -47.18295958
v 23.47246196 25.26722078 -46.29826057
v 24.31221534 25.26722078 -45.92628334
v 24.71069791 20.83154367 -46.35858121
f 1 2 3
f 1 3 9
f 1 9 8
f 1 8 7
f 1 7 6
f 1 6 18
f 1 18 23
f 1 23 28
f 1 28 36
f 1 36 29
f 1 29 25
f 1 25 20
f 1 20 11
f 1 11 4
f 1 4 2
f 2 5 6
f 2 6 7
f 2 7 8
f 2 8 9
f 2 9 3
f 2 4 10
f 2 10 19
f 2 19 24
f 2 24 26
f 2 26 30
f 2 30 35
f 2 35 34
f 2 34 33
f 2 33 32
f 2 32 31
f 2 31 27
f 2 27 22
f 2 22 21
f 2 21 17
f 2 17 16
f 2 16 15
f 2 15 14
f 2 14 13
f 2 13 12
f 2 12 5
f 4 11 10
f 5 12 6
f 6 13 14
f 6 14 15
f 6 15 16
f 6 16 17
f 6 17 18
f 6 12 13
f 10 11 19
f 11 20 24
f 11 24 19
f 17 21 18
f 18 21 22
f 18 22 23
f 20 25 26
f 20 26 24
f 22 27 28
f 22 28 23
f 25 29 30
f 25 30 26
f 27 31 28
f 28 31 32
f 28 32 33
f 28 33 34
f 28 34 35
f 28 35 30
f 28 30 36
f 29 36 30

