# https://github.com/mikedh/trimesh
v 47.05249500 133.39614291 10.38917537
v 47.05249500 133.40672851 8.44418376
v 45.10828724 133.37497172 10.38917537
v 47.52191077 133.30087256 10.38917537
v 49.46611493 133.21619499 6.03229559
v 49.46611493 133.33262934 3.61798934
v 49.46611493 133.34321494 1.20610229
v 47.05249500 133.39614291 -10.85817224
v 44.63887148 133.39614291 -14.32480537
v 44.63887148 133.35380053 10.38917537
v 49.61719337 132.32703378 10.38917537
v 49.46611493 132.86687755 8.44418376
v 51.14953735 132.11532907 6.03229559
v 51.32578894 132.23176342 3.61798934
v 51.35096928 132.24234902 1.20610229
v 49.46611493 133.33262934 -1.20820406
v 47.05249500 133.38555732 -13.27005906
v 47.05249500 133.36438613 -14.32480537
v 42.11733889 132.58107368 -14.32480537
v 42.84214652 132.46463932 10.38917537
v 49.88157436 132.12590747 10.38917537
v 50.90313821 131.76601163 8.44418376
v 51.98405187 129.97710361 3.61798934
v 52.03440895 129.97710361 1.20610229
v 51.29701655 132.22117783 -1.20820406
v 49.46611493 133.26912297 -6.03197827
v 49.46611493 133.31145815 -3.61767203
v 49.46611493 133.03624707 -8.44386554
v 49.11720020 132.25293461 -14.32480537
v 42.43747763 132.24234902 10.38917537
v 40.71269085 131.58606371 -14.32480537
v 50.23228692 131.77659722 10.38917537
v 50.74307064 131.40611578 10.00211259
v 51.63154149 129.97710361 6.03229559
v 51.64233203 127.56365987 6.03229559
v 51.68189857 117.92048489 6.03229559
v 51.99304459 127.56365987 3.61798934
v 51.82038505 127.56365987 -3.61767203
v 51.81319015 129.97710361 -3.61767203
v 51.17651192 132.15766426 -6.03197827
v 51.24126239 132.20000664 -3.61767203
v 52.02541623 117.92048489 3.61798934
v 52.03261113 115.50704115 3.61798934
v 52.06138712 120.32334303 1.20610229
v 51.00205815 131.92478836 -8.44386554
v 50.80062262 131.54372133 -10.20258448
v 49.66934828 130.96152798 -14.32480537
v 41.23066587 130.87685042 10.38917537
v 35.59948172 124.84324826 -14.32480537
v 50.68551506 131.01445596 10.38917537
v 50.78263718 129.97710361 10.18838526
v 50.76285391 124.85383385 10.38917537
v 50.81141317 113.03009103 10.38917537
v 51.69089129 115.50704115 6.03229559
v 50.92831855 84.41811776 10.38917537
v 51.33658309 81.71887554 8.44418376
v 51.36535908 74.48913891 8.44418376
v 51.68189857 129.97710361 -6.03197827
v 51.96426860 115.50704115 -1.20820406
v 51.86714648 110.68016086 -3.61767203
v 51.69808619 113.09360460 6.03229559
v 51.70348326 110.68016086 6.03229559
v 51.70707891 108.26672431 6.03229559
v 51.70887674 105.85328058 6.03229559
v 51.71067456 84.13231569 6.03229559
v 52.03261113 113.09360460 3.61798934
v 52.07397908 113.09360460 1.20610229
v 52.07218126 115.50704115 1.20610229
v 52.06678419 117.92048489 1.20610229
v 52.03081330 91.37263791 -1.20820406
v 52.07037984 76.90257905 -1.20820406
v 51.33118602 129.97710361 -8.44386554
v 50.86356808 129.97710361 -10.47836548
v 50.58479730 129.97710361 -11.68551883
v 50.21790072 129.97710361 -13.27005906
v 49.97329940 129.97710361 -14.32480537
v 37.13362712 125.03378178 10.38917537
v 35.01675982 124.00701502 -14.32480537
v 50.74126922 129.97710361 10.38917537
v 50.74307064 129.58544379 10.38917537
v 50.95889237 76.90257905 10.38917537
v 50.97687781 72.47793834 10.38917537
v 50.99486325 67.69339818 10.38917537
v 51.00385598 65.29054274 10.38917537
v 51.05961013 48.41762753 10.38917537
v 51.37255397 72.07569786 8.44418376
v 51.68549782 125.15022332 -6.03197827
v 51.93369119 86.54575583 -3.61767203
v 51.95347445 79.31602009 -3.61767203
v 51.97326132 72.07569786 -3.61767203
v 51.98584969 67.24881668 -3.61767203
v 51.99664024 62.42193639 -3.61767203
v 52.00023948 60.01908004 -3.61767203
v 52.00563296 55.19219976 -3.61767203
v 51.37794745 69.66225772 8.44418376
v 51.38154310 67.24881668 8.44418376
v 51.38334452 64.83537653 8.44418376
v 51.38514235 38.29811515 8.44418376
v 51.71067456 76.90257905 6.03229559
v 52.02901547 110.68016086 3.61798934
v 52.05419582 76.90257905 1.20610229
v 52.06138712 88.95919597 1.20610229
v 52.06858201 101.02640029 1.20610229
v 52.07397908 110.68016086 1.20610229
v 51.70707891 72.07569786 6.03229559
v 51.37974527 28.64435278 8.44418376
v 52.07757473 72.07569786 -1.20820406
v 52.07577691 74.48913891 -1.20820406
v 51.32759036 125.15022332 -8.44386554
v 50.86356808 103.43984043 -10.48078535
v 50.86356808 120.32334303 -10.48078535
v 51.68729564 120.32334303 -6.03197827
v 51.69808619 79.31602009 -6.03197827
v 51.69988401 72.07569786 -6.03197827
v 51.69988401 64.83537653 -6.03197827
v 49.97509723 127.56365987 -14.32480537
v 50.21969854 108.26672431 -13.27005906
v 36.28292139 123.74238234 10.38917537
v 34.34591212 122.82146434 -14.32480537
v 51.06500361 46.00418738 10.38917537
v 52.00743079 52.77875781 -3.61767203
v 51.06860285 43.59074724 10.38917537
v 51.38514235 35.88467501 8.44418376
v 52.02361840 108.26672431 3.61798934
v 52.05059657 74.48913891 1.20610229
v 52.05599364 35.88467501 -1.20820406
v 51.06680143 31.05779652 10.38917537
v 51.06500361 29.11010458 10.38917537
v 51.37075615 25.26765586 8.44418376
v 52.01103003 33.47123307 -3.61767203
v 52.01103003 40.71155530 -3.61767203
v 52.00922861 47.95187573 -3.61767203
v 51.32039547 117.92048489 -8.44386554
v 51.69808619 62.42193639 -6.03197827
v 51.69628836 60.01908004 -6.03197827
v 50.58479730 76.90257905 -11.64197550
v 50.21969854 76.90257905 -13.27005906
v 49.97689505 76.90257905 -14.32480537
v 49.97689505 87.60428296 -14.32480537
v 35.81530704 122.90614191 10.38917537
v 33.86390439 121.67825604 -14.32480537
v 35.71099003 122.67326601 10.38917537
v 51.06860285 33.47123307 10.38917537
v 52.00563296 103.43984043 3.61798934
v 52.04340167 72.07569786 1.20610229
v 52.05239439 33.47123307 -1.20820406
v 51.06320578 28.64435278 10.38917537
v 51.21608205 25.26765586 9.39490610
v 51.46967249 25.26765586 6.99027665
v 52.00563296 31.05779652 -3.61767203
v 51.62434659 25.26765586 -6.03197827
v 51.68549782 52.77875781 -6.03197827
v 51.30960492 108.26672431 -8.44386554
v 50.58299947 74.48913891 -11.63229781
v 50.19092255 50.36531767 -13.27005906
v 50.19451820 52.77875781 -13.27005906
v 49.96071103 50.36531767 -14.32480537
v 50.21790072 74.48913891 -13.27005906
v 51.30241002 103.43984043 -8.44386554
v 49.96430668 55.19219976 -14.32480537
v 49.97150158 67.24881668 -14.32480537
v 35.15344847 120.32334303 10.38917537
v 33.79915751 120.32334303 -14.32480537
v 51.93908826 86.54575583 3.61798934
v 52.01642710 64.83537653 1.20610229
v 52.04519950 31.05779652 -1.20820406
v 51.04701816 25.26765586 10.38917537
v 51.85995159 25.26765586 1.20610229
v 51.99124676 26.23090904 -3.61767203
v 51.98584969 25.26765586 -3.61767203
v 50.91752441 25.26765586 -9.47926006
v 50.58120165 72.07569786 -11.61778396
v 50.18192983 45.53843559 -13.27005906
v 49.92474014 28.64435278 -14.32480537
v 49.94992049 43.12499544 -14.32480537
v 50.81860806 62.42193639 -10.35982767
v 35.12826813 117.92048489 10.38917537
v 33.72901716 112.86072870 -14.32480537
v 52.03621037 28.64435278 -1.20820406
v 35.13546303 25.26765586 10.38917537
v 51.95707370 25.26765586 -0.24780369
v 52.02541623 26.23090904 -1.20820406
v 52.02002275 25.26765586 -1.20820406
v 50.29343814 25.26765586 -12.51044734
v 50.56501403 57.60563990 -11.54037141
v 50.13876405 26.23090904 -13.27005906
v 49.91934307 26.23090904 -14.32480537
v 35.11208051 113.09360460 10.38917537
v 35.09049942 96.19951820 10.38917537
v 35.09589649 103.43984043 10.38917537
v 35.10668704 110.68016086 10.38917537
v 33.70383682 25.26765586 -14.32480537
v 35.12826813 35.41892501 10.38917537
v 49.91215177 25.26765586 -14.32480537
v 49.91574742 25.69106527 -14.32480537
v 35.09049942 93.32032626 10.38917537
f 1 2 3
f 1 3 10
f 1 10 20
f 1 20 30
f 1 30 48
f 1 48 77
f 1 77 118
f 1 118 140
f 1 140 142
f 1 142 162
f 1 162 177
f 1 177 188
f 1 188 191
f 1 191 190
f 1 190 189
f 1 189 196
f 1 196 193
f 1 193 180
f 1 180 167
f 1 167 147
f 1 147 128
f 1 128 127
f 1 127 143
f 1 143 122
f 1 122 120
f 1 120 85
f 1 85 84
f 1 84 83
f 1 83 82
f 1 82 81
f 1 81 55
f 1 55 53
f 1 53 52
f 1 52 80
f 1 80 79
f 1 79 50
f 1 50 32
f 1 32 21
f 1 21 11
f 1 11 4
f 1 4 5
f 1 5 6
f 1 6 2
f 2 6 7
f 2 7 8
f 2 8 9
f 2 9 3
f 3 9 10
f 4 11 12
f 4 12 5
f 5 12 13
f 5 13 14
f 5 14 6
f 6 14 15
f 6 15 7
f 7 15 16
f 7 16 8
f 8 17 9
f 8 16 17
f 9 17 18
f 9 18 29
f 9 29 47
f 9 47 76
f 9 76 116
f 9 116 139
f 9 139 138
f 9 138 161
f 9 161 160
f 9 160 157
f 9 157 175
f 9 175 174
f 9 174 187
f 9 187 195
f 9 195 194
f 9 194 192
f 9 192 178
f 9 178 163
f 9 163 141
f 9 141 119
f 9 119 78
f 9 78 49
f 9 49 31
f 9 31 19
f 9 19 10
f 10 19 20
f 11 21 13
f 11 13 12
f 13 21 22
f 13 22 23
f 13 23 14
f 14 23 24
f 14 24 15
f 15 24 25
f 15 25 26
f 15 26 27
f 15 27 16
f 16 27 17
f 17 27 26
f 17 26 18
f 18 26 28
f 18 28 29
f 19 30 20
f 19 31 30
f 21 32 33
f 21 33 22
f 22 33 34
f 22 34 23
f 23 34 35
f 23 35 36
f 23 36 54
f 23 54 37
f 23 37 24
f 24 38 39
f 24 39 40
f 24 40 41
f 24 41 25
f 24 37 42
f 24 42 43
f 24 43 44
f 24 44 38
f 25 41 26
f 26 41 40
f 26 40 28
f 28 40 45
f 28 45 29
f 29 45 46
f 29 46 47
f 30 31 48
f 31 49 48
f 32 50 33
f 33 50 34
f 34 50 51
f 34 51 35
f 35 51 52
f 35 52 53
f 35 53 36
f 36 53 55
f 36 55 56
f 36 56 57
f 36 57 54
f 37 54 42
f 38 58 39
f 38 44 59
f 38 59 60
f 38 60 58
f 39 58 40
f 40 58 45
f 42 54 61
f 42 61 43
f 43 61 62
f 43 62 63
f 43 63 64
f 43 64 65
f 43 65 99
f 43 99 66
f 43 66 104
f 43 104 67
f 43 67 68
f 43 68 69
f 43 69 44
f 44 70 59
f 44 69 71
f 44 71 70
f 45 58 72
f 45 72 46
f 46 72 73
f 46 73 74
f 46 74 75
f 46 75 76
f 46 76 47
f 48 49 77
f 49 78 77
f 50 79 51
f 51 79 80
f 51 80 52
f 54 57 86
f 54 86 61
f 55 81 56
f 56 81 82
f 56 82 57
f 57 82 83
f 57 83 84
f 57 84 85
f 57 85 86
f 58 87 72
f 58 60 88
f 58 88 89
f 58 89 90
f 58 90 91
f 58 91 92
f 58 92 93
f 58 93 94
f 58 94 121
f 58 121 87
f 59 70 88
f 59 88 60
f 61 86 95
f 61 95 62
f 62 95 96
f 62 96 63
f 63 96 97
f 63 97 64
f 64 97 65
f 65 97 98
f 65 98 123
f 65 123 99
f 66 100 125
f 66 125 101
f 66 101 102
f 66 102 103
f 66 103 104
f 66 99 105
f 66 105 106
f 66 106 100
f 67 104 107
f 67 107 108
f 67 108 68
f 68 108 71
f 68 71 69
f 70 71 89
f 70 89 88
f 71 108 92
f 71 92 91
f 71 91 90
f 71 90 89
f 72 109 110
f 72 110 111
f 72 111 73
f 72 87 112
f 72 112 113
f 72 113 114
f 72 114 115
f 72 115 134
f 72 134 109
f 73 111 74
f 74 116 75
f 74 111 117
f 74 117 116
f 75 116 76
f 77 78 118
f 78 119 118
f 85 120 95
f 85 95 86
f 87 121 132
f 87 132 112
f 92 108 93
f 93 108 94
f 94 108 107
f 94 107 121
f 95 120 122
f 95 122 96
f 96 122 97
f 97 122 98
f 98 122 143
f 98 143 123
f 99 123 106
f 99 106 105
f 100 124 125
f 100 106 124
f 101 125 146
f 101 146 126
f 101 126 102
f 102 126 107
f 102 107 103
f 103 107 104
f 106 123 143
f 106 143 127
f 106 127 128
f 106 128 129
f 106 129 124
f 107 126 130
f 107 130 131
f 107 131 132
f 107 132 121
f 109 133 110
f 109 134 135
f 109 135 133
f 110 133 136
f 110 136 137
f 110 137 138
f 110 138 139
f 110 139 111
f 111 139 117
f 112 132 113
f 113 132 131
f 113 131 114
f 114 131 130
f 114 130 115
f 115 130 134
f 116 117 139
f 118 119 140
f 119 141 142
f 119 142 140
f 124 144 165
f 124 165 145
f 124 145 125
f 124 129 144
f 125 145 166
f 125 166 146
f 126 146 130
f 128 147 148
f 128 148 129
f 129 148 167
f 129 167 180
f 129 180 192
f 129 192 194
f 129 194 184
f 129 184 171
f 129 171 151
f 129 151 170
f 129 170 183
f 129 183 181
f 129 181 168
f 129 168 149
f 129 149 144
f 130 146 150
f 130 150 151
f 130 151 152
f 130 152 135
f 130 135 134
f 133 153 136
f 133 135 153
f 135 152 159
f 135 159 153
f 136 154 155
f 136 155 156
f 136 156 157
f 136 157 158
f 136 158 137
f 136 153 159
f 136 159 154
f 137 158 157
f 137 157 160
f 137 160 161
f 137 161 138
f 141 162 142
f 141 163 162
f 144 164 165
f 144 149 164
f 145 165 179
f 145 179 166
f 146 166 169
f 146 169 150
f 147 167 148
f 149 168 165
f 149 165 164
f 150 169 151
f 151 169 170
f 151 171 152
f 152 171 159
f 154 172 173
f 154 173 155
f 154 159 172
f 155 173 174
f 155 174 175
f 155 175 157
f 155 157 156
f 159 171 176
f 159 176 172
f 162 163 177
f 163 178 177
f 165 168 179
f 166 179 169
f 168 181 179
f 169 182 183
f 169 183 170
f 169 179 182
f 171 184 185
f 171 185 172
f 171 172 176
f 172 185 184
f 172 184 173
f 173 184 186
f 173 186 187
f 173 187 174
f 177 178 188
f 178 189 190
f 178 190 191
f 178 191 188
f 178 192 189
f 179 181 182
f 180 193 192
f 181 183 182
f 184 194 195
f 184 195 187
f 184 187 186
f 189 192 196
f 192 193 196

