# https://github.com/mikedh/trimesh
v 52.22800956 20.83154367 -1.20507596
v 52.02008388 25.26722078 -1.20507596
v 52.21740239 20.83154367 -0.40305534
v 52.20891665 20.83154367 -3.61803159
v 51.95643367 25.26722078 -0.24678747
v 51.86307980 20.83154367 9.23727728
v 51.91187997 20.83154367 8.44444894
v 51.98825878 20.83154367 6.83121586
v 52.06888405 20.83154367 4.41825978
v 51.98613734 25.26722078 -3.61803159
v 52.13465569 20.83154367 -4.38098457
v 51.79518313 25.26722078 2.16616816
v 51.53421442 25.26722078 6.03379138
v 51.37084244 25.26722078 8.44444894
v 51.64242192 20.83154367 10.99298936
v 51.86944410 25.26722078 -4.38098457
v 35.95669162 20.83154367 -4.38098457
v 51.21595980 25.26722078 9.39584277
v 50.94438392 25.26722078 10.98839411
v 50.66856157 25.26722078 12.05468965
v 51.40267114 20.83154367 11.91450873
v 36.40437167 25.26722078 -4.38098457
v 30.55484525 20.83154367 19.09362669
v 50.60703280 25.26722078 12.23393822
v 48.95847021 20.83154367 19.03158015
v 31.16165081 25.26722078 19.09362669
v 48.88633427 20.83154367 19.09362669
v 48.46199358 25.26722078 18.43408552
v 48.23284997 25.26722078 19.09362669
f 1 2 3
f 1 3 9
f 1 9 8
f 1 8 7
f 1 7 6
f 1 6 15
f 1 15 21
f 1 21 25
f 1 25 27
f 1 27 23
f 1 23 17
f 1 17 11
f 1 11 4
f 1 4 2
f 2 5 6
f 2 6 7
f 2 7 8
f 2 8 9
f 2 9 3
f 2 4 10
f 2 10 16
f 2 16 22
f 2 22 26
f 2 26 29
f 2 29 28
f 2 28 24
f 2 24 20
f 2 20 19
f 2 19 18
f 2 18 14
f 2 14 13
f 2 13 12
f 2 12 5
f 4 11 10
f 5 12 6
f 6 12 13
f 6 13 14
f 6 14 15
f 10 11 16
f 11 17 22
f 11 22 16
f 14 18 15
f 15 19 20
f 15 20 21
f 15 18 19
f 17 23 22
f 20 24 21
f 21 24 25
f 22 23 26
f 23 27 29
f 23 29 26
f 24 28 25
f 25 29 27
f 25 28 29

