# https://github.com/mikedh/trimesh
v -56.59305731 20.83154367 40.61080450
v -56.59894698 20.83154367 47.04323620
v -56.59305731 20.83154367 39.81186894
v -57.09343162 25.26678930 49.46052369
v -56.61071914 20.83154367 47.84217176
v -56.59894698 20.83154367 -31.77457618
v -57.09343162 25.26678930 19.09082568
v -57.50550395 25.26678930 51.20178575
v -56.64603922 20.83154367 49.46052369
v -56.60482947 20.83154367 -47.04648667
v -57.09931770 25.26678930 -49.45353015
v -56.85207359 20.83154367 50.20824280
v -59.12436647 25.26678930 51.92902044
v -57.21705368 20.83154367 51.41688475
v -56.63426346 20.83154367 -48.66483860
v -56.65192530 20.83154367 -49.45353015
v -57.34656182 25.26678930 -50.50852995
v -60.07801927 25.26678930 52.01096171
v -59.12436647 20.83154367 52.15435985
v -57.22294336 20.83154367 -51.40989121
v -57.51139363 25.26678930 -51.20503621
v -61.53204998 25.26678930 52.12363142
v -61.53204998 20.83154367 52.31824600
v -58.38263412 20.83154367 -51.92202690
v -59.12436647 25.26678930 -51.93227090
v -109.78581584 25.26678930 52.12363142
v -112.19938903 20.83154367 52.31824600
v -59.12436647 20.83154367 -52.14736991
v -60.71967748 20.83154367 -52.28052403
v -61.53793246 25.26678930 -52.11664148
v -110.73947583 25.26678930 52.07241857
v -113.02353369 20.83154367 52.29775799
v -61.53793246 20.83154367 -52.32149647
v -109.78581584 25.26678930 -52.11664148
v -112.27002918 25.26678930 51.66270858
v -112.19938903 23.81312176 52.00072130
v -114.72480851 20.83154367 51.93926444
v -112.19938903 20.83154367 -52.32149647
v -112.19938903 23.81312176 -51.99372776
v -112.27002918 25.26678930 -51.66595905
v -113.05885736 25.26678930 51.36567190
v -115.62548300 20.83154367 51.65246817
v -114.72480851 20.83154367 -51.93227090
v -113.73583204 25.26678930 -51.02066924
v -113.73583204 25.26678930 51.01741877
v -116.24947937 20.83154367 51.10960046
v -116.24947937 20.83154367 -51.10261052
v -116.57325331 20.83154367 -50.00663828
v -116.72630577 20.83154367 -49.45353015
v -114.05960599 25.26678930 -49.45353015
v -113.83002370 25.26678930 50.79207576
v -116.27302369 20.83154367 51.03790319
v -116.73219545 20.83154367 -47.04648667
v -114.06549566 25.26678930 19.09082568
v -114.05960599 25.26678930 49.46052369
v -116.72630577 20.83154367 49.46052369
v -116.73219545 20.83154367 47.04323620
v -114.06549566 25.26678930 48.89717156
f 1 2 5
f 1 5 9
f 1 9 12
f 1 12 14
f 1 14 19
f 1 19 23
f 1 23 27
f 1 27 32
f 1 32 37
f 1 37 42
f 1 42 46
f 1 46 52
f 1 52 56
f 1 56 57
f 1 57 53
f 1 53 49
f 1 49 48
f 1 48 47
f 1 47 43
f 1 43 38
f 1 38 33
f 1 33 29
f 1 29 28
f 1 28 24
f 1 24 20
f 1 20 16
f 1 16 15
f 1 15 10
f 1 10 6
f 1 6 3
f 1 3 7
f 1 7 4
f 1 4 2
f 2 4 5
f 3 6 7
f 4 8 9
f 4 9 5
f 4 7 11
f 4 11 17
f 4 17 21
f 4 21 25
f 4 25 30
f 4 30 34
f 4 34 40
f 4 40 44
f 4 44 50
f 4 50 54
f 4 54 58
f 4 58 55
f 4 55 51
f 4 51 45
f 4 45 41
f 4 41 35
f 4 35 31
f 4 31 26
f 4 26 22
f 4 22 18
f 4 18 13
f 4 13 8
f 6 10 11
f 6 11 7
f 8 12 9
f 8 13 14
f 8 14 12
f 10 15 11
f 11 15 16
f 11 16 17
f 13 18 19
f 13 19 14
f 16 20 21
f 16 21 17
f 18 22 19
f 19 22 23
f 20 24 25
f 20 25 21
f 22 26 27
f 22 27 23
f 24 28 25
f 25 28 29
f 25 29 30
f 26 31 32
f 26 32 27
f 29 33 30
f 30 33 38
f 30 38 34
f 31 35 36
f 31 36 32
f 32 36 37
f 34 38 39
f 34 39 40
f 35 41 42
f 35 42 37
f 35 37 36
f 38 43 39
f 39 43 40
f 40 43 44
f 41 45 42
f 42 45 46
f 43 47 44
f 44 47 48
f 44 48 49
f 44 49 50
f 45 51 46
f 46 51 52
f 49 53 50
f 50 53 54
f 51 55 56
f 51 56 52
f 53 57 58
f 53 58 54
f 55 58 56
f 56 58 57

