# https://github.com/mikedh/trimesh
v 52.13383588 20.83154367 -4.38735876
v 51.87028908 25.26722078 -4.38735876
v 35.95637880 20.83154367 -4.38735876
v 52.03267585 20.83154367 -6.03483906
v 51.77445421 20.83154367 -8.44896777
v 51.62537854 25.26722078 -6.03483906
v 36.40627018 25.26722078 -4.38735876
v 24.94335448 25.26722078 -26.76291362
v 24.94335448 20.83154367 -26.59979693
v 51.35384580 20.83154367 -10.83047405
v 51.13023230 25.26722078 -8.44896777
v 24.94335448 25.26722078 -45.64369038
v 24.94335448 20.83154367 -46.03924789
v 50.29167627 25.26722078 -12.51465605
v 50.52860088 25.26722078 -11.36876000
v 50.91726552 25.26722078 -9.48475961
v 49.32268084 20.83154367 -18.10140874
v 49.63148249 25.26722078 -15.68728003
v 25.52102629 25.26722078 -45.38270369
v 28.63299884 20.83154367 -44.23272838
v 48.70507753 20.83154367 -19.76927818
v 48.84084210 25.26722078 -18.10140874
v 26.37023083 25.26722078 -44.90150858
v 30.83986167 20.83154367 -42.49553300
v 27.65069050 25.26722078 -44.17563664
v 28.85661234 25.26722078 -43.35597576
v 29.37838077 25.26722078 -42.95633718
v 32.83375772 25.26722078 -40.28530105
v 48.27648319 25.26722078 -19.34109733
v 45.92320187 20.83154367 -25.20922586
v 34.36179051 25.26722078 -39.07823759
v 31.94728606 20.83154367 -41.56984717
v 47.90112964 25.26722078 -20.07104494
v 43.30904173 20.83154367 -30.00893921
v 43.36228253 25.26722078 -28.81818562
v 43.61251822 25.26722078 -28.34106977
v 34.56943573 20.83154367 -39.32291082
v 34.84096847 25.26722078 -38.65005674
v 41.61862217 20.83154367 -31.98265288
v 41.29917020 25.26722078 -31.68088791
v 42.43588116 25.26722078 -30.15982169
v 35.56771415 25.26722078 -37.99758642
v 36.16402042 20.83154367 -37.81815986
v 40.85194320 20.83154367 -32.81454976
v 36.73104371 25.26722078 -36.79460043
v 36.03091663 25.26722078 -37.52046877
v 36.95998237 20.83154367 -37.00257285
f 1 2 7
f 1 7 3
f 1 3 9
f 1 9 13
f 1 13 20
f 1 20 24
f 1 24 32
f 1 32 37
f 1 37 43
f 1 43 47
f 1 47 44
f 1 44 39
f 1 39 34
f 1 34 30
f 1 30 21
f 1 21 17
f 1 17 10
f 1 10 5
f 1 5 4
f 1 4 2
f 2 4 5
f 2 5 6
f 2 6 11
f 2 11 16
f 2 16 15
f 2 15 14
f 2 14 18
f 2 18 22
f 2 22 29
f 2 29 33
f 2 33 36
f 2 36 35
f 2 35 41
f 2 41 40
f 2 40 45
f 2 45 46
f 2 46 42
f 2 42 38
f 2 38 31
f 2 31 28
f 2 28 27
f 2 27 26
f 2 26 25
f 2 25 23
f 2 23 19
f 2 19 12
f 2 12 8
f 2 8 7
f 3 7 8
f 3 8 9
f 5 10 6
f 6 10 11
f 8 12 13
f 8 13 9
f 10 14 15
f 10 15 16
f 10 16 11
f 10 17 18
f 10 18 14
f 12 19 13
f 13 19 20
f 17 21 22
f 17 22 18
f 19 23 20
f 20 23 25
f 20 25 26
f 20 26 27
f 20 27 28
f 20 28 24
f 21 29 22
f 21 30 29
f 24 28 31
f 24 31 32
f 29 30 33
f 30 34 35
f 30 35 36
f 30 36 33
f 31 37 32
f 31 38 37
f 34 39 40
f 34 40 41
f 34 41 35
f 37 38 42
f 37 42 43
f 39 44 45
f 39 45 40
f 42 46 47
f 42 47 43
f 44 47 45
f 45 47 46

