# https://github.com/mikedh/trimesh
v -27.73817807 119.58568096 58.71841394
v -27.73817807 119.58568096 57.51763568
v -49.45344386 119.58568096 58.71841394
v 49.45344386 118.71568456 59.92507828
v 49.45344386 119.57601585 58.71841394
v -49.45344386 119.58568096 57.51763568
v 49.45344386 119.57601585 57.51763568
v 49.45344386 117.91335112 57.10560650
v -49.45344386 118.71568456 59.92507828
v -51.02062968 119.42134535 58.44765067
v 49.45344386 117.51702414 60.79622888
v 51.02062968 117.24635796 60.64319080
v 51.02062968 119.42134535 58.44765067
v -49.45344386 117.91335112 57.10560650
v -51.02062968 119.42134535 57.65301911
v 51.02062968 119.42134535 57.65301911
v 49.46368786 20.83154367 56.64648508
v 47.84528559 20.83154367 56.61116860
v 47.04632487 20.83154367 56.59939644
v 39.80449067 20.83154367 56.59351036
v 51.19476344 117.91335112 57.51175319
v -51.02062968 117.24635796 60.64319080
v -49.45344386 117.51702414 60.79622888
v -51.84007483 115.49670006 59.12456064
v -51.30743674 117.99068637 59.20107967
v 47.04632487 20.83154367 116.72653589
v 49.46368786 20.83154367 116.72065341
v 50.66212176 97.40079805 72.39785399
v 50.79528308 109.62906594 65.25205242
v 50.93868481 105.01809008 67.78898518
v 51.11281857 20.83154367 116.24387016
v 51.65570066 20.83154367 115.61993850
v 51.29719274 115.49670006 61.13762870
v 51.30743674 117.99068637 59.20107967
v 51.84007483 115.49670006 59.12456064
v -47.04632487 20.83154367 56.59939644
v -48.66472714 20.83154367 56.62882684
v -49.46368786 20.83154367 56.64648508
v -51.19476344 117.91335112 57.51175319
v 50.21142855 20.83154367 56.85250147
v 51.93226012 113.08004900 59.12456064
v 51.20500385 115.49670006 57.50586352
v 51.42011005 20.83154367 57.21744201
v -51.13330299 108.26606991 65.64642336
v -51.11281857 20.83154367 116.24387016
v -50.93868481 105.01809008 67.78898518
v -50.79528308 109.62906594 65.25205242
v -51.29719274 115.49670006 61.13762870
v -50.66212176 97.40079805 72.39785399
v -49.46368786 20.83154367 116.72065341
v -47.04632487 20.83154367 116.72653589
v -51.93226012 113.08004900 59.12456064
v -52.08590586 110.67306305 61.53788931
v 50.84649952 30.09215582 111.12879848
v 50.68260978 34.70313168 108.58597605
v 50.76455465 63.76097865 91.75744015
v 50.83625552 92.79948910 74.93478674
v 50.91820039 59.15000324 94.29437291
v 51.93226012 20.83154367 114.72523999
v 51.86055925 108.26606991 63.95121080
v 52.08590586 110.67306305 61.53788931
v -51.42011005 20.83154367 57.21744201
v -51.20500385 115.49670006 57.50586352
v 52.12687829 108.26606991 61.53788931
v 52.15760672 20.83154367 59.11867456
v -51.93226012 20.83154367 114.72523999
v -50.84649952 30.09215582 111.12879848
v -50.91820039 59.15000324 94.29437291
v -50.83625552 92.79948910 74.93478674
v -50.76455465 63.76097865 91.75744015
v -51.86055925 108.26606991 63.95121080
v -50.68260978 34.70313168 108.58597605
v -51.93226012 20.83154367 58.37701771
v -52.15760672 20.83154367 59.11867456
v -52.28052403 20.83154367 60.71970624
v -52.12687829 108.26606991 61.53788931
v -52.11663788 105.83975374 63.95121080
v -52.32149647 20.83154367 112.20007939
v -51.96299214 103.43276779 66.35864981
v 52.29076804 20.83154367 113.01825527
v 51.96299214 103.43276779 66.35864981
v 52.11663788 105.83975374 63.95121080
v 52.32149647 20.83154367 112.20007939
v 52.32149647 20.83154367 61.53199964
v -52.32149647 20.83154367 61.53199964
f 1 2 6
f 1 6 3
f 1 3 9
f 1 9 4
f 1 4 5
f 1 5 7
f 1 7 2
f 2 7 8
f 2 8 14
f 2 14 6
f 3 6 15
f 3 15 10
f 3 10 9
f 4 11 12
f 4 12 13
f 4 13 5
f 4 9 23
f 4 23 11
f 5 13 16
f 5 16 7
f 6 14 15
f 7 16 8
f 8 17 18
f 8 18 19
f 8 19 20
f 8 20 14
f 8 16 21
f 8 21 17
f 9 10 22
f 9 22 23
f 10 15 24
f 10 24 25
f 10 25 22
f 11 26 27
f 11 27 28
f 11 28 29
f 11 29 12
f 11 23 51
f 11 51 26
f 12 29 30
f 12 30 31
f 12 31 32
f 12 32 33
f 12 33 34
f 12 34 13
f 13 34 35
f 13 35 16
f 14 20 36
f 14 36 37
f 14 37 38
f 14 38 39
f 14 39 15
f 15 39 24
f 16 35 21
f 17 21 40
f 17 40 43
f 17 43 65
f 17 65 84
f 17 84 83
f 17 83 80
f 17 80 59
f 17 59 32
f 17 32 31
f 17 31 27
f 17 27 26
f 17 26 51
f 17 51 50
f 17 50 45
f 17 45 66
f 17 66 78
f 17 78 85
f 17 85 75
f 17 75 74
f 17 74 73
f 17 73 62
f 17 62 38
f 17 38 37
f 17 37 36
f 17 36 20
f 17 20 19
f 17 19 18
f 21 35 41
f 21 41 42
f 21 42 43
f 21 43 40
f 22 44 45
f 22 45 46
f 22 46 47
f 22 47 23
f 22 25 48
f 22 48 44
f 23 47 49
f 23 49 50
f 23 50 51
f 24 52 53
f 24 53 48
f 24 48 25
f 24 39 52
f 27 31 54
f 27 54 55
f 27 55 28
f 28 55 56
f 28 56 29
f 29 56 54
f 29 54 57
f 29 57 30
f 30 57 58
f 30 58 31
f 31 58 54
f 32 59 60
f 32 60 33
f 33 60 61
f 33 61 35
f 33 35 34
f 35 61 41
f 38 62 39
f 39 62 63
f 39 63 52
f 41 43 42
f 41 61 64
f 41 64 65
f 41 65 43
f 44 48 66
f 44 66 45
f 45 50 67
f 45 67 68
f 45 68 46
f 46 68 69
f 46 69 47
f 47 69 67
f 47 67 70
f 47 70 49
f 48 53 71
f 48 71 66
f 49 72 50
f 49 70 72
f 50 72 67
f 52 63 62
f 52 62 73
f 52 73 74
f 52 74 75
f 52 75 76
f 52 76 53
f 53 76 77
f 53 77 78
f 53 78 66
f 53 66 79
f 53 79 71
f 54 58 57
f 54 56 55
f 59 80 81
f 59 81 60
f 60 81 61
f 61 80 82
f 61 82 64
f 61 81 80
f 64 83 84
f 64 84 65
f 64 82 83
f 66 71 79
f 67 72 70
f 67 69 68
f 75 85 76
f 76 85 78
f 76 78 77
f 80 83 82

