# https://github.com/mikedh/trimesh
v 21.60464200 25.27823426 -29.59283616
v 42.82858013 25.27823426 -29.59283616
v 33.70523193 25.27823426 -14.32480537
v 21.60741784 117.92064310 -29.59283616
v 42.83135957 25.82867082 -29.59283616
v 43.36181869 25.27823426 -28.82166262
v 49.91341025 25.27823426 -14.32480537
v 33.73022530 112.86087972 -14.32480537
v 21.62130425 120.32350124 -29.59283616
v 43.37014981 52.77880636 -28.83361995
v 43.36459453 26.23091623 -28.82166262
v 42.84246653 110.68031188 -29.59283616
v 43.38403621 129.97728339 -28.86500459
v 43.38403621 122.73695217 -28.86350880
v 43.38403621 117.92064310 -28.86201481
v 43.61177392 25.27823426 -28.34192194
v 49.83009184 25.27823426 -14.72683145
v 49.63845805 26.23091623 -15.68482061
v 49.91618609 25.69106527 -14.32480537
v 33.79965731 120.32350124 -14.32480537
v 33.86353404 121.67842144 -14.32480537
v 22.47670590 122.69460979 -29.59283616
v 44.00614487 98.61308599 -27.64696900
v 45.19204073 72.07577877 -25.33643997
v 48.28037368 33.47124745 -19.34490333
v 47.65270974 25.27823426 -20.54799180
v 43.98948262 25.27823426 -27.61409038
v 42.84246653 129.97728339 -29.59283616
v 42.45087143 131.10990610 -29.59283616
v 43.81451108 131.84029058 -27.28678910
v 48.27481840 131.23693324 -19.33742977
v 45.20315129 129.97728339 -25.33643997
v 45.20315129 120.32350124 -25.33643997
v 45.20037545 98.61308599 -25.33643997
v 45.83359107 79.31611358 -24.10345907
v 49.63012693 25.27823426 -15.68482061
v 49.92452081 28.64435997 -14.32480537
v 49.92174137 27.28943977 -14.32480537
v 49.91896553 26.23091623 -14.32480537
v 48.84138145 25.27823426 -18.09847289
v 49.64123749 28.64435997 -15.68482061
v 49.96062474 50.36536082 -14.32480537
v 49.94951418 43.12502780 -14.32480537
v 34.34678227 122.82162974 -14.32480537
v 22.50170106 122.75811617 -29.59283616
v 47.66104086 69.66233413 -20.55546535
v 48.28314952 91.37275118 -19.35088110
v 48.27759424 26.23091623 -19.34191355
v 48.27759424 25.27823426 -19.34041955
v 41.90652591 132.11550885 -29.59283616
v 42.44809199 132.46482630 -27.95334539
v 44.31720099 132.23195040 -25.33643997
v 46.25295897 131.86146177 -22.50731027
v 48.55254644 131.72385622 -18.09847289
v 49.65789973 129.97728339 -15.68482061
v 48.84415729 129.97728339 -18.09847289
v 48.28314952 129.97728339 -19.35386908
v 47.66381671 129.97728339 -20.55994913
v 48.84415729 60.01913937 -18.09847289
v 49.66345501 52.77880636 -15.68482061
v 49.66067917 47.95191528 -15.68482061
v 49.97451114 72.07577877 -14.32480537
v 35.01610541 124.00718042 -14.32480537
v 35.59933070 124.84342085 -14.32480537
v 40.39013223 131.16283407 -14.32480537
v 40.71229533 131.58624349 -14.32480537
v 23.64593951 124.22947072 -29.59283616
v 48.28314952 127.56383965 -19.35386908
v 39.81245863 133.16345399 -29.59283616
v 42.22591315 133.33281632 -25.33643997
v 47.05281861 132.83530774 -18.09847289
v 47.05559445 132.06258807 -20.28943936
v 48.95802794 132.23195040 -15.68482061
v 49.66901029 130.96171496 -14.32480537
v 49.97451114 129.97728339 -14.32480537
v 49.66067917 122.73695217 -15.68482061
v 49.66345501 60.01913937 -15.68482061
v 49.97728698 79.31611358 -14.32480537
v 42.11482194 132.58126065 -14.32480537
v 32.53599831 132.21077921 -29.59283616
v 31.98887335 131.78736979 -29.59283616
v 31.46396951 131.09932050 -29.07124750
v 30.56690865 130.54889114 -29.59283616
v 37.39900770 133.39632989 -29.59283616
v 39.81245863 133.39632989 -27.74859647
v 44.63936408 133.35398751 -20.51062939
v 47.05281861 133.33281632 -15.68482061
v 49.11633365 132.25312159 -14.32480537
v 44.63936408 133.39632989 -14.32480537
v 42.22591315 132.96233488 -15.68482061
v 34.99110845 132.78238695 -27.74859647
v 34.99110845 133.19521077 -29.59283616
v 37.39900770 133.37515870 -27.74859647
v 44.63936408 133.39632989 -18.09847289
v 47.05281861 133.36457310 -14.32480537
f 1 2 6
f 1 6 16
f 1 16 27
f 1 27 26
f 1 26 49
f 1 49 40
f 1 40 36
f 1 36 17
f 1 17 7
f 1 7 3
f 1 3 4
f 1 4 9
f 1 9 22
f 1 22 45
f 1 45 67
f 1 67 83
f 1 83 81
f 1 81 80
f 1 80 92
f 1 92 84
f 1 84 69
f 1 69 50
f 1 50 29
f 1 29 28
f 1 28 12
f 1 12 5
f 1 5 2
f 2 5 6
f 3 7 19
f 3 19 39
f 3 39 38
f 3 38 37
f 3 37 43
f 3 43 42
f 3 42 62
f 3 62 78
f 3 78 75
f 3 75 74
f 3 74 88
f 3 88 95
f 3 95 89
f 3 89 79
f 3 79 66
f 3 66 65
f 3 65 64
f 3 64 63
f 3 63 44
f 3 44 21
f 3 21 20
f 3 20 8
f 3 8 4
f 4 8 9
f 5 10 11
f 5 11 6
f 5 12 13
f 5 13 14
f 5 14 15
f 5 15 10
f 6 11 16
f 7 17 18
f 7 18 19
f 8 20 9
f 9 20 21
f 9 21 22
f 10 15 23
f 10 23 11
f 11 24 25
f 11 25 26
f 11 26 27
f 11 27 16
f 11 23 24
f 12 28 13
f 13 28 29
f 13 29 30
f 13 30 31
f 13 31 32
f 13 32 33
f 13 33 14
f 14 33 34
f 14 34 35
f 14 35 15
f 15 35 23
f 17 36 18
f 18 37 38
f 18 38 39
f 18 39 19
f 18 36 40
f 18 40 41
f 18 41 42
f 18 42 43
f 18 43 37
f 21 44 45
f 21 45 22
f 23 35 25
f 23 25 24
f 25 46 47
f 25 47 40
f 25 40 48
f 25 48 26
f 25 35 46
f 26 48 49
f 29 50 30
f 30 50 51
f 30 51 52
f 30 52 53
f 30 53 31
f 31 54 55
f 31 55 56
f 31 56 57
f 31 57 58
f 31 58 32
f 31 53 54
f 32 58 33
f 33 35 34
f 33 58 46
f 33 46 35
f 40 49 48
f 40 47 59
f 40 59 60
f 40 60 61
f 40 61 41
f 41 61 42
f 42 61 62
f 44 63 45
f 45 63 64
f 45 64 65
f 45 65 66
f 45 66 67
f 46 58 47
f 47 58 68
f 47 68 59
f 50 69 51
f 51 69 70
f 51 70 52
f 52 70 71
f 52 71 53
f 53 71 72
f 53 72 54
f 54 72 71
f 54 71 73
f 54 73 55
f 55 73 74
f 55 74 75
f 55 75 76
f 55 76 56
f 56 76 77
f 56 77 60
f 56 60 59
f 56 59 68
f 56 68 57
f 57 68 58
f 60 77 78
f 60 78 62
f 60 62 61
f 66 79 80
f 66 80 81
f 66 81 82
f 66 82 67
f 67 82 83
f 69 84 85
f 69 85 70
f 70 85 86
f 70 86 71
f 71 86 87
f 71 87 73
f 73 87 88
f 73 88 74
f 75 78 76
f 76 78 77
f 79 89 90
f 79 90 80
f 80 90 91
f 80 91 92
f 81 83 82
f 84 93 89
f 84 89 94
f 84 94 85
f 84 92 93
f 85 94 86
f 86 94 95
f 86 95 87
f 87 95 88
f 89 95 94
f 89 93 92
f 89 92 90
f 90 92 91

