# https://github.com/mikedh/trimesh
v -44.63984590 133.39392799 -15.65948565
v -22.92592309 133.40451359 -42.22584124
v -44.66364551 133.39392799 -15.65948565
v -42.22718961 133.26690805 -15.65948565
v -42.22718961 133.39392799 -18.10016645
v -42.22718961 133.39392799 -22.92402279
v -44.63984590 133.39392799 -18.10016645
v -19.26677524 133.39392799 -43.47173772
v -19.26677524 133.38334240 -44.63776762
v -25.33858118 133.37275680 -42.22584124
v -27.75123927 133.38334240 -39.81391127
v -30.16389736 133.39392799 -37.39878836
v -32.57655725 133.39392799 -34.98685839
v -39.81155612 133.39392799 -27.75107387
v -47.05250219 133.30925042 -15.68504354
v -47.05250219 133.30925042 -15.65948565
v -19.26677524 133.33041442 -42.22584124
v -40.09417065 132.16606370 -15.65948565
v -19.26677524 132.58946592 -39.77557444
v -19.26677524 133.17164488 -41.05980775
v -44.63984590 133.34100002 -20.51209462
v -20.51326500 133.36217121 -44.63776762
v -19.26677524 133.06578893 -45.88686063
v -22.92592309 132.93876898 -44.63776762
v -27.95055876 132.48361717 -42.43349005
v -30.16389736 133.05520334 -39.81391127
v -32.57655725 133.26690805 -37.39878836
v -34.98623994 133.29866483 -34.98685839
v -42.22718961 133.33041442 -25.33914570
v -47.07332820 133.29866483 -15.65948565
v -47.05250219 132.83292023 -18.10016645
v -48.92967624 132.20839889 -15.68504354
v -48.93265344 132.20839889 -15.65948565
v -40.07929904 132.15547810 -15.65948565
v -19.26677524 132.06021494 -38.82038990
v -19.26677524 132.38834681 -47.06247653
v -22.92592309 131.82733904 -46.21270926
v -25.17198571 132.15547810 -44.69207632
v -27.27822786 131.89085261 -43.92217564
v -32.43078598 132.13430691 -39.75321309
v -34.97731553 132.32484043 -37.40837077
v -37.38402103 132.30366924 -34.93893916
v -37.39889623 133.23515126 -32.57493202
v -39.81155612 133.15047369 -30.16300205
v -42.43840531 132.45186038 -27.93636134
v -44.30665495 132.21898448 -25.33914570
v -47.05547939 132.07079334 -20.30125107
v -48.54888966 131.73207588 -18.10016645
v -49.60795974 129.98553901 -15.65948565
v -38.87148050 130.80059386 -15.65948565
v -19.26677524 131.59447034 -38.24216616
v -19.26677524 131.88026702 -47.74292461
v -19.26677524 131.21341049 -48.27003618
v -24.25868510 131.36160163 -45.90283251
v -27.64414282 129.98553901 -44.16496475
v -28.84898417 129.98553901 -43.35034137
v -31.53235878 131.47803598 -41.14286728
v -34.17111317 131.74266147 -38.90983890
v -36.56889426 131.78500385 -36.60971927
v -39.74610809 132.18723489 -32.46951114
v -41.74227659 132.04962935 -30.16300205
v -43.80389312 131.82733904 -27.25590966
v -46.25522423 131.84851023 -22.50233569
v -48.28412035 131.26633127 -19.35564534
v -49.60200894 129.98553901 -15.68504354
v -49.61093335 127.59332399 -15.65948565
v -19.26677524 131.30867365 -37.98340157
v -38.02362971 129.59389357 -15.65948565
v -19.26677524 124.94706188 -32.84966848
v -19.26677524 129.67857833 -36.66402798
v -19.31139906 131.19223930 -48.26045378
v -19.26677524 131.14989692 -48.27961859
v -25.52897627 129.98553901 -45.37252800
v -25.53195167 122.74536600 -45.37572094
v -25.54087607 108.26501998 -45.37891747
v -25.55872488 76.90152193 -45.38211400
v -25.56764929 62.43175971 -45.38211400
v -25.57360009 52.77819510 -45.38211400
v -25.57360009 50.36480349 -45.38211400
v -27.57869479 26.23089466 -44.17774369
v -32.81454976 129.98553901 -40.26754572
v -28.30457392 25.26765586 -43.64424624
v -28.78353614 25.26765586 -43.29283973
v -34.36150646 129.98553901 -39.05998247
v -35.56634780 129.98553901 -38.02812428
v -36.75631394 129.98553901 -36.82056462
v -38.89528011 131.71090469 -34.10514737
v -41.22463956 131.60505593 -31.60057546
v -43.36063212 129.98553901 -28.82126710
v -43.99429001 129.98553901 -27.61690038
v -48.29899555 129.98553901 -19.38439796
v -48.84340580 129.98553901 -18.10016645
v -48.85828100 120.33197979 -18.10016645
v -49.60498254 127.57215280 -15.68504354
v -49.60795974 122.74536600 -15.68504354
v -49.64365736 55.19158670 -15.68504354
v -49.61985775 110.69958457 -15.65948565
v -34.92079191 125.15875940 -15.65948565
v -19.26677524 123.77211837 -31.97753986
v -19.26677524 129.87969025 -48.28601166
v -19.31437266 129.98553901 -48.26364671
v -24.32115952 129.98553901 -45.93477986
v -22.92592309 120.33197979 -46.58967366
v -22.92592309 103.43824037 -46.59925607
v -24.34198373 96.19806556 -45.94436227
v -24.36280794 60.01836811 -45.95394468
v -24.36875874 50.36480349 -45.95394468
v -25.56764929 45.53802209 -45.38211400
v -26.75761722 25.26765586 -44.65693603
v -27.57571939 25.26765586 -44.17455075
v -29.61651351 25.26765586 -42.62197046
v -34.35853285 127.57215280 -39.05678953
v -36.86638759 25.26765586 -36.75028404
v -35.55444979 122.74536600 -38.03132081
v -35.55742340 125.15875940 -38.03132081
v -36.83366357 86.54450095 -36.82056462
v -36.78309075 115.50519299 -36.82375756
v -36.77118915 122.74536600 -36.82375756
v -36.76226474 127.57215280 -36.82375756
v -36.85448599 74.48813033 -36.81736809
v -37.96413248 129.98553901 -35.47563673
v -41.32876241 129.98553901 -31.71877528
v -42.46518212 129.98553901 -30.16300205
v -43.37253013 120.33197979 -28.84682498
v -43.99726361 127.57215280 -27.62328985
v -48.30196916 127.57215280 -19.39078743
v -48.31387076 117.91858639 -19.41315057
v -48.31684436 115.50519299 -19.41634351
v -48.86720541 113.09180678 -18.10016645
v -49.64960816 43.12462869 -15.68504354
v -49.65258177 47.97258308 -15.65948565
v -33.92716986 123.61334164 -15.65948565
v -19.26677524 123.33813055 -31.72836128
v -19.32329886 117.91858639 -48.26683965
v -19.32032346 120.33197979 -48.26683965
v -19.26677524 110.67841338 -48.29559407
v -20.53408921 110.67841338 -47.70778792
v -22.92592309 91.37128415 -46.60564554
v -24.36578334 47.95141189 -45.95075174
v -25.51707646 25.26765586 -45.38211400
v -25.52005007 26.23089466 -45.38211400
v -19.26677524 108.14858562 -48.29239753
v -34.18598478 25.26765586 -38.93220025
v -35.38785252 25.26765586 -37.95784369
v -38.07420254 25.26765586 -35.63855925
v -38.06527813 47.95141189 -35.63536631
v -38.02362971 96.19806556 -35.54272078
v -37.98198129 120.33197979 -35.49480155
v -38.06527813 52.77819510 -35.62578031
v -38.06230453 69.66134802 -35.59383655
v -38.05932733 74.48813033 -35.58425055
v -38.05338012 79.31491263 -35.57466814
v -38.06527813 45.53802209 -35.63855925
v -41.33471321 125.15875940 -31.72836128
v -39.08269979 108.26501998 -34.31279618
v -39.11245020 91.37128415 -34.34474354
v -39.13624981 76.90152193 -34.37349436
v -42.47708013 125.15875940 -30.16300205
v -43.41120495 88.95789255 -28.92030030
v -43.39930694 98.61145716 -28.89793895
v -45.84766444 117.10353872 -24.13477898
v -44.02403682 105.85163017 -27.67440382
v -47.68021287 120.33197979 -20.61432076
v -45.91608608 60.01836811 -24.26895248
v -45.92501048 52.77819510 -24.28492615
v -48.31684436 113.09180678 -19.42273298
v -48.31981796 110.67841338 -19.42273298
v -48.86720541 67.24795732 -18.10016645
v -49.64960816 38.29784908 -15.68504354
v -49.65555896 40.73241007 -15.65948565
v -33.56422850 122.80887957 -15.65948565
v -33.45415485 122.55483967 -15.65948565
v -19.26677524 122.04675268 -31.11499725
v -24.34793274 40.71123888 -45.94436227
v -24.31520872 26.23089466 -45.92519386
v -24.31223512 25.26765586 -45.92200092
v -24.33900833 35.88445568 -45.93797280
v -19.26677524 100.36857603 -48.27323272
v -38.69893602 25.26765586 -34.91338487
v -39.14220062 43.12462869 -34.43099959
v -39.14517422 45.53802209 -34.43099959
v -39.14517422 50.36480349 -34.42461012
v -39.14517422 64.84515131 -34.39585571
v -39.14517422 69.66134802 -34.38627330
v -38.06230453 72.07473917 -35.58744708
v -39.14220062 72.07473917 -34.38308036
v -41.33768681 122.74536600 -31.73155422
v -41.34661121 110.67841338 -31.75391557
v -41.34958841 105.85163017 -31.76350158
v -42.51278134 105.85163017 -30.16300205
v -43.41417855 86.54450095 -28.92349503
v -45.29135260 55.19158670 -25.48609814
v -44.04486283 88.95789255 -27.71273885
v -44.03593843 96.19806556 -27.69676697
v -45.28242819 62.43175971 -25.47012446
v -45.29730340 50.36480349 -25.49248761
v -45.30027700 47.95141189 -25.49248761
v -45.32110301 31.05767427 -25.48929287
v -45.32705021 26.23089466 -25.48609814
v -45.92501048 47.95141189 -24.28492615
v -48.31387076 91.37128415 -19.41634351
v -48.86422821 25.26765586 -18.10016645
v -45.91905968 28.64428087 -24.28172962
v -49.65258177 33.47106767 -15.65948565
v -49.33426602 25.26765586 -16.64661935
v -49.64663456 31.05767427 -15.68504354
v -33.01386745 120.33197979 -15.65948565
v -19.26677524 121.70803522 -31.03513066
v -19.26677524 57.77433883 -48.16142237
v -19.26677524 52.96872682 -48.14864343
v -19.26677524 33.75686435 -48.09752766
v -19.26677524 26.55902653 -48.07836284
v -19.26677524 25.40526140 -48.07516631
v -23.76187407 25.26765586 -46.15840056
v -39.10947300 25.26765586 -34.43099959
v -41.34661121 101.02484697 -31.76669451
v -41.34958841 103.43824037 -31.76669451
v -42.51575494 103.43824037 -30.16300205
v -43.41417855 84.13111114 -28.92349503
v -45.32705021 25.26765586 -25.48609814
v -47.71888409 57.60497830 -20.60473835
v -48.30791996 72.07473917 -19.40676110
v -48.30196916 50.36480349 -19.39398216
v -48.63813371 25.26765586 -18.60810960
v -45.91608608 25.26765586 -24.27853668
v -46.31174786 25.26765586 -23.46391151
v -47.25777428 25.26765586 -21.51520020
v -47.70995969 26.23089466 -20.58556994
v -49.64960816 28.64428087 -15.65948565
v -49.63771016 25.26765586 -15.68504354
v -49.64365736 26.23089466 -15.68504354
v -19.26677524 120.33197979 -30.88818002
v -33.16856312 25.26765586 -15.65948565
v -19.26677524 25.26765586 -30.88179055
v -19.26677524 26.23089466 -30.88179055
v -19.26677524 25.26765586 -48.07196978
v -19.93613074 25.26765586 -47.78765091
v -39.83535573 25.26765586 -33.46942198
v -40.33514036 35.88445568 -32.85605795
v -40.34406476 40.71123888 -32.86564036
v -40.35298917 47.95141189 -32.88480877
v -41.31091360 81.71771954 -31.75072263
v -41.33768681 96.19806556 -31.76350158
v -42.50683054 86.54450095 -30.16300205
v -42.51575494 101.02484697 -30.16300205
v -43.41120495 81.71771954 -28.92030030
v -44.11923527 25.26765586 -27.58176009
v -44.11923527 26.23089466 -27.58495482
v -48.29602195 31.05767427 -19.38120322
v -48.29304475 25.26765586 -19.37800848
v -48.06100304 25.26765586 -19.85719902
v -49.64663456 26.23089466 -15.65948565
v -49.56036052 25.26765586 -15.65948565
v -49.64068016 25.27824145 -15.65948565
v -40.31431794 25.26765586 -32.83050006
v -41.20976435 25.26765586 -31.62613335
v -41.29008759 69.66134802 -31.73475075
v -42.49492893 81.71771954 -30.16300205
v -43.31005930 25.26765586 -28.78932154
v -42.43543171 64.84515131 -30.16300205
f 1 2 3
f 1 3 16
f 1 16 30
f 1 30 33
f 1 33 49
f 1 49 66
f 1 66 97
f 1 97 131
f 1 131 170
f 1 170 204
f 1 204 229
f 1 229 252
f 1 252 254
f 1 254 253
f 1 253 233
f 1 233 207
f 1 207 172
f 1 172 171
f 1 171 132
f 1 132 98
f 1 98 68
f 1 68 50
f 1 50 34
f 1 34 18
f 1 18 4
f 1 4 5
f 1 5 2
f 2 6 7
f 2 7 3
f 2 5 8
f 2 8 9
f 2 9 10
f 2 10 11
f 2 11 12
f 2 12 13
f 2 13 14
f 2 14 6
f 3 7 15
f 3 15 16
f 4 17 5
f 4 18 19
f 4 19 20
f 4 20 17
f 5 17 8
f 6 14 21
f 6 21 7
f 7 21 15
f 8 17 20
f 8 20 19
f 8 19 35
f 8 35 51
f 8 51 67
f 8 67 70
f 8 70 69
f 8 69 99
f 8 99 133
f 8 133 173
f 8 173 208
f 8 208 232
f 8 232 235
f 8 235 234
f 8 234 236
f 8 236 213
f 8 213 212
f 8 212 211
f 8 211 210
f 8 210 209
f 8 209 178
f 8 178 142
f 8 142 136
f 8 136 100
f 8 100 72
f 8 72 53
f 8 53 52
f 8 52 36
f 8 36 23
f 8 23 9
f 9 22 10
f 9 23 22
f 10 22 24
f 10 24 25
f 10 25 26
f 10 26 27
f 10 27 28
f 10 28 11
f 11 28 12
f 12 28 13
f 13 28 14
f 14 28 29
f 14 29 21
f 15 30 16
f 15 21 31
f 15 31 32
f 15 32 33
f 15 33 30
f 18 34 35
f 18 35 19
f 21 29 31
f 22 23 24
f 23 36 24
f 24 36 37
f 24 37 38
f 24 38 39
f 24 39 25
f 25 39 40
f 25 40 26
f 26 40 41
f 26 41 27
f 27 41 28
f 28 41 42
f 28 42 43
f 28 43 29
f 29 43 44
f 29 44 45
f 29 45 46
f 29 46 31
f 31 46 47
f 31 47 48
f 31 48 32
f 32 48 49
f 32 49 33
f 34 50 51
f 34 51 35
f 36 52 37
f 37 52 53
f 37 53 54
f 37 54 39
f 37 39 38
f 39 54 55
f 39 55 56
f 39 56 57
f 39 57 58
f 39 58 40
f 40 58 41
f 41 58 59
f 41 59 42
f 42 59 60
f 42 60 44
f 42 44 43
f 44 60 61
f 44 61 45
f 45 61 62
f 45 62 46
f 46 62 63
f 46 63 47
f 47 63 48
f 48 63 64
f 48 64 65
f 48 65 49
f 49 65 66
f 50 67 51
f 50 68 69
f 50 69 70
f 50 70 67
f 53 71 54
f 53 72 71
f 54 71 73
f 54 73 55
f 55 73 74
f 55 74 75
f 55 75 76
f 55 76 77
f 55 77 78
f 55 78 79
f 55 79 80
f 55 80 56
f 56 81 57
f 56 80 82
f 56 82 83
f 56 83 81
f 57 81 84
f 57 84 58
f 58 84 85
f 58 85 59
f 59 85 86
f 59 86 87
f 59 87 60
f 60 87 88
f 60 88 61
f 61 88 62
f 62 88 89
f 62 89 64
f 62 64 63
f 64 89 90
f 64 90 91
f 64 91 92
f 64 92 65
f 65 92 93
f 65 93 129
f 65 129 94
f 65 94 66
f 66 94 95
f 66 95 96
f 66 96 97
f 68 98 69
f 69 98 99
f 71 72 100
f 71 100 101
f 71 101 102
f 71 102 73
f 73 102 74
f 74 102 103
f 74 103 104
f 74 104 105
f 74 105 106
f 74 106 75
f 75 106 76
f 76 106 77
f 77 106 107
f 77 107 78
f 78 107 79
f 79 107 108
f 79 108 80
f 80 108 109
f 80 109 110
f 80 110 82
f 81 83 84
f 82 110 109
f 82 109 140
f 82 140 176
f 82 176 214
f 82 214 237
f 82 237 236
f 82 236 234
f 82 234 233
f 82 233 253
f 82 253 230
f 82 230 205
f 82 205 202
f 82 202 224
f 82 224 250
f 82 250 251
f 82 251 227
f 82 227 226
f 82 226 225
f 82 225 220
f 82 220 247
f 82 247 259
f 82 259 256
f 82 256 255
f 82 255 238
f 82 238 215
f 82 215 179
f 82 179 145
f 82 145 113
f 82 113 144
f 82 144 143
f 82 143 111
f 82 111 83
f 83 111 112
f 83 112 84
f 84 112 113
f 84 113 114
f 84 114 115
f 84 115 85
f 85 116 117
f 85 117 118
f 85 118 119
f 85 119 86
f 85 115 120
f 85 120 116
f 86 119 121
f 86 121 88
f 86 88 87
f 88 121 122
f 88 122 123
f 88 123 89
f 89 123 124
f 89 124 125
f 89 125 90
f 90 125 126
f 90 126 91
f 91 126 92
f 92 126 127
f 92 127 128
f 92 128 93
f 93 128 129
f 94 129 95
f 95 129 96
f 96 130 131
f 96 131 97
f 96 129 130
f 98 132 99
f 99 132 133
f 100 134 135
f 100 135 103
f 100 103 102
f 100 102 101
f 100 136 134
f 103 135 134
f 103 134 137
f 103 137 104
f 104 137 138
f 104 138 106
f 104 106 105
f 106 138 137
f 106 137 134
f 106 134 136
f 106 136 107
f 107 139 140
f 107 140 141
f 107 141 108
f 107 136 142
f 107 142 139
f 108 141 109
f 109 141 140
f 111 143 112
f 112 143 144
f 112 144 113
f 113 145 120
f 113 120 114
f 114 120 115
f 116 120 146
f 116 146 117
f 117 146 118
f 118 146 119
f 119 147 148
f 119 148 121
f 119 146 149
f 119 149 150
f 119 150 151
f 119 151 152
f 119 152 147
f 120 145 153
f 120 153 146
f 121 148 122
f 122 154 123
f 122 148 155
f 122 155 156
f 122 156 157
f 122 157 186
f 122 186 154
f 123 154 158
f 123 158 159
f 123 159 160
f 123 160 124
f 124 160 162
f 124 162 125
f 125 161 126
f 125 162 161
f 126 161 163
f 126 163 127
f 127 163 195
f 127 195 164
f 127 164 165
f 127 165 128
f 128 166 167
f 128 167 129
f 128 165 166
f 129 167 168
f 129 168 169
f 129 169 130
f 130 169 170
f 130 170 131
f 132 171 133
f 133 171 172
f 133 172 173
f 139 174 140
f 139 142 174
f 140 175 176
f 140 174 177
f 140 177 175
f 142 178 175
f 142 175 177
f 142 177 174
f 145 179 180
f 145 180 181
f 145 181 153
f 146 153 181
f 146 181 182
f 146 182 183
f 146 183 149
f 147 155 148
f 147 152 155
f 149 183 184
f 149 184 150
f 150 184 185
f 150 185 151
f 151 185 184
f 151 184 186
f 151 186 157
f 151 157 152
f 152 157 156
f 152 156 155
f 154 187 158
f 154 186 184
f 154 184 187
f 158 187 188
f 158 188 189
f 158 189 190
f 158 190 191
f 158 191 159
f 159 191 196
f 159 196 192
f 159 192 193
f 159 193 194
f 159 194 162
f 159 162 160
f 161 162 194
f 161 194 195
f 161 195 163
f 164 195 192
f 164 192 165
f 165 192 196
f 165 196 197
f 165 197 198
f 165 198 199
f 165 199 220
f 165 220 200
f 165 200 167
f 165 167 166
f 167 201 202
f 167 202 168
f 167 200 203
f 167 203 201
f 168 202 169
f 169 204 170
f 169 202 205
f 169 205 206
f 169 206 204
f 172 207 208
f 172 208 173
f 175 209 210
f 175 210 211
f 175 211 212
f 175 212 213
f 175 213 214
f 175 214 176
f 175 178 209
f 179 215 180
f 180 215 216
f 180 216 217
f 180 217 181
f 181 217 189
f 181 189 182
f 182 189 183
f 183 189 184
f 184 189 188
f 184 188 187
f 189 217 218
f 189 218 190
f 190 218 191
f 191 218 245
f 191 245 219
f 191 219 220
f 191 220 199
f 191 199 198
f 191 198 197
f 191 197 196
f 192 195 194
f 192 194 193
f 200 220 203
f 201 203 221
f 201 221 222
f 201 222 202
f 202 222 223
f 202 223 224
f 203 220 225
f 203 225 226
f 203 226 227
f 203 227 228
f 203 228 223
f 203 223 221
f 204 206 231
f 204 231 229
f 205 230 231
f 205 231 206
f 207 232 208
f 207 233 234
f 207 234 235
f 207 235 232
f 213 236 237
f 213 237 214
f 215 238 239
f 215 239 240
f 215 240 241
f 215 241 242
f 215 242 243
f 215 243 216
f 216 243 244
f 216 244 217
f 217 244 219
f 217 219 245
f 217 245 218
f 219 244 246
f 219 246 247
f 219 247 248
f 219 248 220
f 220 248 247
f 221 223 222
f 223 228 249
f 223 249 224
f 224 249 250
f 227 251 228
f 228 251 250
f 228 250 249
f 229 231 252
f 230 253 254
f 230 254 252
f 230 252 231
f 238 255 239
f 239 255 256
f 239 256 257
f 239 257 240
f 240 257 241
f 241 257 242
f 242 258 243
f 242 257 258
f 243 258 244
f 244 258 246
f 246 258 259
f 246 259 247
f 256 259 257
f 257 259 260
f 257 260 258
f 258 260 259

