# https://github.com/mikedh/trimesh
v -27.30705958 45.91946307 44.36729560
v -27.64447003 45.53839603 44.17438895
v -27.30705958 35.88465344 44.36396962
v -27.30705958 91.74298092 44.36396962
v -28.85216452 43.12495949 43.34955033
v -28.85216452 38.29808998 43.34955033
v -27.64447003 35.88465344 44.17106297
v -27.62352716 101.02623848 44.17771493
v -27.30705958 26.60139767 44.35399169
v -27.30705958 108.26654453 44.36064364
v -27.61887259 115.50684699 44.17771493
v -28.84983813 47.95182899 43.34955033
v -32.80102652 122.73657103 40.26304756
v -32.80567929 110.67998108 40.26304756
v -31.60263937 81.71875509 41.20429897
v -28.84983813 35.88465344 43.34955033
v -31.60263937 76.90246938 41.20429897
v -27.63981546 33.47121869 44.17106297
v -27.62817993 26.23090904 44.16773700
v -27.62585355 25.26765586 44.16773700
v -27.30705958 25.26765586 44.35066571
v -27.30705958 118.26960098 44.35731767
v -27.61421802 125.15000758 44.17771493
v -27.61654621 120.33372008 44.17771493
v -28.84052900 74.48903463 43.34289837
v -30.16457334 81.71875509 42.31849756
v -30.16457334 122.73657103 42.29521572
v -31.59100384 129.97688068 41.19099506
v -32.79637375 129.97688068 40.25972159
v -34.35776698 129.97688068 39.05239565
v -34.35544060 125.15000758 39.05571803
v -30.16457334 35.88465344 42.27858584
v -28.84285718 31.05778214 43.34289837
v -31.60031298 74.48903463 41.20429897
v -31.59798659 72.07559853 41.20096939
v -31.58635107 64.83529204 41.19431744
v -34.35544060 122.73657103 39.05571803
v -34.34845784 113.09341763 39.05904760
v -28.83354984 25.26765586 43.33291685
v -28.83354984 26.23090904 43.33624642
v -27.30705958 25.26765586 24.21523705
v -27.30705958 125.50990343 44.35399169
v -27.61189164 129.97688068 44.17438895
v -28.81958793 129.97688068 43.32626490
v -28.82656709 110.67998108 43.33291685
v -30.16457334 127.56344413 42.29188974
v -31.51654151 131.45881364 41.13112748
v -34.16695660 131.74461032 38.90272310
v -35.56313329 129.97688068 38.02466886
v -35.56313329 127.56344413 38.02799483
v -31.52585065 28.64434559 41.14775377
v -30.16457334 26.23090904 42.25197802
v -29.36177067 25.26765586 42.90386945
v -32.80800567 74.48903463 40.22313584
v -34.31355486 91.37249589 39.03909174
v -34.34147868 108.26654453 39.05571803
v -34.32053402 96.19936718 39.04574370
v -35.56313329 125.15000758 38.02799483
v -35.55848052 117.92028353 38.02799483
v -35.55150136 110.67998108 38.02799483
v -35.53986584 103.43967144 38.03132081
v -35.50030649 79.31590503 38.03464679
v -35.12101211 25.26765586 10.38917537
v -35.09076190 120.33372008 10.38917537
v -27.30705958 25.54287413 24.21523705
v -27.30705958 127.91275438 44.35066571
v -27.30705958 129.97688068 44.34733974
v -27.30705958 131.60700477 43.96152644
v -27.30705958 131.81870948 43.90498484
v -27.30705958 131.93515103 43.81185749
v -36.56838367 131.78695270 36.61112877
v -32.42405852 132.12568454 39.75084716
v -34.97906662 132.32680366 37.40936317
v -36.75686767 129.97688068 36.81733932
v -36.76152044 127.56344413 36.82066889
v -36.79177425 110.67998108 36.82399127
v -36.83598636 86.54562639 36.82732085
v -36.84063914 84.13218984 36.82732085
v -36.85227466 76.90246938 36.82732085
v -35.48401819 69.66216333 38.02466886
v -35.47238267 62.42185729 38.01469093
v -35.40955587 25.26765586 37.96480128
v -31.52119429 26.23090904 41.14443138
v -30.16457334 25.26765586 42.24865205
v -35.49099735 74.48903463 38.03132081
v -36.85460105 74.48903463 36.82399127
v -36.87321573 25.26765586 36.75747174
v -50.90947375 25.26765586 10.38917537
v -35.15358870 120.71478712 10.38917537
v -27.30705958 120.33372008 24.44472944
v -27.30705958 118.39662092 24.43807749
v -27.30705958 132.69728510 42.37503916
v -27.93534017 132.48558039 42.42492881
v -38.89302204 131.70227513 34.10002356
v -37.38515006 132.30563247 34.93816609
v -39.74236502 132.17860533 32.46364663
v -30.16457334 133.03600975 39.81404071
v -32.57763595 133.25830006 37.39938524
v -34.99070214 133.30064244 34.98805574
v -41.21533402 131.58583358 31.58558879
v -37.96456396 129.97688068 35.46699638
v -37.99481417 113.09341763 35.50358213
v -38.05066181 81.71875509 35.56677568
v -38.05764097 76.90246938 35.57675361
v -38.06229734 72.07559853 35.58673154
v -38.07160288 45.53839603 35.63994717
v -38.07160288 43.12495949 35.64327315
v -38.07392927 40.71152294 35.64327315
v -38.07858563 31.05778214 35.64327315
v -38.08091202 25.26765586 35.64327315
v -35.99362254 25.26765586 37.48586063
v -33.31295725 25.26765586 39.67767567
v -32.72656419 25.26765586 40.15661631
v -50.92343566 30.85666302 10.38917537
v -50.87689715 25.26765586 10.53551834
v -50.94205394 72.07559853 10.82155234
v -50.98626605 91.37249589 10.86146406
v -35.65155753 122.85301258 10.38917537
v -27.30705958 122.86359098 25.35271928
v -27.30705958 133.38532720 39.81404071
v -27.75151074 133.38532720 39.81404071
v -37.40376474 133.23712887 32.57340027
v -39.81450096 133.14186570 30.16207257
v -41.74588303 132.04099978 30.16207257
v -42.22523717 133.34298482 25.33941537
v -30.16457334 133.39591279 37.39938524
v -32.57763595 133.39591279 34.98805574
v -37.40376474 133.39591279 30.16207257
v -39.81450096 133.39591279 27.74741889
v -41.31539378 129.97688068 31.69867200
v -39.03729392 129.97688068 34.26299642
v -43.84015166 131.85046627 27.28843411
v -43.38639496 129.97688068 28.86827124
v -42.47422158 129.97688068 30.16207257
v -39.08616240 103.43967144 34.31621205
v -39.11175624 88.95906114 34.34614584
v -39.14200645 72.07559853 34.37940561
v -39.14666282 67.24872769 34.38938354
v -39.14898920 45.53839603 34.43262123
v -39.14898920 57.60557158 34.40933940
v -39.14898920 52.77870028 34.41931733
v -39.14898920 43.12495949 34.43594721
v -39.11873900 25.26765586 34.43927319
v -50.96997776 50.03712288 10.38917537
v -50.38590749 25.26765586 12.66081385
v -50.28817411 40.71152294 13.27279266
v -50.67445125 79.82399651 12.07544375
v -50.69073954 91.37249589 12.13198535
v -50.70470145 101.02623848 12.17189707
v -51.00255435 98.61280194 10.86146406
v -51.00255435 64.44363851 10.38917537
v -50.98626605 57.23508834 10.38917537
v -35.84469789 123.28700759 10.38917537
v -27.30705958 123.98562809 26.18753763
v -27.30705958 133.36415601 37.39938524
v -27.75151074 133.39591279 37.39938524
v -44.63830337 132.90898981 22.92475990
v -42.44862774 132.46440920 27.95362765
v -44.63830337 133.36415601 20.51343040
v -44.63830337 133.40649839 18.09877673
v -41.32004655 127.56344413 31.70532395
v -46.24158234 131.79753829 22.92475990
v -45.89020818 131.31061531 24.21191108
v -44.64295614 132.10451335 25.14318275
v -42.49051348 122.73657103 30.16207257
v -42.48120434 127.56344413 30.16207257
v -45.25262025 129.97688068 25.45915053
v -45.25494663 127.56344413 25.46247651
v -45.26658216 113.09341763 25.48575835
v -45.30148514 69.66216333 25.54895190
v -43.41431878 93.78593243 28.92148507
v -41.32935569 117.92028353 31.72527981
v -41.33633844 110.67998108 31.73858372
v -41.33866483 105.85310798 31.74856165
v -41.34099121 103.43967144 31.75188762
v -41.34099121 101.02623848 31.75521360
v -41.33633844 96.19936718 31.75521360
v -41.29445271 72.07559853 31.73525774
v -40.35435911 45.53839603 32.88271610
v -40.34737636 40.71152294 32.87273817
v -40.34504997 38.29808998 32.86608622
v -40.32876167 28.64434559 32.84280438
v -40.32177892 25.26765586 32.83615243
v -41.31539378 84.13218984 31.74523567
v -49.67618362 25.26765586 15.68744723
v -49.68316277 26.23090904 15.68744723
v -50.24628838 26.23090904 13.27279266
v -50.34169537 60.01900633 13.27279266
v -50.71401059 108.26654453 12.19850309
v -51.00720712 101.02623848 10.86146406
v -51.04909285 86.07987459 10.38917537
v -36.66379066 124.59957103 10.38917537
v -27.30705958 131.73402472 33.23194365
v -27.30705958 130.44262528 32.04124760
v -44.63830337 133.32181363 10.38917537
v -27.30705958 132.79255545 34.98140379
v -27.75151074 132.97250338 34.98805574
v -47.05136597 133.39591279 10.38917537
v -44.63830337 133.34298482 10.86146406
v -47.05136597 132.78196986 18.09877673
v -47.10023086 132.08334216 20.29724372
v -47.05136597 133.26888565 15.68744723
v -47.05136597 133.38532720 13.27279266
v -47.05136597 133.39591279 10.86146406
v -48.48477562 131.67051834 18.09877673
v -48.27534696 131.23652333 19.34934216
v -46.63716501 129.97688068 22.92475990
v -42.50214540 115.50684699 30.16207257
v -46.64647415 125.15000758 22.92475990
v -45.92045839 120.33372008 24.26845268
v -45.92278477 117.92028353 24.27177866
v -45.95303858 79.31590503 24.32832026
v -45.95769135 72.07559853 24.33829819
v -45.30381512 67.24872769 25.54895190
v -43.41664517 88.95906114 28.92813702
v -42.52076368 103.43967144 30.16207257
v -42.52309007 101.02623848 30.16207257
v -42.52309007 98.61280194 30.16207257
v -42.51378093 88.95906114 30.16207257
v -41.28979634 69.66216333 31.73193176
v -42.49283986 81.71875509 30.16207257
v -41.21533402 26.23090904 31.63215246
v -41.25721975 50.36526553 31.68869407
v -42.29737311 25.26765586 30.16207257
v -48.88268828 25.26765586 18.09877673
v -48.88501467 26.23090904 18.09877673
v -49.69014553 33.47121869 15.68744723
v -50.71401059 110.67998108 12.20182906
v -51.01185989 105.85310798 10.86146406
v -51.07469029 100.54990469 10.38917537
v -51.07236031 98.14705373 10.38917537
v -41.29445271 130.79194273 10.38917537
v -41.52714882 131.09891060 10.38917537
v -42.49981902 132.22094771 10.38917537
v -49.46442857 132.73962748 10.38917537
v -48.88268828 132.16801973 15.68744723
v -49.46442857 132.66552831 10.86146406
v -50.68143400 131.21535214 12.09872558
v -48.71281896 129.97688068 18.09877673
v -48.28698248 129.97688068 19.37594997
v -47.77970452 129.97688068 20.58327591
v -47.78436089 122.73657103 20.60655775
v -47.78436089 120.33372008 20.61653568
v -47.78436089 113.09341763 20.63649154
v -47.78203091 103.43967144 20.66642533
v -46.65112692 120.33372008 22.92475990
v -45.95769135 69.66216333 24.34162417
v -46.65577969 115.50684699 22.92475990
v -46.66276245 105.85310798 22.92475990
v -45.31544705 52.77870028 25.53564800
v -43.41431878 86.54562639 28.92481104
v -45.32708257 38.29808998 25.51901811
v -45.32940896 33.47121869 25.51569214
v -45.32940896 26.23090904 25.50571421
v -44.60339679 25.26765586 26.75627964
v -44.12404265 33.47121869 27.59774994
v -44.12404265 28.64434559 27.58777201
v -43.40733603 81.71875509 28.91483491
v -43.31193263 25.26765586 28.78844780
v -42.33460607 35.88465344 30.16207257
v -48.31490631 25.26765586 19.41918767
v -48.88734105 31.05778214 18.09877673
v -48.31956267 31.05778214 19.42916560
v -48.33817736 57.60557158 19.46907732
v -48.34283013 64.83529204 19.47905525
v -48.35213927 81.71875509 19.50566306
v -49.69014553 57.60557158 15.68744723
v -50.70702784 117.92028353 12.17189707
v -51.00953351 110.67998108 10.86146406
v -51.01185989 108.26654453 10.86146406
v -49.68781914 62.42185729 15.68744723
v -49.67851000 72.07559853 15.68744723
v -51.07934306 105.37677059 10.38917537
v -50.84664695 131.63876156 10.38917537
v -50.81407035 131.56466239 10.86146406
v -50.90947375 131.25769452 10.38917537
v -51.02582180 129.97688068 10.38917537
v -50.96066862 129.97688068 10.86146406
v -50.68841316 129.97688068 12.11868144
v -50.29050050 129.97688068 13.32600828
v -49.53889089 120.33372008 15.68744723
v -48.74074279 120.33372008 18.09877673
v -48.30094799 120.33372008 19.40920974
v -48.83847616 86.54562639 18.09877673
v -48.31490631 110.67998108 19.43914353
v -48.34283013 91.37249589 19.49235916
v -48.34981288 86.54562639 19.50233709
v -48.35213927 84.13218984 19.50566306
v -47.77737814 96.19936718 20.68638119
v -45.95769135 67.24872769 24.34162417
v -47.76807259 84.13218984 20.71298900
v -43.41199239 84.13218984 28.91815909
v -44.12171627 25.26765586 27.58112006
v -45.95303858 60.01900633 24.33497221
v -45.94372944 47.95182899 24.32499428
v -45.93675028 38.29808998 24.31501635
v -45.92976753 28.64434559 24.30171245
v -45.56676144 25.26765586 25.02344759
v -45.32940896 25.26765586 25.50238823
v -47.72386047 25.26765586 20.62651361
v -48.88734105 33.47121869 18.09877673
v -47.75410709 64.83529204 20.68638119
v -50.70004868 122.73657103 12.15194121
v -51.00488074 113.09341763 10.86146406
v -51.07469029 110.67998108 10.38917537
v -51.07701668 108.26654453 10.38917537
v -48.88268828 40.71152294 18.09877673
v -48.87570553 50.36526553 18.09877673
v -48.86174362 67.24872769 18.09877673
v -48.85011169 79.31590503 18.09877673
v -48.84778170 81.71875509 18.09877673
v -49.65756534 79.31590503 15.68744723
v -51.02814819 129.51112888 10.38917537
v -50.97463053 125.15000758 10.86146406
v -50.69306593 127.56344413 12.12865937
v -46.66276245 69.66216333 22.92475990
v -46.66043606 67.24872769 22.92475990
v -45.92744114 26.23090904 24.29838647
v -45.92744114 25.26765586 24.29506049
v -50.99324521 117.92028353 10.86146406
v -51.07003392 113.09341763 10.38917537
v -51.03978371 125.15000758 10.38917537
f 1 2 3
f 1 3 9
f 1 9 21
f 1 21 41
f 1 41 65
f 1 65 91
f 1 91 90
f 1 90 119
f 1 119 154
f 1 154 194
f 1 194 193
f 1 193 196
f 1 196 155
f 1 155 120
f 1 120 92
f 1 92 70
f 1 70 69
f 1 69 68
f 1 68 67
f 1 67 66
f 1 66 42
f 1 42 22
f 1 22 10
f 1 10 4
f 1 4 2
f 2 5 6
f 2 6 7
f 2 7 3
f 2 4 8
f 2 8 5
f 3 7 9
f 4 10 11
f 4 11 8
f 5 8 11
f 5 11 24
f 5 24 12
f 5 12 13
f 5 13 14
f 5 14 15
f 5 15 17
f 5 17 6
f 6 16 7
f 6 17 34
f 6 34 16
f 7 16 18
f 7 18 9
f 9 19 20
f 9 20 21
f 9 18 19
f 10 22 23
f 10 23 24
f 10 24 11
f 12 24 23
f 12 23 25
f 12 25 26
f 12 26 13
f 13 26 27
f 13 27 28
f 13 28 29
f 13 29 30
f 13 30 31
f 13 31 14
f 14 31 15
f 15 31 37
f 15 37 17
f 16 32 33
f 16 33 20
f 16 20 19
f 16 19 18
f 16 34 35
f 16 35 36
f 16 36 32
f 17 37 38
f 17 38 34
f 20 39 53
f 20 53 84
f 20 84 113
f 20 113 112
f 20 112 82
f 20 82 111
f 20 111 87
f 20 87 110
f 20 110 143
f 20 143 183
f 20 183 224
f 20 224 259
f 20 259 293
f 20 293 255
f 20 255 299
f 20 299 298
f 20 298 319
f 20 319 300
f 20 300 261
f 20 261 225
f 20 225 185
f 20 185 145
f 20 145 115
f 20 115 88
f 20 88 63
f 20 63 41
f 20 41 21
f 20 33 40
f 20 40 39
f 22 42 23
f 23 42 43
f 23 43 44
f 23 44 45
f 23 45 25
f 25 45 27
f 25 27 26
f 27 45 44
f 27 44 46
f 27 46 28
f 28 46 44
f 28 44 47
f 28 47 29
f 29 47 30
f 30 47 48
f 30 48 49
f 30 49 50
f 30 50 31
f 31 50 58
f 31 58 37
f 32 51 52
f 32 52 53
f 32 53 33
f 32 36 54
f 32 54 55
f 32 55 51
f 33 53 40
f 34 38 56
f 34 56 35
f 35 56 36
f 36 56 57
f 36 57 55
f 36 55 54
f 37 58 38
f 38 58 59
f 38 59 60
f 38 60 61
f 38 61 62
f 38 62 56
f 39 40 53
f 41 63 64
f 41 64 65
f 42 66 43
f 43 66 67
f 43 67 68
f 43 68 47
f 43 47 44
f 47 68 69
f 47 69 70
f 47 70 48
f 48 71 49
f 48 70 72
f 48 72 73
f 48 73 71
f 49 71 74
f 49 74 75
f 49 75 76
f 49 76 77
f 49 77 78
f 49 78 79
f 49 79 50
f 50 79 58
f 51 80 81
f 51 81 82
f 51 82 83
f 51 83 52
f 51 55 80
f 52 83 84
f 52 84 53
f 55 57 85
f 55 85 80
f 56 62 57
f 57 62 85
f 58 79 86
f 58 86 59
f 59 86 60
f 60 86 61
f 61 86 87
f 61 87 62
f 62 87 85
f 63 88 114
f 63 114 144
f 63 144 152
f 63 152 151
f 63 151 191
f 63 191 231
f 63 231 230
f 63 230 273
f 63 273 306
f 63 306 305
f 63 305 321
f 63 321 322
f 63 322 313
f 63 313 277
f 63 277 276
f 63 276 274
f 63 274 235
f 63 235 198
f 63 198 195
f 63 195 234
f 63 234 233
f 63 233 232
f 63 232 192
f 63 192 153
f 63 153 118
f 63 118 89
f 63 89 64
f 64 89 90
f 64 90 91
f 64 91 65
f 70 92 93
f 70 93 72
f 71 94 74
f 71 73 95
f 71 95 96
f 71 96 94
f 72 93 97
f 72 97 73
f 73 97 98
f 73 98 99
f 73 99 95
f 74 94 100
f 74 100 101
f 74 101 102
f 74 102 103
f 74 103 104
f 74 104 75
f 75 104 105
f 75 105 106
f 75 106 76
f 76 106 77
f 77 106 78
f 78 106 79
f 79 106 107
f 79 107 108
f 79 108 109
f 79 109 110
f 79 110 86
f 80 85 87
f 80 87 111
f 80 111 81
f 81 111 82
f 82 112 83
f 83 112 113
f 83 113 84
f 86 110 87
f 88 115 116
f 88 116 117
f 88 117 114
f 89 118 119
f 89 119 90
f 92 120 121
f 92 121 97
f 92 97 93
f 94 96 100
f 95 99 122
f 95 122 123
f 95 123 96
f 96 123 124
f 96 124 100
f 97 121 98
f 98 121 99
f 99 125 122
f 99 121 126
f 99 126 127
f 99 127 128
f 99 128 129
f 99 129 125
f 100 130 131
f 100 131 101
f 100 124 132
f 100 132 133
f 100 133 134
f 100 134 130
f 101 131 102
f 102 131 135
f 102 135 136
f 102 136 103
f 103 136 137
f 103 137 104
f 104 137 138
f 104 138 105
f 105 138 106
f 106 139 142
f 106 142 107
f 106 138 140
f 106 140 141
f 106 141 139
f 107 142 108
f 108 142 109
f 109 142 110
f 110 142 143
f 114 117 144
f 115 145 146
f 115 146 147
f 115 147 116
f 116 147 117
f 117 147 148
f 117 148 149
f 117 149 150
f 117 150 151
f 117 151 152
f 117 152 144
f 118 153 154
f 118 154 119
f 120 155 156
f 120 156 126
f 120 126 121
f 122 125 123
f 123 157 158
f 123 158 124
f 123 125 157
f 124 158 132
f 125 129 159
f 125 159 157
f 126 156 160
f 126 160 127
f 127 160 128
f 128 160 129
f 129 160 159
f 130 134 161
f 130 161 131
f 131 161 135
f 132 162 163
f 132 163 133
f 132 158 157
f 132 157 164
f 132 164 162
f 133 165 166
f 133 166 134
f 133 163 167
f 133 167 168
f 133 168 169
f 133 169 170
f 133 170 171
f 133 171 165
f 134 166 161
f 135 161 136
f 136 161 137
f 137 161 172
f 137 172 138
f 138 172 173
f 138 173 174
f 138 174 175
f 138 175 140
f 139 141 175
f 139 175 176
f 139 176 142
f 140 175 141
f 142 176 177
f 142 177 143
f 143 178 179
f 143 179 180
f 143 180 181
f 143 181 182
f 143 182 183
f 143 177 184
f 143 184 178
f 145 185 186
f 145 186 187
f 145 187 146
f 146 187 186
f 146 186 188
f 146 188 147
f 147 188 148
f 148 188 186
f 148 186 149
f 149 189 150
f 149 186 189
f 150 189 190
f 150 190 231
f 150 231 191
f 150 191 151
f 153 192 193
f 153 193 194
f 153 194 154
f 155 195 156
f 155 196 197
f 155 197 195
f 156 198 160
f 156 195 199
f 156 199 198
f 157 200 201
f 157 201 162
f 157 162 164
f 157 159 202
f 157 202 200
f 159 203 202
f 159 160 203
f 160 198 204
f 160 204 203
f 161 166 172
f 162 201 205
f 162 205 206
f 162 206 163
f 163 206 207
f 163 207 167
f 165 208 175
f 165 175 166
f 165 171 208
f 166 175 174
f 166 174 173
f 166 173 172
f 167 207 209
f 167 209 210
f 167 210 211
f 167 211 168
f 168 211 169
f 169 211 170
f 170 212 213
f 170 213 214
f 170 214 215
f 170 215 171
f 170 211 212
f 171 215 216
f 171 216 208
f 175 208 216
f 175 216 176
f 176 216 217
f 176 217 218
f 176 218 219
f 176 219 177
f 177 219 184
f 178 220 179
f 178 184 219
f 178 219 221
f 178 221 220
f 179 220 180
f 180 220 181
f 181 222 182
f 181 220 221
f 181 221 223
f 181 223 222
f 182 222 183
f 183 222 224
f 185 225 186
f 186 225 226
f 186 226 227
f 186 227 189
f 189 228 229
f 189 229 190
f 189 227 228
f 190 230 231
f 190 229 273
f 190 273 230
f 192 232 193
f 193 232 233
f 193 233 234
f 193 234 196
f 195 198 199
f 195 197 196
f 195 196 234
f 198 235 204
f 200 202 236
f 200 236 201
f 201 236 205
f 202 203 235
f 202 235 237
f 202 237 236
f 203 204 235
f 205 238 206
f 205 236 238
f 206 238 239
f 206 239 240
f 206 240 241
f 206 241 207
f 207 241 242
f 207 242 243
f 207 243 209
f 209 211 210
f 209 243 244
f 209 244 245
f 209 245 246
f 209 246 213
f 209 213 212
f 209 212 211
f 213 247 214
f 213 246 248
f 213 248 249
f 213 249 247
f 214 247 250
f 214 250 215
f 215 251 219
f 215 219 218
f 215 218 217
f 215 217 216
f 215 250 252
f 215 252 253
f 215 253 254
f 215 254 255
f 215 255 256
f 215 256 257
f 215 257 251
f 219 251 221
f 221 251 258
f 221 258 259
f 221 259 260
f 221 260 223
f 222 259 224
f 222 223 260
f 222 260 259
f 225 261 226
f 226 262 227
f 226 261 263
f 226 263 264
f 226 264 265
f 226 265 266
f 226 266 262
f 227 262 301
f 227 301 267
f 227 267 228
f 228 268 269
f 228 269 270
f 228 270 229
f 228 267 271
f 228 271 272
f 228 272 268
f 229 270 273
f 235 274 237
f 236 237 274
f 236 274 275
f 236 275 238
f 238 275 276
f 238 276 277
f 238 277 278
f 238 278 279
f 238 279 280
f 238 280 239
f 239 280 281
f 239 281 282
f 239 282 240
f 240 283 241
f 240 282 284
f 240 284 283
f 241 283 285
f 241 285 286
f 241 286 287
f 241 287 242
f 242 287 243
f 243 287 288
f 243 288 244
f 244 288 245
f 245 288 289
f 245 289 249
f 245 249 248
f 245 248 246
f 247 290 253
f 247 253 252
f 247 252 250
f 247 249 291
f 247 291 290
f 249 289 291
f 251 292 258
f 251 257 293
f 251 293 292
f 253 290 254
f 254 290 294
f 254 294 295
f 254 295 296
f 254 296 297
f 254 297 298
f 254 298 299
f 254 299 255
f 255 293 257
f 255 257 256
f 258 292 293
f 258 293 259
f 261 300 263
f 262 266 288
f 262 288 301
f 263 300 297
f 263 297 302
f 263 302 264
f 264 302 291
f 264 291 266
f 264 266 265
f 266 291 288
f 267 301 271
f 268 303 304
f 268 304 269
f 268 272 303
f 269 304 321
f 269 321 305
f 269 305 306
f 269 306 270
f 270 306 273
f 271 301 307
f 271 307 308
f 271 308 309
f 271 309 310
f 271 310 272
f 272 310 311
f 272 311 284
f 272 284 282
f 272 282 312
f 272 312 303
f 274 276 275
f 277 313 278
f 278 313 314
f 278 314 279
f 279 314 315
f 279 315 280
f 280 315 303
f 280 303 281
f 281 303 312
f 281 312 282
f 283 284 285
f 284 311 287
f 284 287 286
f 284 286 285
f 287 311 288
f 288 311 310
f 288 310 309
f 288 309 308
f 288 308 307
f 288 307 301
f 288 291 289
f 290 291 316
f 290 316 317
f 290 317 294
f 291 302 317
f 291 317 316
f 294 317 295
f 295 317 296
f 296 317 297
f 297 300 318
f 297 318 298
f 297 317 302
f 298 318 319
f 300 319 318
f 303 315 320
f 303 320 304
f 304 320 321
f 313 322 314
f 314 322 320
f 314 320 315
f 320 322 321

