# https://github.com/mikedh/trimesh
v -21.37818973 20.84256434 -29.01026707
v -21.37818973 20.83154367 -31.06656743
v -20.66666983 20.83154367 -29.10322003
v -19.26159031 120.32445049 -30.88972975
v -21.37818973 25.27230503 -29.38207890
v -21.37818973 20.83154367 -47.47616330
v -2.38266048 20.83154367 -36.36035372
v 1.55201578 25.27230503 -36.41022899
v 1.55201578 25.43759708 -36.41022899
v 1.55201578 120.32445049 -36.58253256
v -19.26159031 121.70185789 -31.03482863
v -21.37818973 25.27230503 -47.17010154
v -19.26159031 122.04345188 -31.11644630
v -19.26159031 123.33270831 -31.73084228
v -19.26159031 123.76245686 -31.98022581
v -19.26159031 124.94151739 -32.85307715
v -19.26159031 130.20872103 -37.10397738
v -19.26159031 131.29962700 -37.98589696
v -19.26159031 131.58612843 -38.24434872
v -19.26159031 132.05996325 -38.82474064
v -19.26159031 132.58888343 -39.77920605
v -19.26159031 133.16188629 -41.06014574
v -19.26159031 133.32717115 -42.22545651
v -19.26159031 133.39328797 -43.47238494
v -20.33672396 20.83154367 -48.20618462
v -19.26159031 131.14535921 -48.28099932
v -2.38266048 20.83154367 -52.16915595
v 1.55201578 25.27230503 -52.06486771
v 1.55201578 120.61094833 -36.63921080
v 1.55201578 122.70460930 -37.09037144
v -19.26159031 133.38227089 -44.63769930
v -19.26159031 133.06271825 -45.88689659
v -19.26159031 132.37951589 -47.06127558
v -19.26159031 131.87262986 -47.74142163
v -19.26159031 131.21147603 -48.26966583
v 1.55201578 124.64399888 -38.11965515
v 1.55201578 130.14261140 -41.67907584
v 1.55201578 130.40707149 -41.85137941
v 1.55201578 131.96078801 -42.88519724
v 1.55201578 133.06271825 -44.63769930
v 1.55201578 133.11781080 -44.98684055
v 1.55201578 133.40431223 -47.05220735
v -18.09442959 133.39328797 -44.63769930
v -18.19318952 20.83154367 -49.07677070
v -19.26159031 129.87815131 -48.28553703
v -18.09442959 129.97731935 -48.78203883
v -15.68155036 129.97731935 -49.59367782
v -1.20876690 64.85349052 -52.07166708
v 1.20411233 50.37418275 -52.10794360
v 1.20411233 47.96096374 -52.11247771
v 1.20411233 43.13452931 -52.11474297
v 1.20411233 26.23098095 -52.11247771
v 1.20411233 25.27230503 -52.10567474
v -3.62164567 20.83154367 -52.11020886
v -6.03452444 122.73766771 -51.78374177
v -3.62164567 103.43192281 -51.93337117
v 1.55201578 26.09875091 -52.06940182
v -13.26867204 133.38227089 -47.05220735
v -15.68155036 133.31615407 -47.05220735
v -18.09442959 132.78723389 -47.05220735
v -18.09442959 131.67428658 -48.51678410
v -15.68155036 132.20321396 -48.92260360
v -10.85579282 133.39328797 -47.05220735
v 1.55201578 133.29411993 -49.46445014
v -1.20876690 133.30513700 -49.46445014
v -3.62164567 133.30513700 -49.46445014
v -13.53352765 20.83154367 -50.87234866
v -12.72549420 20.83154367 -51.18294813
v -10.20487671 131.55307721 -50.80886745
v -8.44740366 129.97731935 -51.38699051
v -1.20876690 67.25568976 -52.06486771
v -3.62164567 105.84514002 -51.92657180
v 1.20411233 52.78739996 -52.09887537
v 1.55201578 79.31076056 -51.98098118
v 1.55201578 52.78739996 -52.07393594
v 1.55201578 50.37418275 -52.08073891
v 1.55201578 47.96096374 -52.08300417
v 1.55201578 43.13452931 -52.08300417
v 1.55201578 31.06843965 -52.07393594
v -6.03452444 20.83154367 -51.96511357
v -6.03452444 129.97731935 -51.76333646
v -8.44740366 20.83154367 -51.80641235
v -10.85803740 20.83154367 -51.60010112
v -6.03452444 133.28310285 -49.46445014
v -8.44740366 133.05169398 -49.46445014
v -8.44740366 131.94976375 -51.02651576
v 1.55201578 132.19219689 -51.21922106
v -3.62164567 132.20321396 -51.24642575
v -3.62164567 108.25835724 -51.91750357
v -3.62164567 117.91122969 -51.87896179
v -3.62164567 129.97731935 -51.82908293
v 1.55201578 129.97731935 -51.77693880
v 1.55201578 98.25287013 -51.90843534
v 1.20411233 62.44027241 -52.06033359
v 1.55201578 88.95261413 -51.94470826
v -6.03452444 132.18117262 -51.21468694
v 1.20411233 132.19219689 -51.22148991
f 1 2 3
f 1 3 4
f 1 4 5
f 1 5 12
f 1 12 6
f 1 6 2
f 2 6 25
f 2 25 44
f 2 44 67
f 2 67 68
f 2 68 83
f 2 83 82
f 2 82 80
f 2 80 54
f 2 54 27
f 2 27 7
f 2 7 3
f 3 7 8
f 3 8 9
f 3 9 10
f 3 10 4
f 4 10 11
f 4 11 5
f 5 11 13
f 5 13 14
f 5 14 15
f 5 15 16
f 5 16 17
f 5 17 18
f 5 18 19
f 5 19 20
f 5 20 21
f 5 21 22
f 5 22 23
f 5 23 24
f 5 24 12
f 6 12 26
f 6 26 25
f 7 27 28
f 7 28 8
f 8 28 57
f 8 57 79
f 8 79 78
f 8 78 77
f 8 77 76
f 8 76 75
f 8 75 74
f 8 74 95
f 8 95 93
f 8 93 92
f 8 92 87
f 8 87 64
f 8 64 42
f 8 42 41
f 8 41 40
f 8 40 39
f 8 39 38
f 8 38 37
f 8 37 36
f 8 36 30
f 8 30 29
f 8 29 10
f 8 10 9
f 10 29 11
f 11 29 30
f 11 30 13
f 12 24 31
f 12 31 32
f 12 32 33
f 12 33 34
f 12 34 35
f 12 35 26
f 13 30 14
f 14 36 15
f 14 30 36
f 15 36 37
f 15 37 38
f 15 38 39
f 15 39 16
f 16 39 17
f 17 39 18
f 18 39 19
f 19 39 20
f 20 39 40
f 20 40 21
f 21 40 22
f 22 40 41
f 22 41 23
f 23 42 24
f 23 41 42
f 24 43 31
f 24 42 43
f 25 26 45
f 25 45 46
f 25 46 44
f 26 35 47
f 26 47 46
f 26 46 45
f 27 48 49
f 27 49 50
f 27 50 51
f 27 51 52
f 27 52 53
f 27 53 28
f 27 54 55
f 27 55 56
f 27 56 48
f 28 53 52
f 28 52 57
f 31 43 58
f 31 58 59
f 31 59 32
f 32 60 33
f 32 59 60
f 33 60 34
f 34 61 35
f 34 60 62
f 34 62 61
f 35 61 47
f 42 63 43
f 42 64 65
f 42 65 66
f 42 66 63
f 43 63 58
f 44 46 67
f 46 47 68
f 46 68 67
f 47 61 69
f 47 69 70
f 47 70 68
f 48 71 49
f 48 56 72
f 48 72 71
f 49 71 73
f 49 73 74
f 49 74 75
f 49 75 76
f 49 76 50
f 50 76 77
f 50 77 51
f 51 77 78
f 51 78 52
f 52 78 79
f 52 79 57
f 54 80 55
f 55 81 72
f 55 72 56
f 55 80 82
f 55 82 83
f 55 83 81
f 58 63 66
f 58 66 84
f 58 84 59
f 59 84 85
f 59 85 62
f 59 62 60
f 61 62 69
f 62 85 86
f 62 86 69
f 64 87 88
f 64 88 65
f 65 88 66
f 66 88 84
f 68 70 83
f 69 86 70
f 70 86 81
f 70 81 83
f 71 72 89
f 71 89 90
f 71 90 91
f 71 91 92
f 71 92 93
f 71 93 94
f 71 94 73
f 72 81 89
f 73 94 93
f 73 93 95
f 73 95 74
f 81 86 96
f 81 96 91
f 81 91 90
f 81 90 89
f 84 88 96
f 84 96 85
f 85 96 86
f 87 97 88
f 87 92 91
f 87 91 97
f 88 97 91
f 88 91 96

