# https://github.com/mikedh/trimesh
v -47.05212105 133.39578335 10.38917537
v -44.63958342 133.32168418 10.38917537
v -44.63958342 133.39578335 -13.27033233
v -47.05212105 133.39578335 -8.44357879
v -49.46465869 133.33226978 -1.20727279
v -49.46465869 133.30051299 1.20482921
v -49.46465869 133.24758502 3.61948109
v -49.46465869 133.16290745 6.03158275
v -49.46465869 133.05705150 8.44368396
v -49.46465869 132.73949803 10.38917537
v -42.22891193 133.25817061 -15.65948565
v -42.25318616 133.26875621 -15.65948565
v -42.50153414 132.22081826 10.38917537
v -40.09646827 132.16789029 -15.65948565
v -44.63958342 133.39578335 -15.65948565
v -44.66385766 133.39578335 -15.65948565
v -47.05212105 133.38519775 -10.85822977
v -49.46465869 133.33226978 -3.61937479
v -51.31700837 132.23140386 -3.61937479
v -51.29833615 132.22081826 -1.20727279
v -51.21990782 132.18906148 1.20482921
v -51.14148309 132.13614070 3.61948109
v -51.06118862 132.06204153 6.03158275
v -50.98276389 131.94559999 8.44368396
v -50.84831892 131.63863211 10.38917537
v -40.07966220 132.15730469 -15.65948565
v -41.53054671 131.09878835 10.38917537
v -38.87339338 130.80239888 -15.65948565
v -47.05212105 133.31109859 -15.65948565
v -47.05212105 133.36402656 -13.27033233
v -49.46465869 133.22641383 -6.03147668
v -51.16575733 132.11496951 -6.03147668
v -51.96308922 129.97675124 -3.61937479
v -51.92947708 129.97675124 -1.20727279
v -51.29647001 129.97675124 8.44368396
v -50.90807144 131.25756508 10.38917537
v -41.29526533 130.79181328 10.38917537
v -36.66438754 124.59945597 10.38917537
v -37.86505434 129.36280830 -15.65948565
v -47.07452555 133.30051299 -15.65948565
v -48.93434699 132.21023267 -15.65948565
v -50.90807144 131.76565206 -8.44357879
v -51.66059075 129.97675124 -6.03147668
v -52.01163770 86.54554908 -1.20727279
v -51.99296908 98.61271204 -1.20727279
v -51.95748720 117.92017566 -1.20727279
v -51.95188518 120.33360502 -1.20727279
v -51.96869125 125.14988533 -3.61937479
v -52.09006602 26.23090185 -1.20727279
v -51.51680787 103.43957795 6.03158275
v -51.04065027 124.68413353 10.38917537
v -51.03318210 127.56331469 10.38917537
v -51.02758008 129.51099944 10.38917537
v -51.02571034 129.97675124 10.38917537
v -51.31887451 120.33360502 8.44368396
v -51.06492450 115.03040172 10.38917537
v -51.05185431 120.33360502 10.38917537
v -34.94088081 125.18164212 -15.65948565
v -34.96889093 125.22398450 -15.65948565
v -35.84278141 123.28688534 10.38917537
v -33.92694333 123.61502440 -15.65948565
v -49.59910006 130.00850802 -15.65948565
v -50.74375022 131.40575622 -9.98875205
v -50.79229869 86.54554908 -10.21313412
v -50.79229869 84.13211613 -10.21568344
v -51.66059075 122.73645597 -6.03147668
v -51.97242713 115.50673912 -3.61937479
v -51.97056099 120.33360502 -3.61937479
v -50.78109824 129.97675124 -10.15958769
v -49.61217385 125.18164212 -15.65948565
v -49.64391625 64.86699668 -15.65948565
v -49.65138801 50.38640077 -15.65948565
v -51.91454075 60.01896139 1.20482921
v -51.81370793 35.88463546 3.61948109
v -51.86972456 86.54554908 1.20482921
v -51.79876800 45.53836727 3.61948109
v -51.77262762 60.01896139 3.61948109
v -51.66245689 40.71150136 6.03158275
v -51.61764070 60.01896139 6.03158275
v -51.96495896 45.53836727 -3.61937479
v -51.96308922 28.64433840 -3.61937479
v -51.96122308 26.23090185 -3.61937479
v -51.95748720 25.27823426 -3.61937479
v -52.03404579 25.27823426 -2.16599422
v -52.08446400 25.27823426 -1.20727279
v -51.95748720 25.27823426 1.20482921
v -51.87906247 25.27823426 2.65821000
v -51.82677811 25.27823426 3.61948109
v -51.82304583 28.64433840 3.61948109
v -51.35248665 105.85300731 8.44368396
v -51.07612855 110.20354301 10.38917537
v -35.65231980 122.85289033 10.38917537
v -33.56282260 122.81054795 -15.65948565
v -49.60843796 129.97675124 -15.65948565
v -50.11820771 129.97675124 -13.27033233
v -49.65512029 40.73267255 -15.65948565
v -50.79229869 81.71868317 -10.21568344
v -51.65872101 117.92017566 -6.03147668
v -49.61030411 127.59507147 -15.65948565
v -51.68859727 25.27823426 6.03158275
v -51.67552708 33.47120430 6.03158275
v -51.65498872 110.67987321 -6.03147668
v -51.79129983 25.27823426 -4.57809633
v -51.64938670 103.43957795 -6.03147668
v -51.64004879 96.19927909 -6.03147668
v -51.35995481 101.02614500 8.44368396
v -51.07799469 107.79010646 10.38917537
v -35.15188436 120.71467206 10.38917537
v -33.45265187 122.55650086 -15.65948565
v -49.65512029 40.71150136 -15.65948565
v -49.65138801 31.05776776 -15.65948565
v -50.54021483 62.42180874 -11.39368685
v -50.54021483 60.01896139 -11.38603710
v -51.48319573 25.27823426 7.48496354
v -51.35062051 31.05776776 8.44368396
v -51.35808867 60.01896139 8.44368396
v -51.36369070 84.13211613 8.44368396
v -51.36369070 93.78584614 8.44368396
v -51.36182455 98.61271204 8.44368396
v -51.53361395 25.27823426 -6.03147668
v -51.14708512 81.71868317 -8.44357879
v -50.13314764 33.47120430 -13.27033233
v -51.34688463 25.27823426 -6.99019800
v -51.07799469 102.96324056 10.38917537
v -35.09026570 120.33360502 10.38917537
v -33.01383869 120.33360502 -15.65948565
v -49.64765213 26.23090185 -15.65948565
v -50.14248195 40.71150136 -13.27033233
v -51.34688463 25.27823426 8.44368396
v -50.12194359 26.23090185 -13.27033233
v -51.06305476 25.27823426 -8.44357879
v -51.07612855 100.56039680 10.38917537
v -35.12200810 25.27823426 10.38917537
v -33.16882560 25.27823426 -15.65948565
v -49.64205011 25.27823426 -15.65948565
v -51.06305476 25.27823426 9.70583099
v -50.94168358 38.04402132 10.38917537
v -50.96969370 50.03708872 10.38917537
v -50.99209820 59.63789255 10.38917537
v -51.05932248 90.90666499 10.38917537
v -51.06865679 95.73352909 10.38917537
v -49.92587637 25.27823426 -14.22905320
v -50.51407445 25.27823426 -11.25089817
v -50.90807144 25.27823426 10.38917537
v -50.91740935 28.64433840 10.38917537
f 1 2 3
f 1 3 15
f 1 15 16
f 1 16 4
f 1 4 18
f 1 18 5
f 1 5 6
f 1 6 7
f 1 7 8
f 1 8 9
f 1 9 10
f 1 10 25
f 1 25 36
f 1 36 54
f 1 54 53
f 1 53 52
f 1 52 51
f 1 51 57
f 1 57 56
f 1 56 91
f 1 91 107
f 1 107 124
f 1 124 132
f 1 132 141
f 1 141 140
f 1 140 139
f 1 139 138
f 1 138 137
f 1 137 145
f 1 145 144
f 1 144 133
f 1 133 125
f 1 125 108
f 1 108 92
f 1 92 60
f 1 60 38
f 1 38 37
f 1 37 27
f 1 27 13
f 1 13 2
f 2 11 12
f 2 12 3
f 2 13 14
f 2 14 11
f 3 12 15
f 4 16 17
f 4 17 18
f 5 18 19
f 5 19 20
f 5 20 6
f 6 20 7
f 7 20 21
f 7 21 8
f 8 21 22
f 8 22 9
f 9 22 23
f 9 23 24
f 9 24 10
f 10 24 25
f 11 14 26
f 11 26 28
f 11 28 39
f 11 39 59
f 11 59 58
f 11 58 61
f 11 61 93
f 11 93 109
f 11 109 126
f 11 126 134
f 11 134 135
f 11 135 127
f 11 127 111
f 11 111 110
f 11 110 96
f 11 96 72
f 11 72 71
f 11 71 70
f 11 70 99
f 11 99 94
f 11 94 62
f 11 62 41
f 11 41 40
f 11 40 29
f 11 29 16
f 11 16 15
f 11 15 12
f 13 26 14
f 13 27 28
f 13 28 26
f 16 29 30
f 16 30 17
f 17 30 18
f 18 30 29
f 18 29 31
f 18 31 19
f 19 31 32
f 19 32 33
f 19 33 20
f 20 33 34
f 20 34 21
f 21 34 22
f 22 34 23
f 23 34 24
f 24 34 35
f 24 35 25
f 25 35 36
f 27 37 28
f 28 37 38
f 28 38 39
f 29 40 31
f 31 41 32
f 31 40 41
f 32 42 43
f 32 43 33
f 32 41 42
f 33 44 45
f 33 45 46
f 33 46 47
f 33 47 34
f 33 43 48
f 33 48 49
f 33 49 44
f 34 47 50
f 34 50 35
f 35 51 52
f 35 52 53
f 35 53 54
f 35 54 36
f 35 50 55
f 35 55 56
f 35 56 57
f 35 57 51
f 38 58 59
f 38 59 39
f 38 60 61
f 38 61 58
f 41 62 63
f 41 63 42
f 42 63 43
f 43 64 65
f 43 65 97
f 43 97 66
f 43 66 67
f 43 67 68
f 43 68 48
f 43 63 69
f 43 69 70
f 43 70 71
f 43 71 72
f 43 72 64
f 44 49 73
f 44 73 74
f 44 74 76
f 44 76 45
f 45 75 46
f 45 76 77
f 45 77 75
f 46 75 78
f 46 78 79
f 46 79 47
f 47 79 50
f 48 68 49
f 49 80 81
f 49 81 82
f 49 82 83
f 49 83 84
f 49 84 85
f 49 85 86
f 49 86 87
f 49 87 88
f 49 88 89
f 49 89 74
f 49 74 73
f 49 68 67
f 49 67 80
f 50 79 55
f 55 90 91
f 55 91 56
f 55 79 78
f 55 78 90
f 60 92 93
f 60 93 61
f 62 94 63
f 63 94 95
f 63 95 69
f 64 72 96
f 64 96 65
f 65 96 110
f 65 110 97
f 66 97 98
f 66 98 81
f 66 81 80
f 66 80 67
f 69 95 70
f 70 95 99
f 74 89 100
f 74 100 76
f 75 77 78
f 76 100 101
f 76 101 78
f 76 78 77
f 78 101 90
f 81 98 102
f 81 102 104
f 81 104 82
f 82 103 83
f 82 104 105
f 82 105 103
f 83 103 120
f 83 120 123
f 83 123 131
f 83 131 143
f 83 143 142
f 83 142 135
f 83 135 134
f 83 134 133
f 83 133 144
f 83 144 136
f 83 136 129
f 83 129 114
f 83 114 100
f 83 100 88
f 83 88 87
f 83 87 86
f 83 86 85
f 83 85 84
f 88 100 89
f 90 106 91
f 90 101 100
f 90 100 106
f 91 106 119
f 91 119 107
f 92 108 109
f 92 109 93
f 94 99 95
f 97 104 102
f 97 102 98
f 97 110 111
f 97 111 112
f 97 112 113
f 97 113 104
f 100 114 115
f 100 115 116
f 100 116 117
f 100 117 118
f 100 118 119
f 100 119 106
f 103 105 120
f 104 113 121
f 104 121 105
f 105 121 113
f 105 113 122
f 105 122 123
f 105 123 120
f 107 119 118
f 107 118 117
f 107 117 124
f 108 125 126
f 108 126 109
f 111 127 113
f 111 113 112
f 113 127 128
f 113 128 122
f 114 129 115
f 115 129 124
f 115 124 116
f 116 124 117
f 122 128 127
f 122 127 130
f 122 130 123
f 123 130 131
f 124 129 132
f 125 133 126
f 126 133 134
f 127 135 130
f 129 136 137
f 129 137 138
f 129 138 139
f 129 139 140
f 129 140 141
f 129 141 132
f 130 135 142
f 130 142 143
f 130 143 131
f 136 144 145
f 136 145 137

