# https://github.com/mikedh/trimesh
v 22.35384611 129.97719710 46.78725825
v 24.32992931 129.97719710 45.93217661
v 24.26527952 131.35328129 45.90367030
v 22.35384611 131.38503808 46.52004389
v 22.35384611 25.26764866 46.71599965
v 25.53300879 127.56375336 45.37993145
v 25.53581879 129.97719710 45.37993145
v 22.92446506 25.26764866 46.46660174
v 24.95957805 25.26764866 45.57232391
v 25.44024820 28.64435278 45.36211859
v 25.44586820 43.12500982 45.36924158
v 27.22518662 131.88254666 43.92628907
v 22.92446506 131.81903309 46.19226439
v 27.56530998 129.97719710 44.17212728
v 22.35384611 131.91430344 46.31696155
v 22.35384611 25.26764866 29.07632816
v 27.62996158 33.47124026 44.15787413
v 27.57374179 117.92056399 44.17212728
v 27.57093178 122.73686588 44.17212728
v 27.62433978 40.71156608 44.16143742
v 27.61871798 52.77878119 44.16500071
v 25.43743640 25.26764866 45.35855530
v 25.44024820 26.23090904 45.35855530
v 27.62433978 25.26764866 44.15431084
v 31.45563839 131.35328129 41.08669603
v 34.07823392 131.66025636 38.83853715
v 34.92432643 132.29537048 37.39914433
v 27.91667695 132.47531840 42.40851467
v 22.92446506 132.93048461 44.63885710
v 25.17602003 132.14717934 44.69230285
v 28.80212026 86.54580976 43.30991547
v 28.78806486 105.85335249 43.29922560
v 28.77400946 125.15030962 43.28853933
v 28.77119946 129.97719710 43.28497604
v 28.83303926 38.29812594 43.33485490
v 28.83022926 45.53845356 43.33129161
v 22.35384611 132.76112228 45.13053353
v 35.13514661 25.26764866 10.38917537
v 22.35384611 120.32342214 28.75210836
v 28.35237090 25.26764866 43.65907471
v 28.83303926 28.64435278 43.33485490
v 28.83585105 31.05779652 43.33485490
v 28.83585105 33.47124026 43.33485490
v 31.49780098 129.97719710 41.12232533
v 34.22440431 129.97719710 38.95611132
v 35.43029198 129.97719710 37.99770507
v 36.88354244 129.97719710 36.79346061
v 36.65585866 131.81903309 36.59394156
v 37.43448598 132.34829846 34.99422228
v 34.98897623 133.32214443 34.98709570
v 32.57719728 133.19511729 37.39914433
v 30.16261012 132.95165579 39.81119655
v 25.33905401 133.36447962 42.22680847
v 22.35384611 133.02575496 44.63885710
v 31.51747638 103.43990875 41.13657848
v 31.53996718 62.42196695 41.15795463
v 31.53996718 67.24885263 41.15439134
v 31.53434358 76.90262400 41.15082805
v 32.72617946 98.61302127 40.18173193
v 35.13233481 28.64435278 10.38917537
v 51.04781999 25.26764866 10.38917537
v 22.35384611 122.64159552 29.33997923
v 35.15482201 120.32342214 10.38917537
v 35.14919841 119.85767034 10.38917537
v 35.12952301 117.92056399 10.38917537
v 35.11265582 113.09368371 10.38917537
v 35.10703582 110.68023997 10.38917537
v 35.09860402 105.85335249 10.38917537
v 35.09298042 101.02646501 10.38917537
v 35.09016862 96.19958113 10.38917537
v 35.09016862 93.32038559 10.38917537
v 28.83022926 25.26764866 43.33129161
v 29.63415378 25.26764866 42.67572903
v 30.16261012 25.26764866 42.24462132
v 30.16261012 31.05779652 42.25174790
v 31.53434358 52.77878119 41.15439134
v 35.43310378 127.56375336 38.00126836
v 38.09224191 125.15030962 35.61059588
v 38.08943371 129.97719710 35.60703259
v 35.43591558 125.15030962 38.00126836
v 36.88635424 122.73686588 36.79702390
v 38.09505371 122.73686588 35.61059588
v 38.91584723 131.75551952 34.19257920
v 39.75631254 132.12600815 32.41828031
v 39.81253414 133.02575496 30.15943336
v 37.40075518 133.26921645 32.57504708
v 42.22712129 133.36447962 25.33889760
v 39.81253414 133.38565081 27.75094623
v 37.40075518 133.39623640 30.15943336
v 34.98897623 133.39623640 32.57504708
v 32.57719728 133.39623640 34.98709570
v 30.16261012 133.39623640 37.39914433
v 27.75083117 133.38565081 39.81119655
v 22.92446506 133.39623640 42.22680847
v 22.35384611 133.38565081 42.79686649
v 35.44715918 91.37269544 37.99414178
v 34.24126791 91.37269544 38.97749106
v 34.24126791 93.78613739 38.97749106
v 34.24126791 101.02646501 38.97392777
v 51.06468719 28.64435278 10.38917537
v 50.98597840 28.64435278 10.85947207
v 50.94381580 25.26764866 10.99129760
v 22.35384611 122.73686588 29.36491866
v 35.71138556 122.67335231 10.38917537
v 30.97778004 25.26764866 41.57836887
v 31.52028818 33.47124026 41.14370147
v 32.73742306 47.95189371 40.16391908
v 32.74304306 55.19222313 40.16748237
v 39.07044581 127.56375336 34.40278812
v 39.07044581 129.97719710 34.39922483
v 35.44153558 115.50712025 38.00126836
v 38.09505371 117.92056399 35.61415917
v 35.44715918 105.85335249 38.00126836
v 36.88916603 108.26679623 36.79702390
v 38.09505371 72.07573832 35.63909860
v 38.09505371 79.31606684 35.63553531
v 38.09505371 93.78613739 35.62840873
v 39.07325761 125.15030962 34.40278812
v 39.10136841 57.60566687 34.43841742
v 39.09293301 76.90262400 34.43129084
v 39.09012481 84.13236602 34.42772755
v 41.12523780 131.44855165 31.50975293
v 43.88838012 131.87196106 27.22008259
v 42.40983067 132.47531840 27.91483777
v 44.63890025 133.36447962 20.51123346
v 44.63890025 133.40682200 18.09918483
v 42.22712129 133.39623640 22.92684718
v 44.63890025 132.90931342 22.92684718
v 22.35384611 133.39623640 42.22680847
v 36.88916603 88.95925350 36.78633762
v 35.44715918 103.43990875 38.00126836
v 35.40218478 25.26764866 37.95495279
v 36.28762450 25.26764866 37.22812800
v 36.87511064 33.47124026 36.75427161
v 36.88073423 45.53845356 36.76139819
v 36.88635424 60.01910881 36.76852117
v 36.88635424 64.83540979 36.77208446
v 51.06749539 31.05779652 10.38917537
v 50.99160200 31.05779652 10.85947207
v 50.70488483 43.12500982 12.16703755
v 50.67396583 27.13065585 12.07084132
v 50.66834583 25.26764866 12.05658995
v 50.69645303 38.29812594 12.13853483
v 22.35384611 122.82155064 29.41836081
v 35.81538974 122.90622821 10.38917537
v 32.72898766 35.88468220 40.15679250
v 41.17864400 129.97719710 31.58101153
v 39.10417661 52.77878119 34.43841742
v 36.88916603 101.02646501 36.79346061
v 38.08381011 35.88468220 35.64622518
v 38.08943371 50.36533745 35.64622518
v 38.08943371 52.77878119 35.64622518
v 38.09224191 64.83540979 35.64266189
v 41.18707580 113.09368371 31.59170140
v 41.18145580 125.15030962 31.58457482
v 40.30163249 72.07573832 32.82088170
v 40.29882429 79.31606684 32.81732201
v 41.19551120 93.78613739 31.60238767
v 42.24117669 129.97719710 30.15943336
v 43.28684218 129.97719710 28.75923314
v 44.11887570 129.97719710 27.55855376
v 45.89257412 131.32152451 24.22728788
v 46.20739849 131.80844750 22.92684718
v 44.67263104 132.12600815 25.15362811
v 47.05348740 133.34331562 15.68713441
v 47.05348740 133.38565081 13.27152249
v 47.05348740 133.39623640 10.85947207
v 47.05348740 133.39623640 10.38917537
v 47.05348740 132.85639263 18.09918483
v 45.10832680 133.37506521 10.38917537
v 22.35384611 133.34331562 40.38125457
v 36.86948704 25.26764866 36.74714503
v 36.87229884 26.23090904 36.74714503
v 36.87229884 28.64435278 36.75070832
v 37.59751996 25.26764866 36.08089258
v 38.08099832 33.47124026 35.64622518
v 51.07030719 38.29812594 10.38917537
v 50.99160200 43.12500982 10.85947207
v 50.70488483 45.53845356 12.17060084
v 49.66484293 93.78613739 15.68713441
v 49.65359933 84.13236602 15.68713441
v 49.64516753 81.71892408 15.68713441
v 49.63673214 79.31606684 15.68713441
v 48.65009644 35.88468220 18.02080145
v 48.46176346 25.26764866 18.43765420
v 50.60650424 25.26764866 12.23829435
v 49.55802695 60.01910881 15.68713441
v 49.57770234 64.83540979 15.68713441
v 22.35384611 124.63162985 30.68317401
v 36.28200450 123.74246863 10.38917537
v 42.24398849 127.56375336 30.15943336
v 41.19832299 74.48918116 31.61307754
v 39.10136841 43.12500982 34.44198071
v 39.10417661 47.95189371 34.43841742
v 39.09855661 35.88468220 34.44198071
v 39.10136841 40.71156608 34.44198071
v 43.28965398 125.15030962 28.76279643
v 41.19832299 81.71892408 31.60951425
v 41.19832299 86.54580976 31.60595096
v 43.28965398 127.56375336 28.75923314
v 45.32757518 122.73686588 25.51347722
v 45.32476698 129.97719710 25.48853599
v 43.29527398 115.50712025 28.76279643
v 44.12449930 110.68023997 27.56211525
v 46.05841990 43.12500982 24.46956101
v 45.33319878 103.43990875 25.57760744
v 45.33319878 108.26679623 25.55979279
v 48.28186587 131.25801094 19.34974487
v 45.91787312 129.97719710 24.28073003
v 48.56014765 131.74493393 18.09918483
v 47.07316280 132.08366577 20.29746305
v 47.52010215 133.30097324 10.38917537
v 48.95367721 132.23185691 15.68713441
v 49.61705674 132.32712727 10.38917537
v 44.63890025 133.35390121 10.38917537
v 22.35384611 133.22687407 39.81119655
v 38.07819011 25.26764866 35.63553531
v 38.07819011 26.23090904 35.63909860
v 38.07819011 28.64435278 35.64266189
v 51.06749539 43.59076162 10.38917537
v 50.98879020 45.53845356 10.85947207
v 50.70207663 47.95189371 12.16347426
v 49.66203114 125.15030962 15.68713441
v 49.66484293 122.73686588 15.68713441
v 48.87497201 120.32342214 18.09918483
v 48.87216022 113.09368371 18.09918483
v 48.86653662 103.43990875 18.09918483
v 48.86091662 96.19958113 18.09918483
v 48.85810482 93.78613739 18.09918483
v 48.84123762 88.95925350 18.09918483
v 48.25937508 49.16920117 19.30699079
v 48.78221142 74.48918116 18.09918483
v 47.75622133 28.64435278 20.51123346
v 47.74497773 26.23090904 20.51123346
v 48.20878068 25.26764866 19.16447719
v 47.78714033 35.88468220 20.51123346
v 48.82156222 84.13236602 18.09918483
v 22.35384611 130.65465360 36.08801915
v 37.13090521 125.03386807 10.38917537
v 41.19832299 72.07573832 31.61307754
v 39.09293301 31.05779652 34.43841742
v 46.05279630 47.95189371 24.46243623
v 46.04436450 52.77878119 24.45887294
v 45.98533471 88.95925350 24.40186749
v 45.97409111 96.19958113 24.38761613
v 45.96565931 101.02646501 24.37692806
v 45.95441571 108.26679623 24.35555012
v 45.92630492 125.15030962 24.29854468
v 46.03312090 60.01910881 24.44818486
v 46.01344550 72.07573832 24.43037021
v 46.00501011 76.90262400 24.42324364
v 43.29527398 108.26679623 28.76279643
v 44.12731110 105.85335249 27.55499047
v 46.05841990 40.71156608 24.46599952
v 46.82861542 43.12500982 22.92684718
v 46.82861542 45.53845356 22.92684718
v 46.82299182 52.77878119 22.92684718
v 46.57562905 129.97719710 22.92684718
v 48.29310947 129.97719710 19.37824759
v 48.86372841 129.97719710 18.09918483
v 49.65078754 129.97719710 15.68713441
v 50.68520943 131.01454945 10.38917537
v 49.88128311 132.12600815 10.38917537
v 50.22983828 131.77669071 10.38917537
v 42.83990283 132.46473281 10.38917537
v 42.43512967 132.24244251 10.38917537
v 22.35384611 132.34829846 37.88725748
v 39.08450121 25.26764866 34.43129084
v 39.08731301 26.23090904 34.43129084
v 51.06468719 46.00420536 10.38917537
v 51.05906359 48.41764910 10.38917537
v 51.01970920 60.48486240 10.38917537
v 50.98035840 47.95189371 10.85947207
v 50.69364483 52.77878119 12.13497154
v 48.87216022 125.15030962 18.09918483
v 48.34651567 93.78613739 19.49938506
v 48.34651567 91.37269544 19.49582177
v 48.32684027 81.71892408 19.46375576
v 48.30716127 72.07573832 19.42456497
v 46.78644923 26.23090904 22.92684718
v 47.73935413 25.26764866 20.51123346
v 47.80400752 40.71156608 20.51123346
v 22.35384611 131.26859653 36.66163687
v 41.22924199 130.87694390 10.38917537
v 40.30725609 38.29812594 32.76031656
v 40.30444429 33.47124026 32.74962669
v 41.18988760 64.83540979 31.60238767
v 46.81174823 57.60566687 22.92684718
v 46.62341525 115.50712025 22.92684718
v 46.58406085 127.56375336 22.92684718
v 46.78082923 67.24885263 22.92684718
v 46.74147483 79.31606684 22.92684718
v 43.29246578 105.85335249 28.75923314
v 44.12449930 101.02646501 27.54430240
v 46.04998450 31.05779652 24.44462158
v 46.82299182 38.29812594 22.92684718
v 48.34651567 96.19958113 19.49225848
v 47.71405873 127.56375336 20.59318013
v 48.29872947 127.56375336 19.38537417
v 48.31840847 115.50712025 19.42812646
v 50.28043627 98.61302127 13.27152249
v 50.20173108 117.92056399 13.27152249
v 50.16237668 127.56375336 13.27152249
v 50.15113309 129.97719710 13.27152249
v 50.67115403 63.44873910 12.06371474
v 50.53623085 129.97719710 11.39746228
v 50.74142743 129.97719710 10.38917537
v 22.35384611 132.09425137 37.46683964
v 40.29039249 25.26764866 32.73181025
v 50.99441380 67.69343414 10.38917537
v 50.98597840 70.08570669 10.38917537
v 50.91851681 86.81044245 10.38917537
v 50.91570501 64.83540979 10.84165742
v 50.65429043 72.07573832 11.97820657
v 47.82930652 52.77878119 20.53261140
v 47.81805932 45.53845356 20.51123346
v 46.80893643 33.47124026 22.92684718
v 46.49130026 25.26764866 23.52184283
v 46.78082923 25.26764866 22.92684718
v 41.17583220 55.19222313 31.58813811
v 40.79635804 25.26764866 32.00498906
v 41.15334500 40.71156608 31.55963539
v 44.10482390 86.54580976 27.51223639
v 44.11887570 96.19958113 27.53361253
v 43.28121859 96.19958113 28.73785699
v 46.04436450 25.26764866 24.43037021
v 50.63461144 81.71892408 11.88201034
v 50.79202542 117.76178726 10.38917537
v 50.83699982 103.43990875 10.45686888
v 50.89602961 74.48918116 10.74546118
v 44.73728084 25.26764866 26.32936986
v 43.17440619 26.23090904 28.58465352
v 44.02330691 33.47124026 27.39466221
v 44.04579411 47.95189371 27.42672822
v 45.22919459 33.47124026 25.65599082
v 45.24043819 40.71156608 25.67024218
v 45.71548474 25.26764866 24.91135498
v 45.21513919 25.26764866 25.63817617
f 1 2 3
f 1 3 4
f 1 4 15
f 1 15 37
f 1 37 54
f 1 54 95
f 1 95 129
f 1 129 171
f 1 171 216
f 1 216 267
f 1 267 308
f 1 308 283
f 1 283 238
f 1 238 189
f 1 189 144
f 1 144 103
f 1 103 62
f 1 62 39
f 1 39 16
f 1 16 5
f 1 5 2
f 2 6 7
f 2 7 3
f 2 5 8
f 2 8 9
f 2 9 10
f 2 10 11
f 2 11 6
f 3 12 13
f 3 13 4
f 3 7 14
f 3 14 12
f 4 13 15
f 5 16 38
f 5 38 61
f 5 61 102
f 5 102 142
f 5 142 186
f 5 186 185
f 5 185 235
f 5 235 281
f 5 281 319
f 5 319 318
f 5 318 326
f 5 326 337
f 5 337 338
f 5 338 331
f 5 331 321
f 5 321 309
f 5 309 268
f 5 268 217
f 5 217 175
f 5 175 172
f 5 172 133
f 5 133 132
f 5 132 105
f 5 105 74
f 5 74 73
f 5 73 72
f 5 72 40
f 5 40 24
f 5 24 22
f 5 22 9
f 5 9 8
f 6 11 17
f 6 17 7
f 7 18 19
f 7 19 14
f 7 17 20
f 7 20 21
f 7 21 18
f 9 22 10
f 10 22 23
f 10 23 24
f 10 24 17
f 10 17 11
f 12 14 25
f 12 25 26
f 12 26 27
f 12 27 28
f 12 28 29
f 12 29 30
f 12 30 13
f 13 30 29
f 13 29 15
f 14 31 32
f 14 32 33
f 14 33 34
f 14 34 25
f 14 19 35
f 14 35 36
f 14 36 31
f 15 29 37
f 16 39 38
f 17 24 40
f 17 40 41
f 17 41 42
f 17 42 43
f 17 43 21
f 17 21 20
f 18 21 43
f 18 43 35
f 18 35 19
f 22 24 23
f 25 34 44
f 25 44 45
f 25 45 46
f 25 46 47
f 25 47 26
f 26 47 48
f 26 48 27
f 27 49 50
f 27 50 51
f 27 51 52
f 27 52 28
f 27 48 49
f 28 52 53
f 28 53 29
f 29 54 37
f 29 53 54
f 31 55 44
f 31 44 32
f 31 36 55
f 32 44 33
f 33 44 34
f 35 43 56
f 35 56 57
f 35 57 36
f 36 57 58
f 36 58 59
f 36 59 55
f 38 60 71
f 38 71 70
f 38 70 69
f 38 69 68
f 38 68 67
f 38 67 66
f 38 66 65
f 38 65 64
f 38 64 63
f 38 63 104
f 38 104 145
f 38 145 190
f 38 190 239
f 38 239 284
f 38 284 266
f 38 266 265
f 38 265 215
f 38 215 170
f 38 170 168
f 38 168 212
f 38 212 214
f 38 214 263
f 38 263 264
f 38 264 262
f 38 262 307
f 38 307 328
f 38 328 312
f 38 312 311
f 38 311 310
f 38 310 272
f 38 272 271
f 38 271 270
f 38 270 220
f 38 220 177
f 38 177 138
f 38 138 100
f 38 100 61
f 38 39 60
f 39 62 63
f 39 63 64
f 39 64 65
f 39 65 66
f 39 66 67
f 39 67 68
f 39 68 69
f 39 69 70
f 39 70 71
f 39 71 60
f 40 72 41
f 41 72 73
f 41 73 74
f 41 74 75
f 41 75 76
f 41 76 42
f 42 76 56
f 42 56 43
f 44 77 45
f 44 55 77
f 45 77 46
f 46 77 47
f 47 78 79
f 47 79 48
f 47 77 80
f 47 80 81
f 47 81 82
f 47 82 78
f 48 79 83
f 48 83 49
f 49 83 84
f 49 84 85
f 49 85 86
f 49 86 50
f 50 86 87
f 50 87 88
f 50 88 89
f 50 89 90
f 50 90 91
f 50 91 92
f 50 92 93
f 50 93 53
f 50 53 51
f 51 53 52
f 53 93 94
f 53 94 95
f 53 95 54
f 55 59 77
f 56 76 96
f 56 96 97
f 56 97 98
f 56 98 99
f 56 99 57
f 57 99 58
f 58 99 80
f 58 80 77
f 58 77 59
f 61 100 101
f 61 101 102
f 62 103 63
f 63 103 104
f 74 105 75
f 75 105 76
f 76 105 106
f 76 106 107
f 76 107 108
f 76 108 96
f 78 109 79
f 78 82 118
f 78 118 109
f 79 109 110
f 79 110 83
f 80 99 98
f 80 98 111
f 80 111 81
f 81 112 82
f 81 111 113
f 81 113 114
f 81 114 115
f 81 115 116
f 81 116 117
f 81 117 112
f 82 112 119
f 82 119 120
f 82 120 121
f 82 121 118
f 83 110 122
f 83 122 123
f 83 123 84
f 84 124 85
f 84 123 124
f 85 124 87
f 85 87 86
f 87 125 126
f 87 126 127
f 87 127 88
f 87 124 128
f 87 128 125
f 88 127 89
f 89 126 90
f 89 127 126
f 90 126 91
f 91 126 92
f 92 126 94
f 92 94 93
f 94 126 129
f 94 129 95
f 96 130 149
f 96 149 131
f 96 131 97
f 96 108 107
f 96 107 132
f 96 132 133
f 96 133 134
f 96 134 135
f 96 135 136
f 96 136 137
f 96 137 130
f 97 131 113
f 97 113 98
f 98 113 111
f 100 138 139
f 100 139 101
f 101 139 140
f 101 140 102
f 102 141 142
f 102 140 143
f 102 143 141
f 103 144 104
f 104 144 145
f 105 132 146
f 105 146 106
f 106 146 107
f 107 146 132
f 109 118 110
f 110 118 155
f 110 155 147
f 110 147 122
f 112 117 148
f 112 148 119
f 113 131 114
f 114 131 149
f 114 149 150
f 114 150 151
f 114 151 152
f 114 152 153
f 114 153 115
f 115 153 148
f 115 148 116
f 116 148 117
f 118 154 155
f 118 121 154
f 119 148 156
f 119 156 120
f 120 156 157
f 120 157 121
f 121 157 158
f 121 158 154
f 122 147 159
f 122 159 160
f 122 160 161
f 122 161 123
f 123 161 162
f 123 162 163
f 123 163 164
f 123 164 128
f 123 128 124
f 125 128 165
f 125 165 126
f 126 165 166
f 126 166 167
f 126 167 168
f 126 168 129
f 128 164 163
f 128 163 169
f 128 169 165
f 129 168 170
f 129 170 171
f 130 137 150
f 130 150 149
f 133 172 173
f 133 173 174
f 133 174 134
f 134 174 175
f 134 175 176
f 134 176 150
f 134 150 135
f 135 150 136
f 136 150 137
f 138 177 139
f 139 177 178
f 139 178 179
f 139 179 140
f 140 179 180
f 140 180 181
f 140 181 182
f 140 182 183
f 140 183 143
f 141 184 185
f 141 185 186
f 141 186 142
f 141 143 187
f 141 187 184
f 143 183 188
f 143 188 187
f 144 189 145
f 145 189 190
f 147 155 191
f 147 191 159
f 148 192 156
f 148 153 193
f 148 193 196
f 148 196 194
f 148 194 240
f 148 240 192
f 150 176 195
f 150 195 196
f 150 196 151
f 151 196 193
f 151 193 152
f 152 193 153
f 154 197 155
f 154 158 197
f 155 197 191
f 156 192 198
f 156 198 199
f 156 199 158
f 156 158 157
f 158 199 197
f 159 191 200
f 159 200 160
f 160 200 161
f 161 201 202
f 161 202 162
f 161 200 197
f 161 197 203
f 161 203 204
f 161 204 205
f 161 205 206
f 161 206 207
f 161 207 201
f 162 208 163
f 162 202 209
f 162 209 208
f 163 208 210
f 163 210 211
f 163 211 169
f 165 212 166
f 165 169 213
f 165 213 214
f 165 214 212
f 166 212 167
f 167 212 168
f 169 211 210
f 169 210 213
f 170 215 171
f 171 215 216
f 172 175 173
f 173 175 174
f 175 217 218
f 175 218 219
f 175 219 176
f 176 219 195
f 177 220 178
f 178 220 270
f 178 270 221
f 178 221 179
f 179 221 222
f 179 222 223
f 179 223 224
f 179 224 180
f 180 224 225
f 180 225 226
f 180 226 227
f 180 227 228
f 180 228 229
f 180 229 181
f 181 229 230
f 181 230 182
f 182 230 183
f 183 230 237
f 183 237 188
f 184 231 185
f 184 187 232
f 184 232 231
f 185 233 234
f 185 234 235
f 185 231 236
f 185 236 233
f 187 188 232
f 188 237 232
f 189 238 190
f 190 238 239
f 191 197 200
f 192 240 252
f 192 252 203
f 192 203 198
f 194 196 240
f 195 219 218
f 195 218 241
f 195 241 240
f 195 240 196
f 197 199 203
f 198 203 199
f 201 207 242
f 201 242 243
f 201 243 202
f 202 244 245
f 202 245 246
f 202 246 247
f 202 247 248
f 202 248 209
f 202 243 249
f 202 249 250
f 202 250 251
f 202 251 244
f 203 252 204
f 204 252 253
f 204 253 205
f 205 254 255
f 205 255 256
f 205 256 257
f 205 257 242
f 205 242 206
f 205 253 254
f 206 242 207
f 208 209 258
f 208 258 259
f 208 259 260
f 208 260 261
f 208 261 210
f 209 248 258
f 210 261 262
f 210 262 213
f 213 263 214
f 213 262 264
f 213 264 263
f 215 265 216
f 216 265 266
f 216 266 267
f 217 268 218
f 218 268 269
f 218 269 241
f 221 270 271
f 221 271 272
f 221 272 273
f 221 273 274
f 221 274 222
f 222 274 261
f 222 261 223
f 223 261 260
f 223 260 275
f 223 275 224
f 224 275 225
f 225 275 276
f 225 276 226
f 226 276 277
f 226 277 227
f 227 277 228
f 228 277 229
f 229 277 278
f 229 278 230
f 230 278 279
f 230 279 236
f 230 236 237
f 231 232 236
f 232 237 236
f 233 280 234
f 233 236 280
f 234 280 319
f 234 319 281
f 234 281 235
f 236 279 278
f 236 278 282
f 236 282 280
f 238 283 239
f 239 283 284
f 240 241 285
f 240 285 286
f 240 286 287
f 240 287 293
f 240 293 252
f 241 269 286
f 241 286 285
f 242 257 243
f 243 257 249
f 244 251 288
f 244 288 245
f 245 288 246
f 246 288 247
f 247 289 290
f 247 290 248
f 247 288 291
f 247 291 292
f 247 292 289
f 248 290 258
f 249 257 288
f 249 288 250
f 250 288 251
f 252 293 294
f 252 294 253
f 253 294 254
f 254 295 296
f 254 296 255
f 254 294 295
f 255 296 277
f 255 277 276
f 255 276 256
f 256 276 257
f 257 276 297
f 257 297 288
f 258 290 298
f 258 298 299
f 258 299 259
f 259 299 260
f 260 299 300
f 260 300 297
f 260 297 275
f 261 301 302
f 261 302 303
f 261 303 304
f 261 304 262
f 261 274 305
f 261 305 301
f 262 304 306
f 262 306 307
f 266 308 267
f 266 284 308
f 268 309 286
f 268 286 269
f 272 310 273
f 273 310 311
f 273 311 312
f 273 312 313
f 273 313 314
f 273 314 305
f 273 305 274
f 275 297 276
f 277 296 315
f 277 315 316
f 277 316 282
f 277 282 278
f 280 317 318
f 280 318 319
f 280 282 317
f 282 316 296
f 282 296 317
f 283 308 284
f 286 320 287
f 286 309 321
f 286 321 322
f 286 322 323
f 286 323 324
f 286 324 325
f 286 325 293
f 286 293 320
f 287 320 293
f 288 297 300
f 288 300 291
f 289 300 290
f 289 292 300
f 290 300 298
f 291 300 292
f 293 325 324
f 293 324 294
f 294 324 326
f 294 326 295
f 295 326 296
f 296 326 317
f 296 316 315
f 298 300 299
f 301 305 314
f 301 314 302
f 302 314 303
f 303 306 304
f 303 314 327
f 303 327 306
f 306 328 307
f 306 327 329
f 306 329 328
f 312 328 329
f 312 329 330
f 312 330 313
f 313 330 314
f 314 330 329
f 314 329 327
f 317 326 318
f 321 331 332
f 321 332 333
f 321 333 334
f 321 334 322
f 322 334 323
f 323 334 331
f 323 331 335
f 323 335 324
f 324 335 336
f 324 336 326
f 326 336 337
f 331 338 335
f 331 334 333
f 331 333 332
f 335 338 337
f 335 337 336

