# https://github.com/mikedh/trimesh
v -3.83859418 25.26765586 36.20232129
v 22.35384611 25.26765586 29.07791744
v -3.83859418 25.26765586 51.88697649
v -3.83859418 26.23090185 36.20460452
v 22.35384611 120.33256947 28.75325177
v 22.35384611 25.26765586 46.71515467
v -3.61810171 25.26765586 51.89612383
v -3.83859418 26.00861155 51.88926333
v -3.83859418 120.33256947 36.42867108
v -3.83859418 120.54427418 36.46754006
v -3.83859418 122.72480607 36.94311158
v 22.35384611 122.74597726 29.36600455
v 20.51042803 25.26765586 47.52682602
v 22.35384611 129.41460005 46.78603573
v -1.20550474 25.26765586 51.93956648
v -3.61810171 33.47111801 51.91898498
v -3.83859418 28.42201933 51.89612383
v -3.83859418 124.73597562 38.04057961
v -3.83859418 130.20848372 41.63936188
v -3.83859418 131.99737016 42.84657995
v 22.35384611 124.63012686 30.68525230
v 17.86708200 25.26765586 48.68831461
v 22.35384611 129.97560782 46.78603573
v 20.51042803 129.97560782 47.58398608
v 15.68267041 26.23090185 49.64859778
v 0.24820595 25.26765586 51.96471446
v 1.20709132 26.23090185 51.98529237
v -1.20550474 31.05771022 51.95556712
v -3.61810171 45.53814793 51.95099705
v -1.20550474 67.24821980 52.05388299
v -1.20550474 84.13147790 52.09961248
v -3.83859418 42.90245704 51.93041914
v -3.83859418 132.10321892 43.01119962
v 22.35384611 132.09263333 37.47126948
v 22.35384611 131.26699287 36.66417180
v 22.35384611 130.65305713 36.09028801
v 15.68267041 25.26765586 49.64631095
v 22.35384611 131.38342723 46.52081336
v 17.57736606 131.78566545 48.55570342
v 19.12594080 129.97560782 48.18302144
v 14.72378504 25.26765586 49.94811547
v 17.91835957 129.97560782 48.70431885
v 15.68267041 129.97560782 49.66917569
v 1.20709132 25.26765586 51.98071870
v 3.61968784 25.26765586 51.90984124
v 1.20709132 45.53814793 52.03787875
v -3.61810171 47.95155572 51.95556712
v -1.20550474 88.95828987 52.10875622
v 1.20709132 57.60517966 52.06988723
v -3.83859418 47.72926901 51.93956648
v -3.83859418 133.10880729 44.63911239
v 22.35384611 132.35725882 37.88967735
v 22.35384611 131.92327100 46.31732471
v 10.26009691 131.44694080 50.75978682
v 13.27007344 129.97560782 50.38710484
v 15.68267041 132.17731089 48.96496755
v 13.27007344 25.26765586 50.40082224
v 13.27007344 115.50576110 50.38938808
v 13.27007344 26.23090185 50.40082224
v 6.03484805 25.26765586 51.61718405
v 3.61968784 57.60517966 51.90984124
v 1.20709132 125.15938504 52.09961248
v 1.20709132 69.66162579 52.08589507
v 1.20709132 64.83481381 52.08132140
v 1.20709132 62.43199342 52.07903457
v -3.61810171 50.36496170 51.95785396
v -1.20550474 93.78510184 52.10875622
v -3.83859418 50.14267499 51.94184972
v -3.83859418 133.39460398 47.05125450
v 22.35384611 133.34167600 40.38641793
v 22.35384611 133.23582724 39.81482097
v 22.35384611 132.77008264 45.12839772
v 20.51042803 132.24082446 46.71515467
v 8.44744501 131.75390867 50.88782433
v 1.20709132 129.97560782 52.09961248
v 3.61968784 129.97560782 51.79323429
v 10.56519684 129.97560782 50.80322587
v 11.77277717 129.97560782 50.62946247
v 8.44744501 25.26765586 51.22392417
v 9.81398456 25.26765586 50.99985761
v 11.44973045 25.26765586 50.73006158
v 11.92917269 25.26765586 50.65003678
v 12.74191734 25.26765586 50.50142135
v 15.68267041 133.27816243 47.05125450
v 8.44744501 132.86534580 49.46568705
v 13.27007344 132.28316684 49.32164529
v 6.03484805 132.03970535 51.05930450
v 3.61968784 64.83481381 51.90298433
v 3.61968784 62.43199342 51.90526757
v -3.61810171 52.77836769 51.95785396
v -1.20550474 98.61191381 52.10646938
v -3.83859418 52.77836769 51.94184972
v -3.83859418 133.26758403 49.46568705
v -3.61810171 133.27816243 49.46568705
v -1.20550474 133.34167600 49.46568705
v 10.85747738 133.39460398 47.05125450
v 22.35384611 133.40518957 42.22696668
v 20.51042803 133.39460398 42.22696668
v 22.35384611 133.02412253 44.63911239
v 3.61968784 132.18789649 51.23306791
v 1.20709132 132.24082446 51.38625700
v -1.20550474 132.24082446 51.37253959
v -1.20550474 129.97560782 52.07903457
v -1.20550474 127.56220723 52.08360824
v -1.20550474 125.15938504 52.08589507
v -1.20550474 117.91916169 52.09275198
v 20.51042803 133.35226160 44.63911239
v 13.27007344 133.38401838 47.05125450
v 3.61968784 133.28874803 49.46568705
v 6.03484805 133.14055689 49.46568705
v -3.61810171 57.60517966 51.95556712
v -3.61810171 84.13147790 51.93727964
v -3.83859418 55.19177367 51.93956648
v -3.83859418 132.16672530 51.20105943
v -3.61810171 132.17731089 51.21477683
v 1.20709132 133.34167600 49.46568705
v 18.09526557 133.39460398 44.63911239
v 22.35384611 133.38401838 42.79627680
v -3.83859418 129.97560782 51.73607424
v -3.61810171 127.56220723 51.77494322
v -3.83859418 112.87006301 51.80695170
v -3.61810171 93.78510184 51.91441490
v -3.61810171 91.37169765 51.92355864
v -3.61810171 88.95828987 51.93041914
v -3.61810171 86.54488388 51.93499281
v -3.83859418 67.03651779 51.92813231
v -3.83859418 103.43872938 51.84582068
v -3.83859418 96.19850962 51.87554592
v -3.83859418 91.37169765 51.89383700
v -3.83859418 88.73600316 51.90298433
v -3.83859418 86.32259718 51.90755440
f 1 2 6
f 1 6 13
f 1 13 22
f 1 22 37
f 1 37 41
f 1 41 57
f 1 57 83
f 1 83 82
f 1 82 81
f 1 81 80
f 1 80 79
f 1 79 60
f 1 60 45
f 1 45 44
f 1 44 26
f 1 26 15
f 1 15 7
f 1 7 3
f 1 3 8
f 1 8 17
f 1 17 32
f 1 32 50
f 1 50 68
f 1 68 92
f 1 92 113
f 1 113 126
f 1 126 131
f 1 131 130
f 1 130 129
f 1 129 128
f 1 128 127
f 1 127 121
f 1 121 119
f 1 119 114
f 1 114 93
f 1 93 69
f 1 69 51
f 1 51 33
f 1 33 20
f 1 20 19
f 1 19 18
f 1 18 11
f 1 11 10
f 1 10 9
f 1 9 4
f 1 4 5
f 1 5 2
f 2 5 12
f 2 12 21
f 2 21 36
f 2 36 35
f 2 35 34
f 2 34 52
f 2 52 71
f 2 71 70
f 2 70 97
f 2 97 118
f 2 118 99
f 2 99 72
f 2 72 53
f 2 53 38
f 2 38 23
f 2 23 14
f 2 14 6
f 3 7 8
f 4 9 5
f 5 9 10
f 5 10 11
f 5 11 12
f 6 14 13
f 7 15 16
f 7 16 17
f 7 17 8
f 11 18 12
f 12 18 19
f 12 19 20
f 12 20 21
f 13 14 22
f 14 23 24
f 14 24 25
f 14 25 22
f 15 26 27
f 15 27 28
f 15 28 16
f 16 29 17
f 16 28 30
f 16 30 31
f 16 31 29
f 17 29 32
f 20 33 34
f 20 34 35
f 20 35 36
f 20 36 21
f 22 25 37
f 23 38 39
f 23 39 24
f 24 39 40
f 24 40 25
f 25 41 37
f 25 40 42
f 25 42 43
f 25 43 41
f 26 44 27
f 27 44 45
f 27 45 46
f 27 46 28
f 28 46 30
f 29 47 50
f 29 50 32
f 29 31 48
f 29 48 47
f 30 46 31
f 31 46 49
f 31 49 65
f 31 65 48
f 33 51 52
f 33 52 34
f 38 53 39
f 39 54 55
f 39 55 43
f 39 43 42
f 39 42 40
f 39 53 56
f 39 56 54
f 41 43 57
f 43 55 58
f 43 58 59
f 43 59 57
f 45 60 61
f 45 61 75
f 45 75 62
f 45 62 63
f 45 63 64
f 45 64 65
f 45 65 49
f 45 49 46
f 47 66 68
f 47 68 50
f 47 48 66
f 48 62 75
f 48 75 67
f 48 67 90
f 48 90 66
f 48 65 64
f 48 64 63
f 48 63 62
f 51 69 70
f 51 70 71
f 51 71 52
f 53 72 73
f 53 73 56
f 54 56 74
f 54 74 75
f 54 75 76
f 54 76 77
f 54 77 78
f 54 78 55
f 55 78 60
f 55 60 79
f 55 79 80
f 55 80 81
f 55 81 82
f 55 82 83
f 55 83 58
f 56 73 72
f 56 72 84
f 56 84 85
f 56 85 86
f 56 86 87
f 56 87 74
f 57 59 83
f 58 83 59
f 60 88 89
f 60 89 61
f 60 78 77
f 60 77 88
f 61 89 75
f 66 90 92
f 66 92 68
f 67 75 91
f 67 91 111
f 67 111 90
f 69 93 94
f 69 94 95
f 69 95 116
f 69 116 96
f 69 96 97
f 69 97 98
f 69 98 70
f 70 98 97
f 72 99 84
f 74 87 75
f 75 87 100
f 75 100 101
f 75 101 102
f 75 102 103
f 75 103 104
f 75 104 105
f 75 105 106
f 75 106 91
f 75 89 88
f 75 88 76
f 76 88 77
f 84 107 108
f 84 108 109
f 84 109 110
f 84 110 85
f 84 99 107
f 85 110 87
f 85 87 86
f 87 110 100
f 90 111 92
f 91 112 111
f 91 106 112
f 92 111 112
f 92 112 125
f 92 125 113
f 93 114 115
f 93 115 102
f 93 102 94
f 94 102 95
f 95 102 101
f 95 101 116
f 96 117 97
f 96 116 108
f 96 108 117
f 97 117 107
f 97 107 118
f 99 118 107
f 100 110 101
f 101 110 109
f 101 109 116
f 102 115 103
f 103 115 114
f 103 114 119
f 103 119 120
f 103 120 121
f 103 121 122
f 103 122 123
f 103 123 124
f 103 124 125
f 103 125 104
f 104 125 105
f 105 125 112
f 105 112 106
f 107 117 108
f 108 116 109
f 113 125 126
f 119 121 120
f 121 127 122
f 122 127 128
f 122 128 129
f 122 129 123
f 123 129 130
f 123 130 124
f 124 130 131
f 124 131 125
f 125 131 126

