# https://github.com/mikedh/trimesh
v -48.95391092 20.83154367 19.09362669
v -48.74525173 20.83154367 19.83038806
v -48.45461530 25.26722078 19.09362669
v -30.62892643 20.83154367 19.09362669
v -47.95904478 25.26722078 20.14478095
v -48.31302219 25.26722078 19.41754805
v -46.35309065 20.83154367 24.69237807
v -46.19286846 25.26722078 23.75237077
v -46.59901516 25.26722078 22.92351580
v -31.15803359 25.26722078 19.09362669
v -10.88801973 25.26722078 35.03244045
v -10.88801973 20.84066583 34.66405887
v -10.88801973 20.83154367 34.76568274
v -45.32841297 25.26722078 25.50217968
v -45.56688370 25.26722078 25.02264935
v -43.17844770 20.83154367 29.98308469
v -44.12115534 25.26722078 27.58225988
v -44.60182190 25.26722078 26.75657988
v -10.88801973 25.26722078 50.81882021
v -10.88801973 20.83154367 51.31422533
v -40.90180049 20.83154367 32.78087290
v -39.11327001 25.26722078 34.44176138
v -39.59393657 25.26722078 33.80344712
v -40.32052763 25.26722078 32.83803295
v -42.29908824 25.26722078 30.16409872
v -42.70150624 25.26722078 29.61787986
v -43.30886195 25.26722078 28.78902310
v -43.63303501 25.26722078 28.30949277
v -10.88801973 20.84196746 51.53652642
v -11.04451503 25.26722078 50.78070991
v -10.93645854 20.83154367 51.53335146
v -39.34801205 20.83154367 34.62912713
v -38.07741345 25.26722078 35.64534784
v -11.75247523 20.83154367 51.33010372
v -14.23406194 25.26722078 49.97408326
v -38.63259986 20.83154367 35.44210370
v -37.05645727 20.83154367 36.97279008
v -37.35081879 25.26722078 36.31541888
v -18.81717151 20.83154367 49.10076808
v -15.68724408 25.26722078 49.60570527
v -36.87015223 25.26722078 36.75684250
v -31.88834975 20.83154367 41.52991028
v -19.77105443 20.83154367 48.70380467
v -16.64485209 25.26722078 49.28178391
v -18.09803423 25.26722078 48.78637519
v -35.99079277 25.26722078 37.48407719
v -30.78542352 20.83154367 42.46356767
v -19.31647072 25.26722078 48.26555960
v -22.92706651 25.26722078 46.58879273
v -24.32435606 25.26722078 45.93777504
v -25.53161368 25.26722078 45.37250283
v -24.72304897 20.83154367 46.36649523
v -35.40579482 25.26722078 37.96360752
v -28.83294397 25.26722078 43.33370789
v -29.36205113 25.26722078 42.90181274
v -30.15943696 25.26722078 42.25079505
v -34.19853360 25.26722078 38.95124641
v -28.59074635 20.83154367 44.21654795
v -27.62568455 25.26722078 44.16891277
f 1 2 3
f 1 3 10
f 1 10 4
f 1 4 13
f 1 13 20
f 1 20 31
f 1 31 34
f 1 34 39
f 1 39 43
f 1 43 52
f 1 52 58
f 1 58 47
f 1 47 42
f 1 42 37
f 1 37 36
f 1 36 32
f 1 32 21
f 1 21 16
f 1 16 7
f 1 7 2
f 2 5 6
f 2 6 3
f 2 7 8
f 2 8 9
f 2 9 5
f 3 6 5
f 3 5 9
f 3 9 8
f 3 8 15
f 3 15 14
f 3 14 18
f 3 18 17
f 3 17 28
f 3 28 27
f 3 27 26
f 3 26 25
f 3 25 24
f 3 24 23
f 3 23 22
f 3 22 33
f 3 33 38
f 3 38 41
f 3 41 46
f 3 46 53
f 3 53 57
f 3 57 56
f 3 56 55
f 3 55 54
f 3 54 59
f 3 59 51
f 3 51 50
f 3 50 49
f 3 49 48
f 3 48 45
f 3 45 44
f 3 44 40
f 3 40 35
f 3 35 30
f 3 30 19
f 3 19 11
f 3 11 10
f 4 10 11
f 4 11 12
f 4 12 13
f 7 14 15
f 7 15 8
f 7 16 17
f 7 17 18
f 7 18 14
f 11 19 29
f 11 29 20
f 11 20 13
f 11 13 12
f 16 21 22
f 16 22 23
f 16 23 24
f 16 24 25
f 16 25 26
f 16 26 27
f 16 27 28
f 16 28 17
f 19 30 31
f 19 31 29
f 20 29 31
f 21 32 22
f 22 32 33
f 30 34 31
f 30 35 34
f 32 36 33
f 33 36 37
f 33 37 38
f 34 35 40
f 34 40 39
f 37 41 38
f 37 42 41
f 39 40 44
f 39 44 45
f 39 45 43
f 41 42 47
f 41 47 46
f 43 48 49
f 43 49 50
f 43 50 51
f 43 51 52
f 43 45 48
f 46 47 53
f 47 54 55
f 47 55 56
f 47 56 57
f 47 57 53
f 47 58 54
f 51 59 58
f 51 58 52
f 54 58 59

