# https://github.com/mikedh/trimesh
v 29.69854945 10.83044810 28.75801313
v 26.60365942 10.83044810 28.75801313
v 30.31820006 10.81347074 28.75801313
v 34.03049931 10.83044810 20.07384130
v 26.60365942 10.83044810 26.88249902
v 25.98513043 10.73706800 28.75801313
v 34.03049931 10.82195849 20.69364594
v 30.98827544 10.46966581 28.75801313
v 34.03049931 10.62671054 21.93095666
v 34.03049931 10.76465829 21.31230130
v 34.65014992 10.82832477 18.83653058
v 34.65014992 10.83044810 18.21672502
v 27.84183994 10.83044810 24.40557809
v 26.60365942 10.82832477 26.26269345
v 25.98513043 10.73706800 27.50115437
v 25.96944256 10.72858024 28.75801313
v 34.65014992 10.80710261 19.45518571
v 31.01292702 10.44632032 28.75801313
v 34.44845636 10.34445247 21.93095666
v 34.66471802 10.43570924 21.26975459
v 34.65014992 10.60973503 20.69364594
v 34.65014992 10.73070172 20.07384130
v 35.26868076 10.74131465 17.01046260
v 35.23730686 10.74767908 17.01046260
v 34.65014992 10.83044810 17.01046260
v 28.46149055 10.83044810 23.16826737
v 27.22331003 10.82832477 25.02538273
v 30.93560928 10.80710261 17.01046260
v 26.60365942 10.80073633 25.64403809
v 25.98513043 10.72433544 26.88249902
v 25.47529123 10.44419884 27.50115437
v 25.47529123 10.44419884 28.75801313
v 35.26868076 10.62671054 18.83653058
v 35.26868076 10.66915671 18.21672502
v 35.26868076 10.70947956 17.59807012
v 31.24151354 10.22772873 28.75801313
v 34.97174205 10.25744050 21.03517167
v 35.16783306 10.43783256 20.07384130
v 35.31798391 10.48876649 19.48048388
v 35.75386838 10.46542101 17.01046260
v 31.55525989 10.83044810 17.01046260
v 30.93560928 10.81983702 17.59807012
v 30.89639145 10.78800193 17.01046260
v 26.60365942 10.69674516 25.02538273
v 25.98513043 10.67128004 26.26269345
v 25.48873771 10.43146444 26.88249902
v 25.16490604 10.13435048 27.50115437
v 25.17499044 10.14496156 28.75801313
v 35.74154167 10.41661040 17.59807012
v 35.77851996 10.44844365 17.01046260
v 35.65974300 10.33596471 18.83653058
v 31.28521415 9.99852606 28.75801313
v 34.87761667 9.93485865 21.43764239
v 35.00984011 9.93485865 21.12831471
v 35.55777553 10.15557264 19.70471768
v 35.61940539 10.29139522 19.29189760
v 30.33052677 10.51211013 17.01046260
v 25.93582727 10.49300945 25.60839080
v 25.53692017 10.37840903 26.26269345
v 25.22765568 10.07917175 26.26269345
v 25.17835252 10.12161700 26.88249902
v 24.88813613 9.82662360 27.50115437
v 25.15706210 10.12586088 28.75801313
v 25.16490604 10.13435048 28.75801313
v 36.04184338 9.93485865 17.01046260
v 35.97236957 9.93485865 17.59807012
v 31.28969508 9.97305910 28.75801313
v 34.91347334 9.31516193 21.51353689
v 35.59923475 9.74385643 19.81395975
v 35.66646716 9.94334733 19.48048388
v 35.80877408 9.93485865 18.83653058
v 26.10502624 10.40599932 25.02538273
v 30.02350274 10.22985113 17.01046260
v 25.69603473 10.22560725 25.37840779
v 25.60639305 10.30837442 25.79122718
v 24.99234499 9.70353358 25.78202826
v 24.93743929 9.77144579 26.26269345
v 24.90158262 9.81176864 26.88249902
v 24.68980374 9.31516193 27.50115437
v 24.88813613 9.82662360 28.75801313
v 36.03960199 9.31516193 17.59807012
v 36.04520454 9.90302541 17.01046260
v 31.35356633 9.31516193 28.75801313
v 35.04345539 9.31516193 21.20420921
v 34.91347334 -9.25239531 21.51353689
v 35.25523427 9.31516193 20.69364594
v 35.60932007 9.31516193 19.83810793
v 35.73706074 9.31516193 19.45518571
v 35.87600465 9.31516193 18.83653058
v 30.00445371 10.21075137 17.01046260
v 25.47417053 9.83086840 25.02538273
v 25.33970755 9.96457042 25.58079313
v 25.59742842 9.70989986 24.57231614
v 25.07078158 9.31516193 25.36690846
v 24.94864438 9.31516193 25.67623568
v 24.79177121 9.31516193 26.26269345
v 24.71669578 9.31516193 26.88249902
v 24.68644166 8.69546520 26.88249902
v 24.66066938 8.69546520 27.50115437
v 24.66066938 8.71456588 28.75801313
v 24.68980374 9.31516193 28.75801313
v 36.10683256 9.31516193 17.01046260
v 36.03960199 -9.25239531 17.59807012
v 31.35356633 -9.25239531 28.75801313
v 35.04345539 -9.25239531 21.20420921
v 31.32667337 -9.87209204 28.75801313
v 34.89442431 -9.87209204 21.47903935
v 35.02664591 -9.87209204 21.16971167
v 35.25523427 -9.25239531 20.69364594
v 35.60932007 -9.25239531 19.83810793
v 35.73706074 -9.25239531 19.45518571
v 35.87600465 -9.25239531 18.83653058
v 29.73552774 9.92000277 17.01046260
v 29.46211900 9.35336237 17.01046260
v 29.44419158 9.31516193 17.01046260
v 25.24894517 9.31516193 25.02538273
v 25.22541429 8.69546520 25.02538273
v 25.06069718 8.69546520 25.34506000
v 24.93519790 8.69546520 25.65553743
v 24.76375847 8.69546520 26.26269345
v 24.68644166 -8.63269858 26.88249902
v 24.66066938 -8.63269858 27.50115437
v 24.66066938 -8.63269858 28.75801313
v 36.10683256 -9.25239531 17.01046260
v 35.83790659 -9.87209204 18.83653058
v 36.00038231 -9.87209204 17.59807012
v 36.07097589 -9.87209204 17.01046260
v 35.59587359 -9.87209204 19.80706033
v 31.27288743 -10.21589697 28.75801313
v 35.58130733 -10.18406280 19.77256279
v 34.99415224 -10.22226325 21.09036746
v 35.70568499 -9.87209204 19.45518571
v 29.42514255 8.75276633 17.01046260
v 29.42402093 8.69546520 17.01046260
v 29.42290116 8.13943588 17.01046260
v 25.22541429 -8.63269858 25.02538273
v 25.06069718 -8.63269858 25.34506000
v 24.93519790 -8.63269858 25.65553743
v 24.76375847 -8.63269858 26.26269345
v 24.77048079 -9.25239531 26.26269345
v 24.69764675 -9.25239531 26.88249902
v 24.67187448 -9.25239531 27.50115437
v 24.67075471 -9.23329555 28.75801313
v 35.62612771 -10.23924153 19.45518571
v 35.68887735 -10.31352002 18.83653058
v 36.05977079 -9.89755900 17.01046260
v 30.96586340 -10.51725665 28.75801313
v 34.48207165 -10.32413110 21.93095666
v 35.27540307 -10.37506595 20.01634509
v 35.22609992 -10.59577902 19.48508357
v 34.62998112 -10.48117768 21.27205455
v 29.42290116 -8.63269858 17.01046260
v 25.22989614 -9.25239531 25.02538273
v 25.06293857 -9.25239531 25.34850971
v 24.93743929 -9.25239531 25.65783785
v 24.97889851 -9.66623393 25.75788031
v 24.91726956 -9.74687962 26.26269345
v 24.88253358 -9.79144727 26.88249902
v 24.67187448 -9.25239531 28.75801313
v 24.87020780 -9.80418075 27.50115437
v 24.86348455 -9.78720246 28.75801313
v 35.32022530 -10.62336838 18.83653058
v 35.77067602 -10.39628811 17.59807012
v 35.80765246 -10.42812135 17.01046260
v 30.95689970 -10.52574533 28.75801313
v 30.64651451 -10.81437153 28.75801313
v 34.35657237 -10.81012673 21.04207108
v 34.90562941 -10.79102604 19.71161710
v 34.99079108 -10.81649301 19.29879702
v 29.42850371 -9.25239531 17.01046260
v 25.58174147 -9.67472353 24.55161697
v 25.49209887 -9.87633684 25.07482978
v 25.24222193 -9.87209204 25.58884184
v 25.59294657 -10.25834221 25.64403809
v 25.18507484 -10.05672798 26.26269345
v 25.13689330 -10.09917323 26.88249902
v 25.12344682 -10.11402911 27.50115437
v 24.87693104 -9.81266943 28.75801313
v 24.87020780 -9.80418075 28.75801313
v 35.40650490 -10.72311476 17.01046260
v 34.38570673 -10.82073781 20.69364594
v 30.32828538 -10.83771609 28.75801313
v 34.03049931 -10.84408237 20.69364594
v 34.65014992 -10.85044957 18.83653058
v 35.01095988 -10.82498261 18.83653058
v 35.38521448 -10.73796972 17.01046260
v 29.69182713 -9.86997056 17.01046260
v 29.96075310 -10.18618520 17.01046260
v 25.66465991 -10.19043000 25.31401262
v 26.02546895 -10.60214622 25.63598846
v 25.49434026 -10.35808767 26.26269345
v 25.44727849 -10.40902159 26.88249902
v 25.12344682 -10.11402911 28.75801313
v 25.43383201 -10.42387747 27.50115437
v 29.69854945 -10.85044957 28.75801313
v 34.65014992 -10.85044957 17.01046260
v 35.07594906 -10.82498261 17.01046260
v 35.36952845 -10.74433692 17.01046260
v 29.98092190 -10.20740828 17.01046260
v 30.30475358 -10.51725665 17.01046260
v 30.59721135 -10.79527085 17.01046260
v 30.61289922 -10.80800433 17.01046260
v 25.98737182 -10.35172046 25.07482978
v 25.91677824 -10.66581363 26.26269345
v 26.38515822 -10.78253736 25.42440421
v 26.25965894 -10.81649301 25.83722452
v 25.88988528 -10.71886996 26.88249902
v 25.43383201 -10.42387747 28.75801313
v 25.87868018 -10.73372584 27.50115437
v 26.60365942 -10.85044957 28.75801313
v 31.55525989 -10.85044957 17.01046260
v 30.63082664 -10.81012673 17.01046260
v 26.22604366 -10.82498261 26.26269345
v 30.93560928 -10.83347129 17.01046260
v 26.80199274 -10.82498261 25.02538273
v 26.60365942 -10.85044957 26.26269345
v 25.87868018 -10.73372584 28.75801313
v 26.19915069 -10.82498261 26.88249902
v 26.18906537 -10.82498261 27.50115437
v 26.17898097 -10.82286021 28.75801313
v 26.18906537 -10.82498261 28.75801313
v 30.93560928 -10.84408237 17.59807012
f 1 2 6
f 1 6 16
f 1 16 32
f 1 32 48
f 1 48 64
f 1 64 63
f 1 63 80
f 1 80 101
f 1 101 100
f 1 100 123
f 1 123 143
f 1 143 159
f 1 159 161
f 1 161 179
f 1 179 178
f 1 178 193
f 1 193 208
f 1 208 217
f 1 217 220
f 1 220 221
f 1 221 210
f 1 210 195
f 1 195 182
f 1 182 166
f 1 166 165
f 1 165 147
f 1 147 129
f 1 129 106
f 1 106 104
f 1 104 83
f 1 83 67
f 1 67 52
f 1 52 36
f 1 36 18
f 1 18 8
f 1 8 3
f 1 3 4
f 1 4 12
f 1 12 25
f 1 25 41
f 1 41 26
f 1 26 13
f 1 13 5
f 1 5 2
f 2 5 15
f 2 15 6
f 3 7 4
f 3 8 9
f 3 9 10
f 3 10 7
f 4 7 11
f 4 11 12
f 5 13 14
f 5 14 15
f 6 15 16
f 7 10 17
f 7 17 11
f 8 18 19
f 8 19 20
f 8 20 9
f 9 20 21
f 9 21 10
f 10 21 22
f 10 22 17
f 11 17 23
f 11 23 24
f 11 24 12
f 12 24 25
f 13 26 27
f 13 27 14
f 14 27 28
f 14 28 29
f 14 29 30
f 14 30 15
f 15 30 31
f 15 31 16
f 16 31 32
f 17 22 33
f 17 33 34
f 17 34 35
f 17 35 23
f 18 36 19
f 19 36 37
f 19 37 20
f 20 37 38
f 20 38 21
f 21 38 39
f 21 39 22
f 22 39 33
f 23 35 40
f 23 40 50
f 23 50 65
f 23 65 82
f 23 82 102
f 23 102 124
f 23 124 127
f 23 127 146
f 23 146 164
f 23 164 180
f 23 180 186
f 23 186 198
f 23 198 197
f 23 197 196
f 23 196 211
f 23 211 214
f 23 214 212
f 23 212 202
f 23 202 201
f 23 201 200
f 23 200 199
f 23 199 188
f 23 188 187
f 23 187 170
f 23 170 152
f 23 152 135
f 23 135 134
f 23 134 133
f 23 133 115
f 23 115 114
f 23 114 113
f 23 113 90
f 23 90 73
f 23 73 57
f 23 57 43
f 23 43 28
f 23 28 41
f 23 41 25
f 23 25 24
f 26 41 27
f 27 41 42
f 27 42 28
f 28 43 44
f 28 44 29
f 28 42 41
f 29 44 45
f 29 45 30
f 30 45 46
f 30 46 31
f 31 46 61
f 31 61 47
f 31 47 48
f 31 48 32
f 33 49 50
f 33 50 40
f 33 40 34
f 33 39 51
f 33 51 49
f 34 40 35
f 36 52 53
f 36 53 37
f 37 53 54
f 37 54 55
f 37 55 56
f 37 56 38
f 38 56 39
f 39 56 51
f 43 57 44
f 44 57 58
f 44 58 45
f 45 58 59
f 45 59 46
f 46 59 60
f 46 60 61
f 47 61 62
f 47 62 63
f 47 63 64
f 47 64 48
f 49 51 65
f 49 65 50
f 51 56 66
f 51 66 65
f 52 67 53
f 53 67 68
f 53 68 69
f 53 69 54
f 54 69 55
f 55 70 56
f 55 69 70
f 56 70 71
f 56 71 66
f 57 72 58
f 57 73 74
f 57 74 72
f 58 72 74
f 58 74 75
f 58 75 59
f 59 75 60
f 60 75 76
f 60 76 77
f 60 77 61
f 61 77 78
f 61 78 62
f 62 78 79
f 62 79 101
f 62 101 80
f 62 80 63
f 65 66 81
f 65 81 82
f 66 71 89
f 66 89 81
f 67 83 68
f 68 84 69
f 68 83 104
f 68 104 85
f 68 85 105
f 68 105 84
f 69 84 86
f 69 86 87
f 69 87 88
f 69 88 70
f 70 88 89
f 70 89 71
f 73 90 91
f 73 91 74
f 74 92 75
f 74 91 92
f 75 92 76
f 76 92 91
f 76 91 93
f 76 93 94
f 76 94 95
f 76 95 96
f 76 96 77
f 77 96 97
f 77 97 78
f 78 97 79
f 79 97 98
f 79 98 99
f 79 99 100
f 79 100 101
f 81 102 82
f 81 89 112
f 81 112 103
f 81 103 124
f 81 124 102
f 84 105 109
f 84 109 86
f 85 104 106
f 85 106 107
f 85 107 108
f 85 108 105
f 86 109 110
f 86 110 87
f 87 110 111
f 87 111 88
f 88 111 112
f 88 112 89
f 90 113 93
f 90 93 91
f 93 113 114
f 93 114 115
f 93 115 116
f 93 116 94
f 94 116 117
f 94 117 118
f 94 118 119
f 94 119 95
f 95 119 120
f 95 120 96
f 96 120 98
f 96 98 97
f 98 120 139
f 98 139 121
f 98 121 122
f 98 122 99
f 99 122 123
f 99 123 100
f 103 112 125
f 103 125 126
f 103 126 127
f 103 127 124
f 105 108 128
f 105 128 109
f 106 129 107
f 107 130 108
f 107 129 131
f 107 131 130
f 108 130 128
f 109 128 110
f 110 128 111
f 111 128 132
f 111 132 112
f 112 132 125
f 115 133 117
f 115 117 116
f 117 133 134
f 117 134 135
f 117 135 152
f 117 152 136
f 117 136 137
f 117 137 118
f 118 137 138
f 118 138 119
f 119 138 139
f 119 139 120
f 121 139 140
f 121 140 141
f 121 141 142
f 121 142 122
f 122 142 143
f 122 143 123
f 125 132 130
f 125 130 144
f 125 144 145
f 125 145 126
f 126 145 127
f 127 145 146
f 128 130 132
f 129 147 148
f 129 148 131
f 130 131 149
f 130 149 150
f 130 150 144
f 131 148 151
f 131 151 149
f 136 152 153
f 136 153 154
f 136 154 137
f 137 154 155
f 137 155 138
f 138 155 139
f 139 155 140
f 140 155 156
f 140 156 157
f 140 157 141
f 141 157 158
f 141 158 142
f 142 159 143
f 142 158 160
f 142 160 161
f 142 161 159
f 144 150 145
f 145 150 162
f 145 162 163
f 145 163 146
f 146 163 164
f 147 165 148
f 148 165 166
f 148 166 151
f 149 151 167
f 149 167 150
f 150 167 168
f 150 168 169
f 150 169 162
f 151 166 167
f 152 170 153
f 153 170 171
f 153 171 154
f 154 171 156
f 154 156 155
f 156 171 172
f 156 172 173
f 156 173 174
f 156 174 175
f 156 175 157
f 157 175 176
f 157 176 158
f 158 176 177
f 158 177 160
f 160 178 179
f 160 179 161
f 160 177 178
f 162 164 163
f 162 169 180
f 162 180 164
f 166 181 167
f 166 182 181
f 167 181 169
f 167 169 168
f 169 181 183
f 169 183 184
f 169 184 185
f 169 185 186
f 169 186 180
f 170 187 171
f 171 187 188
f 171 188 172
f 172 188 189
f 172 189 173
f 173 189 174
f 174 189 190
f 174 190 191
f 174 191 175
f 175 191 192
f 175 192 176
f 176 192 194
f 176 194 177
f 177 193 178
f 177 194 208
f 177 208 193
f 181 182 183
f 182 195 184
f 182 184 183
f 184 195 210
f 184 210 216
f 184 216 211
f 184 211 196
f 184 196 197
f 184 197 185
f 185 197 198
f 185 198 186
f 188 199 189
f 189 199 200
f 189 200 201
f 189 201 202
f 189 202 203
f 189 203 190
f 190 204 191
f 190 203 202
f 190 202 205
f 190 205 206
f 190 206 204
f 191 204 192
f 192 204 207
f 192 207 194
f 194 207 209
f 194 209 217
f 194 217 208
f 202 212 206
f 202 206 205
f 204 206 207
f 206 213 207
f 206 212 214
f 206 214 215
f 206 215 216
f 206 216 213
f 207 213 209
f 209 213 218
f 209 218 219
f 209 219 220
f 209 220 217
f 210 221 219
f 210 219 216
f 211 216 222
f 211 222 214
f 213 216 218
f 214 222 216
f 214 216 215
f 216 219 218
f 219 221 220

