# https://github.com/mikedh/trimesh
v 29.69821555 6.83849742 47.34045115
v 30.31748060 6.83849742 47.31316709
v 30.31748060 7.45819415 47.28952091
v 29.69821555 7.45819415 47.31498603
v 25.36597237 6.83849742 47.34045115
v 29.69821555 -6.77573080 47.34045115
v 30.80371974 6.83849742 47.14218701
v 30.79126943 7.45819415 47.13127339
v 30.31748060 -6.77573080 47.31316709
v 30.74736405 8.07789087 47.09307202
v 30.31748060 8.07789087 47.20766874
v 25.36597237 7.45819415 47.31498603
v 29.69821555 8.07789087 47.22949599
v 24.87645693 7.45819415 47.15673851
v 24.86924852 6.83849742 47.16946738
v 25.36597237 -6.77573080 47.34045115
v 29.69821555 -7.39542753 47.32408072
v 31.11368063 6.83849742 46.79294556
v 31.10057543 7.45819415 46.78748875
v 30.80371974 -6.77573080 47.14218701
v 31.05666821 8.07789087 46.77111832
v 30.31748060 -7.39542753 47.29679666
v 30.79520062 -7.39542753 47.13491126
v 30.68576370 8.51507405 47.04396072
v 30.31748060 8.59996362 47.07488265
v 25.36597237 8.07789087 47.22949599
v 24.90791200 8.07789087 47.11489927
v 29.69821555 8.62330911 47.08397734
v 29.07894865 8.62543059 47.08397734
v 24.67789855 7.45819415 46.68926431
v 24.71000851 8.07789087 46.68926431
v 24.67069014 6.83849742 46.68926431
v 24.86924852 -6.77573080 47.16946738
v 24.87383552 -7.39542753 47.16037638
v 25.36597237 -7.39542753 47.32408072
v 29.69821555 -8.01512426 47.24586642
v 30.31748060 -8.01512426 47.22403918
v 31.29258029 6.83849742 46.48372442
v 31.29258029 7.45819415 46.47826761
v 31.29126866 8.07789087 46.46007824
v 31.11368063 -6.77573080 46.79294556
v 31.10516151 -7.39542753 46.78930769
v 31.27488716 8.48536229 46.42551843
v 30.75588133 -8.01512426 47.10034777
v 31.06518733 -8.01512426 46.77475619
v 30.94264521 8.70607628 46.69472112
v 30.77750749 9.31516193 46.53283572
v 30.66676079 9.66533313 46.41460297
v 30.31748060 8.90981199 46.95483280
v 29.69821555 8.93103507 46.96756536
v 25.36597237 8.62543059 47.08397734
v 24.97409751 8.54690822 47.05487434
v 24.84827817 8.72942084 46.73837745
v 29.07894865 8.93527895 46.96938430
v 24.65954961 8.69546520 46.07082202
v 24.71918252 9.31516193 46.07082202
v 24.67069014 -6.77573080 46.68926431
v 24.67593296 -7.39542753 46.68926431
v 24.70345499 -8.01512426 46.68926431
v 24.90135848 -8.01512426 47.12217501
v 25.36597237 -8.01512426 47.24586642
v 29.69821555 -8.62420990 47.09125308
v 30.31748060 -8.60086534 47.08215840
v 30.69231815 -8.49263028 47.04759859
v 31.34041686 7.45819415 46.07082202
v 31.29258029 -6.77573080 46.48372442
v 31.33845034 8.07789087 46.07082202
v 31.29192540 -8.01512426 46.46371611
v 31.29258029 -7.39542753 46.48008654
v 31.30109941 8.69334280 46.07082202
v 31.27685183 9.14325946 45.86345950
v 31.22246266 9.55497568 45.69066048
v 31.19952671 8.89707851 46.27636191
v 31.27619694 -8.44594116 46.42915631
v 31.10450662 9.33638409 46.07082202
v 30.31748060 9.69504490 46.44188887
v 30.31748060 9.31516193 46.70563474
v 30.79454573 9.80540143 46.07082202
v 30.53504281 10.23834074 45.75250434
v 29.69821555 9.31516193 46.72928277
v 25.98458253 8.93527895 46.96938430
v 25.36597237 8.93527895 46.96756536
v 24.98327244 9.68443290 46.43643206
v 24.90266918 9.31516193 46.56011977
v 25.36597237 9.31516193 46.73655851
v 24.68969397 9.31516193 45.45237604
v 24.65954961 8.69546520 28.75801313
v 24.65954961 -8.63269858 46.07082202
v 24.91774090 9.76932339 46.07082202
v 24.88825235 9.82450212 45.45237604
v 24.69690239 -9.25239531 46.07082202
v 24.84500187 -8.69212211 46.74929107
v 24.96819980 -8.52446445 47.06033115
v 25.36597237 -8.62420990 47.09125308
v 29.69821555 -8.93405827 46.99666836
v 30.31748060 -8.91071370 46.98575473
v 30.68510881 -9.62591200 46.43097524
v 30.80240996 -9.25239531 46.56193871
v 30.95378574 -8.67514383 46.70563474
v 31.35417879 8.69546520 28.75801313
v 31.34041686 8.69546520 45.45237604
v 31.34041686 -7.39542753 46.07082202
v 31.30240919 9.33638409 45.47238435
v 31.33910707 -8.01512426 46.07082202
v 31.27685183 9.69716638 45.27957518
v 30.98655058 9.96881430 45.51603884
v 31.21525333 -8.85765738 46.29637021
v 31.24605350 -9.56224367 45.76159903
v 31.26964434 -9.25239531 45.85436482
v 31.30175430 -8.64543206 46.08355458
v 29.69821555 9.70565598 46.45098355
v 30.32403320 10.04945999 46.01261419
v 29.69821555 10.01550434 46.08173564
v 30.75064035 10.34657579 45.33960194
v 30.32403320 10.38265199 45.50876309
v 30.12219945 10.24895089 45.76887478
v 25.36597237 9.71202226 46.46007824
v 25.65954992 10.24895089 45.76887478
v 25.56256423 10.32959659 45.45237604
v 24.68969397 9.31516193 28.75801313
v 24.88825235 9.82662360 44.83211297
v 24.65954961 -8.63269858 28.75801313
v 24.67069014 -9.23329555 28.75801313
v 24.67134503 -9.25239531 45.45237604
v 25.25325915 10.13435048 45.45237604
v 25.47475348 10.42297484 44.83211297
v 25.16479258 10.13435048 44.83211297
v 24.86924852 -9.80418075 45.45237604
v 24.89480495 -9.74687962 46.07082202
v 24.96557839 -9.64713417 46.45462143
v 24.88956306 -9.25239531 46.58922277
v 25.36597237 -8.93405827 46.99484942
v 25.98458253 -8.93405827 46.99666836
v 25.36597237 -9.25239531 46.79840237
v 26.60384943 -9.25239531 46.79658344
v 27.22311540 -9.25239531 46.79476450
v 29.07894865 -9.25239531 46.78930769
v 29.69821555 -9.25239531 46.78566981
v 30.31748060 -9.25239531 46.76384257
v 30.31748060 -9.66835633 46.46917292
v 30.31748060 -9.97820469 46.13266588
v 30.65234396 -10.20316348 45.79433990
v 30.87514899 -9.79993595 45.98351119
v 31.11171412 -9.25239531 46.16358781
v 31.35352390 9.31516193 28.75801313
v 31.34041686 9.31516193 44.83211297
v 31.35417879 -8.65179927 28.75801313
v 31.34041686 -8.63269858 45.45237604
v 31.31682602 -9.25239531 45.45237604
v 31.29258029 9.76083471 44.83211297
v 31.21132213 10.15132784 44.21366884
v 31.15430971 10.07068307 44.83211297
v 30.75719295 -10.29442026 45.45237604
v 31.06715385 -9.94000425 45.45237604
v 31.19297227 -10.06097278 44.83211297
v 31.23360135 -10.13737367 44.44285675
v 31.26964434 -9.63015588 45.45237604
v 29.69821555 10.25107422 45.77251265
v 25.98458253 10.01550434 46.08173564
v 30.84434882 10.43146444 44.83211297
v 30.31748060 10.64368975 44.83211297
v 29.69821555 10.43570924 45.45237604
v 25.98458253 10.25107422 45.77251265
v 26.60384943 10.43783256 45.45237604
v 25.98458253 10.42722148 45.45237604
v 25.98458253 10.64793455 44.83211297
v 24.88825235 9.82662360 28.75801313
v 25.15692836 10.12586088 28.75801313
v 24.67134503 -9.25239531 28.75801313
v 25.98458253 10.72009064 44.21366884
v 25.47475348 10.44207552 44.21366884
v 25.47475348 10.44419884 43.59522471
v 25.17462241 10.14496156 28.75801313
v 24.86924852 -9.80418075 28.75801313
v 25.12350769 -10.11402911 44.83211297
v 25.17265589 -10.11402911 45.45237604
v 25.48261678 -10.30927614 45.45237604
v 25.36597237 -9.68957941 46.49100017
v 25.57960247 -10.21377456 45.81071033
v 25.98458253 -9.68957941 46.49100017
v 26.60384943 -9.68957941 46.48918123
v 27.84172649 -9.68745701 46.48554336
v 29.69821555 -9.68321221 46.48008654
v 29.69821555 -9.99093817 46.14539844
v 30.31748060 -10.22226325 45.82344289
v 30.31748060 -10.43236616 45.45237604
v 30.31748060 -10.66793603 44.83211297
v 31.28995888 9.97305910 28.75801313
v 31.29258029 9.89453581 43.59522471
v 31.29258029 9.84147948 44.21366884
v 31.34041686 -9.25239531 44.83211297
v 31.35352390 -9.25239531 28.75801313
v 31.29258029 -9.75112442 44.83211297
v 31.23622275 10.20438417 43.59522471
v 30.90136124 10.49088797 44.21366884
v 30.63792713 -10.80800433 43.95719503
v 30.88366811 -10.41114399 44.83211297
v 31.25981359 -10.20104108 44.03177329
v 29.07894865 10.43783256 45.45237604
v 30.31748060 10.75829016 44.21366884
v 29.69821555 10.67340152 44.83211297
v 26.60384943 10.69038072 44.83211297
v 26.60384943 10.79649153 44.21366884
v 26.60384943 10.83044810 43.59522471
v 25.98458253 10.73706800 43.59522471
v 25.96951081 10.72858024 28.75801313
v 25.47475348 10.44419884 28.75801313
v 25.12350769 -10.11402911 28.75801313
v 25.43281370 -10.42387747 43.59522471
v 25.43281370 -10.42175507 44.21366884
v 25.43281370 -10.40477679 44.83211297
v 25.98458253 -10.67218083 44.83211297
v 25.98458253 -9.99942778 46.14539844
v 25.98458253 -10.44722204 45.45237604
v 25.98458253 -10.23075285 45.83435651
v 26.60384943 -9.99942778 46.14539844
v 28.46033757 -9.99518297 46.14539844
v 29.69821555 -10.23075285 45.83435651
v 29.69821555 -10.45571072 45.45237604
v 29.69821555 -10.69764779 44.83211297
v 30.31748060 -10.76768148 44.33735656
v 31.28537095 9.99852606 28.75801313
v 31.31420461 -9.87209204 43.59522471
v 31.32665492 -9.87209204 28.75801313
v 31.35286901 -9.27149599 28.75801313
v 31.29192540 -9.90817100 44.22822034
v 31.24146557 10.22772873 28.75801313
v 30.92626186 10.51847826 43.59522471
v 30.31748060 10.81134741 43.59522471
v 30.31748060 -10.81861541 44.02813542
v 30.31748060 -10.83559369 43.59522471
v 30.64382484 -10.81224913 43.59522471
v 30.95313084 -10.51937813 43.59522471
v 30.93609261 -10.48542248 44.20093628
v 31.26702293 -10.20952976 43.59522471
v 29.69821555 10.78163749 44.21366884
v 29.69821555 10.83044810 43.59522471
v 26.60384943 10.83044810 28.75801313
v 25.98458253 10.73706800 28.75801313
v 25.43281370 -10.42387747 28.75801313
v 25.87907865 -10.73372584 43.59522471
v 26.00424218 -10.74645932 44.27369376
v 26.22377091 -10.81649301 44.10816865
v 26.60384943 -10.79951565 44.51561608
v 26.60384943 -10.71674755 44.83211297
v 26.60384943 -10.45783312 45.45237604
v 29.07894865 -10.45783312 45.45237604
v 27.22311540 -10.71462515 44.83211297
v 27.22311540 -10.79739325 44.49196805
v 29.69821555 -10.78041496 44.39010758
v 31.32534514 -9.88058164 28.75801313
v 31.01341772 10.44632032 28.75801313
v 30.98851710 10.46966581 28.75801313
v 30.92626186 10.51847826 29.36008683
v 30.31748060 10.81347074 28.75801313
v 29.69821555 -10.82498261 44.08088459
v 29.69821555 -10.85044957 43.59522471
v 30.32665461 -10.83771609 28.75801313
v 30.64710114 -10.81437153 28.75801313
v 30.96623605 -10.51725665 28.75801313
v 31.27292064 -10.21589697 28.75801313
v 29.69821555 10.83044810 28.75801313
v 25.87907865 -10.73372584 28.75801313
v 26.17920972 -10.82286021 28.75801313
v 26.18838373 -10.82498261 43.59522471
v 26.60384943 -10.85044957 43.59522471
v 26.60384943 -10.82498261 44.20639309
v 27.22311540 -10.82498261 44.18274691
v 29.69821555 -10.85044957 28.75801313
v 26.18838373 -10.82498261 28.75801313
v 26.60384943 -10.85044957 28.75801313
f 1 2 3
f 1 3 4
f 1 4 12
f 1 12 5
f 1 5 16
f 1 16 6
f 1 6 9
f 1 9 2
f 2 7 8
f 2 8 3
f 2 9 20
f 2 20 7
f 3 8 10
f 3 10 11
f 3 11 4
f 4 11 13
f 4 13 26
f 4 26 12
f 5 12 14
f 5 14 15
f 5 15 33
f 5 33 16
f 6 16 35
f 6 35 17
f 6 17 22
f 6 22 9
f 7 18 19
f 7 19 8
f 7 20 41
f 7 41 18
f 8 19 21
f 8 21 10
f 9 22 23
f 9 23 20
f 10 21 24
f 10 24 11
f 11 24 25
f 11 25 13
f 12 26 27
f 12 27 14
f 13 25 28
f 13 28 29
f 13 29 51
f 13 51 26
f 14 30 15
f 14 27 31
f 14 31 30
f 15 30 32
f 15 32 57
f 15 57 33
f 16 33 34
f 16 34 35
f 17 35 61
f 17 61 36
f 17 36 37
f 17 37 22
f 18 38 39
f 18 39 40
f 18 40 19
f 18 41 66
f 18 66 38
f 19 40 21
f 20 23 42
f 20 42 41
f 21 40 43
f 21 43 24
f 22 37 44
f 22 44 23
f 23 44 45
f 23 45 42
f 24 43 46
f 24 46 47
f 24 47 48
f 24 48 49
f 24 49 25
f 25 49 50
f 25 50 28
f 26 51 52
f 26 52 27
f 27 52 53
f 27 53 31
f 28 50 54
f 28 54 29
f 29 54 81
f 29 81 51
f 30 31 55
f 30 55 32
f 31 53 56
f 31 56 55
f 32 55 88
f 32 88 57
f 33 57 58
f 33 58 34
f 34 58 59
f 34 59 60
f 34 60 35
f 35 60 61
f 36 61 94
f 36 94 62
f 36 62 63
f 36 63 37
f 37 63 64
f 37 64 44
f 38 65 39
f 38 66 102
f 38 102 65
f 39 65 67
f 39 67 40
f 40 67 43
f 41 42 68
f 41 68 69
f 41 69 66
f 42 45 68
f 43 70 71
f 43 71 72
f 43 72 73
f 43 73 46
f 43 67 70
f 44 64 45
f 45 64 74
f 45 74 68
f 46 73 47
f 47 75 48
f 47 73 75
f 48 76 77
f 48 77 49
f 48 75 72
f 48 72 78
f 48 78 79
f 48 79 76
f 49 77 50
f 50 77 80
f 50 80 54
f 51 81 82
f 51 82 52
f 52 82 83
f 52 83 84
f 52 84 53
f 53 84 56
f 54 80 85
f 54 85 81
f 55 56 86
f 55 86 120
f 55 120 87
f 55 87 122
f 55 122 88
f 56 84 83
f 56 83 89
f 56 89 90
f 56 90 86
f 57 88 58
f 58 88 59
f 59 88 91
f 59 91 92
f 59 92 60
f 60 92 93
f 60 93 61
f 61 93 94
f 62 94 133
f 62 133 95
f 62 95 63
f 63 95 96
f 63 96 64
f 64 96 97
f 64 97 98
f 64 98 99
f 64 99 74
f 65 100 101
f 65 101 67
f 65 102 147
f 65 147 100
f 66 69 102
f 67 101 103
f 67 103 70
f 68 74 104
f 68 104 69
f 69 104 102
f 70 103 71
f 71 103 105
f 71 105 72
f 72 105 106
f 72 106 78
f 72 75 73
f 74 99 107
f 74 107 108
f 74 108 109
f 74 109 110
f 74 110 104
f 76 111 80
f 76 80 77
f 76 79 112
f 76 112 113
f 76 113 111
f 78 106 114
f 78 114 79
f 79 114 115
f 79 115 116
f 79 116 112
f 80 111 117
f 80 117 85
f 81 85 82
f 82 85 83
f 83 85 117
f 83 117 118
f 83 118 119
f 83 119 89
f 86 90 121
f 86 121 167
f 86 167 120
f 87 120 167
f 87 167 168
f 87 168 173
f 87 173 207
f 87 207 206
f 87 206 239
f 87 239 238
f 87 238 262
f 87 262 255
f 87 255 253
f 87 253 252
f 87 252 227
f 87 227 222
f 87 222 188
f 87 188 145
f 87 145 100
f 87 100 147
f 87 147 192
f 87 192 225
f 87 225 224
f 87 224 251
f 87 251 261
f 87 261 260
f 87 260 259
f 87 259 258
f 87 258 269
f 87 269 271
f 87 271 270
f 87 270 264
f 87 264 263
f 87 263 240
f 87 240 208
f 87 208 174
f 87 174 169
f 87 169 123
f 87 123 122
f 88 122 123
f 88 123 124
f 88 124 91
f 89 119 125
f 89 125 126
f 89 126 90
f 90 126 127
f 90 127 121
f 91 124 128
f 91 128 129
f 91 129 130
f 91 130 131
f 91 131 92
f 92 131 93
f 93 131 130
f 93 130 132
f 93 132 94
f 94 132 133
f 95 133 134
f 95 134 135
f 95 135 136
f 95 136 137
f 95 137 138
f 95 138 139
f 95 139 96
f 96 139 97
f 97 140 141
f 97 141 142
f 97 142 143
f 97 143 108
f 97 108 98
f 97 139 140
f 98 108 144
f 98 144 107
f 98 107 99
f 100 145 146
f 100 146 101
f 101 146 103
f 102 104 148
f 102 148 147
f 103 146 105
f 104 110 149
f 104 149 148
f 105 146 150
f 105 150 151
f 105 151 152
f 105 152 106
f 106 152 114
f 107 144 108
f 108 143 142
f 108 142 153
f 108 153 154
f 108 154 155
f 108 155 156
f 108 156 157
f 108 157 149
f 108 149 109
f 109 149 110
f 111 113 117
f 112 116 113
f 113 116 158
f 113 158 163
f 113 163 159
f 113 159 117
f 114 160 161
f 114 161 115
f 114 152 160
f 115 162 116
f 115 161 162
f 116 162 158
f 117 159 118
f 118 159 163
f 118 163 164
f 118 164 165
f 118 165 166
f 118 166 119
f 119 166 126
f 119 126 125
f 121 127 168
f 121 168 167
f 123 169 124
f 124 169 174
f 124 174 128
f 126 166 170
f 126 170 171
f 126 171 127
f 127 171 172
f 127 172 173
f 127 173 168
f 128 174 208
f 128 208 175
f 128 175 176
f 128 176 129
f 129 176 177
f 129 177 130
f 130 178 134
f 130 134 132
f 130 177 179
f 130 179 178
f 132 134 133
f 134 178 180
f 134 180 135
f 135 180 181
f 135 181 136
f 136 181 137
f 137 181 182
f 137 182 183
f 137 183 138
f 138 183 140
f 138 140 139
f 140 183 141
f 141 183 184
f 141 184 185
f 141 185 142
f 142 185 186
f 142 186 187
f 142 187 153
f 145 188 189
f 145 189 146
f 146 189 190
f 146 190 150
f 147 148 191
f 147 191 192
f 148 149 191
f 149 157 193
f 149 193 191
f 150 190 194
f 150 194 151
f 151 194 195
f 151 195 160
f 151 160 152
f 153 187 196
f 153 196 197
f 153 197 155
f 153 155 154
f 155 197 156
f 156 197 198
f 156 198 157
f 157 198 193
f 158 162 199
f 158 199 164
f 158 164 163
f 160 195 200
f 160 200 161
f 161 201 162
f 161 200 201
f 162 201 202
f 162 202 199
f 164 199 202
f 164 202 165
f 165 202 166
f 166 202 203
f 166 203 170
f 170 203 204
f 170 204 205
f 170 205 171
f 171 205 172
f 172 206 207
f 172 207 173
f 172 205 206
f 175 208 240
f 175 240 209
f 175 209 210
f 175 210 211
f 175 211 176
f 176 211 177
f 177 211 212
f 177 212 179
f 178 213 216
f 178 216 180
f 178 179 213
f 179 212 214
f 179 214 215
f 179 215 213
f 180 216 217
f 180 217 181
f 181 217 184
f 181 184 182
f 182 184 183
f 184 217 218
f 184 218 185
f 185 218 219
f 185 219 186
f 186 219 220
f 186 220 187
f 187 220 221
f 187 221 196
f 188 222 189
f 189 222 194
f 189 194 190
f 191 193 223
f 191 223 224
f 191 224 225
f 191 225 192
f 193 226 223
f 193 198 226
f 194 227 228
f 194 228 195
f 194 222 227
f 195 228 229
f 195 229 200
f 196 221 230
f 196 230 231
f 196 231 232
f 196 232 233
f 196 233 198
f 196 198 234
f 196 234 197
f 197 234 198
f 198 235 223
f 198 223 226
f 198 233 235
f 200 229 236
f 200 236 201
f 201 236 202
f 202 236 203
f 203 236 237
f 203 237 204
f 204 237 262
f 204 262 238
f 204 238 239
f 204 239 205
f 205 239 206
f 209 240 263
f 209 263 241
f 209 241 210
f 210 241 211
f 211 241 242
f 211 242 212
f 212 242 243
f 212 243 244
f 212 244 245
f 212 245 214
f 213 215 218
f 213 218 216
f 214 246 215
f 214 245 246
f 215 246 247
f 215 247 218
f 216 218 217
f 218 247 219
f 219 247 245
f 219 245 248
f 219 248 220
f 220 248 244
f 220 244 249
f 220 249 250
f 220 250 221
f 221 250 230
f 223 235 224
f 224 235 251
f 227 252 228
f 228 252 253
f 228 253 254
f 228 254 255
f 228 255 229
f 229 255 237
f 229 237 236
f 230 250 256
f 230 256 257
f 230 257 231
f 231 257 258
f 231 258 232
f 232 259 260
f 232 260 233
f 232 258 259
f 233 260 261
f 233 261 235
f 235 261 251
f 237 255 262
f 241 263 264
f 241 264 265
f 241 265 242
f 242 265 243
f 243 265 266
f 243 266 267
f 243 267 244
f 244 267 268
f 244 268 256
f 244 256 249
f 244 248 245
f 245 247 246
f 249 256 250
f 253 255 254
f 256 268 257
f 257 268 267
f 257 267 266
f 257 266 271
f 257 271 269
f 257 269 258
f 264 270 265
f 265 270 271
f 265 271 266

