# https://github.com/mikedh/trimesh
v 19.70262608 -10.84598156 -3.18967181
v 14.22050868 -10.84598156 -3.18967181
v 19.70262608 -17.75453231 -3.18967181
v 19.70262608 -7.99697824 -3.79364746
v 17.93711062 -7.86607057 -3.78113996
v 13.83442777 -10.84598156 -3.19056468
v 13.83442777 -12.41124422 -3.18967181
v 13.83442777 -17.75453231 -3.18967181
v 19.70262608 -20.85409052 -3.70966275
v 19.70262608 -7.45223334 -4.07151315
v 17.93711062 -7.39733640 -3.93123916
v 15.46205717 -7.87310881 -3.78739371
v 14.84271925 -7.87873903 -3.79275459
v 13.83442777 -8.67122371 -3.72395782
v 13.83442777 -20.85409052 -3.70966275
v 19.70262608 -20.89772656 -3.76237687
v 19.70262608 -7.40155906 -4.10010330
v 17.93711062 -6.99898273 -4.21803905
v 17.44531736 -6.99475960 -4.21803905
v 14.94670823 -6.99475960 -4.21803905
v 15.46205717 -7.39733640 -3.96161689
v 14.78124515 -7.33540169 -4.06168425
v 14.45836191 -7.50149960 -4.20731728
v 14.53477387 -7.08906946 -4.68710344
v 13.83442777 -8.49808756 -4.06793800
v 13.83442777 -21.03848757 -3.93481432
v 19.70262608 -21.14687297 -4.06793800
v 19.70262608 -7.10173837 -4.50037092
v 19.70262608 -7.05950989 -4.68710344
v 17.93711062 -6.91030309 -4.68710344
v 15.46205717 -6.93423244 -4.68710344
v 14.84444283 -6.94830845 -4.68710344
v 14.53477387 -7.08906946 -11.49523355
v 13.83442777 -8.40377770 -5.30626703
v 13.83442777 -8.41363104 -4.73892285
v 13.83442777 -8.41503860 -4.68710344
v 13.83442777 -21.14687297 -4.06793800
v 19.70262608 -21.29044909 -4.68710344
v 19.70262608 -7.05669478 -4.99266457
v 17.93711062 -6.91030309 -11.49523355
v 15.46205717 -6.93423244 -11.49523355
v 14.84444283 -6.94830845 -11.49523355
v 14.94670823 -6.99475960 -11.91068911
v 14.45836191 -7.50149960 -11.90533007
v 13.83442777 -8.61773432 -12.07955324
v 13.83442777 -8.43052216 -11.52739701
v 13.83442777 -8.42066882 -11.49523355
v 13.83442777 -8.40377770 -10.87606812
v 13.83442777 -21.29044909 -4.68710344
v 19.70262608 -21.29044909 -10.87606812
v 19.70262608 -7.05669478 -10.87606812
v 19.70262608 -7.06373255 -11.49523355
v 17.93711062 -6.99898273 -11.90711580
v 17.44531736 -6.99475960 -11.91068911
v 17.93711062 -7.39733640 -12.09652876
v 15.46205717 -7.39733640 -12.07597994
v 14.78124515 -7.33540169 -12.01075647
v 13.83442777 -9.25397443 -12.31185143
v 13.83442777 -21.29044909 -10.87606812
v 13.83442777 -21.28904153 -11.26561581
v 19.70262608 -21.28763398 -11.49523355
v 19.70262608 -7.32554834 -11.86601631
v 19.70262608 -7.40859730 -11.97769830
v 19.70262608 -8.01668493 -12.14566958
v 17.93711062 -8.01668493 -12.22608098
v 15.46205717 -8.01668493 -12.21803781
v 14.84271925 -8.01668493 -12.21267878
v 13.83442777 -9.36799051 -12.31721231
v 14.84271925 -8.63462590 -12.29309018
v 14.84271925 -9.01327288 -12.31721231
v 13.83442777 -21.28763398 -11.49523355
v 19.70262608 -21.24540549 -11.58011113
v 19.70262608 -8.62899522 -12.25467113
v 17.93711062 -8.63462590 -12.29576878
v 15.46205717 -8.63462590 -12.29487591
v 13.83442777 -20.44729059 -12.31721231
v 15.46205717 -9.00341954 -12.31721231
v 13.83442777 -21.10464448 -11.85797683
v 19.70262608 -20.99485152 -12.07240478
v 19.70262608 -9.22863706 -12.31721231
v 17.93711062 -8.99497375 -12.31721231
v 19.70262608 -20.44729059 -12.31721231
v 19.70262608 -20.90757944 -12.11171670
v 13.83442777 -20.99485152 -12.07240478
f 1 2 7
f 1 7 8
f 1 8 3
f 1 3 9
f 1 9 16
f 1 16 27
f 1 27 38
f 1 38 50
f 1 50 61
f 1 61 72
f 1 72 79
f 1 79 83
f 1 83 82
f 1 82 80
f 1 80 73
f 1 73 64
f 1 64 63
f 1 63 62
f 1 62 52
f 1 52 51
f 1 51 39
f 1 39 29
f 1 29 28
f 1 28 17
f 1 17 10
f 1 10 4
f 1 4 5
f 1 5 2
f 2 6 7
f 2 5 6
f 3 8 15
f 3 15 9
f 4 10 11
f 4 11 5
f 5 11 12
f 5 12 6
f 6 12 13
f 6 13 14
f 6 14 25
f 6 25 36
f 6 36 35
f 6 35 34
f 6 34 48
f 6 48 47
f 6 47 46
f 6 46 45
f 6 45 58
f 6 58 68
f 6 68 76
f 6 76 84
f 6 84 78
f 6 78 71
f 6 71 60
f 6 60 59
f 6 59 49
f 6 49 37
f 6 37 26
f 6 26 15
f 6 15 8
f 6 8 7
f 9 15 16
f 10 17 11
f 11 17 18
f 11 18 19
f 11 19 20
f 11 20 21
f 11 21 13
f 11 13 12
f 13 21 22
f 13 22 14
f 14 22 23
f 14 23 24
f 14 24 25
f 15 26 16
f 16 26 27
f 17 28 18
f 18 29 30
f 18 30 19
f 18 28 29
f 19 30 20
f 20 30 31
f 20 31 32
f 20 32 24
f 20 24 23
f 20 23 22
f 20 22 21
f 24 32 42
f 24 42 33
f 24 33 48
f 24 48 34
f 24 34 35
f 24 35 36
f 24 36 25
f 26 37 27
f 27 37 49
f 27 49 38
f 29 39 30
f 30 40 41
f 30 41 31
f 30 39 51
f 30 51 40
f 31 41 42
f 31 42 32
f 33 42 43
f 33 43 44
f 33 44 45
f 33 45 46
f 33 46 47
f 33 47 48
f 38 49 59
f 38 59 50
f 40 51 52
f 40 52 53
f 40 53 54
f 40 54 43
f 40 43 41
f 41 43 42
f 43 54 55
f 43 55 56
f 43 56 57
f 43 57 44
f 44 57 45
f 45 57 58
f 50 60 61
f 50 59 60
f 52 62 53
f 53 62 63
f 53 63 55
f 53 55 54
f 55 63 64
f 55 64 65
f 55 65 66
f 55 66 56
f 56 66 67
f 56 67 57
f 57 67 58
f 58 67 69
f 58 69 70
f 58 70 68
f 60 71 61
f 61 71 72
f 64 73 65
f 65 73 74
f 65 74 75
f 65 75 69
f 65 69 66
f 66 69 67
f 68 70 77
f 68 77 81
f 68 81 80
f 68 80 82
f 68 82 76
f 69 75 70
f 70 75 77
f 71 78 72
f 72 78 79
f 73 80 74
f 74 80 81
f 74 81 77
f 74 77 75
f 76 82 83
f 76 83 84
f 78 84 79
f 79 84 83

