# https://github.com/mikedh/trimesh
v 17.53704592 -10.84636254 -3.18967212
v 17.53704592 -10.90994232 -2.10105489
v 17.53704592 -17.75560235 -3.18967212
v -6.82569934 -10.84636254 -3.18967212
v 17.53704592 -17.58988815 -2.10105489
v -6.82072585 -10.90994232 -2.10105489
v -3.72688547 -17.75560235 -3.18967212
v -7.43999091 -10.89032695 -3.18967212
v -4.34615053 -17.58988815 -2.10105489
v -6.93015355 -10.92144074 -2.10105489
v -4.34615053 -17.75492533 -3.18967212
v -7.86775657 -11.15073380 -3.18967212
v -7.43999091 -10.97690356 -2.10105489
v -4.85598789 -17.57703752 -2.10105489
v -4.96541558 -17.57365515 -2.10105489
v -4.92313729 -17.70893168 -3.18967212
v -7.84786080 -11.70401442 -3.18967212
v -7.84786080 -11.70401442 -2.10105489
v -7.84786080 -11.23189972 -2.10105489
v -7.51211379 -11.02154500 -2.10105489
v -5.47773968 -17.27401847 -2.10105489
v -5.45784391 -17.31730678 -3.18967212
v -7.74091800 -12.01312073 -3.18967212
v -7.74091800 -12.01312073 -2.10105489
v -5.53245538 -17.18608873 -2.10105489
v -5.78612884 -16.77687770 -2.10105489
v -5.59462945 -17.09612975 -3.18967212
v -7.62403008 -12.34860624 -3.18967212
v -7.62403008 -12.34860624 -2.10105489
v -5.94032526 -16.46777093 -2.10105489
v -5.78612884 -16.77687770 -2.21059881
v -5.78612884 -16.77484846 -2.82949860
v -5.78612884 -16.77281922 -3.18967212
v -7.40019751 -12.96817199 -3.18967212
v -7.40268610 -12.96817199 -2.82949860
v -7.40517284 -12.96817199 -2.21059881
v -7.44496624 -12.85859810 -2.10105489
v -5.93783852 -16.46506558 -2.82949860
v -6.16664088 -15.95575029 -2.10105489
v -6.51979877 -15.15017978 -3.18967212
v -5.87317586 -16.59290218 -3.18967212
v -7.20869996 -13.45719581 -3.18967212
v -7.21118671 -13.46328353 -2.82949860
v -7.21367345 -13.47410583 -2.21059881
v -7.21367345 -13.47613415 -2.10105489
v -7.24849152 -13.38482296 -2.10105489
v -7.40517284 -12.96817199 -2.10105489
v -5.93534994 -16.46303634 -3.18967212
v -6.51979877 -15.14950275 -2.10105489
v -7.19128908 -13.53024476 -2.10105489
f 1 2 5
f 1 5 3
f 1 3 7
f 1 7 11
f 1 11 16
f 1 16 22
f 1 22 27
f 1 27 33
f 1 33 41
f 1 41 48
f 1 48 40
f 1 40 42
f 1 42 34
f 1 34 28
f 1 28 23
f 1 23 17
f 1 17 12
f 1 12 8
f 1 8 4
f 1 4 6
f 1 6 2
f 2 6 10
f 2 10 13
f 2 13 20
f 2 20 19
f 2 19 18
f 2 18 24
f 2 24 29
f 2 29 37
f 2 37 47
f 2 47 46
f 2 46 45
f 2 45 50
f 2 50 49
f 2 49 39
f 2 39 30
f 2 30 26
f 2 26 25
f 2 25 21
f 2 21 15
f 2 15 14
f 2 14 9
f 2 9 5
f 3 5 9
f 3 9 7
f 4 8 6
f 6 8 10
f 7 9 11
f 8 12 13
f 8 13 10
f 9 14 11
f 11 14 15
f 11 15 16
f 12 17 18
f 12 18 19
f 12 19 20
f 12 20 13
f 15 21 16
f 16 21 22
f 17 23 24
f 17 24 18
f 21 25 22
f 22 25 26
f 22 26 27
f 23 28 29
f 23 29 24
f 26 30 31
f 26 31 27
f 27 31 32
f 27 32 33
f 28 34 35
f 28 35 36
f 28 36 37
f 28 37 29
f 30 38 33
f 30 33 32
f 30 32 31
f 30 39 40
f 30 40 38
f 33 38 41
f 34 42 43
f 34 43 44
f 34 44 45
f 34 45 35
f 35 45 46
f 35 46 36
f 36 46 47
f 36 47 37
f 38 48 41
f 38 40 48
f 39 49 40
f 40 49 50
f 40 50 45
f 40 45 44
f 40 44 43
f 40 43 42

