# https://github.com/mikedh/trimesh
v 13.60423584 -10.84702523 -3.18967181
v 9.26822819 -10.84702523 -3.18967181
v 13.83385335 -12.41177828 -3.18967181
v 13.83385335 -10.84561675 -3.19056468
v 12.36608345 -7.87103668 -3.78471327
v 9.89076816 -7.86258628 -3.78024525
v 8.77831152 -10.84702523 -3.19056468
v 8.77831152 -10.96392376 -3.18967181
v 13.83385335 -17.75531818 -3.18967181
v 13.83385335 -8.67242695 -3.72395782
v 13.31572955 -8.25271830 -3.74897466
v 12.98515964 -7.88230403 -3.79632790
v 12.36608345 -7.39780820 -3.94910939
v 9.89076816 -7.39780820 -3.92230497
v 8.77831152 -8.66538503 -3.72306495
v 8.77831152 -17.75531818 -3.18967181
v 13.83385335 -20.85383963 -3.70966275
v 13.83385335 -8.58228811 -3.90175615
v 13.36620574 -7.51470673 -4.21267817
v 13.04107939 -7.34428837 -4.06436469
v 12.87183558 -6.99500034 -4.21803905
v 9.89076816 -6.99500034 -4.20999772
v 9.55673448 -7.05697103 -4.31363840
v 8.77831152 -8.08229948 -4.08670109
v 8.77831152 -20.85383963 -3.70966275
v 8.77831152 -21.08763761 -3.99467506
v 13.83385335 -21.03834183 -3.93481432
v 13.83385335 -8.49919165 -4.06793800
v 13.27910960 -7.10908238 -4.68710344
v 12.96981882 -6.94852244 -4.68710344
v 12.36608345 -6.92457926 -4.68710344
v 9.89076816 -6.90204454 -4.68710344
v 9.54485789 -7.04147824 -4.68710344
v 8.77831152 -7.99356911 -4.70050565
v 8.77831152 -7.99497759 -4.68710344
v 8.77831152 -21.14678996 -4.06793800
v 13.83385335 -21.14678996 -4.06793800
v 13.83385335 -8.41468625 -4.68710344
v 13.27910960 -7.10908238 -11.49523355
v 13.83385335 -8.41327777 -4.73892285
v 13.83385335 -8.40482737 -5.30626703
v 12.96981882 -6.94852244 -11.49523355
v 12.36608345 -6.92457926 -11.49523355
v 9.89076816 -6.90204454 -11.49523355
v 9.54485789 -7.04147824 -11.49523355
v 8.77831152 -7.98793567 -5.30626703
v 8.77831152 -21.29044909 -4.68710344
v 13.83385335 -21.29044909 -4.68710344
v 13.36620574 -7.51470673 -11.90175676
v 12.87183558 -6.99500034 -11.91068911
v 13.83385335 -8.40482737 -10.90376540
v 13.83385335 -8.42032016 -11.49523355
v 13.83385335 -8.43017904 -11.52739701
v 13.83385335 -8.61749865 -12.07955324
v 9.89076816 -6.99500034 -11.91247668
v 9.55673448 -7.05697103 -11.84189418
v 8.77831152 -8.04145549 -11.50416774
v 8.77831152 -7.98793567 -10.88142900
v 8.77831152 -21.29044909 -10.87606812
v 13.83385335 -21.29044909 -10.87606812
v 13.04107939 -7.34428837 -12.00807787
v 12.36608345 -7.39780820 -12.08401942
v 9.89076816 -7.39780820 -12.10278251
v 13.83385335 -9.25410356 -12.31185143
v 8.77831152 -8.58087963 -12.08491413
v 8.77831152 -8.20624040 -11.81955778
v 8.77831152 -8.04708894 -11.51935568
v 8.77831152 -21.28904153 -11.36925648
v 13.83385335 -21.28904153 -11.26561581
v 12.98515964 -8.01610383 -12.19480855
v 12.36608345 -8.01610383 -12.22161297
v 9.89076816 -8.01610383 -12.22786672
v 8.77831152 -9.25410356 -12.31542658
v 13.83385335 -9.36818560 -12.31721231
v 12.76989336 -9.03861579 -12.31721231
v 12.36608345 -8.63580793 -12.29576878
v 12.98515964 -8.63580793 -12.27521996
v 8.77831152 -21.28763213 -11.49523355
v 13.83385335 -21.28763213 -11.49523355
v 9.89076816 -8.63580793 -12.29576878
v 9.89076816 -8.99495484 -12.31721231
v 8.77831152 -9.29353954 -12.31721231
v 13.83385335 -20.44680634 -12.31721231
v 12.36608345 -8.99636332 -12.31721231
v 13.83385335 -21.10453749 -11.85797683
v 8.77831152 -21.05524355 -11.95536190
v 8.77831152 -20.44680634 -12.31721231
v 13.83385335 -20.99608936 -12.07240478
v 8.77831152 -20.51722743 -12.28594172
v 8.77831152 -20.99608936 -12.07240478
f 1 2 8
f 1 8 16
f 1 16 9
f 1 9 3
f 1 3 4
f 1 4 5
f 1 5 6
f 1 6 2
f 2 7 8
f 2 6 7
f 3 9 17
f 3 17 27
f 3 27 37
f 3 37 48
f 3 48 60
f 3 60 69
f 3 69 79
f 3 79 85
f 3 85 88
f 3 88 83
f 3 83 74
f 3 74 64
f 3 64 54
f 3 54 53
f 3 53 52
f 3 52 51
f 3 51 41
f 3 41 40
f 3 40 38
f 3 38 28
f 3 28 18
f 3 18 10
f 3 10 4
f 4 10 11
f 4 11 12
f 4 12 5
f 5 12 13
f 5 13 14
f 5 14 6
f 6 14 15
f 6 15 7
f 7 15 24
f 7 24 35
f 7 35 34
f 7 34 46
f 7 46 58
f 7 58 57
f 7 57 67
f 7 67 66
f 7 66 65
f 7 65 73
f 7 73 82
f 7 82 87
f 7 87 89
f 7 89 90
f 7 90 86
f 7 86 78
f 7 78 68
f 7 68 59
f 7 59 47
f 7 47 36
f 7 36 26
f 7 26 25
f 7 25 16
f 7 16 8
f 9 16 25
f 9 25 17
f 10 18 19
f 10 19 20
f 10 20 12
f 10 12 11
f 12 20 13
f 13 20 21
f 13 21 14
f 14 21 22
f 14 22 23
f 14 23 24
f 14 24 15
f 17 25 26
f 17 26 27
f 18 28 19
f 19 29 21
f 19 21 20
f 19 28 29
f 21 29 30
f 21 30 31
f 21 31 32
f 21 32 22
f 22 32 23
f 23 32 33
f 23 33 34
f 23 34 35
f 23 35 24
f 26 36 37
f 26 37 27
f 28 38 29
f 29 39 42
f 29 42 30
f 29 38 40
f 29 40 41
f 29 41 51
f 29 51 39
f 30 42 43
f 30 43 31
f 31 43 44
f 31 44 32
f 32 44 45
f 32 45 33
f 33 45 58
f 33 58 46
f 33 46 34
f 36 47 48
f 36 48 37
f 39 49 50
f 39 50 42
f 39 51 52
f 39 52 53
f 39 53 54
f 39 54 49
f 42 50 43
f 43 50 44
f 44 50 55
f 44 55 56
f 44 56 45
f 45 56 57
f 45 57 58
f 47 59 60
f 47 60 48
f 49 61 50
f 49 54 61
f 50 61 62
f 50 62 63
f 50 63 55
f 54 64 61
f 55 63 56
f 56 63 65
f 56 65 66
f 56 66 67
f 56 67 57
f 59 68 60
f 60 68 69
f 61 64 70
f 61 70 62
f 62 70 71
f 62 71 63
f 63 71 72
f 63 72 73
f 63 73 65
f 64 74 75
f 64 75 76
f 64 76 77
f 64 77 70
f 68 78 79
f 68 79 69
f 70 77 71
f 71 77 76
f 71 76 72
f 72 76 80
f 72 80 73
f 73 80 81
f 73 81 82
f 74 83 87
f 74 87 82
f 74 82 81
f 74 81 84
f 74 84 75
f 75 84 76
f 76 84 81
f 76 81 80
f 78 85 79
f 78 86 85
f 83 88 89
f 83 89 87
f 85 86 90
f 85 90 88
f 88 90 89

