# https://github.com/mikedh/trimesh
v 13.21278408 -10.90955077 0.88406803
v 13.21278408 -11.12863492 1.50320487
v 17.53704776 -11.12863492 1.50280272
v 17.53704776 -10.91020474 0.88406803
v 13.21278408 -10.90955077 -2.10065273
v -5.58285063 -10.90955077 0.88406803
v 13.21278408 -11.38434177 1.82644254
v 17.53704776 -11.29278430 1.71065594
v -4.96403386 -11.12863492 1.50320487
v 17.53704776 -10.91020474 -2.10105489
v -6.82048419 -10.90955077 -2.10065273
v -6.82048419 -10.90955077 -0.35299918
v -6.82048419 -10.91347505 0.26493211
v -6.20166741 -10.92197664 0.88406803
v 13.21278408 -11.72964465 1.84011131
v 17.53704776 -11.60604179 1.83488510
v 17.53704776 -11.38434177 1.82604038
v -4.96403386 -11.38434177 1.82644254
v -5.38154817 -11.39611367 1.82161756
v -6.20166741 -11.17702953 1.43887888
v -5.58533553 -11.20188080 1.55949046
v 17.53704776 -17.58932734 -2.10105489
v 13.21526990 -10.91020474 -2.10105489
v -7.43930281 -10.97691094 -2.10065273
v -7.43930281 -10.97691094 -0.97213511
v -7.43930281 -10.99718443 -0.35299918
v -6.82048419 -11.03969332 0.88406803
v 17.53704776 -16.06162405 2.00615296
v 17.53704776 -11.72964465 1.83971008
v -4.34521708 -11.72964465 1.84011131
v -4.96403386 -11.72964465 1.83971008
v -5.40142919 -11.72964465 1.82644254
v -6.82048419 -11.29147636 1.29736245
v -6.20166741 -11.72964465 1.64753642
v -5.71208002 -11.72964465 1.78985718
v 17.53704776 -17.58998039 -0.13187842
v 13.21526990 -17.58932734 -2.10105489
v -7.84936059 -11.23196428 -2.10065273
v -7.84936059 -11.23196428 -0.97213511
v -7.83196447 -11.25223732 -0.35299918
v -7.48154975 -11.16002588 0.27779749
v -7.26782095 -11.28297477 0.88406803
v -7.13859156 -11.40199985 1.20167732
v 17.53704776 -16.41935234 1.99208111
v -3.10509678 -16.06162405 1.83971008
v -2.48628000 -16.68094537 1.84011131
v -2.48628000 -17.04194350 1.82644254
v -4.34521708 -13.58695464 1.83568941
v -3.72639845 -14.82363538 1.83890576
v -5.33432959 -12.20509008 1.82161756
v -4.14142971 -14.82363538 1.82563822
v -7.13859156 -11.44777858 1.20167732
v -6.84285011 -11.68451988 1.33233917
v -6.20166741 -12.34896597 1.56270681
v -5.58285063 -12.96763332 1.70663528
v -5.55799798 -12.38624311 1.77297114
v 17.53704776 -17.58998039 0.88406803
v -4.34521708 -17.58932734 -2.10065273
v -4.96403386 -17.57363117 -2.10065273
v -5.47598716 -17.27345305 -2.10065273
v -5.78663800 -16.77642666 -2.10065273
v -5.93823515 -16.46709298 -2.10065273
v -6.16439027 -15.95502530 -2.10065273
v -6.51728989 -15.14866431 -2.10065273
v -7.19077993 -13.53071241 -2.10065273
v -7.21314769 -13.47577719 -2.10065273
v -7.40450872 -12.96763332 -2.10065273
v -7.44427261 -12.85841824 -2.10065273
v -7.84936059 -11.70348544 -2.10065273
v -7.84936059 -11.70348544 -0.97213511
v -7.83196447 -11.65836067 -0.35299918
v -7.79220243 -11.32221382 0.07959238
v 17.53704776 -16.68944697 1.97077408
v -3.53752416 -16.06162405 1.82604038
v -3.47042273 -16.49979234 1.82121632
v -3.12497964 -16.69598665 1.82885456
v -2.92864697 -17.02494032 1.82161756
v -2.48628000 -17.34146765 1.50320487
v 17.53704776 -17.07202699 1.87267693
v 17.53704776 -16.92815110 1.95107385
v -4.67574893 -13.94337499 1.81598918
v -4.08178481 -15.23564399 1.82041200
v -7.06155054 -11.86044117 1.12609458
v -6.51480315 -13.28677653 1.19685326
v -7.79220243 -11.54914558 0.07959238
v -7.30013015 -11.68451988 0.90537597
v -6.20166741 -12.96763332 1.45013563
v -5.58285063 -13.58695464 1.61577513
v -4.96403386 -14.82363538 1.64954629
v -4.31290789 -15.44230273 1.76171439
v -4.91433039 -14.17226867 1.74804561
v -5.03610324 -13.58695464 1.77658964
v 17.53704776 -17.53112228 1.10518879
v -3.10509678 -17.58932734 0.88406803
v -4.34521708 -17.58932734 0.26493211
v -4.96403386 -17.57363117 -0.97213511
v -5.47598716 -17.27345305 -0.97213511
v -5.78663800 -16.77708062 -1.59127287
v -5.93823515 -16.46774695 -1.59127287
v -6.12214149 -16.06162405 -0.97213511
v -6.11965475 -16.06162405 -1.59127287
v -6.51728989 -15.15062621 -0.97213511
v -6.91989297 -14.20562200 -0.97213511
v -7.09137299 -13.80080704 -0.97213511
v -7.21314769 -13.48362574 -1.59127287
v -7.40699362 -12.96763332 -1.59127287
v -7.40699362 -12.96763332 -0.97213511
v -7.72510099 -11.96769435 -0.35299918
v -3.69409295 -16.69598665 1.76412642
v -3.34119333 -16.91245492 1.80754662
v -3.72639845 -17.28784129 1.46099115
v -3.12497964 -17.25056415 1.56150033
v 17.53704776 -17.37155113 1.50280272
v 17.53704776 -17.26495146 1.66442155
v -3.72639845 -17.58736451 0.88406803
v -5.97799903 -15.44295670 0.69712152
v -5.82888678 -14.99759476 1.13172295
v -5.91835413 -14.58493217 1.21454270
v -5.60770329 -14.80401632 1.34560671
v -6.20415231 -13.53071241 1.31424757
v -7.22557402 -12.34896597 0.70958474
v -7.15847258 -12.73285393 0.61510609
v -6.64900602 -13.53071241 0.88447019
v -6.58438948 -14.06501595 0.67902992
v -7.22805891 -12.95062967 0.25487999
v -7.64805997 -11.74534036 0.27779749
v -7.15847258 -13.35544509 0.04180055
v -5.58285063 -14.20562200 1.50159716
v -4.96403386 -15.44295670 1.54139794
v -4.34521708 -16.06162405 1.66924560
v -4.34521708 -17.49646101 0.88406803
v -4.96403386 -17.56185973 -0.35299918
v -5.45859104 -17.26168162 -0.35299918
v -5.78663800 -16.77708062 -0.97213511
v -5.93823515 -16.46774695 -0.97213511
v -6.51480315 -15.14604843 -0.62075557
v -7.07397687 -13.75437433 -0.35299918
v -7.21314769 -13.49147336 -0.97213511
v -7.19326667 -13.44504066 -0.35299918
v -7.36971463 -12.96763332 -0.35299918
v -4.34521708 -16.68094537 1.54903711
v -4.34521708 -17.19693686 1.33796754
v -5.90592780 -15.78106592 0.59339598
v -5.22995102 -16.28724788 1.15423737
v -5.32190327 -15.87458530 1.23142782
v -5.41634226 -15.44295670 1.28972328
v -4.99882610 -16.07339549 1.36932668
v -7.08143156 -13.14551651 0.45429157
v -6.49492213 -14.47637059 0.53912119
v -6.98947931 -13.57191336 0.25487999
v -6.48995049 -15.08261254 -0.20786424
v -5.89598637 -16.37880535 -0.03458558
v -6.57693479 -14.66994903 0.12703233
v -4.70308649 -17.06875714 1.23022227
v -4.92923977 -17.18189558 0.84145214
v -4.96403386 -17.45068227 0.26493211
v -5.76675513 -16.73457173 -0.35299918
v -5.37160674 -17.15115905 0.26493211
v -5.91835413 -16.42523806 -0.35299918
v -6.08237761 -16.06162405 -0.35299918
v -6.38308701 -15.38802240 -0.38958454
v -6.61172703 -14.85502680 -0.38958454
v -6.88509889 -14.20562200 -0.35299918
v -4.81243670 -16.68094537 1.29615597
v -6.18924108 -15.44295670 0.26493211
v -5.95811617 -16.01715326 0.20945084
v -5.80900391 -16.19372851 0.37830575
v -5.29456571 -17.03148000 0.60626044
v -5.38154817 -16.68094537 0.72365568
v -5.12308754 -16.68094537 1.03322364
v -6.68628316 -14.24551501 0.30593936
v -5.67480288 -16.62339428 0.20945084
f 1 2 3
f 1 3 4
f 1 4 10
f 1 10 5
f 1 5 11
f 1 11 12
f 1 12 6
f 1 6 9
f 1 9 2
f 2 7 8
f 2 8 3
f 2 9 18
f 2 18 7
f 3 8 17
f 3 17 16
f 3 16 29
f 3 29 28
f 3 28 44
f 3 44 73
f 3 73 80
f 3 80 79
f 3 79 114
f 3 114 113
f 3 113 93
f 3 93 57
f 3 57 36
f 3 36 22
f 3 22 10
f 3 10 4
f 5 10 23
f 5 23 11
f 6 12 13
f 6 13 14
f 6 14 9
f 7 15 16
f 7 16 17
f 7 17 8
f 7 18 30
f 7 30 15
f 9 19 18
f 9 14 20
f 9 20 21
f 9 21 19
f 10 22 37
f 10 37 23
f 11 24 25
f 11 25 12
f 11 23 24
f 12 25 13
f 13 25 26
f 13 26 27
f 13 27 14
f 14 27 20
f 15 28 29
f 15 29 16
f 15 30 28
f 18 19 31
f 18 31 30
f 19 32 31
f 19 21 20
f 19 20 33
f 19 33 34
f 19 34 35
f 19 35 32
f 20 27 33
f 22 36 37
f 23 37 69
f 23 69 38
f 23 38 24
f 24 38 39
f 24 39 25
f 25 39 26
f 26 39 40
f 26 40 41
f 26 41 27
f 27 41 42
f 27 42 43
f 27 43 33
f 28 30 31
f 28 31 45
f 28 45 46
f 28 46 47
f 28 47 44
f 31 32 48
f 31 48 49
f 31 49 45
f 32 50 51
f 32 51 48
f 32 35 50
f 33 43 34
f 34 43 52
f 34 52 53
f 34 53 54
f 34 54 55
f 34 55 56
f 34 56 35
f 35 56 50
f 36 57 95
f 36 95 58
f 36 58 37
f 37 58 59
f 37 59 60
f 37 60 61
f 37 61 62
f 37 62 63
f 37 63 64
f 37 64 65
f 37 65 66
f 37 66 67
f 37 67 68
f 37 68 69
f 38 69 70
f 38 70 39
f 39 70 71
f 39 71 40
f 40 71 85
f 40 85 72
f 40 72 41
f 41 72 42
f 42 72 43
f 43 72 85
f 43 85 52
f 44 47 73
f 45 49 74
f 45 74 75
f 45 75 76
f 45 76 46
f 46 76 77
f 46 77 47
f 47 77 78
f 47 78 79
f 47 79 80
f 47 80 73
f 48 51 49
f 49 51 74
f 50 81 82
f 50 82 51
f 50 56 81
f 51 82 75
f 51 75 74
f 52 83 84
f 52 84 53
f 52 85 86
f 52 86 83
f 53 84 87
f 53 87 54
f 54 87 88
f 54 88 55
f 55 88 89
f 55 89 90
f 55 90 91
f 55 91 56
f 56 91 92
f 56 92 81
f 57 93 94
f 57 94 95
f 58 95 96
f 58 96 59
f 59 96 97
f 59 97 60
f 60 97 134
f 60 134 98
f 60 98 61
f 61 98 99
f 61 99 62
f 62 99 100
f 62 100 101
f 62 101 63
f 63 101 100
f 63 100 64
f 64 100 102
f 64 102 103
f 64 103 104
f 64 104 65
f 65 104 66
f 66 104 105
f 66 105 67
f 67 106 68
f 67 105 106
f 68 106 69
f 69 106 107
f 69 107 70
f 70 107 108
f 70 108 71
f 71 108 85
f 75 82 90
f 75 90 109
f 75 109 110
f 75 110 76
f 76 110 77
f 77 110 111
f 77 111 112
f 77 112 78
f 78 113 114
f 78 114 79
f 78 112 111
f 78 111 115
f 78 115 94
f 78 94 113
f 81 92 90
f 81 90 82
f 83 86 84
f 84 116 117
f 84 117 118
f 84 118 119
f 84 119 120
f 84 120 87
f 84 86 121
f 84 121 122
f 84 122 123
f 84 123 124
f 84 124 116
f 85 125 126
f 85 126 86
f 85 108 127
f 85 127 125
f 86 126 121
f 87 120 119
f 87 119 128
f 87 128 88
f 88 128 129
f 88 129 89
f 89 129 130
f 89 130 90
f 90 130 109
f 90 92 91
f 93 113 94
f 94 115 95
f 95 115 131
f 95 131 132
f 95 132 96
f 96 132 97
f 97 132 133
f 97 133 134
f 98 134 135
f 98 135 99
f 99 135 100
f 100 135 136
f 100 136 102
f 102 136 103
f 103 136 104
f 104 137 138
f 104 138 105
f 104 136 137
f 105 138 106
f 106 138 107
f 107 138 139
f 107 139 140
f 107 140 108
f 108 140 127
f 109 130 141
f 109 141 110
f 110 141 142
f 110 142 111
f 111 142 131
f 111 131 115
f 116 143 144
f 116 144 117
f 116 124 143
f 117 144 118
f 118 144 145
f 118 145 119
f 119 146 147
f 119 147 129
f 119 129 128
f 119 145 146
f 121 126 122
f 122 148 124
f 122 124 123
f 122 126 148
f 124 148 149
f 124 149 143
f 125 127 148
f 125 148 126
f 127 150 148
f 127 140 139
f 127 139 137
f 127 137 151
f 127 151 152
f 127 152 153
f 127 153 150
f 129 147 141
f 129 141 130
f 131 142 154
f 131 154 155
f 131 155 156
f 131 156 132
f 132 156 133
f 133 157 134
f 133 156 158
f 133 158 157
f 134 157 159
f 134 159 135
f 135 159 136
f 136 159 160
f 136 160 161
f 136 161 162
f 136 162 163
f 136 163 137
f 137 139 138
f 137 163 151
f 141 147 164
f 141 164 154
f 141 154 142
f 143 149 165
f 143 165 166
f 143 166 167
f 143 167 168
f 143 168 169
f 143 169 144
f 144 169 168
f 144 168 170
f 144 170 154
f 144 154 164
f 144 164 145
f 145 164 147
f 145 147 146
f 148 150 149
f 149 153 165
f 149 150 171
f 149 171 153
f 150 153 171
f 151 161 160
f 151 160 152
f 151 163 162
f 151 162 161
f 152 172 167
f 152 167 166
f 152 166 165
f 152 165 153
f 152 160 159
f 152 159 157
f 152 157 158
f 152 158 172
f 154 170 168
f 154 168 155
f 155 168 158
f 155 158 156
f 158 168 172
f 167 172 168

