# https://github.com/mikedh/trimesh
v -7.43994278 -8.99374560 -12.31721231
v -6.82139534 -11.18563761 -15.07019752
v -7.43994278 -11.20918233 -15.04415684
v -7.81539279 -11.29551266 -14.97891492
v -7.59120418 -9.10362065 -12.31721231
v 17.93669555 -8.99486675 -12.31721231
v 19.70049999 -11.18563761 -15.07019752
v -6.82139534 -11.73052732 -15.24045077
v 19.70049999 -11.64980323 -15.21526974
v -7.81539279 -11.59710755 -14.97891492
v -7.84780713 -11.23272705 -14.59033389
v -7.49126226 -11.77425284 -15.08335807
v -7.88832183 -11.08361111 -12.31721231
v 19.70049999 -9.22807072 -12.31721231
v -6.20284975 -13.58718887 -15.24045077
v -6.82139534 -12.34941420 -15.23959111
v 19.70049999 -11.73052732 -15.24045077
v -7.84780713 -11.68568020 -14.59033389
v -7.36161227 -12.34941420 -15.06933786
v -7.25086741 -12.96830107 -15.02670168
v -7.17253505 -13.39210418 -14.95630919
v -6.82139534 -12.96830107 -15.19695862
v -7.88832183 -11.21254580 -12.31721231
v 19.70049999 -20.44764202 -12.31721231
v -4.96305414 -16.68050256 -15.24045077
v -5.58430046 -15.44272880 -15.23901923
v -6.20284975 -14.20607575 -15.23072149
v 19.70049999 -16.68050256 -15.24045077
v -7.73436154 -11.99512409 -13.97140643
v -7.84780713 -11.68568020 -12.31721231
v -6.52427769 -15.16019309 -14.91825540
v -7.19414461 -13.44928448 -14.59033389
v -6.70524902 -14.20607575 -15.06046824
v -6.59180342 -14.82384193 -14.98921608
v -6.20284975 -14.82384193 -15.15947302
v 19.70049999 -17.28257256 -15.07019752
v 0.04204633 -20.44764202 -12.31721231
v -4.34450485 -17.28257256 -15.07019752
v -4.96305414 -17.27808794 -15.07019752
v -5.40332914 -17.17830375 -15.01325336
v -5.58430046 -16.06161568 -15.17893159
v -7.73436154 -11.99512409 -12.31721231
v -7.08069902 -13.75872792 -13.97140643
v -6.00296960 -16.06161568 -15.00867465
v -5.91653503 -16.42263318 -14.93313158
v -5.78147988 -16.75674295 -14.59033389
v -6.11101187 -16.06161568 -14.59033389
v -6.38382107 -15.48309131 -14.59033389
v -6.52967916 -15.17364788 -14.59033389
v -6.67283652 -14.82384193 -14.59033389
v -6.91323137 -14.20607575 -13.97140643
v -6.21365268 -15.39676098 -15.04616025
v -0.58460424 -20.43979347 -12.31721231
v -1.22476032 -20.41737037 -12.31721231
v -1.24906969 -20.41512714 -12.31721231
v -1.39762944 -20.39494727 -12.31721231
v -5.47085487 -17.27248171 -14.59033389
v -5.60050856 -16.64911021 -15.05617363
v -2.28628349 -19.97787017 -12.31721231
v -6.91323137 -14.20607575 -13.35276491
v -7.19414461 -13.44592055 -12.31721231
v -5.78147988 -16.75674295 -13.35276491
v -5.45735120 -17.33526732 -12.31721231
v -6.11101187 -16.06161568 -13.35276491
v -6.52967916 -15.17028395 -12.73354966
v -6.67283652 -14.82384193 -13.35276491
v -4.97115634 -17.88576327 -12.31721231
v -5.18183943 -17.71534491 -12.31721231
v -5.26827399 -17.60098524 -12.39017825
v -5.32499678 -17.52474577 -12.31721231
v -2.59960924 -19.77605947 -12.31721231
v -6.83220012 -14.40900806 -12.31721231
v -6.91053064 -14.20607575 -12.31721231
v -7.02397623 -13.90223762 -12.31721231
v -5.78147988 -16.75562133 -12.31721231
v -5.83010047 -16.65359483 -12.31721231
v -6.38382107 -15.47860669 -12.31721231
v -6.52697843 -15.16916233 -12.31721231
v -6.62421592 -14.93707998 -12.31721231
v -6.67013578 -14.82384193 -12.31721231
f 1 2 3
f 1 3 4
f 1 4 5
f 1 5 13
f 1 13 23
f 1 23 30
f 1 30 42
f 1 42 61
f 1 61 74
f 1 74 73
f 1 73 72
f 1 72 80
f 1 80 79
f 1 79 78
f 1 78 77
f 1 77 76
f 1 76 75
f 1 75 63
f 1 63 70
f 1 70 68
f 1 68 67
f 1 67 71
f 1 71 59
f 1 59 56
f 1 56 55
f 1 55 54
f 1 54 53
f 1 53 37
f 1 37 24
f 1 24 14
f 1 14 6
f 1 6 7
f 1 7 2
f 2 8 3
f 2 7 9
f 2 9 8
f 3 8 4
f 4 10 18
f 4 18 11
f 4 11 5
f 4 8 12
f 4 12 10
f 5 11 13
f 6 14 7
f 7 14 24
f 7 24 36
f 7 36 28
f 7 28 17
f 7 17 9
f 8 15 16
f 8 16 12
f 8 9 17
f 8 17 28
f 8 28 25
f 8 25 15
f 10 12 19
f 10 19 20
f 10 20 21
f 10 21 18
f 11 18 23
f 11 23 13
f 12 16 22
f 12 22 19
f 15 25 16
f 16 25 26
f 16 26 27
f 16 27 22
f 18 29 42
f 18 42 30
f 18 30 23
f 18 21 31
f 18 31 32
f 18 32 43
f 18 43 29
f 19 22 20
f 20 22 33
f 20 33 34
f 20 34 21
f 21 34 31
f 22 27 35
f 22 35 33
f 24 37 38
f 24 38 36
f 25 38 39
f 25 39 40
f 25 40 41
f 25 41 26
f 25 28 36
f 25 36 38
f 26 41 27
f 27 41 35
f 29 43 42
f 31 44 45
f 31 45 46
f 31 46 47
f 31 47 48
f 31 48 49
f 31 49 50
f 31 50 32
f 31 34 44
f 32 50 51
f 32 51 43
f 33 35 52
f 33 52 34
f 34 52 44
f 35 41 44
f 35 44 52
f 37 53 39
f 37 39 38
f 39 53 54
f 39 54 55
f 39 55 56
f 39 56 40
f 40 57 45
f 40 45 44
f 40 44 58
f 40 58 41
f 40 56 59
f 40 59 57
f 41 58 44
f 42 43 60
f 42 60 61
f 43 51 60
f 45 57 46
f 46 62 64
f 46 64 47
f 46 57 63
f 46 63 62
f 47 64 48
f 48 64 49
f 49 64 65
f 49 65 66
f 49 66 50
f 50 66 60
f 50 60 51
f 57 67 68
f 57 68 69
f 57 69 70
f 57 70 63
f 57 59 71
f 57 71 67
f 60 66 72
f 60 72 73
f 60 73 74
f 60 74 61
f 62 75 76
f 62 76 64
f 62 63 75
f 64 76 77
f 64 77 65
f 65 77 78
f 65 78 79
f 65 79 66
f 66 79 80
f 66 80 72
f 68 70 69

