# https://github.com/mikedh/trimesh
v 17.53456103 -10.84568547 -3.18916266
v 13.21256090 -10.90994182 0.88387369
v 17.53704777 -10.91061839 0.88387369
v 17.53704777 -10.91061839 -2.10084982
v 17.53456103 -17.75560965 -3.18916266
v -6.20410972 -10.84568547 -3.18916266
v 17.53704777 -11.12976618 1.50278732
v -5.58241880 -10.90994182 0.88387369
v 17.53704777 -17.58921934 -2.10084982
v 17.53704777 -17.58921934 0.88387369
v 13.21256090 -17.58989545 0.88387369
v -3.72480444 -17.75560965 -3.18916266
v -6.82331390 -10.84636158 -3.18916266
v 17.53704777 -11.29345068 1.71027896
v -4.96321278 -11.12976618 1.50278732
v -6.81834041 -10.91399984 0.26445091
v -6.20162298 -10.92211680 0.88387369
v 17.53704777 -17.53105117 1.10509591
v -2.48390750 -17.58989545 0.88387369
v -4.34400861 -17.75493354 -3.18916266
v -7.43754643 -10.89032691 -3.18916266
v 13.21256090 -11.38543844 1.82623066
v 17.53704777 -11.38543844 1.82572243
v -4.96321278 -11.38543844 1.82623066
v -6.20162298 -11.17711296 1.43870945
v -5.58490555 -11.20213902 1.55923801
v -5.38098905 -11.39693731 1.82114465
v -6.81834041 -11.03980719 0.88387369
v -7.43754643 -10.99787156 -0.35344717
v 17.53704777 -17.37142469 1.50278732
v -3.10311167 -17.58921934 0.88387369
v -3.72480444 -17.58719010 0.88387369
v -4.34400861 -17.58921934 0.26445091
v -4.92093818 -17.70826287 -3.18916266
v -7.86775641 -11.15141033 -3.18916266
v 13.21256090 -11.72971747 1.83996124
v 17.53704777 -11.60729249 1.83487615
v -4.96321278 -11.72971747 1.83945301
v -4.34400861 -11.72971747 1.83996124
v -6.81834041 -11.29277411 1.29733044
v -6.20162298 -11.72971747 1.64721848
v -5.71172936 -11.72971747 1.78961395
v -5.40088483 -11.72971747 1.82623066
v -7.47982104 -11.16087996 0.27767233
v -7.26595942 -11.28330494 0.88387369
v -7.13664702 -11.40302457 1.20121364
v -7.84786247 -11.23325281 -0.97185256
v -7.83045528 -11.25354429 -0.35344717
v 17.53704777 -17.26523178 1.66400030
v -2.48390750 -17.34098701 1.50278732
v -3.72480444 -17.28822953 1.46057728
v -4.34400861 -17.49587891 0.88387369
v -4.96321278 -17.56216403 -0.35344717
v -5.45807988 -17.26117423 -0.35344717
v -5.47548707 -17.27267264 -0.97185256
v -5.45559314 -17.31663705 -3.18916266
v -7.84537573 -11.70469141 -3.18916266
v -7.84786247 -11.70469141 -2.10084982
v -7.84786247 -11.70469141 -0.97185256
v 17.53704777 -16.06194774 2.00524285
v -4.34400861 -13.58774046 1.83538438
v -3.72480444 -14.82416753 1.83843562
v -3.10311167 -16.06194774 1.83945301
v -7.13664702 -11.44901868 1.20121364
v -6.84072109 -11.68575260 1.33191238
v -6.20162298 -12.34996025 1.56228925
v -5.58241880 -12.96817379 1.70621126
v -5.55755139 -12.38716129 1.77283213
v -5.33374096 -12.20589066 1.82114465
v -4.14009396 -14.82416753 1.82521328
v -7.79066742 -11.32253522 0.07933625
v -7.83045528 -11.65937386 -0.35344717
v 17.53704777 -17.07246320 1.87250933
v -2.48390750 -17.04202644 1.82623066
v -2.92655303 -17.02511641 1.82114465
v -3.12300561 -17.25035192 1.56127186
v -4.34400861 -17.19624131 1.33750663
v -3.33935581 -16.91283671 1.80741407
v -4.70210308 -17.06908175 1.23020133
v -4.92839840 -17.18203755 0.84115450
v -4.96321278 -17.45056136 0.26445091
v -5.37104208 -17.15159987 0.26445091
v -5.76643768 -16.73427188 -0.35344717
v -5.78633345 -16.77756019 -0.97185256
v -5.59236577 -17.09546002 -3.18916266
v -7.73844585 -12.01379818 -3.18916266
v -7.62156715 -12.34860758 -3.18916266
v -7.40521879 -12.96817379 -1.59076711
v -7.40521879 -12.96817379 -0.97185256
v -7.72352540 -11.96780407 -0.35344717
v -2.48390750 -16.68016127 1.83996124
v 17.53704777 -16.41975442 1.99202050
v -3.53580839 -16.06194774 1.82572243
v -3.46866637 -16.50024331 1.82114465
v -3.12300561 -16.69571817 1.82877367
v -7.79066742 -11.54979951 0.07933625
v -7.29828706 -11.68575260 0.90523329
v -7.05955803 -11.86161209 1.12594636
v -6.51246936 -13.28742676 1.19663586
v -6.20162298 -12.96817379 1.44989794
v -5.58241880 -13.58774046 1.61568778
v -4.96321278 -14.82416753 1.64925233
v -4.91347795 -14.17348800 1.74791214
v -5.03533013 -13.58774046 1.77639161
v -4.67474892 -13.94351790 1.81555041
v -4.08041216 -15.23608483 1.82012726
v 17.53704777 -16.92839361 1.95082693
v 17.53704777 -16.68963045 1.97066091
v -4.34400861 -16.68016127 1.54855775
v -3.69247680 -16.69571817 1.76367749
v -4.81152155 -16.68016127 1.29580482
v -5.22929782 -16.28650714 1.15391759
v -5.12236793 -16.68016127 1.03288079
v -5.29395310 -17.03188024 0.60620077
v -5.67442824 -16.62334532 0.20901761
v -5.89575193 -16.37917147 -0.03509076
v -5.91813260 -16.42448901 -0.35344717
v -5.78633345 -16.77756019 -1.59076711
v -5.93802653 -16.46777731 -0.97185256
v -5.78633345 -16.77620798 -2.10084982
v -5.78384671 -16.77214950 -3.18916266
v -7.39775857 -12.96817379 -3.18916266
v -7.40024531 -12.96817379 -2.82910536
v -7.40273205 -12.96817379 -2.21019081
v -7.21124926 -13.49169376 -0.97185256
v -7.19135533 -13.44570011 -0.35344717
v -7.36791767 -12.96817379 -0.35344717
v -7.15654095 -13.35641723 0.04170307
v -4.31168097 -15.44170496 1.76164364
v -7.22616971 -12.95126422 0.25478804
v -7.64643456 -11.74595047 0.27767233
v -7.22368297 -12.34996025 0.70943837
v -7.15654095 -12.73346911 0.61484626
v -6.64675525 -13.53092450 0.88438192
v -6.58209812 -14.06526678 0.67892505
v -5.97781440 -15.44238107 0.69672425
v -5.82860806 -14.99799777 1.13154060
v -5.91813260 -14.58540437 1.21443598
v -5.60728622 -14.80455216 1.34513473
v -6.20410972 -13.53092450 1.31411318
v -5.58241880 -14.20595399 1.50126170
v -4.96321278 -15.44238107 1.54092965
v -4.34400861 -16.06194774 1.66908631
v -4.99802717 -16.07344615 1.36903733
v -5.32130725 -15.87391374 1.23121780
v -5.90569889 -15.78124849 0.59297843
v -5.38098905 -16.68016127 0.72316894
v -5.80871413 -16.19384281 0.37785776
v -5.95792046 -16.01663019 0.20901761
v -6.18918927 -15.44238107 0.26445091
v -6.57463790 -14.66995266 0.12663046
v -6.48760010 -15.08254606 -0.20799862
v -6.08225754 -16.06194774 -0.35344717
v -6.12204541 -16.06194774 -0.97185256
v -5.93802653 -16.46777731 -2.10084982
v -5.93553979 -16.46439586 -2.82910536
v -5.87088451 -16.59223153 -3.18916266
v -7.20627578 -13.45719852 -3.18916266
v -7.20876252 -13.46396234 -2.82910536
v -7.21124926 -13.47478465 -2.21019081
v -7.21124926 -13.47681389 -2.10084982
v -7.24606364 -13.38550177 -2.10084982
v -7.21124926 -13.48425382 -1.59076711
v -7.08939893 -13.80080052 -0.97185256
v -7.07199174 -13.75548298 -0.35344717
v -7.07945196 -13.14673862 0.45414243
v -6.98744253 -13.57285967 0.25478804
v -6.49257358 -14.47583094 0.53907167
v -6.68405637 -14.24586085 0.30564264
v -6.88299754 -14.20595399 -0.35344717
v -6.60945412 -14.85528132 -0.39006389
v -6.38067021 -15.38827046 -0.39006389
v -6.51246936 -15.14612584 -0.62043983
v -6.51495610 -15.15018433 -0.97185256
v -6.51744284 -15.14883119 -2.10084982
v -6.51744284 -15.15018433 -3.18916266
v -5.93305305 -16.46304273 -3.18916266
v -6.91781192 -14.20595399 -0.97185256
f 1 2 3
f 1 3 4
f 1 4 9
f 1 9 5
f 1 5 12
f 1 12 20
f 1 20 34
f 1 34 56
f 1 56 85
f 1 85 121
f 1 121 157
f 1 157 177
f 1 177 176
f 1 176 158
f 1 158 122
f 1 122 87
f 1 87 86
f 1 86 57
f 1 57 35
f 1 35 21
f 1 21 13
f 1 13 6
f 1 6 8
f 1 8 2
f 2 7 3
f 2 8 15
f 2 15 7
f 3 7 14
f 3 14 23
f 3 23 37
f 3 37 60
f 3 60 92
f 3 92 108
f 3 108 107
f 3 107 73
f 3 73 49
f 3 49 30
f 3 30 18
f 3 18 10
f 3 10 9
f 3 9 4
f 5 9 10
f 5 10 11
f 5 11 19
f 5 19 12
f 6 13 8
f 7 15 14
f 8 13 16
f 8 16 17
f 8 17 15
f 10 18 11
f 11 18 19
f 12 19 31
f 12 31 20
f 13 21 16
f 14 22 23
f 14 15 24
f 14 24 22
f 15 17 25
f 15 25 26
f 15 26 27
f 15 27 24
f 16 28 17
f 16 21 29
f 16 29 28
f 17 28 25
f 18 30 31
f 18 31 19
f 20 31 32
f 20 32 33
f 20 33 34
f 21 35 29
f 22 36 37
f 22 37 23
f 22 24 39
f 22 39 36
f 24 27 38
f 24 38 39
f 25 28 40
f 25 40 27
f 25 27 26
f 27 40 41
f 27 41 42
f 27 42 43
f 27 43 38
f 28 29 44
f 28 44 45
f 28 45 46
f 28 46 40
f 29 35 47
f 29 47 48
f 29 48 44
f 30 49 50
f 30 50 31
f 31 50 32
f 32 50 51
f 32 51 52
f 32 52 33
f 33 52 53
f 33 53 34
f 34 53 54
f 34 54 55
f 34 55 56
f 35 57 58
f 35 58 59
f 35 59 47
f 36 60 37
f 36 39 60
f 38 43 61
f 38 61 62
f 38 62 63
f 38 63 60
f 38 60 39
f 40 46 41
f 41 46 64
f 41 64 65
f 41 65 66
f 41 66 67
f 41 67 68
f 41 68 42
f 42 68 69
f 42 69 43
f 43 69 70
f 43 70 61
f 44 48 71
f 44 71 45
f 45 71 46
f 46 71 96
f 46 96 64
f 47 59 72
f 47 72 48
f 48 72 96
f 48 96 71
f 49 73 74
f 49 74 50
f 50 74 75
f 50 75 76
f 50 76 51
f 51 77 52
f 51 76 75
f 51 75 78
f 51 78 77
f 52 77 79
f 52 79 80
f 52 80 81
f 52 81 53
f 53 81 54
f 54 82 83
f 54 83 84
f 54 84 55
f 54 81 82
f 55 84 56
f 56 84 85
f 57 86 58
f 58 86 87
f 58 87 88
f 58 88 89
f 58 89 59
f 59 89 90
f 59 90 72
f 60 63 91
f 60 91 92
f 61 70 62
f 62 70 93
f 62 93 63
f 63 93 94
f 63 94 95
f 63 95 91
f 64 96 97
f 64 97 98
f 64 98 99
f 64 99 65
f 65 99 100
f 65 100 66
f 66 100 101
f 66 101 67
f 67 101 102
f 67 102 103
f 67 103 68
f 68 103 104
f 68 104 105
f 68 105 69
f 69 105 106
f 69 106 70
f 70 106 94
f 70 94 93
f 72 90 96
f 73 107 74
f 74 107 108
f 74 108 92
f 74 92 91
f 74 91 75
f 75 91 95
f 75 95 78
f 77 109 79
f 77 78 109
f 78 95 94
f 78 94 110
f 78 110 109
f 79 111 112
f 79 112 113
f 79 113 114
f 79 114 80
f 79 109 111
f 80 114 82
f 80 82 81
f 82 115 116
f 82 116 83
f 82 114 115
f 83 116 117
f 83 117 119
f 83 119 84
f 84 118 85
f 84 119 155
f 84 155 118
f 85 118 120
f 85 120 121
f 87 122 123
f 87 123 124
f 87 124 88
f 88 124 125
f 88 125 89
f 89 125 126
f 89 126 127
f 89 127 90
f 90 127 128
f 90 128 96
f 94 106 129
f 94 129 110
f 96 128 130
f 96 130 131
f 96 131 97
f 97 132 99
f 97 99 98
f 97 131 132
f 99 132 133
f 99 133 134
f 99 134 135
f 99 135 136
f 99 136 137
f 99 137 138
f 99 138 139
f 99 139 140
f 99 140 100
f 100 140 139
f 100 139 141
f 100 141 101
f 101 141 142
f 101 142 102
f 102 142 143
f 102 143 129
f 102 129 103
f 103 129 104
f 104 129 105
f 105 129 106
f 109 143 142
f 109 142 144
f 109 144 111
f 109 110 143
f 110 129 143
f 111 144 145
f 111 145 112
f 112 145 138
f 112 138 137
f 112 137 136
f 112 136 146
f 112 146 147
f 112 147 114
f 112 114 113
f 114 147 146
f 114 146 148
f 114 148 115
f 115 148 116
f 116 148 146
f 116 146 149
f 116 149 150
f 116 150 151
f 116 151 128
f 116 128 152
f 116 152 153
f 116 153 117
f 117 153 154
f 117 154 119
f 118 155 120
f 119 154 155
f 120 155 121
f 121 155 156
f 121 156 157
f 122 158 159
f 122 159 160
f 122 160 161
f 122 161 123
f 123 161 162
f 123 162 163
f 123 163 125
f 123 125 124
f 125 164 165
f 125 165 126
f 125 163 164
f 126 128 127
f 126 165 128
f 128 166 130
f 128 165 152
f 128 151 167
f 128 167 166
f 130 166 131
f 131 166 133
f 131 133 132
f 133 166 135
f 133 135 134
f 135 168 146
f 135 146 136
f 135 166 168
f 138 145 139
f 139 145 144
f 139 144 142
f 139 142 141
f 146 168 150
f 146 150 149
f 150 168 151
f 151 168 169
f 151 169 167
f 152 165 170
f 152 170 171
f 152 171 172
f 152 172 153
f 153 172 173
f 153 173 154
f 154 173 174
f 154 174 175
f 154 175 176
f 154 176 155
f 155 176 156
f 156 177 157
f 156 176 177
f 158 176 159
f 159 176 160
f 160 176 164
f 160 164 161
f 161 164 163
f 161 163 162
f 164 178 173
f 164 173 165
f 164 176 178
f 165 173 170
f 166 167 168
f 167 169 168
f 170 173 171
f 171 173 172
f 173 178 174
f 174 178 175
f 175 178 176

