mtllib material.mtl
usemtl mtl_monitor
v 0.00000000 -0.04500000 -0.00275000
v 0.00000000 -0.04500000 -0.03000000
v 0.00000000 -0.01200000 -0.00275000
v 0.00000000 0.04500000 -0.03000000
v 0.00000000 -0.04500000 0.01000000
v 0.00000000 -0.04500000 0.00275000
v 0.00000000 -0.01200000 0.00275000
v 0.00000000 0.00275000 -0.00000000
v 0.00000000 0.01200000 -0.00275000
v 0.00000000 0.00238157 0.00137500
v 0.00000000 0.01200000 0.00275000
v 0.00000000 0.00137500 0.00238157
v 0.00000000 0.00000000 0.00275000
v 0.00000000 0.04500000 0.00275000
v 0.00000000 0.04500000 0.01000000
v 0.00000000 -0.00137500 0.00238157
v 0.00000000 0.00238157 -0.00137500
v 0.00000000 0.04500000 -0.00275000
v 0.00000000 -0.00137500 -0.00238157
v 0.00000000 0.00000000 -0.00275000
v 0.00000000 0.00137500 -0.00238157
v 0.00000000 -0.00238157 -0.00137500
v 0.00000000 -0.00275000 -0.00000000
v 0.00000000 -0.00238157 0.00137500
v 0.00463659 -0.03862500 -0.04462450
v 0.00455857 -0.03750000 -0.04433333
v 0.00232566 -0.04200000 -0.03600000
v 0.00232566 -0.02318239 -0.03600000
v 0.00463659 -0.03637500 -0.04462450
v 0.00484974 -0.03555144 -0.04541999
v 0.00630560 -0.02862539 -0.05085333
v 0.00514091 -0.03525000 -0.04650666
v 0.00543209 -0.03555144 -0.04759333
v 0.00564524 -0.03637500 -0.04838882
v 0.00572326 -0.03750000 -0.04867999
v 0.00630560 -0.04200000 -0.05085333
v 0.00564524 -0.03862500 -0.04838882
v 0.00543209 -0.03944856 -0.04759333
v 0.00514091 -0.03975000 -0.04650666
v 0.00484974 -0.03944856 -0.04541999
v 0.00032058 -0.04200000 -0.05556284
v 0.00032058 -0.02650489 -0.05556284
v 0.00418428 -0.04200000 -0.05452756
v 0.00418428 -0.02650489 -0.05452756
v -0.02297314 0.04200000 0.03137049
v -0.02297314 0.02849511 0.03137049
v -0.01910944 0.04200000 0.03240576
v -0.01910944 0.02849511 0.03240576
v -0.01000000 0.02318239 0.01000000
v -0.01397934 0.03555144 0.02485111
v -0.01543520 0.03061562 0.03028444
v -0.01427051 0.03525000 0.02593778
v -0.01456169 0.03555144 0.02702444
v -0.01477484 0.03637500 0.02781994
v -0.01485286 0.03750000 0.02811111
v -0.01543520 0.04200000 0.03028444
v -0.01477484 0.03862500 0.02781994
v -0.01397934 0.03944856 0.02485111
v -0.01000000 0.04200000 0.01000000
v -0.01427051 0.03975000 0.02593778
v -0.01456169 0.03944856 0.02702444
v -0.01376619 0.03862500 0.02405562
v -0.01368817 0.03750000 0.02376444
v -0.01376619 0.03637500 0.02405562
v -0.02052767 -0.03862500 0.02224388
v -0.02044965 -0.03750000 0.02195271
v -0.01844637 -0.04500000 0.01447636
v -0.02052767 0.03637500 0.02224388
v -0.02044965 0.03750000 0.02195271
v -0.01844637 0.04500000 0.01447636
v -0.00111624 -0.03862500 -0.05020056
v -0.00103822 -0.03750000 -0.05049173
v -0.00191174 -0.03555144 -0.04723173
v -0.00212489 -0.03637500 -0.04643623
v -0.01783577 -0.02112500 0.01219756
v -0.00111624 -0.03637500 -0.05020056
v -0.00132940 -0.03555144 -0.04940506
v -0.00361321 -0.02112500 -0.04088173
v -0.00162057 -0.03525000 -0.04831839
v -0.00220291 -0.03750000 -0.04614506
v -0.00212489 -0.03862500 -0.04643623
v -0.00191174 -0.03944856 -0.04723173
v -0.00045588 -0.04500000 -0.05266506
v -0.00162057 -0.03975000 -0.04831839
v -0.00132940 -0.03944856 -0.04940506
v -0.00006765 -0.04459808 -0.05411395
v 0.00021655 -0.04350000 -0.05517461
v -0.00191174 0.03555144 -0.04723173
v -0.01269180 -0.00000000 -0.00700000
v -0.01285395 0.00284716 -0.00639482
v 0.00032058 0.02849511 -0.05556284
v -0.00111624 0.03637500 -0.05020056
v 0.00032058 0.04200000 -0.05556284
v -0.00103822 0.03750000 -0.05049173
v -0.00111624 0.03862500 -0.05020056
v -0.00443582 0.02000000 -0.03781173
v -0.00162057 0.03525000 -0.04831839
v -0.00132940 0.03555144 -0.04940506
v -0.00212489 0.03637500 -0.04643623
v -0.01331239 0.00520201 -0.00468391
v -0.01398784 0.00665740 -0.00216312
v 0.00021655 0.04350000 -0.05517461
v -0.00006765 0.04459808 -0.05411395
v -0.00045588 0.04500000 -0.05266506
v -0.00132940 0.03944856 -0.04940506
v -0.00162057 0.03975000 -0.04831839
v -0.00191174 0.03944856 -0.04723173
v -0.00212489 0.03862500 -0.04643623
v -0.01676148 0.02000000 0.00818827
v -0.00220291 0.03750000 -0.04614506
v -0.01640210 -0.00145538 0.00684703
v -0.01676148 -0.02000000 0.00818827
v -0.01640210 0.00145538 0.00684703
v -0.01476350 0.00696165 0.00073170
v -0.01550526 0.00606218 0.00350000
v -0.01608487 0.00411450 0.00566312
v -0.01285395 -0.00284716 -0.00639482
v -0.00443582 -0.02000000 -0.03781173
v -0.01331239 -0.00520201 -0.00468391
v -0.01398784 -0.00665740 -0.00216312
v -0.01608487 -0.00411450 0.00566312
v -0.01550526 -0.00606218 0.00350000
v -0.01476350 -0.00696165 0.00073170
v -0.02153632 0.03862500 0.02600821
v -0.02161434 0.03750000 0.02629938
v -0.02153632 0.03637500 0.02600821
v -0.02132317 0.03555144 0.02521271
v -0.01844637 0.02230427 0.01447636
v -0.02103199 0.03525000 0.02412604
v -0.02074082 0.03555144 0.02303938
v -0.02052767 0.03862500 0.02224388
v -0.02074082 0.03944856 0.02303938
v -0.02219668 0.04500000 0.02847271
v -0.02103199 0.03975000 0.02412604
v -0.02132317 0.03944856 0.02521271
v -0.02258491 0.04459808 0.02992160
v -0.02286911 0.04350000 0.03098226
v -0.02297314 -0.04200000 0.03137049
v -0.02297314 -0.02650489 0.03137049
v -0.02153632 -0.03637500 0.02600821
v -0.02258491 -0.04459808 0.02992160
v -0.02286911 -0.04350000 0.03098226
v -0.01844637 -0.02176443 0.01447636
v -0.02052767 -0.03637500 0.02224388
v -0.02074082 -0.03555144 0.02303938
v -0.02103199 -0.03525000 0.02412604
v -0.02132317 -0.03555144 0.02521271
v -0.02219668 -0.04500000 0.02847271
v -0.02153632 -0.03862500 0.02600821
v -0.02161434 -0.03750000 0.02629938
v -0.02132317 -0.03944856 0.02521271
v -0.02103199 -0.03975000 0.02412604
v -0.02074082 -0.03944856 0.02303938
v -0.01000000 -0.04200000 0.01000000
v -0.01023642 -0.04314805 0.01000000
v -0.01310583 0.04500000 0.01000000
v -0.01155291 0.04459808 0.01000000
v -0.01041610 0.04350000 0.01000000
v -0.01010583 0.04277646 0.01000000
v -0.01090968 -0.04412132 0.01000000
v -0.01191728 -0.04477164 0.01000000
v -0.01310583 -0.04500000 0.01000000
v -0.01000000 -0.02310824 0.01000000
v 0.00725000 0.02500000 -0.03000000
v 0.00761843 0.02637500 -0.03000000
v 0.01000000 -0.02775000 -0.03000000
v 0.00862500 -0.02738157 -0.03000000
v 0.00862500 0.02738157 -0.03000000
v 0.01000000 0.02775000 -0.03000000
v 0.02000000 0.04500000 -0.03000000
v 0.00761843 0.02362500 -0.03000000
v 0.00761843 -0.02362500 -0.03000000
v 0.00862500 0.02261843 -0.03000000
v 0.00862500 -0.02261843 -0.03000000
v 0.01000000 0.02225000 -0.03000000
v 0.01000000 -0.02225000 -0.03000000
v 0.01137500 0.02261843 -0.03000000
v 0.00761843 -0.02637500 -0.03000000
v 0.00725000 -0.02500000 -0.03000000
v 0.01137500 -0.02738157 -0.03000000
v 0.02000000 -0.04500000 -0.03000000
v 0.01238157 -0.02637500 -0.03000000
v 0.01275000 -0.02500000 -0.03000000
v 0.01238157 -0.02362500 -0.03000000
v 0.01137500 0.02738157 -0.03000000
v 0.01238157 0.02637500 -0.03000000
v 0.01275000 0.02500000 -0.03000000
v 0.01137500 -0.02261843 -0.03000000
v 0.01238157 0.02362500 -0.03000000
v 0.02000000 0.04500000 -0.03600000
v 0.02000000 -0.04500000 -0.03600000
v 0.01445644 -0.02144611 -0.03600000
v 0.01247314 -0.01986448 -0.03600000
v 0.01000000 0.03070000 -0.03600000
v 0.00752686 0.03013552 -0.03600000
v 0.00232566 0.04200000 -0.03600000
v 0.01555709 -0.02373163 -0.03600000
v 0.01555709 -0.02626837 -0.03600000
v 0.00554356 0.02855389 -0.03600000
v 0.00444291 0.02626837 -0.03600000
v 0.00232566 0.02330502 -0.03600000
v 0.00444291 0.02373163 -0.03600000
v 0.00554356 -0.02855389 -0.03600000
v 0.00444291 -0.02626837 -0.03600000
v 0.00554356 0.02144611 -0.03600000
v 0.01000000 -0.01930000 -0.03600000
v 0.00752686 -0.01986448 -0.03600000
v 0.00554356 -0.02144611 -0.03600000
v 0.00444291 -0.02373163 -0.03600000
v -0.00078017 -0.04500000 -0.03600000
v 0.00040838 -0.04477164 -0.03600000
v 0.00141599 -0.04412132 -0.03600000
v 0.00208925 -0.04314805 -0.03600000
v 0.00752686 0.01986448 -0.03600000
v 0.01000000 0.01930000 -0.03600000
v 0.01247314 0.01986448 -0.03600000
v 0.01445644 0.02855389 -0.03600000
v 0.01247314 0.03013552 -0.03600000
v 0.00752686 -0.03013552 -0.03600000
v 0.01000000 -0.03070000 -0.03600000
v 0.01247314 -0.03013552 -0.03600000
v 0.01445644 -0.02855389 -0.03600000
v 0.00221983 0.04277646 -0.03600000
v 0.00190956 0.04350000 -0.03600000
v 0.00077275 0.04459808 -0.03600000
v -0.00078017 0.04500000 -0.03600000
v 0.01445644 0.02144611 -0.03600000
v 0.01555709 0.02373163 -0.03600000
v 0.01555709 0.02626837 -0.03600000
v 0.00484974 0.03555144 -0.04541999
v 0.00463659 0.03637500 -0.04462450
v 0.00455857 0.03750000 -0.04433333
v 0.00463659 0.03862500 -0.04462450
v 0.00484974 0.03944856 -0.04541999
v 0.00514091 0.03975000 -0.04650666
v 0.00630560 0.04200000 -0.05085333
v 0.00543209 0.03944856 -0.04759333
v 0.00630560 0.03041335 -0.05085333
v 0.00543209 0.03555144 -0.04759333
v 0.00514091 0.03525000 -0.04650666
v 0.00564524 0.03862500 -0.04838882
v 0.00572326 0.03750000 -0.04867999
v 0.00564524 0.03637500 -0.04838882
v 0.00418428 0.04200000 -0.05452756
v 0.00418428 0.02849511 -0.05452756
v -0.01910944 -0.04200000 0.03240576
v -0.01910944 -0.02650489 0.03240576
v -0.01477484 -0.03637500 0.02781994
v -0.01543520 -0.02880001 0.03028444
v -0.01485286 -0.03750000 0.02811111
v -0.01543520 -0.04200000 0.03028444
v -0.01477484 -0.03862500 0.02781994
v -0.01456169 -0.03555144 0.02702444
v -0.01427051 -0.03525000 0.02593778
v -0.01397934 -0.03555144 0.02485111
v -0.01376619 -0.03637500 0.02405562
v -0.01368817 -0.03750000 0.02376444
v -0.01376619 -0.03862500 0.02405562
v -0.01397934 -0.03944856 0.02485111
v -0.01427051 -0.03975000 0.02593778
v -0.01456169 -0.03944856 0.02702444
v 0.00340782 0.04500000 -0.05162979
v -0.01833298 0.04500000 0.02950799
v 0.00300000 0.04500000 -0.00275000
v 0.00300000 0.04500000 0.00275000
v 0.00300000 -0.04500000 -0.00275000
v 0.00300000 -0.04500000 0.00275000
v -0.01833298 -0.04500000 0.02950799
v 0.00340782 -0.04500000 -0.05162979
v 0.00880682 -0.02747766 -0.03305000
v 0.00862500 -0.02738157 -0.03305000
v 0.00784996 -0.02671460 -0.03305000
v 0.00761843 -0.02637500 -0.03305000
v 0.00731895 -0.02561193 -0.03305000
v 0.00725000 -0.02500000 -0.03305000
v 0.00731895 -0.02438807 -0.03305000
v 0.00761843 -0.02362500 -0.03305000
v 0.00784996 -0.02328540 -0.03305000
v 0.00862500 -0.02261843 -0.03305000
v 0.00880682 -0.02252234 -0.03305000
v 0.01000000 -0.02225000 -0.03305000
v 0.01119318 -0.02252234 -0.03305000
v 0.01137500 -0.02261843 -0.03305000
v 0.01215004 -0.02328540 -0.03305000
v 0.01238157 -0.02362500 -0.03305000
v 0.01268105 -0.02438807 -0.03305000
v 0.01275000 -0.02500000 -0.03305000
v 0.01268105 -0.02561193 -0.03305000
v 0.01238157 -0.02637500 -0.03305000
v 0.01215004 -0.02671460 -0.03305000
v 0.01137500 -0.02738157 -0.03305000
v 0.01119318 -0.02747766 -0.03305000
v 0.01000000 -0.02775000 -0.03305000
v 0.00880682 0.02252234 -0.03305000
v 0.00862500 0.02261843 -0.03305000
v 0.00784996 0.02328540 -0.03305000
v 0.00761843 0.02362500 -0.03305000
v 0.00731895 0.02438807 -0.03305000
v 0.00725000 0.02500000 -0.03305000
v 0.00731895 0.02561193 -0.03305000
v 0.00761843 0.02637500 -0.03305000
v 0.00784996 0.02671460 -0.03305000
v 0.00862500 0.02738157 -0.03305000
v 0.00880682 0.02747766 -0.03305000
v 0.01000000 0.02775000 -0.03305000
v 0.01119318 0.02747766 -0.03305000
v 0.01137500 0.02738157 -0.03305000
v 0.01215004 0.02671460 -0.03305000
v 0.01238157 0.02637500 -0.03305000
v 0.01268105 0.02561193 -0.03305000
v 0.01275000 0.02500000 -0.03305000
v 0.01268105 0.02438807 -0.03305000
v 0.01238157 0.02362500 -0.03305000
v 0.01215004 0.02328540 -0.03305000
v 0.01137500 0.02261843 -0.03305000
v 0.01119318 0.02252234 -0.03305000
v 0.01000000 0.02225000 -0.03305000
v -0.01289778 0.02000000 0.00922354
v -0.01038823 -0.02155412 0.00989597
v -0.01038823 0.02159120 0.00989597
v -0.01144889 0.02042636 0.00961177
v -0.01144889 -0.02041643 0.00961177
v -0.01214778 0.02010844 0.00942450
v -0.01214778 -0.02010591 0.00942450
v -0.01289778 -0.02000000 0.00922354
v -0.00057211 -0.02000000 -0.03677646
v 0.00193743 -0.02159120 -0.03610403
v -0.00057211 0.02000000 -0.03677646
v 0.00017789 -0.02010844 -0.03657550
v 0.00017789 0.02011262 -0.03657550
v 0.00087677 -0.02042636 -0.03638823
v 0.00087677 0.02044279 -0.03638823
v 0.00193743 0.02165251 -0.03610403
v -0.00500000 0.00000000 0.00700000
v -0.00500000 -0.00145538 0.00684703
v -0.00500000 -0.00411450 0.00566312
v -0.00500000 -0.00606218 0.00350000
v -0.00500000 -0.00696165 0.00073170
v -0.00500000 -0.00665740 -0.00216312
v -0.00500000 -0.00520201 -0.00468391
v -0.00500000 -0.00284716 -0.00639482
v -0.00500000 0.00000000 -0.00700000
v -0.00500000 0.00284716 -0.00639482
v -0.00500000 0.00520201 -0.00468391
v -0.00500000 0.00665740 -0.00216312
v -0.00500000 0.00696165 0.00073170
v -0.00500000 0.00606218 0.00350000
v -0.00500000 0.00411450 0.00566312
v -0.00500000 0.00145538 0.00684703
v -0.00500000 0.00000000 0.00570000
v -0.00500000 0.00247314 0.00513552
v -0.00500000 0.00445644 0.00355389
v -0.00500000 0.00555709 0.00126837
v -0.00500000 0.00555709 -0.00126837
v -0.00500000 0.00445644 -0.00355389
v -0.00500000 0.00247314 -0.00513552
v -0.00500000 0.00000000 -0.00570000
v -0.00500000 -0.00247314 -0.00513552
v -0.00500000 -0.00445644 -0.00355389
v -0.00500000 -0.00555709 -0.00126837
v -0.00500000 -0.00555709 0.00126837
v -0.00500000 -0.00445644 0.00355389
v -0.00500000 -0.00247314 0.00513552
v -0.00205000 0.00119318 0.00247767
v -0.00205000 0.00137500 0.00238157
v -0.00205000 0.00215004 0.00171460
v -0.00205000 0.00238157 0.00137500
v -0.00205000 0.00268105 0.00061193
v -0.00205000 0.00275000 -0.00000000
v -0.00205000 0.00268105 -0.00061193
v -0.00205000 0.00238157 -0.00137500
v -0.00205000 0.00215004 -0.00171460
v -0.00205000 0.00137500 -0.00238157
v -0.00205000 0.00119318 -0.00247767
v -0.00205000 0.00000000 -0.00275000
v -0.00205000 -0.00119318 -0.00247767
v -0.00205000 -0.00137500 -0.00238157
v -0.00205000 -0.00215004 -0.00171460
v -0.00205000 -0.00238157 -0.00137500
v -0.00205000 -0.00268105 -0.00061193
v -0.00205000 -0.00275000 -0.00000000
v -0.00205000 -0.00268105 0.00061193
v -0.00205000 -0.00238157 0.00137500
v -0.00205000 -0.00215004 0.00171460
v -0.00205000 -0.00137500 0.00238157
v -0.00205000 -0.00119318 0.00247767
v -0.00205000 0.00000000 0.00275000
v 0.00490782 -0.02657714 -0.05422786
v 0.00552914 -0.02678898 -0.05375110
v 0.00630560 -0.02756513 -0.05240624
v 0.00451675 -0.04477164 -0.05133265
v 0.00545686 -0.04412132 -0.05108074
v 0.00608502 -0.04314805 -0.05091243
v 0.00609572 -0.04312094 -0.05090956
v 0.00638397 -0.04200000 -0.05200734
v 0.00522287 -0.04200000 -0.05401842
v 0.00552914 -0.04200000 -0.05375110
v 0.00600590 -0.04200000 -0.05312978
v 0.00630560 -0.04200000 -0.05240624
v 0.00550234 -0.04411435 -0.05200734
v 0.00405313 -0.04366843 -0.05403809
v 0.00409054 -0.04368175 -0.05401842
v 0.00405037 -0.04368422 -0.05402781
v 0.00438507 -0.04440728 -0.05312978
v 0.00379605 -0.04459808 -0.05307867
v 0.00452728 -0.04475758 -0.05200734
v 0.00350961 -0.04497411 -0.05200968
v 0.00615473 -0.04314540 -0.05200734
v 0.00580578 -0.04299989 -0.05312978
v 0.00417658 -0.04242138 -0.05449884
v 0.00508307 -0.04269854 -0.05401842
v 0.00523626 -0.04384575 -0.05312978
v 0.00468519 -0.04328947 -0.05401842
v 0.00408025 -0.04350000 -0.05413933
v 0.00630560 0.02945423 -0.05240624
v 0.00490782 0.02856048 -0.05422786
v 0.00552914 0.02875211 -0.05375110
v 0.00522287 0.04200000 -0.05401842
v 0.00552914 0.04200000 -0.05375110
v 0.00600590 0.04200000 -0.05312978
v 0.00638397 0.04200000 -0.05200734
v 0.00630560 0.04200000 -0.05240624
v 0.00609503 0.04312270 -0.05090975
v 0.00591737 0.04350000 -0.05095735
v 0.00548011 0.04409698 -0.05107452
v 0.00452923 0.04476625 -0.05132930
v 0.00485671 0.04459808 -0.05124155
v 0.00438507 0.04440728 -0.05312978
v 0.00379605 0.04459808 -0.05307867
v 0.00350961 0.04497411 -0.05200968
v 0.00409054 0.04368175 -0.05401842
v 0.00405037 0.04368422 -0.05402781
v 0.00405313 0.04366843 -0.05403809
v 0.00468519 0.04328947 -0.05401842
v 0.00408025 0.04350000 -0.05413933
v 0.00508307 0.04269854 -0.05401842
v 0.00417658 0.04242138 -0.05449884
v 0.00615473 0.04314540 -0.05200734
v 0.00550234 0.04411435 -0.05200734
v 0.00452728 0.04475758 -0.05200734
v 0.00523626 0.04384575 -0.05312978
v 0.00580578 0.04299989 -0.05312978
v -0.01833298 0.02856737 0.03250799
v -0.01755652 0.02877921 0.03240576
v -0.01621166 0.02955537 0.03162931
v -0.01766824 0.04492000 0.02968610
v -0.01688409 0.04459808 0.02989621
v -0.01649056 0.04431555 0.03000166
v -0.01582343 0.04350000 0.03018042
v -0.01555329 0.04200000 0.03063642
v -0.01833298 0.04200000 0.03250799
v -0.01755652 0.04200000 0.03240576
v -0.01717840 0.04200000 0.03227691
v -0.01621166 0.04200000 0.03162931
v -0.01807606 0.04312563 0.03227691
v -0.01858990 0.04312563 0.03227691
v -0.01761311 0.04290269 0.03227691
v -0.01909685 0.04253788 0.03235881
v -0.01909887 0.04249308 0.03236635
v -0.01771444 0.04470999 0.03063642
v -0.01863617 0.04476183 0.03063953
v -0.01872121 0.04459808 0.03095687
v -0.01659987 0.04417324 0.03063642
v -0.01582857 0.04320606 0.03063642
v -0.01729274 0.04250095 0.03227691
v -0.01785872 0.04407786 0.03161928
v -0.01859015 0.04393601 0.03178520
v -0.01700414 0.04366631 0.03161928
v -0.01641275 0.04292473 0.03161928
v -0.01905284 0.04290269 0.03227691
v -0.01900541 0.04350000 0.03201753
v -0.01905041 0.04314730 0.03218548
v -0.01621166 -0.02765245 0.03162931
v -0.01833298 -0.02658309 0.03250799
v -0.01755652 -0.02681237 0.03240576
v -0.01833298 -0.04200000 0.03250799
v -0.01755652 -0.04200000 0.03240576
v -0.01717840 -0.04200000 0.03227691
v -0.01621166 -0.04200000 0.03162931
v -0.01555329 -0.04200000 0.03063642
v -0.01565578 -0.04314805 0.03022534
v -0.01628394 -0.04412132 0.03005702
v -0.01648910 -0.04431431 0.03000205
v -0.01766735 -0.04491978 0.02968634
v -0.01722405 -0.04477164 0.02980512
v -0.01807606 -0.04312563 0.03227691
v -0.01761311 -0.04290269 0.03227691
v -0.01858990 -0.04312563 0.03227691
v -0.01872121 -0.04459808 0.03095687
v -0.01863617 -0.04476183 0.03063953
v -0.01771444 -0.04470999 0.03063642
v -0.01905041 -0.04314730 0.03218548
v -0.01900541 -0.04350000 0.03201753
v -0.01859015 -0.04393601 0.03178520
v -0.01785872 -0.04407786 0.03161928
v -0.01909887 -0.04249308 0.03236635
v -0.01909685 -0.04253788 0.03235881
v -0.01582857 -0.04320606 0.03063642
v -0.01659987 -0.04417324 0.03063642
v -0.01700414 -0.04366631 0.03161928
v -0.01641275 -0.04292473 0.03161928
v -0.01729274 -0.04250095 0.03227691
v -0.01905284 -0.04290269 0.03227691
v 0.00300000 -0.01200000 -0.00275000
v 0.00300000 -0.01200000 0.00275000
v 0.00300000 0.01200000 -0.00275000
v 0.00300000 0.01200000 0.00275000
v 0.00348920 -0.09212977 -0.07413210
v 0.00348920 -0.02750000 -0.07413210
v 0.00241775 -0.02750000 -0.06507944
v 0.00242677 -0.09212977 -0.06513340
v 0.00048357 -0.02750000 -0.05617115
v 0.00048357 -0.09212977 -0.05617115
v 0.00416139 -0.13000000 -0.08921545
v -0.03983785 -0.13000000 0.07499194
v -0.00540128 -0.13000000 -0.09177776
v -0.04940052 -0.13000000 0.07242963
v -0.04113195 -0.12500000 0.07982157
v -0.04113195 0.12500000 0.07982157
v -0.05069461 -0.12500000 0.07725926
v -0.05069461 0.12500000 0.07725926
v -0.03983785 0.13000000 0.07499194
v 0.00416139 0.13000000 -0.08921545
v -0.04940052 0.13000000 0.07242963
v -0.00540128 0.13000000 -0.09177776
v 0.00545548 0.12500000 -0.09404508
v 0.00545548 -0.12500000 -0.09404508
v -0.00410718 0.12500000 -0.09660739
v -0.00410718 -0.12500000 -0.09660739
v 0.00480843 0.12933013 -0.09163026
v -0.00475423 0.12933013 -0.09419257
v 0.00528210 0.12750000 -0.09339803
v -0.00428056 0.12750000 -0.09596034
v 0.00528210 -0.12750000 -0.09339803
v -0.00428056 -0.12750000 -0.09596034
v 0.00480843 -0.12933013 -0.09163026
v -0.00475423 -0.12933013 -0.09419257
v -0.04048490 -0.12933013 0.07740676
v -0.05004757 -0.12933013 0.07484445
v -0.04095857 -0.12750000 0.07917453
v -0.05052124 -0.12750000 0.07661222
v -0.04095857 0.12750000 0.07917453
v -0.05052124 0.12750000 0.07661222
v -0.04048490 0.12933013 0.07740676
v -0.05004757 0.12933013 0.07484445
v 0.00438412 -0.11677635 -0.09004669
v 0.00401580 -0.11989278 -0.08867210
v -0.03770941 -0.12586056 0.06704850
v -0.03851601 -0.12443750 0.07005875
v -0.04006058 0.11677635 0.07582319
v -0.03969226 0.11989278 0.07444860
v -0.03917721 0.12244748 0.07252639
v -0.03851601 0.12443750 0.07005875
v -0.03770941 0.12586056 0.06704850
v -0.03675835 0.12671506 0.06349909
v -0.03566391 0.12700000 0.05941460
v -0.00001255 0.12700000 -0.07363810
v 0.00108189 0.12671506 -0.07772260
v 0.00203295 0.12586056 -0.08127201
v 0.00283954 0.12443750 -0.08428226
v 0.00350074 0.12244748 -0.08674990
v 0.00401580 0.11989278 -0.08867210
v 0.00438412 0.11677635 -0.09004669
v 0.00460527 0.11310174 -0.09087206
v 0.00350074 -0.12244748 -0.08674990
v 0.00283954 -0.12443750 -0.08428226
v 0.00203295 -0.12586056 -0.08127201
v 0.00108189 -0.12671506 -0.07772260
v -0.03917721 -0.12244748 0.07252639
v -0.03969226 -0.11989278 0.07444860
v -0.04006058 -0.11677635 0.07582319
v -0.04028174 -0.11310174 0.07664856
v 0.00467902 0.10887314 -0.09114730
v 0.00467902 -0.10887314 -0.09114730
v 0.00460527 -0.11310174 -0.09087206
v -0.00001255 -0.12700000 -0.07363810
v -0.03566391 -0.12700000 0.05941460
v -0.03675835 -0.12671506 0.06349909
v -0.04035549 -0.10887314 0.07692380
v -0.04035549 0.10887314 0.07692380
v -0.04028174 0.11310174 0.07664856
v 0.00382628 -0.02750000 -0.07895248
v 0.00382628 0.02750000 -0.07895248
v 0.00348920 0.02750000 -0.07413210
v 0.00348920 0.09212977 -0.07413210
v -0.00120237 0.11025663 -0.05662290
v -0.02818673 0.11025663 0.04408409
v -0.03287830 0.09212977 0.06159329
v -0.03287830 -0.09212977 0.06159329
v -0.00120237 -0.11025663 -0.05662290
v -0.02818673 -0.11025663 0.04408409
v -0.02650078 0.09212977 0.04453583
v -0.00210248 0.03857500 -0.04651988
v -0.00189880 0.03936195 -0.04728002
v -0.02650078 -0.09212977 0.04453583
v -0.02158846 0.03750000 0.02620278
v -0.02151391 0.03857500 0.02592455
v -0.02131023 0.03936195 0.02516441
v -0.02103199 0.03965000 0.02412604
v -0.02075377 0.03936195 0.02308767
v -0.00343230 0.02750000 -0.04155691
v -0.02055009 0.03857500 0.02232753
v -0.02047553 0.03750000 0.02204930
v 0.00048357 0.09212977 -0.05617115
v -0.00162057 0.03965000 -0.04831839
v -0.00134234 0.03936195 -0.04935676
v -0.00113866 0.03857500 -0.05011690
v -0.00106411 0.03750000 -0.05039513
v 0.00048357 0.02750000 -0.05617115
v -0.00113866 0.03642500 -0.05011690
v -0.00134234 0.03563805 -0.04935676
v -0.00162057 0.03535000 -0.04831839
v -0.02075377 0.03563805 0.02308767
v -0.02158846 -0.03750000 0.02620278
v -0.02055009 0.03642500 0.02232753
v -0.02151391 -0.03642500 0.02592455
v -0.02131023 -0.03563805 0.02516441
v -0.02103199 -0.03535000 0.02412604
v -0.02075377 -0.03563805 0.02308767
v -0.02055009 -0.03642500 0.02232753
v -0.00343230 -0.02750000 -0.04155691
v -0.02047553 -0.03750000 0.02204930
v -0.02055009 -0.03857500 0.02232753
v -0.00189880 0.03563805 -0.04728002
v -0.00210248 0.03642500 -0.04651988
v -0.00217703 0.03750000 -0.04624166
v -0.00162057 -0.03535000 -0.04831839
v -0.00134234 -0.03563805 -0.04935676
v -0.00113866 -0.03857500 -0.05011690
v -0.00106411 -0.03750000 -0.05039513
v -0.00113866 -0.03642500 -0.05011690
v -0.00217703 -0.03750000 -0.04624166
v -0.00210248 -0.03642500 -0.04651988
v -0.00189880 -0.03563805 -0.04728002
v -0.00189880 -0.03936195 -0.04728002
v -0.00162057 -0.03965000 -0.04831839
v -0.00134234 -0.03936195 -0.04935676
v -0.02075377 -0.03936195 0.02308767
v -0.02103199 -0.03965000 0.02412604
v -0.00210248 -0.03857500 -0.04651988
v -0.02131023 -0.03936195 0.02516441
v -0.02151391 -0.03857500 0.02592455
v -0.02103199 0.03535000 0.02412604
v -0.02131023 0.03563805 0.02516441
v -0.02151391 0.03642500 0.02592455
v 0.00314905 0.09544328 -0.07089531
v 0.00014706 0.10704209 -0.05969172
v 0.00122670 0.10395498 -0.06265401
v 0.00261680 0.09858407 -0.06784191
v 0.00199631 0.10127684 -0.06523556
v 0.00242677 0.09212977 -0.06513340
v 0.00241775 0.02750000 -0.06507944
v 0.00014706 -0.10704209 -0.05969172
v 0.00314905 -0.09544328 -0.07089531
v 0.00261680 -0.09858407 -0.06784191
v 0.00122670 -0.10395498 -0.06265401
v 0.00199631 -0.10127684 -0.06523556
v 0.00124140 0.10006240 -0.06070955
v 0.00066962 0.10097747 -0.05857566
v 0.00234599 0.09450050 -0.06483193
v 0.00210915 0.09670968 -0.06394804
v 0.00005603 0.10128958 -0.05628571
v 0.00173239 0.09860674 -0.06254198
v 0.00006111 0.10123511 -0.05628435
v 0.00210915 -0.09670968 -0.06394804
v 0.00234599 -0.09450050 -0.06483193
v 0.00173239 -0.09860674 -0.06254198
v 0.00124140 -0.10006240 -0.06070955
v 0.00066962 -0.10097747 -0.05857566
v 0.00005603 -0.10128958 -0.05628571
v 0.00006111 -0.10123511 -0.05628435
v -0.02855249 0.10704209 0.04741647
v -0.03155449 0.09544328 0.05862007
v -0.03048874 0.09858407 0.05570962
v -0.02909864 0.10395498 0.05052172
v -0.02972291 0.10127684 0.05314221
v -0.02692832 0.10128958 0.04442128
v -0.02692324 0.10123511 0.04442264
v -0.02692832 -0.10128958 0.04442128
v -0.02692324 -0.10123511 0.04442264
v -0.03155449 -0.09544328 0.05862007
v -0.02855249 -0.10704209 0.04741647
v -0.02909864 -0.10395498 0.05052172
v -0.03048874 -0.09858407 0.05570962
v -0.02972291 -0.10127684 0.05314221
v -0.02898144 0.09670968 0.05208360
v -0.02921827 0.09450050 0.05296749
v -0.02929905 0.09212977 0.05326897
v -0.02811369 0.10006240 0.04884512
v -0.02754191 0.10097747 0.04671123
v -0.02860468 0.09860674 0.05067754
v -0.02927988 0.09212977 0.05321773
v -0.02811369 -0.10006240 0.04884512
v -0.02754191 -0.10097747 0.04671123
v -0.02898144 -0.09670968 0.05208360
v -0.02921827 -0.09450050 0.05296749
v -0.02929905 -0.09212977 0.05326897
v -0.02927988 -0.09212977 0.05321773
v -0.02860468 -0.09860674 0.05067754
v -0.00500510 0.12869552 -0.09325633
v -0.00540128 0.12899999 -0.09177776
v -0.04940052 0.12899999 0.07242963
v -0.04991816 0.12846410 0.07436148
v -0.05029709 0.12700000 0.07577570
v -0.05043580 0.12500000 0.07629334
v -0.05043580 -0.12500000 0.07629334
v -0.05029709 -0.12700000 0.07577570
v -0.04991816 -0.12846410 0.07436148
v -0.04940052 -0.12899999 0.07242963
v -0.00540128 -0.12899999 -0.09177776
v -0.00500510 -0.12869552 -0.09325633
v -0.00466923 -0.12782843 -0.09450981
v -0.00444481 -0.12653074 -0.09534735
v -0.00436600 -0.12500000 -0.09564146
v -0.00436600 0.12500000 -0.09564146
v -0.00444481 0.12653074 -0.09534735
v -0.00466923 0.12782843 -0.09450981
v -0.05053239 -0.12500000 0.07626746
v -0.05039369 -0.12700000 0.07574982
v -0.05001475 -0.12846410 0.07433560
v -0.04949711 -0.12899999 0.07240375
v -0.00549787 -0.12899999 -0.09180364
v -0.00510169 -0.12869552 -0.09328221
v -0.00476582 -0.12782843 -0.09453569
v -0.00454140 -0.12653074 -0.09537324
v -0.00446260 -0.12500000 -0.09566734
v -0.00446260 0.12500000 -0.09566734
v -0.00454140 0.12653074 -0.09537324
v -0.00476582 0.12782843 -0.09453569
v -0.00510169 0.12869552 -0.09328221
v -0.00549787 0.12899999 -0.09180364
v -0.04949711 0.12899999 0.07240375
v -0.05001475 0.12846410 0.07433560
v -0.05039369 0.12700000 0.07574982
v -0.05053239 0.12500000 0.07626746
v -0.04671574 -0.11500000 0.06279626
v -0.04671574 0.11500000 0.06279626
v -0.00789288 -0.11500000 -0.08209262
v -0.00789288 0.11500000 -0.08209262
v -0.04690892 -0.11500000 0.06274450
v -0.00808606 -0.11500000 -0.08214438
v -0.04690892 0.11500000 0.06274450
v -0.00808606 0.11500000 -0.08214438
v -0.01059581 -0.03750000 -0.05072330
v -0.00962620 -0.03563805 -0.04935057
v -0.00982988 -0.03642500 -0.04859044
v -0.00934797 -0.03535000 -0.05038895
v -0.00982988 -0.03857500 -0.04859044
v -0.00962620 -0.03936195 -0.04935057
v -0.00990443 -0.03750000 -0.04831221
v -0.00906974 -0.03936195 -0.05142732
v -0.00886606 -0.03857500 -0.05218746
v -0.00934797 -0.03965000 -0.05038895
v -0.00886606 -0.03642500 -0.05218746
v -0.00906974 -0.03563805 -0.05142732
v -0.00879151 -0.03750000 -0.05246568
v -0.01059581 0.03750000 -0.05072330
v -0.00962620 0.03936195 -0.04935057
v -0.00982988 0.03857500 -0.04859044
v -0.00934797 0.03965000 -0.05038895
v -0.00982988 0.03642500 -0.04859044
v -0.00962620 0.03563805 -0.04935057
v -0.00990443 0.03750000 -0.04831221
v -0.00906974 0.03563805 -0.05142732
v -0.00886606 0.03642500 -0.05218746
v -0.00934797 0.03535000 -0.05038895
v -0.00886606 0.03857500 -0.05218746
v -0.00906974 0.03936195 -0.05142732
v -0.00879151 0.03750000 -0.05246568
v -0.03000723 0.03750000 0.02172113
v -0.02903763 0.03936195 0.02309386
v -0.02924131 0.03857500 0.02385400
v -0.02875940 0.03965000 0.02205549
v -0.02924131 0.03642500 0.02385400
v -0.02903763 0.03563805 0.02309386
v -0.02931586 0.03750000 0.02413223
v -0.02848117 0.03563805 0.02101712
v -0.02827749 0.03642500 0.02025698
v -0.02875940 0.03535000 0.02205549
v -0.02827749 0.03857500 0.02025698
v -0.02848117 0.03936195 0.02101712
v -0.02820294 0.03750000 0.01997875
v -0.03000723 -0.03750000 0.02172113
v -0.02903763 -0.03563805 0.02309386
v -0.02924131 -0.03642500 0.02385400
v -0.02875940 -0.03535000 0.02205549
v -0.02924131 -0.03857500 0.02385400
v -0.02903763 -0.03936195 0.02309386
v -0.02931586 -0.03750000 0.02413223
v -0.02848117 -0.03936195 0.02101712
v -0.02827749 -0.03857500 0.02025698
v -0.02875940 -0.03965000 0.02205549
v -0.02827749 -0.03642500 0.02025698
v -0.02848117 -0.03563805 0.02101712
v -0.02820294 -0.03750000 0.01997875
v 0.00157320 -0.02750000 -0.07955619
v 0.00157320 0.02750000 -0.07955619
v -0.00826193 -0.02750000 -0.04285101
v -0.00826193 0.02750000 -0.04285101
f 1 2 3
f 3 2 4
f 5 6 7
f 8 9 10
f 10 9 11
f 10 11 12
f 12 11 13
f 14 15 11
f 11 15 5
f 11 5 13
f 13 5 7
f 13 7 16
f 8 17 9
f 9 17 4
f 9 4 18
f 19 3 20
f 20 3 4
f 20 4 21
f 21 4 17
f 19 22 3
f 3 22 23
f 3 23 7
f 7 23 24
f 7 24 16
f 25 26 27
f 27 26 28
f 26 29 28
f 28 29 30
f 28 30 31
f 31 30 32
f 31 32 33
f 33 34 31
f 31 34 35
f 31 35 36
f 36 35 37
f 37 38 36
f 36 38 39
f 36 39 27
f 27 39 40
f 27 40 25
f 41 42 43
f 43 42 44
f 45 46 47
f 47 46 48
f 49 50 51
f 51 50 52
f 51 52 53
f 53 54 51
f 51 54 55
f 51 55 56
f 56 55 57
f 58 59 60
f 60 59 56
f 60 56 61
f 61 56 57
f 58 62 59
f 59 62 63
f 59 63 49
f 49 63 64
f 49 64 50
f 65 66 67
f 68 69 70
f 71 72 41
f 41 72 42
f 73 74 75
f 72 76 42
f 42 76 77
f 42 77 78
f 78 77 79
f 78 79 73
f 80 81 67
f 67 81 82
f 67 82 83
f 82 84 83
f 83 84 85
f 83 85 86
f 86 85 71
f 86 71 87
f 87 71 41
f 88 89 90
f 91 92 93
f 93 92 94
f 93 94 95
f 96 97 91
f 91 97 98
f 91 98 92
f 88 90 99
f 99 90 100
f 99 100 101
f 102 93 103
f 103 93 95
f 103 95 104
f 104 95 105
f 104 105 106
f 107 108 109
f 109 108 110
f 109 110 99
f 111 112 113
f 113 112 109
f 101 114 99
f 99 114 115
f 99 115 109
f 109 115 116
f 109 116 113
f 88 97 89
f 89 97 96
f 89 96 117
f 117 96 118
f 117 118 119
f 119 118 120
f 111 121 112
f 112 121 122
f 112 122 123
f 73 75 78
f 78 75 112
f 78 112 118
f 118 112 123
f 118 123 120
f 45 124 125
f 45 125 46
f 125 126 46
f 46 126 127
f 46 127 128
f 128 127 129
f 128 129 130
f 130 68 128
f 128 68 70
f 128 70 109
f 109 70 104
f 109 104 107
f 107 104 106
f 69 131 70
f 70 131 132
f 70 132 133
f 132 134 133
f 133 134 135
f 133 135 136
f 136 135 124
f 136 124 137
f 137 124 45
f 138 139 140
f 141 142 138
f 74 80 75
f 75 80 67
f 75 67 143
f 143 67 66
f 143 66 144
f 144 145 143
f 143 145 146
f 143 146 139
f 139 146 147
f 139 147 140
f 148 141 149
f 149 141 138
f 149 138 150
f 150 138 140
f 149 151 148
f 148 151 152
f 148 152 67
f 67 152 153
f 67 153 65
f 154 155 5
f 156 157 15
f 15 157 158
f 15 158 159
f 155 160 5
f 5 160 161
f 5 161 162
f 159 59 15
f 15 59 49
f 15 49 5
f 5 49 163
f 5 163 154
f 4 164 165
f 2 166 167
f 165 168 4
f 4 168 169
f 4 169 170
f 171 172 173
f 173 172 174
f 173 174 175
f 175 174 176
f 175 176 177
f 167 178 2
f 2 178 179
f 2 179 4
f 4 179 172
f 4 172 164
f 164 172 171
f 166 2 180
f 180 2 181
f 180 181 182
f 182 181 183
f 183 181 170
f 183 170 184
f 169 185 170
f 170 185 186
f 170 186 187
f 184 170 188
f 188 170 187
f 188 187 176
f 176 187 189
f 176 189 177
f 190 170 191
f 191 170 181
f 190 192 193
f 194 195 196
f 192 190 197
f 197 190 191
f 197 191 198
f 195 199 196
f 196 199 200
f 196 200 201
f 201 200 202
f 203 27 204
f 204 27 28
f 205 206 202
f 202 206 207
f 202 207 201
f 201 207 208
f 201 208 28
f 28 208 209
f 28 209 204
f 210 211 191
f 191 211 212
f 191 212 213
f 205 214 206
f 206 214 215
f 206 215 193
f 193 215 216
f 217 218 190
f 190 218 194
f 203 219 27
f 27 219 220
f 27 220 213
f 213 220 221
f 213 221 191
f 191 221 222
f 191 222 198
f 196 223 194
f 194 223 224
f 194 224 190
f 190 224 225
f 190 225 226
f 216 227 193
f 193 227 228
f 193 228 190
f 190 228 229
f 190 229 217
f 230 231 201
f 201 231 196
f 196 231 232
f 196 232 233
f 233 234 196
f 196 234 235
f 196 235 236
f 236 235 237
f 238 239 201
f 201 239 240
f 201 240 230
f 237 241 236
f 236 241 242
f 236 242 238
f 238 242 243
f 238 243 239
f 244 245 93
f 93 245 91
f 246 247 138
f 138 247 139
f 248 249 250
f 250 249 251
f 250 251 252
f 248 253 249
f 249 253 254
f 249 254 163
f 254 255 163
f 163 255 256
f 163 256 154
f 154 256 257
f 154 257 258
f 258 259 154
f 154 259 260
f 154 260 251
f 251 260 261
f 251 261 252
f 262 104 226
f 226 104 70
f 156 15 14
f 133 263 70
f 70 263 156
f 70 156 226
f 226 156 14
f 170 190 4
f 4 190 226
f 4 226 18
f 18 226 14
f 18 14 264
f 264 14 265
f 6 5 162
f 1 266 267
f 268 148 162
f 162 148 67
f 162 67 210
f 210 67 83
f 210 83 269
f 267 6 1
f 1 6 162
f 1 162 2
f 2 162 210
f 2 210 181
f 181 210 191
f 250 150 248
f 248 150 140
f 248 140 253
f 253 140 147
f 253 147 254
f 254 147 146
f 254 146 255
f 255 146 145
f 255 145 256
f 256 145 144
f 256 144 257
f 257 144 66
f 257 66 258
f 258 66 65
f 258 65 259
f 259 65 153
f 259 153 260
f 260 153 152
f 260 152 261
f 261 152 151
f 261 151 252
f 252 151 149
f 252 149 250
f 250 149 150
f 55 125 57
f 57 125 124
f 57 124 61
f 61 124 135
f 61 135 60
f 60 135 134
f 60 134 58
f 58 134 132
f 58 132 62
f 62 132 131
f 62 131 63
f 63 131 69
f 63 69 64
f 64 69 68
f 64 68 50
f 50 68 130
f 50 130 52
f 52 130 129
f 52 129 53
f 53 129 127
f 53 127 54
f 54 127 126
f 54 126 55
f 55 126 125
f 232 110 233
f 233 110 108
f 233 108 234
f 234 108 107
f 234 107 235
f 235 107 106
f 235 106 237
f 237 106 105
f 237 105 241
f 241 105 95
f 241 95 242
f 242 95 94
f 242 94 243
f 243 94 92
f 243 92 239
f 239 92 98
f 239 98 240
f 240 98 97
f 240 97 230
f 230 97 88
f 230 88 231
f 231 88 99
f 231 99 232
f 232 99 110
f 26 80 29
f 29 80 74
f 29 74 30
f 30 74 73
f 30 73 32
f 32 73 79
f 32 79 33
f 33 79 77
f 33 77 34
f 34 77 76
f 34 76 35
f 35 76 72
f 35 72 37
f 37 72 71
f 37 71 38
f 38 71 85
f 38 85 39
f 39 85 84
f 39 84 40
f 40 84 82
f 40 82 25
f 25 82 81
f 25 81 26
f 26 81 80
f 270 167 166
f 270 271 167
f 167 271 272
f 167 272 178
f 272 273 178
f 178 273 274
f 178 274 179
f 274 275 179
f 179 275 276
f 179 276 172
f 276 277 172
f 172 277 278
f 172 278 174
f 278 279 174
f 174 279 280
f 174 280 176
f 280 281 176
f 176 281 282
f 176 282 188
f 282 283 188
f 188 283 284
f 188 284 184
f 284 285 184
f 184 285 286
f 184 286 183
f 286 287 183
f 183 287 288
f 183 288 182
f 288 289 182
f 182 289 290
f 182 290 180
f 290 291 180
f 180 291 292
f 180 292 166
f 166 292 293
f 166 293 270
f 222 221 291
f 291 290 222
f 222 290 289
f 222 289 198
f 198 289 288
f 198 288 197
f 288 287 197
f 197 287 286
f 197 286 192
f 286 285 192
f 192 285 284
f 192 284 193
f 284 283 193
f 193 283 282
f 193 282 206
f 206 282 281
f 206 281 207
f 281 280 207
f 207 280 279
f 207 279 208
f 279 278 208
f 208 278 277
f 208 277 209
f 277 276 209
f 209 276 275
f 209 275 204
f 204 275 274
f 204 274 203
f 274 273 203
f 203 273 272
f 203 272 219
f 272 271 219
f 219 271 270
f 219 270 220
f 220 270 293
f 220 293 221
f 221 293 292
f 221 292 291
f 294 173 175
f 294 295 173
f 173 295 296
f 173 296 171
f 296 297 171
f 171 297 298
f 171 298 164
f 298 299 164
f 164 299 300
f 164 300 165
f 300 301 165
f 165 301 302
f 165 302 168
f 302 303 168
f 168 303 304
f 168 304 169
f 304 305 169
f 169 305 306
f 169 306 185
f 306 307 185
f 185 307 308
f 185 308 186
f 308 309 186
f 186 309 310
f 186 310 187
f 310 311 187
f 187 311 312
f 187 312 189
f 312 313 189
f 189 313 314
f 189 314 177
f 314 315 177
f 177 315 316
f 177 316 175
f 175 316 317
f 175 317 294
f 227 216 315
f 315 314 227
f 227 314 313
f 227 313 228
f 228 313 312
f 228 312 229
f 312 311 229
f 229 311 310
f 229 310 217
f 310 309 217
f 217 309 308
f 217 308 218
f 308 307 218
f 218 307 306
f 218 306 194
f 194 306 305
f 194 305 195
f 305 304 195
f 195 304 303
f 195 303 199
f 303 302 199
f 199 302 301
f 199 301 200
f 301 300 200
f 200 300 299
f 200 299 202
f 202 299 298
f 202 298 205
f 298 297 205
f 205 297 296
f 205 296 214
f 296 295 214
f 214 295 294
f 214 294 215
f 215 294 317
f 215 317 216
f 216 317 316
f 216 316 315
f 48 46 318
f 318 46 128
f 318 128 109
f 319 163 49
f 318 109 112
f 49 320 319
f 319 320 321
f 319 321 322
f 322 321 323
f 322 323 324
f 324 323 318
f 324 318 325
f 325 318 112
f 139 247 143
f 143 247 325
f 143 325 75
f 75 325 112
f 44 42 326
f 326 42 78
f 326 78 118
f 201 28 327
f 118 96 326
f 326 96 328
f 326 328 329
f 329 328 330
f 329 330 331
f 331 330 332
f 331 332 327
f 327 332 333
f 327 333 201
f 328 96 245
f 245 96 91
f 334 335 111
f 111 335 336
f 111 336 121
f 121 336 337
f 121 337 122
f 122 337 338
f 122 338 123
f 123 338 339
f 123 339 120
f 120 339 340
f 120 340 119
f 119 340 341
f 119 341 117
f 117 341 342
f 117 342 89
f 89 342 343
f 89 343 90
f 90 343 344
f 90 344 100
f 100 344 345
f 100 345 101
f 101 345 346
f 101 346 114
f 114 346 347
f 114 347 115
f 115 347 348
f 115 348 116
f 116 348 349
f 116 349 113
f 113 349 334
f 113 334 111
f 335 334 350
f 350 334 349
f 350 349 351
f 351 349 348
f 351 348 352
f 352 348 347
f 352 347 353
f 353 347 346
f 353 346 354
f 354 346 345
f 354 345 355
f 355 345 344
f 355 344 356
f 356 344 343
f 356 343 357
f 357 343 342
f 357 342 358
f 358 342 341
f 358 341 359
f 359 341 340
f 359 340 360
f 360 340 339
f 360 339 361
f 361 339 338
f 361 338 362
f 362 338 337
f 362 337 363
f 363 337 336
f 363 336 350
f 350 336 335
f 364 12 13
f 364 365 12
f 12 365 366
f 12 366 10
f 366 367 10
f 10 367 368
f 10 368 8
f 368 369 8
f 8 369 370
f 8 370 17
f 370 371 17
f 17 371 372
f 17 372 21
f 372 373 21
f 21 373 374
f 21 374 20
f 374 375 20
f 20 375 376
f 20 376 19
f 376 377 19
f 19 377 378
f 19 378 22
f 378 379 22
f 22 379 380
f 22 380 23
f 380 381 23
f 23 381 382
f 23 382 24
f 382 383 24
f 24 383 384
f 24 384 16
f 384 385 16
f 16 385 386
f 16 386 13
f 13 386 387
f 13 387 364
f 362 363 385
f 385 384 362
f 362 384 383
f 362 383 361
f 361 383 382
f 361 382 360
f 382 381 360
f 360 381 380
f 360 380 359
f 380 379 359
f 359 379 378
f 359 378 358
f 378 377 358
f 358 377 376
f 358 376 357
f 357 376 375
f 357 375 356
f 375 374 356
f 356 374 373
f 356 373 355
f 373 372 355
f 355 372 371
f 355 371 354
f 371 370 354
f 354 370 369
f 354 369 353
f 353 369 368
f 353 368 352
f 368 367 352
f 352 367 366
f 352 366 351
f 366 365 351
f 351 365 364
f 351 364 350
f 350 364 387
f 350 387 363
f 363 387 386
f 363 386 385
f 44 326 329
f 44 329 388
f 388 329 331
f 388 331 389
f 389 331 327
f 389 327 390
f 390 327 28
f 390 28 31
f 210 269 391
f 210 391 211
f 211 391 392
f 211 392 212
f 212 392 393
f 212 393 213
f 213 393 27
f 27 393 394
f 27 394 36
f 31 36 390
f 390 36 395
f 43 44 396
f 396 44 388
f 396 388 397
f 397 388 389
f 397 389 398
f 398 389 390
f 398 390 399
f 399 390 395
f 393 392 400
f 401 402 403
f 403 402 404
f 403 404 405
f 405 404 406
f 405 406 407
f 407 406 391
f 407 391 269
f 36 394 395
f 395 394 408
f 395 408 399
f 399 408 409
f 399 409 398
f 410 43 411
f 411 43 396
f 411 396 409
f 409 396 397
f 409 397 398
f 394 393 408
f 408 393 400
f 408 400 409
f 409 400 412
f 409 412 411
f 411 412 413
f 411 413 410
f 410 413 414
f 392 391 400
f 400 391 406
f 400 406 412
f 412 406 404
f 412 404 413
f 413 404 402
f 413 402 414
f 414 402 401
f 269 83 407
f 407 83 86
f 414 401 87
f 87 401 403
f 87 403 86
f 86 403 405
f 86 405 407
f 414 87 410
f 410 87 41
f 410 41 43
f 332 415 333
f 333 415 238
f 333 238 201
f 328 245 330
f 330 245 416
f 330 416 332
f 332 416 417
f 332 417 415
f 245 244 416
f 416 244 418
f 416 418 417
f 418 419 417
f 417 419 420
f 417 420 415
f 236 238 421
f 421 238 415
f 421 415 422
f 422 415 420
f 196 236 423
f 196 423 223
f 223 423 424
f 223 424 224
f 224 424 425
f 224 425 225
f 262 226 426
f 426 226 225
f 426 225 427
f 427 225 425
f 428 429 430
f 431 432 429
f 432 431 433
f 433 431 434
f 433 434 435
f 435 434 436
f 435 436 437
f 437 436 418
f 437 418 244
f 438 423 236
f 423 438 424
f 424 438 439
f 424 439 425
f 430 262 440
f 440 262 426
f 440 426 439
f 439 426 427
f 439 427 425
f 430 440 428
f 428 440 439
f 428 439 441
f 441 439 438
f 441 438 442
f 236 421 438
f 438 421 422
f 438 422 442
f 442 422 420
f 442 420 419
f 429 428 431
f 431 428 441
f 431 441 434
f 434 441 442
f 434 442 436
f 436 442 419
f 436 419 418
f 104 262 430
f 104 430 103
f 103 430 429
f 103 429 102
f 102 429 432
f 102 432 433
f 244 93 437
f 437 93 102
f 437 102 435
f 435 102 433
f 48 318 323
f 48 323 443
f 443 323 321
f 443 321 444
f 444 321 320
f 444 320 445
f 445 320 49
f 445 49 51
f 156 263 446
f 156 446 157
f 446 447 157
f 157 447 448
f 157 448 158
f 158 448 449
f 158 449 159
f 159 449 56
f 159 56 59
f 51 56 450
f 51 450 445
f 47 48 451
f 451 48 443
f 451 443 452
f 452 443 444
f 452 444 453
f 453 444 445
f 453 445 454
f 454 445 450
f 451 455 456
f 457 455 451
f 458 459 451
f 451 459 47
f 460 461 462
f 263 461 446
f 446 461 460
f 446 460 447
f 447 460 448
f 460 463 448
f 448 463 464
f 448 464 449
f 451 452 465
f 465 452 453
f 465 453 454
f 457 451 465
f 466 467 456
f 456 455 466
f 466 455 457
f 466 457 468
f 468 457 465
f 468 465 469
f 469 465 454
f 469 454 450
f 470 451 456
f 56 449 450
f 450 449 464
f 450 464 469
f 469 464 463
f 469 463 468
f 468 463 460
f 468 460 466
f 466 460 462
f 466 462 467
f 467 462 471
f 467 471 456
f 456 471 472
f 456 472 470
f 470 472 458
f 470 458 451
f 263 133 461
f 461 133 136
f 461 136 462
f 462 136 137
f 462 137 471
f 47 459 45
f 45 459 458
f 45 458 137
f 137 458 472
f 137 472 471
f 322 473 319
f 319 473 249
f 319 249 163
f 325 247 324
f 324 247 474
f 324 474 322
f 322 474 475
f 322 475 473
f 247 246 474
f 474 246 476
f 474 476 475
f 476 477 475
f 475 477 478
f 475 478 473
f 473 478 479
f 473 479 249
f 249 479 480
f 249 480 251
f 154 251 481
f 154 481 155
f 155 481 482
f 155 482 160
f 160 482 483
f 160 483 161
f 268 162 484
f 484 162 161
f 484 161 485
f 485 161 483
f 476 486 487
f 488 486 476
f 489 490 491
f 491 490 268
f 492 493 494
f 494 493 489
f 494 489 495
f 476 496 497
f 481 498 482
f 482 498 499
f 268 484 491
f 491 484 485
f 491 485 499
f 499 485 483
f 499 483 482
f 486 500 487
f 487 500 501
f 487 501 502
f 502 501 478
f 503 488 476
f 476 497 503
f 503 497 492
f 503 492 488
f 488 492 494
f 488 494 486
f 486 494 495
f 486 495 500
f 246 496 476
f 481 251 498
f 498 251 480
f 498 480 479
f 489 491 495
f 495 491 499
f 495 499 500
f 500 499 498
f 500 498 501
f 501 498 479
f 501 479 478
f 502 476 487
f 478 477 502
f 502 477 476
f 496 246 138
f 268 490 148
f 148 490 141
f 490 489 141
f 141 489 493
f 141 493 142
f 142 493 492
f 142 492 138
f 138 492 497
f 138 497 496
f 504 266 3
f 3 266 1
f 505 504 7
f 7 504 3
f 267 505 6
f 6 505 7
f 504 505 266
f 266 505 267
f 506 507 9
f 9 507 11
f 264 506 18
f 18 506 9
f 507 265 11
f 11 265 14
f 264 265 506
f 506 265 507
f 508 509 510
f 508 510 511
f 511 510 512
f 511 512 513
f 514 515 516
f 516 515 517
f 518 519 520
f 520 519 521
f 522 523 524
f 524 523 525
f 526 527 528
f 528 527 529
f 525 523 530
f 525 530 531
f 531 530 532
f 531 532 533
f 533 532 526
f 533 526 528
f 529 527 534
f 529 534 535
f 535 534 536
f 535 536 537
f 537 536 514
f 537 514 516
f 517 515 538
f 517 538 539
f 539 538 540
f 539 540 541
f 541 540 518
f 541 518 520
f 521 519 542
f 521 542 543
f 543 542 544
f 543 544 545
f 545 544 522
f 545 522 524
f 546 547 527
f 548 549 515
f 550 551 519
f 519 551 542
f 542 551 552
f 542 552 544
f 544 552 553
f 544 553 522
f 522 553 554
f 522 554 555
f 555 556 522
f 522 556 557
f 522 557 523
f 523 557 558
f 558 559 523
f 523 559 560
f 523 560 530
f 530 560 561
f 530 561 532
f 532 561 562
f 532 562 526
f 526 562 563
f 526 563 564
f 527 547 534
f 534 547 565
f 534 565 536
f 536 565 566
f 536 566 514
f 514 566 567
f 514 567 568
f 515 549 538
f 538 549 569
f 538 569 540
f 540 569 570
f 540 570 518
f 518 570 571
f 518 571 572
f 564 573 526
f 526 573 574
f 526 574 527
f 527 574 575
f 527 575 546
f 568 576 514
f 514 576 577
f 514 577 515
f 515 577 578
f 515 578 548
f 572 579 518
f 518 579 580
f 518 580 519
f 519 580 581
f 519 581 550
f 509 508 582
f 582 508 574
f 582 574 583
f 583 574 573
f 583 573 584
f 584 573 585
f 557 556 586
f 586 556 587
f 580 579 588
f 588 579 589
f 590 591 576
f 576 591 577
f 592 593 594
f 595 596 592
f 592 596 597
f 592 597 598
f 598 599 592
f 592 599 600
f 592 600 601
f 601 600 602
f 601 602 603
f 592 594 604
f 604 594 605
f 604 605 606
f 606 607 604
f 604 607 608
f 604 608 609
f 608 610 609
f 609 610 611
f 609 611 601
f 601 611 612
f 613 614 615
f 615 614 616
f 615 616 603
f 603 616 617
f 617 618 603
f 603 618 619
f 603 619 601
f 601 619 620
f 601 620 621
f 621 620 622
f 621 622 623
f 612 624 601
f 601 624 625
f 601 625 592
f 592 625 626
f 592 626 593
f 621 627 512
f 512 627 628
f 629 513 630
f 630 513 512
f 630 512 631
f 631 512 628
f 632 633 621
f 621 633 634
f 621 634 627
f 635 595 636
f 636 595 513
f 636 513 637
f 637 513 629
f 623 638 621
f 621 638 639
f 621 639 632
f 632 639 595
f 632 595 640
f 640 595 635
f 639 641 595
f 595 641 642
f 595 642 614
f 613 643 614
f 614 643 644
f 614 644 595
f 595 644 645
f 595 645 596
f 646 585 573
f 557 586 558
f 558 586 647
f 558 647 559
f 559 647 648
f 573 564 646
f 646 564 563
f 646 563 649
f 649 563 562
f 649 562 650
f 650 562 561
f 650 561 648
f 648 561 560
f 648 560 559
f 584 585 651
f 584 651 652
f 652 651 604
f 652 604 609
f 653 590 576
f 574 508 575
f 575 508 654
f 575 654 546
f 546 654 655
f 576 568 653
f 653 568 567
f 653 567 656
f 656 567 566
f 656 566 657
f 657 566 565
f 657 565 655
f 655 565 547
f 655 547 546
f 658 659 604
f 660 661 604
f 660 604 651
f 586 662 659
f 586 659 647
f 647 659 658
f 647 658 648
f 650 661 649
f 649 661 660
f 649 660 646
f 646 660 651
f 646 651 585
f 650 663 661
f 661 663 604
f 662 664 659
f 659 664 604
f 650 648 663
f 663 648 658
f 663 658 604
f 665 666 513
f 665 513 667
f 508 666 654
f 654 666 665
f 654 665 655
f 655 665 667
f 655 667 657
f 508 511 666
f 666 511 513
f 668 656 657
f 653 656 669
f 669 656 668
f 669 668 513
f 590 653 670
f 670 653 669
f 670 669 671
f 671 669 513
f 657 667 668
f 668 667 513
f 672 587 556
f 580 588 581
f 581 588 673
f 581 673 550
f 550 673 674
f 556 555 672
f 672 555 554
f 672 554 675
f 675 554 553
f 675 553 676
f 676 553 552
f 676 552 674
f 674 552 551
f 674 551 550
f 586 587 662
f 662 587 677
f 662 677 664
f 677 678 664
f 664 678 592
f 664 592 604
f 591 590 679
f 679 590 670
f 679 670 680
f 670 671 680
f 680 671 513
f 680 513 595
f 681 589 579
f 577 591 578
f 578 591 682
f 578 682 548
f 548 682 683
f 579 572 681
f 681 572 571
f 681 571 684
f 684 571 570
f 684 570 685
f 685 570 569
f 685 569 683
f 683 569 549
f 683 549 548
f 686 687 592
f 588 688 687
f 588 687 673
f 673 687 686
f 673 686 674
f 689 675 676
f 672 675 690
f 690 675 689
f 690 689 592
f 587 672 677
f 677 672 690
f 677 690 678
f 678 690 592
f 676 691 689
f 689 691 592
f 688 692 687
f 687 692 592
f 676 674 691
f 691 674 686
f 691 686 592
f 693 694 595
f 591 679 694
f 591 694 682
f 682 694 693
f 682 693 683
f 695 684 685
f 681 684 696
f 696 684 695
f 696 695 595
f 589 681 697
f 697 681 696
f 697 696 698
f 698 696 595
f 685 699 695
f 695 699 595
f 679 680 694
f 694 680 595
f 685 683 699
f 699 683 693
f 699 693 595
f 588 589 688
f 688 589 697
f 688 697 692
f 697 698 692
f 692 698 595
f 692 595 592
f 531 700 525
f 525 700 701
f 525 701 524
f 524 701 702
f 524 702 545
f 545 702 703
f 545 703 543
f 543 703 704
f 543 704 521
f 521 704 705
f 521 705 520
f 520 705 706
f 520 706 541
f 541 706 707
f 541 707 539
f 539 707 708
f 539 708 517
f 517 708 709
f 517 709 516
f 516 709 710
f 516 710 537
f 710 711 537
f 537 711 712
f 537 712 535
f 535 712 713
f 535 713 529
f 529 713 714
f 529 714 528
f 528 714 715
f 528 715 533
f 533 715 716
f 533 716 531
f 531 716 717
f 531 717 700
f 706 718 719
f 706 719 707
f 707 719 720
f 707 720 708
f 708 720 721
f 708 721 709
f 710 709 722
f 722 709 721
f 710 722 723
f 710 723 711
f 711 723 724
f 711 724 712
f 712 724 725
f 712 725 713
f 713 725 726
f 713 726 714
f 715 714 727
f 727 714 726
f 715 727 728
f 715 728 716
f 716 728 729
f 716 729 717
f 717 729 730
f 717 730 700
f 700 730 731
f 700 731 701
f 702 701 732
f 732 701 731
f 702 732 733
f 702 733 703
f 703 733 734
f 703 734 704
f 704 734 735
f 704 735 705
f 706 705 718
f 718 705 735
f 736 737 738
f 738 737 739
f 736 738 740
f 740 738 741
f 737 736 742
f 742 736 740
f 739 737 743
f 743 737 742
f 738 739 741
f 741 739 743
f 721 720 719
f 724 723 741
f 741 723 722
f 741 722 740
f 740 722 721
f 725 724 726
f 726 724 741
f 726 741 727
f 727 741 743
f 727 743 728
f 728 743 729
f 730 729 731
f 731 729 743
f 731 743 732
f 732 743 742
f 732 742 733
f 733 742 734
f 721 719 740
f 740 719 718
f 740 718 742
f 742 718 735
f 742 735 734
f 744 745 746
f 747 745 744
f 744 748 749
f 750 748 744
f 746 750 744
f 744 751 752
f 753 751 744
f 749 753 744
f 744 754 755
f 756 754 744
f 752 756 744
f 755 747 744
f 747 627 745
f 745 627 634
f 745 634 746
f 746 634 633
f 746 633 750
f 750 633 632
f 750 632 748
f 748 632 640
f 748 640 749
f 749 640 635
f 749 635 753
f 753 635 636
f 753 636 751
f 751 636 637
f 751 637 752
f 752 637 629
f 752 629 756
f 756 629 630
f 756 630 754
f 754 630 631
f 754 631 755
f 755 631 628
f 755 628 747
f 747 628 627
f 757 758 759
f 760 758 757
f 757 761 762
f 763 761 757
f 759 763 757
f 757 764 765
f 766 764 757
f 762 766 757
f 757 767 768
f 769 767 757
f 765 769 757
f 768 760 757
f 760 605 758
f 758 605 594
f 758 594 759
f 759 594 593
f 759 593 763
f 763 593 626
f 763 626 761
f 761 626 625
f 761 625 762
f 762 625 624
f 762 624 766
f 766 624 612
f 766 612 764
f 764 612 611
f 764 611 765
f 765 611 610
f 765 610 769
f 769 610 608
f 769 608 767
f 767 608 607
f 767 607 768
f 768 607 606
f 768 606 760
f 760 606 605
f 770 771 772
f 773 771 770
f 770 774 775
f 776 774 770
f 772 776 770
f 770 777 778
f 779 777 770
f 775 779 770
f 770 780 781
f 782 780 770
f 778 782 770
f 781 773 770
f 773 599 771
f 771 599 598
f 771 598 772
f 772 598 597
f 772 597 776
f 776 597 596
f 776 596 774
f 774 596 645
f 774 645 775
f 775 645 644
f 775 644 779
f 779 644 643
f 779 643 777
f 777 643 613
f 777 613 778
f 778 613 615
f 778 615 782
f 782 615 603
f 782 603 780
f 780 603 602
f 780 602 781
f 781 602 600
f 781 600 773
f 773 600 599
f 783 784 785
f 786 784 783
f 783 787 788
f 789 787 783
f 785 789 783
f 783 790 791
f 792 790 783
f 788 792 783
f 783 793 794
f 795 793 783
f 791 795 783
f 794 786 783
f 786 618 784
f 784 618 617
f 784 617 785
f 785 617 616
f 785 616 789
f 789 616 614
f 789 614 787
f 787 614 642
f 787 642 788
f 788 642 641
f 788 641 792
f 792 641 639
f 792 639 790
f 790 639 638
f 790 638 791
f 791 638 623
f 791 623 795
f 795 623 622
f 795 622 793
f 793 622 620
f 793 620 794
f 794 620 619
f 794 619 786
f 786 619 618
f 796 582 797
f 797 582 583
f 621 512 798
f 798 512 510
f 798 510 796
f 796 510 509
f 796 509 582
f 609 601 799
f 797 583 584
f 797 584 799
f 799 584 652
f 799 652 609
f 798 799 621
f 621 799 601
f 797 799 796
f 796 799 798

