# https://github.com/mikedh/trimesh
v 42.47340901 -21.47625089 -25.20152986
v 42.47340901 -21.47406220 -27.59863615
v 46.41506894 -21.36954367 -27.59863615
v 46.41506894 -21.36954367 -22.80062556
v 42.47340901 -21.47296786 -23.59839320
v 42.47340901 -21.41824722 -28.30903172
v 42.47340901 -20.89127541 -30.61686516
v 46.41506894 -20.92356205 -28.87696803
v 46.41506894 -20.31779230 -20.40161848
v 42.47340901 -20.88799238 -20.40161848
v 42.47340901 -21.47132635 -22.80062556
v 42.47340901 -18.16175401 -37.02371120
v 46.41506894 -20.50494075 -29.99954224
v 46.41506894 -19.23265994 -19.18976963
v 42.47340901 -19.82365429 -18.40529680
v 42.47340901 -15.88642359 -37.02371120
v 42.54864676 -18.00032437 -37.02371120
v 46.41506894 -19.41980839 -31.28167033
v 46.41506894 -19.92707849 -30.69284320
v 46.41506894 -18.00032437 -19.18027282
v 42.47340901 -15.88642359 -17.62082219
v 42.47340901 -18.00032437 -17.64171660
v 43.33998783 -15.88642359 -37.02371120
v 46.41506894 -18.64987135 -31.45072460
v 46.41506894 -15.88642359 -19.18027282
v 46.41506894 -15.88642359 -31.72994256
v 46.41506894 -16.72202468 -31.72804356
f 1 2 3
f 1 3 4
f 1 4 5
f 1 5 11
f 1 11 10
f 1 10 15
f 1 15 22
f 1 22 21
f 1 21 16
f 1 16 12
f 1 12 7
f 1 7 6
f 1 6 2
f 2 6 3
f 3 6 7
f 3 7 8
f 3 8 13
f 3 13 19
f 3 19 18
f 3 18 24
f 3 24 27
f 3 27 26
f 3 26 25
f 3 25 20
f 3 20 14
f 3 14 9
f 3 9 4
f 4 9 10
f 4 10 11
f 4 11 5
f 7 12 13
f 7 13 8
f 9 14 15
f 9 15 10
f 12 16 23
f 12 23 17
f 12 17 18
f 12 18 19
f 12 19 13
f 14 20 21
f 14 21 22
f 14 22 15
f 16 21 25
f 16 25 26
f 16 26 23
f 17 23 18
f 18 23 24
f 20 25 21
f 23 26 27
f 23 27 24

