# https://github.com/mikedh/trimesh
v -0.88374870 -46.22216463 118.22232485
v -0.30297713 -46.24932289 118.79852772
v -0.88374870 -46.21310949 118.79852772
v -0.88374870 -46.14973783 109.20124769
v 2.09385557 -46.22216463 118.79852772
v 2.09385557 -45.91436148 120.41497707
v -0.30297713 -45.92341661 120.42727947
v -0.88374870 -45.90531349 120.40884018
v -0.30297713 -46.15879297 109.20124769
v 2.09385557 -46.14068270 105.62263012
v 2.09385557 -46.14973783 106.80115700
v -0.88374870 -45.95963001 106.75813437
v -0.24305658 -45.95057487 105.62263012
v 4.49529810 -46.03204966 113.99989128
v 4.49529810 -46.03204966 116.39998198
v 4.49529810 -46.02300167 118.79852772
v 6.37588961 -45.67898512 120.13072014
v 4.49529810 -45.80572844 120.29052258
v 11.69501586 -43.94988298 120.64393044
v 4.49529810 -44.39347744 120.94970226
v 2.09385557 -44.39347744 121.07570171
v -0.30297713 -44.39347744 121.08645916
v -0.88374870 -44.39347744 121.06955051
v 3.31992908 -46.04110479 105.62263012
v 4.49529810 -45.96867800 106.80115700
v 4.49529810 -45.99583626 109.20124769
v -0.88374870 -45.70614338 105.62263012
v 7.18712552 -45.65182686 105.62263012
v 6.56948073 -45.76046705 113.99989128
v 6.69854148 -45.74235678 116.39998198
v 6.74463434 -45.73330164 118.79852772
v 7.94305070 -45.57035208 118.79852772
v 11.69501586 -44.72843170 118.79852772
v 15.71892930 -43.34333897 120.19832611
v 14.09645839 -43.62397671 120.46414375
v 14.09645839 -41.99445248 121.12332344
v 11.69501586 -41.99445248 121.30464077
v 9.29357333 -41.99445248 121.31847382
v -0.88374870 -41.99445248 121.31847382
v 4.49529810 -45.94151974 105.62263012
v 6.60174592 -45.71519852 105.62263012
v -0.88374870 45.42045593 105.62263012
v 7.80016227 -45.55224895 105.62263012
v 9.29357333 -45.24444580 105.62263012
v 9.29357333 -45.28065920 116.39998198
v 11.69501586 -44.73748684 116.39998198
v 14.09645839 -44.04946089 118.79852772
v 15.91712935 -43.41575861 118.79852772
v 17.12015508 -42.95406103 118.79852772
v 18.89473317 -42.17551231 118.79852772
v 20.68774855 -41.08010530 120.32278061
v 18.89473317 -41.47843838 120.57170391
v 18.89473317 -39.59543467 121.23242855
v 16.49329109 -39.59543467 121.31847382
v -0.88374870 41.99845791 121.31847382
v -0.88374870 45.73730707 106.16195440
v -0.25227444 45.96363544 105.62263012
v 10.51964594 -44.97286320 105.62263012
v 11.69501586 -44.67411518 105.62263012
v 12.91647865 -44.34820890 105.62263012
v 14.09645839 -44.02230263 106.80115700
v 14.09645839 -44.04946089 113.99989128
v 14.09645839 -44.05851603 116.39998198
v 15.89408292 -43.42481375 116.39998198
v 16.45180716 -43.19849253 105.62263012
v 17.06023408 -42.93595791 105.62263012
v 18.00053029 -42.52857685 105.62263012
v 18.89473317 -42.13929892 105.62263012
v 20.97813411 -41.22495174 118.79852772
v 22.18115984 -40.60935974 118.79852772
v 25.19102885 -38.59961271 120.24441719
v 23.69300841 -39.05225515 120.51332474
v 21.41140787 -39.74932909 120.72074890
v 23.69300841 -37.19640970 121.17403507
v 26.08984156 -34.79739189 121.27236843
v 21.29617526 -37.19640970 121.31847382
v 9.29357333 41.99845791 121.31847382
v -0.88374870 43.81808996 121.14330769
v -0.88374870 45.77352047 106.22956038
v -0.88374870 45.96363544 106.75813437
v -0.88374870 46.00889683 107.13305712
v 0.71106775 46.07226849 105.62263012
v 14.09645839 -44.00419950 105.62263012
v 15.86181773 -43.41575861 105.62263012
v 15.85720836 -43.42481375 106.80115700
v 15.86181773 -43.43386889 113.99989128
v 19.91338721 -41.65949821 105.62263012
v 20.87672962 -41.18874550 105.62263012
v 22.16272278 -40.62746286 116.39998198
v 23.69300841 -39.73122597 116.39998198
v 23.69300841 -39.72217083 118.79852772
v 27.81832678 -36.41786098 120.37656784
v 26.02992101 -37.20546484 120.63777924
v 25.34313603 -38.70824575 118.79852772
v 26.54616131 -37.83011198 118.79852772
v 28.09027506 -36.63512707 118.79852772
v 30.76827480 -34.47148561 118.79852772
v 28.56503232 -34.89696980 120.75455189
v 31.08170701 -32.58847475 120.79143047
v 28.49128409 -32.39836693 121.31847382
v 16.49329109 39.59943295 121.31847382
v 11.69501586 41.99845791 121.30464077
v 2.09385557 44.39747572 121.07570171
v -0.30297713 44.39747572 121.08645916
v -0.88374870 44.39747572 121.06955051
v -0.88374870 46.14468813 109.20124769
v 2.09385557 46.18090153 105.62263012
v 22.07514597 -40.57314634 105.62263012
v 22.09358348 -40.59124947 106.80115700
v 23.69300841 -39.66785431 105.62263012
v 25.30165209 -38.68108749 105.62263012
v 31.96669115 -33.47566366 118.79852772
v 30.40874971 -34.17273760 120.43956757
v 26.50467737 -37.82106400 105.62263012
v 27.32974096 -37.20546484 105.62263012
v 28.09949382 -36.61702394 105.62263012
v 29.31173785 -35.70267677 113.99989128
v 29.30712803 -35.69362879 116.39998198
v 32.72261543 -31.90951109 120.43956757
v 33.42783792 -30.12608528 120.77606678
v 33.28955932 -27.59127080 121.30003452
v 30.89272572 -29.99934554 121.31847382
v 18.89473317 39.59943295 121.23242855
v 21.29617526 37.19136000 121.31847382
v 14.09645839 41.99845791 121.12332344
v 11.69501586 43.94483328 120.64393044
v 4.49529810 44.39747572 120.94970226
v 2.09385557 45.90931177 120.41497707
v -0.30297713 45.91836691 120.42727947
v -0.88374870 45.55625439 120.56862831
v -0.88374870 46.20805979 118.79852772
v -0.30297713 46.23521805 118.79852772
v -0.30297713 46.16279840 109.20124769
v 2.09385557 46.18995667 106.80115700
v 4.49529810 46.00889683 106.80115700
v 4.49529810 45.98173857 105.62263012
v 30.74983729 -34.49864388 106.80115700
v 31.33982761 -33.99167776 105.62263012
v 31.95286347 -33.45756054 105.62263012
v 33.05909319 -32.26257563 105.62263012
v 33.05448337 -32.27162361 118.79852772
v 34.99499722 -29.41090643 120.41344643
v 29.30251910 -35.68457365 105.62263012
v 29.30712803 -35.69362879 106.80115700
v 35.75553222 -27.61842906 120.71614265
v 35.69100185 -25.19224942 121.24471664
v 38.09244259 -20.39420664 121.31847382
v 21.41140787 39.75333452 120.72074890
v 18.89473317 41.48244381 120.57170391
v 26.08984156 34.79234219 121.27236843
v 23.69300841 37.19136000 121.17403507
v 28.49128409 32.39331722 121.31847382
v 14.09645839 43.61892700 120.46414375
v 6.37588961 45.68299055 120.13072014
v 4.49529810 45.80067873 120.29052258
v 2.09385557 46.20805979 118.79852772
v -0.88374870 45.90026379 120.40884018
v 4.49529810 46.02699995 113.99989128
v 6.56026287 45.74636221 106.80115700
v 5.56926353 45.86405039 105.62263012
v 34.25751133 -30.93179226 105.62263012
v 34.25751133 -30.93179226 118.79852772
v 37.24894328 -26.83082700 120.33968925
v 38.06478722 -25.02929628 120.52408218
v 38.09244259 -22.79322803 121.06032372
v 40.48927529 -17.99518526 121.13870144
v 40.48927529 -15.59616387 121.31847382
v 23.69300841 39.04720545 120.51332474
v 20.68774855 41.08411074 120.32278061
v 15.71892930 43.33828926 120.19832611
v 28.56503232 34.90097523 120.75455189
v 31.08170701 32.58343220 120.79143047
v 26.02992101 37.20947027 120.63777924
v 30.89272572 29.99429762 121.31847382
v 7.94305070 45.56530237 118.79852772
v 6.74463434 45.72825909 118.79852772
v 4.49529810 46.01795197 118.79852772
v 11.69501586 44.71433401 118.79852772
v 4.49529810 46.02699995 116.39998198
v 6.67088432 45.74636221 116.39998198
v 7.81859977 45.54719925 105.62263012
v 6.62018342 45.72825909 105.62263012
v 34.79218824 -30.31620026 105.62263012
v 36.49762793 -28.32455635 113.99989128
v 35.25772853 -29.72775757 118.79852772
v 36.46075292 -28.27023983 118.79852772
v 37.43331475 -27.06620157 118.79852772
v 39.35999913 -24.11495268 120.09384155
v 39.72874208 -22.79322803 120.39961338
v 40.55841549 -20.33083677 120.64700603
v 42.14862211 -17.99518526 120.47797680
v 42.53580256 -15.59616387 120.65929413
v 42.89071782 -10.79812109 121.11718655
v 42.89071782 -8.39909971 121.29388332
v 42.89071782 -5.99102497 121.31847382
v 25.19102885 38.60361814 120.24441719
v 22.17194153 40.61336517 118.79852772
v 20.96891558 41.20179892 118.79852772
v 18.89473317 42.15235949 118.79852772
v 17.11093633 42.93996334 118.79852772
v 15.91251998 43.41976404 118.79852772
v 14.09645839 44.05346632 118.79852772
v 27.81832678 36.42186642 120.37656784
v 30.40874971 34.16768789 120.43956757
v 33.28955932 27.59527624 121.30003452
v 33.42783792 30.12103558 120.77606678
v 32.72261543 31.91351652 120.43956757
v 38.09244259 20.39821208 121.31847382
v 9.29357333 45.24845123 105.62263012
v 8.51460262 45.41140795 105.62263012
v 14.09645839 44.05346632 116.39998198
v 11.69501586 44.67812061 105.62263012
v 35.28999193 -29.72775757 105.62263012
v 36.49762793 -28.32455635 106.80115700
v 36.47919042 -28.29739809 116.39998198
v 37.43331475 -27.12957323 111.60133839
v 37.43792458 -27.12051988 113.99989128
v 37.43792458 -27.09336162 116.39998198
v 38.63633914 -25.36425412 118.79852772
v 39.38765450 -24.16021764 118.79852772
v 41.26363797 -20.82874596 118.79852772
v 41.91815777 -19.62470949 118.79852772
v 41.83979972 -19.47986305 120.19832611
v 44.24124224 -12.48196185 120.20293236
v 44.49475212 -10.79812109 120.45646191
v 44.74365397 -8.39909971 120.63317299
v 44.85888703 -5.99102497 120.65929413
v 45.08013351 -1.19298197 120.65929413
v 42.89071782 5.99502951 121.31847382
v 30.76827480 34.46643591 118.79852772
v 29.28869142 35.67046881 118.79852772
v 28.09027506 36.63008451 118.79852772
v 26.54616131 37.83411741 118.79852772
v 25.34313603 38.71225119 118.79852772
v 23.69300841 39.72617626 118.79852772
v 23.69300841 39.72617626 116.39998198
v 22.13967635 40.63146830 116.39998198
v 20.87672962 41.19275093 105.62263012
v 18.89473317 42.13424921 105.62263012
v 17.95904635 42.55068541 105.62263012
v 17.06023408 42.93996334 105.62263012
v 15.85720836 43.42881918 106.80115700
v 31.97130097 33.47966909 118.79852772
v 35.69100185 25.19625485 121.24471664
v 34.99499722 29.40585852 120.41344643
v 35.75553222 27.62243450 120.71614265
v 33.05909319 32.27562904 118.79852772
v 40.48927529 15.59111595 121.31847382
v 40.48927529 17.99918890 121.13870144
v 14.09645839 44.02630806 106.80115700
v 14.09645839 43.99914980 105.62263012
v 36.48840828 -28.30645144 105.62263012
v 37.43792458 -27.11146653 105.62263012
v 37.43792458 -27.12051988 106.80115700
v 37.43331475 -27.12957323 109.20124769
v 38.02791221 -26.24238789 105.62263012
v 38.63633914 -25.31899095 105.62263012
v 39.35999913 -24.11495268 105.62263012
v 40.10209484 -22.79322803 105.62263012
v 41.23598261 -20.75632274 106.80115700
v 41.91815777 -19.61565614 116.39998198
v 42.60494275 -17.99518526 118.79852772
v 43.41156883 -15.59616387 118.79852772
v 44.31499047 -12.73544401 118.79852772
v 44.90497990 -10.79812109 118.79852772
v 45.42122109 -8.39909971 118.79852772
v 45.67934079 -5.99102497 118.79852772
v 46.13566144 -1.19298197 118.79852772
v 45.08013351 1.19698651 120.65929413
v 42.89071782 8.39405090 121.29388332
v 30.76827480 34.49359417 116.39998198
v 29.30712803 35.68857908 116.39998198
v 29.31173785 35.70668221 113.99989128
v 28.09949382 36.62102938 105.62263012
v 26.50467737 37.81601429 105.62263012
v 25.30165209 38.68509293 105.62263012
v 24.49502556 39.19205189 105.62263012
v 23.69300841 39.66280460 105.62263012
v 22.87255420 40.13355732 105.62263012
v 22.09358348 40.58619976 106.80115700
v 21.48515655 40.88494778 105.62263012
v 15.86181773 43.41070890 105.62263012
v 14.96300502 43.71851206 105.62263012
v 33.06831284 32.27562904 116.39998198
v 31.96669115 33.47966909 116.39998198
v 30.74983729 34.49359417 106.80115700
v 38.09244259 22.79723346 121.06032372
v 34.25751133 30.92674971 118.79852772
v 37.24894328 26.83483064 120.33968925
v 38.06478722 25.02424836 120.52408218
v 34.26672919 30.93579769 116.39998198
v 42.89071782 10.79307228 121.11718655
v 42.14862211 17.99918890 120.47797680
v 40.55841549 20.32578707 120.64700603
v 42.53580256 15.59111595 120.65929413
v 41.23137279 -20.74726939 105.62263012
v 41.88589258 -19.56133962 106.80115700
v 41.91354795 -19.59755123 113.99989128
v 42.55424006 -17.99518526 105.62263012
v 42.60033293 -17.99518526 116.39998198
v 43.43000634 -15.59616387 105.62263012
v 43.43922420 -15.59616387 116.39998198
v 43.95546539 -13.95758718 116.39998198
v 44.32420833 -12.75354981 116.39998198
v 44.91880758 -10.79812109 116.39998198
v 45.44426663 -8.39909971 116.39998198
v 45.72543366 -5.99102497 116.39998198
v 45.96972747 -3.59200336 116.39998198
v 46.20019181 -1.19298197 116.39998198
v 46.13566144 1.19698651 118.79852772
v 44.85888703 5.99502951 120.65929413
v 44.74365397 8.39405090 120.63317299
v 29.30712803 35.69763422 106.80115700
v 28.71252967 36.15027666 105.62263012
v 22.07514597 40.57715178 105.62263012
v 34.25751133 30.92674971 105.62263012
v 33.05909319 32.25752592 105.62263012
v 32.49676002 32.87312508 105.62263012
v 31.95286347 33.46155882 105.62263012
v 30.74983729 34.48453903 105.62263012
v 39.72874208 22.79723346 120.39961338
v 35.25772853 29.73176301 118.79852772
v 35.28077407 29.74081635 116.39998198
v 37.43331475 27.07020700 118.79852772
v 36.46075292 28.26519012 118.79852772
v 39.35999913 24.10990477 120.09384155
v 36.49762793 28.31950843 106.80115700
v 35.28999193 29.73176301 105.62263012
v 36.49762793 28.31950843 113.99989128
v 44.49475212 10.79307228 120.45646191
v 41.83979972 19.48386669 120.19832611
v 44.24124224 12.48596638 120.20293236
v 41.56324251 -20.13167202 105.62263012
v 41.87667294 -19.54323292 105.62263012
v 42.21315248 -18.79184067 105.62263012
v 42.98751338 -16.81830704 105.62263012
v 44.14444668 -13.34198892 105.62263012
v 44.32881816 -12.75354981 106.80115700
v 44.92802723 -10.79812109 113.99989128
v 44.92802723 -10.79812109 106.80115700
v 45.17692907 -9.62124199 105.62263012
v 45.43504877 -8.39909971 105.62263012
v 45.56871755 -7.22222105 105.62263012
v 45.70699794 -5.99102497 105.62263012
v 46.19558199 -1.19298197 105.62263012
v 46.20019181 -1.19298197 111.60133839
v 46.20480163 1.19698651 105.62263012
v 46.19558199 1.19698651 116.39998198
v 45.67012294 5.99502951 118.79852772
v 45.42122109 8.39405090 118.79852772
v 30.01696034 35.09108305 105.62263012
v 29.30251910 35.67952394 105.62263012
v 36.47919042 28.29235017 116.39998198
v 38.63173111 25.35015285 118.79852772
v 37.43792458 27.09736526 116.39998198
v 41.91815777 19.61966157 118.79852772
v 41.25441833 20.82369804 118.79852772
v 40.14818771 22.79723346 118.79852772
v 39.38304467 24.15516973 118.79852772
v 37.43792458 27.12452352 106.80115700
v 36.95855661 27.72201598 105.62263012
v 36.48840828 28.31045508 105.62263012
v 35.89841886 29.01658237 105.62263012
v 37.43792458 27.12452352 113.99989128
v 42.60494275 17.99918890 118.79852772
v 44.31499047 12.73944855 118.79852772
v 43.41156883 15.59111595 118.79852772
v 44.90497990 10.79307228 118.79852772
v 44.61920304 -11.79394126 105.62263012
v 44.92341740 -10.79812109 105.62263012
v 46.20019181 -0.01610354 105.62263012
v 46.08956857 2.37386495 105.62263012
v 45.84988458 4.77288634 105.62263012
v 45.71160598 5.99502951 116.39998198
v 45.43504877 8.39405090 116.39998198
v 38.63633914 25.31394124 105.62263012
v 41.91815777 19.61060822 116.39998198
v 40.68286641 21.75614834 105.62263012
v 40.10209484 22.79723346 105.62263012
v 39.73796172 23.44904244 105.62263012
v 39.35999913 24.11895812 105.62263012
v 38.99586423 24.72550213 105.62263012
v 37.43792458 27.10641861 105.62263012
v 43.43922420 15.59111595 116.39998198
v 43.43000634 15.59111595 105.62263012
v 42.60033293 17.99918890 116.39998198
v 44.32420833 12.75755435 116.39998198
v 43.95546539 13.95253837 116.39998198
v 44.91880758 10.79307228 116.39998198
v 45.72082563 5.99502951 105.62263012
v 45.44426663 8.39405090 105.62263012
v 44.92802723 10.79307228 113.99989128
v 42.55424006 17.99918890 105.62263012
v 41.88589258 19.55628991 106.80115700
v 41.23598261 20.76032817 106.80115700
v 41.23137279 20.74222147 105.62263012
v 43.69734569 14.75824714 105.62263012
v 44.32881816 12.74850100 113.99989128
v 44.32881816 12.74850100 106.80115700
v 43.95085557 13.95253837 105.62263012
v 44.92341740 10.79307228 105.62263012
v 44.92802723 10.79307228 106.80115700
v 41.87667294 19.54723835 105.62263012
v 41.54941304 20.15378237 105.62263012
v 44.63303073 11.75268084 105.62263012
f 1 2 3
f 1 3 8
f 1 8 23
f 1 23 39
f 1 39 55
f 1 55 78
f 1 78 105
f 1 105 130
f 1 130 157
f 1 157 131
f 1 131 106
f 1 106 81
f 1 81 80
f 1 80 79
f 1 79 56
f 1 56 42
f 1 42 27
f 1 27 12
f 1 12 4
f 1 4 2
f 2 5 6
f 2 6 7
f 2 7 8
f 2 8 3
f 2 4 9
f 2 9 10
f 2 10 11
f 2 11 5
f 4 10 9
f 4 12 13
f 4 13 10
f 5 11 14
f 5 14 15
f 5 15 16
f 5 16 17
f 5 17 18
f 5 18 6
f 6 18 19
f 6 19 20
f 6 20 21
f 6 21 7
f 7 21 22
f 7 22 23
f 7 23 8
f 10 24 25
f 10 25 26
f 10 26 11
f 10 13 27
f 10 27 42
f 10 42 57
f 10 57 82
f 10 82 107
f 10 107 136
f 10 136 160
f 10 160 182
f 10 182 181
f 10 181 210
f 10 210 209
f 10 209 212
f 10 212 251
f 10 251 283
f 10 283 282
f 10 282 241
f 10 241 240
f 10 240 239
f 10 239 238
f 10 238 281
f 10 281 315
f 10 315 279
f 10 279 278
f 10 278 277
f 10 277 276
f 10 276 275
f 10 275 274
f 10 274 314
f 10 314 352
f 10 352 351
f 10 351 320
f 10 320 319
f 10 319 318
f 10 318 317
f 10 317 316
f 10 316 328
f 10 328 363
f 10 363 362
f 10 362 361
f 10 361 383
f 10 383 376
f 10 376 382
f 10 382 381
f 10 381 380
f 10 380 379
f 10 379 378
f 10 378 396
f 10 396 404
f 10 404 403
f 10 403 393
f 10 393 385
f 10 385 397
f 10 397 400
f 10 400 405
f 10 405 401
f 10 401 391
f 10 391 390
f 10 390 373
f 10 373 372
f 10 372 347
f 10 347 371
f 10 371 345
f 10 345 344
f 10 344 343
f 10 343 342
f 10 342 341
f 10 341 370
f 10 370 369
f 10 369 337
f 10 337 301
f 10 301 336
f 10 336 299
f 10 299 335
f 10 335 334
f 10 334 333
f 10 333 296
f 10 296 259
f 10 259 258
f 10 258 257
f 10 257 256
f 10 256 253
f 10 253 252
f 10 252 213
f 10 213 183
f 10 183 161
f 10 161 140
f 10 140 139
f 10 139 138
f 10 138 143
f 10 143 116
f 10 116 115
f 10 115 114
f 10 114 111
f 10 111 110
f 10 110 108
f 10 108 88
f 10 88 87
f 10 87 68
f 10 68 67
f 10 67 66
f 10 66 65
f 10 65 84
f 10 84 83
f 10 83 60
f 10 60 59
f 10 59 58
f 10 58 44
f 10 44 43
f 10 43 28
f 10 28 41
f 10 41 40
f 10 40 24
f 11 26 14
f 12 27 13
f 14 26 28
f 14 28 29
f 14 29 15
f 15 29 30
f 15 30 31
f 15 31 16
f 16 31 17
f 17 31 32
f 17 32 33
f 17 33 34
f 17 34 35
f 17 35 19
f 17 19 18
f 19 35 36
f 19 36 37
f 19 37 20
f 20 37 21
f 21 37 38
f 21 38 22
f 22 38 39
f 22 39 23
f 24 40 25
f 25 40 41
f 25 41 28
f 25 28 26
f 28 43 32
f 28 32 29
f 29 32 30
f 30 32 31
f 32 43 44
f 32 44 45
f 32 45 33
f 33 45 46
f 33 46 63
f 33 63 47
f 33 47 34
f 34 47 48
f 34 48 49
f 34 49 50
f 34 50 51
f 34 51 52
f 34 52 35
f 35 52 36
f 36 52 53
f 36 53 37
f 37 53 54
f 37 54 38
f 38 54 76
f 38 76 100
f 38 100 122
f 38 122 147
f 38 147 167
f 38 167 195
f 38 195 229
f 38 229 248
f 38 248 208
f 38 208 174
f 38 174 152
f 38 152 124
f 38 124 101
f 38 101 77
f 38 77 55
f 38 55 39
f 42 56 57
f 44 58 45
f 45 58 46
f 46 58 59
f 46 59 60
f 46 60 61
f 46 61 62
f 46 62 63
f 47 63 48
f 48 63 64
f 48 64 49
f 49 64 65
f 49 65 66
f 49 66 67
f 49 67 68
f 49 68 50
f 50 68 69
f 50 69 51
f 51 69 70
f 51 70 71
f 51 71 72
f 51 72 52
f 52 72 73
f 52 73 53
f 53 73 74
f 53 74 75
f 53 75 76
f 53 76 54
f 55 77 78
f 56 79 57
f 57 79 80
f 57 80 81
f 57 81 82
f 60 83 61
f 61 83 84
f 61 84 85
f 61 85 62
f 62 85 63
f 63 85 86
f 63 86 64
f 64 86 65
f 65 86 85
f 65 85 84
f 68 87 69
f 69 87 88
f 69 88 89
f 69 89 70
f 70 90 91
f 70 91 71
f 70 89 90
f 71 92 93
f 71 93 72
f 71 91 94
f 71 94 95
f 71 95 96
f 71 96 97
f 71 97 92
f 72 93 74
f 72 74 73
f 74 93 98
f 74 98 75
f 75 99 100
f 75 100 76
f 75 98 99
f 77 101 102
f 77 102 103
f 77 103 104
f 77 104 78
f 78 104 105
f 81 106 82
f 82 106 107
f 88 108 109
f 88 109 89
f 89 109 110
f 89 110 90
f 90 110 111
f 90 111 94
f 90 94 91
f 92 98 93
f 92 97 112
f 92 112 113
f 92 113 98
f 94 111 114
f 94 114 95
f 95 114 115
f 95 115 116
f 95 116 117
f 95 117 96
f 96 117 118
f 96 118 97
f 97 118 117
f 97 117 112
f 98 113 99
f 99 113 119
f 99 119 120
f 99 120 121
f 99 121 122
f 99 122 100
f 101 123 102
f 101 124 123
f 102 123 125
f 102 125 126
f 102 126 127
f 102 127 103
f 103 127 128
f 103 128 129
f 103 129 104
f 104 129 130
f 104 130 105
f 106 131 132
f 106 132 133
f 106 133 107
f 107 133 134
f 107 134 135
f 107 135 136
f 108 110 109
f 112 137 138
f 112 138 139
f 112 139 140
f 112 140 141
f 112 141 142
f 112 142 119
f 112 119 113
f 112 117 137
f 116 143 144
f 116 144 117
f 117 144 137
f 119 142 120
f 120 142 145
f 120 145 146
f 120 146 121
f 121 146 147
f 121 147 122
f 123 148 149
f 123 149 125
f 123 124 150
f 123 150 151
f 123 151 148
f 124 152 150
f 125 149 153
f 125 153 126
f 126 153 154
f 126 154 155
f 126 155 128
f 126 128 127
f 128 155 156
f 128 156 132
f 128 132 129
f 129 157 130
f 129 132 157
f 131 157 132
f 132 156 134
f 132 134 133
f 134 156 158
f 134 158 135
f 135 158 159
f 135 159 160
f 135 160 136
f 137 144 143
f 137 143 138
f 140 161 141
f 141 161 162
f 141 162 142
f 142 162 163
f 142 163 145
f 145 163 164
f 145 164 165
f 145 165 146
f 146 165 166
f 146 166 147
f 147 166 167
f 148 151 168
f 148 168 149
f 149 168 169
f 149 169 170
f 149 170 153
f 150 171 151
f 150 152 172
f 150 172 171
f 151 171 173
f 151 173 168
f 152 174 172
f 153 170 154
f 154 175 176
f 154 176 177
f 154 177 156
f 154 156 155
f 154 170 178
f 154 178 175
f 156 177 179
f 156 179 158
f 158 179 180
f 158 180 159
f 159 175 181
f 159 181 182
f 159 182 160
f 159 180 175
f 161 183 162
f 162 183 184
f 162 184 185
f 162 185 163
f 163 185 186
f 163 186 187
f 163 187 188
f 163 188 189
f 163 189 164
f 164 189 165
f 165 189 190
f 165 190 166
f 166 190 191
f 166 191 192
f 166 192 193
f 166 193 167
f 167 193 194
f 167 194 195
f 168 173 196
f 168 196 169
f 169 196 197
f 169 197 198
f 169 198 199
f 169 199 170
f 170 199 200
f 170 200 201
f 170 201 202
f 170 202 178
f 171 203 173
f 171 172 204
f 171 204 203
f 172 174 205
f 172 205 206
f 172 206 207
f 172 207 204
f 173 203 196
f 174 208 205
f 175 178 209
f 175 209 210
f 175 210 181
f 175 180 176
f 176 180 179
f 176 179 177
f 178 202 211
f 178 211 212
f 178 212 209
f 183 213 214
f 183 214 184
f 184 215 185
f 184 214 255
f 184 255 216
f 184 216 217
f 184 217 218
f 184 218 187
f 184 187 215
f 185 215 186
f 186 215 187
f 187 218 219
f 187 219 188
f 188 219 220
f 188 220 221
f 188 221 222
f 188 222 223
f 188 223 189
f 189 223 191
f 189 191 190
f 191 223 224
f 191 224 225
f 191 225 192
f 192 225 193
f 193 225 226
f 193 226 194
f 194 226 227
f 194 227 228
f 194 228 195
f 195 228 269
f 195 269 229
f 196 203 230
f 196 230 231
f 196 231 232
f 196 232 233
f 196 233 234
f 196 234 235
f 196 235 197
f 197 236 237
f 197 237 198
f 197 235 236
f 198 237 238
f 198 238 239
f 198 239 199
f 199 239 240
f 199 240 200
f 200 240 241
f 200 241 242
f 200 242 201
f 201 242 211
f 201 211 202
f 203 204 243
f 203 243 230
f 204 207 243
f 205 244 206
f 205 208 244
f 206 245 207
f 206 244 246
f 206 246 245
f 207 247 243
f 207 245 247
f 208 248 249
f 208 249 244
f 211 242 250
f 211 250 212
f 212 250 251
f 213 252 214
f 214 252 253
f 214 253 254
f 214 254 255
f 216 255 219
f 216 219 217
f 217 219 218
f 219 255 254
f 219 254 256
f 219 256 257
f 219 257 220
f 220 257 258
f 220 258 221
f 221 258 259
f 221 259 260
f 221 260 261
f 221 261 222
f 222 261 262
f 222 262 223
f 223 262 224
f 224 262 263
f 224 263 264
f 224 264 265
f 224 265 266
f 224 266 225
f 225 266 226
f 226 266 267
f 226 267 268
f 226 268 227
f 227 268 228
f 228 268 310
f 228 310 269
f 229 269 270
f 229 270 248
f 230 243 271
f 230 271 272
f 230 272 231
f 231 272 232
f 232 272 273
f 232 273 233
f 233 273 274
f 233 274 275
f 233 275 234
f 234 275 276
f 234 276 277
f 234 277 236
f 234 236 235
f 236 277 278
f 236 278 237
f 237 278 279
f 237 279 280
f 237 280 238
f 238 280 281
f 241 282 242
f 242 282 283
f 242 283 250
f 243 284 285
f 243 285 286
f 243 286 271
f 243 247 284
f 244 287 246
f 244 249 287
f 245 288 247
f 245 246 289
f 245 289 288
f 246 287 290
f 246 290 289
f 247 288 291
f 247 291 284
f 248 270 292
f 248 292 249
f 249 293 294
f 249 294 287
f 249 292 295
f 249 295 293
f 250 283 251
f 253 256 254
f 259 296 260
f 260 296 297
f 260 297 298
f 260 298 261
f 261 298 299
f 261 299 300
f 261 300 262
f 262 300 301
f 262 301 302
f 262 302 263
f 263 302 264
f 264 302 303
f 264 303 304
f 264 304 265
f 265 305 306
f 265 306 266
f 265 304 305
f 266 306 307
f 266 307 267
f 267 307 308
f 267 308 309
f 267 309 268
f 268 309 310
f 269 310 311
f 269 311 270
f 270 311 312
f 270 312 292
f 271 286 273
f 271 273 272
f 273 286 313
f 273 313 274
f 274 313 314
f 279 315 280
f 280 315 281
f 284 291 316
f 284 316 317
f 284 317 318
f 284 318 285
f 285 318 319
f 285 319 286
f 286 319 320
f 286 320 313
f 287 321 290
f 287 294 321
f 288 289 322
f 288 322 323
f 288 323 291
f 289 324 325
f 289 325 322
f 289 290 321
f 289 321 326
f 289 326 324
f 291 327 328
f 291 328 316
f 291 323 329
f 291 329 327
f 292 312 330
f 292 330 295
f 293 331 321
f 293 321 294
f 293 295 330
f 293 330 332
f 293 332 331
f 296 333 297
f 297 334 335
f 297 335 298
f 297 333 334
f 298 335 299
f 299 336 300
f 300 336 301
f 301 337 302
f 302 337 303
f 303 337 338
f 303 338 339
f 303 339 304
f 304 339 305
f 305 339 306
f 306 339 340
f 306 340 341
f 306 341 342
f 306 342 307
f 307 342 343
f 307 343 344
f 307 344 345
f 307 345 308
f 308 345 346
f 308 346 309
f 309 346 347
f 309 347 348
f 309 348 310
f 310 348 349
f 310 349 312
f 310 312 311
f 312 349 350
f 312 350 330
f 313 320 351
f 313 351 352
f 313 352 314
f 321 331 326
f 322 325 353
f 322 353 329
f 322 329 323
f 324 326 354
f 324 354 355
f 324 355 329
f 324 329 353
f 324 353 325
f 326 331 356
f 326 356 357
f 326 357 358
f 326 358 359
f 326 359 354
f 327 360 361
f 327 361 362
f 327 362 363
f 327 363 328
f 327 329 364
f 327 364 360
f 329 355 364
f 330 350 332
f 331 332 365
f 331 365 356
f 332 366 367
f 332 367 365
f 332 350 368
f 332 368 366
f 337 369 338
f 338 369 340
f 338 340 339
f 340 369 370
f 340 370 341
f 345 371 346
f 346 371 347
f 347 372 348
f 348 372 373
f 348 373 374
f 348 374 349
f 349 374 350
f 350 374 375
f 350 375 389
f 350 389 368
f 354 359 376
f 354 376 360
f 354 360 364
f 354 364 355
f 356 365 377
f 356 377 357
f 357 377 378
f 357 378 379
f 357 379 380
f 357 380 358
f 358 380 359
f 359 380 381
f 359 381 382
f 359 382 376
f 360 376 383
f 360 383 361
f 365 384 385
f 365 385 386
f 365 386 377
f 365 367 384
f 366 387 388
f 366 388 384
f 366 384 367
f 366 368 387
f 368 389 387
f 373 390 374
f 374 390 391
f 374 391 375
f 375 391 392
f 375 392 389
f 377 386 393
f 377 393 394
f 377 394 395
f 377 395 378
f 378 395 396
f 384 388 397
f 384 397 385
f 385 393 386
f 387 389 392
f 387 392 398
f 387 398 388
f 388 399 400
f 388 400 397
f 388 398 399
f 391 401 402
f 391 402 392
f 392 402 399
f 392 399 398
f 393 403 394
f 394 403 404
f 394 404 395
f 395 404 396
f 399 402 405
f 399 405 400
f 401 405 402

