# https://github.com/mikedh/trimesh
v 20.24086369 -41.50236368 103.64182234
v 20.87375952 -41.19375229 105.62262297
v 20.24086369 -41.50236368 105.62262297
v 20.24086369 -41.44957423 62.65895605
v 22.07346602 -40.57653666 105.62262297
v 20.24086369 -21.87320709 105.62262297
v 20.24086369 -21.83666110 62.65895605
v 20.78225686 -41.16532803 62.65895605
v 23.69510276 -39.66695309 105.62262297
v 23.69510276 -39.61010456 62.65895605
v 29.83597202 -0.02694011 105.62262297
v 29.77751149 -0.02694011 97.19894886
v 29.76226134 -0.02694011 94.79759216
v 20.24086369 -21.83666110 94.90694046
v 29.76226134 -0.02694011 62.65895605
v 25.33961518 -38.69239569 101.99745655
v 25.32944871 -38.69645834 104.39881325
v 25.30657215 -38.68427753 105.62262297
v 25.32690687 -38.68427753 62.65895605
v 46.19976087 -0.02694011 105.62262297
v 46.20484276 -0.02694011 62.65895605
v 26.53932167 -37.82747984 101.99745655
v 26.52915431 -37.83154249 104.39881325
v 25.89371665 -38.26196909 105.62262297
v 26.52661247 -37.81935811 62.65895605
v 46.19721813 -1.20046735 105.62262297
v 46.20484276 -1.20046735 99.59609985
v 46.20484276 -0.02694011 99.59609985
v 46.20484276 -1.20046735 62.65895605
v 28.09741421 -36.63365006 104.39881325
v 27.33488901 -37.21026421 105.62262297
v 26.50627865 -37.81935811 105.62262297
v 27.45435102 -37.08844185 62.65895605
v 29.30474622 -35.68752050 105.62262297
v 45.70665999 -6.00014895 105.62262297
v 45.72699471 -6.00014895 101.99745655
v 45.73461933 -6.00014895 99.59609985
v 45.97100420 -3.60030770 99.59609985
v 46.06250687 -2.66229987 62.65895605
v 28.10503973 -36.62146926 105.62262297
v 28.05166288 -36.61741018 62.65895605
v 30.75354321 -34.48556900 105.62262297
v 29.25136848 -35.63473105 62.65895605
v 30.14098211 -34.90381479 62.65895605
v 30.71287556 -34.43278313 62.65895605
v 31.18309899 -34.04295802 62.65895605
v 31.91258205 -33.43792319 62.65895605
v 45.57194872 -7.22646296 105.62262297
v 45.43723567 -8.40405017 105.62262297
v 45.43977661 -8.40405017 101.99745655
v 45.55669768 -7.46198058 62.65895605
v 45.73461933 -6.00014895 62.65895605
v 45.97100420 -3.60030770 62.65895605
v 31.34322955 -33.99423122 105.62262297
v 32.61410488 -32.71106958 62.65895605
v 31.95579155 -33.47040653 104.39881325
v 45.17797692 -9.62630421 105.62262297
v 45.43977661 -8.40405017 62.65895605
v 31.95324971 -33.46228838 105.62262297
v 33.06653722 -32.24003434 62.65895605
v 33.07416184 -32.26845860 104.39881325
v 44.92380185 -10.80389142 105.62262297
v 44.90092619 -10.80389142 62.65895605
v 33.06145353 -32.26439595 105.62262297
v 34.26370008 -30.92032313 62.65895605
v 34.27132650 -30.94062567 104.39881325
v 44.32649179 -12.75706083 105.62262297
v 43.95793660 -13.96307230 104.39881325
v 43.44450278 -15.60357213 62.65895605
v 44.54508109 -11.97741777 62.65895605
v 34.25861640 -30.93250751 105.62262297
v 37.04691751 -27.52968550 62.65895605
v 36.49027510 -28.30932856 105.62262297
v 34.79492588 -30.31934738 105.62262297
v 44.14602561 -13.34585488 105.62262297
v 43.95285292 -13.95901144 105.62262297
v 43.43942089 -15.60357213 104.39881325
v 43.44450278 -15.60357213 101.99745655
v 42.54726453 -18.00341427 62.65895605
v 42.55489094 -18.00341427 104.39881325
v 37.43326290 -27.05865026 62.65895605
v 37.43834658 -27.11143970 105.62262297
v 43.42925353 -15.60357213 105.62262297
v 42.98952861 -16.82582617 105.62262297
v 42.55489094 -18.00341427 105.62262297
v 42.12533517 -18.91299784 62.65895605
v 42.21429510 -18.79929900 105.62262297
v 41.87878473 -19.55051959 105.62262297
v 38.63297029 -25.34099758 62.65895605
v 38.02803381 -26.24652207 105.62262297
v 41.85082538 -19.50179100 62.65895605
v 41.56360908 -20.13931274 105.62262297
v 39.65221150 -23.61522496 62.65895605
v 41.60173400 -19.97282624 62.65895605
v 39.37007709 -24.13904786 62.65895605
v 39.37516077 -24.14716959 101.99745655
v 38.63551123 -25.34911931 101.99745655
v 38.63805218 -25.33693671 104.39881325
v 38.63805218 -25.32069504 105.62262297
v 41.23318060 -20.75246930 105.62262297
v 40.11226936 -22.79903412 104.39881325
v 39.37261982 -24.13904786 104.39881325
v 39.36245246 -24.11874354 105.62262297
v 40.10210200 -22.79903412 105.62262297
f 1 2 3
f 1 3 6
f 1 6 14
f 1 14 7
f 1 7 4
f 1 4 2
f 2 5 9
f 2 9 18
f 2 18 24
f 2 24 32
f 2 32 31
f 2 31 40
f 2 40 34
f 2 34 42
f 2 42 54
f 2 54 59
f 2 59 64
f 2 64 71
f 2 71 74
f 2 74 73
f 2 73 82
f 2 82 90
f 2 90 99
f 2 99 103
f 2 103 104
f 2 104 100
f 2 100 92
f 2 92 88
f 2 88 87
f 2 87 85
f 2 85 84
f 2 84 83
f 2 83 76
f 2 76 75
f 2 75 67
f 2 67 62
f 2 62 57
f 2 57 49
f 2 49 48
f 2 48 35
f 2 35 26
f 2 26 20
f 2 20 11
f 2 11 6
f 2 6 3
f 2 4 5
f 4 7 15
f 4 15 21
f 4 21 29
f 4 29 39
f 4 39 53
f 4 53 52
f 4 52 51
f 4 51 58
f 4 58 63
f 4 63 70
f 4 70 69
f 4 69 79
f 4 79 86
f 4 86 91
f 4 91 94
f 4 94 93
f 4 93 95
f 4 95 89
f 4 89 81
f 4 81 72
f 4 72 65
f 4 65 60
f 4 60 55
f 4 55 47
f 4 47 46
f 4 46 45
f 4 45 44
f 4 44 43
f 4 43 41
f 4 41 33
f 4 33 25
f 4 25 19
f 4 19 10
f 4 10 8
f 4 8 5
f 5 8 10
f 5 10 9
f 6 11 12
f 6 12 13
f 6 13 14
f 7 14 13
f 7 13 15
f 9 16 17
f 9 17 18
f 9 10 19
f 9 19 16
f 11 20 28
f 11 28 21
f 11 21 15
f 11 15 13
f 11 13 12
f 16 22 23
f 16 23 17
f 16 19 25
f 16 25 22
f 17 23 24
f 17 24 18
f 20 26 27
f 20 27 28
f 21 28 27
f 21 27 29
f 22 30 23
f 22 25 30
f 23 30 31
f 23 31 32
f 23 32 24
f 25 33 34
f 25 34 30
f 26 35 36
f 26 36 37
f 26 37 38
f 26 38 27
f 27 38 39
f 27 39 29
f 30 34 40
f 30 40 31
f 33 41 34
f 34 41 43
f 34 43 44
f 34 44 45
f 34 45 46
f 34 46 47
f 34 47 42
f 35 48 36
f 36 48 49
f 36 49 37
f 37 49 50
f 37 50 51
f 37 51 52
f 37 52 53
f 37 53 38
f 38 53 39
f 42 47 54
f 47 55 56
f 47 56 54
f 49 57 50
f 50 57 58
f 50 58 51
f 54 56 59
f 55 60 56
f 56 61 59
f 56 60 61
f 57 62 58
f 58 62 63
f 59 61 64
f 60 65 61
f 61 66 64
f 61 65 66
f 62 67 68
f 62 68 69
f 62 69 70
f 62 70 63
f 64 66 71
f 65 72 73
f 65 73 66
f 66 73 74
f 66 74 71
f 67 75 68
f 68 75 76
f 68 76 77
f 68 77 78
f 68 78 69
f 69 78 85
f 69 85 80
f 69 80 79
f 72 81 73
f 73 81 82
f 76 83 77
f 77 83 84
f 77 84 78
f 78 84 85
f 79 80 87
f 79 87 88
f 79 88 86
f 80 85 87
f 81 89 82
f 82 89 90
f 86 88 91
f 88 92 93
f 88 93 94
f 88 94 91
f 89 95 96
f 89 96 97
f 89 97 90
f 90 97 98
f 90 98 99
f 92 100 95
f 92 95 93
f 95 100 96
f 96 100 101
f 96 101 102
f 96 102 98
f 96 98 97
f 98 102 99
f 99 102 103
f 100 104 102
f 100 102 101
f 102 104 103

