# https://github.com/mikedh/trimesh
v 41.66309757 6.88864678 16.83252454
v 41.66061564 6.89061821 16.83070421
v 41.64076014 6.89061821 16.83252454
v 41.66309757 1.19637586 16.83252454
v 41.60353108 6.89061821 -1.75104171
v 28.98533983 6.89061821 16.83252454
v 31.22405095 0.17712928 16.83252454
v 41.66061564 0.17712928 16.83070421
v 41.60229011 5.99951684 -1.75104171
v 29.31047453 6.89061821 -1.75104171
v 29.76094706 0.17712928 16.83252454
v 28.98533983 6.89061821 15.59895515
v 41.60104914 0.17712928 6.00151062
v 40.84405644 3.47604431 -1.75104171
v 29.10199089 6.89061821 5.95056698
v 29.38741459 6.70858651 -1.75104171
v 29.96074302 0.17712928 8.39950740
v 29.83912809 0.17712928 9.77680922
v 29.78328450 0.17712928 10.79932362
v 29.76094706 0.17712928 13.19913983
v 28.98658080 6.89061821 13.19913983
v 40.99297269 0.17712928 4.44226697
v 39.96296687 1.86141606 -1.75104171
v 29.01388211 6.89061821 10.79932362
v 29.44077624 6.58306986 -1.75104171
v 31.10491796 0.17712928 6.41269997
v 29.76342900 0.17712928 12.17662543
v 29.00271340 6.89061821 11.68902040
v 40.59834464 0.17712928 3.43066916
v 38.59417660 1.83315832 -1.75104171
v 37.93397947 0.17712928 2.85937071
v 30.89395328 5.62033921 -1.75104171
v 37.93273850 2.15056390 -1.75104171
f 1 2 3
f 1 3 6
f 1 6 11
f 1 11 7
f 1 7 4
f 1 4 5
f 1 5 2
f 2 5 10
f 2 10 15
f 2 15 24
f 2 24 28
f 2 28 21
f 2 21 12
f 2 12 6
f 2 6 3
f 4 7 8
f 4 8 9
f 4 9 5
f 5 9 14
f 5 14 23
f 5 23 30
f 5 30 33
f 5 33 32
f 5 32 25
f 5 25 16
f 5 16 10
f 6 12 20
f 6 20 11
f 7 11 20
f 7 20 27
f 7 27 19
f 7 19 18
f 7 18 17
f 7 17 26
f 7 26 31
f 7 31 29
f 7 29 22
f 7 22 13
f 7 13 8
f 8 13 9
f 9 13 14
f 10 16 17
f 10 17 18
f 10 18 19
f 10 19 15
f 12 21 20
f 13 22 23
f 13 23 14
f 15 19 24
f 16 25 17
f 17 25 26
f 19 27 24
f 20 21 27
f 21 28 27
f 22 29 23
f 23 29 31
f 23 31 30
f 24 27 28
f 25 32 26
f 26 32 33
f 26 33 30
f 26 30 31

