# https://github.com/mikedh/trimesh
v 39.25700231 24.42342997 -29.98630822
v 38.63738342 25.38814545 -29.98630822
v 38.63738342 25.36477089 32.39901423
v 39.22522707 24.42342997 32.39901423
v 39.19345184 24.42342997 -118.79302025
v 38.63341375 25.34139633 -118.79302025
v 37.43786736 27.12633491 -27.60066926
v 37.43786736 27.12420881 29.99544382
v 38.63341375 25.34139633 62.65894890
v 39.19345184 24.42342997 62.65894890
v 39.15373368 24.42342997 -119.72574234
v 37.42992444 27.06045985 -118.79302025
v 36.53227492 28.34604084 -22.81145811
v 36.52830167 28.34391475 25.18829226
v 36.52432842 28.34391475 27.59186625
v 37.42992444 27.06045985 62.65894890
v 17.13745142 24.42342997 62.65894890
v 38.88761563 24.42342997 -120.19211769
v 37.25118919 26.84159517 -120.33561230
v 36.44886537 28.26104343 -118.79302025
v 34.28020282 30.96394658 -27.60066926
v 34.28417607 30.96394658 29.99544382
v 35.24934931 29.72299218 -118.79302025
v 34.26431341 30.92357397 -116.38944626
v 34.26431341 30.92357397 62.65894890
v 36.44886537 28.26104343 62.65894890
v 2.09584041 29.76548910 62.65894890
v 17.12156380 24.42342997 1.18841887
v 38.50233956 24.42342997 -120.40736675
v 35.75377984 27.62569070 -120.55086136
v 34.99514742 29.41487789 -120.40736675
v 34.24048467 30.92357397 -118.79302025
v 33.08068676 32.27502465 -27.60066926
v 33.06082769 32.24102497 -116.38944626
v 33.08465822 32.27502465 29.99544382
v 33.06082769 32.24102497 62.65894890
v -0.14034586 30.57083488 62.65894890
v 2.09584041 29.76548910 -99.58235264
v 17.12156380 24.42342997 -6.00436985
v 38.02173777 24.42342997 -120.42529106
v 2.09584041 44.39984322 -120.51498413
v 11.69593854 42.20904708 -120.58672428
v 28.55271293 34.89505649 -120.56879997
v 30.37184609 34.15770650 -120.42529106
v 32.71130009 31.87341571 -120.40736675
v 36.37339873 24.42342997 -120.47910690
v 33.04096861 32.22615123 -118.79302025
v 31.95663734 33.47560644 -27.60066926
v 31.90897448 33.42673302 -118.79302025
v 31.90897448 33.44161034 -116.38944626
v 31.95663734 33.47560644 29.99544382
v 32.36177160 32.97200203 62.65894890
v -0.81159549 31.68217063 62.65894890
v -0.14034586 30.57083488 -99.58235264
v -0.13637261 30.57721138 -101.98592663
v 17.18114237 24.42342997 -101.98592663
v 17.15731094 24.42342997 -100.69446087
v 17.13745142 24.42342997 -99.58235264
v 0.34819884 44.39984322 -120.26385784
v 0.35217209 45.81079245 -120.26385784
v 2.09584041 45.85966587 -120.35355091
v 11.69593854 43.85798693 -120.58672428
v 0.70964260 43.11213970 -120.06656170
v 18.89700635 41.42707229 -120.49704552
v 23.69109823 38.96428585 -120.47910690
v 26.02260752 37.20697403 -120.49704552
v 27.79407872 36.41225338 -120.37148952
v 36.01592465 24.42342997 -120.38942814
v 30.74917747 34.49982047 -25.21503210
v 30.75314893 34.49769616 27.59186625
v 30.70945842 34.43819761 -118.79302025
v 31.90897448 33.44161034 62.65894890
v -1.24453621 32.40039468 62.65894890
v -1.24453621 32.40039468 -101.98592663
v -1.23262005 32.40039468 -104.38950062
v -0.12445645 30.60483456 -104.38950062
v 17.22086152 24.42342997 -102.99041748
v -0.60108499 44.39984322 -118.79302025
v 0.08208080 45.91916442 -118.79302025
v 2.09584041 46.11890674 -118.79302025
v 4.49487074 45.74066877 -120.21005630
v 14.09497066 43.54987264 -120.40736675
v 6.25442578 45.65354705 -120.08448601
v 0.23698731 42.18779683 -118.59570980
v 0.70964260 40.71310043 -117.68091202
v 0.23698731 39.78663325 -116.21007442
v 15.66784574 43.31188202 -120.15624046
v 20.54931952 41.04458570 -120.28179646
v 25.18056331 38.58817577 -120.22799492
v 28.04828061 36.62049651 -118.79302025
v 34.90379138 24.42342997 -119.67194080
v 0.72950168 31.13394141 -108.06661606
v 0.70964260 33.51385474 -110.47019005
v 0.70964260 38.31193328 -115.27733803
v 29.29943098 35.69827795 -25.21503210
v 29.30340333 35.69615364 27.59186625
v 30.70945842 34.43819761 62.65894890
v 31.44028886 33.83259416 62.65894890
v -1.31999926 34.80156183 62.65894890
v -1.31999926 34.80156183 -104.38950062
v -1.31205635 34.80156183 -106.79307461
v -0.83145814 32.40039468 -106.79307461
v 18.28136070 24.42342997 -106.79307461
v 18.25752927 24.42342997 -106.73927307
v 17.51478257 24.42342997 -104.90967751
v 17.30427152 24.42342997 -104.38950062
v 0.26478930 30.86195111 -106.79307461
v -0.88706212 41.99867964 -116.38944626
v -1.31205635 41.99867964 -113.98587227
v -1.01813631 44.39984322 -116.38944626
v -1.02607922 44.39984322 -113.98587227
v 0.07811113 45.92128873 -29.98630822
v 2.09584041 46.13165617 -25.21503210
v 4.49487074 45.88304043 -118.79302025
v 7.96234561 45.58767557 -20.40788233
v 6.53643145 45.68117380 -118.79302025
v 7.73594750 45.52605271 -118.79302025
v 9.29690643 45.16694069 -118.79302025
v 11.69593854 44.57408667 -118.79302025
v 0.23698731 34.98855472 -111.40292645
v -0.88706212 34.80156183 -109.19666290
v 14.09497066 43.90261173 -118.79302025
v 15.85452548 43.36925268 -118.79302025
v 17.05404131 42.94002056 -118.79302025
v 18.89700635 42.10704803 -118.79302025
v 20.77969043 41.16783142 -118.79302025
v 25.32355232 38.68379831 -118.79302025
v 26.52306838 37.82107830 -118.79302025
v 19.92573029 24.42342997 -108.62267017
v 19.59606199 24.42342997 -108.33568096
v 0.24890347 32.58951545 -108.99935246
v 28.09991492 36.63112164 -27.60066926
v 28.09594346 36.63324594 29.99544382
v 26.52306838 37.82107830 62.65894890
v 27.12282641 37.34934568 62.65894890
v 28.04828061 36.62049651 62.65894890
v 28.77911104 36.02126598 62.65894890
v -1.31999926 41.99867964 62.65894890
v -1.31999926 37.19847322 -106.79307461
v -1.31205635 37.19847322 -109.19666290
v 18.29327641 24.42342997 -106.81101322
v -1.31999926 41.99867964 -111.58229828
v -1.31999926 39.59964037 -109.19666290
v -1.02607922 44.39984322 62.65894890
v 0.07811113 45.92128873 22.78471828
v 2.09584041 46.13165617 22.78471828
v 7.73594750 45.56430101 -116.38944626
v 7.96234561 45.58767557 22.78471828
v 9.29690643 45.27318478 -27.60066926
v 9.29690643 45.26043892 -116.38944626
v 11.69593854 44.62933302 -116.38944626
v 14.09497066 43.95148516 -25.21503210
v 17.05404131 42.99101830 -116.38944626
v 15.88232881 43.40112805 -25.21503210
v 18.89700635 42.16017365 -116.38944626
v 23.69109823 39.61026192 -116.38944626
v 22.03878505 40.57072878 -25.21503210
v 23.69109823 39.67188835 -25.21503210
v 25.33943994 38.70716929 -27.60066926
v 26.54292746 37.83595204 -29.98630822
v 26.53895600 37.83382773 32.39901423
v 26.05438276 38.15894008 62.65894890
v 25.33943994 38.70716929 29.99544382
v 0.08208080 45.91916442 62.65894890
v 0.87249203 45.99778533 62.65894890
v 2.09584041 46.11890674 62.65894890
v 3.03718044 46.02753639 62.65894890
v 7.73594750 45.56430101 62.65894890
v 8.34762080 45.44530392 62.65894890
v 9.29690643 45.26043892 62.65894890
v 9.29690643 45.27318478 29.99544382
v 11.69593854 44.65058327 -27.60066926
v 14.09497066 43.95360947 27.59186625
v 17.07390083 42.99314260 -29.98630822
v 18.89700635 42.17504740 -29.98630822
v 15.87438500 43.40538025 25.18829226
v 18.89700635 42.17292309 32.39901423
v 22.03878505 40.56860447 27.59186625
v 23.69109823 39.67401266 27.59186625
v 25.32355232 38.68379831 62.65894890
v 10.23427679 45.01394749 62.65894890
v 11.69593854 44.65058327 29.99544382
v 11.69593854 44.62933302 62.65894890
v 12.63728081 44.34459686 62.65894890
v 15.85452548 43.36925268 62.65894890
v 15.88232881 43.40112805 27.59186625
v 17.06992893 42.99314260 32.39901423
v 17.05404131 42.99101830 62.65894890
v 17.77692849 42.66590595 62.65894890
v 18.89700635 42.16017365 62.65894890
v 20.77969043 41.16783142 62.65894890
v 23.69109823 39.61026192 62.65894890
f 1 2 3
f 1 3 4
f 1 4 10
f 1 10 17
f 1 17 28
f 1 28 39
f 1 39 58
f 1 58 57
f 1 57 56
f 1 56 77
f 1 77 106
f 1 106 105
f 1 105 104
f 1 104 103
f 1 103 141
f 1 141 130
f 1 130 129
f 1 129 91
f 1 91 68
f 1 68 46
f 1 46 40
f 1 40 29
f 1 29 18
f 1 18 11
f 1 11 5
f 1 5 6
f 1 6 2
f 2 7 8
f 2 8 3
f 2 6 7
f 3 8 9
f 3 9 4
f 4 9 10
f 5 11 6
f 6 11 12
f 6 12 7
f 7 13 8
f 7 12 13
f 8 14 15
f 8 15 16
f 8 16 9
f 8 13 14
f 9 16 26
f 9 26 25
f 9 25 36
f 9 36 52
f 9 52 72
f 9 72 98
f 9 98 97
f 9 97 137
f 9 137 136
f 9 136 135
f 9 135 134
f 9 134 162
f 9 162 180
f 9 180 192
f 9 192 191
f 9 191 190
f 9 190 189
f 9 189 188
f 9 188 185
f 9 185 184
f 9 184 183
f 9 183 181
f 9 181 170
f 9 170 169
f 9 169 168
f 9 168 167
f 9 167 166
f 9 166 165
f 9 165 164
f 9 164 144
f 9 144 138
f 9 138 99
f 9 99 73
f 9 73 53
f 9 53 37
f 9 37 27
f 9 27 17
f 9 17 10
f 11 18 19
f 11 19 12
f 12 19 20
f 12 20 13
f 13 21 22
f 13 22 14
f 13 20 23
f 13 23 24
f 13 24 21
f 14 22 15
f 15 22 25
f 15 25 26
f 15 26 16
f 17 27 28
f 18 29 19
f 19 29 30
f 19 30 31
f 19 31 32
f 19 32 23
f 19 23 20
f 21 33 35
f 21 35 22
f 21 24 34
f 21 34 33
f 22 35 36
f 22 36 25
f 23 32 24
f 24 32 34
f 27 37 54
f 27 54 38
f 27 38 39
f 27 39 28
f 29 40 30
f 30 41 42
f 30 42 43
f 30 43 44
f 30 44 45
f 30 45 31
f 30 40 46
f 30 46 41
f 31 45 47
f 31 47 32
f 32 47 34
f 33 48 35
f 33 34 48
f 34 47 49
f 34 49 50
f 34 50 48
f 35 51 36
f 35 48 51
f 36 51 52
f 37 53 54
f 38 54 55
f 38 55 56
f 38 56 57
f 38 57 58
f 38 58 39
f 41 59 60
f 41 60 61
f 41 61 62
f 41 62 42
f 41 46 63
f 41 63 59
f 42 62 43
f 43 62 64
f 43 64 65
f 43 65 66
f 43 66 44
f 44 66 67
f 44 67 49
f 44 49 45
f 45 49 47
f 46 68 63
f 48 69 70
f 48 70 51
f 48 50 69
f 49 67 71
f 49 71 50
f 50 71 69
f 51 70 72
f 51 72 52
f 53 73 74
f 53 74 54
f 54 74 55
f 55 74 75
f 55 75 76
f 55 76 56
f 56 76 77
f 59 63 78
f 59 78 60
f 60 78 79
f 60 79 80
f 60 80 61
f 61 81 62
f 61 80 81
f 62 82 64
f 62 81 83
f 62 83 82
f 63 84 78
f 63 68 85
f 63 85 86
f 63 86 84
f 64 82 87
f 64 87 88
f 64 88 65
f 65 88 89
f 65 89 67
f 65 67 66
f 67 89 90
f 67 90 71
f 68 91 92
f 68 92 93
f 68 93 94
f 68 94 85
f 69 95 96
f 69 96 70
f 69 71 95
f 70 96 97
f 70 97 98
f 70 98 72
f 71 90 95
f 73 99 100
f 73 100 74
f 74 100 101
f 74 101 75
f 75 101 102
f 75 102 76
f 76 103 104
f 76 104 105
f 76 105 106
f 76 106 77
f 76 102 107
f 76 107 103
f 78 84 108
f 78 108 109
f 78 109 110
f 78 110 79
f 79 110 111
f 79 111 112
f 79 112 113
f 79 113 80
f 80 114 83
f 80 83 81
f 80 113 115
f 80 115 114
f 82 83 87
f 83 114 116
f 83 116 117
f 83 117 118
f 83 118 119
f 83 119 87
f 84 86 108
f 85 94 86
f 86 94 93
f 86 93 120
f 86 120 121
f 86 121 108
f 87 119 122
f 87 122 123
f 87 123 124
f 87 124 125
f 87 125 88
f 88 125 126
f 88 126 89
f 89 126 127
f 89 127 128
f 89 128 90
f 90 128 95
f 91 129 92
f 92 129 130
f 92 130 107
f 92 107 102
f 92 102 131
f 92 131 93
f 93 131 120
f 95 132 96
f 95 128 132
f 96 133 134
f 96 134 135
f 96 135 136
f 96 136 137
f 96 137 97
f 96 132 133
f 99 138 142
f 99 142 143
f 99 143 139
f 99 139 100
f 100 139 140
f 100 140 101
f 101 140 121
f 101 121 102
f 102 121 131
f 103 107 141
f 107 130 141
f 108 121 140
f 108 140 109
f 109 142 111
f 109 111 110
f 109 140 143
f 109 143 142
f 111 142 138
f 111 138 144
f 111 144 145
f 111 145 112
f 112 145 146
f 112 146 113
f 113 146 148
f 113 148 115
f 114 147 116
f 114 115 147
f 115 148 171
f 115 171 149
f 115 149 150
f 115 150 147
f 116 147 117
f 117 147 150
f 117 150 118
f 118 150 119
f 119 150 151
f 119 151 122
f 120 131 121
f 122 151 152
f 122 152 123
f 123 153 124
f 123 152 154
f 123 154 153
f 124 153 155
f 124 155 125
f 125 155 126
f 126 156 127
f 126 155 157
f 126 157 156
f 127 156 158
f 127 158 159
f 127 159 128
f 128 159 160
f 128 160 132
f 132 160 133
f 133 161 134
f 133 160 161
f 134 161 163
f 134 163 162
f 139 143 140
f 144 164 145
f 145 164 146
f 146 164 165
f 146 165 166
f 146 166 148
f 148 166 167
f 148 167 168
f 148 168 169
f 148 169 170
f 148 170 171
f 149 171 182
f 149 182 172
f 149 172 150
f 150 172 151
f 151 172 152
f 152 172 173
f 152 173 154
f 153 174 175
f 153 175 155
f 153 154 174
f 154 173 176
f 154 176 174
f 155 175 157
f 156 157 158
f 157 175 177
f 157 177 178
f 157 178 179
f 157 179 158
f 158 179 159
f 159 179 163
f 159 163 160
f 160 163 161
f 162 163 180
f 163 179 180
f 170 181 182
f 170 182 171
f 172 182 173
f 173 182 183
f 173 183 184
f 173 184 185
f 173 185 186
f 173 186 176
f 174 176 187
f 174 187 175
f 175 187 177
f 176 186 188
f 176 188 187
f 177 187 188
f 177 188 189
f 177 189 190
f 177 190 178
f 178 190 191
f 178 191 192
f 178 192 179
f 179 192 180
f 181 183 182
f 185 188 186

