# https://github.com/mikedh/trimesh
v 46.41506715 17.99893141 -19.17956114
v 41.64696319 17.99893141 -16.58268929
v 41.65141387 15.59916615 -16.58268929
v 46.41506715 6.89061821 -19.17956114
v 46.41506715 18.17792058 -19.18974280
v 41.62915511 18.13151658 -16.58268929
v 41.65141387 6.89061821 -16.58268929
v 46.41506715 6.89061821 -32.80548692
v 41.62247641 18.17792058 -16.58268929
v 46.41506715 18.17792058 -31.45104289
v 29.00770052 6.89061821 -16.58268929
v 46.41506715 8.40096831 -32.65272975
v 45.62483473 6.89061821 -116.39413834
v 23.68309362 18.17792058 -16.58268929
v 46.41506715 17.99893141 -31.48159146
v 45.61370535 6.89061821 -117.29031086
v 45.40891333 8.40096831 -118.79751205
v 44.90138395 10.80073625 -118.79751205
v 44.31371732 12.73204029 -118.79751205
v 43.37434335 15.59916615 -118.79751205
v 42.54404230 17.99893141 -118.79751205
v 42.46168060 18.17792058 -118.79751205
v 28.98543997 6.89061821 -18.00842285
v 23.67418958 18.17792058 -17.72327542
v 45.55360241 6.89061821 -118.79751205
v 44.73443432 8.40096831 -120.62041283
v 44.49625058 10.80073625 -120.45747757
v 44.24026056 12.48896956 -120.20287514
v 42.45055123 18.17792058 -118.97063255
v 28.98543997 6.89061821 -99.59086418
v 23.67641581 18.17792058 -99.59086418
v 45.30206485 6.89061821 -119.46963787
v 43.10054345 8.40096831 -120.62041283
v 42.49729676 15.59916615 -120.57967186
v 44.78563233 6.89061821 -120.61022758
v 42.11665018 17.99893141 -120.42692184
v 42.07658155 18.17792058 -120.39636612
v 23.68977232 18.17792058 -101.70909405
v 23.69199766 18.17792058 -101.99423790
v 29.00547428 6.89061821 -101.10825062
v 43.20516749 6.89061821 -120.61022758
v 40.83447023 15.59916615 -120.57967186
v 40.33807202 18.17792058 -120.49820423
v 41.99421985 18.17792058 -120.43710709
v 29.01882990 6.89061821 -101.99423790
v 23.75432594 18.17792058 -104.39761162
v 42.75996549 6.89061821 -120.30471325
v 39.06702144 18.17792058 -120.17231941
v 40.08208020 18.17792058 -120.49820423
v 39.71478923 18.17792058 -120.38618088
v 29.06557722 6.89061821 -103.50143909
v 24.36425222 18.17792058 -106.60750151
v 29.44622381 6.89061821 -106.26125336
v 29.23252685 6.89061821 -105.38544416
v 29.11009653 6.89061821 -104.39761162
v 42.00534923 6.89061821 -119.69368458
v 37.84939690 18.17792058 -119.11321163
v 25.00979377 18.17792058 -107.70735025
v 29.99604715 6.89061821 -107.38147259
v 29.80238451 6.89061821 -107.03521729
v 41.54234095 6.89061821 -119.24559832
v 26.34317084 18.17792058 -109.08216476
v 26.46782739 18.17792058 -109.19418812
v 27.57637901 18.17792058 -110.16164303
v 26.30310310 18.17792058 -109.04142380
v 31.91263838 6.89061821 -109.75429058
v 31.18028267 6.89061821 -108.97014141
v 30.57703419 6.89061821 -108.20635557
v 39.08037706 6.89061821 -116.83203220
f 1 2 3
f 1 3 7
f 1 7 4
f 1 4 8
f 1 8 12
f 1 12 15
f 1 15 10
f 1 10 5
f 1 5 2
f 2 5 6
f 2 6 9
f 2 9 14
f 2 14 11
f 2 11 7
f 2 7 3
f 4 7 11
f 4 11 23
f 4 23 30
f 4 30 40
f 4 40 45
f 4 45 51
f 4 51 55
f 4 55 54
f 4 54 53
f 4 53 60
f 4 60 59
f 4 59 68
f 4 68 67
f 4 67 66
f 4 66 69
f 4 69 61
f 4 61 56
f 4 56 47
f 4 47 41
f 4 41 35
f 4 35 32
f 4 32 25
f 4 25 16
f 4 16 13
f 4 13 8
f 5 9 6
f 5 10 22
f 5 22 29
f 5 29 37
f 5 37 44
f 5 44 43
f 5 43 49
f 5 49 50
f 5 50 48
f 5 48 57
f 5 57 64
f 5 64 63
f 5 63 62
f 5 62 65
f 5 65 58
f 5 58 52
f 5 52 46
f 5 46 39
f 5 39 38
f 5 38 31
f 5 31 24
f 5 24 14
f 5 14 9
f 8 13 12
f 10 15 13
f 10 13 16
f 10 16 17
f 10 17 18
f 10 18 19
f 10 19 20
f 10 20 21
f 10 21 22
f 11 14 23
f 12 13 15
f 14 24 23
f 16 25 17
f 17 25 26
f 17 26 27
f 17 27 28
f 17 28 18
f 18 28 19
f 19 28 20
f 20 28 21
f 21 28 29
f 21 29 22
f 23 24 30
f 24 31 30
f 25 32 26
f 26 33 42
f 26 42 34
f 26 34 27
f 26 32 35
f 26 35 41
f 26 41 33
f 27 34 36
f 27 36 28
f 28 36 37
f 28 37 29
f 30 31 38
f 30 38 39
f 30 39 40
f 33 41 42
f 34 42 49
f 34 49 43
f 34 43 44
f 34 44 36
f 36 44 37
f 39 45 40
f 39 46 45
f 41 47 48
f 41 48 42
f 42 48 50
f 42 50 49
f 45 46 51
f 46 52 53
f 46 53 54
f 46 54 55
f 46 55 51
f 47 56 48
f 48 56 57
f 52 58 59
f 52 59 60
f 52 60 53
f 56 61 62
f 56 62 63
f 56 63 64
f 56 64 57
f 58 65 66
f 58 66 67
f 58 67 68
f 58 68 59
f 61 69 62
f 62 66 65
f 62 69 66

