# https://github.com/mikedh/trimesh
v 41.66237517 6.89061821 16.83365107
v 41.66237517 15.59695601 16.83365107
v 46.41460402 6.89061821 19.17964160
v 41.66237517 6.89061821 62.65895605
v 41.66237517 17.98898935 16.86505079
v 46.41460402 17.99893141 19.17964160
v 46.41460402 6.89061821 32.85187483
v 45.62605603 6.89061821 62.65895605
v 41.66237517 18.17792058 62.65895605
v 41.66237517 18.17350030 16.95027888
v 46.41460402 18.17792058 19.18412805
v 46.41460402 14.43463773 32.01754332
v 45.62000854 6.94144204 62.65895605
v 46.41460402 16.72170818 31.73943400
v 46.41460402 18.17792058 31.48375511
v 41.66237517 18.17792058 18.46642435
v 42.46534629 18.17792058 62.65895605
v 42.78169675 18.17792058 18.02683175
v 45.44136269 8.40096831 62.65895605
v 42.54769011 17.99893141 62.65895605
v 43.09385939 16.54051065 62.65895605
v 43.44603164 15.59916615 62.65895605
v 43.75354333 14.58600372 62.65895605
v 44.90124269 10.80073625 62.65895605
f 1 2 6
f 1 6 3
f 1 3 7
f 1 7 8
f 1 8 4
f 1 4 9
f 1 9 16
f 1 16 10
f 1 10 5
f 1 5 2
f 2 5 6
f 3 6 11
f 3 11 15
f 3 15 14
f 3 14 12
f 3 12 7
f 4 8 13
f 4 13 19
f 4 19 24
f 4 24 23
f 4 23 22
f 4 22 21
f 4 21 20
f 4 20 17
f 4 17 9
f 5 10 11
f 5 11 6
f 7 12 8
f 8 12 14
f 8 14 15
f 8 15 13
f 9 17 15
f 9 15 11
f 9 11 18
f 9 18 16
f 10 16 18
f 10 18 11
f 13 15 19
f 15 17 20
f 15 20 21
f 15 21 22
f 15 22 23
f 15 23 24
f 15 24 19

