# https://github.com/mikedh/trimesh
v 42.47340901 -21.47999525 27.59886503
v 42.47340901 -21.47835195 25.20140827
v 46.41506894 -21.36993170 22.80058265
v 46.41506894 -21.36993170 27.59886503
v 42.47340901 -21.02550030 29.99968886
v 42.47340901 -21.47178054 22.80058265
v 42.47340901 -21.40661895 22.10188687
v 42.47340901 -20.88805676 20.40144324
v 42.47340901 -20.63452542 19.69096005
v 46.41506894 -20.80975235 21.52272463
v 46.41506894 -20.50639093 29.99968886
v 42.47340901 -19.69213307 32.98135757
v 46.41506894 -20.31802118 20.40144324
v 42.47340901 -19.82355416 18.40636790
v 46.41506894 -19.42107975 31.28260016
v 42.47340901 -18.20763230 34.81648922
v 46.41506894 -19.74031985 19.75662053
v 42.47340901 -19.04762685 18.03092301
v 46.41506894 -19.23271000 19.19092834
v 46.41506894 -18.00009906 31.48463130
v 43.36275263 -15.88587642 34.81648922
v 43.35696442 -15.90230405 34.81648922
v 42.56523712 -18.01159859 34.81648922
v 42.47340901 -15.88587642 34.81648922
v 42.47340901 -18.00009906 17.64200985
v 42.47340901 -17.18255639 17.63190866
v 42.47340901 -15.88587642 17.61844039
v 46.41506894 -18.57670426 19.18419421
v 46.41506894 -15.88587642 31.68329716
v 46.41506894 -15.88587642 19.17914271
v 46.41506894 -18.00009906 19.17914271
f 1 2 3
f 1 3 4
f 1 4 5
f 1 5 12
f 1 12 16
f 1 16 24
f 1 24 27
f 1 27 26
f 1 26 25
f 1 25 18
f 1 18 14
f 1 14 9
f 1 9 8
f 1 8 7
f 1 7 6
f 1 6 2
f 2 6 3
f 3 6 7
f 3 7 8
f 3 8 9
f 3 9 10
f 3 10 13
f 3 13 17
f 3 17 19
f 3 19 28
f 3 28 31
f 3 31 30
f 3 30 29
f 3 29 20
f 3 20 15
f 3 15 11
f 3 11 4
f 4 11 5
f 5 11 12
f 9 13 10
f 9 14 13
f 11 15 16
f 11 16 12
f 13 14 17
f 14 18 19
f 14 19 17
f 15 20 21
f 15 21 22
f 15 22 23
f 15 23 16
f 16 23 22
f 16 22 21
f 16 21 24
f 18 25 19
f 19 25 26
f 19 26 27
f 19 27 28
f 20 29 21
f 21 29 30
f 21 30 27
f 21 27 24
f 27 30 31
f 27 31 28

