# https://github.com/mikedh/trimesh
v -46.20470719 1.19656172 116.39998198
v -46.16921620 1.19656172 118.79852772
v -45.96514659 3.59424859 118.79852772
v -45.96958117 3.59424859 116.39998198
v -46.20027261 1.19656172 113.99989128
v -46.20027261 -1.19207729 109.20124769
v -46.19583087 -1.19207729 116.39998198
v -46.16478162 -1.19207729 118.79852772
v -45.41948514 1.19656172 120.65929413
v -45.33075766 3.59424859 120.63624859
v -45.21985011 5.99193558 120.57477951
v -45.07345872 8.39867055 120.45185566
v -45.41948514 -1.19207729 120.65929413
v -45.73002057 5.99193558 118.79852772
v -45.96514659 3.59424859 113.99989128
v -46.19139628 1.19656172 109.20124769
v -45.45054154 1.19656172 106.86261892
v -45.45497613 -1.19207729 106.86261892
v -45.33519940 -3.59881215 106.87798977
v -45.21541552 -5.99649891 106.92561865
v -45.07345872 -8.39418590 107.08695889
v -45.96071200 -3.59881215 109.20124769
v -45.72558598 -5.99649891 118.79852772
v -45.95627026 -3.59881215 118.79852772
v -45.07345872 -8.39418590 120.45185566
v -45.21985011 -5.99649891 120.57477951
v -45.33075766 -3.59881215 120.63624859
v -43.50301461 1.19656172 121.31847382
v -43.50301461 3.59424859 121.29695892
v -43.50301461 5.99193558 121.23550415
v -43.50301461 8.39867055 121.11258030
v -42.85975652 15.59173107 120.56402206
v -44.89156918 10.20824522 120.24441719
v -45.44166522 8.39867055 118.79852772
v -43.50301461 -1.19207729 121.31847382
v -43.50301461 -3.59881215 121.29695892
v -45.72558598 5.99193558 116.39998198
v -45.44166522 8.39867055 113.99989128
v -45.43723063 8.39867055 109.20124769
v -45.70340590 5.99193558 109.20124769
v -45.06901698 8.39867055 107.08695889
v -45.21098094 5.99193558 106.92715645
v -45.33075766 3.59424859 106.87952042
v -43.50301461 5.99193558 105.76706171
v -43.50301461 3.59424859 105.71943283
v -43.50301461 1.19656172 105.70252419
v -43.50301461 -1.19207729 105.70252419
v -43.50301461 -3.59881215 105.71789503
v -43.50301461 -5.99649891 105.76552391
v -43.50301461 -8.39418590 105.92686415
v -45.44166522 -8.39418590 109.20124769
v -45.71228223 -5.99649891 109.20124769
v -42.87306027 -15.59629440 106.95942163
v -44.89600377 -10.23090452 107.47416973
v -45.43723063 -8.39418590 118.79852772
v -43.50301461 -8.39418590 121.11258030
v -44.89156918 -10.21280855 120.24441719
v -42.85975652 -15.59629440 120.56402206
v -43.50301461 -5.99649891 121.23550415
v -41.10299187 13.19404364 121.31847382
v -41.10299187 15.59173107 121.22474670
v -40.61056332 20.39615214 120.56094646
v -42.56252484 17.39225864 120.31356812
v -44.98916583 10.52492112 118.79852772
v -43.43203263 15.59173107 118.79852772
v -44.99360041 10.55206418 116.39998198
v -44.99804215 10.57016015 113.99989128
v -45.00247674 10.56111217 111.60133839
v -41.10299187 -13.19860786 121.31847382
v -44.99804215 10.55206418 109.20124769
v -44.89600377 10.22634119 107.47416973
v -42.87306027 15.59173107 106.95942163
v -43.50301461 8.39867055 105.92686415
v -41.10299187 15.59173107 105.79932690
v -41.10299187 13.19404364 105.69331169
v -41.10299187 10.79635710 105.68255424
v -41.10299187 8.39867055 105.68101645
v -41.10299187 -8.39418590 105.68101645
v -41.10299187 -10.79187244 105.68255424
v -41.10299187 -13.19860786 105.69331169
v -41.10299187 -15.59629440 105.79932690
v -44.99804215 -10.54758042 109.20124769
v -45.00247674 -10.56567550 111.60133839
v -40.67267256 -20.39166749 106.93176270
v -42.55809026 -17.41491795 107.37121582
v -43.40985255 -15.59629440 109.20124769
v -44.17289452 -13.19860786 109.20124769
v -44.62539391 -11.75094724 109.20124769
v -44.99804215 -10.57472348 113.99989128
v -44.98916583 -10.52948445 118.79852772
v -41.10299187 -15.59629440 121.22474670
v -43.43203263 -15.59629440 118.79852772
v -42.56252484 -17.38777399 120.31356812
v -40.61056332 -20.39166749 120.56094646
v -38.70296912 17.99846649 121.31847382
v -36.30294280 22.79383957 121.31847382
v -38.70296912 20.39615214 121.22167110
v -38.83162217 22.86622167 120.71306705
v -38.09519844 25.19152701 120.48258305
v -40.18024759 22.10620165 120.30896187
v -42.14108186 18.89420450 118.79852772
v -42.69117789 17.69083858 118.79852772
v -44.19063287 13.19404364 116.39998198
v -44.62982850 11.75543189 116.39998198
v -43.43646722 15.59173107 116.39998198
v -44.63426308 11.77352786 113.99989128
v -36.30294280 -22.79840291 121.31847382
v -44.62982850 11.76447988 111.60133839
v -44.62539391 11.74638391 109.20124769
v -44.17289452 13.19404364 109.20124769
v -43.40985255 15.59173107 109.20124769
v -42.55809026 17.41035461 107.37121582
v -40.67267256 20.39615214 106.93176270
v -38.70296912 20.39615214 105.77167511
v -38.70296912 17.99846649 105.68408489
v -38.70296912 15.59173107 105.68101645
v -3.84717481 41.99342966 105.62263012
v -3.84717481 -41.99799299 105.62263012
v -38.70296912 -15.59629440 105.68101645
v -38.70296912 -17.99398184 105.68408489
v -38.70296912 -20.39166749 105.77167511
v -44.62982850 -11.76904321 111.60133839
v -44.63426308 -11.76904321 113.99989128
v -38.85823684 -22.88888097 106.68438435
v -38.12181668 -25.19609034 107.11768627
v -40.21130042 -22.14695513 107.34356403
v -42.19875293 -18.94400775 109.20124769
v -42.66456322 -17.74064004 109.20124769
v -43.43646722 -15.59629440 116.39998198
v -44.19063287 -13.19860786 116.39998198
v -38.70296912 -20.39166749 121.22167110
v -42.69117789 -17.69540191 118.79852772
v -42.14108186 -18.88972163 118.79852772
v -40.18024759 -22.11076498 120.30896187
v -38.09519844 -25.19609034 120.48258305
v -38.83162217 -22.86173880 120.71306705
v -31.50289731 27.59826064 121.31847382
v -31.50289731 29.99594808 121.28467083
v -33.90292005 27.59826064 121.24779224
v -36.30294280 25.19152701 121.14330769
v -36.28963547 27.49873459 120.59321880
v -37.67819004 26.63918674 120.20447731
v -40.32220797 22.37763762 118.79852772
v -41.36029439 20.39615214 118.79852772
v -41.41353087 20.39615214 116.39998198
v -42.18100743 18.91230047 116.39998198
v -42.66456322 17.73607671 109.20124769
v -42.20762210 18.94849241 111.60133839
v -33.90292005 -27.59377599 121.24779224
v -31.50289731 -29.99146342 121.28467083
v -26.70285182 -32.39819884 121.31847382
v -42.19875293 18.93944442 109.20124769
v -40.21130042 22.16048777 107.34356403
v -38.13068943 25.19152701 107.11768627
v -38.86710958 22.89336562 106.68284655
v -36.30294280 22.79383957 105.68716049
v -36.30294280 25.19152701 105.95759153
v -33.90292005 27.59826064 105.79625845
v -33.90292005 25.19152701 105.68101645
v -2.73810820 44.40016508 105.62263012
v -3.82943110 -42.04323292 105.62263012
v -2.73810820 -44.40472841 105.62263012
v -33.90292005 -25.19609034 105.68101645
v -36.30294280 -22.79840291 105.68716049
v -33.90292005 -27.59377599 105.79625845
v -36.30294280 -25.19609034 105.95759153
v -36.25414448 -27.48520195 106.91639900
v -37.66931729 -26.60755813 107.58787394
v -40.33995347 -22.37315297 109.20124769
v -41.43571095 -20.39166749 109.20124769
v -39.66120438 -23.56747270 109.20124769
v -42.20762210 -18.95305574 111.60133839
v -36.30294280 -25.19609034 121.14330769
v -42.18100743 -18.90781581 116.39998198
v -41.41353087 -20.39166749 116.39998198
v -41.36029439 -20.39166749 118.79852772
v -40.32220797 -22.38220096 118.79852772
v -37.67819004 -26.64375007 120.20447731
v -36.28963547 -27.50329792 120.59321880
v -21.90724091 37.19805837 121.31847382
v -29.10287456 32.39363551 121.26315594
v -31.55613379 32.45697141 120.71921825
v -33.94728379 30.01404405 120.70693016
v -35.47779875 29.22687829 120.34429550
v -35.65968470 29.42593217 118.79852772
v -36.85748057 27.96017647 118.79852772
v -37.76691394 26.76585674 118.79852772
v -38.71627645 25.19152701 118.79852772
v -39.65232806 23.58100533 118.79852772
v -40.33995347 22.38668561 116.39998198
v -39.67451172 23.59005332 116.39998198
v -41.43127637 20.39615214 113.99989128
v -41.43571095 20.39615214 109.20124769
v -33.94728379 -30.00955939 120.70693016
v -31.55613379 -32.46153474 120.71921825
v -29.10287456 -32.39819884 121.26315594
v -21.90724091 -37.19357371 121.31847382
v -40.34438805 22.38668561 109.20124769
v -39.67007356 23.58100533 109.20124769
v -37.66931729 26.60299480 107.58787394
v -36.25414448 27.48063862 106.91639900
v -31.50289731 29.99594808 105.71943283
v -33.93397646 29.98690009 106.73201323
v -31.56944113 32.45697141 106.67055130
v -31.50289731 27.59826064 105.68101645
v -2.61832790 44.59921718 105.62263012
v -1.22533874 -45.57190418 105.62263012
v -24.30282907 -34.79588628 105.68255424
v -26.70285182 -32.39819884 105.68101645
v -29.10287456 -32.39819884 105.71943283
v -31.50289731 -29.99146342 105.71943283
v -31.56944113 -32.46153474 106.67055130
v -33.93397646 -29.99146342 106.73201323
v -35.42012768 -29.18620348 107.38043547
v -35.58426814 -29.35811162 109.20124769
v -36.78649859 -27.91949987 109.20124769
v -37.74029927 -26.71613216 109.20124769
v -38.69853453 -25.19609034 109.20124769
v -39.67451172 -23.58556867 116.39998198
v -40.33995347 -22.38220096 116.39998198
v -41.43127637 -20.39166749 113.99989128
v -38.73402195 -25.19609034 116.39998198
v -39.65232806 -23.57652068 118.79852772
v -37.76691394 -26.76137209 118.79852772
v -36.85748057 -27.96473980 118.79852772
v -35.65525012 -29.42144752 118.79852772
v -35.47779875 -29.22239363 120.34429550
v -38.71627645 -25.19609034 118.79852772
v -17.10719542 39.59574223 121.31847382
v -19.50721817 39.59574223 121.12179279
v -24.30282907 37.19805837 121.07262611
v -26.70285182 34.79132295 121.20168686
v -29.06294899 34.80037093 120.65314293
v -30.78865723 34.00415540 120.36427975
v -33.17537265 31.70599580 120.39346218
v -33.40162234 31.95933580 118.79852772
v -34.60385279 30.62929988 118.79852772
v -35.64637737 29.40783620 116.39998198
v -36.84416966 27.96017647 116.39998198
v -37.75804119 26.75680876 113.99989128
v -37.76247935 26.76585674 116.39998198
v -38.73402195 25.19152701 116.39998198
v -33.17537265 -31.70151114 120.39346218
v -30.78865723 -33.99967074 120.36427975
v -29.06294899 -34.79588628 120.65314293
v -26.70285182 -34.79588628 121.20168686
v -24.30282907 -37.19357371 121.07262611
v -19.50721817 -39.59125757 121.12179279
v -17.10719542 -39.59125757 121.31847382
v -38.71183829 25.19152701 109.20124769
v -37.74473386 26.72061682 109.20124769
v -36.78649859 27.91493654 109.20124769
v -35.58426814 29.35354829 109.20124769
v -35.42012768 29.18164015 107.38043547
v -29.10287456 32.39363551 105.71943283
v -33.15762715 31.70599580 107.27902651
v -30.81527548 34.05844331 107.27902651
v -29.08956723 34.83656287 106.73508883
v -26.70285182 34.79132295 105.80240250
v -26.70285182 32.39363551 105.68101645
v -1.35399000 45.45876503 105.62263012
v -24.30282907 34.79132295 105.68255424
v -0.88818149 -45.70762396 105.62263012
v -12.30714636 -41.99799299 105.75169802
v -17.10719542 -39.59125757 105.69023609
v -21.90724091 -37.19357371 105.69331169
v -26.70285182 -34.79588628 105.79932690
v -29.09400182 -34.83207822 106.73355103
v -30.81527548 -34.06300664 107.27902651
v -33.15762715 -31.70151114 107.27902651
v -33.34395127 -31.90961480 109.20124769
v -34.54618172 -30.55243134 109.20124769
v -36.81755142 -27.95569181 113.99989128
v -36.83973508 -27.96473980 116.39998198
v -37.75804119 -26.75232410 113.99989128
v -37.76247935 -26.76137209 116.39998198
v -34.59498005 -30.62481523 118.79852772
v -33.39718776 -31.95485115 118.79852772
v -9.90712361 41.99342966 121.31847382
v -12.30714636 41.99342966 121.25392914
v -14.70716910 41.99342966 121.00655079
v -16.99184971 42.08390951 120.59321880
v -19.50721817 41.30579352 120.46261311
v -21.82295160 39.65907812 120.63317299
v -26.53870778 37.12567449 120.50102234
v -24.30282907 38.83572221 120.41344643
v -28.23780136 36.27517462 120.28284073
v -32.24375562 33.16270351 118.79852772
v -32.24819379 33.11746359 109.20124769
v -33.34395127 31.91409588 109.20124769
v -34.54618172 30.55691600 109.20124769
v -36.82198958 27.95112848 113.99989128
v -32.24375562 -33.15821886 118.79852772
v -28.23780136 -36.27973795 120.28284073
v -26.53870778 -37.12118983 120.50102234
v -24.30282907 -38.83123755 120.41344643
v -21.82295160 -39.65459347 120.63317299
v -19.50721817 -41.30130887 120.46261311
v -16.99184971 -42.07942486 120.59321880
v -14.70716910 -41.99799299 121.00655079
v -12.30714636 -41.99799299 121.25392914
v -9.90712361 -41.99799299 121.31847382
v -21.90724091 37.19805837 105.69331169
v -31.05039792 34.27559137 109.20124769
v -28.28216510 36.27517462 107.38658667
v -26.52096228 37.11662650 107.04547405
v -24.30282907 37.19805837 106.12046957
v -19.50721817 39.59574223 105.89766741
v -12.30714636 41.99342966 105.75169802
v -14.70716910 41.99342966 106.14351511
v -12.30714636 43.86634111 106.91179276
v -1.36286275 45.54019690 105.75323582
v -0.88818149 45.41352868 105.62263012
v -17.10719542 39.59574223 105.69023609
v -0.88818149 -45.96096396 106.75813437
v -6.71744423 -45.65333605 107.80913830
v -12.30714636 -43.87090445 106.91179276
v -14.70716910 -41.99799299 106.14351511
v -19.50721817 -39.59125757 105.89766741
v -24.30282907 -37.19357371 106.11585617
v -26.52096228 -37.13023782 107.03932285
v -28.28659968 -36.27973795 107.38351107
v -31.05039792 -34.28015471 109.20124769
v -32.24819379 -33.11297894 109.20124769
v -0.88818149 41.99342966 121.31847382
v -0.88818149 43.82110119 121.14330769
v -0.88818149 44.39111710 121.06955051
v -2.70705359 44.39111710 121.01423264
v -5.10707633 44.39111710 120.90206623
v -9.90712361 44.13777709 120.65929413
v -12.30714636 43.81205320 120.59476376
v -14.70716910 43.47728133 120.34737110
v -20.96231656 40.93482971 120.17681122
v -16.10903458 43.26918125 120.10920525
v -25.62483625 38.47380638 120.11075020
v -29.61748318 35.41562676 118.79852772
v -31.04152517 34.22130704 118.79852772
v -28.41968732 36.41993880 118.79852772
v -31.05039792 34.23940301 116.39998198
v -31.05039792 -34.24396634 116.39998198
v -31.04152517 -34.21682239 118.79852772
v -29.61748318 -35.42019010 118.79852772
v -28.41968732 -36.42450213 118.79852772
v -25.62483625 -38.47836971 120.11075020
v -20.96231656 -40.93034506 120.17681122
v -16.10903458 -43.26469660 120.10920525
v -14.70716910 -43.48184466 120.34737110
v -12.30714636 -43.80756855 120.59476376
v -9.90712361 -44.13329244 120.65929413
v -5.10707633 -44.39568043 120.90206623
v -2.70705359 -44.39568043 121.01423264
v -0.88818149 -44.39568043 121.06955051
v -0.88818149 -41.99799299 121.31847382
v -29.63079052 35.44276714 116.39998198
v -29.62191777 35.46086311 113.99989128
v -29.62191777 35.47895908 109.20124769
v -25.59378342 38.45571041 107.79376745
v -24.30282907 38.85381818 107.27748871
v -21.88062267 39.68622208 106.78271770
v -19.50721817 41.36007786 107.05776215
v -14.70716910 43.49537730 107.30360985
v -6.71744423 45.64877272 107.80913830
v -0.88818149 45.77544093 106.22956038
v -0.88818149 45.73924899 106.16195440
v -0.88818149 -46.14192009 109.20124769
v -2.70705359 -46.09668016 109.20124769
v -5.10707633 -45.74381232 107.55099535
v -5.10707633 -45.90667605 109.20124769
v -6.81947903 -45.68048000 109.20124769
v -8.01727133 -45.47237635 109.20124769
v -9.90712361 -45.08332014 109.20124769
v -12.30714636 -44.51330423 109.20124769
v -16.10459642 -43.27374458 107.76150227
v -14.70716910 -43.49089265 107.30360985
v -19.50721817 -41.35559320 107.05776215
v -21.88062267 -39.68173742 106.78271770
v -24.30282907 -38.85838151 107.27288246
v -29.62635593 -35.47447443 109.20124769
v -25.59821801 -38.46027374 107.78762341
v -29.63079052 -35.46542645 113.99989128
v -0.88818149 45.55829287 120.56862831
v -2.70705359 45.85687280 120.35352230
v -5.10707633 45.75734496 120.24135590
v -6.85496824 45.67591667 120.11996269
v -19.50721817 41.83056951 118.79852772
v -21.11758427 41.01626158 118.79852772
v -12.30714636 44.47254896 118.79852772
v -14.70716910 43.78490925 118.79852772
v -16.21993856 43.31442118 118.79852772
v -17.42216902 42.81678557 118.79852772
v -22.31537657 40.36481380 118.79852772
v -24.30282907 39.27906632 118.79852772
v -25.66919999 38.50999832 118.79852772
v -26.87143044 37.62330651 118.79852772
v -28.43299823 36.41089082 116.39998198
v -29.63522868 -35.43828607 116.39998198
v -28.43743281 -36.41545415 116.39998198
v -26.87586503 -37.61882186 118.79852772
v -25.67807274 -38.51456165 118.79852772
v -24.30282907 -39.28362966 118.79852772
v -22.31537657 -40.36937714 118.79852772
v -21.11758427 -41.01177692 118.79852772
v -19.50721817 -41.83513284 118.79852772
v -17.42660718 -42.82134891 118.79852772
v -16.22437672 -43.31898451 118.79852772
v -14.70716910 -43.78947258 118.79852772
v -12.30714636 -44.46806431 118.79852772
v -9.90712361 -45.11046410 118.79852772
v -6.85496824 -45.67143202 120.11996269
v -5.10707633 -45.76190829 120.24135590
v -2.70705359 -45.85238814 120.35352230
v -0.88818149 -45.90667605 120.40884018
v -28.41968732 36.37469888 109.20124769
v -24.30282907 39.28811431 109.20124769
v -22.41297679 40.42814970 109.20124769
v -21.05991320 40.98911762 107.50335932
v -16.10459642 43.26918125 107.76150227
v -9.90712361 45.08780479 109.20124769
v -8.02170770 45.46781301 109.20124769
v -6.81947903 45.68496466 109.20124769
v -5.10707633 45.90211272 109.20124769
v -2.70705359 46.10116482 109.20124769
v -0.88818149 46.01068854 107.13305712
v -0.88818149 45.96544862 106.75813437
v -12.30714636 44.51778889 109.20124769
v -0.88818149 -46.22335196 118.22232485
v -2.70705359 -46.12382412 113.99989128
v -5.10707633 -45.96096396 113.99989128
v -5.10707633 -45.94286799 111.60133839
v -7.00580137 -45.72571993 116.39998198
v -8.29232113 -45.50856829 118.79852772
v -9.90712361 -45.12856007 116.39998198
v -12.30714636 -44.53140020 113.99989128
v -14.70716910 -43.82566452 113.99989128
v -14.70716910 -43.81661654 111.60133839
v -14.70716910 -43.79852057 109.20124769
v -16.14452200 -43.29184055 109.20124769
v -17.34675245 -42.78516054 109.20124769
v -19.50721817 -41.83513284 109.20124769
v -21.05991320 -40.98463297 107.50335932
v -28.42856006 -36.37926221 109.20124769
v -22.41297679 -40.43271303 109.20124769
v -24.30282907 -39.29267764 109.20124769
v -0.88818149 45.90211272 120.40884018
v -0.88818149 46.20974064 118.79852772
v -2.70705359 46.12830877 118.79852772
v -5.10707633 45.93830466 118.79852772
v -7.05460148 45.72115660 118.79852772
v -8.25683014 45.49495697 118.79852772
v -9.90712361 45.09685278 118.79852772
v -19.50721817 41.84866548 116.39998198
v -21.19300084 41.04340196 113.99989128
v -21.16638260 41.03435397 116.39998198
v -22.36861305 40.40100574 116.39998198
v -12.30714636 44.51778889 116.39998198
v -14.70716910 43.82110119 116.39998198
v -16.21550398 43.32346916 116.39998198
v -17.41773443 42.80773759 116.39998198
v -19.50721817 41.83961749 109.20124769
v -22.39523129 40.41910172 113.99989128
v -22.39523129 -40.43271303 111.60133839
v -22.39966588 -40.41461706 113.99989128
v -22.36861305 -40.39652109 116.39998198
v -21.16638260 -41.03891730 116.39998198
v -19.50721817 -41.86227679 116.39998198
v -17.42660718 -42.81230092 116.39998198
v -16.22881131 -43.32803249 116.39998198
v -14.70716910 -43.81661654 116.39998198
v -12.30714636 -44.52235222 116.39998198
v -7.09452705 -45.71667194 118.79852772
v -5.10707633 -45.94286799 118.79852772
v -2.70705359 -46.12382412 118.79852772
v -0.88818149 -46.21430397 118.79852772
v -21.21074633 41.04340196 109.20124769
v -17.34675245 42.78964162 109.20124769
v -16.14452200 43.29632521 109.20124769
v -14.70716910 43.79395723 109.20124769
v -9.90712361 45.10590076 116.39998198
v -6.94369392 45.72115660 116.39998198
v -5.10707633 45.95640063 113.99989128
v -5.10707633 45.93830466 111.60133839
v -2.70705359 46.11926079 113.99989128
v -0.88818149 46.14640474 109.20124769
v -14.70716910 43.81205320 111.60133839
v -14.70716910 43.82110119 113.99989128
v -2.70705359 -46.13287210 116.39998198
v -5.10707633 -45.96096396 116.39998198
v -21.21074633 -41.04796529 109.20124769
v -21.19743542 -41.03891730 113.99989128
v -2.70705359 46.12830877 116.39998198
v -5.10707633 45.95640063 116.39998198
f 1 2 3
f 1 3 14
f 1 14 4
f 1 4 15
f 1 15 5
f 1 5 6
f 1 6 7
f 1 7 8
f 1 8 2
f 2 9 10
f 2 10 11
f 2 11 12
f 2 12 3
f 2 8 13
f 2 13 9
f 3 12 14
f 4 14 15
f 5 15 16
f 5 16 6
f 6 16 17
f 6 17 18
f 6 18 19
f 6 19 20
f 6 20 21
f 6 21 22
f 6 22 23
f 6 23 7
f 7 23 24
f 7 24 8
f 8 24 25
f 8 25 26
f 8 26 27
f 8 27 13
f 9 28 29
f 9 29 10
f 9 13 35
f 9 35 28
f 10 29 30
f 10 30 11
f 11 30 31
f 11 31 12
f 12 31 32
f 12 32 33
f 12 33 34
f 12 34 14
f 13 27 36
f 13 36 35
f 14 37 15
f 14 34 38
f 14 38 39
f 14 39 37
f 15 37 40
f 15 40 16
f 16 40 41
f 16 41 42
f 16 42 43
f 16 43 17
f 17 43 44
f 17 44 45
f 17 45 46
f 17 46 18
f 18 46 47
f 18 47 48
f 18 48 49
f 18 49 19
f 19 49 20
f 20 49 50
f 20 50 21
f 21 51 52
f 21 52 22
f 21 50 53
f 21 53 54
f 21 54 51
f 22 52 23
f 23 52 51
f 23 51 55
f 23 55 25
f 23 25 24
f 25 56 26
f 25 55 57
f 25 57 58
f 25 58 56
f 26 56 59
f 26 59 27
f 27 59 36
f 28 60 29
f 28 35 69
f 28 69 107
f 28 107 151
f 28 151 197
f 28 197 249
f 28 249 302
f 28 302 353
f 28 353 325
f 28 325 279
f 28 279 229
f 28 229 180
f 28 180 137
f 28 137 96
f 28 96 95
f 28 95 60
f 29 60 30
f 30 60 61
f 30 61 31
f 31 61 32
f 32 61 62
f 32 62 63
f 32 63 33
f 33 64 34
f 33 63 65
f 33 65 64
f 34 64 66
f 34 66 67
f 34 67 68
f 34 68 38
f 35 36 69
f 36 59 69
f 37 39 40
f 38 68 39
f 39 68 70
f 39 70 71
f 39 71 41
f 39 41 40
f 41 71 72
f 41 72 73
f 41 73 42
f 42 44 43
f 42 73 44
f 44 73 74
f 44 74 75
f 44 75 45
f 45 75 46
f 46 75 76
f 46 76 77
f 46 77 78
f 46 78 47
f 47 78 79
f 47 79 80
f 47 80 48
f 48 80 49
f 49 80 81
f 49 81 50
f 50 81 53
f 51 54 82
f 51 82 83
f 51 83 55
f 53 81 84
f 53 84 85
f 53 85 54
f 54 85 86
f 54 86 87
f 54 87 88
f 54 88 82
f 55 83 89
f 55 89 90
f 55 90 57
f 56 58 91
f 56 91 59
f 57 90 92
f 57 92 93
f 57 93 58
f 58 93 94
f 58 94 91
f 59 91 69
f 60 95 61
f 61 95 96
f 61 96 97
f 61 97 62
f 62 97 98
f 62 98 99
f 62 99 100
f 62 100 63
f 63 100 101
f 63 101 102
f 63 102 65
f 64 65 103
f 64 103 104
f 64 104 66
f 65 102 105
f 65 105 103
f 66 104 106
f 66 106 67
f 67 106 68
f 68 106 70
f 69 91 107
f 70 106 108
f 70 108 109
f 70 109 71
f 71 109 110
f 71 110 111
f 71 111 112
f 71 112 72
f 72 112 113
f 72 113 74
f 72 74 73
f 74 113 114
f 74 114 75
f 75 114 115
f 75 115 76
f 76 115 116
f 76 116 117
f 76 117 77
f 77 117 118
f 77 118 78
f 78 118 79
f 79 119 120
f 79 120 80
f 79 118 119
f 80 120 121
f 80 121 81
f 81 121 84
f 82 88 122
f 82 122 83
f 83 122 123
f 83 123 89
f 84 121 124
f 84 124 125
f 84 125 126
f 84 126 85
f 85 126 127
f 85 127 128
f 85 128 86
f 86 128 129
f 86 129 87
f 87 129 122
f 87 122 88
f 89 123 130
f 89 130 90
f 90 130 92
f 91 94 131
f 91 131 107
f 92 130 129
f 92 129 132
f 92 132 93
f 93 132 133
f 93 133 134
f 93 134 94
f 94 134 135
f 94 135 136
f 94 136 131
f 96 137 138
f 96 138 139
f 96 139 97
f 97 139 140
f 97 140 98
f 98 140 99
f 99 140 141
f 99 141 142
f 99 142 100
f 100 143 144
f 100 144 101
f 100 142 143
f 101 144 145
f 101 145 146
f 101 146 102
f 102 147 105
f 102 146 148
f 102 148 147
f 103 106 104
f 103 105 106
f 105 147 111
f 105 111 110
f 105 110 106
f 106 110 108
f 107 149 150
f 107 150 151
f 107 131 149
f 108 110 109
f 111 147 112
f 112 147 152
f 112 152 153
f 112 153 113
f 113 153 154
f 113 154 155
f 113 155 114
f 114 156 115
f 114 155 157
f 114 157 158
f 114 158 156
f 115 156 159
f 115 159 160
f 115 160 116
f 116 160 117
f 117 160 206
f 117 206 261
f 117 261 313
f 117 313 263
f 117 263 207
f 117 207 162
f 117 162 161
f 117 161 118
f 118 161 119
f 119 161 162
f 119 162 120
f 120 162 163
f 120 163 164
f 120 164 121
f 121 164 165
f 121 165 166
f 121 166 124
f 122 129 130
f 122 130 123
f 124 166 125
f 125 166 167
f 125 167 168
f 125 168 126
f 126 169 170
f 126 170 127
f 126 168 171
f 126 171 169
f 127 170 172
f 127 172 128
f 128 132 129
f 128 172 132
f 131 136 173
f 131 173 149
f 132 172 174
f 132 174 133
f 133 174 175
f 133 175 176
f 133 176 134
f 134 176 177
f 134 177 178
f 134 178 135
f 135 178 179
f 135 179 173
f 135 173 136
f 137 180 138
f 138 180 181
f 138 181 182
f 138 182 183
f 138 183 139
f 139 183 140
f 140 183 141
f 141 183 184
f 141 184 142
f 142 184 185
f 142 185 186
f 142 186 187
f 142 187 188
f 142 188 189
f 142 189 143
f 143 190 145
f 143 145 144
f 143 189 191
f 143 191 190
f 145 192 148
f 145 148 146
f 145 190 192
f 147 148 152
f 148 192 193
f 148 193 152
f 149 173 194
f 149 194 150
f 150 194 195
f 150 195 196
f 150 196 197
f 150 197 151
f 152 193 153
f 153 193 198
f 153 198 199
f 153 199 200
f 153 200 154
f 154 200 201
f 154 201 157
f 154 157 155
f 156 158 202
f 156 202 159
f 157 201 203
f 157 203 158
f 158 203 204
f 158 204 202
f 159 202 205
f 159 205 206
f 159 206 160
f 162 207 208
f 162 208 209
f 162 209 163
f 163 209 210
f 163 210 211
f 163 211 164
f 164 211 165
f 165 211 212
f 165 212 213
f 165 213 166
f 166 213 167
f 167 214 168
f 167 213 214
f 168 214 215
f 168 215 216
f 168 216 217
f 168 217 218
f 168 218 171
f 169 171 219
f 169 219 170
f 170 219 220
f 170 220 221
f 170 221 172
f 171 218 222
f 171 222 219
f 172 221 175
f 172 175 174
f 173 179 194
f 175 221 220
f 175 220 177
f 175 177 176
f 177 220 219
f 177 219 223
f 177 223 178
f 178 224 225
f 178 225 226
f 178 226 227
f 178 227 179
f 178 223 228
f 178 228 224
f 179 227 194
f 180 229 230
f 180 230 231
f 180 231 232
f 180 232 181
f 181 232 182
f 182 232 233
f 182 233 234
f 182 234 235
f 182 235 183
f 183 235 184
f 184 235 236
f 184 236 237
f 184 237 185
f 185 237 238
f 185 238 239
f 185 239 186
f 186 239 240
f 186 240 241
f 186 241 187
f 187 241 242
f 187 242 188
f 188 242 191
f 188 191 189
f 190 198 193
f 190 193 192
f 190 191 198
f 191 242 199
f 191 199 198
f 194 243 195
f 194 227 243
f 195 244 245
f 195 245 246
f 195 246 196
f 195 243 244
f 196 246 197
f 197 246 247
f 197 247 248
f 197 248 249
f 199 242 250
f 199 250 200
f 200 251 252
f 200 252 253
f 200 253 254
f 200 254 201
f 200 250 251
f 201 254 203
f 202 204 255
f 202 255 260
f 202 260 205
f 203 254 256
f 203 256 204
f 204 257 258
f 204 258 259
f 204 259 255
f 204 256 257
f 205 260 206
f 206 260 262
f 206 262 261
f 207 263 264
f 207 264 265
f 207 265 266
f 207 266 208
f 208 266 210
f 208 210 209
f 210 212 211
f 210 266 267
f 210 267 212
f 212 267 268
f 212 268 269
f 212 269 270
f 212 270 213
f 213 270 214
f 214 270 271
f 214 271 272
f 214 272 215
f 215 272 226
f 215 226 216
f 216 273 217
f 216 226 273
f 217 273 274
f 217 274 275
f 217 275 218
f 218 275 222
f 219 222 228
f 219 228 223
f 222 275 276
f 222 276 224
f 222 224 228
f 224 276 225
f 225 276 275
f 225 275 274
f 225 274 226
f 226 272 277
f 226 277 227
f 226 274 273
f 227 277 278
f 227 278 243
f 229 279 280
f 229 280 230
f 230 280 281
f 230 281 282
f 230 282 283
f 230 283 284
f 230 284 231
f 231 285 233
f 231 233 232
f 231 284 286
f 231 286 285
f 233 285 287
f 233 287 234
f 234 288 235
f 234 287 288
f 235 288 236
f 236 288 289
f 236 289 290
f 236 290 237
f 237 291 238
f 237 290 291
f 238 291 253
f 238 253 252
f 238 252 292
f 238 292 239
f 239 292 251
f 239 251 240
f 240 251 250
f 240 250 241
f 241 250 242
f 243 278 293
f 243 293 244
f 244 293 294
f 244 294 245
f 245 294 295
f 245 295 247
f 245 247 246
f 247 295 296
f 247 296 297
f 247 297 248
f 248 297 298
f 248 298 299
f 248 299 300
f 248 300 301
f 248 301 249
f 249 301 302
f 251 292 252
f 253 291 254
f 254 291 290
f 254 290 256
f 255 259 303
f 255 303 262
f 255 262 260
f 256 290 289
f 256 289 257
f 257 289 304
f 257 304 305
f 257 305 258
f 258 305 306
f 258 306 307
f 258 307 259
f 259 307 308
f 259 308 303
f 261 309 310
f 261 310 311
f 261 311 312
f 261 312 313
f 261 262 303
f 261 303 314
f 261 314 309
f 263 315 316
f 263 316 317
f 263 317 318
f 263 318 264
f 263 313 364
f 263 364 363
f 263 363 424
f 263 424 423
f 263 423 483
f 263 483 445
f 263 445 444
f 263 444 381
f 263 381 327
f 263 327 326
f 263 326 325
f 263 325 353
f 263 353 352
f 263 352 412
f 263 412 473
f 263 473 426
f 263 426 365
f 263 365 315
f 264 318 319
f 264 319 265
f 265 319 266
f 266 319 267
f 267 319 320
f 267 320 268
f 268 320 321
f 268 321 322
f 268 322 269
f 269 323 324
f 269 324 270
f 269 322 323
f 270 324 271
f 271 278 277
f 271 277 272
f 271 324 278
f 278 324 293
f 279 325 326
f 279 326 327
f 279 327 280
f 280 327 328
f 280 328 329
f 280 329 330
f 280 330 331
f 280 331 281
f 281 331 282
f 282 331 332
f 282 332 283
f 283 333 286
f 283 286 284
f 283 332 334
f 283 334 333
f 285 286 335
f 285 335 287
f 286 333 335
f 287 336 337
f 287 337 288
f 287 335 338
f 287 338 336
f 288 337 339
f 288 339 304
f 288 304 289
f 293 324 323
f 293 323 340
f 293 340 341
f 293 341 294
f 294 341 342
f 294 342 343
f 294 343 344
f 294 344 295
f 295 344 296
f 296 344 345
f 296 345 298
f 296 298 297
f 298 345 346
f 298 346 347
f 298 347 299
f 299 347 300
f 300 347 348
f 300 348 301
f 301 348 349
f 301 349 350
f 301 350 351
f 301 351 352
f 301 352 302
f 302 352 353
f 303 308 314
f 304 339 354
f 304 354 355
f 304 355 356
f 304 356 305
f 305 356 357
f 305 357 358
f 305 358 306
f 306 358 359
f 306 359 307
f 307 359 308
f 308 359 360
f 308 360 310
f 308 310 309
f 308 309 314
f 310 361 311
f 310 360 361
f 311 361 362
f 311 362 312
f 312 362 363
f 312 363 364
f 312 364 313
f 315 365 366
f 315 366 367
f 315 367 316
f 316 367 366
f 316 366 368
f 316 368 369
f 316 369 370
f 316 370 371
f 316 371 372
f 316 372 373
f 316 373 374
f 316 374 317
f 317 374 318
f 318 374 375
f 318 375 319
f 319 375 376
f 319 376 320
f 320 376 321
f 321 376 377
f 321 377 322
f 322 378 323
f 322 377 379
f 322 379 378
f 323 378 380
f 323 380 340
f 327 381 328
f 328 381 382
f 328 382 329
f 329 382 383
f 329 383 330
f 330 383 384
f 330 384 331
f 331 384 332
f 332 384 334
f 333 334 385
f 333 385 386
f 333 386 335
f 334 384 387
f 334 387 388
f 334 388 389
f 334 389 390
f 334 390 385
f 335 386 391
f 335 391 392
f 335 392 393
f 335 393 394
f 335 394 338
f 336 338 354
f 336 354 337
f 337 354 339
f 338 395 356
f 338 356 355
f 338 355 354
f 338 394 395
f 340 380 396
f 340 396 342
f 340 342 341
f 342 396 343
f 343 396 380
f 343 380 397
f 343 397 398
f 343 398 344
f 344 399 400
f 344 400 401
f 344 401 402
f 344 402 345
f 344 398 399
f 345 402 403
f 345 403 346
f 346 404 405
f 346 405 406
f 346 406 407
f 346 407 408
f 346 408 409
f 346 409 347
f 346 403 404
f 347 409 348
f 348 409 349
f 349 409 410
f 349 410 350
f 350 410 411
f 350 411 351
f 351 411 412
f 351 412 352
f 356 395 394
f 356 394 413
f 356 413 357
f 357 394 393
f 357 393 414
f 357 414 415
f 357 415 416
f 357 416 358
f 357 413 394
f 358 416 359
f 359 416 360
f 360 416 417
f 360 417 361
f 361 417 362
f 362 418 419
f 362 419 420
f 362 420 421
f 362 421 422
f 362 422 423
f 362 423 424
f 362 424 363
f 362 417 425
f 362 425 418
f 365 426 366
f 366 426 427
f 366 427 428
f 366 428 429
f 366 429 368
f 368 429 369
f 369 430 370
f 369 429 430
f 370 430 431
f 370 431 371
f 371 431 432
f 371 432 372
f 372 433 434
f 372 434 435
f 372 435 436
f 372 436 373
f 372 432 433
f 373 436 437
f 373 437 438
f 373 438 439
f 373 439 440
f 373 440 375
f 373 375 374
f 375 440 376
f 376 440 377
f 377 440 379
f 378 379 441
f 378 441 398
f 378 398 397
f 378 397 380
f 379 440 442
f 379 442 443
f 379 443 399
f 379 399 441
f 381 444 382
f 382 444 445
f 382 445 446
f 382 446 383
f 383 446 384
f 384 446 447
f 384 447 448
f 384 448 449
f 384 449 450
f 384 450 387
f 385 390 451
f 385 451 452
f 385 452 453
f 385 453 386
f 386 453 454
f 386 454 391
f 387 450 455
f 387 455 388
f 388 455 456
f 388 456 389
f 389 456 457
f 389 457 390
f 390 458 459
f 390 459 451
f 390 457 458
f 391 454 392
f 392 454 393
f 393 454 460
f 393 460 415
f 393 415 414
f 398 441 399
f 399 443 442
f 399 442 461
f 399 461 462
f 399 462 400
f 400 462 463
f 400 463 401
f 401 463 402
f 402 464 403
f 402 463 464
f 403 464 465
f 403 465 404
f 404 465 439
f 404 439 466
f 404 466 467
f 404 467 405
f 405 467 468
f 405 468 406
f 406 468 469
f 406 469 407
f 407 469 408
f 408 432 431
f 408 431 409
f 408 469 432
f 409 431 470
f 409 470 471
f 409 471 472
f 409 472 410
f 410 472 473
f 410 473 411
f 411 473 412
f 415 460 452
f 415 452 474
f 415 474 416
f 416 474 459
f 416 459 417
f 417 459 475
f 417 475 476
f 417 476 477
f 417 477 425
f 418 478 449
f 418 449 419
f 418 425 478
f 419 449 448
f 419 448 420
f 420 448 479
f 420 479 480
f 420 480 481
f 420 481 421
f 421 481 422
f 422 481 480
f 422 480 482
f 422 482 445
f 422 445 483
f 422 483 423
f 425 477 484
f 425 484 485
f 425 485 456
f 425 456 455
f 425 455 478
f 426 473 472
f 426 472 486
f 426 486 427
f 427 486 428
f 428 487 470
f 428 470 430
f 428 430 429
f 428 486 487
f 430 470 431
f 432 469 433
f 433 469 468
f 433 468 434
f 434 468 467
f 434 467 435
f 435 467 436
f 436 467 437
f 437 467 438
f 438 467 466
f 438 466 439
f 439 488 440
f 439 465 488
f 440 488 442
f 442 488 489
f 442 489 461
f 445 482 490
f 445 490 446
f 446 490 480
f 446 480 491
f 446 491 447
f 447 491 448
f 448 491 480
f 448 480 479
f 449 478 450
f 450 478 455
f 451 459 474
f 451 474 452
f 452 460 453
f 453 460 454
f 456 485 457
f 457 476 475
f 457 475 458
f 457 485 484
f 457 484 476
f 458 475 459
f 461 489 462
f 462 489 464
f 462 464 463
f 464 489 465
f 465 489 488
f 470 487 471
f 471 487 472
f 472 487 486
f 476 484 477
f 480 490 482

