# https://github.com/mikedh/trimesh
v 46.41506894 1.07857749 -19.18123126
v 41.60124405 1.07857749 -6.01106286
v 41.57938583 -5.44683516 -1.75286293
v 41.60292669 -6.01057917 -1.75286293
v 46.41506894 -6.01405084 -19.18123126
v 46.41506894 1.07857749 -33.43340635
v 41.54743893 1.07857749 -5.87144852
v 40.59240980 1.07857749 -3.41658711
v 40.59913500 -2.74822041 -1.75286293
v 33.12030299 -6.01405084 -1.75286293
v 41.60628839 -6.01405084 -3.59110236
v 46.41506894 -6.01405084 -32.90985346
v 46.41506894 -1.20000578 -33.43340635
v 46.20321377 1.07857749 -116.39849424
v 37.95262439 1.07857749 -2.84649968
v 39.96356769 -1.86164193 -1.75286293
v 30.28715803 -6.01405084 -1.75286293
v 46.41506894 -3.88265222 -33.14254403
v 45.73242350 -6.01405084 -116.39849424
v 45.73410435 -5.99947125 -116.39849424
v 45.97118302 -3.59939128 -116.39849424
v 46.20321377 -1.20000578 -116.39849424
v 46.05356975 1.07857749 -118.79518032
v 37.92740269 1.07857749 -2.85813332
v 30.41326208 -5.93351573 -1.75286293
v 30.89414103 -5.62734425 -1.75286293
v 38.59491511 -1.83387123 -1.75286293
v 39.84082623 -1.83387123 -1.75286293
v 30.12238188 -6.01405084 -2.09026337
v 31.06059892 1.07857749 -6.41826868
v 29.97105701 1.07857749 -8.40775609
v 45.63826723 -6.01405084 -118.79518032
v 45.63994808 -5.99947125 -118.79518032
v 46.05356975 -1.20000578 -118.79518032
v 45.05146070 1.07857749 -120.40074348
v 29.48345287 -6.01405084 -3.83542657
v 29.96769352 1.07857749 -8.52409959
v 29.34221579 -6.01405084 -6.01106286
v 44.81774731 -6.01405084 -120.61015606
v 44.99765558 -1.20000578 -120.48216820
v 44.99765558 1.07857749 -120.48216820
v 29.90884496 1.07857749 -10.80444574
v 29.79787303 1.07857749 -15.72580934
v 29.29009332 -6.01405084 -8.40775609
v 43.26918466 -6.01405084 -120.61015606
v 43.49953456 1.07857749 -120.48216820
v 29.76088269 1.07857749 -18.00615549
v 29.23965080 -6.01405084 -18.00615549
v 42.06867082 -6.01405084 -119.62122917
v 42.35955281 1.07857749 -119.44671392
v 29.76088269 1.07857749 -99.59838152
v 29.23965080 -6.01405084 -99.61001873
v 40.85975094 -6.01405084 -118.42288256
v 42.29902072 1.07857749 -119.38854218
v 29.76256443 1.07857749 -99.71473217
v 29.26991595 -6.01405084 -102.00671196
v 32.42925151 -6.01405084 -110.05773067
v 41.09346433 1.07857749 -118.19019556
v 29.79955478 1.07857749 -101.99507475
v 29.34389754 -6.01405084 -104.39176798
v 31.29599316 -6.01405084 -108.85938406
v 32.75376125 1.07857749 -109.85994816
v 33.89374299 1.07857749 -111.00012302
v 35.09257598 1.07857749 -112.19846249
v 38.69075401 1.07857749 -115.79350233
v 29.80459912 1.07857749 -102.11141825
v 29.91557105 1.07857749 -104.39176798
v 29.54230143 -6.01405084 -105.97404957
v 30.09547932 -6.01405084 -107.17238903
v 31.58855601 1.07857749 -108.59179258
v 29.94583531 1.07857749 -104.51974869
v 30.53936703 1.07857749 -106.78845406
v 30.59149040 1.07857749 -106.88153744
f 1 2 3
f 1 3 4
f 1 4 5
f 1 5 12
f 1 12 18
f 1 18 13
f 1 13 6
f 1 6 14
f 1 14 23
f 1 23 35
f 1 35 41
f 1 41 46
f 1 46 50
f 1 50 54
f 1 54 58
f 1 58 65
f 1 65 64
f 1 64 63
f 1 63 62
f 1 62 70
f 1 70 73
f 1 73 72
f 1 72 71
f 1 71 67
f 1 67 66
f 1 66 59
f 1 59 55
f 1 55 51
f 1 51 47
f 1 47 43
f 1 43 42
f 1 42 37
f 1 37 31
f 1 31 30
f 1 30 24
f 1 24 15
f 1 15 8
f 1 8 7
f 1 7 2
f 2 7 3
f 3 8 9
f 3 9 16
f 3 16 28
f 3 28 27
f 3 27 26
f 3 26 25
f 3 25 17
f 3 17 10
f 3 10 4
f 3 7 8
f 4 10 11
f 4 11 5
f 5 11 10
f 5 10 17
f 5 17 29
f 5 29 36
f 5 36 38
f 5 38 44
f 5 44 48
f 5 48 52
f 5 52 56
f 5 56 60
f 5 60 68
f 5 68 69
f 5 69 61
f 5 61 57
f 5 57 53
f 5 53 49
f 5 49 45
f 5 45 39
f 5 39 32
f 5 32 19
f 5 19 12
f 6 13 22
f 6 22 14
f 8 15 16
f 8 16 9
f 12 19 20
f 12 20 21
f 12 21 22
f 12 22 18
f 13 18 22
f 14 22 34
f 14 34 23
f 15 24 17
f 15 17 25
f 15 25 26
f 15 26 27
f 15 27 28
f 15 28 16
f 17 24 30
f 17 30 31
f 17 31 29
f 19 32 33
f 19 33 20
f 20 33 21
f 21 33 22
f 22 33 34
f 23 34 35
f 29 31 36
f 31 37 38
f 31 38 36
f 32 39 33
f 33 39 34
f 34 39 40
f 34 40 35
f 35 40 41
f 37 42 38
f 38 42 43
f 38 43 44
f 39 45 46
f 39 46 41
f 39 41 40
f 43 47 44
f 44 47 48
f 45 49 46
f 46 49 50
f 47 51 52
f 47 52 48
f 49 53 54
f 49 54 50
f 51 55 56
f 51 56 52
f 53 57 54
f 54 57 58
f 55 59 56
f 56 59 60
f 57 61 62
f 57 62 63
f 57 63 64
f 57 64 65
f 57 65 58
f 59 66 60
f 60 66 67
f 60 67 68
f 61 69 70
f 61 70 62
f 67 71 68
f 68 71 72
f 68 72 69
f 69 72 73
f 69 73 70

