# https://github.com/mikedh/trimesh
v 46.41298933 -6.01405084 32.90302992
v 46.41298933 -8.40083778 32.65599847
v 46.41298933 -6.01405084 19.18161571
v 45.73268099 -6.01405084 62.65895605
v 46.41298933 -13.24301809 32.04515934
v 46.41298933 -15.88587642 19.18161571
v 41.65706618 -6.01405084 16.77419186
v 29.23882110 -6.01405084 62.65895605
v 45.44141455 -8.40083778 62.65895605
v 46.41298933 -15.88587642 31.68584347
v 46.41298933 -15.59984922 31.73973799
v 41.65706618 -15.88587642 16.77419186
v 29.23882110 -6.01405084 16.77419186
v 25.16320629 -15.88587642 62.65895605
v 45.11270447 -9.85899925 62.65895605
v 44.90049703 -10.80018550 62.65895605
v 44.54473777 -11.97425276 62.65895605
v 43.64390178 -14.94565666 62.65895605
v 43.44417734 -15.59984922 62.65895605
v 43.33807452 -15.88587642 62.65895605
v 25.16320629 -15.88587642 16.77419186
f 1 2 5
f 1 5 11
f 1 11 10
f 1 10 6
f 1 6 3
f 1 3 7
f 1 7 13
f 1 13 8
f 1 8 4
f 1 4 2
f 2 4 5
f 3 6 12
f 3 12 7
f 4 8 14
f 4 14 20
f 4 20 19
f 4 19 18
f 4 18 17
f 4 17 16
f 4 16 15
f 4 15 9
f 4 9 10
f 4 10 11
f 4 11 5
f 6 10 20
f 6 20 14
f 6 14 21
f 6 21 12
f 7 12 21
f 7 21 13
f 8 13 21
f 8 21 14
f 9 15 10
f 10 15 16
f 10 16 17
f 10 17 18
f 10 18 19
f 10 19 20

