# https://github.com/mikedh/trimesh
v 42.47349484 -18.20746064 34.82089520
v 42.47349484 -15.88587642 34.82089520
v 42.56497605 -18.01134467 34.82089520
v 42.47349484 -18.15996587 62.65895605
v 43.36263461 -15.88587642 34.82089520
v 42.47349484 -15.88587642 62.65895605
v 43.35662825 -15.90201080 34.82089520
v 42.54756851 -17.99998105 62.65895605
v 43.33860917 -15.88587642 62.65895605
f 1 2 5
f 1 5 7
f 1 7 3
f 1 3 4
f 1 4 6
f 1 6 2
f 2 6 9
f 2 9 5
f 3 7 8
f 3 8 4
f 4 8 9
f 4 9 6
f 5 9 7
f 7 9 8

