# https://github.com/mikedh/trimesh
v 46.41852184 -21.36999965 -27.59864867
v 46.41852184 -21.36999965 -22.80086696
v 46.41852184 -20.92235148 -28.87759209
v 76.49011893 -21.36999965 -27.59864867
v 76.49011893 -21.36999965 -22.80086696
v 46.41852184 -20.31572521 -20.40058136
v 46.41852184 -20.50398767 -29.99893248
v 78.89101072 -21.33234680 -27.59864867
v 76.49011893 -20.47051907 -29.99893248
v 78.89101072 -20.45378387 -29.99893248
v 78.89101072 -21.33234680 -22.80086696
v 78.89101072 -20.29899001 -20.40058136
v 76.49011893 -20.31572521 -20.40058136
v 46.41852184 -19.23216283 -19.18997884
v 46.41852184 -19.92664754 -30.69349408
v 80.55263562 -19.81787145 -29.99893248
v 80.89808269 -20.24878621 -27.59864867
v 78.89101072 -19.38695848 -31.25974417
v 80.16917987 -19.32420373 -31.23882294
v 80.89808269 -20.24878621 -22.80086696
v 80.50427003 -19.73838329 -20.40058136
v 80.10354800 -19.21961188 -19.19416308
v 78.89101072 -19.23216283 -19.19137359
v 78.89101072 -17.99799085 -19.18021560
v 46.41852184 -17.99799085 -19.18021560
v 46.41852184 -19.41624284 -31.28206015
v 81.01554198 -17.99799085 -29.99893248
v 81.70644326 -17.99799085 -27.59864867
v 46.41852184 -18.64645422 -31.45082116
v 46.41852184 -16.71779931 -31.72836542
v 46.41852184 -14.42516863 -32.00870275
v 46.41852184 -6.45116284 -32.86644459
v 46.41852184 -1.27182461 -33.42153668
v 80.21063609 -17.99799085 -31.25974417
v 46.41852184 -1.19651925 -33.42711568
v 81.70644326 -17.99799085 -22.80086696
v 80.91881080 -17.99799085 -20.40058136
v 80.11045737 -17.99799085 -19.19137359
v 78.89101072 17.99799085 -19.18021560
v 46.41852184 17.99799085 -19.18021560
v 81.01554198 17.99799085 -29.99893248
v 81.70644326 17.99799085 -27.59864867
v 80.21063609 17.99799085 -31.25974417
v 46.41852184 1.19651925 -33.42711568
v 81.70644326 17.99799085 -22.80086696
v 80.91881080 17.99799085 -20.40058136
v 80.11045737 17.99799085 -19.19137359
v 80.10354800 19.21961188 -19.19416308
v 78.89101072 19.23216283 -19.19137359
v 46.41852184 19.23216283 -19.18997884
v 46.41852184 18.57533276 -19.18439984
v 80.16917987 19.32420373 -31.23882294
v 80.55263562 19.81787145 -29.99893248
v 80.89808269 20.24878621 -27.59864867
v 46.41852184 8.39655250 -32.64747620
v 78.89101072 19.38695848 -31.25974417
v 80.89808269 20.24878621 -22.80086696
v 80.50427003 19.73838329 -20.40058136
v 78.89101072 20.29899001 -20.40058136
v 76.49011893 20.31572521 -20.40058136
v 46.41852184 20.31572521 -20.40058136
v 78.89101072 20.45378387 -29.99893248
v 78.89101072 21.33234680 -27.59864867
v 46.41852184 17.99799085 -31.48010731
v 46.41852184 19.41624284 -31.28206015
v 76.49011893 20.47051907 -29.99893248
v 78.89101072 21.33234680 -22.80086696
v 76.49011893 21.36999965 -22.80086696
v 46.41852184 20.80939293 -21.52192354
v 76.49011893 21.36999965 -27.59864867
v 46.41852184 20.50398767 -29.99893248
v 46.41852184 21.36999965 -22.80086696
v 46.41852184 21.36999965 -27.59864867
f 1 2 6
f 1 6 14
f 1 14 25
f 1 25 40
f 1 40 51
f 1 51 50
f 1 50 61
f 1 61 69
f 1 69 72
f 1 72 73
f 1 73 71
f 1 71 65
f 1 65 64
f 1 64 55
f 1 55 44
f 1 44 35
f 1 35 33
f 1 33 32
f 1 32 31
f 1 31 30
f 1 30 29
f 1 29 26
f 1 26 15
f 1 15 7
f 1 7 3
f 1 3 4
f 1 4 5
f 1 5 2
f 2 5 13
f 2 13 6
f 3 7 4
f 4 8 11
f 4 11 5
f 4 7 9
f 4 9 10
f 4 10 8
f 5 11 12
f 5 12 13
f 6 13 14
f 7 15 9
f 8 10 16
f 8 16 17
f 8 17 20
f 8 20 11
f 9 15 18
f 9 18 10
f 10 18 19
f 10 19 16
f 11 20 21
f 11 21 12
f 12 21 22
f 12 22 23
f 12 23 13
f 13 23 14
f 14 23 24
f 14 24 25
f 15 26 18
f 16 19 27
f 16 27 28
f 16 28 17
f 17 28 36
f 17 36 20
f 18 26 29
f 18 29 30
f 18 30 31
f 18 31 32
f 18 32 33
f 18 33 19
f 19 34 27
f 19 33 35
f 19 35 34
f 20 36 21
f 21 36 37
f 21 37 22
f 22 37 38
f 22 38 24
f 22 24 23
f 24 38 47
f 24 47 39
f 24 39 40
f 24 40 25
f 27 34 43
f 27 43 41
f 27 41 42
f 27 42 28
f 28 42 45
f 28 45 36
f 34 35 44
f 34 44 43
f 36 45 46
f 36 46 37
f 37 46 47
f 37 47 38
f 39 47 48
f 39 48 49
f 39 49 50
f 39 50 51
f 39 51 40
f 41 43 52
f 41 52 53
f 41 53 42
f 42 53 54
f 42 54 57
f 42 57 45
f 43 44 52
f 44 55 56
f 44 56 52
f 45 57 58
f 45 58 46
f 46 58 48
f 46 48 47
f 48 58 59
f 48 59 49
f 49 59 60
f 49 60 50
f 50 60 61
f 52 56 62
f 52 62 53
f 53 62 63
f 53 63 54
f 54 63 67
f 54 67 57
f 55 64 56
f 56 64 65
f 56 65 66
f 56 66 62
f 57 67 58
f 58 67 59
f 59 67 68
f 59 68 60
f 60 68 69
f 60 69 61
f 62 66 70
f 62 70 63
f 63 70 68
f 63 68 67
f 65 71 66
f 66 71 70
f 68 70 73
f 68 73 72
f 68 72 69
f 70 71 73

