# https://github.com/mikedh/trimesh
v 20.02908273 22.02239871 62.65895605
v -0.13944821 30.56936145 62.65895605
v 20.02908273 41.56236649 62.65895605
v 20.02908273 22.02239871 94.79759216
v -2.28483634 30.75624347 105.62262297
v -1.24719696 32.40034461 62.65895605
v -3.66835551 32.34120369 105.62262297
v -3.71275859 32.40034461 105.62262297
v 19.63178857 41.77054167 62.65895605
v 20.02908273 41.60258174 104.39881325
v 20.02908273 22.02476442 96.71952009
v 20.02908273 22.04605579 105.61000586
v -0.46663122 30.05838633 105.62262297
v -1.29160003 33.85992765 62.65895605
v -3.84596960 34.79907632 105.62262297
v 18.89095081 42.15849996 62.65895605
v 18.89095081 42.16323137 101.99745655
v 18.89095081 42.15849996 104.39881325
v 20.02908273 41.58601999 105.62262297
v 20.02908273 26.26867533 105.62262297
v 18.82551475 22.83853590 105.62262297
v -1.31964521 34.79907632 62.65895605
v -3.84596960 39.59890723 105.62262297
v 17.77151568 42.66474009 62.65895605
v 17.04937471 42.99119711 99.59609985
v 17.04937471 42.99119711 62.65895605
v 17.06339730 42.95807719 104.39881325
v 17.05872311 42.94151902 105.62262297
v 17.95614107 42.54882574 105.62262297
v 18.89095081 42.13721037 105.62262297
v 17.05638601 42.98173428 101.99745655
v -1.31964521 41.99763894 62.65895605
v -3.84129541 41.99763894 105.62262297
v 15.85749222 43.41937065 105.62262297
v 15.85048093 43.36732864 62.65895605
v 14.09303768 44.00367737 105.62262297
v 14.96007426 43.72217059 105.62262297
v -1.02517979 44.39873457 62.65895605
v -2.73354487 44.40819740 105.62262297
v 14.09303768 43.90195727 62.65895605
v 11.69291301 44.68260884 104.39881325
v 11.69291301 44.68260884 105.62262297
v 11.69291301 44.63056684 62.65895605
v 0.08023365 45.91745853 62.65895605
v -2.61669354 44.60454583 105.62262297
v 9.29278745 45.28347731 101.99745655
v 10.23227183 45.01379728 62.65895605
v 9.29278745 45.25982022 62.65895605
v 9.29278745 45.28110981 104.39881325
v 9.29278745 45.25035739 105.62262297
v 0.87014778 45.99788904 62.65895605
v -1.35002570 45.46326399 105.62262297
v -0.25396066 45.96713662 105.62262297
v 0.70889337 46.07595563 105.62262297
v 7.88122399 45.56971550 104.39881325
v 7.73632838 45.56262016 62.65895605
v 7.84850551 45.57444692 101.99745655
v 7.81812413 45.55315733 105.62262297
v 8.50988372 45.41121840 105.62262297
v 2.09474964 46.11853838 62.65895605
v 2.09474964 46.18713856 105.62262297
v 6.61923034 45.73530793 105.62262297
v 7.26424976 45.60993075 62.65895605
v 4.49487431 45.98842621 105.62262297
v 5.56756927 45.87014794 105.62262297
v 3.03657068 46.02627754 62.65895605
f 1 2 6
f 1 6 14
f 1 14 22
f 1 22 32
f 1 32 38
f 1 38 44
f 1 44 51
f 1 51 60
f 1 60 66
f 1 66 63
f 1 63 56
f 1 56 48
f 1 48 47
f 1 47 43
f 1 43 40
f 1 40 35
f 1 35 26
f 1 26 24
f 1 24 16
f 1 16 9
f 1 9 3
f 1 3 10
f 1 10 19
f 1 19 20
f 1 20 12
f 1 12 11
f 1 11 4
f 1 4 5
f 1 5 2
f 2 5 7
f 2 7 8
f 2 8 6
f 3 9 10
f 4 11 5
f 5 11 12
f 5 12 13
f 5 13 21
f 5 21 20
f 5 20 19
f 5 19 30
f 5 30 29
f 5 29 28
f 5 28 34
f 5 34 37
f 5 37 36
f 5 36 42
f 5 42 50
f 5 50 59
f 5 59 58
f 5 58 62
f 5 62 65
f 5 65 64
f 5 64 61
f 5 61 54
f 5 54 53
f 5 53 52
f 5 52 45
f 5 45 39
f 5 39 33
f 5 33 23
f 5 23 15
f 5 15 8
f 5 8 7
f 6 8 15
f 6 15 14
f 9 16 10
f 10 17 18
f 10 18 19
f 10 16 17
f 12 20 21
f 12 21 13
f 14 15 22
f 15 23 32
f 15 32 22
f 16 24 17
f 17 25 18
f 17 24 26
f 17 26 25
f 18 27 28
f 18 28 29
f 18 29 30
f 18 30 19
f 18 25 31
f 18 31 27
f 23 33 32
f 25 34 31
f 25 26 34
f 26 35 36
f 26 36 37
f 26 37 34
f 27 31 34
f 27 34 28
f 32 33 38
f 33 39 38
f 35 40 36
f 36 41 42
f 36 40 43
f 36 43 41
f 38 39 45
f 38 45 44
f 41 46 42
f 41 43 47
f 41 47 48
f 41 48 46
f 42 46 49
f 42 49 50
f 44 45 52
f 44 52 53
f 44 53 54
f 44 54 51
f 46 55 49
f 46 48 55
f 48 56 57
f 48 57 55
f 49 55 58
f 49 58 59
f 49 59 50
f 51 54 60
f 54 61 60
f 55 62 58
f 55 57 62
f 56 63 64
f 56 64 65
f 56 65 62
f 56 62 57
f 60 61 64
f 60 64 66
f 63 66 64

