# https://github.com/mikedh/trimesh
v 46.41460402 18.17824960 31.47972822
v 46.41460402 18.64968538 31.45696521
v 42.49465211 18.17824960 34.83256459
v 46.41460402 18.17824960 19.18190539
v 46.41460402 19.42385495 31.28363371
v 41.87338455 19.51794505 34.83256459
v 41.65728970 18.17824960 34.83256459
v 41.65728970 18.17824960 16.94609642
v 46.41460402 18.65694880 19.18540657
v 46.41460402 19.93061543 30.69535732
v 41.65728970 19.91542876 34.83256459
v 41.65728970 20.28386056 17.95982659
v 46.41460402 19.23336625 19.19065833
v 46.41460402 20.50835431 29.99852657
v 41.65728970 20.44860005 34.05694842
v 41.65728970 21.25149250 20.40048122
v 46.41460402 21.36968136 22.80086875
v 46.41460402 20.87810755 21.67858601
v 46.41460402 20.31786561 20.40048122
v 46.41460402 19.81110513 19.83496428
v 46.41460402 20.92696667 28.87799621
v 46.41460402 21.36968136 27.59988964
v 41.65728970 20.94776630 31.83164477
v 41.65728970 21.54564321 22.80086875
v 41.65728970 21.55059457 25.20125449
v 41.65728970 21.54729366 27.59988964
v 41.65728970 21.38288677 29.68512833
f 1 2 3
f 1 3 7
f 1 7 8
f 1 8 4
f 1 4 9
f 1 9 13
f 1 13 20
f 1 20 19
f 1 19 18
f 1 18 17
f 1 17 22
f 1 22 21
f 1 21 14
f 1 14 10
f 1 10 5
f 1 5 2
f 2 5 3
f 3 6 11
f 3 11 7
f 3 5 6
f 4 8 9
f 5 10 11
f 5 11 6
f 7 11 15
f 7 15 23
f 7 23 27
f 7 27 26
f 7 26 25
f 7 25 24
f 7 24 16
f 7 16 12
f 7 12 8
f 8 12 13
f 8 13 9
f 10 14 11
f 11 14 15
f 12 16 17
f 12 17 18
f 12 18 19
f 12 19 20
f 12 20 13
f 14 21 15
f 15 21 22
f 15 22 23
f 16 24 17
f 17 24 25
f 17 25 22
f 22 25 26
f 22 26 27
f 22 27 23

