mtllib material.mtl
usemtl mtl_wheel
v 0.07620000 0.00000000 0.03950000
v 0.07576831 0.00809956 -0.03950000
v 0.07576831 0.00809956 0.03950000
v 0.07447814 0.01610736 -0.03950000
v 0.07447814 0.01610736 0.03950000
v 0.07234409 0.02393265 -0.03950000
v 0.07234409 0.02393265 0.03950000
v 0.06939037 0.03148677 -0.03950000
v 0.06939037 0.03148677 0.03950000
v 0.06565042 0.03868413 -0.03950000
v 0.06565042 0.03868413 0.03950000
v 0.06116663 0.04544319 -0.03950000
v 0.06116663 0.04544319 0.03950000
v 0.05598979 0.05168736 -0.03950000
v 0.05598979 0.05168736 0.03950000
v 0.05017857 0.05734589 -0.03950000
v 0.05017857 0.05734589 0.03950000
v 0.04379880 0.06235467 -0.03950000
v 0.04379880 0.06235467 0.03950000
v 0.03692278 0.06665695 -0.03950000
v 0.03692278 0.06665695 0.03950000
v 0.02962840 0.07020397 -0.03950000
v 0.02962840 0.07020397 0.03950000
v 0.02199833 0.07295556 -0.03950000
v 0.02199833 0.07295556 0.03950000
v 0.01411900 0.07488053 -0.03950000
v 0.01411900 0.07488053 0.03950000
v 0.00607970 0.07595707 -0.03950000
v 0.00607970 0.07595707 0.03950000
v -0.00202848 0.07617299 -0.03950000
v -0.00202848 0.07617299 0.03950000
v -0.01011369 0.07552584 -0.03950000
v -0.01011369 0.07552584 0.03950000
v -0.01808430 0.07402296 -0.03950000
v -0.01808430 0.07402296 0.03950000
v -0.02585000 0.07168136 -0.03950000
v -0.02585000 0.07168136 0.03950000
v -0.03332282 0.06852759 -0.03950000
v -0.03332282 0.06852759 0.03950000
v -0.04041807 0.06459736 -0.03950000
v -0.04041807 0.06459736 0.03950000
v -0.04705537 0.05993523 -0.03950000
v -0.04705537 0.05993523 0.03950000
v -0.05315952 0.05459400 -0.03950000
v -0.05315952 0.05459400 0.03950000
v -0.05866135 0.04863421 -0.03950000
v -0.05866135 0.04863421 0.03950000
v -0.06349852 0.04212337 -0.03950000
v -0.06349852 0.04212337 0.03950000
v -0.06761623 0.03513525 -0.03950000
v -0.06761623 0.03513525 0.03950000
v -0.07096782 0.02774904 -0.03950000
v -0.07096782 0.02774904 0.03950000
v -0.07351531 0.02004842 -0.03950000
v -0.07351531 0.02004842 0.03950000
v -0.07522985 0.01212064 -0.03950000
v -0.07522985 0.01212064 0.03950000
v -0.07609200 0.00405553 -0.03950000
v -0.07609200 0.00405553 0.03950000
v -0.07609200 -0.00405553 -0.03950000
v -0.07609200 -0.00405553 0.03950000
v -0.07522985 -0.01212064 -0.03950000
v -0.07522985 -0.01212064 0.03950000
v -0.07351531 -0.02004842 -0.03950000
v -0.07351531 -0.02004842 0.03950000
v -0.07096782 -0.02774904 -0.03950000
v -0.07096782 -0.02774904 0.03950000
v -0.06761623 -0.03513525 -0.03950000
v -0.06761623 -0.03513525 0.03950000
v -0.06349852 -0.04212337 -0.03950000
v -0.06349852 -0.04212337 0.03950000
v -0.05866135 -0.04863421 -0.03950000
v -0.05866135 -0.04863421 0.03950000
v -0.05315952 -0.05459400 -0.03950000
v -0.05315952 -0.05459400 0.03950000
v -0.04705537 -0.05993523 -0.03950000
v -0.04705537 -0.05993523 0.03950000
v -0.04041807 -0.06459736 -0.03950000
v -0.04041807 -0.06459736 0.03950000
v -0.03332282 -0.06852759 -0.03950000
v -0.03332282 -0.06852759 0.03950000
v -0.02585000 -0.07168136 -0.03950000
v -0.02585000 -0.07168136 0.03950000
v -0.01808430 -0.07402296 -0.03950000
v -0.01808430 -0.07402296 0.03950000
v -0.01011369 -0.07552584 -0.03950000
v -0.01011369 -0.07552584 0.03950000
v -0.00202848 -0.07617299 -0.03950000
v -0.00202848 -0.07617299 0.03950000
v 0.00607970 -0.07595707 -0.03950000
v 0.00607970 -0.07595707 0.03950000
v 0.01411900 -0.07488053 -0.03950000
v 0.01411900 -0.07488053 0.03950000
v 0.02199833 -0.07295556 -0.03950000
v 0.02199833 -0.07295556 0.03950000
v 0.02962840 -0.07020397 -0.03950000
v 0.02962840 -0.07020397 0.03950000
v 0.03692278 -0.06665695 -0.03950000
v 0.03692278 -0.06665695 0.03950000
v 0.04379880 -0.06235467 -0.03950000
v 0.04379880 -0.06235467 0.03950000
v 0.05017857 -0.05734589 -0.03950000
v 0.05017857 -0.05734589 0.03950000
v 0.05598979 -0.05168736 -0.03950000
v 0.05598979 -0.05168736 0.03950000
v 0.06116663 -0.04544319 -0.03950000
v 0.06116663 -0.04544319 0.03950000
v 0.06565042 -0.03868413 -0.03950000
v 0.06565042 -0.03868413 0.03950000
v 0.06939037 -0.03148677 -0.03950000
v 0.06939037 -0.03148677 0.03950000
v 0.07234409 -0.02393265 -0.03950000
v 0.07234409 -0.02393265 0.03950000
v 0.07447814 -0.01610736 -0.03950000
v 0.07447814 -0.01610736 0.03950000
v 0.07576831 -0.00809956 -0.03950000
v 0.07576831 -0.00809956 0.03950000
v 0.07620000 0.00000000 -0.03950000
v 0.00000000 0.00000000 -0.03950000
v 0.00000000 0.00000000 0.03950000
f 1 2 3
f 3 2 4
f 3 4 5
f 5 4 6
f 5 6 7
f 7 6 8
f 7 8 9
f 9 8 10
f 9 10 11
f 11 10 12
f 11 12 13
f 13 12 14
f 13 14 15
f 15 14 16
f 15 16 17
f 17 16 18
f 17 18 19
f 19 18 20
f 19 20 21
f 21 20 22
f 21 22 23
f 23 22 24
f 23 24 25
f 25 24 26
f 25 26 27
f 27 26 28
f 27 28 29
f 29 28 30
f 29 30 31
f 31 30 32
f 31 32 33
f 33 32 34
f 33 34 35
f 35 34 36
f 35 36 37
f 37 36 38
f 37 38 39
f 39 38 40
f 39 40 41
f 41 40 42
f 41 42 43
f 43 42 44
f 43 44 45
f 45 44 46
f 45 46 47
f 47 46 48
f 47 48 49
f 49 48 50
f 49 50 51
f 51 50 52
f 51 52 53
f 53 52 54
f 53 54 55
f 55 54 56
f 55 56 57
f 57 56 58
f 57 58 59
f 59 58 60
f 59 60 61
f 61 60 62
f 61 62 63
f 63 62 64
f 63 64 65
f 65 64 66
f 65 66 67
f 67 66 68
f 67 68 69
f 69 68 70
f 69 70 71
f 71 70 72
f 71 72 73
f 73 72 74
f 73 74 75
f 75 74 76
f 75 76 77
f 77 76 78
f 77 78 79
f 79 78 80
f 79 80 81
f 81 80 82
f 81 82 83
f 83 82 84
f 83 84 85
f 85 84 86
f 85 86 87
f 87 86 88
f 87 88 89
f 89 88 90
f 89 90 91
f 91 90 92
f 91 92 93
f 93 92 94
f 93 94 95
f 95 94 96
f 95 96 97
f 97 96 98
f 97 98 99
f 99 98 100
f 99 100 101
f 101 100 102
f 101 102 103
f 103 102 104
f 103 104 105
f 105 104 106
f 105 106 107
f 107 106 108
f 107 108 109
f 109 108 110
f 109 110 111
f 111 110 112
f 111 112 113
f 113 112 114
f 113 114 115
f 115 114 116
f 115 116 117
f 117 116 118
f 117 118 1
f 1 118 2
f 118 116 119
f 118 119 2
f 8 6 119
f 119 6 4
f 119 4 2
f 14 12 119
f 119 12 10
f 119 10 8
f 20 18 119
f 119 18 16
f 119 16 14
f 26 24 119
f 119 24 22
f 119 22 20
f 32 30 119
f 119 30 28
f 119 28 26
f 38 36 119
f 119 36 34
f 119 34 32
f 44 42 119
f 119 42 40
f 119 40 38
f 50 48 119
f 119 48 46
f 119 46 44
f 56 54 119
f 119 54 52
f 119 52 50
f 62 60 119
f 119 60 58
f 119 58 56
f 68 66 119
f 119 66 64
f 119 64 62
f 74 72 119
f 119 72 70
f 119 70 68
f 80 78 119
f 119 78 76
f 119 76 74
f 86 84 119
f 119 84 82
f 119 82 80
f 92 90 119
f 119 90 88
f 119 88 86
f 98 96 119
f 119 96 94
f 119 94 92
f 104 102 119
f 119 102 100
f 119 100 98
f 110 108 119
f 119 108 106
f 119 106 104
f 116 114 119
f 119 114 112
f 119 112 110
f 1 3 120
f 1 120 117
f 111 113 120
f 120 113 115
f 120 115 117
f 105 107 120
f 120 107 109
f 120 109 111
f 99 101 120
f 120 101 103
f 120 103 105
f 93 95 120
f 120 95 97
f 120 97 99
f 87 89 120
f 120 89 91
f 120 91 93
f 81 83 120
f 120 83 85
f 120 85 87
f 75 77 120
f 120 77 79
f 120 79 81
f 69 71 120
f 120 71 73
f 120 73 75
f 63 65 120
f 120 65 67
f 120 67 69
f 57 59 120
f 120 59 61
f 120 61 63
f 51 53 120
f 120 53 55
f 120 55 57
f 45 47 120
f 120 47 49
f 120 49 51
f 39 41 120
f 120 41 43
f 120 43 45
f 33 35 120
f 120 35 37
f 120 37 39
f 27 29 120
f 120 29 31
f 120 31 33
f 21 23 120
f 120 23 25
f 120 25 27
f 15 17 120
f 120 17 19
f 120 19 21
f 9 11 120
f 120 11 13
f 120 13 15
f 3 5 120
f 120 5 7
f 120 7 9

