mtllib material.mtl
usemtl mtl_rocker
v 0.00635000 0.01732352 -0.06000000
v 0.00434366 0.01825910 -0.06000000
v 0.23621251 0.02750000 -0.06000000
v 0.00816340 0.01605376 -0.06000000
v -0.01099852 0.01267500 -0.06000000
v -0.01193410 0.01066866 -0.06000000
v -0.23621251 0.02750000 -0.06000000
v -0.00635000 -0.00467352 -0.06000000
v -0.00434366 -0.00560910 -0.06000000
v -0.23621251 -0.02750000 -0.06000000
v 0.01250706 0.00853033 -0.06000000
v 0.01193410 0.01066866 -0.06000000
v -0.01250706 0.00853033 -0.06000000
v -0.01270000 0.00632500 -0.06000000
v 0.01099852 0.01267500 -0.06000000
v 0.00972876 0.01448840 -0.06000000
v 0.23621251 -0.02750000 -0.06000000
v 0.00972876 -0.00183840 -0.06000000
v 0.01099852 -0.00002500 -0.06000000
v -0.01250706 0.00411967 -0.06000000
v -0.01193410 0.00198134 -0.06000000
v -0.01099852 -0.00002500 -0.06000000
v 0.00434366 -0.00560910 -0.06000000
v 0.00635000 -0.00467352 -0.06000000
v 0.00816340 -0.00340376 -0.06000000
v -0.00434366 0.01825910 -0.06000000
v -0.00635000 0.01732352 -0.06000000
v -0.00816340 0.01605376 -0.06000000
v -0.00972876 0.01448840 -0.06000000
v -0.00972876 -0.00183840 -0.06000000
v -0.00816340 -0.00340376 -0.06000000
v 0.01193410 0.00198134 -0.06000000
v 0.01250706 0.00411967 -0.06000000
v 0.01270000 0.00632500 -0.06000000
v 0.00220533 0.01883206 -0.06000000
v 0.00000000 0.01902500 -0.06000000
v -0.00220533 0.01883206 -0.06000000
v -0.00220533 -0.00618206 -0.06000000
v 0.00000000 -0.00637500 -0.06000000
v 0.00220533 -0.00618206 -0.06000000
v 0.23621251 0.02750000 0.06000000
v -0.23621251 0.02750000 0.06000000
v 0.01193410 0.01066866 0.06000000
v 0.01099852 0.01267500 0.06000000
v 0.00972876 0.01448840 0.06000000
v 0.00972876 -0.00183840 0.06000000
v 0.23621251 -0.02750000 0.06000000
v 0.01099852 -0.00002500 0.06000000
v 0.01193410 0.00198134 0.06000000
v -0.01270000 0.00632500 0.06000000
v -0.01250706 0.00853033 0.06000000
v 0.01250706 0.00853033 0.06000000
v 0.01270000 0.00632500 0.06000000
v 0.01250706 0.00411967 0.06000000
v 0.00816340 -0.00340376 0.06000000
v 0.00635000 -0.00467352 0.06000000
v 0.00434366 -0.00560910 0.06000000
v -0.01250706 0.00411967 0.06000000
v -0.23621251 -0.02750000 0.06000000
v -0.01193410 0.00198134 0.06000000
v -0.01193410 0.01066866 0.06000000
v -0.01099852 0.01267500 0.06000000
v -0.00972876 0.01448840 0.06000000
v 0.00434366 0.01825910 0.06000000
v 0.00635000 0.01732352 0.06000000
v 0.00816340 0.01605376 0.06000000
v -0.00816340 -0.00340376 0.06000000
v -0.00635000 -0.00467352 0.06000000
v -0.00434366 -0.00560910 0.06000000
v 0.00220533 -0.00618206 0.06000000
v 0.00000000 -0.00637500 0.06000000
v -0.00220533 -0.00618206 0.06000000
v -0.00972876 -0.00183840 0.06000000
v -0.01099852 -0.00002500 0.06000000
v -0.00434366 0.01825910 0.06000000
v -0.00220533 0.01883206 0.06000000
v 0.00000000 0.01902500 0.06000000
v 0.00220533 0.01883206 0.06000000
v -0.00816340 0.01605376 0.06000000
v -0.00635000 0.01732352 0.06000000
f 1 2 3
f 1 3 4
f 5 6 7
f 8 9 10
f 11 12 3
f 6 13 7
f 7 13 14
f 7 14 10
f 12 15 3
f 3 15 16
f 3 16 4
f 17 18 19
f 14 20 10
f 10 20 21
f 10 21 22
f 23 24 17
f 17 24 25
f 17 25 18
f 26 27 7
f 27 28 7
f 7 28 29
f 7 29 5
f 22 30 10
f 10 30 31
f 10 31 8
f 19 32 17
f 17 32 33
f 17 33 3
f 3 33 34
f 3 34 11
f 2 35 3
f 3 35 36
f 3 36 7
f 7 36 37
f 7 37 26
f 9 38 10
f 10 38 39
f 10 39 17
f 17 39 40
f 17 40 23
f 41 3 42
f 42 3 7
f 43 41 44
f 44 41 45
f 46 47 48
f 48 47 49
f 42 50 51
f 43 52 41
f 41 52 53
f 41 53 47
f 47 53 54
f 47 54 49
f 46 55 47
f 47 55 56
f 47 56 57
f 50 42 58
f 58 42 59
f 58 59 60
f 51 61 42
f 42 61 62
f 42 62 63
f 64 65 41
f 41 65 66
f 41 66 45
f 67 59 68
f 68 59 69
f 57 70 47
f 47 70 71
f 47 71 59
f 59 71 72
f 59 72 69
f 67 73 59
f 59 73 74
f 59 74 60
f 75 76 42
f 42 76 77
f 42 77 41
f 41 77 78
f 41 78 64
f 63 79 42
f 42 79 80
f 42 80 75
f 17 47 10
f 10 47 59
f 41 47 3
f 3 47 17
f 59 42 10
f 10 42 7
f 50 14 51
f 51 14 13
f 51 13 61
f 61 13 6
f 61 6 62
f 62 6 5
f 62 5 63
f 63 5 29
f 63 29 79
f 79 29 28
f 79 28 80
f 80 28 27
f 80 27 75
f 75 27 26
f 75 26 76
f 76 26 37
f 76 37 77
f 77 37 36
f 77 36 78
f 78 36 35
f 78 35 64
f 64 35 2
f 64 2 65
f 65 2 1
f 65 1 66
f 66 1 4
f 66 4 45
f 45 4 16
f 45 16 44
f 44 16 15
f 44 15 43
f 43 15 12
f 43 12 52
f 52 12 11
f 52 11 53
f 53 11 34
f 53 34 54
f 54 34 33
f 54 33 49
f 49 33 32
f 49 32 48
f 48 32 19
f 48 19 46
f 46 19 18
f 46 18 55
f 55 18 25
f 55 25 56
f 56 25 24
f 56 24 57
f 57 24 23
f 57 23 70
f 70 23 40
f 70 40 71
f 71 40 39
f 71 39 72
f 72 39 38
f 72 38 69
f 69 38 9
f 69 9 68
f 68 9 8
f 68 8 67
f 67 8 31
f 67 31 73
f 73 31 30
f 73 30 74
f 74 30 22
f 74 22 60
f 60 22 21
f 60 21 58
f 58 21 20
f 58 20 50
f 50 20 14

