# https://github.com/mikedh/trimesh
v 121.97716359 14.15967760 119.42204403
v 121.96557121 16.57380092 119.42204403
v 121.30476257 16.57380092 121.30853081
v 121.97716359 2.09773732 119.42204403
v 121.97716359 14.15967760 -119.42204403
v 121.30476257 18.44349961 119.42204403
v 121.08449302 18.22225923 121.06973647
v 121.96557121 16.57380092 -119.42204403
v 119.43826041 16.57380092 121.95328847
v 121.30476257 2.09773732 121.30853081
v 121.08449302 0.19116523 121.06973647
v 121.30476257 -0.16021611 119.42204403
v 121.97716359 2.09773732 -119.42204403
v 121.30476257 16.57380092 -121.30853081
v 119.43826041 19.10504895 119.42204403
v 121.30476257 18.44349961 -119.42204403
v 119.43826041 18.44349961 121.30853081
v 121.08449302 18.22225923 -121.06973647
v 119.43826041 2.09773732 121.95328847
v 3.54109366 18.38276547 121.33242031
v 3.54109366 16.57380092 121.95328847
v 119.43826041 -1.24038547 119.42204403
v 119.43826041 -0.16021611 121.30853081
v 119.43826041 -1.26858256 117.01020395
v 121.30476257 -0.16021611 -119.42204403
v 121.08449302 0.19116523 -121.06973647
v 121.30476257 2.09773732 -121.30853081
v 119.43826041 16.57380092 -121.95328847
v 52.32525752 20.82942583 112.18651660
v 52.30206917 20.82942583 113.02230397
v 51.94268031 20.82942583 114.71775385
v 51.66444169 20.82942583 115.60130584
v 51.11956401 20.82942583 116.24605631
v 49.47333140 20.82942583 116.72364499
v 119.43826041 19.10504895 -119.42204403
v 3.54109366 18.44349961 121.30853081
v 119.43826041 18.44349961 -121.30853081
v 3.54109366 2.02399053 121.95328847
v 117.02687338 -1.26858256 119.42204403
v 117.02687338 -1.32714852 117.01020395
v 3.54109366 -0.16021611 121.30853081
v 119.43826041 -1.26858256 -117.01020395
v 119.43826041 -1.24038547 -119.42204403
v 119.43826041 -0.16021611 -121.30853081
v 119.43826041 2.09773732 -121.95328847
v 3.54109366 16.63453505 -121.95328847
v 52.32525752 20.82942583 61.51393509
v 4.50332928 20.83159401 35.93884640
v 3.54109366 20.82942583 116.72364499
v 3.54109366 19.10504895 -119.42204403
v 3.62224749 20.82942583 -52.12923704
v 4.42217545 20.82942583 -52.10535833
v 6.83356247 20.82942583 -51.93820013
v 9.24494590 20.82942583 -51.72328451
v 10.92595924 20.82942583 -51.55612631
v 11.91137961 20.82942583 -51.34121069
v 16.49069217 20.82942583 -49.81291542
v 18.98322943 20.82942583 -48.92936701
v 24.72185881 20.82942583 -46.35036874
v 28.64035913 20.82942583 -44.22508043
v 30.84306540 20.82942583 -42.48186594
v 31.95601270 20.82942583 -41.55056010
v 34.57607690 20.82942583 -39.30587462
v 36.16434043 20.82942583 -37.80145807
v 36.96427198 20.82942583 -36.98955300
v 40.85958396 20.82942583 -32.81061612
v 41.62473837 20.82942583 -31.97482874
v 43.31734409 20.82942583 -29.99281811
v 45.92581231 20.82942583 -25.19301307
v 48.70817698 20.82942583 -19.74845577
v 49.33421209 20.82942583 -18.07688281
v 51.36301831 20.82942583 -10.81747397
v 51.78037625 20.82942583 -8.42951081
v 52.03542652 20.82942583 -6.01766758
v 52.20932296 20.82942583 -3.60582458
v 52.22091894 20.82942583 -2.79391704
v 52.23251131 20.82942583 -1.19398169
v 3.54109366 18.44349961 -121.30853081
v 3.54109366 -1.26858256 119.42204403
v 3.54109366 -1.27075433 119.35040429
v 3.54109366 -1.32714852 117.01020395
v 117.02687338 -1.32714852 -117.01020395
v 117.02687338 -1.26858256 -119.42204403
v 3.54109366 -1.23387734 -119.49368377
v 3.54109366 -0.16021611 -121.30853081
v 3.54109366 -0.08646932 -121.33242031
v 3.54109366 2.09773732 -121.95328847
v 3.54109366 20.82942583 -52.12923704
v 3.54109366 -1.32714852 -117.01020395
v 3.54109366 -1.32497674 -117.10571881
v 3.54109366 -1.26858256 -119.42204403
f 1 2 3
f 1 3 10
f 1 10 4
f 1 4 13
f 1 13 5
f 1 5 8
f 1 8 2
f 2 6 7
f 2 7 3
f 2 8 16
f 2 16 6
f 3 9 19
f 3 19 10
f 3 7 9
f 4 10 11
f 4 11 12
f 4 12 25
f 4 25 13
f 5 13 27
f 5 27 14
f 5 14 8
f 6 15 7
f 6 16 35
f 6 35 15
f 7 15 17
f 7 17 9
f 8 14 18
f 8 18 16
f 9 17 20
f 9 20 21
f 9 21 38
f 9 38 19
f 10 19 11
f 11 22 12
f 11 19 23
f 11 23 22
f 12 22 24
f 12 24 42
f 12 42 25
f 13 25 26
f 13 26 27
f 14 27 45
f 14 45 28
f 14 28 18
f 15 29 30
f 15 30 31
f 15 31 32
f 15 32 33
f 15 33 34
f 15 34 17
f 15 35 47
f 15 47 29
f 16 18 35
f 17 34 49
f 17 49 36
f 17 36 20
f 18 28 37
f 18 37 35
f 19 38 23
f 20 36 49
f 20 49 88
f 20 88 50
f 20 50 78
f 20 78 46
f 20 46 87
f 20 87 86
f 20 86 85
f 20 85 84
f 20 84 91
f 20 91 90
f 20 90 89
f 20 89 81
f 20 81 80
f 20 80 79
f 20 79 41
f 20 41 38
f 20 38 21
f 22 23 39
f 22 39 40
f 22 40 24
f 23 41 79
f 23 79 39
f 23 38 41
f 24 40 82
f 24 82 42
f 25 42 43
f 25 43 26
f 26 44 45
f 26 45 27
f 26 43 44
f 28 45 87
f 28 87 46
f 28 46 37
f 29 47 48
f 29 48 30
f 30 48 31
f 31 48 32
f 32 48 33
f 33 48 34
f 34 48 49
f 35 37 78
f 35 78 50
f 35 50 88
f 35 88 51
f 35 51 52
f 35 52 53
f 35 53 54
f 35 54 55
f 35 55 56
f 35 56 57
f 35 57 58
f 35 58 59
f 35 59 60
f 35 60 61
f 35 61 62
f 35 62 63
f 35 63 64
f 35 64 65
f 35 65 66
f 35 66 67
f 35 67 68
f 35 68 69
f 35 69 70
f 35 70 71
f 35 71 72
f 35 72 73
f 35 73 74
f 35 74 75
f 35 75 76
f 35 76 77
f 35 77 47
f 37 46 78
f 39 79 80
f 39 80 40
f 40 80 81
f 40 81 89
f 40 89 82
f 42 82 43
f 43 83 44
f 43 82 83
f 44 83 84
f 44 84 85
f 44 85 86
f 44 86 45
f 45 86 87
f 47 77 48
f 48 77 76
f 48 76 75
f 48 75 74
f 48 74 73
f 48 73 72
f 48 72 71
f 48 71 70
f 48 70 69
f 48 69 68
f 48 68 67
f 48 67 66
f 48 66 65
f 48 65 64
f 48 64 63
f 48 63 62
f 48 62 61
f 48 61 60
f 48 60 59
f 48 59 58
f 48 58 57
f 48 57 56
f 48 56 55
f 48 55 54
f 48 54 53
f 48 53 52
f 48 52 51
f 48 51 88
f 48 88 49
f 82 89 90
f 82 90 83
f 83 90 91
f 83 91 84

