# https://github.com/mikedh/trimesh
v -21.37819153 20.83805899 -29.00624354
v -21.37819153 25.26722078 -29.37584404
v -34.94427870 20.83154367 -7.73284904
v -21.38713571 20.83154367 -28.99846255
v -21.37819153 20.83154367 -31.06044044
v -21.37819153 25.26722078 -47.17110832
v -35.56444211 25.26722078 -7.73284904
v -51.83778080 20.83154367 -7.73284904
v -21.37819153 20.83154367 -47.47846093
v -22.92561926 20.83154367 -46.98825511
v -24.72051763 20.83154367 -46.36187842
v -21.96555901 25.26722078 -46.92211672
v -51.20270983 25.26722078 -7.73284904
v -51.66485159 20.83154367 -9.23848272
v -25.54342719 20.83154367 -45.88723817
v -25.51659285 25.26722078 -45.38146679
v -24.31204455 25.26722078 -45.92225262
v -22.92561926 25.26722078 -46.51361127
v -50.51397017 25.26722078 -11.25377469
v -49.63739374 25.26722078 -15.68508309
v -51.31004719 20.83154367 -10.79858332
v -29.97998344 20.83154367 -43.11718142
v -27.57684843 25.26722078 -44.17540652
v -51.15798713 20.83154367 -11.42495822
v -49.33327362 25.26722078 -16.64604405
v -49.14543684 20.83154367 -18.82473856
v -49.34818119 20.83154367 -18.10110132
v -31.87625398 20.83154367 -41.51039309
v -36.86737999 25.26722078 -36.74838913
v -36.28299690 25.26722078 -37.23081755
v -35.39150930 25.26722078 -37.95834349
v -30.16483942 25.26722078 -42.17956522
v -28.78437932 25.26722078 -43.29225723
v -48.86517027 25.26722078 -18.10110132
v -48.72801778 20.83154367 -19.80515198
v -32.70810772 20.83154367 -40.79842913
v -37.05522036 20.83154367 -36.97015087
v -37.59488076 25.26722078 -36.07922060
v -48.63856878 25.26722078 -18.60686911
v -48.29271036 25.26722078 -19.37719407
v -47.25810868 25.26722078 -21.51698184
v -45.91640609 25.26722078 -24.27925581
v -45.68384661 25.26722078 -24.75779015
v -46.34873272 20.83154367 -24.68387076
v -37.86918574 20.83154367 -36.21149739
v -38.07193008 25.26722078 -35.63959120
v -45.32605781 25.26722078 -25.48531788
v -44.16623401 20.83154367 -28.51603772
v -39.34505643 20.83154367 -34.62416513
v -38.69805868 25.26722078 -34.91206167
v -44.11853052 25.26722078 -27.58231202
v -43.31052673 25.26722078 -28.78448359
v -42.90503444 25.26722078 -29.33304861
v -40.85372304 25.26722078 -32.10310357
v -40.31406265 25.26722078 -32.83063310
v -39.10951256 25.26722078 -34.43352734
v -42.49954215 20.83154367 -30.71418650
v -41.56631625 20.83154367 -31.94358973
f 1 2 3
f 1 3 4
f 1 4 5
f 1 5 9
f 1 9 6
f 1 6 2
f 2 6 12
f 2 12 18
f 2 18 17
f 2 17 16
f 2 16 23
f 2 23 33
f 2 33 32
f 2 32 31
f 2 31 30
f 2 30 29
f 2 29 38
f 2 38 46
f 2 46 50
f 2 50 56
f 2 56 55
f 2 55 54
f 2 54 53
f 2 53 52
f 2 52 51
f 2 51 47
f 2 47 43
f 2 43 42
f 2 42 41
f 2 41 40
f 2 40 39
f 2 39 34
f 2 34 25
f 2 25 20
f 2 20 19
f 2 19 13
f 2 13 7
f 2 7 3
f 3 7 13
f 3 13 8
f 3 8 14
f 3 14 21
f 3 21 24
f 3 24 27
f 3 27 26
f 3 26 35
f 3 35 44
f 3 44 48
f 3 48 57
f 3 57 58
f 3 58 49
f 3 49 45
f 3 45 37
f 3 37 36
f 3 36 28
f 3 28 22
f 3 22 15
f 3 15 11
f 3 11 10
f 3 10 9
f 3 9 5
f 3 5 4
f 6 9 10
f 6 10 11
f 6 11 12
f 8 13 14
f 11 15 16
f 11 16 17
f 11 17 18
f 11 18 12
f 13 19 14
f 14 19 20
f 14 20 21
f 15 22 23
f 15 23 16
f 20 24 21
f 20 25 26
f 20 26 27
f 20 27 24
f 22 28 29
f 22 29 30
f 22 30 31
f 22 31 32
f 22 32 33
f 22 33 23
f 25 34 26
f 26 34 35
f 28 36 29
f 29 37 38
f 29 36 37
f 34 39 35
f 35 39 40
f 35 40 41
f 35 41 42
f 35 42 43
f 35 43 44
f 37 45 46
f 37 46 38
f 43 47 44
f 44 47 48
f 45 49 46
f 46 49 50
f 47 51 48
f 48 51 52
f 48 52 53
f 48 53 54
f 48 54 55
f 48 55 56
f 48 56 57
f 49 58 56
f 49 56 50
f 56 58 57

