v 120.65000900 -0.00000000 -120.65000900
v 120.65000900 -0.00000000 -120.65000900
v 120.65000900 -0.00000000 -120.65000900
v 120.65000900 0.00000000 120.65000900
v 120.65000900 0.00000000 120.65000900
v 120.65000900 0.00000000 120.65000900
v 120.65000900 17.78000300 -120.65000900
v 120.65000900 17.78000300 -120.65000900
v 120.65000900 17.78000300 -120.65000900
v 120.65000900 17.78000300 -120.65000900
v 120.65000900 17.78000300 -120.65000900
v -120.65000900 0.00000000 120.65000900
v -120.65000900 0.00000000 120.65000900
v -120.65000900 0.00000000 120.65000900
v -120.65000900 -0.00000000 -120.65000900
v -120.65000900 -0.00000000 -120.65000900
v -120.65000900 -0.00000000 -120.65000900
v 41.54902300 17.77998500 -29.43388900
v 41.54902300 17.77998500 -29.43388900
v 41.54902300 17.77998500 -29.43388900
v 41.54902300 17.77998500 -29.43388900
v 50.80775500 17.77999900 -3.33697500
v 50.80775500 17.77999900 -3.33697500
v 50.80775500 17.77999900 -3.33697500
v 50.80775500 17.77999900 -3.33697500
v 45.48325000 17.78004800 22.89194700
v 45.48325000 17.78004800 22.89194700
v 45.48325000 17.78004800 22.89194700
v 45.48325000 17.78004800 22.89194700
v 45.48325000 17.78004800 22.89194700
v 34.61227000 17.78002700 -37.20496700
v 34.61227000 17.78002700 -37.20496700
v 34.61227000 17.78002700 -37.20496700
v 0.37562900 17.78003700 -50.92649800
v 0.37562900 17.78003700 -50.92649800
v 0.37562900 17.78003700 -50.92649800
v 0.37562900 17.78003700 -50.92649800
v 0.37562900 17.78003700 -50.92649800
v 49.89404300 17.78029300 10.15440800
v 49.89404300 17.78029300 10.15440800
v 49.89404300 17.78029300 10.15440800
v 49.89404300 17.78029300 10.15440800
v 48.00299500 17.77995500 -16.98208600
v 48.00299500 17.77995500 -16.98208600
v 48.00299500 17.77995500 -16.98208600
v 48.00299500 17.77995500 -16.98208600
v 48.00299500 17.77995500 -16.98208600
v 26.49557100 17.78026000 -43.48220100
v 26.49557100 17.78026000 -43.48220100
v 26.49557100 17.78026000 -43.48220100
v 26.49557100 17.78026000 -43.48220100
v 26.49557100 17.78026000 -43.48220100
v 14.25300700 17.78302400 -48.88668400
v 14.25300700 17.78302400 -48.88668400
v 14.25300700 17.78302400 -48.88668400
v 14.25300700 17.78302400 -48.88668400
v 14.25300700 17.78302400 -48.88668400
v -120.65000900 17.78000300 -120.65000900
v -120.65000900 17.78000300 -120.65000900
v -120.65000900 17.78000300 -120.65000900
v -13.25994800 17.78006200 -49.17293500
v -13.25994800 17.78006200 -49.17293500
v -13.25994800 17.78006200 -49.17293500
v -13.25994800 17.78006200 -49.17293500
v -13.25994800 17.78006200 -49.17293500
v -26.22876500 17.78074600 -43.64370700
v -26.22876500 17.78074600 -43.64370700
v -26.22876500 17.78074600 -43.64370700
v -26.22876500 17.78074600 -43.64370700
v -26.22876500 17.78074600 -43.64370700
v -58.41999800 17.78000300 -50.79999900
v -58.41999800 17.78000300 -50.79999900
v -58.41999800 17.78000300 -50.79999900
v -58.41999800 17.78000300 -50.79999900
v -58.41999800 17.78000300 -50.79999900
v -37.17442300 17.78035400 -34.80692300
v -37.17442300 17.78035400 -34.80692300
v -37.17442300 17.78035400 -34.80692300
v -37.17442300 17.78035400 -34.80692300
v -37.17442300 17.78035400 -34.80692300
v -43.42798600 17.78004500 -26.36283300
v -43.42798600 17.78004500 -26.36283300
v -43.42798600 17.78004500 -26.36283300
v -43.42798600 17.78004500 -26.36283300
v -48.07214700 17.78034600 -16.78362700
v -48.07214700 17.78034600 -16.78362700
v -48.07214700 17.78034600 -16.78362700
v -48.07214700 17.78034600 -16.78362700
v -50.84605800 17.78040500 -2.56590700
v -50.84605800 17.78040500 -2.56590700
v -50.84605800 17.78040500 -2.56590700
v -50.84605800 17.78040500 -2.56590700
v -50.84605800 17.78040500 -2.56590700
v -50.32906000 17.78008500 6.90725000
v -50.32906000 17.78008500 6.90725000
v -50.32906000 17.78008500 6.90725000
v -50.32906000 17.78008500 6.90725000
v -50.32906000 17.78008500 6.90725000
v -47.99474000 17.78702200 17.03107800
v -47.99474000 17.78702200 17.03107800
v -47.99474000 17.78702200 17.03107800
v -47.99474000 17.78702200 17.03107800
v -47.99474000 17.78702200 17.03107800
v -43.42112400 17.78002000 26.37286600
v -43.42112400 17.78002000 26.37286600
v -43.42112400 17.78002000 26.37286600
v -43.42112400 17.78002000 26.37286600
v -43.42112400 17.78002000 26.37286600
v -37.25204100 17.78096600 34.72612000
v -37.25204100 17.78096600 34.72612000
v -37.25204100 17.78096600 34.72612000
v -37.25204100 17.78096600 34.72612000
v -37.25204100 17.78096600 34.72612000
v -26.64541100 17.78019700 43.39013300
v -26.64541100 17.78019700 43.39013300
v -26.64541100 17.78019700 43.39013300
v -26.64541100 17.78019700 43.39013300
v -26.64541100 17.78019700 43.39013300
v 120.65000900 17.78000300 120.65000900
v 120.65000900 17.78000300 120.65000900
v 120.65000900 17.78000300 120.65000900
v -120.65000900 17.78000300 120.65000900
v -120.65000900 17.78000300 120.65000900
v -120.65000900 17.78000300 120.65000900
v -116.83999600 17.78000300 50.79999900
v -116.83999600 17.78000300 50.79999900
v -116.83999600 17.78000300 50.79999900
v 50.79999900 17.78000300 116.83999600
v 50.79999900 17.78000300 116.83999600
v 50.79999900 17.78000300 116.83999600
v -16.89563200 17.78022600 47.92362600
v -16.89563200 17.78022600 47.92362600
v -16.89563200 17.78022600 47.92362600
v -16.89563200 17.78022600 47.92362600
v -6.62858000 17.78035000 50.49578900
v -6.62858000 17.78035000 50.49578900
v -6.62858000 17.78035000 50.49578900
v -6.62858000 17.78035000 50.49578900
v -6.62858000 17.78035000 50.49578900
v 50.79999900 17.78000300 58.41999800
v 50.79999900 17.78000300 58.41999800
v 50.79999900 17.78000300 58.41999800
v 50.79999900 17.78000300 58.41999800
v 50.79999900 17.78000300 58.41999800
v 50.79999900 17.78000300 58.41999800
v 50.79999900 17.78000300 58.41999800
v 3.67508500 17.78037500 50.67917600
v 3.67508500 17.78037500 50.67917600
v 3.67508500 17.78037500 50.67917600
v 3.67508500 17.78037500 50.67917600
v 13.82739600 17.78194400 49.01570100
v 13.82739600 17.78194400 49.01570100
v 13.82739600 17.78194400 49.01570100
v 13.82739600 17.78194400 49.01570100
v 13.82739600 17.78194400 49.01570100
v 26.70608700 17.78018000 43.35171100
v 26.70608700 17.78018000 43.35171100
v 26.70608700 17.78018000 43.35171100
v 26.70608700 17.78018000 43.35171100
v 26.70608700 17.78018000 43.35171100
v 26.70608700 17.78018000 43.35171100
v 37.31238200 17.78086900 34.66605000
v 37.31238200 17.78086900 34.66605000
v 37.31238200 17.78086900 34.66605000
v 37.31238200 17.78086900 34.66605000
v 37.31238200 17.78086900 34.66605000
v 42.74351900 132.07850600 17.78100600
v 42.74351900 132.07850600 17.78100600
v 42.74351900 132.07850600 17.78100600
v 42.74351900 132.07850600 17.78100600
v 42.74351900 132.07850600 17.78100600
v 42.74351900 132.07850600 17.78100600
v 42.74351900 132.07850600 17.78100600
v 42.74351900 132.07850600 17.78100600
v 42.74351900 132.07850600 17.78100600
v 50.80228400 132.08038300 3.42678500
v 50.80228400 132.08038300 3.42678500
v 50.80228400 132.08038300 3.42678500
v 50.80228400 132.08038300 3.42678500
v 50.80228400 132.08038300 3.42678500
v 50.32909400 132.07986500 -6.90662300
v 50.32909400 132.07986500 -6.90662300
v 50.32909400 132.07986500 -6.90662300
v 50.32909400 132.07986500 -6.90662300
v 50.32909400 132.07986500 -6.90662300
v 48.07330700 132.08255000 16.77622600
v 48.07330700 132.08255000 16.77622600
v 48.07330700 132.08255000 16.77622600
v 48.07330700 132.08255000 16.77622600
v 48.07330700 132.08255000 16.77622600
v 45.65055800 132.07869000 -6.00302200
v 45.65055800 132.07869000 -6.00302200
v 45.65055800 132.07869000 -6.00302200
v 45.65055800 132.07869000 -6.00302200
v 45.65055800 132.07869000 -6.00302200
v 45.65055800 132.07869000 -6.00302200
v 45.65055800 132.07869000 -6.00302200
v 47.98542400 132.08044400 -17.03597800
v 47.98542400 132.08044400 -17.03597800
v 47.98542400 132.08044400 -17.03597800
v 47.98542400 132.08044400 -17.03597800
v 47.98542400 132.08044400 -17.03597800
v 39.97485700 132.07991000 -22.42543400
v 39.97485700 132.07991000 -22.42543400
v 39.97485700 132.07991000 -22.42543400
v 39.97485700 132.07991000 -22.42543400
v 39.97485700 132.07991000 -22.42543400
v 41.74228700 132.07762100 -29.16095400
v 41.74228700 132.07762100 -29.16095400
v 41.74228700 132.07762100 -29.16095400
v 41.74228700 132.07762100 -29.16095400
v 41.74228700 132.07762100 -29.16095400
v 41.74228700 132.07762100 -29.16095400
v 43.43360500 132.07731600 26.35160100
v 43.43360500 132.07731600 26.35160100
v 43.43360500 132.07731600 26.35160100
v 43.43360500 132.07731600 26.35160100
v 43.43360500 132.07731600 26.35160100
v 36.80594600 132.07667500 35.21204400
v 36.80594600 132.07667500 35.21204400
v 36.80594600 132.07667500 35.21204400
v 36.80594600 132.07667500 35.21204400
v 36.80594600 132.07667500 35.21204400
v 36.80594600 132.07667500 35.21204400
v 29.58093500 132.07942200 35.16046100
v 29.58093500 132.07942200 35.16046100
v 29.58093500 132.07942200 35.16046100
v 29.58093500 132.07942200 35.16046100
v 29.58093500 132.07942200 35.16046100
v 29.58093500 132.07942200 35.16046100
v 33.03594600 122.09544400 19.02197500
v 33.03594600 122.09544400 19.02197500
v 33.03594600 122.09544400 19.02197500
v 33.03594600 122.09544400 19.02197500
v 37.02206000 122.13322400 9.59058500
v 37.02206000 122.13322400 9.59058500
v 37.02206000 122.13322400 9.59058500
v 37.02206000 122.13322400 9.59058500
v 37.02206000 122.13322400 9.59058500
v 37.02206000 122.13322400 9.59058500
v 38.09436800 122.20883200 -3.37618700
v 38.09436800 122.20883200 -3.37618700
v 38.09436800 122.20883200 -3.37618700
v 38.09436800 122.20883200 -3.37618700
v 38.09436800 122.20883200 -3.37618700
v 38.09436800 122.20883200 -3.37618700
v 34.67223000 122.00067100 -16.17845200
v 34.67223000 122.00067100 -16.17845200
v 34.67223000 122.00067100 -16.17845200
v 34.67223000 122.00067100 -16.17845200
v 34.67223000 122.00067100 -16.17845200
v 34.67223000 122.00067100 -16.17845200
v 34.67223000 122.00067100 -16.17845200
v 29.97942000 132.07931500 -34.88237000
v 29.97942000 132.07931500 -34.88237000
v 29.97942000 132.07931500 -34.88237000
v 29.97942000 132.07931500 -34.88237000
v 29.97942000 132.07931500 -34.88237000
v 29.97942000 132.07931500 -34.88237000
v 29.97942000 132.07931500 -34.88237000
v 32.15155400 132.07829300 -39.50087700
v 32.15155400 132.07829300 -39.50087700
v 32.15155400 132.07829300 -39.50087700
v 32.15155400 132.07829300 -39.50087700
v 32.15155400 132.07829300 -39.50087700
v 32.15155400 132.07829300 -39.50087700
v 32.15155400 132.07829300 -39.50087700
v 29.11179900 122.05074300 -24.58867800
v 29.11179900 122.05074300 -24.58867800
v 29.11179900 122.05074300 -24.58867800
v 29.11179900 122.05074300 -24.58867800
v 29.11179900 122.05074300 -24.58867800
v 21.58794000 122.19195600 -31.55838000
v 21.58794000 122.19195600 -31.55838000
v 21.58794000 122.19195600 -31.55838000
v 21.58794000 122.19195600 -31.55838000
v 21.58794000 122.19195600 -31.55838000
v 21.58794000 122.19195600 -31.55838000
v 12.32031200 132.07856800 -44.45039000
v 12.32031200 132.07856800 -44.45039000
v 12.32031200 132.07856800 -44.45039000
v 12.32031200 132.07856800 -44.45039000
v 12.32031200 132.07856800 -44.45039000
v 12.32031200 132.07856800 -44.45039000
v 12.32031200 132.07856800 -44.45039000
v 12.32031200 132.07856800 -44.45039000
v 10.10293300 122.22036000 -36.88666200
v 10.10293300 122.22036000 -36.88666200
v 10.10293300 122.22036000 -36.88666200
v 10.10293300 122.22036000 -36.88666200
v 10.10293300 122.22036000 -36.88666200
v 7.40118100 132.07806400 -50.38353300
v 7.40118100 132.07806400 -50.38353300
v 7.40118100 132.07806400 -50.38353300
v 7.40118100 132.07806400 -50.38353300
v 7.40118100 132.07806400 -50.38353300
v 7.40118100 132.07806400 -50.38353300
v -6.39638800 132.07774400 -50.52216700
v -6.39638800 132.07774400 -50.52216700
v -6.39638800 132.07774400 -50.52216700
v -6.39638800 132.07774400 -50.52216700
v -6.39638800 132.07774400 -50.52216700
v -13.25232100 132.07504300 -44.49538000
v -13.25232100 132.07504300 -44.49538000
v -13.25232100 132.07504300 -44.49538000
v -13.25232100 132.07504300 -44.49538000
v -13.25232100 132.07504300 -44.49538000
v -13.25232100 132.07504300 -44.49538000
v -13.25232100 132.07504300 -44.49538000
v -13.25232100 132.07504300 -44.49538000
v -0.10824100 122.03469800 -38.11617700
v -0.10824100 122.03469800 -38.11617700
v -0.10824100 122.03469800 -38.11617700
v -0.10824100 122.03469800 -38.11617700
v -0.10824100 122.03469800 -38.11617700
v -0.10824100 122.03469800 -38.11617700
v -16.90846100 132.07778900 -47.91891500
v -16.90846100 132.07778900 -47.91891500
v -16.90846100 132.07778900 -47.91891500
v -16.90846100 132.07778900 -47.91891500
v -16.90846100 132.07778900 -47.91891500
v -6.73710200 121.99654400 -37.50547000
v -6.73710200 121.99654400 -37.50547000
v -6.73710200 121.99654400 -37.50547000
v -6.73710200 121.99654400 -37.50547000
v -6.73710200 121.99654400 -37.50547000
v -26.65852700 132.07904100 -43.38205300
v -26.65852700 132.07904100 -43.38205300
v -26.65852700 132.07904100 -43.38205300
v -26.65852700 132.07904100 -43.38205300
v -26.65852700 132.07904100 -43.38205300
v -16.07645600 122.17738300 -34.69769300
v -16.07645600 122.17738300 -34.69769300
v -16.07645600 122.17738300 -34.69769300
v -16.07645600 122.17738300 -34.69769300
v -16.07645600 122.17738300 -34.69769300
v -35.48228500 132.07669100 -29.71769700
v -35.48228500 132.07669100 -29.71769700
v -35.48228500 132.07669100 -29.71769700
v -35.48228500 132.07669100 -29.71769700
v -35.48228500 132.07669100 -29.71769700
v -35.48228500 132.07669100 -29.71769700
v -35.48228500 132.07669100 -29.71769700
v -35.48228500 132.07669100 -29.71769700
v -26.72502500 122.18374600 -27.35118300
v -26.72502500 122.18374600 -27.35118300
v -26.72502500 122.18374600 -27.35118300
v -26.72502500 122.18374600 -27.35118300
v -26.72502500 122.18374600 -27.35118300
v -34.70650100 132.07356300 -37.12067800
v -34.70650100 132.07356300 -37.12067800
v -34.70650100 132.07356300 -37.12067800
v -34.70650100 132.07356300 -37.12067800
v -41.47543300 132.07479900 -29.55720500
v -41.47543300 132.07479900 -29.55720500
v -41.47543300 132.07479900 -29.55720500
v -41.47543300 132.07479900 -29.55720500
v -41.47543300 132.07479900 -29.55720500
v -41.47543300 132.07479900 -29.55720500
v -33.04307200 122.03586600 -19.00928500
v -33.04307200 122.03586600 -19.00928500
v -33.04307200 122.03586600 -19.00928500
v -33.04307200 122.03586600 -19.00928500
v -33.04307200 122.03586600 -19.00928500
v -33.04307200 122.03586600 -19.00928500
v -46.12183000 132.07670600 -4.72799400
v -46.12183000 132.07670600 -4.72799400
v -46.12183000 132.07670600 -4.72799400
v -46.12183000 132.07670600 -4.72799400
v -46.12183000 132.07670600 -4.72799400
v -46.12183000 132.07670600 -4.72799400
v -46.12183000 132.07670600 -4.72799400
v -46.12183000 132.07670600 -4.72799400
v -46.12183000 132.07670600 -4.72799400
v -37.04270200 122.16036200 -9.50099400
v -37.04270200 122.16036200 -9.50099400
v -37.04270200 122.16036200 -9.50099400
v -37.04270200 122.16036200 -9.50099400
v -37.04270200 122.16036200 -9.50099400
v -47.91275400 132.06074500 -17.25087000
v -47.91275400 132.06074500 -17.25087000
v -47.91275400 132.06074500 -17.25087000
v -47.91275400 132.06074500 -17.25087000
v -47.91275400 132.06074500 -17.25087000
v -50.76813100 132.08027600 -3.84809100
v -50.76813100 132.08027600 -3.84809100
v -50.76813100 132.08027600 -3.84809100
v -50.76813100 132.08027600 -3.84809100
v -50.76813100 132.08027600 -3.84809100
v -50.76813100 132.08027600 -3.84809100
v -49.82860600 132.07959000 10.47642300
v -49.82860600 132.07959000 10.47642300
v -49.82860600 132.07959000 10.47642300
v -49.82860600 132.07959000 10.47642300
v -49.82860600 132.07959000 10.47642300
v -49.82860600 132.07959000 10.47642300
v -49.82860600 132.07959000 10.47642300
v -38.10085300 122.14877300 3.30086700
v -38.10085300 122.14877300 3.30086700
v -38.10085300 122.14877300 3.30086700
v -38.10085300 122.14877300 3.30086700
v -38.10085300 122.14877300 3.30086700
v -38.10085300 122.14877300 3.30086700
v -42.91784700 132.07960500 16.09479000
v -42.91784700 132.07960500 16.09479000
v -42.91784700 132.07960500 16.09479000
v -42.91784700 132.07960500 16.09479000
v -42.91784700 132.07960500 16.09479000
v -42.91784700 132.07960500 16.09479000
v -41.58038300 132.07869000 29.39932800
v -41.58038300 132.07869000 29.39932800
v -41.58038300 132.07869000 29.39932800
v -41.58038300 132.07869000 29.39932800
v -41.58038300 132.07869000 29.39932800
v -41.58038300 132.07869000 29.39932800
v -46.61564300 132.07727100 20.19566500
v -46.61564300 132.07727100 20.19566500
v -46.61564300 132.07727100 20.19566500
v -46.61564300 132.07727100 20.19566500
v -34.33387800 132.07896400 30.69575500
v -34.33387800 132.07896400 30.69575500
v -34.33387800 132.07896400 30.69575500
v -34.33387800 132.07896400 30.69575500
v -34.33387800 132.07896400 30.69575500
v -34.33387800 132.07896400 30.69575500
v -34.33387800 132.07896400 30.69575500
v -34.73693800 132.07681300 37.08916500
v -34.73693800 132.07681300 37.08916500
v -34.73693800 132.07681300 37.08916500
v -34.73693800 132.07681300 37.08916500
v -34.73693800 132.07681300 37.08916500
v -35.84905200 122.15344200 12.91973900
v -35.84905200 122.15344200 12.91973900
v -35.84905200 122.15344200 12.91973900
v -35.84905200 122.15344200 12.91973900
v -35.84905200 122.15344200 12.91973900
v -32.97668800 122.01624300 19.11898800
v -32.97668800 122.01624300 19.11898800
v -32.97668800 122.01624300 19.11898800
v -32.97668800 122.01624300 19.11898800
v -32.97668800 122.01624300 19.11898800
v -27.07712000 122.18434100 27.01588100
v -27.07712000 122.18434100 27.01588100
v -27.07712000 122.18434100 27.01588100
v -27.07712000 122.18434100 27.01588100
v -27.07712000 122.18434100 27.01588100
v -27.07712000 122.18434100 27.01588100
v -26.24117900 132.07835400 43.63626900
v -26.24117900 132.07835400 43.63626900
v -26.24117900 132.07835400 43.63626900
v -26.24117900 132.07835400 43.63626900
v -26.24117900 132.07835400 43.63626900
v -14.27663800 132.07515000 44.17730700
v -14.27663800 132.07515000 44.17730700
v -14.27663800 132.07515000 44.17730700
v -14.27663800 132.07515000 44.17730700
v -14.27663800 132.07515000 44.17730700
v -14.27663800 132.07515000 44.17730700
v -14.27663800 132.07515000 44.17730700
v -14.27663800 132.07515000 44.17730700
v -16.30621700 122.17111200 34.59221300
v -16.30621700 122.17111200 34.59221300
v -16.30621700 122.17111200 34.59221300
v -16.30621700 122.17111200 34.59221300
v -16.30621700 122.17111200 34.59221300
v -6.74040600 122.15918000 37.50523000
v -6.74040600 122.15918000 37.50523000
v -6.74040600 122.15918000 37.50523000
v -6.74040600 122.15918000 37.50523000
v -6.74040600 122.15918000 37.50523000
v 0.06761100 122.02990000 38.11615400
v 0.06761100 122.02990000 38.11615400
v 0.06761100 122.02990000 38.11615400
v 0.06761100 122.02990000 38.11615400
v 0.06761100 122.02990000 38.11615400
v 11.63591600 132.07789600 44.70436900
v 11.63591600 132.07789600 44.70436900
v 11.63591600 132.07789600 44.70436900
v 11.63591600 132.07789600 44.70436900
v 11.63591600 132.07789600 44.70436900
v 11.63591600 132.07789600 44.70436900
v 11.63591600 132.07789600 44.70436900
v 11.63591600 132.07789600 44.70436900
v 0.28252600 132.07580600 50.92897000
v 0.28252600 132.07580600 50.92897000
v 0.28252600 132.07580600 50.92897000
v 0.28252600 132.07580600 50.92897000
v 0.28252600 132.07580600 50.92897000
v 0.28252600 132.07580600 50.92897000
v 0.28252600 132.07580600 50.92897000
v 13.94664500 132.07403600 48.98082000
v 13.94664500 132.07403600 48.98082000
v 13.94664500 132.07403600 48.98082000
v 13.94664500 132.07403600 48.98082000
v 13.94664500 132.07403600 48.98082000
v 6.71645900 122.03517900 37.50868600
v 6.71645900 122.03517900 37.50868600
v 6.71645900 122.03517900 37.50868600
v 6.71645900 122.03517900 37.50868600
v 6.71645900 122.03517900 37.50868600
v 16.29410200 122.14228100 34.59635500
v 16.29410200 122.14228100 34.59635500
v 16.29410200 122.14228100 34.59635500
v 16.29410200 122.14228100 34.59635500
v 16.29410200 122.14228100 34.59635500
v 16.29410200 122.14228100 34.59635500
v 26.06260500 132.07859800 43.73847600
v 26.06260500 132.07859800 43.73847600
v 26.06260500 132.07859800 43.73847600
v 26.06260500 132.07859800 43.73847600
v 26.06260500 132.07859800 43.73847600
v 26.92402500 122.29573800 27.16532900
v 26.92402500 122.29573800 27.16532900
v 26.92402500 122.29573800 27.16532900
v 26.92402500 122.29573800 27.16532900
v 26.92402500 122.29573800 27.16532900
v 26.92402500 122.29573800 27.16532900
v 20.58098200 132.07385300 -46.57303600
v 20.58098200 132.07385300 -46.57303600
v 20.58098200 132.07385300 -46.57303600
v 20.58098200 132.07385300 -46.57303600
v 20.58098200 132.07385300 -46.57303600
v -13.42612200 132.07543900 49.13348400
v -13.42612200 132.07543900 49.13348400
v -13.42612200 132.07543900 49.13348400
v -13.42612200 132.07543900 49.13348400
v -13.42612200 132.07543900 49.13348400
v 36.87670900 17.78057500 10.19114600
v 36.87670900 17.78057500 10.19114600
v 36.87670900 17.78057500 10.19114600
v 36.87670900 17.78057500 10.19114600
v 36.87670900 17.78057500 10.19114600
v 38.10644900 17.78000100 -3.20382800
v 38.10644900 17.78000100 -3.20382800
v 38.10644900 17.78000100 -3.20382800
v 38.10644900 17.78000100 -3.20382800
v 38.10644900 17.78000100 -3.20382800
v 31.24609800 17.78064000 22.06274200
v 31.24609800 17.78064000 22.06274200
v 31.24609800 17.78064000 22.06274200
v 31.24609800 17.78064000 22.06274200
v 31.24609800 17.78064000 22.06274200
v 31.24609800 17.78064000 22.06274200
v 35.78611400 17.78072400 -13.13149600
v 35.78611400 17.78072400 -13.13149600
v 35.78611400 17.78072400 -13.13149600
v 35.78611400 17.78072400 -13.13149600
v 31.33755700 17.77996600 -21.93524400
v 31.33755700 17.77996600 -21.93524400
v 31.33755700 17.77996600 -21.93524400
v 31.33755700 17.77996600 -21.93524400
v 31.33755700 17.77996600 -21.93524400
v 31.33755700 17.77996600 -21.93524400
v 21.99702300 17.78074300 31.30559200
v 21.99702300 17.78074300 31.30559200
v 21.99702300 17.78074300 31.30559200
v 21.99702300 17.78074300 31.30559200
v 24.49206900 17.78107600 -29.19171900
v 24.49206900 17.78107600 -29.19171900
v 24.49206900 17.78107600 -29.19171900
v 24.49206900 17.78107600 -29.19171900
v 12.68573900 17.78010400 35.95255700
v 12.68573900 17.78010400 35.95255700
v 12.68573900 17.78010400 35.95255700
v 12.68573900 17.78010400 35.95255700
v 12.68573900 17.78010400 35.95255700
v 12.68573900 17.78010400 35.95255700
v 19.00525900 17.78013400 -33.03508800
v 19.00525900 17.78013400 -33.03508800
v 19.00525900 17.78013400 -33.03508800
v 19.00525900 17.78013400 -33.03508800
v 19.00525900 17.78013400 -33.03508800
v 19.00525900 17.78013400 -33.03508800
v 9.50403600 17.78033400 -37.07012200
v 9.50403600 17.78033400 -37.07012200
v 9.50403600 17.78033400 -37.07012200
v 9.50403600 17.78033400 -37.07012200
v 2.45021300 17.78069300 38.17075700
v 2.45021300 17.78069300 38.17075700
v 2.45021300 17.78069300 38.17075700
v 2.45021300 17.78069300 38.17075700
v 2.45021300 17.78069300 38.17075700
v -10.22736000 17.78013200 36.84738200
v -10.22736000 17.78013200 36.84738200
v -10.22736000 17.78013200 36.84738200
v -10.22736000 17.78013200 36.84738200
v -10.22736000 17.78013200 36.84738200
v -10.22736000 17.78013200 36.84738200
v -3.32594600 17.78056100 -38.11921300
v -3.32594600 17.78056100 -38.11921300
v -3.32594600 17.78056100 -38.11921300
v -3.32594600 17.78056100 -38.11921300
v -3.32594600 17.78056100 -38.11921300
v -3.32594600 17.78056100 -38.11921300
v -3.32594600 17.78056100 -38.11921300
v -22.12901100 17.78052500 31.20001400
v -22.12901100 17.78052500 31.20001400
v -22.12901100 17.78052500 31.20001400
v -22.12901100 17.78052500 31.20001400
v -38.11552000 17.78003700 -3.11048300
v -38.11552000 17.78003700 -3.11048300
v -38.11552000 17.78003700 -3.11048300
v -38.11552000 17.78003700 -3.11048300
v -38.11552000 17.78003700 -3.11048300
v -38.11552000 17.78003700 -3.11048300
v -34.64652600 17.78178600 -16.24814400
v -34.64652600 17.78178600 -16.24814400
v -34.64652600 17.78178600 -16.24814400
v -34.64652600 17.78178600 -16.24814400
v -34.64652600 17.78178600 -16.24814400
v -27.29175800 17.78091600 -26.79926900
v -27.29175800 17.78091600 -26.79926900
v -27.29175800 17.78091600 -26.79926900
v -27.29175800 17.78091600 -26.79926900
v -27.29175800 17.78091600 -26.79926900
v -16.27852600 17.78117200 -34.61472700
v -16.27852600 17.78117200 -34.61472700
v -16.27852600 17.78117200 -34.61472700
v -16.27852600 17.78117200 -34.61472700
v -16.27852600 17.78117200 -34.61472700
v -31.18095000 17.77991300 22.16799500
v -31.18095000 17.77991300 22.16799500
v -31.18095000 17.77991300 22.16799500
v -31.18095000 17.77991300 22.16799500
v -31.18095000 17.77991300 22.16799500
v -31.18095000 17.77991300 22.16799500
v -31.18095000 17.77991300 22.16799500
v -36.99362600 17.78064000 9.71067900
v -36.99362600 17.78064000 9.71067900
v -36.99362600 17.78064000 9.71067900
v -36.99362600 17.78064000 9.71067900
v -116.83999600 17.78000300 -50.79999900
v -116.83999600 17.78000300 -50.79999900
v -116.83999600 17.78000300 -50.79999900
v -58.41999800 119.38009600 -50.79999900
v -58.41999800 119.38009600 -50.79999900
v -58.41999800 119.38009600 -50.79999900
v -58.41999800 119.38004300 50.79999900
v -58.41999800 119.38004300 50.79999900
v -58.41999800 119.38004300 50.79999900
v -58.41999800 17.78000300 50.79999900
v -58.41999800 17.78000300 50.79999900
v -58.41999800 17.78000300 50.79999900
v -58.41999800 17.78000300 50.79999900
v -58.41999800 17.78000300 50.79999900
v -58.41999800 17.78000300 50.79999900
v -58.41999800 17.78000300 50.79999900
v -58.41999800 17.78000300 50.79999900
v -58.41999800 17.78000300 50.79999900
v -50.79999900 17.78000300 116.83999600
v -50.79999900 17.78000300 116.83999600
v -50.79999900 17.78000300 116.83999600
v -50.79999900 118.96646900 58.41999800
v -50.79999900 118.96646900 58.41999800
v -50.79999900 118.96646900 58.41999800
v 50.79999900 118.96643800 58.41999800
v 50.79999900 118.96643800 58.41999800
v 50.79999900 118.96643800 58.41999800
v -50.79999900 17.78000300 58.41999800
v -50.79999900 17.78000300 58.41999800
v -50.79999900 17.78000300 58.41999800
vn -0.00000000 -1.00000000 -0.00000000
vn -0.00000000 -0.00000000 -1.00000000
vn 1.00000000 -0.00000000 -0.00000000
vn -0.00000000 -1.00000000 -0.00000000
vn -0.00000000 -0.00000000 1.00000000
vn 1.00000000 -0.00000000 -0.00000000
vn -0.00000000 -0.00000000 -1.00000000
vn -0.00020000 1.00000000 -0.00030000
vn 0.00010000 1.00000000 0.00020000
vn 1.00000000 -0.00000000 -0.00000000
vn -0.00000000 1.00000000 -0.00000000
vn -0.00000000 -0.00000000 1.00000000
vn -0.00000000 -1.00000000 -0.00000000
vn -1.00000000 -0.00000000 -0.00000000
vn -0.00000000 -0.00000000 -1.00000000
vn -0.00000000 -1.00000000 -0.00000000
vn -1.00000000 -0.00000000 -0.00000000
vn -0.00000000 1.00000000 -0.00000000
vn 0.88780000 -0.00040000 -0.46020000
vn 0.73320000 0.00040000 -0.68000000
vn 0.74600000 0.00270000 -0.66590000
vn 0.99890000 0.00280000 -0.04570000
vn 0.99770000 -0.00400000 0.06760000
vn 0.97950000 -0.00220000 -0.20130000
vn -0.00000000 1.00000000 -0.00000000
vn 0.00010000 1.00000000 -0.00000000
vn 0.94490000 -0.00390000 0.32720000
vn 0.82150000 -0.00250000 0.57010000
vn 0.89990000 0.00290000 0.43610000
vn -0.00000000 1.00000000 -0.00000000
vn -0.00000000 1.00000000 -0.00000000
vn 0.74600000 0.00270000 -0.66590000
vn 0.61180000 -0.00270000 -0.79100000
vn 0.01000000 0.00410000 -0.99990000
vn -0.12760000 -0.00400000 -0.99180000
vn 0.14540000 -0.00420000 -0.98940000
vn -0.00020000 1.00000000 -0.00030000
vn -0.00000000 1.00000000 -0.00000000
vn -0.00000000 1.00000000 -0.00000000
vn 0.94490000 -0.00390000 0.32720000
vn 0.97970000 0.00400000 0.20030000
vn 0.99770000 -0.00400000 0.06760000
vn -0.00000000 1.00000000 -0.00000000
vn 0.97950000 -0.00220000 -0.20130000
vn 0.88780000 -0.00040000 -0.46020000
vn 0.88910000 -0.00010000 -0.45780000
vn 0.97430000 -0.00000000 -0.22540000
vn 0.00010000 1.00000000 0.00020000
vn 0.40380000 -0.00380000 -0.91480000
vn 0.61180000 -0.00270000 -0.79100000
vn 0.52150000 0.00390000 -0.85320000
vn -0.00000000 1.00000000 -0.00000000
vn 0.14540000 -0.00420000 -0.98940000
vn -0.00020000 1.00000000 -0.00030000
vn 0.40380000 -0.00380000 -0.91480000
vn 0.27770000 0.00410000 -0.96060000
vn 0.00010000 1.00000000 0.00020000
vn -0.00000000 -0.00000000 -1.00000000
vn -1.00000000 -0.00000000 -0.00000000
vn -0.00000000 1.00000000 -0.00000000
vn -0.00000000 1.00000000 -0.00010000
vn -0.39220000 -0.00240000 -0.91990000
vn -0.12760000 -0.00400000 -0.99180000
vn -0.00000000 1.00000000 -0.00000000
vn -0.24040000 0.00300000 -0.97070000
vn -0.39220000 -0.00240000 -0.91990000
vn -0.00000000 1.00000000 -0.00010000
vn -0.42190000 0.00050000 -0.90670000
vn -0.62820000 -0.00060000 -0.77810000
vn -0.00000000 1.00000000 -0.00000000
vn -0.00000000 1.00000000 -0.00010000
vn -0.00010000 1.00000000 -0.00000000
vn -0.00000000 -0.00000000 -1.00000000
vn 1.00000000 -0.00000000 -0.00000000
vn -0.00000000 1.00000000 -0.00000000
vn -0.00000000 1.00000000 -0.00000000
vn -0.61400000 -0.00270000 -0.78930000
vn -0.62820000 -0.00060000 -0.77810000
vn -0.80360000 -0.00290000 -0.59510000
vn -0.74520000 0.00260000 -0.66690000
vn -0.88610000 0.00220000 -0.46350000
vn -0.80360000 -0.00290000 -0.59510000
vn -0.00000000 1.00000000 -0.00000000
vn -0.89980000 -0.00050000 -0.43620000
vn -0.97810000 0.00050000 -0.20840000
vn -0.00000000 1.00000000 -0.00000000
vn -0.89980000 -0.00050000 -0.43620000
vn -0.98150000 -0.00150000 -0.19150000
vn -0.99850000 0.00130000 0.05450000
vn -0.00000000 1.00000000 -0.00000000
vn -0.00010000 1.00000000 -0.00000000
vn 0.00010000 1.00000000 -0.00000000
vn -0.98150000 -0.00150000 -0.19150000
vn -0.00170000 1.00000000 -0.00030000
vn 0.00010000 1.00000000 -0.00000000
vn -0.97440000 -0.00270000 0.22470000
vn -0.99850000 0.00130000 0.05450000
vn -0.99790000 0.00230000 0.06540000
vn -0.89810000 -0.00130000 0.43970000
vn -0.00170000 1.00000000 -0.00030000
vn 0.00070000 1.00000000 0.00040000
vn -0.97440000 -0.00270000 0.22470000
vn -0.94950000 0.00280000 0.31390000
vn -0.80440000 -0.00280000 0.59410000
vn -0.89810000 -0.00130000 0.43970000
vn -0.87730000 0.00140000 0.48000000
vn 0.00070000 1.00000000 0.00040000
vn -0.00010000 1.00000000 -0.00010000
vn -0.80440000 -0.00280000 0.59410000
vn -0.00000000 1.00000000 0.00010000
vn -0.63260000 -0.00210000 0.77450000
vn -0.74700000 0.00270000 0.66480000
vn -0.00010000 1.00000000 -0.00010000
vn -0.63260000 -0.00210000 0.77450000
vn -0.42160000 -0.00050000 0.90680000
vn -0.61040000 0.00050000 0.79210000
vn -0.00000000 1.00000000 -0.00000000
vn -0.00000000 1.00000000 0.00010000
vn 1.00000000 -0.00000000 -0.00000000
vn -0.00000000 -0.00000000 1.00000000
vn -0.00000000 1.00000000 -0.00000000
vn -0.00000000 -0.00000000 1.00000000
vn -0.00000000 1.00000000 -0.00000000
vn -1.00000000 -0.00000000 -0.00000000
vn -0.00000000 1.00000000 -0.00000000
vn -0.86690000 0.49850000 -0.00000000
vn -0.00000000 -0.00000000 1.00000000
vn 1.00000000 -0.00000000 -0.00000000
vn -0.00000000 1.00000000 -0.00000000
vn -0.00000000 0.50000000 0.86600000
vn -0.39420000 0.00220000 0.91900000
vn -0.42160000 -0.00050000 0.90680000
vn -0.24300000 -0.00290000 0.97000000
vn -0.00000000 1.00000000 -0.00000000
vn -0.00000000 1.00000000 -0.00000000
vn -0.00000000 1.00000000 0.00010000
vn -0.12990000 0.00410000 0.99150000
vn -0.24300000 -0.00290000 0.97000000
vn -0.01780000 -0.00270000 0.99980000
vn -0.00000000 -0.00000000 -1.00000000
vn 0.00010000 1.00000000 -0.00010000
vn -0.00000000 1.00000000 0.00010000
vn 1.00000000 -0.00000000 -0.00000000
vn 0.00010000 1.00000000 -0.00000000
vn -0.00010000 1.00000000 0.00050000
vn -0.00000000 1.00000000 -0.00000000
vn -0.00000000 1.00000000 0.00010000
vn -0.01780000 -0.00270000 0.99980000
vn 0.16170000 0.00260000 0.98680000
vn -0.00010000 1.00000000 0.00050000
vn 0.00010000 1.00000000 -0.00010000
vn 0.16170000 0.00260000 0.98680000
vn 0.14110000 0.00020000 0.99000000
vn 0.40260000 -0.00010000 0.91540000
vn -0.00010000 1.00000000 0.00050000
vn 0.00010000 1.00000000 -0.00010000
vn -0.00000000 1.00000000 0.00010000
vn 0.40260000 -0.00010000 0.91540000
vn 0.39710000 -0.00090000 0.91780000
vn 0.62170000 0.00080000 0.78330000
vn 0.63360000 -0.00090000 0.77370000
vn 0.82150000 -0.00250000 0.57010000
vn -0.00000000 1.00000000 0.00010000
vn 0.63360000 -0.00090000 0.77370000
vn 0.80080000 0.00070000 0.59900000
vn 0.00010000 1.00000000 -0.00000000
vn -0.65000000 0.57890000 -0.49230000
vn 0.00040000 1.00000000 0.00020000
vn -0.00070000 1.00000000 0.00020000
vn -0.70320000 0.64710000 -0.29460000
vn -0.00030000 1.00000000 -0.00000000
vn -0.65040000 0.57000000 -0.50210000
vn -0.82430000 0.55720000 -0.10070000
vn -0.00080000 1.00000000 -0.00030000
vn 0.00010000 1.00000000 0.00010000
vn 0.97970000 0.00400000 0.20030000
vn 0.99770000 -0.00400000 0.06760000
vn 0.99890000 0.00280000 -0.04570000
vn -0.00080000 1.00000000 -0.00030000
vn -0.00030000 1.00000000 -0.00000000
vn 0.97950000 -0.00220000 -0.20130000
vn -0.00030000 1.00000000 -0.00000000
vn 0.97430000 -0.00000000 -0.22540000
vn -0.00020000 1.00000000 0.00010000
vn 0.99890000 0.00280000 -0.04570000
vn -0.00080000 1.00000000 -0.00030000
vn 0.89990000 0.00290000 0.43610000
vn 0.97970000 0.00400000 0.20030000
vn -0.00070000 1.00000000 0.00020000
vn 0.94490000 -0.00390000 0.32720000
vn -0.00030000 1.00000000 -0.00000000
vn -0.00010000 1.00000000 0.00010000
vn -0.82430000 0.55720000 -0.10070000
vn -0.75410000 0.62830000 0.19140000
vn -0.77440000 0.57330000 0.26770000
vn -0.80040000 0.59610000 -0.06270000
vn -0.00020000 1.00000000 0.00010000
vn 0.88910000 -0.00010000 -0.45780000
vn 0.00010000 1.00000000 -0.00030000
vn -0.00020000 1.00000000 0.00010000
vn 0.97430000 -0.00000000 -0.22540000
vn -0.00010000 1.00000000 0.00010000
vn -0.60960000 0.62380000 0.48910000
vn 0.00030000 1.00000000 -0.00030000
vn -0.77440000 0.57330000 0.26770000
vn -0.00010000 1.00000000 0.00010000
vn 0.00010000 1.00000000 -0.00030000
vn 0.00020000 1.00000000 -0.00010000
vn 0.00030000 1.00000000 -0.00030000
vn 0.00010000 1.00000000 -0.00030000
vn 0.88910000 -0.00010000 -0.45780000
vn 0.73320000 0.00040000 -0.68000000
vn 0.88780000 -0.00040000 -0.46020000
vn 0.89990000 0.00290000 0.43610000
vn 0.82150000 -0.00250000 0.57010000
vn -0.00070000 1.00000000 0.00020000
vn 0.80080000 0.00070000 0.59900000
vn 0.00010000 1.00000000 0.00010000
vn 0.00040000 1.00000000 0.00030000
vn 0.62170000 0.00080000 0.78330000
vn 0.00010000 1.00000000 0.00010000
vn 0.63360000 -0.00090000 0.77370000
vn 0.80080000 0.00070000 0.59900000
vn 0.00040000 1.00000000 0.00020000
vn -0.65000000 0.57890000 -0.49230000
vn -0.38870000 0.56120000 -0.73070000
vn 0.00040000 1.00000000 0.00020000
vn -0.00000000 1.00000000 0.00010000
vn 0.00040000 1.00000000 0.00030000
vn -0.44850000 0.63540000 -0.62850000
vn -0.70320000 0.64710000 -0.29460000
vn -0.79980000 -0.00380000 -0.60020000
vn -0.92110000 0.00450000 -0.38930000
vn -0.65040000 0.57000000 -0.50210000
vn -0.92110000 0.00450000 -0.38930000
vn -0.80040000 0.59610000 -0.06270000
vn -0.82430000 0.55720000 -0.10070000
vn -0.70320000 0.64710000 -0.29460000
vn -0.99660000 0.00090000 -0.08240000
vn -0.90350000 -0.00120000 -0.42850000
vn -0.97380000 0.00030000 0.22760000
vn -0.99580000 -0.00030000 -0.09140000
vn -0.75410000 0.62830000 0.19140000
vn -0.80040000 0.59610000 -0.06270000
vn -0.96610000 -0.00280000 0.25830000
vn -0.99660000 0.00090000 -0.08240000
vn -0.83420000 -0.00380000 0.55150000
vn -0.96610000 -0.00280000 0.25830000
vn -0.89250000 0.00360000 0.45100000
vn -0.77440000 0.57330000 0.26770000
vn -0.75410000 0.62830000 0.19140000
vn -0.60960000 0.62380000 0.48910000
vn -0.70080000 0.53950000 0.46660000
vn -0.60960000 0.62380000 0.48910000
vn -0.39030000 0.57340000 0.72030000
vn 0.00010000 1.00000000 -0.00020000
vn 0.00020000 1.00000000 -0.00010000
vn 0.00030000 1.00000000 -0.00030000
vn -0.51930000 0.63360000 0.57350000
vn -0.70080000 0.53950000 0.46660000
vn 0.00020000 1.00000000 -0.00010000
vn 0.61180000 -0.00270000 -0.79100000
vn 0.74600000 0.00270000 -0.66590000
vn 0.00030000 1.00000000 -0.00110000
vn 0.00010000 1.00000000 -0.00020000
vn 0.73320000 0.00040000 -0.68000000
vn 0.52150000 0.00390000 -0.85320000
vn -0.83420000 -0.00380000 0.55150000
vn -0.70080000 0.53950000 0.46660000
vn -0.51930000 0.63360000 0.57350000
vn -0.67960000 -0.00230000 0.73360000
vn -0.72740000 0.00190000 0.68620000
vn -0.51930000 0.63360000 0.57350000
vn -0.67960000 -0.00230000 0.73360000
vn -0.42090000 -0.00240000 0.90710000
vn -0.57370000 0.00260000 0.81900000
vn -0.39030000 0.57340000 0.72030000
vn -0.32880000 0.62030000 0.71210000
vn 0.00010000 1.00000000 -0.00020000
vn -0.00010000 1.00000000 -0.00000000
vn 0.00030000 1.00000000 -0.00110000
vn -0.39030000 0.57340000 0.72030000
vn -0.10490000 0.62010000 0.77750000
vn -0.00160000 0.53480000 0.84500000
vn -0.32880000 0.62030000 0.71210000
vn 0.00050000 1.00000000 -0.00050000
vn -0.39090000 0.00060000 0.92040000
vn -0.42090000 -0.00240000 0.90710000
vn -0.11950000 -0.00110000 0.99280000
vn -0.10490000 0.62010000 0.77750000
vn -0.32880000 0.62030000 0.71210000
vn -0.00010000 1.00000000 -0.00000000
vn -0.00000000 1.00000000 0.00040000
vn 0.14540000 -0.00420000 -0.98940000
vn 0.27770000 0.00410000 -0.96060000
vn 0.01000000 0.00410000 -0.99990000
vn 0.00050000 1.00000000 -0.00050000
vn -0.00000000 1.00000000 0.00040000
vn 0.00020000 1.00000000 0.00060000
vn -0.24040000 0.00300000 -0.97070000
vn 0.01000000 0.00410000 -0.99990000
vn -0.12760000 -0.00400000 -0.99180000
vn 0.00030000 1.00000000 0.00040000
vn -0.00000000 1.00000000 0.00040000
vn -0.00010000 1.00000000 -0.00000000
vn 0.23020000 0.65070000 0.72360000
vn 0.46070000 0.55450000 0.69300000
vn -0.00160000 0.53480000 0.84500000
vn 0.07010000 0.59870000 0.79790000
vn 0.00020000 1.00000000 0.00060000
vn -0.00160000 0.53480000 0.84500000
vn -0.11950000 -0.00110000 0.99280000
vn -0.10490000 0.62010000 0.77750000
vn 0.09180000 -0.00290000 0.99580000
vn -0.08150000 0.00250000 0.99670000
vn 0.07010000 0.59870000 0.79790000
vn -0.24040000 0.00300000 -0.97070000
vn 0.00020000 1.00000000 0.00060000
vn 0.00030000 1.00000000 0.00040000
vn -0.39220000 -0.00240000 -0.91990000
vn -0.42190000 0.00050000 -0.90670000
vn 0.07010000 0.59870000 0.79790000
vn 0.28790000 0.00020000 0.95770000
vn 0.23020000 0.65070000 0.72360000
vn 0.09180000 -0.00290000 0.99580000
vn 0.26120000 0.00290000 0.96530000
vn -0.62820000 -0.00060000 -0.77810000
vn -0.00110000 1.00000000 -0.00050000
vn -0.42190000 0.00050000 -0.90670000
vn -0.61400000 -0.00270000 -0.78930000
vn 0.00030000 1.00000000 0.00040000
vn 0.56790000 -0.00040000 0.82310000
vn 0.28790000 0.00020000 0.95770000
vn 0.23020000 0.65070000 0.72360000
vn 0.46550000 0.57330000 0.67420000
vn 0.46070000 0.55450000 0.69300000
vn 0.77450000 0.53980000 0.32980000
vn 0.46070000 0.55450000 0.69300000
vn 0.60310000 0.64580000 0.46820000
vn -0.00030000 1.00000000 -0.00010000
vn -0.00030000 1.00000000 -0.00050000
vn 0.00030000 1.00000000 0.00040000
vn 0.46550000 0.57330000 0.67420000
vn -0.00110000 1.00000000 -0.00050000
vn 0.79720000 -0.00110000 0.60370000
vn 0.60310000 0.64580000 0.46820000
vn 0.46550000 0.57330000 0.67420000
vn 0.57870000 0.00120000 0.81550000
vn 0.56790000 -0.00040000 0.82310000
vn -0.61400000 -0.00270000 -0.78930000
vn -0.00110000 1.00000000 -0.00050000
vn -0.00030000 1.00000000 -0.00050000
vn -0.74520000 0.00260000 -0.66690000
vn -0.00030000 1.00000000 -0.00010000
vn -0.00360000 1.00000000 -0.00080000
vn -0.80360000 -0.00290000 -0.59510000
vn -0.74520000 0.00260000 -0.66690000
vn -0.00030000 1.00000000 -0.00050000
vn -0.88610000 0.00220000 -0.46350000
vn 0.79720000 -0.00110000 0.60370000
vn 0.92170000 -0.00390000 0.38780000
vn 0.82040000 0.00250000 0.57180000
vn 0.77060000 0.55300000 0.31690000
vn 0.60310000 0.64580000 0.46820000
vn 0.77450000 0.53980000 0.32980000
vn -0.00360000 1.00000000 -0.00080000
vn 0.77060000 0.55300000 0.31690000
vn -0.00030000 1.00000000 -0.00010000
vn 0.00050000 1.00000000 -0.00130000
vn 0.77450000 0.53980000 0.32980000
vn 0.00080000 1.00000000 -0.00000000
vn 0.00010000 1.00000000 -0.00020000
vn 0.75090000 0.65740000 0.06270000
vn 0.81900000 0.55970000 -0.12610000
vn 0.96680000 0.00570000 0.25530000
vn 0.92170000 -0.00390000 0.38780000
vn 0.77060000 0.55300000 0.31690000
vn 0.99660000 -0.00520000 0.08240000
vn 0.75090000 0.65740000 0.06270000
vn 0.00050000 1.00000000 -0.00130000
vn -0.89980000 -0.00050000 -0.43620000
vn -0.97810000 0.00050000 -0.20840000
vn -0.00360000 1.00000000 -0.00080000
vn -0.88610000 0.00220000 -0.46350000
vn -0.99850000 0.00130000 0.05450000
vn -0.99790000 0.00230000 0.06540000
vn 0.00080000 1.00000000 -0.00000000
vn 0.00050000 1.00000000 -0.00130000
vn -0.97810000 0.00050000 -0.20840000
vn -0.98150000 -0.00150000 -0.19150000
vn -0.99790000 0.00230000 0.06540000
vn -0.00180000 1.00000000 0.00080000
vn -0.00010000 1.00000000 0.00010000
vn -0.97440000 -0.00270000 0.22470000
vn 0.00080000 1.00000000 -0.00000000
vn -0.94950000 0.00280000 0.31390000
vn 0.00010000 1.00000000 -0.00020000
vn 0.99620000 0.00520000 -0.08720000
vn 0.99660000 -0.00520000 0.08240000
vn 0.77280000 0.60830000 -0.18120000
vn 0.81900000 0.55970000 -0.12610000
vn 0.75090000 0.65740000 0.06270000
vn 0.97370000 -0.00370000 -0.22790000
vn 0.70650000 0.57310000 -0.41530000
vn -0.00010000 1.00000000 0.00010000
vn 0.77280000 0.60830000 -0.18120000
vn 0.00010000 1.00000000 -0.00020000
vn 0.81900000 0.55970000 -0.12610000
vn 0.72030000 0.61540000 -0.32010000
vn -0.00010000 1.00000000 0.00030000
vn -0.80440000 -0.00280000 0.59410000
vn -0.00010000 1.00000000 0.00010000
vn -0.00180000 1.00000000 0.00080000
vn -0.74700000 0.00270000 0.66480000
vn -0.87730000 0.00140000 0.48000000
vn -0.94950000 0.00280000 0.31390000
vn -0.89810000 -0.00130000 0.43970000
vn -0.87730000 0.00140000 0.48000000
vn -0.00180000 1.00000000 0.00080000
vn -0.00010000 1.00000000 0.00010000
vn 0.70650000 0.57310000 -0.41530000
vn -0.00010000 1.00000000 0.00030000
vn 0.00030000 1.00000000 -0.00010000
vn -0.00040000 1.00000000 0.00030000
vn 0.45330000 0.58310000 -0.67420000
vn 0.61660000 0.62850000 -0.47400000
vn -0.74700000 0.00270000 0.66480000
vn -0.63260000 -0.00210000 0.77450000
vn -0.00010000 1.00000000 0.00030000
vn -0.61040000 0.00050000 0.79210000
vn -0.00040000 1.00000000 0.00030000
vn 0.90620000 0.00310000 -0.42280000
vn 0.77280000 0.60830000 -0.18120000
vn 0.97370000 -0.00370000 -0.22790000
vn 0.90740000 0.00330000 -0.42030000
vn 0.72030000 0.61540000 -0.32010000
vn 0.70650000 0.57310000 -0.41530000
vn 0.61660000 0.62850000 -0.47400000
vn 0.90740000 0.00330000 -0.42030000
vn 0.72030000 0.61540000 -0.32010000
vn 0.80120000 -0.00370000 -0.59840000
vn 0.57530000 -0.00550000 -0.81790000
vn 0.70630000 0.00510000 -0.70790000
vn 0.61660000 0.62850000 -0.47400000
vn 0.47770000 0.55840000 -0.67820000
vn 0.80120000 -0.00370000 -0.59840000
vn 0.45330000 0.58310000 -0.67420000
vn -0.00040000 1.00000000 0.00030000
vn -0.61040000 0.00050000 0.79210000
vn -0.39420000 0.00220000 0.91900000
vn 0.00030000 1.00000000 -0.00010000
vn -0.42160000 -0.00050000 0.90680000
vn 0.47770000 0.55840000 -0.67820000
vn -0.00010000 1.00000000 0.00010000
vn 0.22100000 0.65450000 -0.72310000
vn -0.00000000 1.00000000 -0.00010000
vn 0.01710000 0.53440000 -0.84510000
vn 0.08280000 0.59890000 -0.79650000
vn 0.00030000 1.00000000 -0.00010000
vn 0.45330000 0.58310000 -0.67420000
vn 0.22100000 0.65450000 -0.72310000
vn 0.42870000 0.00540000 -0.90340000
vn 0.29130000 -0.00370000 -0.95660000
vn 0.47770000 0.55840000 -0.67820000
vn 0.57530000 -0.00550000 -0.81790000
vn 0.29130000 -0.00370000 -0.95660000
vn 0.10380000 0.00280000 -0.99460000
vn 0.08940000 0.00150000 -0.99600000
vn 0.08280000 0.59890000 -0.79650000
vn 0.22100000 0.65450000 -0.72310000
vn 0.08280000 0.59890000 -0.79650000
vn 0.01710000 0.53440000 -0.84510000
vn -0.07300000 0.60430000 -0.79340000
vn -0.09100000 -0.00260000 -0.99580000
vn 0.08940000 0.00150000 -0.99600000
vn -0.07300000 0.60430000 -0.79340000
vn 0.00020000 1.00000000 0.00080000
vn 0.01710000 0.53440000 -0.84510000
vn -0.00000000 1.00000000 0.00010000
vn -0.00010000 1.00000000 0.00010000
vn -0.38870000 0.56120000 -0.73070000
vn -0.00000000 1.00000000 0.00090000
vn -0.23040000 0.63880000 -0.73410000
vn -0.00000000 1.00000000 -0.00010000
vn 0.00020000 1.00000000 0.00080000
vn 0.14110000 0.00020000 0.99000000
vn -0.01780000 -0.00270000 0.99980000
vn 0.16170000 0.00260000 0.98680000
vn -0.12990000 0.00410000 0.99150000
vn -0.00010000 1.00000000 0.00010000
vn 0.39710000 -0.00090000 0.91780000
vn 0.40260000 -0.00010000 0.91540000
vn 0.14110000 0.00020000 0.99000000
vn -0.00000000 1.00000000 0.00090000
vn 0.00020000 1.00000000 0.00080000
vn -0.23040000 0.63880000 -0.73410000
vn -0.07300000 0.60430000 -0.79340000
vn -0.29090000 -0.00240000 -0.95680000
vn -0.09100000 -0.00260000 -0.99580000
vn -0.21180000 0.00250000 -0.97730000
vn -0.44650000 0.00380000 -0.89480000
vn -0.57290000 -0.00550000 -0.81960000
vn -0.29090000 -0.00240000 -0.95680000
vn -0.23040000 0.63880000 -0.73410000
vn -0.38870000 0.56120000 -0.73070000
vn -0.44850000 0.63540000 -0.62850000
vn -0.00000000 1.00000000 0.00090000
vn -0.00000000 1.00000000 0.00010000
vn 0.39710000 -0.00090000 0.91780000
vn 0.62170000 0.00080000 0.78330000
vn 0.00040000 1.00000000 0.00030000
vn -0.57290000 -0.00550000 -0.81960000
vn -0.44850000 0.63540000 -0.62850000
vn -0.79980000 -0.00380000 -0.60020000
vn -0.65000000 0.57890000 -0.49230000
vn -0.65040000 0.57000000 -0.50210000
vn -0.70690000 0.00530000 -0.70730000
vn 0.00050000 1.00000000 -0.00050000
vn 0.40380000 -0.00380000 -0.91480000
vn 0.52150000 0.00390000 -0.85320000
vn 0.27770000 0.00410000 -0.96060000
vn 0.00030000 1.00000000 -0.00110000
vn 0.00030000 1.00000000 -0.00010000
vn -0.39420000 0.00220000 0.91900000
vn -0.12990000 0.00410000 0.99150000
vn -0.24300000 -0.00290000 0.97000000
vn -0.00000000 1.00000000 -0.00010000
vn 0.00010000 1.00000000 -0.00000000
vn -0.90350000 -0.00120000 -0.42850000
vn -0.99580000 -0.00030000 -0.09140000
vn -0.00000000 1.00000000 -0.00000000
vn -0.99660000 0.00090000 -0.08240000
vn -0.00060000 1.00000000 0.00020000
vn 0.00010000 1.00000000 -0.00000000
vn -0.00000000 1.00000000 -0.00000000
vn -0.99580000 -0.00030000 -0.09140000
vn -0.97380000 0.00030000 0.22760000
vn -0.92110000 0.00450000 -0.38930000
vn -0.70690000 0.00530000 -0.70730000
vn -0.79980000 -0.00380000 -0.60020000
vn -0.00000000 1.00000000 -0.00000000
vn -0.90350000 -0.00120000 -0.42850000
vn -0.00010000 1.00000000 -0.00020000
vn -0.96610000 -0.00280000 0.25830000
vn -0.00060000 1.00000000 0.00020000
vn -0.97380000 0.00030000 0.22760000
vn -0.89250000 0.00360000 0.45100000
vn -0.00000000 1.00000000 -0.00000000
vn -0.83420000 -0.00380000 0.55150000
vn -0.72740000 0.00190000 0.68620000
vn -0.00060000 1.00000000 0.00020000
vn -0.89250000 0.00360000 0.45100000
vn -0.00080000 1.00000000 0.00090000
vn -0.00010000 1.00000000 -0.00020000
vn -0.57290000 -0.00550000 -0.81960000
vn -0.70690000 0.00530000 -0.70730000
vn -0.44650000 0.00380000 -0.89480000
vn -0.72740000 0.00190000 0.68620000
vn -0.57370000 0.00260000 0.81900000
vn -0.67960000 -0.00230000 0.73360000
vn -0.00080000 1.00000000 0.00090000
vn -0.00000000 1.00000000 -0.00000000
vn -0.21180000 0.00250000 -0.97730000
vn -0.00000000 1.00000000 -0.00030000
vn -0.29090000 -0.00240000 -0.95680000
vn -0.00010000 1.00000000 -0.00020000
vn -0.44650000 0.00380000 -0.89480000
vn -0.57370000 0.00260000 0.81900000
vn -0.00000000 1.00000000 -0.00000000
vn -0.42090000 -0.00240000 0.90710000
vn 0.00010000 1.00000000 -0.00000000
vn -0.00080000 1.00000000 0.00090000
vn -0.39090000 0.00060000 0.92040000
vn -0.39090000 0.00060000 0.92040000
vn -0.11950000 -0.00110000 0.99280000
vn -0.08150000 0.00250000 0.99670000
vn -0.00000000 1.00000000 -0.00000000
vn -0.09100000 -0.00260000 -0.99580000
vn 0.08940000 0.00150000 -0.99600000
vn -0.21180000 0.00250000 -0.97730000
vn 0.10380000 0.00280000 -0.99460000
vn -0.00000000 1.00000000 -0.00030000
vn 0.10380000 0.00280000 -0.99460000
vn -0.00000000 1.00000000 -0.00000000
vn 0.29130000 -0.00370000 -0.95660000
vn 0.42870000 0.00540000 -0.90340000
vn 0.00010000 1.00000000 -0.00020000
vn -0.00000000 1.00000000 -0.00030000
vn -0.08150000 0.00250000 0.99670000
vn 0.26120000 0.00290000 0.96530000
vn 0.09180000 -0.00290000 0.99580000
vn -0.00000000 1.00000000 -0.00010000
vn 0.00020000 1.00000000 0.00020000
vn 0.00010000 1.00000000 0.00020000
vn -0.00000000 1.00000000 -0.00000000
vn 0.42870000 0.00540000 -0.90340000
vn 0.57530000 -0.00550000 -0.81790000
vn 0.00010000 1.00000000 -0.00020000
vn 0.70630000 0.00510000 -0.70790000
vn 0.00030000 1.00000000 -0.00010000
vn 0.96680000 0.00570000 0.25530000
vn 0.99660000 -0.00520000 0.08240000
vn 0.99620000 0.00520000 -0.08720000
vn 0.00020000 1.00000000 0.00020000
vn -0.00000000 1.00000000 -0.00000000
vn 0.82040000 0.00250000 0.57180000
vn 0.00020000 1.00000000 0.00020000
vn 0.96680000 0.00570000 0.25530000
vn -0.00000000 1.00000000 -0.00010000
vn 0.92170000 -0.00390000 0.38780000
vn 0.82040000 0.00250000 0.57180000
vn 0.79720000 -0.00110000 0.60370000
vn 0.00010000 1.00000000 0.00020000
vn 0.57870000 0.00120000 0.81550000
vn -0.00000000 1.00000000 -0.00010000
vn 0.57870000 0.00120000 0.81550000
vn 0.00010000 1.00000000 0.00020000
vn 0.56790000 -0.00040000 0.82310000
vn 0.28790000 0.00020000 0.95770000
vn 0.26120000 0.00290000 0.96530000
vn 0.90740000 0.00330000 -0.42030000
vn 0.80120000 -0.00370000 -0.59840000
vn 0.70630000 0.00510000 -0.70790000
vn 0.00010000 1.00000000 -0.00020000
vn 0.90620000 0.00310000 -0.42280000
vn -0.00000000 1.00000000 -0.00000000
vn 0.00030000 1.00000000 -0.00010000
vn 0.90620000 0.00310000 -0.42280000
vn 0.97370000 -0.00370000 -0.22790000
vn 0.99620000 0.00520000 -0.08720000
vn 0.00030000 1.00000000 -0.00010000
vn -0.86690000 0.49850000 -0.00000000
vn -0.00000000 -0.00000000 -1.00000000
vn -0.00000000 1.00000000 -0.00000000
vn 1.00000000 -0.00000000 -0.00000000
vn -0.86690000 0.49850000 -0.00000000
vn -0.00000000 -0.00000000 -1.00000000
vn -0.00000000 -0.00000000 1.00000000
vn 1.00000000 -0.00000000 -0.00000000
vn -0.86690000 0.49850000 -0.00000000
vn -0.00000000 1.00000000 0.00010000
vn -0.00010000 1.00000000 -0.00000000
vn 0.00070000 1.00000000 0.00040000
vn -0.00010000 1.00000000 -0.00010000
vn -0.00170000 1.00000000 -0.00030000
vn 0.00010000 1.00000000 -0.00000000
vn -0.00000000 -0.00000000 1.00000000
vn -0.00000000 1.00000000 -0.00000000
vn 1.00000000 -0.00000000 -0.00000000
vn -0.00000000 0.50000000 0.86600000
vn -1.00000000 -0.00000000 -0.00000000
vn -0.00000000 1.00000000 -0.00000000
vn -0.00000000 -0.00000000 -1.00000000
vn -0.00000000 0.50000000 0.86600000
vn -1.00000000 -0.00000000 -0.00000000
vn -0.00000000 0.50000000 0.86600000
vn -0.00000000 -0.00000000 -1.00000000
vn 1.00000000 -0.00000000 -0.00000000
vn -0.00000000 -0.00000000 -1.00000000
vn -0.00000000 1.00000000 -0.00000000
vn -1.00000000 -0.00000000 -0.00000000
f 16//16 1//1 4//4
f 13//13 16//16 4//4
f 124//124 17//17 14//14
f 18//18 43//43 11//11
f 3//3 10//10 6//6
f 6//6 10//10 119//119
f 11//11 25//25 121//121
f 146//146 121//121 30//30
f 129//129 121//121 146//146
f 39//39 121//121 25//25
f 39//39 30//30 121//121
f 43//43 25//25 11//11
f 26//26 166//166 144//144
f 31//31 18//18 11//11
f 52//52 31//31 11//11
f 9//9 57//57 48//48
f 37//37 54//54 8//8
f 60//60 38//38 11//11
f 2//2 58//58 7//7
f 64//64 38//38 60//60
f 15//15 58//58 2//2
f 71//71 67//67 61//61
f 75//75 76//76 70//70
f 83//83 75//75 86//86
f 75//75 90//90 86//86
f 75//75 83//83 76//76
f 75//75 64//64 60//60
f 646//646 95//95 92//92
f 100//100 94//94 645//645
f 101//101 643//643 107//107
f 108//108 644//644 113//113
f 117//117 648//648 660//660
f 648//648 652//652 660//660
f 123//123 121//121 652//652
f 12//12 120//120 122//122
f 125//125 652//652 648//648
f 642//642 91//91 72//72
f 123//123 652//652 125//125
f 60//60 634//634 75//75
f 60//60 123//123 634//634
f 123//123 125//125 634//634
f 17//17 124//124 59//59
f 5//5 120//120 12//12
f 129//129 652//652 121//121
f 118//118 110//110 641//641
f 134//134 117//117 660//660
f 135//135 134//134 660//660
f 146//146 135//135 660//660
f 142//142 147//147 136//136
f 657//657 140//140 659//659
f 145//145 155//155 150//150
f 156//156 151//151 141//141
f 142//142 163//163 157//157
f 182//182 171//171 180//180
f 174//174 186//186 179//179
f 191//191 171//171 182//182
f 184//184 200//200 197//197
f 206//206 192//192 202//202
f 210//210 207//207 199//199
f 169//169 216//216 189//189
f 175//175 221//221 218//218
f 227//227 224//224 168//168
f 231//231 170//170 238//238
f 237//237 173//173 193//193
f 236//236 196//196 244//244
f 250//250 195//195 205//205
f 243//243 194//194 251//251
f 257//257 208//208 261//261
f 258//258 204//204 209//209
f 252//252 203//203 254//254
f 253//253 260//260 269//269
f 270//270 259//259 273//273
f 281//281 264//264 522//522
f 279//279 256//256 265//265
f 277//277 255//255 282//282
f 278//278 285//285 291//291
f 286//286 518//518 297//297
f 305//305 280//280 292//292
f 298//298 304//304 293//293
f 311//311 284//284 308//308
f 290//290 283//283 313//313
f 318//318 310//310 299//299
f 316//316 309//309 322//322
f 331//331 303//303 319//319
f 324//324 306//306 334//334
f 331//331 342//342 303//303
f 336//336 307//307 338//338
f 335//335 343//343 347//347
f 351//351 344//344 328//328
f 352//352 358//358 341//341
f 346//346 339//339 364//364
f 365//365 337//337 370//370
f 354//354 368//368 340//340
f 363//363 367//367 377//377
f 380//380 388//388 369//369
f 383//383 366//366 355//355
f 387//387 395//395 371//371
f 379//379 373//373 402//402
f 397//397 407//407 372//372
f 401//401 374//374 408//408
f 393//393 412//412 405//405
f 392//392 419//419 413//413
f 420//420 405//405 412//412
f 429//429 422//422 410//410
f 400//400 406//406 433//433
f 437//437 404//404 421//421
f 436//436 409//409 440//440
f 438//438 426//426 444//444
f 431//431 448//448 424//424
f 459//459 423//423 451//451
f 447//447 425//425 460//460
f 445//445 453//453 464//464
f 459//459 451//451 523//523
f 461//461 455//455 470//470
f 484//484 456//456 527//527
f 469//469 458//458 471//471
f 480//480 454//454 490//490
f 472//472 457//457 478//478
f 495//495 477//477 485//485
f 473//473 476//476 497//497
f 496//496 483//483 504//504
f 507//507 482//482 494//494
f 508//508 228//228 479//479
f 505//505 481//481 226//226
f 219//219 229//229 511//511
f 506//506 230//230 513//513
f 515//515 225//225 167//167
f 516//516 172//172 234//234
f 390//390 88//88 93//93
f 381//381 84//84 87//87
f 294//294 53//53 36//36
f 320//320 62//62 66//66
f 213//213 45//45 19//19
f 302//302 35//35 63//63
f 327//327 69//69 78//78
f 382//382 85//85 389//389
f 181//181 24//24 44//44
f 262//262 33//33 50//50
f 263//263 21//21 32//32
f 519//519 49//49 55//55
f 97//97 385//385 89//89
f 178//178 22//22 185//185
f 177//177 42//42 23//23
f 201//201 183//183 47//47
f 198//198 46//46 211//211
f 212//212 20//20 266//266
f 267//267 51//51 520//520
f 296//296 34//34 301//301
f 329//329 321//321 68//68
f 521//521 56//56 295//295
f 300//300 65//65 317//317
f 350//350 330//330 77//77
f 356//356 79//79 82//82
f 357//357 353//353 80//80
f 391//391 386//386 98//98
f 359//359 81//81 384//384
f 215//215 162//162 28//28
f 417//417 99//99 105//105
f 452//452 115//115 132//132
f 492//492 154//154 158//158
f 190//190 27//27 40//40
f 396//396 103//103 416//416
f 394//394 96//96 102//102
f 428//428 111//111 114//114
f 526//526 133//133 138//138
f 488//488 149//149 152//152
f 487//487 139//139 148//148
f 493//493 486//486 153//153
f 509//509 491//491 159//159
f 414//414 112//112 427//427
f 411//411 104//104 109//109
f 449//449 430//430 116//116
f 489//489 525//525 137//137
f 187//187 214//214 29//29
f 176//176 188//188 41//41
f 415//415 418//418 106//106
f 524//524 450//450 131//131
f 222//222 161//161 164//164
f 510//510 160//160 220//220
f 223//223 165//165 217//217
f 551//551 533//533 545//545
f 569//569 535//535 548//548
f 571//571 528//528 534//534
f 572//572 553//553 561//561
f 566//566 554//554 543//543
f 569//569 541//541 531//531
f 569//569 562//562 541//541
f 588//588 582//582 564//564
f 562//562 569//569 577//577
f 595//595 562//562 577//577
f 626//626 584//584 562//562
f 626//626 562//562 595//595
f 598//598 587//587 624//624
f 605//605 626//626 595//595
f 607//607 604//604 593//593
f 615//615 609//609 592//592
f 617//617 613//613 594//594
f 631//631 627//627 600//600
f 326//326 620//620 590//590
f 375//375 601//601 608//608
f 348//348 614//614 616//616
f 287//287 574//574 573//573
f 272//272 558//558 550//550
f 241//241 546//546 537//537
f 530//530 242//242 536//536
f 399//399 602//602 378//378
f 398//398 630//630 603//603
f 315//315 589//589 576//576
f 314//314 325//325 591//591
f 289//289 312//312 575//575
f 248//248 544//544 245//245
f 249//249 552//552 547//547
f 239//239 246//246 532//532
f 333//333 619//619 323//323
f 247//247 268//268 549//549
f 362//362 606//606 611//611
f 361//361 376//376 610//610
f 345//345 360//360 612//612
f 332//332 349//349 618//618
f 276//276 568//568 559//559
f 275//275 288//288 570//570
f 274//274 560//560 271//271
f 500//500 563//563 580//580
f 467//467 581//581 583//583
f 432//432 625//625 628//628
f 501//501 557//557 567//567
f 475//475 579//579 468//468
f 474//474 499//499 578//578
f 462//462 586//586 596//596
f 403//403 434//434 629//629
f 503//503 565//565 498//498
f 463//463 466//466 585//585
f 439//439 621//621 435//435
f 240//240 529//529 542//542
f 233//233 235//235 538//538
f 517//517 539//539 556//556
f 514//514 232//232 540//540
f 512//512 555//555 502//502
f 446//446 622//622 441//441
f 443//443 599//599 623//623
f 442//442 465//465 597//597
f 640//640 636//636 632//632
f 633//633 637//637 73//73
f 647//647 638//638 127//127
f 74//74 639//639 649//649
f 74//74 635//635 639//639
f 640//640 632//632 126//126
f 651//651 655//655 661//661
f 656//656 654//654 650//650
f 657//657 659//659 653//653
f 143//143 658//658 128//128
f 656//656 650//650 130//130

