# https://github.com/mikedh/trimesh
v -30.63461835 20.83154367 19.09362849
v -31.16202836 25.26722078 19.09362849
v -48.95207714 20.83154367 19.09362849
v -34.94497985 20.83154367 -7.73284904
v -48.45432046 25.26722078 19.09362849
v -35.56558912 25.26722078 -7.73284904
v -48.88429554 25.26722078 18.09577436
v -49.36510951 20.83154367 18.09577436
v -51.83695021 20.83154367 -7.73284904
v -51.20151607 25.26722078 -7.73284904
v -49.67647127 25.26722078 15.68254816
v -51.52982053 20.83154367 10.92436637
v -51.95979920 20.83154367 -6.82427805
v -51.95768137 25.26722078 -3.61802035
v -51.79035058 25.26722078 -4.57648413
v -51.53405981 25.26722078 -6.03124835
v -51.34766488 25.26722078 -6.98971123
v -50.38392269 25.26722078 12.65747888
v -50.59784951 25.26722078 11.73840365
v -50.87532585 25.26722078 10.53047724
v -51.06383862 25.26722078 9.70593616
v -51.34766488 25.26722078 8.44549078
v -51.88990335 20.83154367 8.44549078
v -52.17584746 20.83154367 -4.41630240
v -52.08476963 25.26722078 -1.20479280
v -51.68867997 25.26722078 6.03226368
v -52.07205901 20.83154367 6.03226368
v -52.20550079 20.83154367 -3.61802035
v -52.26268961 20.83154367 -2.01883054
v -52.27116456 20.83154367 -1.20479280
v -52.14407629 20.83154367 3.62166207
v -51.95768137 25.26722078 1.20843430
v -51.74375095 25.26722078 5.07379990
v -51.82635742 25.26722078 3.62166207
v -51.87931057 25.26722078 2.66057257
f 1 2 5
f 1 5 3
f 1 3 8
f 1 8 12
f 1 12 23
f 1 23 27
f 1 27 31
f 1 31 30
f 1 30 29
f 1 29 28
f 1 28 24
f 1 24 13
f 1 13 9
f 1 9 4
f 1 4 2
f 2 4 6
f 2 6 10
f 2 10 17
f 2 17 16
f 2 16 15
f 2 15 14
f 2 14 25
f 2 25 32
f 2 32 35
f 2 35 34
f 2 34 33
f 2 33 26
f 2 26 22
f 2 22 21
f 2 21 20
f 2 20 19
f 2 19 18
f 2 18 11
f 2 11 7
f 2 7 5
f 3 5 7
f 3 7 8
f 4 9 10
f 4 10 6
f 7 11 8
f 8 11 12
f 9 13 14
f 9 14 15
f 9 15 16
f 9 16 17
f 9 17 10
f 11 18 12
f 12 18 19
f 12 19 20
f 12 20 21
f 12 21 22
f 12 22 23
f 13 24 14
f 14 24 25
f 22 26 23
f 23 26 27
f 24 28 25
f 25 29 30
f 25 30 31
f 25 31 27
f 25 27 32
f 25 28 29
f 26 33 27
f 27 33 34
f 27 34 35
f 27 35 32

