# https://github.com/mikedh/trimesh
v -114.05992959 25.26765586 10.38869086
v -114.06550285 25.27689668 -47.04505560
v -114.05992959 25.27689668 -49.46364112
v -113.72531117 25.27689668 -51.02500559
v -112.26415388 25.27689668 -51.66792228
v -109.78799481 25.27689668 -52.12714437
v -57.09708840 25.26765586 10.38869086
v -114.05992959 25.26765586 49.45343666
v -114.06550285 25.27689668 10.38869086
v -114.02088802 25.36009284 10.38869086
v -113.80896757 25.72985515 -49.46364112
v -113.66954263 25.48950749 -50.98418417
v -106.53106181 37.72863244 -51.05562256
v -111.54472895 28.64172796 -51.17807962
v -112.31992242 26.26600978 -51.43320541
v -109.78799481 28.64172796 -51.90263555
v -109.78799481 26.22903211 -52.12714437
v -61.54190925 25.27689668 -52.12714437
v -59.12151872 25.27689668 -51.93325252
v -58.48575018 25.27689668 -51.64750977
v -57.50978278 25.27689668 -51.20869659
v -57.09151514 25.27689668 -49.46364112
v -57.09151514 25.26765586 33.53363311
v -113.83127499 25.26765586 50.79029232
v -113.80896757 25.72061433 49.45343666
v -113.80896757 25.72985515 10.38869086
v -62.12190925 115.61899532 -49.46364112
v -98.92969852 51.57621769 -50.66783165
v -108.60010696 34.71506924 -50.69844502
v -111.13203457 30.10228837 -50.86172710
v -74.99348214 92.89711820 -50.91274938
v -67.85500132 105.14548397 -51.00459668
v -87.19024494 71.44167951 -51.03521005
v -101.46162613 46.96343681 -50.84131460
v -92.19275837 62.42873127 -51.14746625
v -85.09889237 74.48297237 -51.22910550
v -109.83260964 30.97122764 -51.35156616
v -102.54913062 40.70521617 -51.98427480
v -104.95836744 35.87982088 -52.04550513
v -107.36760427 31.05442380 -52.09653100
v -100.12874008 45.53985227 -51.89243110
v -97.71950325 47.95254991 -52.09653100
v -90.48063906 60.01603453 -52.12714437
v -61.54190925 108.26072677 -52.12714437
v -59.12151872 113.08612565 -51.93325252
v -57.50978278 117.92075816 -51.20869659
v -57.09708840 117.92075816 -49.46364112
v -57.09151514 25.27689668 10.38869086
v -57.09151514 25.26765586 44.63667454
v -113.73088443 25.26765586 51.02500559
v -113.67512308 25.48950749 50.98418417
v -108.60568740 34.71506924 50.70864948
v -98.92969852 51.57621769 50.66783165
v -62.11633599 115.60974731 49.45343666
v -62.12190925 115.61899532 10.38869086
v -60.91171398 117.71738817 -49.46364112
v -62.78556564 114.37104573 -50.72906198
v -82.13753622 80.65799685 -50.79029232
v -65.31749326 109.75826485 -50.88213602
v -60.72210095 117.38460353 -51.06582701
v -65.74134134 108.26072677 -51.18828408
v -68.33461794 103.43533508 -51.28013137
v -64.01806833 110.60871529 -51.37197507
v -73.67732306 93.73832782 -51.39238758
v -92.99025926 60.00679011 -51.42300095
v -102.64951398 43.13640084 -51.43320541
v -95.31026642 52.77794340 -52.04550513
v -92.88987589 57.60333778 -51.97407034
v -80.83811129 79.30836585 -51.85160968
v -73.59924710 91.37185047 -51.94345697
v -68.78077344 98.60994339 -52.06591764
v -61.54190925 110.67342261 -52.10673546
v -63.95114608 105.84803093 -52.12714437
v -59.12151872 115.49882149 -51.87202218
v -57.64920772 119.51074041 -51.02500559
v -57.50978278 119.70486239 -49.46364112
v -57.50420592 119.69562157 10.38869086
v -57.09708840 117.92075816 10.38869086
v -57.09708840 117.91151734 49.45343666
v -57.09708840 25.26765586 49.45343666
v -111.55030940 28.64172796 51.17807962
v -113.05608152 25.26765586 51.37197507
v -106.53663507 37.72863244 51.05562256
v -67.85500132 105.13624315 51.00459668
v -94.32872576 59.20255816 50.95357080
v -101.46719939 46.96343681 50.84131460
v -111.13761502 30.10228837 50.86172710
v -82.13753622 80.64875333 50.79029232
v -62.78556564 114.36180490 50.72906198
v -60.90614072 117.70814735 49.45343666
v -60.91171398 117.71738817 10.38869086
v -60.09190567 118.92836010 -49.46364112
v -59.26651692 118.07790966 -51.34136171
v -61.54190925 113.08612565 -51.79037934
v -58.56382614 119.51074041 -51.02500559
v -66.36038291 103.43533508 -52.00468730
v -63.95114608 108.26072677 -51.92304446
v -58.89286411 119.70486239 -49.46364112
v -57.50978278 119.70486239 -30.15577838
v -57.50420592 119.69562157 25.32881360
v -57.50420592 119.68637355 49.45343666
v -57.64363087 119.50149240 51.02500559
v -57.50420592 117.91151734 51.19849213
v -57.25882076 25.26765586 50.15758009
v -60.71652050 117.37536271 51.07603147
v -109.83819009 30.97122764 51.35156616
v -104.45644340 40.70521617 51.25972246
v -65.74134134 108.25148595 51.19849213
v -112.26972714 25.26765586 51.66792228
v -112.31992242 26.26600978 51.44340986
v -65.31749326 109.74902403 50.89234047
v -60.09190567 118.91911928 49.45343666
v -60.09190567 118.92836010 10.38869086
v -58.89286411 119.70486239 -30.15577838
v -58.88728726 119.69562157 25.32881360
v -58.88728726 119.68637355 49.45343666
v -58.56382614 119.50149240 51.02500559
v -59.26651692 118.06866884 51.34136171
v -59.12151872 115.48957348 51.87202218
v -59.12151872 113.07687764 51.93325252
v -58.14555491 25.26765586 51.49443574
v -57.50420592 25.26765586 51.19849213
v -64.01249507 110.59947447 51.37197507
v -61.53633599 113.07687764 51.79037934
v -92.99025926 60.00679011 51.42300095
v -109.78799481 28.64172796 51.90263555
v -110.74722806 25.26765586 52.06591764
v -100.12874008 45.53985227 51.89243110
v -90.48063906 62.42873127 51.87202218
v -58.89286411 119.69562157 10.38869086
v -61.53633599 110.66418179 52.10673546
v -61.53633599 108.25148595 52.12714437
v -59.12151872 25.26765586 51.93325252
v -71.18443701 96.18799954 51.82099631
v -63.94556563 108.25148595 51.92304446
v -104.95836744 35.87982088 52.05570958
v -102.54913062 40.70521617 51.98427480
v -109.78799481 25.26765586 52.12714437
v -109.78799481 26.22903211 52.12714437
v -107.37317753 31.05442380 52.09653100
v -92.88987589 57.60333778 51.97407034
v -66.36038291 103.42609426 52.00468730
v -68.78077344 98.60069538 52.06591764
v -97.71950325 47.95254991 52.09653100
v -90.48063906 60.01603453 52.12714437
v -63.94556563 105.83879010 52.12714437
v -61.53633599 25.26765586 52.12714437
v -95.31026642 52.77794340 52.04550513
f 1 2 3
f 1 3 4
f 1 4 5
f 1 5 6
f 1 6 18
f 1 18 7
f 1 7 23
f 1 23 49
f 1 49 80
f 1 80 104
f 1 104 122
f 1 122 121
f 1 121 133
f 1 133 147
f 1 147 138
f 1 138 127
f 1 127 109
f 1 109 82
f 1 82 50
f 1 50 24
f 1 24 8
f 1 8 9
f 1 9 2
f 2 9 10
f 2 10 11
f 2 11 3
f 3 11 12
f 3 12 4
f 4 12 13
f 4 13 14
f 4 14 15
f 4 15 5
f 5 15 16
f 5 16 17
f 5 17 6
f 6 17 43
f 6 43 73
f 6 73 44
f 6 44 18
f 7 18 19
f 7 19 20
f 7 20 21
f 7 21 22
f 7 22 23
f 8 24 25
f 8 25 10
f 8 10 9
f 10 26 11
f 10 25 26
f 11 26 55
f 11 55 27
f 11 27 28
f 11 28 29
f 11 29 30
f 11 30 12
f 12 31 32
f 12 32 33
f 12 33 13
f 12 30 34
f 12 34 31
f 13 33 35
f 13 35 14
f 14 35 36
f 14 36 37
f 14 37 15
f 15 37 16
f 16 38 39
f 16 39 40
f 16 40 17
f 16 37 41
f 16 41 68
f 16 68 38
f 17 40 42
f 17 42 43
f 18 44 45
f 18 45 19
f 19 45 20
f 20 46 21
f 20 45 46
f 21 46 22
f 22 47 78
f 22 78 48
f 22 48 49
f 22 49 23
f 22 46 47
f 24 50 51
f 24 51 25
f 25 51 52
f 25 52 53
f 25 53 54
f 25 54 55
f 25 55 26
f 27 55 91
f 27 91 56
f 27 56 57
f 27 57 28
f 28 57 58
f 28 58 29
f 29 58 34
f 29 34 30
f 31 34 58
f 31 58 59
f 31 59 32
f 32 59 60
f 32 60 33
f 33 60 35
f 35 60 61
f 35 61 36
f 36 62 63
f 36 63 64
f 36 64 37
f 36 61 62
f 37 64 65
f 37 65 66
f 37 66 41
f 38 67 39
f 38 68 67
f 39 67 42
f 39 42 40
f 41 66 65
f 41 65 69
f 41 69 70
f 41 70 68
f 42 71 72
f 42 72 43
f 42 67 71
f 43 72 73
f 44 73 72
f 44 72 45
f 45 72 74
f 45 74 46
f 46 74 75
f 46 75 47
f 47 75 76
f 47 76 77
f 47 77 100
f 47 100 78
f 48 78 79
f 48 79 49
f 49 79 80
f 50 81 51
f 50 82 81
f 51 81 83
f 51 83 105
f 51 105 84
f 51 84 85
f 51 85 86
f 51 86 87
f 51 87 52
f 52 87 86
f 52 86 88
f 52 88 89
f 52 89 53
f 53 89 54
f 54 89 90
f 54 90 91
f 54 91 55
f 56 91 113
f 56 113 92
f 56 92 60
f 56 60 57
f 57 59 58
f 57 60 59
f 60 93 94
f 60 94 63
f 60 63 61
f 60 92 95
f 60 95 93
f 61 63 62
f 63 94 69
f 63 69 64
f 64 69 65
f 67 68 96
f 67 96 71
f 68 70 96
f 69 94 97
f 69 97 70
f 70 97 96
f 71 96 72
f 72 96 97
f 72 97 94
f 72 94 74
f 74 94 93
f 74 93 75
f 75 95 98
f 75 98 76
f 75 93 95
f 76 98 114
f 76 114 99
f 76 99 100
f 76 100 77
f 78 100 79
f 79 100 101
f 79 101 102
f 79 102 103
f 79 103 104
f 79 104 80
f 81 105 83
f 81 82 106
f 81 106 107
f 81 107 108
f 81 108 105
f 82 109 110
f 82 110 106
f 84 105 111
f 84 111 85
f 85 111 86
f 86 111 88
f 88 111 89
f 89 111 105
f 89 105 90
f 90 105 112
f 90 112 91
f 91 112 113
f 92 98 95
f 92 113 114
f 92 114 98
f 99 114 115
f 99 115 100
f 100 115 116
f 100 116 101
f 101 116 117
f 101 117 102
f 102 117 118
f 102 118 119
f 102 119 103
f 103 119 120
f 103 120 121
f 103 121 122
f 103 122 104
f 105 117 112
f 105 108 123
f 105 123 124
f 105 124 118
f 105 118 117
f 106 110 125
f 106 125 107
f 107 125 123
f 107 123 108
f 109 126 110
f 109 127 126
f 110 126 128
f 110 128 129
f 110 129 125
f 112 117 116
f 112 116 115
f 112 115 130
f 112 130 113
f 113 130 114
f 114 130 115
f 118 124 119
f 119 124 131
f 119 131 120
f 120 131 132
f 120 132 147
f 120 147 133
f 120 133 121
f 123 125 129
f 123 129 134
f 123 134 124
f 124 134 135
f 124 135 131
f 126 127 136
f 126 136 137
f 126 137 141
f 126 141 128
f 127 138 139
f 127 139 140
f 127 140 136
f 128 141 135
f 128 135 129
f 129 135 134
f 131 135 142
f 131 142 143
f 131 143 144
f 131 144 145
f 131 145 146
f 131 146 132
f 132 146 145
f 132 145 139
f 132 139 138
f 132 138 147
f 135 141 142
f 136 140 144
f 136 144 148
f 136 148 137
f 137 148 141
f 139 145 144
f 139 144 140
f 141 148 142
f 142 148 143
f 143 148 144

