# https://github.com/mikedh/trimesh
v 14.77960302 20.83154367 32.97500206
v 14.77960302 25.26722078 33.45322717
v 14.77960302 20.83154367 50.23256738
v -10.85786841 20.83154367 34.67138681
v -10.88801973 20.84066583 34.66385392
v -10.88801973 25.26722078 35.03099860
v 14.77960302 25.26722078 49.93132378
v 13.38014529 20.83154367 51.04216404
v -10.88801973 20.83154367 34.76552453
v -10.88801973 25.26722078 50.81811186
v 13.26959522 25.26722078 50.40201960
v 10.97568888 20.83154367 51.62394388
v -10.88801973 20.83154367 51.31516739
v -10.88801973 20.84196746 51.53545132
v -10.56139444 25.26722078 50.90095565
v 12.74197127 25.26722078 50.50180609
v 11.93043656 25.26722078 50.65054736
v 10.72444101 25.26722078 50.85012034
v 6.03110453 25.26722078 51.61829511
v 3.61911208 25.26722078 51.90824477
v 8.44309787 20.83154367 51.84799245
v -9.23479898 20.83154367 51.86305823
v -8.44336395 25.26722078 51.42248677
v 3.61911208 20.83154367 52.17559936
v 6.03110453 20.83154367 52.04380439
v 1.20711941 25.26722078 51.98167155
v -6.82783146 20.83154367 52.09463969
v -6.03137151 25.26722078 51.79527662
v 1.20711941 20.83154367 52.20948836
v -3.61937861 25.26722078 51.89694723
v -4.41835102 20.83154367 52.16430182
v -2.00887104 20.83154367 52.18877742
v 0.40563432 20.83154367 52.20760784
v -6.03137151 20.83154367 52.11911528
v -4.57663830 25.26722078 51.85740946
f 1 2 7
f 1 7 3
f 1 3 8
f 1 8 12
f 1 12 21
f 1 21 25
f 1 25 24
f 1 24 29
f 1 29 33
f 1 33 32
f 1 32 31
f 1 31 34
f 1 34 27
f 1 27 22
f 1 22 13
f 1 13 9
f 1 9 4
f 1 4 5
f 1 5 6
f 1 6 2
f 2 6 10
f 2 10 15
f 2 15 23
f 2 23 28
f 2 28 35
f 2 35 30
f 2 30 26
f 2 26 20
f 2 20 19
f 2 19 18
f 2 18 17
f 2 17 16
f 2 16 11
f 2 11 7
f 3 7 8
f 4 9 5
f 5 9 13
f 5 13 14
f 5 14 10
f 5 10 6
f 7 11 8
f 8 11 12
f 10 14 15
f 11 16 12
f 12 17 18
f 12 18 19
f 12 19 20
f 12 20 21
f 12 16 17
f 13 22 14
f 14 22 23
f 14 23 15
f 20 24 25
f 20 25 21
f 20 26 24
f 22 27 28
f 22 28 23
f 24 26 29
f 26 30 31
f 26 31 32
f 26 32 33
f 26 33 29
f 27 34 30
f 27 30 35
f 27 35 28
f 30 34 31

