# https://github.com/mikedh/trimesh
v 30.55503222 20.83154367 19.09362669
v 31.16267917 25.26722078 19.09362669
v 48.88791995 20.83154367 19.09362669
v 14.77960122 20.83154367 32.97790016
v 14.77960122 25.26722078 33.45340695
v 48.23352954 25.26722078 19.09362669
v 48.21015782 25.26722078 19.16373468
v 47.73940088 25.26722078 20.51101053
v 47.35878689 25.26722078 21.47117505
v 46.78118879 25.26722078 22.92513744
v 46.90472096 20.83154367 23.65364140
v 14.77960122 20.83154367 50.23341235
v 14.77960122 25.26722078 49.92859828
v 46.49072136 25.26722078 23.52257275
v 46.40391517 20.83154367 24.73573083
v 15.68773308 20.83154367 49.97736968
v 15.68773308 25.26722078 49.64512079
v 46.04333255 25.26722078 24.43091675
v 42.21716494 20.83154367 30.88382569
v 18.19844636 20.83154367 49.09645689
v 20.34524026 20.83154367 48.21249499
v 24.66887690 20.83154367 46.33484272
v 17.00318742 25.26722078 49.06902208
v 45.21533335 25.26722078 25.63798021
v 41.51937503 20.83154367 31.89581073
v 25.49687790 20.83154367 45.87152518
v 27.62364042 25.26722078 44.15237638
v 26.75557489 25.26722078 44.63398140
v 25.44012055 25.26722078 45.35943983
v 24.95934433 25.26722078 45.57280933
v 17.87125295 25.26722078 48.68800538
v 44.73789569 25.26722078 26.32990921
v 39.33585516 20.83154367 34.62389545
v 40.79487303 25.26722078 32.00859190
v 40.29072688 25.26722078 32.73404674
v 39.08545046 25.26722078 34.43490807
v 30.00080585 20.83154367 43.20745022
v 28.83225540 25.26722078 43.33242784
v 38.07715816 25.26722078 35.63587690
v 37.86681980 20.83154367 36.20892650
v 32.72185749 20.83154367 40.80551975
v 36.87188174 25.26722078 36.74844666
v 31.51658107 25.26722078 41.13776505
v 30.16440435 25.26722078 42.24424018
v 37.59638374 25.26722078 36.08090336
v 37.05217125 20.83154367 36.96791078
f 1 2 6
f 1 6 3
f 1 3 11
f 1 11 15
f 1 15 19
f 1 19 25
f 1 25 33
f 1 33 40
f 1 40 46
f 1 46 41
f 1 41 37
f 1 37 26
f 1 26 22
f 1 22 21
f 1 21 20
f 1 20 16
f 1 16 12
f 1 12 4
f 1 4 5
f 1 5 2
f 2 5 13
f 2 13 17
f 2 17 23
f 2 23 31
f 2 31 30
f 2 30 29
f 2 29 28
f 2 28 27
f 2 27 38
f 2 38 44
f 2 44 43
f 2 43 42
f 2 42 45
f 2 45 39
f 2 39 36
f 2 36 35
f 2 35 34
f 2 34 32
f 2 32 24
f 2 24 18
f 2 18 14
f 2 14 10
f 2 10 9
f 2 9 8
f 2 8 7
f 2 7 6
f 3 6 7
f 3 7 8
f 3 8 9
f 3 9 10
f 3 10 11
f 4 12 13
f 4 13 5
f 10 14 15
f 10 15 11
f 12 16 13
f 13 16 17
f 14 18 15
f 15 18 19
f 16 20 17
f 17 20 21
f 17 21 22
f 17 22 23
f 18 24 19
f 19 24 25
f 22 26 27
f 22 27 28
f 22 28 29
f 22 29 30
f 22 30 31
f 22 31 23
f 24 32 25
f 25 32 34
f 25 34 35
f 25 35 36
f 25 36 33
f 26 37 27
f 27 37 38
f 33 36 39
f 33 39 40
f 37 41 42
f 37 42 43
f 37 43 44
f 37 44 38
f 39 45 46
f 39 46 40
f 41 46 42
f 42 46 45

