# https://github.com/mikedh/trimesh
v -3.83859418 50.14258151 51.94353967
v -3.83859418 59.79617129 51.93539552
v -6.03474288 43.12467543 51.78610052
v -6.03474288 28.64429525 51.79695579
v -6.03474288 25.26765586 51.79424467
v -3.83859418 47.72918631 51.94082496
v -3.83859418 83.91955745 51.91096667
v -6.03474288 47.95147302 51.78067109
v -8.44683016 55.19166221 51.40878734
v -8.44683016 31.05768865 51.42236092
v -8.44683016 25.26765586 51.42236092
v -6.99268619 25.26765586 51.64766079
v -4.58059801 25.26765586 51.85667595
v -3.83859418 35.66219953 51.91367779
v -3.83859418 86.32236885 51.90825196
v -6.03474288 50.36486821 51.77524166
v -8.44683016 64.84525109 51.39793207
v -12.23725431 105.85183512 50.71388115
v -10.72567881 52.77826521 50.94189932
v -10.68432883 45.53807242 50.93104046
v -9.28531787 25.26765586 51.21606048
v -12.23495669 103.43843453 50.71388115
v -12.22117366 101.02504113 50.71117003
v -3.83859418 25.26765586 51.88653423
v -3.83859418 26.00861155 51.88924895
v -3.83859418 88.73576585 51.90282253
v -6.03474288 52.77826521 51.76709751
v -3.83859418 91.37144955 51.89467838
v -8.44683016 69.66146039 51.38164378
v -12.08104218 125.15901109 50.67588231
v -12.20968736 110.67862912 50.70574060
v -13.35600320 117.91881651 50.41529114
v -13.37667819 115.50542311 50.41529114
v -13.41573145 110.67862912 50.41257643
v -13.43181210 108.26522852 50.40986171
v -13.44329750 105.85183512 50.40714699
v -13.27330324 52.77826521 50.30399857
v -10.56257561 25.26765586 50.90118218
v -13.44100078 103.43843453 50.40443228
v -13.41113621 98.61164054 50.40171756
v -13.36978623 91.37144955 50.39357341
v -13.35370648 88.95805256 50.39086229
v -13.31235650 81.71786157 50.38000343
v -3.83859418 25.26765586 36.20231050
v -3.83859418 93.56255984 51.88653423
v -3.83859418 96.19824534 51.87567896
v -8.44683016 76.90165227 51.35178550
v -12.06725915 126.42921777 50.67316400
v -13.27330324 129.97521949 50.39357341
v -12.19130999 113.09202252 50.70031116
v -13.28708627 125.15901109 50.40714699
v -15.68309290 129.97521949 49.61180709
v -15.68309290 125.15901109 49.62537707
v -15.68309290 117.91881651 49.64166537
v -15.68309290 113.09202252 49.64709480
v -15.68309290 96.19824534 49.65252424
v -15.68309290 88.95805256 49.65252424
v -15.68309290 57.60505920 49.64438009
v -15.68309290 50.36486821 49.64166537
v -15.68309290 45.53807242 49.63895065
v -15.68309290 40.71127843 49.63352122
v -15.68309290 31.05768865 49.61995124
v -15.68309290 26.23089466 49.61180709
v -13.27330324 31.05768865 50.23884898
v -11.81915837 33.47108924 50.61073272
v -11.77551167 26.23089466 50.59987386
v -13.27330324 26.23089466 50.22256428
v -11.76861970 25.26765586 50.59715914
v -27.30705958 25.26765586 24.21248099
v -3.83859418 120.33221710 36.42761036
v -3.83859418 125.15901109 51.75623864
v -8.44683016 127.57240449 51.14277034
v -12.01212614 129.97521949 50.66502345
v -10.40866200 131.47830206 50.77088659
v -17.53695454 131.76409874 48.53687660
v -24.23796516 131.33011092 45.89297683
v -17.86545856 129.97521949 48.67802745
v -19.20933652 81.71786157 48.21928358
v -18.02856266 72.07485783 48.74860647
v -18.04923765 64.84525109 48.75674703
v -18.09058763 50.36486821 48.77303532
v -18.09747870 45.53807242 48.78117588
v -18.09747870 43.12467543 48.78660531
v -18.09747870 40.71127843 48.78932362
v -18.09747870 35.88448444 48.78932362
v -18.09747870 25.26765586 48.78660531
v -16.64333473 25.26765586 49.28335521
v -15.68309290 25.26765586 49.60637766
v -14.23124655 25.26765586 49.97554669
v -27.30705958 118.39514671 24.43778265
v -27.30705958 25.26765586 44.35115832
v -27.30705958 120.33221710 24.44321208
v -3.83859418 120.54391462 36.46832751
v -3.83859418 127.57240449 51.74538337
v -8.44683016 129.97521949 51.13191147
v -8.44683016 131.78526993 50.89846746
v -15.68309290 132.15574418 48.93318919
v -3.83859418 129.97521949 51.73452451
v -22.92165506 131.79585553 46.17528573
v -27.25422330 131.88053310 43.92498385
v -27.30705958 131.60532201 43.96298987
v -27.30705958 129.97521949 44.34844360
v -25.50373660 129.97521949 45.37994223
v -24.29769431 129.97521949 45.91740928
v -20.50956688 129.97521949 47.54338039
v -19.12663656 110.67862912 48.18399586
v -22.92165506 125.15901109 46.52002232
v -22.92165506 110.67862912 46.55531003
v -19.28973886 52.77826521 48.25457129
v -19.31730671 43.12467543 48.26543016
v -19.32190016 40.71127843 48.26814128
v -19.32190016 38.29788144 48.26814128
v -19.31500909 25.26765586 48.26543016
v -19.31960254 35.88448444 48.26814128
v -25.52900683 25.26765586 45.37451280
v -27.30705958 26.23089466 44.35387303
v -27.30705958 122.84088085 25.34713164
v -3.83859418 122.73502490 36.94335968
v -6.03474288 132.03930983 51.05590661
v -13.27330324 132.28276413 49.32407235
v -15.68309290 133.26718131 47.05205993
v -22.92165506 132.89669987 44.63889305
v -20.50956688 132.24042894 46.69374976
v -3.83859418 132.16632978 51.19977578
v -25.15915283 132.13457299 44.69318018
v -27.30705958 131.93346107 43.81097656
v -27.30705958 131.81701953 43.90598443
v -25.51062946 127.57240449 45.38265695
v -27.30705958 127.92171474 44.35115832
v -25.52900683 120.33221710 45.38537166
v -25.52211397 122.74561050 45.38537166
v -24.32755619 117.91881651 45.93369398
v -24.34363773 110.67862912 45.94183813
v -24.36201510 101.02504113 45.95269699
v -24.36201510 96.19824534 45.95269699
v -24.35971928 91.37144955 45.95269699
v -21.47669797 25.26765586 47.26107149
v -24.35742166 88.95805256 45.95269699
v -24.32296274 25.26765586 45.93641229
v -25.53130445 31.05768865 45.37722752
v -27.30705958 38.29788144 44.36473190
v -27.30705958 31.43875569 44.35930247
v -27.30705958 122.86205204 25.35527579
v -3.83859418 124.73560887 38.04000790
v -6.03474288 133.14015417 49.46522680
v -8.44683016 132.88611428 49.46522680
v -3.83859418 133.26718131 49.46522680
v -13.27330324 133.38361567 47.05205993
v -20.50956688 133.34127329 44.63889305
v -27.30705958 132.69558076 42.37773590
v -25.33603906 133.37303007 42.22572618
v -27.30705958 125.50832134 44.35387303
v -25.53360207 117.91881651 45.38537166
v -25.56805919 101.02504113 45.38265695
v -25.57035681 98.61164054 45.38265695
v -25.56346395 86.54465556 45.38265695
v -25.55657289 74.48825528 45.38265695
v -25.53819552 40.71127843 45.37994223
v -23.47758397 25.26765586 46.33000657
v -27.30705958 82.09892501 44.36473190
v -27.30705958 123.99465318 26.18861812
v -3.83859418 131.99696745 42.84462392
v -3.83859418 130.20808820 41.63939784
v -3.83859418 133.39420126 47.05205993
v -10.85891834 133.39420126 47.05205993
v -18.09747870 133.39420126 44.63889305
v -27.30705958 133.39420126 39.81255931
v -22.92165506 133.39420126 42.22572618
v -27.30705958 120.68152016 44.35658775
v -27.30705958 113.09202252 44.35930247
v -27.30705958 103.43843453 44.36201718
v -27.30705958 130.44096409 32.04373579
v -27.30705958 131.73234196 33.23538828
v -3.83859418 132.10282340 43.01020722
v -27.30705958 133.36244448 37.40210715
v -25.33603906 133.40478686 39.81255931
v -3.83859418 133.10840458 44.63889305
v -27.30705958 132.80143671 34.98351084
v -25.33603906 133.21425334 37.40210715
f 1 2 3
f 1 3 4
f 1 4 5
f 1 5 6
f 1 6 14
f 1 14 25
f 1 25 24
f 1 24 44
f 1 44 70
f 1 70 93
f 1 93 118
f 1 118 144
f 1 144 163
f 1 163 162
f 1 162 174
f 1 174 177
f 1 177 164
f 1 164 147
f 1 147 124
f 1 124 98
f 1 98 94
f 1 94 71
f 1 71 46
f 1 46 45
f 1 45 28
f 1 28 26
f 1 26 15
f 1 15 7
f 1 7 2
f 2 7 3
f 3 8 17
f 3 17 9
f 3 9 4
f 3 7 8
f 4 10 11
f 4 11 12
f 4 12 5
f 4 9 10
f 5 12 11
f 5 11 21
f 5 21 38
f 5 38 68
f 5 68 89
f 5 89 88
f 5 88 87
f 5 87 86
f 5 86 113
f 5 113 137
f 5 137 159
f 5 159 139
f 5 139 115
f 5 115 91
f 5 91 69
f 5 69 44
f 5 44 24
f 5 24 13
f 5 13 14
f 5 14 6
f 7 15 8
f 8 16 17
f 8 15 26
f 8 26 16
f 9 17 18
f 9 18 10
f 10 18 11
f 11 19 20
f 11 20 21
f 11 18 22
f 11 22 23
f 11 23 19
f 13 24 25
f 13 25 14
f 16 27 17
f 16 26 28
f 16 28 27
f 17 27 29
f 17 29 30
f 17 30 31
f 17 31 18
f 18 31 32
f 18 32 33
f 18 33 34
f 18 34 35
f 18 35 36
f 18 36 22
f 19 23 20
f 20 37 38
f 20 38 21
f 20 23 37
f 22 36 39
f 22 39 40
f 22 40 41
f 22 41 23
f 23 41 42
f 23 42 43
f 23 43 37
f 27 28 45
f 27 45 46
f 27 46 29
f 29 46 71
f 29 71 47
f 29 47 48
f 29 48 30
f 30 48 49
f 30 49 50
f 30 50 31
f 31 50 49
f 31 49 51
f 31 51 32
f 32 51 49
f 32 49 52
f 32 52 33
f 33 52 53
f 33 53 54
f 33 54 34
f 34 54 55
f 34 55 35
f 35 55 36
f 36 55 56
f 36 56 57
f 36 57 58
f 36 58 59
f 36 59 60
f 36 60 61
f 36 61 62
f 36 62 39
f 37 63 64
f 37 64 65
f 37 65 38
f 37 43 63
f 38 64 66
f 38 66 67
f 38 67 68
f 38 65 64
f 39 62 63
f 39 63 40
f 40 63 41
f 41 63 42
f 42 63 43
f 44 69 70
f 47 71 72
f 47 72 48
f 48 72 73
f 48 73 49
f 49 73 74
f 49 74 75
f 49 75 52
f 52 75 76
f 52 76 77
f 52 77 53
f 53 77 78
f 53 78 79
f 53 79 80
f 53 80 81
f 53 81 82
f 53 82 83
f 53 83 54
f 54 83 84
f 54 84 55
f 55 84 56
f 56 84 85
f 56 85 57
f 57 85 86
f 57 86 58
f 58 86 59
f 59 86 60
f 60 86 61
f 61 86 62
f 62 86 87
f 62 87 63
f 63 87 88
f 63 88 89
f 63 89 67
f 63 67 64
f 64 67 66
f 67 89 68
f 69 90 70
f 69 91 116
f 69 116 142
f 69 142 141
f 69 141 160
f 69 160 171
f 69 171 170
f 69 170 169
f 69 169 152
f 69 152 129
f 69 129 102
f 69 102 101
f 69 101 127
f 69 127 126
f 69 126 150
f 69 150 167
f 69 167 175
f 69 175 178
f 69 178 173
f 69 173 172
f 69 172 161
f 69 161 143
f 69 143 117
f 69 117 92
f 69 92 90
f 70 90 92
f 70 92 93
f 71 94 72
f 72 94 98
f 72 98 95
f 72 95 73
f 73 95 74
f 74 96 97
f 74 97 75
f 74 95 98
f 74 98 96
f 75 99 76
f 75 97 99
f 76 99 100
f 76 100 101
f 76 101 102
f 76 102 103
f 76 103 104
f 76 104 105
f 76 105 77
f 77 105 106
f 77 106 78
f 78 106 105
f 78 105 107
f 78 107 108
f 78 108 109
f 78 109 79
f 79 109 80
f 80 109 110
f 80 110 81
f 81 110 82
f 82 110 83
f 83 110 111
f 83 111 84
f 84 111 112
f 84 112 85
f 85 112 86
f 86 112 114
f 86 114 113
f 91 115 116
f 92 117 118
f 92 118 93
f 96 98 119
f 96 119 120
f 96 120 97
f 97 120 121
f 97 121 122
f 97 122 123
f 97 123 99
f 98 124 119
f 99 123 125
f 99 125 100
f 100 126 127
f 100 127 101
f 100 125 126
f 102 128 103
f 102 129 130
f 102 130 131
f 102 131 128
f 103 128 132
f 103 132 104
f 104 107 105
f 104 132 108
f 104 108 107
f 108 132 109
f 109 132 110
f 110 132 133
f 110 133 134
f 110 134 111
f 111 134 135
f 111 135 112
f 112 135 136
f 112 136 138
f 112 138 114
f 113 114 138
f 113 138 137
f 115 139 140
f 115 140 141
f 115 141 142
f 115 142 116
f 117 143 118
f 118 143 144
f 119 124 145
f 119 145 146
f 119 146 120
f 120 146 121
f 121 145 147
f 121 147 148
f 121 148 149
f 121 149 122
f 121 146 145
f 122 150 126
f 122 126 125
f 122 125 123
f 122 149 151
f 122 151 150
f 124 147 145
f 128 131 134
f 128 134 133
f 128 133 132
f 129 152 130
f 130 152 153
f 130 153 134
f 130 134 131
f 134 153 154
f 134 154 155
f 134 155 135
f 135 155 136
f 136 155 156
f 136 156 157
f 136 157 158
f 136 158 138
f 137 158 159
f 137 138 158
f 139 159 158
f 139 158 140
f 140 158 141
f 141 158 157
f 141 157 156
f 141 156 155
f 141 155 160
f 143 161 162
f 143 162 163
f 143 163 144
f 147 164 165
f 147 165 148
f 148 165 166
f 148 166 151
f 148 151 149
f 150 151 167
f 151 166 168
f 151 168 167
f 152 169 154
f 152 154 153
f 154 169 155
f 155 169 170
f 155 170 171
f 155 171 160
f 161 172 162
f 162 172 173
f 162 173 174
f 164 175 176
f 164 176 165
f 164 177 175
f 165 176 166
f 166 176 168
f 167 168 176
f 167 176 175
f 173 178 177
f 173 177 174
f 175 177 179
f 175 179 178
f 177 178 179

