# https://github.com/mikedh/trimesh
v 3.54109366 16.57376855 121.95328847
v 3.54109366 2.02398333 121.95328847
v 3.54109366 18.38272952 121.33242031
v -119.43387372 16.57376855 121.95328847
v -119.43387372 2.09773012 121.95328847
v -119.43387372 -0.16021611 121.30853081
v 3.54109366 -0.16021611 121.30853081
v 3.54109366 18.44346365 121.30853081
v -119.43387372 18.44346365 121.30853081
v -121.08025015 18.22222328 121.06973647
v -121.30141142 16.57376855 121.30853081
v -121.30141142 2.09773012 121.30853081
v -121.08025015 0.19116523 121.06973647
v -119.43387372 -1.24039266 119.42204403
v -117.02572997 -1.26858975 119.42204403
v 3.54109366 -1.26858975 119.42204403
v 3.54109366 20.82938268 116.72364499
v -119.43387372 19.10501299 119.42204403
v -49.47489191 20.82938268 116.72364499
v -121.30141142 18.44346365 119.42204403
v -121.96488084 16.57376855 119.42204403
v -121.97716359 14.15964883 119.42204403
v -121.97716359 2.09773012 119.42204403
v -121.30141142 -0.16021611 119.42204403
v -119.43387372 -1.26858975 117.01020395
v -117.02572997 -1.32498393 117.01020395
v 3.54109366 -1.27075433 119.35040429
v 3.54109366 20.83155086 36.32092022
v -51.12127554 20.82938268 116.24605631
v -116.25167991 20.82938268 51.10241275
v -116.73085067 20.82938268 49.45472031
v -121.30141142 18.44346365 -119.42204403
v -121.96488084 16.57376855 -119.42204403
v -121.97716359 14.15964883 -119.42204403
v -121.97716359 2.09773012 -119.42204403
v -121.30141142 -0.16021611 -119.42204403
v -119.43387372 -1.26858975 -117.01020395
v 3.54109366 -1.32498393 117.01020395
v -117.02572997 -1.32498393 -117.01020395
v 3.54109366 20.82938268 -52.12923704
v 2.00528348 20.82938268 -52.24863781
v 1.19438519 20.82938268 -52.27251652
v -61.52788622 20.82938268 -52.32027755
v -112.19715972 20.82938268 -52.32027755
v -114.71587692 20.82938268 -51.93820013
v -116.25167991 20.82938268 -51.10241275
v -116.73085067 20.82938268 -49.45472031
v -119.43387372 19.10501299 -119.42204403
v -121.08025015 18.22222328 -121.06973647
v -121.30141142 16.57376855 -121.30853081
v -121.30141142 2.09773012 -121.30853081
v -121.08025015 0.19116523 -121.06973647
v -119.43387372 -1.24039266 -119.42204403
v 3.54109366 -1.32498393 -117.10571881
v -117.02572997 -1.26858975 -119.42204403
v 3.54109366 19.10501299 -119.42204403
v -119.43387372 18.44346365 -121.30853081
v -119.43387372 16.57376855 -121.95328847
v -119.43387372 2.09773012 -121.95328847
v -119.43387372 -0.16021611 -121.30853081
v 3.54109366 -1.26858975 -119.42204403
v 3.54109366 -1.23388453 -119.49368377
v 3.54109366 18.44346365 -121.30853081
v 3.54109366 16.63449909 -121.95328847
v 3.54109366 2.09773012 -121.95328847
v 3.54109366 -0.08646932 -121.33242031
v 3.54109366 -0.16021611 -121.30853081
f 1 2 7
f 1 7 16
f 1 16 27
f 1 27 38
f 1 38 54
f 1 54 61
f 1 61 62
f 1 62 67
f 1 67 66
f 1 66 65
f 1 65 64
f 1 64 63
f 1 63 56
f 1 56 40
f 1 40 28
f 1 28 17
f 1 17 8
f 1 8 3
f 1 3 4
f 1 4 5
f 1 5 2
f 2 5 6
f 2 6 7
f 3 8 9
f 3 9 4
f 4 9 10
f 4 10 11
f 4 11 12
f 4 12 5
f 5 12 13
f 5 13 6
f 6 13 14
f 6 14 15
f 6 15 16
f 6 16 7
f 8 17 19
f 8 19 9
f 9 18 10
f 9 19 18
f 10 18 20
f 10 20 21
f 10 21 11
f 11 21 22
f 11 22 23
f 11 23 12
f 12 23 13
f 13 23 24
f 13 24 14
f 14 24 25
f 14 25 26
f 14 26 15
f 15 26 27
f 15 27 16
f 17 28 19
f 18 19 29
f 18 29 30
f 18 30 31
f 18 31 20
f 19 28 29
f 20 31 47
f 20 47 32
f 20 32 33
f 20 33 21
f 21 33 34
f 21 34 22
f 22 34 35
f 22 35 23
f 23 35 36
f 23 36 24
f 24 36 37
f 24 37 25
f 25 37 39
f 25 39 26
f 26 38 27
f 26 39 54
f 26 54 38
f 28 31 30
f 28 30 29
f 28 40 41
f 28 41 42
f 28 42 43
f 28 43 44
f 28 44 45
f 28 45 46
f 28 46 47
f 28 47 31
f 32 47 48
f 32 48 49
f 32 49 33
f 33 49 50
f 33 50 34
f 34 50 51
f 34 51 35
f 35 51 52
f 35 52 36
f 36 52 53
f 36 53 37
f 37 53 39
f 39 53 55
f 39 55 54
f 40 56 41
f 41 56 42
f 42 56 43
f 43 56 48
f 43 48 44
f 44 48 45
f 45 48 46
f 46 48 47
f 48 56 63
f 48 63 57
f 48 57 49
f 49 57 58
f 49 58 50
f 50 58 59
f 50 59 51
f 51 59 52
f 52 59 60
f 52 60 53
f 53 60 55
f 54 55 61
f 55 60 62
f 55 62 61
f 57 63 64
f 57 64 58
f 58 64 65
f 58 65 59
f 59 65 66
f 59 66 60
f 60 66 67
f 60 67 62

