mtllib material.mtl
usemtl grey.007
v -0.01994200 0.00830000 0.00795900
v -0.01994200 0.01250000 0.00795900
v -0.01994200 0.01250000 0.00795900
v -0.02033900 0.01250000 0.00706800
v -0.02033900 0.01250000 0.00706800
v -0.02033900 0.00830000 0.00706800
v -0.02036500 0.01250000 0.00609300
v -0.02036500 0.01250000 0.00609300
v -0.02036500 0.00830000 0.00609300
v -0.02001600 0.01250000 0.00518200
v -0.02001600 0.01250000 0.00518200
v -0.02001600 0.00830000 0.00518200
v -0.01934500 0.01250000 0.00447500
v -0.01934500 0.01250000 0.00447500
v -0.01934500 0.00830000 0.00447500
v -0.01845400 0.01250000 0.00407700
v -0.01845400 0.01250000 0.00407700
v -0.01845400 0.00830000 0.00407700
v -0.01747900 0.01250000 0.00405100
v -0.01747900 0.01250000 0.00405100
v -0.01747900 0.00830000 0.00405100
v -0.01656800 0.01250000 0.00440000
v -0.01656800 0.01250000 0.00440000
v -0.01656800 0.00830000 0.00440000
v -0.01586000 0.01250000 0.00507200
v -0.01586000 0.01250000 0.00507200
v -0.01586000 0.00830000 0.00507200
v -0.01602400 0.01270000 0.00518700
v -0.01602400 0.01270000 0.00518700
v -0.01667500 0.01270000 0.00457000
v -0.01667500 0.01270000 0.00457000
v -0.01751300 0.01270000 0.00424800
v -0.01751300 0.01270000 0.00424800
v -0.01841000 0.01270000 0.00427200
v -0.01841000 0.01270000 0.00427200
v -0.01922900 0.01270000 0.00463800
v -0.01922900 0.01270000 0.00463800
v -0.01984700 0.01270000 0.00528900
v -0.01984700 0.01270000 0.00528900
v -0.02016800 0.01270000 0.00612700
v -0.02016800 0.01270000 0.00612700
v -0.02014400 0.01270000 0.00702400
v -0.02014400 0.01270000 0.00702400
v -0.01977900 0.01270000 0.00784400
v -0.01977900 0.01270000 0.00784400
v -0.01565800 0.01270000 0.00600700
v -0.01565800 0.01270000 0.00600700
v -0.01829000 0.01270000 0.00878200
v -0.01829000 0.01270000 0.00878200
v -0.01739200 0.01270000 0.00875800
v -0.01739200 0.01270000 0.00875800
v -0.01912700 0.01270000 0.00846100
v -0.01912700 0.01270000 0.00846100
v -0.01563400 0.01270000 0.00690400
v -0.01563400 0.01270000 0.00690400
v -0.01595500 0.01270000 0.00774200
v -0.01595500 0.01270000 0.00774200
v -0.01657300 0.01270000 0.00839300
v -0.01657300 0.01270000 0.00839300
v -0.01734800 0.00830000 0.00895400
v -0.01645700 0.00830000 0.00855600
v -0.01578600 0.00830000 0.00784800
v -0.01543700 0.00830000 0.00693800
v -0.01923400 0.00830000 0.00863000
v -0.01832300 0.00830000 0.00898000
v -0.01546300 0.00830000 0.00596300
v -0.01734800 -0.00990000 0.00895400
v -0.01832300 -0.00990000 0.00898000
v -0.01923400 -0.00990000 0.00863000
v -0.01543700 -0.00990000 0.00693800
v -0.01578600 -0.00990000 0.00784800
v -0.01645700 -0.00990000 0.00855600
v -0.01656800 -0.00990000 0.00440000
v -0.01586000 -0.00990000 0.00507200
v -0.01546300 -0.00990000 0.00596300
v -0.02036500 -0.00990000 0.00609300
v -0.02001600 -0.00990000 0.00518200
v -0.01934500 -0.00990000 0.00447500
v -0.01845400 -0.00990000 0.00407700
v -0.01994200 -0.00990000 0.00795900
v -0.02033900 -0.00990000 0.00706800
v -0.01747900 -0.00990000 0.00405100
v -0.01994200 -0.01410000 0.00795900
v -0.01994200 -0.01410000 0.00795900
v -0.02033900 -0.01410000 0.00706800
v -0.02033900 -0.01410000 0.00706800
v -0.02036500 -0.01410000 0.00609300
v -0.02036500 -0.01410000 0.00609300
v -0.02001600 -0.01410000 0.00518200
v -0.02001600 -0.01410000 0.00518200
v -0.01934500 -0.01410000 0.00447500
v -0.01934500 -0.01410000 0.00447500
v -0.01845400 -0.01410000 0.00407700
v -0.01845400 -0.01410000 0.00407700
v -0.01747900 -0.01410000 0.00405100
v -0.01747900 -0.01410000 0.00405100
v -0.01656800 -0.01410000 0.00440000
v -0.01656800 -0.01410000 0.00440000
v -0.01586000 -0.01410000 0.00507200
v -0.01586000 -0.01410000 0.00507200
v -0.01977900 -0.01430000 0.00784400
v -0.01977900 -0.01430000 0.00784400
v -0.02014400 -0.01430000 0.00702400
v -0.02014400 -0.01430000 0.00702400
v -0.02016800 -0.01430000 0.00612700
v -0.02016800 -0.01430000 0.00612700
v -0.01984700 -0.01430000 0.00528900
v -0.01984700 -0.01430000 0.00528900
v -0.01922900 -0.01430000 0.00463800
v -0.01922900 -0.01430000 0.00463800
v -0.01841000 -0.01430000 0.00427200
v -0.01841000 -0.01430000 0.00427200
v -0.01751300 -0.01430000 0.00424800
v -0.01751300 -0.01430000 0.00424800
v -0.01667500 -0.01430000 0.00457000
v -0.01667500 -0.01430000 0.00457000
v -0.01602400 -0.01430000 0.00518700
v -0.01602400 -0.01430000 0.00518700
v -0.01912700 -0.01430000 0.00846100
v -0.01912700 -0.01430000 0.00846100
v -0.01565800 -0.01430000 0.00600700
v -0.01565800 -0.01430000 0.00600700
v -0.01563400 -0.01430000 0.00690400
v -0.01563400 -0.01430000 0.00690400
v -0.01739200 -0.01430000 0.00875800
v -0.01739200 -0.01430000 0.00875800
v -0.01829000 -0.01430000 0.00878200
v -0.01829000 -0.01430000 0.00878200
v -0.01657300 -0.01430000 0.00839300
v -0.01657300 -0.01430000 0.00839300
v -0.01595500 -0.01430000 0.00774200
v -0.01595500 -0.01430000 0.00774200
v -0.01140100 -0.00080000 0.01833700
v -0.01211900 0.00111100 0.01951500
v -0.01211900 0.00111100 0.01951500
v -0.01287800 0.00061100 0.01951500
v -0.01287800 0.00061100 0.01951500
v -0.01287800 0.00061100 0.01951500
v -0.01121900 0.00123400 0.01951500
v -0.01121900 0.00123400 0.01951500
v -0.01121900 0.00123400 0.01951500
v -0.01334300 -0.00017000 0.01951500
v -0.01334300 -0.00017000 0.01951500
v -0.01342500 -0.00107500 0.01951500
v -0.01342500 -0.00107500 0.01951500
v -0.01307100 0.00037500 0.01951500
v -0.01307100 0.00037500 0.01951500
v -0.01307100 0.00037500 0.01951500
v -0.01307100 0.00037500 0.01951500
v -0.01307100 0.00037500 0.01951500
v -0.01307100 0.00037500 0.01951500
v -0.01244800 -0.00255300 0.01951500
v -0.01244800 -0.00255300 0.01951500
v -0.01158300 -0.00283400 0.01951500
v -0.01158300 -0.00283400 0.01951500
v -0.01158300 -0.00283400 0.01951500
v -0.01310500 -0.00192600 0.01951500
v -0.01310500 -0.00192600 0.01951500
v -0.01310500 -0.00192600 0.01951500
v -0.01325400 -0.00165900 0.01951500
v -0.01325400 -0.00165900 0.01951500
v -0.01325400 -0.00165900 0.01951500
v -0.01325400 -0.00165900 0.01951500
v -0.01325400 -0.00165900 0.01951500
v -0.01275800 -0.00272900 0.01951500
v -0.01275800 -0.00272900 0.01951500
v -0.01275800 -0.00272900 0.01951500
v -0.01275800 -0.00272900 0.01951500
v -0.01375000 -0.00059000 0.01951500
v -0.01375000 -0.00059000 0.01951500
v -0.01375000 -0.00059000 0.01951500
v -0.01239300 0.00133900 0.01951500
v -0.01239300 0.00133900 0.01951500
v -0.01239300 0.00133900 0.01951500
v -0.01239300 0.00133900 0.01951500
v -0.01035500 0.00095300 0.01951500
v -0.01035500 0.00095300 0.01951500
v -0.01004500 0.00112900 0.01951500
v -0.01004500 0.00112900 0.01951500
v -0.01004500 0.00112900 0.01951500
v -0.00969700 0.00032600 0.01951500
v -0.00969700 0.00032600 0.01951500
v -0.00954900 0.00005900 0.01951500
v -0.00954900 0.00005900 0.01951500
v -0.00954900 0.00005900 0.01951500
v -0.00937800 -0.00052500 0.01951500
v -0.00937800 -0.00052500 0.01951500
v -0.00905300 -0.00101000 0.01951500
v -0.00905300 -0.00101000 0.01951500
v -0.00905300 -0.00101000 0.01951500
v -0.00945900 -0.00143000 0.01951500
v -0.00945900 -0.00143000 0.01951500
v -0.00973100 -0.00197500 0.01951500
v -0.00973100 -0.00197500 0.01951500
v -0.00973100 -0.00197500 0.01951500
v -0.00992500 -0.00221000 0.01951500
v -0.00992500 -0.00221000 0.01951500
v -0.01040900 -0.00293900 0.01951500
v -0.01040900 -0.00293900 0.01951500
v -0.01040900 -0.00293900 0.01951500
v -0.01068300 -0.00271100 0.01951500
v -0.01068300 -0.00271100 0.01951500
v -0.01375000 -0.00059000 0.02201500
v -0.01375000 -0.00059000 0.02201500
v -0.01375000 -0.00059000 0.02201500
v -0.01375000 -0.00059000 0.02201500
v -0.01275800 -0.00272900 0.02201500
v -0.01275800 -0.00272900 0.02201500
v -0.01275800 -0.00272900 0.02201500
v -0.01275800 -0.00272900 0.02201500
v -0.01040900 -0.00293900 0.02201500
v -0.01040900 -0.00293900 0.02201500
v -0.01040900 -0.00293900 0.02201500
v -0.00905300 -0.00101000 0.02201500
v -0.00905300 -0.00101000 0.02201500
v -0.00905300 -0.00101000 0.02201500
v -0.01004500 0.00112900 0.02201500
v -0.01004500 0.00112900 0.02201500
v -0.01004500 0.00112900 0.02201500
v -0.01239300 0.00133900 0.02201500
v -0.01239300 0.00133900 0.02201500
v -0.01239300 0.00133900 0.02201500
v -0.01239300 0.00133900 0.02201500
v -0.00922000 -0.00444700 0.02176500
v -0.00905800 -0.00434600 0.02176500
v -0.00906900 -0.00433000 0.02186100
v -0.00819900 -0.00359500 0.02176500
v -0.00775200 -0.00297800 0.02176500
v -0.00776800 -0.00296800 0.02186100
v -0.00860600 0.00240200 0.02176500
v -0.00922300 0.00284900 0.02176500
v -0.00923300 0.00283300 0.02186100
v -0.00973200 0.00310900 0.02176500
v -0.01009000 0.00324200 0.02176500
v -0.01009500 0.00322400 0.02186100
v -0.00787100 0.00153200 0.02186100
v -0.00791600 0.00150200 0.02194200
v -0.00749100 0.00066900 0.02194200
v -0.00798400 0.00145800 0.02199600
v -0.00756700 0.00064100 0.02199600
v -0.01085000 -0.00485800 0.02199600
v -0.01086300 -0.00476400 0.02201500
v -0.01175800 -0.00478400 0.02201500
v -0.00806400 0.00140500 0.02201500
v -0.00765700 0.00060700 0.02201500
v -0.01011200 0.00317300 0.02194200
v -0.01103300 0.00330900 0.02198200
v -0.01013700 0.00309600 0.02199600
v -0.01104400 0.00318400 0.02201500
v -0.01016700 0.00300500 0.02201500
v -0.00743800 -0.00026100 0.02201500
v -0.00734300 -0.00024900 0.02199600
v -0.00741700 -0.00115700 0.02201500
v -0.00732200 -0.00116500 0.02199600
v -0.00759600 -0.00203400 0.02201500
v -0.00750500 -0.00206400 0.02199600
v -0.00726200 -0.00023800 0.02194200
v -0.00724100 -0.00117300 0.02194200
v -0.00742800 -0.00208900 0.02194200
v -0.00919600 -0.00413700 0.02201500
v -0.00999400 -0.00454400 0.02201500
v -0.00914300 -0.00421700 0.02199600
v -0.00996000 -0.00463400 0.02199600
v -0.00909900 -0.00428500 0.02194200
v -0.00993200 -0.00471000 0.02194200
v -0.01083900 -0.00493900 0.02194200
v -0.01102500 0.00340000 0.02189000
v -0.01102800 0.00336000 0.02194200
v -0.00744100 0.00068800 0.02186100
v -0.00720900 -0.00023000 0.02186100
v -0.00718700 -0.00117700 0.02186100
v -0.00737700 -0.00210600 0.02186100
v -0.01176600 -0.00487900 0.02199600
v -0.01176900 -0.00490900 0.02198200
v -0.01177400 -0.00496000 0.02194200
v -0.01177700 -0.00500000 0.02189000
v -0.00991300 -0.00476100 0.02186100
v -0.01083100 -0.00499200 0.02186100
v -0.01177900 -0.00501400 0.02186100
v -0.01102200 0.00343300 0.02176500
v -0.01102400 0.00341400 0.02186100
v -0.00935100 0.00263500 0.02201500
v -0.00930200 0.00271700 0.02199600
v -0.00926000 0.00278600 0.02194200
v -0.00846500 0.00227300 0.02176500
v -0.00847900 0.00225900 0.02186100
v -0.00851600 0.00222000 0.02194200
v -0.00857200 0.00216200 0.02199600
v -0.00863800 0.00209200 0.02201500
v -0.00785500 0.00154300 0.02176500
v -0.00749200 -0.00246900 0.02176500
v -0.00735900 -0.00211200 0.02176500
v -0.00716800 -0.00117900 0.02176500
v -0.00719000 -0.00022800 0.02176500
v -0.00725800 0.00014700 0.02176500
v -0.00742300 0.00069500 0.02176500
v -0.00775400 0.00138100 0.02176500
v -0.00796600 -0.00285000 0.02201500
v -0.00788400 -0.00289900 0.02199600
v -0.00781500 -0.00294100 0.02194200
v -0.00832800 -0.00373600 0.02176500
v -0.00834200 -0.00372300 0.02186100
v -0.00838100 -0.00368500 0.02194200
v -0.00844000 -0.00362900 0.02199600
v -0.00850900 -0.00356300 0.02201500
v -0.00990600 -0.00477800 0.02176500
v -0.01045400 -0.00494300 0.02176500
v -0.01082900 -0.00501100 0.02176500
v -0.01178000 -0.00503300 0.02176500
v -0.01563400 -0.00042100 0.01701500
v -0.01554400 -0.00174700 0.01701500
v -0.01504900 -0.00298100 0.01701500
v -0.01419600 -0.00400200 0.01701500
v -0.01307000 -0.00470900 0.01701500
v -0.01178000 -0.00503300 0.01701500
v -0.01045400 -0.00494300 0.01701500
v -0.00922000 -0.00444700 0.01701500
v -0.00819900 -0.00359500 0.01701500
v -0.00749200 -0.00246900 0.01701500
v -0.00716800 -0.00117900 0.01701500
v -0.00725800 0.00014700 0.01701500
v -0.00775400 0.00138100 0.01701500
v -0.00860600 0.00240200 0.01701500
v -0.00973200 0.00310900 0.01701500
v -0.01102200 0.00343300 0.01701500
v -0.01234900 0.00334300 0.01701500
v -0.01358200 0.00284700 0.01701500
v -0.01460300 0.00199500 0.01701500
v -0.01531000 0.00086900 0.01701500
v -0.01167200 0.00319100 0.02201500
v -0.01229300 0.00309900 0.02201500
v -0.01289200 0.00291200 0.02201500
v -0.01345400 0.00263300 0.02201500
v -0.01297200 -0.00447900 0.02201500
v -0.01237700 -0.00467900 0.02201500
v -0.01447100 -0.00336500 0.02201500
v -0.01403200 -0.00381300 0.02201500
v -0.01352800 -0.00418800 0.02201500
v -0.01508000 0.00077100 0.02201500
v -0.01528000 0.00017600 0.02201500
v -0.01538500 -0.00044300 0.02201500
v -0.01539200 -0.00107100 0.02201500
v -0.01530000 -0.00169200 0.02201500
v -0.01511300 -0.00229100 0.02201500
v -0.01483400 -0.00285300 0.02201500
v -0.01396600 0.00226900 0.02201500
v -0.01441500 0.00183000 0.02201500
v -0.01478900 0.00132700 0.02201500
v 0.00216900 0.00830000 0.00124300
v 0.00248000 0.00830000 0.00031800
v 0.00241300 0.00830000 -0.00065500
v 0.00197800 0.00830000 -0.00152900
v 0.00124300 0.00830000 -0.00216900
v 0.00031800 0.00830000 -0.00248000
v -0.00065500 0.00830000 -0.00241300
v 0.00065500 0.00830000 0.00241300
v 0.00152900 0.00830000 0.00197800
v -0.00197800 0.00830000 0.00152900
v -0.00124300 0.00830000 0.00216900
v -0.00031800 0.00830000 0.00248000
v -0.00216900 0.00830000 -0.00124300
v -0.00248000 0.00830000 -0.00031800
v -0.00241300 0.00830000 0.00065500
v -0.00152900 0.00830000 -0.00197800
v -0.00197800 0.01250000 0.00152900
v -0.00197800 0.01250000 0.00152900
v -0.00124300 0.01250000 0.00216900
v -0.00124300 0.01250000 0.00216900
v -0.00031800 0.01250000 0.00248000
v -0.00031800 0.01250000 0.00248000
v 0.00065500 0.01250000 0.00241300
v 0.00065500 0.01250000 0.00241300
v 0.00152900 0.01250000 0.00197800
v 0.00152900 0.01250000 0.00197800
v 0.00216900 0.01250000 0.00124300
v 0.00216900 0.01250000 0.00124300
v 0.00248000 0.01250000 0.00031800
v 0.00248000 0.01250000 0.00031800
v 0.00241300 0.01250000 -0.00065500
v 0.00241300 0.01250000 -0.00065500
v 0.00197800 0.01250000 -0.00152900
v 0.00197800 0.01250000 -0.00152900
v -0.00182000 0.01270000 0.00140600
v -0.00182000 0.01270000 0.00140600
v -0.00114300 0.01270000 0.00199600
v -0.00114300 0.01270000 0.00199600
v -0.00029300 0.01270000 0.00228100
v -0.00029300 0.01270000 0.00228100
v 0.00060300 0.01270000 0.00222000
v 0.00060300 0.01270000 0.00222000
v 0.00140600 0.01270000 0.00182000
v 0.00140600 0.01270000 0.00182000
v 0.00199600 0.01270000 0.00114300
v 0.00199600 0.01270000 0.00114300
v 0.00228100 0.01270000 0.00029300
v 0.00228100 0.01270000 0.00029300
v 0.00222000 0.01270000 -0.00060300
v 0.00222000 0.01270000 -0.00060300
v 0.00182000 0.01270000 -0.00140600
v 0.00182000 0.01270000 -0.00140600
v 0.00114300 0.01270000 -0.00199600
v 0.00114300 0.01270000 -0.00199600
v 0.00029300 0.01270000 -0.00228100
v 0.00029300 0.01270000 -0.00228100
v -0.00222000 0.01270000 0.00060300
v -0.00222000 0.01270000 0.00060300
v -0.00228100 0.01270000 -0.00029300
v -0.00228100 0.01270000 -0.00029300
v -0.00199600 0.01270000 -0.00114300
v -0.00199600 0.01270000 -0.00114300
v -0.00140600 0.01270000 -0.00182000
v -0.00140600 0.01270000 -0.00182000
v -0.00060300 0.01270000 -0.00222000
v -0.00060300 0.01270000 -0.00222000
v 0.00065500 -0.00990000 0.00241300
v -0.00031800 -0.00990000 0.00248000
v -0.00124300 -0.00990000 0.00216900
v -0.00197800 -0.00990000 0.00152900
v 0.00248000 -0.00990000 0.00031800
v 0.00216900 -0.00990000 0.00124300
v 0.00152900 -0.00990000 0.00197800
v 0.00197800 -0.00990000 -0.00152900
v 0.00241300 -0.00990000 -0.00065500
v -0.00065500 -0.00990000 -0.00241300
v 0.00031800 -0.00990000 -0.00248000
v 0.00124300 -0.00990000 -0.00216900
v -0.00241300 -0.00990000 0.00065500
v -0.00248000 -0.00990000 -0.00031800
v -0.00216900 -0.00990000 -0.00124300
v -0.00152900 -0.00990000 -0.00197800
v -0.00228100 -0.01430000 -0.00029300
v -0.00228100 -0.01430000 -0.00029300
v 0.00222000 -0.01430000 -0.00060300
v 0.00222000 -0.01430000 -0.00060300
v -0.00222000 -0.01430000 0.00060300
v -0.00222000 -0.01430000 0.00060300
v -0.00114300 -0.01430000 0.00199600
v -0.00114300 -0.01430000 0.00199600
v -0.00182000 -0.01430000 0.00140600
v -0.00182000 -0.01430000 0.00140600
v -0.00199600 -0.01430000 -0.00114300
v -0.00199600 -0.01430000 -0.00114300
v -0.00140600 -0.01430000 -0.00182000
v -0.00140600 -0.01430000 -0.00182000
v 0.00199600 -0.01430000 0.00114300
v 0.00199600 -0.01430000 0.00114300
v 0.00140600 -0.01430000 0.00182000
v 0.00140600 -0.01430000 0.00182000
v 0.00060300 -0.01430000 0.00222000
v 0.00060300 -0.01430000 0.00222000
v 0.00182000 -0.01430000 -0.00140600
v 0.00182000 -0.01430000 -0.00140600
v 0.00114300 -0.01430000 -0.00199600
v 0.00114300 -0.01430000 -0.00199600
v 0.00029300 -0.01430000 -0.00228100
v 0.00029300 -0.01430000 -0.00228100
v -0.00060300 -0.01430000 -0.00222000
v -0.00060300 -0.01430000 -0.00222000
v 0.00228100 -0.01430000 0.00029300
v 0.00228100 -0.01430000 0.00029300
v -0.00029300 -0.01430000 0.00228100
v -0.00029300 -0.01430000 0.00228100
v 0.00197800 -0.01410000 -0.00152900
v 0.00197800 -0.01410000 -0.00152900
v 0.00241300 -0.01410000 -0.00065500
v 0.00241300 -0.01410000 -0.00065500
v 0.00248000 -0.01410000 0.00031800
v 0.00248000 -0.01410000 0.00031800
v 0.00216900 -0.01410000 0.00124300
v 0.00216900 -0.01410000 0.00124300
v 0.00152900 -0.01410000 0.00197800
v 0.00152900 -0.01410000 0.00197800
v 0.00065500 -0.01410000 0.00241300
v 0.00065500 -0.01410000 0.00241300
v -0.00031800 -0.01410000 0.00248000
v -0.00031800 -0.01410000 0.00248000
v -0.00124300 -0.01410000 0.00216900
v -0.00124300 -0.01410000 0.00216900
v -0.00197800 -0.01410000 0.00152900
v -0.00197800 -0.01410000 0.00152900
v -0.00610100 -0.00810000 0.01301500
v -0.00610100 -0.00810000 0.01301500
v -0.00690100 -0.00890000 0.01301500
v -0.00690100 -0.00890000 0.01301500
v -0.00610100 0.00650000 0.01301500
v -0.00610100 0.00650000 0.01301500
v -0.00690100 0.00730000 0.01301500
v -0.00690100 0.00730000 0.01301500
v 0.00124300 -0.01410000 -0.00216900
v 0.00124300 -0.01410000 -0.00216900
v 0.00031800 -0.01410000 -0.00248000
v 0.00031800 -0.01410000 -0.00248000
v -0.00065500 -0.01410000 -0.00241300
v -0.00065500 -0.01410000 -0.00241300
v -0.00152900 -0.01410000 -0.00197800
v -0.00152900 -0.01410000 -0.00197800
v -0.00216900 -0.01410000 -0.00124300
v -0.00216900 -0.01410000 -0.00124300
v -0.00248000 -0.01410000 -0.00031800
v -0.00248000 -0.01410000 -0.00031800
v -0.00241300 -0.01410000 0.00065500
v -0.00241300 -0.01410000 0.00065500
v 0.00124300 0.01250000 -0.00216900
v 0.00124300 0.01250000 -0.00216900
v 0.00031800 0.01250000 -0.00248000
v 0.00031800 0.01250000 -0.00248000
v -0.00065500 0.01250000 -0.00241300
v -0.00065500 0.01250000 -0.00241300
v -0.00152900 0.01250000 -0.00197800
v -0.00152900 0.01250000 -0.00197800
v -0.00216900 0.01250000 -0.00124300
v -0.00216900 0.01250000 -0.00124300
v -0.00248000 0.01250000 -0.00031800
v -0.00248000 0.01250000 -0.00031800
v -0.00241300 0.01250000 0.00065500
v -0.00241300 0.01250000 0.00065500
v -0.01243800 -0.00492200 0.02176500
v -0.01307000 -0.00470900 0.02176500
v -0.01366100 -0.00440000 0.02176500
v -0.01419600 -0.00400200 0.02176500
v -0.01466200 -0.00352500 0.02176500
v -0.01504900 -0.00298100 0.02176500
v -0.01534500 -0.00238400 0.02176500
v -0.01554400 -0.00174700 0.02176500
v -0.01564100 -0.00108800 0.02176500
v -0.01563400 -0.00042100 0.02176500
v -0.01552300 0.00023700 0.02176500
v -0.01531000 0.00086900 0.02176500
v -0.01500100 0.00146000 0.02176500
v -0.01460300 0.00199500 0.02176500
v -0.01412600 0.00246100 0.02176500
v -0.01358200 0.00284700 0.02176500
v -0.01298500 0.00314400 0.02176500
v -0.01168900 0.00344000 0.02176500
v -0.01234900 0.00334300 0.02176500
v -0.01240700 -0.00480000 0.02198200
v -0.01243000 -0.00488900 0.02189000
v -0.01168000 0.00331600 0.02198200
v -0.01232100 0.00322100 0.02198200
v -0.01232100 0.00322100 0.02198200
v -0.01293800 0.00302800 0.02198200
v -0.01293800 0.00302800 0.02198200
v -0.01351800 0.00274000 0.02198200
v -0.01351800 0.00274000 0.02198200
v -0.01404600 0.00236500 0.02198200
v -0.01404600 0.00236500 0.02198200
v -0.01450900 0.00191300 0.02198200
v -0.01450900 0.00191300 0.02198200
v -0.01489500 0.00139300 0.02198200
v -0.01489500 0.00139300 0.02198200
v -0.01519500 0.00082000 0.02198200
v -0.01519500 0.00082000 0.02198200
v -0.01540200 0.00020600 0.02198200
v -0.01540200 0.00020600 0.02198200
v -0.01551000 -0.00043200 0.02198200
v -0.01551000 -0.00043200 0.02198200
v -0.01551700 -0.00107900 0.02198200
v -0.01551700 -0.00107900 0.02198200
v -0.01542200 -0.00172000 0.02198200
v -0.01542200 -0.00172000 0.02198200
v -0.01522900 -0.00233700 0.02198200
v -0.01522900 -0.00233700 0.02198200
v -0.01494100 -0.00291700 0.02198200
v -0.01494100 -0.00291700 0.02198200
v -0.01456700 -0.00344500 0.02198200
v -0.01456700 -0.00344500 0.02198200
v -0.01411400 -0.00390800 0.02198200
v -0.01411400 -0.00390800 0.02198200
v -0.01359400 -0.00429400 0.02198200
v -0.01359400 -0.00429400 0.02198200
v -0.01302100 -0.00459400 0.02198200
v -0.01302100 -0.00459400 0.02198200
v -0.01305700 -0.00467800 0.02189000
v -0.01364300 -0.00437100 0.02189000
v -0.01417400 -0.00397600 0.02189000
v -0.01463700 -0.00350400 0.02189000
v -0.01502000 -0.00296400 0.02189000
v -0.01531400 -0.00237100 0.02189000
v -0.01551200 -0.00174000 0.02189000
v -0.01560800 -0.00108500 0.02189000
v -0.01560100 -0.00042400 0.02189000
v -0.01549000 0.00022900 0.02189000
v -0.01527900 0.00085600 0.02189000
v -0.01497200 0.00144200 0.02189000
v -0.01457800 0.00197300 0.02189000
v -0.01410500 0.00243600 0.02189000
v -0.01356500 0.00281900 0.02189000
v -0.01297300 0.00311300 0.02189000
v -0.01234100 0.00331000 0.02189000
v -0.01168700 0.00340700 0.02189000
v -0.01546300 -0.01410000 0.00596300
v -0.01546300 -0.01410000 0.00596300
v -0.01543700 -0.01410000 0.00693800
v -0.01543700 -0.01410000 0.00693800
v -0.01578600 -0.01410000 0.00784800
v -0.01578600 -0.01410000 0.00784800
v -0.01645700 -0.01410000 0.00855600
v -0.01645700 -0.01410000 0.00855600
v -0.01734800 -0.01410000 0.00895400
v -0.01734800 -0.01410000 0.00895400
v -0.01832300 -0.01410000 0.00898000
v -0.01832300 -0.01410000 0.00898000
v -0.01923400 -0.01410000 0.00863000
v -0.01923400 -0.01410000 0.00863000
v -0.01923400 0.01250000 0.00863000
v -0.01923400 0.01250000 0.00863000
v -0.01832300 0.01250000 0.00898000
v -0.01832300 0.01250000 0.00898000
v -0.01734800 0.01250000 0.00895400
v -0.01734800 0.01250000 0.00895400
v -0.01645700 0.01250000 0.00855600
v -0.01645700 0.01250000 0.00855600
v -0.01578600 0.01250000 0.00784800
v -0.01578600 0.01250000 0.00784800
v -0.01543700 0.01250000 0.00693800
v -0.01543700 0.01250000 0.00693800
v -0.01546300 0.01250000 0.00596300
v -0.01546300 0.01250000 0.00596300
v -0.01590100 -0.00080000 0.02692200
v -0.01590100 -0.00080000 0.02692200
v -0.01590100 -0.00080000 0.01701500
v -0.01590100 -0.00080000 0.01701500
v -0.01578700 0.00020600 0.02685900
v -0.01578700 0.00020600 0.02685900
v -0.01568100 0.00059100 0.01701500
v -0.01568100 0.00059100 0.01701500
v -0.01504200 0.00184500 0.01701500
v -0.01504200 0.00184500 0.01701500
v -0.01544700 0.00117000 0.02666900
v -0.01544700 0.00117000 0.02666900
v -0.01568000 0.00059300 0.02679900
v -0.01568000 0.00059300 0.02679900
v -0.01400800 0.00286800 0.02586500
v -0.01400800 0.00286800 0.02586500
v -0.01400800 0.00286800 0.02586500
v -0.01404600 0.00284100 0.02588600
v -0.01404600 0.00284100 0.02588600
v -0.01404600 0.00284100 0.02588600
v -0.01404600 0.00284100 0.01701500
v -0.01404600 0.00284100 0.01701500
v -0.01404600 0.00284100 0.01701500
v -0.01484600 0.00209600 0.02633300
v -0.01484600 0.00209600 0.02633300
v -0.01504000 0.00184800 0.02644100
v -0.01504000 0.00184800 0.02644100
v -0.01298200 0.00341300 0.02529200
v -0.01298200 0.00341300 0.02529200
v -0.01298200 0.00341300 0.02529200
v -0.01279200 0.00348000 0.01701500
v -0.01279200 0.00348000 0.01701500
v -0.01279000 0.00348000 0.02518500
v -0.01279000 0.00348000 0.02518500
v -0.01279000 0.00348000 0.02518500
v -0.01179600 0.00368300 0.02463000
v -0.01179600 0.00368300 0.02463000
v -0.01140100 0.00370000 0.01701500
v -0.01140100 0.00370000 0.01701500
v -0.01140100 0.00370000 0.02441000
v -0.01140100 0.00370000 0.02441000
v -0.01001100 0.00348000 0.01701500
v -0.01001100 0.00348000 0.01701500
v -0.00875600 0.00284100 0.01701500
v -0.00875600 0.00284100 0.01701500
v -0.00875700 0.00284100 0.02293300
v -0.00875700 0.00284100 0.02293300
v -0.00966500 0.00335200 0.02344000
v -0.00966500 0.00335200 0.02344000
v -0.01001200 0.00348000 0.02363400
v -0.01001200 0.00348000 0.02363400
v -0.01070100 0.00364500 0.02401900
v -0.01070100 0.00364500 0.02401900
v -0.00759500 0.00160100 0.02208000
v -0.00759500 0.00160100 0.02208000
v -0.00776100 0.00184500 0.02223600
v -0.00776100 0.00184500 0.02223600
v -0.00776100 0.00184500 0.01701500
v -0.00776100 0.00184500 0.01701500
v -0.00817200 0.00233500 0.02256800
v -0.00817200 0.00233500 0.02256800
v -0.00866300 0.00277100 0.02288100
v -0.00866300 0.00277100 0.02288100
v -0.00712100 0.00059100 0.01701500
v -0.00712100 0.00059100 0.01701500
v -0.00690100 -0.00080000 0.01701500
v -0.00690100 -0.00080000 0.01701500
v -0.00690100 -0.00080000 0.02122800
v -0.00690100 -0.00080000 0.02122800
v -0.00695900 -0.00008200 0.02131600
v -0.00695900 -0.00008200 0.02131600
v -0.00712100 0.00059100 0.02154200
v -0.00712100 0.00059100 0.02154200
v -0.00733300 0.00112300 0.02180100
v -0.00733300 0.00112300 0.02180100
v -0.01038700 -0.00324800 0.01701500
v -0.00875600 -0.00444100 0.01701500
v -0.00875600 -0.00444100 0.01701500
v -0.00952700 -0.00267400 0.01701500
v -0.00776100 -0.00344500 0.01701500
v -0.00776100 -0.00344500 0.01701500
v -0.00895300 -0.00181400 0.01701500
v -0.00712100 -0.00219100 0.01701500
v -0.00712100 -0.00219100 0.01701500
v -0.00875100 -0.00080000 0.01701500
v -0.00895300 0.00021400 0.01701500
v -0.00952700 0.00107400 0.01701500
v -0.01241500 0.00164800 0.01701500
v -0.01327500 0.00107400 0.01701500
v -0.01384900 0.00021400 0.01701500
v -0.01405100 -0.00080000 0.01701500
v -0.01384900 -0.00181400 0.01701500
v -0.01568100 -0.00219100 0.01701500
v -0.01568100 -0.00219100 0.01701500
v -0.01504200 -0.00344500 0.01701500
v -0.01504200 -0.00344500 0.01701500
v -0.01327500 -0.00267400 0.01701500
v -0.01404600 -0.00444100 0.01701500
v -0.01404600 -0.00444100 0.01701500
v -0.01241500 -0.00324800 0.01701500
v -0.01279200 -0.00508000 0.01701500
v -0.01279200 -0.00508000 0.01701500
v -0.01140100 -0.00345000 0.01701500
v -0.01140100 -0.00530000 0.01701500
v -0.01140100 -0.00530000 0.01701500
v -0.01140100 -0.00530000 0.01701500
v -0.01001100 -0.00508000 0.01701500
v -0.01001100 -0.00508000 0.01701500
v -0.01038700 0.00164800 0.01701500
v -0.01140100 0.00185000 0.01701500
v -0.01837100 -0.00890000 0.01301500
v -0.01837100 0.00730000 0.01301500
v -0.01572100 0.00650000 0.02682200
v -0.01572100 0.00650000 0.02682200
v -0.01572100 0.00650000 0.02682200
v -0.01611100 0.00730000 0.02612300
v -0.01611100 0.00730000 0.02612300
v -0.01630900 0.00655600 0.02715000
v -0.01630900 0.00655600 0.02715000
v -0.01708100 0.00730000 0.02683800
v -0.01708100 0.00730000 0.02683800
v -0.01784300 0.00730000 0.02777200
v -0.01784300 0.00730000 0.02777200
v -0.01736800 0.00680900 0.02794200
v -0.01736800 0.00680900 0.02794200
v -0.01661000 0.00661700 0.02733300
v -0.01661000 0.00661700 0.02733300
v -0.01818300 0.00710800 0.02898400
v -0.01818300 0.00710800 0.02898400
v -0.01782600 0.00696000 0.02845600
v -0.01782600 0.00696000 0.02845600
v -0.01744600 0.00683200 0.02802000
v -0.01744600 0.00683200 0.02802000
v -0.01834700 0.00730000 0.02886600
v -0.01834700 0.00730000 0.02886600
v -0.00866300 0.00650000 0.02288100
v -0.00866300 0.00650000 0.02288100
v -0.00905400 0.00730000 0.02218300
v -0.00905400 0.00730000 0.02218300
v -0.00760400 0.00650000 0.02208900
v -0.00760400 0.00650000 0.02208900
v -0.00816300 0.00730000 0.02151700
v -0.00816300 0.00730000 0.02151700
v -0.00678900 0.00650000 0.02104600
v -0.00678900 0.00650000 0.02104600
v -0.00747900 0.00730000 0.02064200
v -0.00747900 0.00730000 0.02064200
v -0.00627600 0.00650000 0.01982700
v -0.00627600 0.00650000 0.01982700
v -0.00704800 0.00730000 0.01961700
v -0.00704800 0.00730000 0.01961700
v -0.00610100 0.00650000 0.01851500
v -0.00610100 0.00650000 0.01851500
v -0.00690100 0.00730000 0.01851500
v -0.00690100 0.00730000 0.01851500
v -0.01611100 -0.00890000 0.02612300
v -0.01611100 -0.00890000 0.02612300
v -0.01572100 -0.00810000 0.02682200
v -0.01572100 -0.00810000 0.02682200
v -0.01572100 -0.00810000 0.02682200
v -0.01630900 -0.00815600 0.02715000
v -0.01630900 -0.00815600 0.02715000
v -0.01630900 -0.00815600 0.02715000
v -0.01708100 -0.00890000 0.02683800
v -0.01708100 -0.00890000 0.02683800
v -0.01661000 -0.00821700 0.02733300
v -0.01661000 -0.00821700 0.02733300
v -0.01736800 -0.00840900 0.02794200
v -0.01736800 -0.00840900 0.02794200
v -0.01784300 -0.00890000 0.02777200
v -0.01784300 -0.00890000 0.02777200
v -0.01782400 -0.00856000 0.02845400
v -0.01782400 -0.00856000 0.02845400
v -0.01834700 -0.00890000 0.02886600
v -0.01834700 -0.00890000 0.02886600
v -0.01815000 -0.00869300 0.02892900
v -0.01815000 -0.00869300 0.02892900
v -0.00866300 -0.00810000 0.02288100
v -0.00866300 -0.00810000 0.02288100
v -0.00905400 -0.00890000 0.02218300
v -0.00905400 -0.00890000 0.02218300
v -0.00690100 -0.00890000 0.01851500
v -0.00690100 -0.00890000 0.01851500
v -0.00610100 -0.00810000 0.01851500
v -0.00610100 -0.00810000 0.01851500
v -0.00627600 -0.00810000 0.01982700
v -0.00627600 -0.00810000 0.01982700
v -0.00704800 -0.00890000 0.01961700
v -0.00704800 -0.00890000 0.01961700
v -0.00678900 -0.00810000 0.02104600
v -0.00678900 -0.00810000 0.02104600
v -0.00747900 -0.00890000 0.02064200
v -0.00747900 -0.00890000 0.02064200
v -0.00760400 -0.00810000 0.02208900
v -0.00760400 -0.00810000 0.02208900
v -0.00816300 -0.00890000 0.02151700
v -0.00816300 -0.00890000 0.02151700
v -0.01576600 -0.00189400 0.02684700
v -0.01576600 -0.00189400 0.02684700
v -0.01568000 -0.00219300 0.02679900
v -0.01568000 -0.00219300 0.02679900
v -0.00866300 -0.00437100 0.02288100
v -0.00866300 -0.00437100 0.02288100
v -0.00875700 -0.00444100 0.02293300
v -0.00875700 -0.00444100 0.02293300
v -0.01504100 -0.00344500 0.02644200
v -0.01504100 -0.00344500 0.02644200
v -0.01505900 -0.00342100 0.02645200
v -0.01505900 -0.00342100 0.02645200
v -0.01540700 -0.00285100 0.02664600
v -0.01540700 -0.00285100 0.02664600
v -0.01278900 -0.00508100 0.02518500
v -0.01278900 -0.00508100 0.02518500
v -0.01278900 -0.00508100 0.02518500
v -0.01339200 -0.00483500 0.02552200
v -0.01339200 -0.00483500 0.02552200
v -0.01404400 -0.00444200 0.02588500
v -0.01404400 -0.00444200 0.02588500
v -0.01426500 -0.00427100 0.02600900
v -0.01426500 -0.00427100 0.02600900
v -0.00913800 -0.00468900 0.02314600
v -0.00913800 -0.00468900 0.02314600
v -0.01001100 -0.00508000 0.02363400
v -0.01001100 -0.00508000 0.02363400
v -0.01010100 -0.00510800 0.02368400
v -0.01010100 -0.00510800 0.02368400
v -0.01117700 -0.00529400 0.02428400
v -0.01117700 -0.00529400 0.02428400
v -0.01140100 -0.00530000 0.02440900
v -0.01140100 -0.00530000 0.02440900
v -0.01140100 -0.00530000 0.02440900
v -0.01230300 -0.00520900 0.02491300
v -0.01230300 -0.00520900 0.02491300
v -0.01230300 -0.00520900 0.02491300
v -0.00817400 -0.00393600 0.02256900
v -0.00817400 -0.00393600 0.02256900
v -0.00776000 -0.00344400 0.02223500
v -0.00776000 -0.00344400 0.02223500
v -0.00695900 -0.00151900 0.02131600
v -0.00695900 -0.00151900 0.02131600
v -0.00712100 -0.00219100 0.02154200
v -0.00712100 -0.00219100 0.02154200
v -0.00733300 -0.00272300 0.02180100
v -0.00733300 -0.00272300 0.02180100
v -0.00760400 -0.00321500 0.02208900
v -0.00760400 -0.00321500 0.02208900
vn -0.81640000 -0.00000000 0.57750000
vn -0.81640000 -0.00000000 0.57750000
vn -0.57720000 0.70720000 0.40830000
vn -0.97520000 -0.00000000 0.22120000
vn -0.68960000 0.70710000 0.15640000
vn -0.97520000 -0.00000000 0.22120000
vn -0.98560000 -0.00000000 -0.16890000
vn -0.69710000 0.70700000 -0.11950000
vn -0.98560000 -0.00000000 -0.16890000
vn -0.84600000 -0.00000000 -0.53320000
vn -0.59820000 0.70710000 -0.37710000
vn -0.84600000 -0.00000000 -0.53320000
vn -0.57760000 -0.00000000 -0.81640000
vn -0.40840000 0.70710000 -0.57720000
vn -0.57760000 -0.00000000 -0.81640000
vn -0.15640000 0.70710000 -0.68960000
vn -0.22120000 -0.00000000 -0.97520000
vn -0.22120000 -0.00000000 -0.97520000
vn 0.16890000 -0.00000000 -0.98560000
vn 0.11940000 0.70710000 -0.69690000
vn 0.16890000 -0.00000000 -0.98560000
vn 0.53320000 -0.00000000 -0.84600000
vn 0.37700000 0.70720000 -0.59820000
vn 0.53320000 -0.00000000 -0.84600000
vn 0.57720000 0.70720000 -0.40830000
vn 0.81640000 -0.00000000 -0.57750000
vn 0.81640000 -0.00000000 -0.57750000
vn -0.00000000 1.00000000 -0.00000000
vn 0.57720000 0.70720000 -0.40830000
vn 0.37700000 0.70720000 -0.59820000
vn -0.00000000 1.00000000 -0.00000000
vn -0.00000000 1.00000000 -0.00000000
vn 0.11940000 0.70710000 -0.69690000
vn -0.15640000 0.70710000 -0.68960000
vn -0.00000000 1.00000000 -0.00000000
vn -0.40840000 0.70710000 -0.57720000
vn -0.00000000 1.00000000 -0.00000000
vn -0.00000000 1.00000000 -0.00000000
vn -0.59820000 0.70710000 -0.37710000
vn -0.00000000 1.00000000 -0.00000000
vn -0.69690000 0.70720000 -0.11940000
vn -0.68960000 0.70710000 0.15640000
vn -0.00000000 1.00000000 -0.00000000
vn -0.57710000 0.70720000 0.40840000
vn -0.00000000 1.00000000 -0.00000000
vn 0.68960000 0.70710000 -0.15640000
vn -0.00000000 1.00000000 -0.00000000
vn -0.00000000 1.00000000 -0.00000000
vn -0.11940000 0.70710000 0.69690000
vn -0.00000000 1.00000000 -0.00000000
vn 0.15640000 0.70720000 0.68950000
vn -0.37710000 0.70710000 0.59820000
vn -0.00000000 1.00000000 -0.00000000
vn 0.69690000 0.70720000 0.11940000
vn -0.00000000 1.00000000 -0.00000000
vn -0.00000000 1.00000000 -0.00000000
vn 0.59820000 0.70710000 0.37700000
vn -0.00000000 1.00000000 -0.00000000
vn 0.40840000 0.70710000 0.57720000
vn 0.22120000 -0.00000000 0.97520000
vn 0.57760000 -0.00000000 0.81630000
vn 0.84600000 -0.00000000 0.53320000
vn 0.98560000 -0.00000000 0.16890000
vn -0.53320000 -0.00000000 0.84600000
vn -0.16890000 -0.00000000 0.98560000
vn 0.97520000 -0.00000000 -0.22120000
vn 0.22120000 -0.00000000 0.97520000
vn -0.16890000 -0.00000000 0.98560000
vn -0.53320000 -0.00000000 0.84600000
vn 0.98560000 -0.00000000 0.16890000
vn 0.84600000 -0.00000000 0.53320000
vn 0.57760000 -0.00000000 0.81630000
vn 0.53320000 -0.00000000 -0.84600000
vn 0.81640000 -0.00000000 -0.57750000
vn 0.97520000 -0.00000000 -0.22120000
vn -0.98560000 -0.00000000 -0.16890000
vn -0.84600000 -0.00000000 -0.53320000
vn -0.57760000 -0.00000000 -0.81640000
vn -0.22120000 -0.00000000 -0.97520000
vn -0.81640000 -0.00000000 0.57750000
vn -0.97520000 -0.00000000 0.22120000
vn 0.16890000 -0.00000000 -0.98560000
vn -0.81640000 -0.00000000 0.57750000
vn -0.57730000 -0.70710000 0.40840000
vn -0.68970000 -0.70700000 0.15640000
vn -0.97520000 -0.00000000 0.22120000
vn -0.98560000 -0.00000000 -0.16890000
vn -0.69690000 -0.70710000 -0.11940000
vn -0.84600000 -0.00000000 -0.53320000
vn -0.59830000 -0.70700000 -0.37710000
vn -0.40840000 -0.70700000 -0.57730000
vn -0.57760000 -0.00000000 -0.81640000
vn -0.22120000 -0.00000000 -0.97520000
vn -0.15640000 -0.70700000 -0.68970000
vn 0.11940000 -0.70700000 -0.69700000
vn 0.16890000 -0.00000000 -0.98560000
vn 0.53320000 -0.00000000 -0.84600000
vn 0.37700000 -0.70710000 -0.59820000
vn 0.81640000 -0.00000000 -0.57750000
vn 0.57730000 -0.70710000 -0.40840000
vn -0.57730000 -0.70710000 0.40840000
vn -0.00000000 -1.00000000 -0.00000000
vn -0.68970000 -0.70700000 0.15640000
vn -0.00000000 -1.00000000 -0.00000000
vn -0.69690000 -0.70710000 -0.11940000
vn -0.00000000 -1.00000000 -0.00000000
vn -0.00000000 -1.00000000 -0.00000000
vn -0.59830000 -0.70700000 -0.37710000
vn -0.00000000 -1.00000000 -0.00000000
vn -0.40840000 -0.70700000 -0.57730000
vn -0.00000000 -1.00000000 -0.00000000
vn -0.15640000 -0.70700000 -0.68970000
vn 0.11940000 -0.70700000 -0.69700000
vn -0.00000000 -1.00000000 -0.00000000
vn -0.00000000 -1.00000000 -0.00000000
vn 0.37700000 -0.70710000 -0.59820000
vn 0.57720000 -0.70710000 -0.40840000
vn -0.00000000 -1.00000000 -0.00000000
vn -0.37710000 -0.70700000 0.59830000
vn -0.00000000 -1.00000000 -0.00000000
vn 0.68970000 -0.70700000 -0.15640000
vn -0.00000000 -1.00000000 -0.00000000
vn 0.69690000 -0.70710000 0.11940000
vn -0.00000000 -1.00000000 -0.00000000
vn 0.15640000 -0.70710000 0.68960000
vn -0.00000000 -1.00000000 -0.00000000
vn -0.00000000 -1.00000000 -0.00000000
vn -0.11940000 -0.70700000 0.69700000
vn -0.00000000 -1.00000000 -0.00000000
vn 0.40840000 -0.70700000 0.57730000
vn -0.00000000 -1.00000000 -0.00000000
vn 0.59830000 -0.70700000 0.37710000
vn -0.00000000 -0.00000000 1.00000000
vn -0.00000000 -0.00000000 1.00000000
vn 0.17590000 -0.46800000 0.86600000
vn -0.00000000 -0.00000000 1.00000000
vn 0.33730000 -0.37030000 0.86550000
vn -0.00010000 -0.00000000 1.00000000
vn -0.00000000 -0.00000000 1.00000000
vn -0.08920000 -0.99600000 -0.00000000
vn -0.04460000 -0.49800000 0.86600000
vn -0.00000000 -0.00000000 1.00000000
vn 0.48080000 -0.13810000 0.86590000
vn 0.49770000 0.05040000 0.86590000
vn -0.00000000 -0.00000000 1.00000000
vn -0.00000000 -0.00000000 1.00000000
vn 0.41900000 -0.27320000 0.86590000
vn -0.00010000 -0.00000000 1.00000000
vn 0.81800000 -0.57520000 -0.00000000
vn 0.81790000 -0.57530000 -0.00000000
vn 0.81800000 -0.57530000 -0.00000000
vn -0.00000000 -0.00000000 1.00000000
vn 0.25630000 0.42930000 0.86600000
vn 0.08920000 0.99600000 -0.00000000
vn -0.00000000 -0.00000000 1.00000000
vn 0.04460000 0.49800000 0.86600000
vn 0.00010000 -0.00000000 1.00000000
vn 0.39780000 0.30440000 0.86550000
vn -0.00000000 -0.00000000 1.00000000
vn 0.90720000 0.42080000 -0.00000000
vn -0.00000000 -0.00000000 1.00000000
vn 0.00010000 -0.00000000 1.00000000
vn 0.46090000 0.19430000 0.86590000
vn 0.90720000 0.42070000 -0.00000000
vn -0.00000000 -0.00000000 1.00000000
vn 0.08920000 0.99600000 -0.00000000
vn 0.90720000 0.42080000 -0.00000000
vn 0.00010000 -0.00000000 1.00000000
vn 0.90720000 0.42070000 -0.00000000
vn -0.00000000 -0.00000000 1.00000000
vn 0.81800000 -0.57520000 -0.00000000
vn -0.08920000 -0.99600000 -0.00000000
vn -0.00000000 -0.00000000 1.00000000
vn 0.81790000 -0.57530000 -0.00000000
vn -0.00010000 -0.00000000 1.00000000
vn -0.25620000 -0.42930000 0.86600000
vn -0.00000000 -0.00000000 1.00000000
vn -0.08920000 -0.99600000 -0.00000000
vn -0.00000000 -0.00000000 1.00000000
vn -0.90720000 -0.42070000 -0.00000000
vn -0.00000000 -0.00000000 1.00000000
vn -0.39780000 -0.30440000 0.86550000
vn -0.00000000 -0.00000000 1.00000000
vn -0.46090000 -0.19430000 0.86590000
vn -0.90720000 -0.42070000 -0.00000000
vn -0.49770000 -0.05040000 0.86590000
vn -0.00000000 -0.00000000 1.00000000
vn -0.90720000 -0.42070000 -0.00000000
vn -0.00000000 -0.00000000 1.00000000
vn -0.81800000 0.57530000 -0.00000000
vn -0.48080000 0.13810000 0.86590000
vn -0.00000000 -0.00000000 1.00000000
vn -0.41910000 0.27320000 0.86590000
vn -0.81800000 0.57530000 -0.00000000
vn -0.00000000 -0.00000000 1.00000000
vn -0.33740000 0.37030000 0.86550000
vn -0.00000000 -0.00000000 1.00000000
vn -0.81800000 0.57530000 -0.00000000
vn 0.08920000 0.99600000 -0.00000000
vn -0.00000000 -0.00000000 1.00000000
vn -0.00000000 -0.00000000 1.00000000
vn -0.17590000 0.46800000 0.86600000
vn 0.81800000 -0.57520000 -0.00000000
vn 0.90720000 0.42070000 -0.00000000
vn 0.81800000 -0.57530000 -0.00000000
vn -0.00000000 -0.00000000 1.00000000
vn 0.90720000 0.42070000 -0.00000000
vn 0.90720000 0.42080000 -0.00000000
vn 0.08920000 0.99600000 -0.00000000
vn -0.00000000 -0.00000000 1.00000000
vn -0.81800000 0.57530000 -0.00000000
vn 0.08920000 0.99600000 -0.00000000
vn -0.00000000 -0.00000000 1.00000000
vn -0.00000000 -0.00000000 1.00000000
vn -0.81800000 0.57530000 -0.00000000
vn -0.90720000 -0.42070000 -0.00000000
vn -0.00000000 -0.00000000 1.00000000
vn -0.08920000 -0.99600000 -0.00000000
vn -0.90720000 -0.42070000 -0.00000000
vn -0.00000000 -0.00000000 1.00000000
vn 0.81800000 -0.57530000 -0.00000000
vn 0.81790000 -0.57530000 -0.00000000
vn -0.08920000 -0.99600000 -0.00000000
vn 0.46030000 -0.86900000 0.18160000
vn 0.58600000 -0.80460000 0.09610000
vn 0.52000000 -0.76010000 0.38960000
vn 0.77090000 -0.61590000 0.16260000
vn 0.84890000 -0.51960000 0.09710000
vn 0.78900000 -0.47680000 0.38740000
vn 0.61590000 0.77090000 0.16260000
vn 0.51960000 0.84890000 0.09690000
vn 0.47690000 0.78910000 0.38710000
vn 0.39830000 0.89540000 0.19910000
vn 0.27520000 0.95650000 0.09690000
vn 0.27170000 0.88140000 0.38650000
vn 0.76010000 0.52000000 0.38960000
vn 0.59560000 0.39350000 0.70030000
vn 0.66830000 0.25110000 0.70020000
vn 0.32900000 0.21740000 0.91900000
vn 0.36910000 0.13870000 0.91900000
vn 0.05430000 -0.38980000 0.91930000
vn 0.01410000 -0.10400000 0.99450000
vn -0.00740000 -0.10370000 0.99460000
vn 0.08760000 0.05780000 0.99450000
vn 0.09820000 0.03690000 0.99450000
vn 0.22240000 0.67840000 0.70020000
vn 0.04670000 0.45020000 0.89170000
vn 0.12260000 0.37410000 0.91920000
vn 0.01280000 0.13660000 0.99050000
vn 0.03240000 0.09980000 0.99450000
vn 0.10400000 0.01410000 0.99450000
vn 0.39100000 0.05310000 0.91890000
vn 0.10450000 -0.00940000 0.99450000
vn 0.39280000 -0.03520000 0.91890000
vn 0.09980000 -0.03240000 0.99450000
vn 0.37510000 -0.12170000 0.91890000
vn 0.70750000 0.09610000 0.70010000
vn 0.71110000 -0.06370000 0.70020000
vn 0.67910000 -0.22030000 0.70030000
vn 0.05780000 -0.08750000 0.99450000
vn 0.03690000 -0.09820000 0.99450000
vn 0.21740000 -0.32910000 0.91890000
vn 0.13870000 -0.36920000 0.91900000
vn 0.39350000 -0.59560000 0.70020000
vn 0.25110000 -0.66830000 0.70020000
vn 0.09830000 -0.70710000 0.70030000
vn 0.09020000 0.84610000 0.52530000
vn 0.07500000 0.70700000 0.70320000
vn 0.86050000 0.33450000 0.38420000
vn 0.91540000 0.10960000 0.38720000
vn 0.92210000 -0.08260000 0.37790000
vn 0.88130000 -0.27060000 0.38740000
vn -0.02400000 -0.32790000 0.94440000
vn -0.03840000 -0.53080000 0.84660000
vn -0.05190000 -0.70920000 0.70310000
vn -0.06150000 -0.84870000 0.52530000
vn 0.33450000 -0.86050000 0.38430000
vn 0.11070000 -0.91560000 0.38650000
vn -0.06900000 -0.94510000 0.31930000
vn 0.10530000 0.98970000 0.09740000
vn 0.10000000 0.94240000 0.31930000
vn 0.05380000 0.09010000 0.99450000
vn 0.20210000 0.33850000 0.91900000
vn 0.36590000 0.61300000 0.70020000
vn 0.71960000 0.68770000 0.09610000
vn 0.64780000 0.65460000 0.38960000
vn 0.49320000 0.51630000 0.70020000
vn 0.27240000 0.28510000 0.91900000
vn 0.07240000 0.07580000 0.99450000
vn 0.80460000 0.58600000 0.09610000
vn 0.89540000 -0.39830000 0.19910000
vn 0.95640000 -0.27530000 0.09710000
vn 0.99130000 -0.08880000 0.09740000
vn 0.99010000 0.10090000 0.09730000
vn 0.95190000 0.23280000 0.19930000
vn 0.92550000 0.36510000 0.10050000
vn 0.86900000 0.46020000 0.18160000
vn 0.09010000 -0.05380000 0.99450000
vn 0.33860000 -0.20210000 0.91900000
vn 0.61300000 -0.36590000 0.70030000
vn 0.68770000 -0.71960000 0.09610000
vn 0.65460000 -0.64770000 0.38980000
vn 0.51620000 -0.49310000 0.70030000
vn 0.28510000 -0.27240000 0.91900000
vn 0.07590000 -0.07250000 0.99450000
vn 0.36510000 -0.92550000 0.10060000
vn 0.23280000 -0.95190000 0.19920000
vn 0.10090000 -0.99020000 0.09700000
vn -0.07220000 -0.99260000 0.09740000
vn -0.99600000 0.08920000 -0.01020000
vn -0.97480000 -0.22290000 -0.01020000
vn -0.85820000 -0.51320000 -0.01010000
vn -0.65760000 -0.75330000 -0.01020000
vn -0.39260000 -0.91960000 -0.01020000
vn -0.08860000 -0.99600000 -0.00910000
vn 0.22240000 -0.97490000 -0.00940000
vn 0.51470000 -0.85730000 -0.00760000
vn 0.75220000 -0.65890000 -0.00760000
vn 0.91990000 -0.39210000 -0.00940000
vn 0.99600000 -0.08920000 -0.00800000
vn 0.97490000 0.22240000 -0.00940000
vn 0.85730000 0.51470000 -0.00760000
vn 0.65890000 0.75220000 -0.00760000
vn 0.39210000 0.91990000 -0.00940000
vn 0.08990000 0.99590000 -0.00900000
vn -0.22290000 0.97480000 -0.01020000
vn -0.51320000 0.85820000 -0.01020000
vn -0.75330000 0.65760000 -0.01020000
vn -0.91960000 0.39260000 -0.01020000
vn -0.00930000 0.13670000 0.99060000
vn -0.03050000 0.13350000 0.99060000
vn -0.05110000 0.12710000 0.99060000
vn -0.07030000 0.11760000 0.99060000
vn -0.05380000 -0.12590000 0.99060000
vn -0.03550000 -0.13070000 0.99080000
vn -0.10510000 -0.08780000 0.99060000
vn -0.09010000 -0.10320000 0.99060000
vn -0.07280000 -0.11600000 0.99060000
vn -0.12600000 0.05380000 0.99060000
vn -0.13280000 0.03340000 0.99060000
vn -0.13640000 0.01220000 0.99060000
vn -0.13670000 -0.00930000 0.99060000
vn -0.13350000 -0.03050000 0.99060000
vn -0.12710000 -0.05100000 0.99060000
vn -0.11750000 -0.07030000 0.99060000
vn -0.08780000 0.10510000 0.99060000
vn -0.10320000 0.09010000 0.99060000
vn -0.11600000 0.07280000 0.99060000
vn 0.86770000 -0.00000000 0.49710000
vn 0.99190000 -0.00000000 0.12720000
vn 0.96510000 -0.00000000 -0.26200000
vn 0.79130000 -0.00000000 -0.61140000
vn 0.49710000 -0.00000000 -0.86770000
vn 0.12720000 -0.00000000 -0.99190000
vn -0.26200000 -0.00000000 -0.96510000
vn 0.26200000 -0.00000000 0.96510000
vn 0.61140000 -0.00000000 0.79130000
vn -0.79130000 -0.00000000 0.61140000
vn -0.49710000 -0.00000000 0.86770000
vn -0.12720000 -0.00000000 0.99190000
vn -0.86770000 -0.00000000 -0.49710000
vn -0.99190000 -0.00000000 -0.12720000
vn -0.96510000 -0.00000000 0.26200000
vn -0.61140000 -0.00000000 -0.79130000
vn -0.79130000 -0.00000000 0.61140000
vn -0.55940000 0.70720000 0.43230000
vn -0.49710000 -0.00000000 0.86770000
vn -0.35150000 0.70710000 0.61350000
vn -0.12720000 -0.00000000 0.99190000
vn -0.09000000 0.70710000 0.70130000
vn 0.26200000 -0.00000000 0.96510000
vn 0.18530000 0.70710000 0.68240000
vn 0.61140000 -0.00000000 0.79130000
vn 0.43230000 0.70720000 0.55940000
vn 0.86770000 -0.00000000 0.49710000
vn 0.61350000 0.70710000 0.35150000
vn 0.70130000 0.70710000 0.09000000
vn 0.99190000 -0.00000000 0.12720000
vn 0.68240000 0.70710000 -0.18530000
vn 0.96510000 -0.00000000 -0.26200000
vn 0.55950000 0.70720000 -0.43230000
vn 0.79130000 -0.00000000 -0.61140000
vn -0.55940000 0.70720000 0.43230000
vn -0.00000000 1.00000000 -0.00000000
vn -0.35150000 0.70710000 0.61350000
vn -0.00000000 1.00000000 -0.00000000
vn -0.00000000 1.00000000 -0.00000000
vn -0.08990000 0.70710000 0.70130000
vn -0.00000000 1.00000000 -0.00000000
vn 0.18530000 0.70710000 0.68240000
vn 0.43230000 0.70720000 0.55940000
vn -0.00000000 1.00000000 -0.00000000
vn -0.00000000 1.00000000 -0.00000000
vn 0.61350000 0.70710000 0.35150000
vn 0.70130000 0.70710000 0.09000000
vn -0.00000000 1.00000000 -0.00000000
vn -0.00000000 1.00000000 -0.00000000
vn 0.68240000 0.70710000 -0.18530000
vn -0.00000000 1.00000000 -0.00000000
vn 0.55950000 0.70710000 -0.43230000
vn 0.35150000 0.70710000 -0.61360000
vn -0.00000000 1.00000000 -0.00000000
vn 0.09000000 0.70710000 -0.70130000
vn -0.00000000 1.00000000 -0.00000000
vn -0.68240000 0.70710000 0.18530000
vn -0.00000000 1.00000000 -0.00000000
vn -0.70130000 0.70710000 -0.09000000
vn -0.00000000 1.00000000 -0.00000000
vn -0.00000000 1.00000000 -0.00000000
vn -0.61360000 0.70710000 -0.35150000
vn -0.00000000 1.00000000 -0.00000000
vn -0.43230000 0.70710000 -0.55950000
vn -0.00000000 1.00000000 -0.00000000
vn -0.18530000 0.70710000 -0.68240000
vn 0.26200000 -0.00000000 0.96510000
vn -0.12720000 -0.00000000 0.99190000
vn -0.49710000 -0.00000000 0.86770000
vn -0.79130000 -0.00000000 0.61140000
vn 0.99190000 -0.00000000 0.12720000
vn 0.86770000 -0.00000000 0.49710000
vn 0.61140000 -0.00000000 0.79130000
vn 0.79130000 -0.00000000 -0.61140000
vn 0.96510000 -0.00000000 -0.26200000
vn -0.26200000 -0.00000000 -0.96510000
vn 0.12720000 -0.00000000 -0.99190000
vn 0.49710000 -0.00000000 -0.86770000
vn -0.96510000 -0.00000000 0.26200000
vn -0.99190000 -0.00000000 -0.12720000
vn -0.86770000 -0.00000000 -0.49710000
vn -0.61140000 -0.00000000 -0.79130000
vn -0.70140000 -0.70700000 -0.09000000
vn -0.00000000 -1.00000000 -0.00000000
vn 0.68250000 -0.70700000 -0.18530000
vn -0.00000000 -1.00000000 -0.00000000
vn -0.68250000 -0.70700000 0.18530000
vn -0.00000000 -1.00000000 -0.00000000
vn -0.00000000 -1.00000000 -0.00000000
vn -0.35150000 -0.70700000 0.61360000
vn -0.00000000 -1.00000000 -0.00000000
vn -0.55950000 -0.70710000 0.43230000
vn -0.61360000 -0.70700000 -0.35150000
vn -0.00000000 -1.00000000 -0.00000000
vn -0.00000000 -1.00000000 -0.00000000
vn -0.43230000 -0.70710000 -0.55960000
vn -0.00000000 -1.00000000 -0.00000000
vn 0.61360000 -0.70700000 0.35150000
vn 0.43230000 -0.70710000 0.55950000
vn -0.00000000 -1.00000000 -0.00000000
vn -0.00000000 -1.00000000 -0.00000000
vn 0.18530000 -0.70700000 0.68250000
vn -0.00000000 -1.00000000 -0.00000000
vn 0.55960000 -0.70710000 -0.43230000
vn -0.00000000 -1.00000000 -0.00000000
vn 0.35150000 -0.70700000 -0.61360000
vn -0.00000000 -1.00000000 -0.00000000
vn 0.09000000 -0.70700000 -0.70140000
vn -0.00000000 -1.00000000 -0.00000000
vn -0.18530000 -0.70700000 -0.68250000
vn -0.00000000 -1.00000000 -0.00000000
vn 0.70140000 -0.70700000 0.09000000
vn -0.09000000 -0.70700000 0.70140000
vn -0.00000000 -1.00000000 -0.00000000
vn 0.79130000 -0.00000000 -0.61140000
vn 0.55960000 -0.70710000 -0.43240000
vn 0.96510000 -0.00000000 -0.26200000
vn 0.68250000 -0.70700000 -0.18530000
vn 0.70140000 -0.70700000 0.09000000
vn 0.99190000 -0.00000000 0.12720000
vn 0.61360000 -0.70700000 0.35160000
vn 0.86770000 -0.00000000 0.49710000
vn 0.43230000 -0.70710000 0.55950000
vn 0.61140000 -0.00000000 0.79130000
vn 0.26200000 -0.00000000 0.96510000
vn 0.18530000 -0.70700000 0.68240000
vn -0.09000000 -0.70700000 0.70140000
vn -0.12720000 -0.00000000 0.99190000
vn -0.35160000 -0.70700000 0.61360000
vn -0.49710000 -0.00000000 0.86770000
vn -0.79130000 -0.00000000 0.61140000
vn -0.55950000 -0.70710000 0.43230000
vn 0.70710000 -0.70710000 -0.00000000
vn 1.00000000 -0.00000000 -0.00000000
vn -0.00000000 -1.00000000 -0.00000000
vn 0.70710000 -0.70710000 -0.00000000
vn 0.70710000 0.70710000 -0.00000000
vn 1.00000000 -0.00000000 -0.00000000
vn -0.00000000 1.00000000 -0.00000000
vn 0.70710000 0.70710000 -0.00000000
vn 0.35160000 -0.70700000 -0.61360000
vn 0.49710000 -0.00000000 -0.86770000
vn 0.09000000 -0.70700000 -0.70140000
vn 0.12720000 -0.00000000 -0.99190000
vn -0.18530000 -0.70700000 -0.68250000
vn -0.26200000 -0.00000000 -0.96510000
vn -0.43240000 -0.70710000 -0.55960000
vn -0.61140000 -0.00000000 -0.79130000
vn -0.61360000 -0.70700000 -0.35160000
vn -0.86770000 -0.00000000 -0.49710000
vn -0.99190000 -0.00000000 -0.12720000
vn -0.70140000 -0.70700000 -0.09000000
vn -0.96510000 -0.00000000 0.26200000
vn -0.68250000 -0.70700000 0.18530000
vn 0.35150000 0.70710000 -0.61350000
vn 0.49710000 -0.00000000 -0.86770000
vn 0.09000000 0.70710000 -0.70130000
vn 0.12720000 -0.00000000 -0.99190000
vn -0.26200000 -0.00000000 -0.96510000
vn -0.18530000 0.70710000 -0.68240000
vn -0.61140000 -0.00000000 -0.79130000
vn -0.43230000 0.70720000 -0.55950000
vn -0.86770000 -0.00000000 -0.49710000
vn -0.61350000 0.70710000 -0.35150000
vn -0.99190000 -0.00000000 -0.12720000
vn -0.70130000 0.70710000 -0.09000000
vn -0.68240000 0.70710000 0.18530000
vn -0.96510000 -0.00000000 0.26200000
vn -0.24400000 -0.96130000 0.12770000
vn -0.38930000 -0.91190000 0.12960000
vn -0.52720000 -0.83990000 0.12930000
vn -0.65210000 -0.74700000 0.12970000
vn -0.76090000 -0.63580000 0.12920000
vn -0.85100000 -0.50890000 0.12990000
vn -0.92020000 -0.36950000 0.12910000
vn -0.96660000 -0.22110000 0.12970000
vn -0.98930000 -0.06710000 0.12930000
vn -0.98760000 0.08850000 0.12970000
vn -0.96170000 0.24190000 0.12920000
vn -0.91190000 0.38930000 0.12980000
vn -0.83980000 0.52720000 0.12930000
vn -0.74700000 0.65210000 0.12960000
vn -0.63580000 0.76090000 0.12930000
vn -0.50890000 0.85100000 0.12960000
vn -0.36960000 0.92020000 0.12920000
vn -0.06930000 0.98940000 0.12760000
vn -0.22100000 0.96660000 0.12950000
vn -0.12970000 -0.49230000 0.86070000
vn -0.21730000 -0.84180000 0.49410000
vn -0.03780000 0.50640000 0.86150000
vn -0.15760000 0.68920000 0.70730000
vn -0.05760000 0.25190000 0.96600000
vn -0.09650000 0.24030000 0.96590000
vn -0.26350000 0.65600000 0.70730000
vn -0.36290000 0.60670000 0.70730000
vn -0.13290000 0.22230000 0.96590000
vn -0.45340000 0.54260000 0.70710000
vn -0.16600000 0.19860000 0.96590000
vn -0.19510000 0.17030000 0.96590000
vn -0.53260000 0.46490000 0.70730000
vn -0.21930000 0.13760000 0.96590000
vn -0.59890000 0.37600000 0.70710000
vn -0.65030000 0.27760000 0.70720000
vn -0.23810000 0.10170000 0.96590000
vn -0.68590000 0.17250000 0.70700000
vn -0.25100000 0.06310000 0.96590000
vn -0.70420000 0.06310000 0.70720000
vn -0.25780000 0.02310000 0.96590000
vn -0.70530000 -0.04790000 0.70730000
vn -0.25830000 -0.01750000 0.96590000
vn -0.68920000 -0.15760000 0.70730000
vn -0.25240000 -0.05770000 0.96590000
vn -0.24020000 -0.09650000 0.96590000
vn -0.65600000 -0.26350000 0.70720000
vn -0.60690000 -0.36290000 0.70710000
vn -0.22220000 -0.13290000 0.96590000
vn -0.19870000 -0.16600000 0.96590000
vn -0.54250000 -0.45330000 0.70720000
vn -0.17020000 -0.19500000 0.96590000
vn -0.46500000 -0.53270000 0.70710000
vn -0.37590000 -0.59870000 0.70730000
vn -0.13770000 -0.21930000 0.96590000
vn -0.27770000 -0.65030000 0.70710000
vn -0.10160000 -0.23800000 0.96590000
vn -0.34130000 -0.79940000 0.49440000
vn -0.46210000 -0.73610000 0.49460000
vn -0.57160000 -0.65480000 0.49450000
vn -0.66700000 -0.55730000 0.49450000
vn -0.74590000 -0.44610000 0.49460000
vn -0.80660000 -0.32390000 0.49450000
vn -0.84730000 -0.19380000 0.49460000
vn -0.86710000 -0.05880000 0.49460000
vn -0.86570000 0.07760000 0.49460000
vn -0.84300000 0.21210000 0.49440000
vn -0.79930000 0.34130000 0.49460000
vn -0.73610000 0.46210000 0.49450000
vn -0.65480000 0.57160000 0.49450000
vn -0.55730000 0.66700000 0.49450000
vn -0.44610000 0.74600000 0.49450000
vn -0.32390000 0.80650000 0.49450000
vn -0.19380000 0.84730000 0.49440000
vn -0.06430000 0.86710000 0.49400000
vn 0.97520000 -0.00000000 -0.22120000
vn 0.68970000 -0.70700000 -0.15640000
vn 0.98560000 -0.00000000 0.16890000
vn 0.69700000 -0.70710000 0.11940000
vn 0.59830000 -0.70700000 0.37710000
vn 0.84600000 -0.00000000 0.53320000
vn 0.40840000 -0.70700000 0.57730000
vn 0.57760000 -0.00000000 0.81630000
vn 0.22120000 -0.00000000 0.97520000
vn 0.15640000 -0.70710000 0.68960000
vn -0.11940000 -0.70700000 0.69700000
vn -0.16890000 -0.00000000 0.98560000
vn -0.53320000 -0.00000000 0.84600000
vn -0.37710000 -0.70700000 0.59830000
vn -0.37710000 0.70710000 0.59820000
vn -0.53320000 -0.00000000 0.84600000
vn -0.16890000 -0.00000000 0.98560000
vn -0.11940000 0.70710000 0.69690000
vn 0.15640000 0.70720000 0.68950000
vn 0.22120000 -0.00000000 0.97520000
vn 0.57760000 -0.00000000 0.81630000
vn 0.40840000 0.70710000 0.57720000
vn 0.84600000 -0.00000000 0.53320000
vn 0.59820000 0.70710000 0.37710000
vn 0.69690000 0.70720000 0.11940000
vn 0.98560000 -0.00000000 0.16890000
vn 0.68960000 0.70710000 -0.15640000
vn 0.97520000 -0.00000000 -0.22120000
vn 0.48760000 -0.00000000 0.87310000
vn 1.00000000 0.00480000 -0.00000000
vn 1.00000000 0.00020000 0.00400000
vn -0.00000000 -0.00000000 1.00000000
vn 0.98280000 -0.18490000 0.00020000
vn 0.48740000 -0.00000000 0.87320000
vn 0.95110000 -0.30870000 0.00500000
vn -0.00000000 -0.00000000 1.00000000
vn -0.00000000 -0.00000000 1.00000000
vn 0.80870000 -0.58820000 0.00480000
vn 0.48760000 -0.00000000 0.87310000
vn 0.90040000 -0.43500000 0.00030000
vn 0.94910000 -0.31500000 -0.00000000
vn 0.48740000 -0.00000000 0.87320000
vn 0.48760000 -0.00000000 0.87310000
vn 0.54360000 -0.83930000 0.00030000
vn 0.48750000 -0.00000000 0.87310000
vn 0.48750000 -0.00000000 0.87310000
vn 0.64660000 -0.76280000 -0.00000000
vn 0.48760000 -0.00000000 0.87310000
vn -0.00000000 -0.00000000 1.00000000
vn 0.58750000 -0.80920000 0.00300000
vn 0.58760000 -0.80920000 0.00350000
vn 0.74900000 -0.66260000 0.00020000
vn 0.48750000 -0.00000000 0.87310000
vn 0.83070000 -0.55680000 -0.00000000
vn 0.48750000 -0.00000000 0.87310000
vn 0.48760000 -0.00000000 0.87310000
vn 0.42230000 -0.90650000 0.00060000
vn 0.48750000 -0.00000000 0.87310000
vn -0.00000000 -0.00000000 1.00000000
vn 0.30980000 -0.95080000 0.00430000
vn 0.28590000 -0.95820000 -0.00000000
vn 0.48750000 -0.00000000 0.87310000
vn 0.48760000 -0.00000000 0.87310000
vn 0.14720000 -0.98910000 0.00040000
vn 0.48750000 -0.00000000 0.87310000
vn -0.00180000 -1.00000000 0.00340000
vn -0.00000000 -0.00000000 1.00000000
vn 0.00260000 -1.00000000 -0.00000000
vn 0.48750000 -0.00000000 0.87310000
vn -0.30900000 -0.95110000 0.00050000
vn -0.00000000 -0.00000000 1.00000000
vn -0.58520000 -0.81080000 0.00470000
vn -0.00000000 -0.00000000 1.00000000
vn 0.48770000 -0.00000000 0.87300000
vn -0.52550000 -0.85080000 0.00490000
vn -0.39990000 -0.91650000 0.00320000
vn 0.48750000 -0.00000000 0.87310000
vn 0.48750000 -0.00000000 0.87310000
vn -0.26320000 -0.96470000 0.00880000
vn -0.13300000 -0.99110000 0.00550000
vn 0.48750000 -0.00000000 0.87310000
vn -0.84600000 -0.53310000 0.00190000
vn 0.73430000 0.01280000 0.67870000
vn 0.67040000 0.00090000 0.74200000
vn -0.78780000 -0.61590000 -0.00000000
vn -0.81070000 -0.58540000 0.00590000
vn -0.00000000 -0.00000000 1.00000000
vn -0.70090000 -0.71320000 0.00180000
vn 0.60380000 0.00930000 0.79710000
vn -0.62280000 -0.78240000 0.00060000
vn 0.53660000 0.01220000 0.84370000
vn -0.95100000 -0.30920000 0.00130000
vn -0.00000000 -0.00000000 1.00000000
vn -0.00000000 -0.00000000 1.00000000
vn -1.00000000 -0.00410000 0.00580000
vn 0.84990000 -0.00000000 0.52690000
vn -0.99990000 -0.00850000 0.01000000
vn -0.98670000 -0.16220000 0.01190000
vn 0.83460000 0.00100000 0.55080000
vn -0.94330000 -0.33180000 0.01330000
vn 0.80980000 0.00370000 0.58680000
vn 0.77330000 0.01080000 0.63390000
vn -0.89730000 -0.44130000 0.01360000
vn -0.00000000 -0.00000000 1.00000000
vn -0.58730000 0.80940000 0.00840000
vn -0.00000000 -0.00000000 1.00000000
vn -0.00000000 -0.00000000 1.00000000
vn -0.80870000 0.58810000 0.00980000
vn -0.00000000 -0.00000000 1.00000000
vn -0.00000000 -0.00000000 1.00000000
vn -0.00000000 -0.00000000 1.00000000
vn -0.95080000 0.30950000 0.01110000
vn -0.00000000 -0.00000000 1.00000000
vn -0.00000000 -0.00000000 1.00000000
vn -0.00000000 -0.00000000 1.00000000
vn -0.00000000 -0.00000000 1.00000000
vn -0.00000000 -0.00000000 1.00000000
vn -0.00000000 -0.00000000 1.00000000
vn -0.00000000 -0.00000000 1.00000000
vn -0.00000000 -0.00000000 1.00000000
vn -0.00000000 -0.00000000 1.00000000
vn 0.95070000 0.31000000 0.00240000
vn 0.80960000 0.58690000 0.00200000
vn -0.00000000 -0.00000000 1.00000000
vn -0.00000000 -0.00000000 1.00000000
vn -0.00000000 -0.00000000 1.00000000
vn 0.58840000 0.80850000 0.00500000
vn -0.00000000 -0.00000000 1.00000000
vn 0.30900000 0.95100000 0.00620000
vn -0.00000000 -0.00000000 1.00000000
vn -0.00000000 -0.00000000 1.00000000
vn -0.00140000 1.00000000 0.00590000
vn -0.00140000 1.00000000 0.00420000
vn -0.00000000 -0.00000000 1.00000000
vn -0.30730000 0.95160000 0.00460000
vn -0.00000000 -0.00000000 1.00000000
vn -0.00000000 -0.00000000 1.00000000
vn -0.00000000 -0.00000000 1.00000000
vn 0.13050000 -0.99140000 -0.00000000
vn 0.09810000 0.99520000 -0.00000000
vn 0.48760000 -0.00000000 0.87310000
vn 0.48750000 -0.00000000 0.87310000
vn 0.36980000 0.70680000 0.60300000
vn -0.00000000 1.00000000 -0.00000000
vn 0.38000000 0.70230000 0.60190000
vn 0.50410000 -0.00000000 0.86370000
vn 0.42950000 0.70140000 0.56890000
vn -0.00000000 1.00000000 -0.00000000
vn 0.49490000 0.69980000 0.51520000
vn -0.00000000 1.00000000 -0.00000000
vn 0.60700000 0.69560000 0.38430000
vn 0.67380000 0.00140000 0.73890000
vn 0.56720000 0.70250000 0.42980000
vn 0.57990000 -0.00000000 0.81470000
vn 0.49990000 0.70700000 0.50020000
vn 0.86500000 -0.00000000 0.50180000
vn 0.66990000 0.70360000 0.23690000
vn 0.68300000 0.66070000 0.31140000
vn 0.79800000 -0.00000000 0.60260000
vn 0.73390000 0.00110000 0.67930000
vn 0.60680000 0.70700000 0.36320000
vn -0.00000000 1.00000000 -0.00000000
vn 0.65130000 0.71480000 0.25460000
vn 0.54430000 -0.00000000 0.83890000
vn 0.38420000 0.70640000 0.59450000
vn 0.38660000 0.70630000 0.59310000
vn -0.00000000 1.00000000 -0.00000000
vn 0.69950000 0.00140000 0.71460000
vn 0.49460000 0.70710000 0.50540000
vn 0.49460000 0.70710000 0.50540000
vn -0.00000000 1.00000000 -0.00000000
vn 0.86250000 0.00090000 0.50600000
vn 0.60980000 0.70710000 0.35790000
vn 0.60980000 0.70710000 0.35790000
vn -0.00000000 1.00000000 -0.00000000
vn 0.68240000 0.70710000 0.18550000
vn 0.96500000 -0.00000000 0.26230000
vn -0.00000000 1.00000000 -0.00000000
vn 0.68240000 0.70710000 0.18550000
vn 0.99780000 -0.00000000 0.06630000
vn 0.70640000 0.70640000 0.04560000
vn 0.70630000 0.70630000 0.04840000
vn -0.00000000 1.00000000 -0.00000000
vn 0.38000000 -0.70230000 0.60190000
vn -0.00000000 -1.00000000 -0.00000000
vn 0.48750000 -0.00000000 0.87310000
vn 0.36980000 -0.70680000 0.60300000
vn 0.48760000 -0.00000000 0.87310000
vn 0.50410000 -0.00000000 0.86370000
vn 0.50400000 -0.00000000 0.86370000
vn 0.42950000 -0.70140000 0.56890000
vn 0.49490000 -0.69980000 0.51520000
vn -0.00000000 -1.00000000 -0.00000000
vn 0.57990000 -0.00000000 0.81470000
vn 0.49990000 -0.70700000 0.50020000
vn 0.57540000 -0.70510000 0.41440000
vn 0.69690000 -0.00000000 0.71720000
vn 0.60490000 -0.69640000 0.38620000
vn -0.00000000 -1.00000000 -0.00000000
vn 0.65760000 -0.68450000 0.31460000
vn 0.79280000 -0.00010000 0.60950000
vn 0.67300000 -0.69850000 0.24330000
vn -0.00000000 -1.00000000 -0.00000000
vn 0.86160000 -0.00000000 0.50760000
vn 0.66850000 -0.70980000 0.22220000
vn 0.38420000 -0.70640000 0.59450000
vn 0.54160000 -0.00470000 0.84060000
vn 0.38660000 -0.70630000 0.59310000
vn -0.00000000 -1.00000000 -0.00000000
vn 0.70630000 -0.70630000 0.04840000
vn -0.00000000 -1.00000000 -0.00000000
vn 0.70640000 -0.70630000 0.04560000
vn 0.99780000 -0.00000000 0.06630000
vn 0.68240000 -0.70710000 0.18550000
vn 0.96500000 -0.00000000 0.26230000
vn -0.00000000 -1.00000000 -0.00000000
vn 0.68240000 -0.70710000 0.18550000
vn 0.86350000 -0.00330000 0.50430000
vn 0.60980000 -0.70710000 0.35790000
vn 0.60980000 -0.70710000 0.35790000
vn -0.00000000 -1.00000000 -0.00000000
vn 0.70020000 -0.00810000 0.71390000
vn 0.49460000 -0.70710000 0.50540000
vn 0.49460000 -0.70710000 0.50540000
vn -0.00000000 -1.00000000 -0.00000000
vn 0.98090000 0.19450000 0.00020000
vn 0.48740000 -0.00000000 0.87320000
vn 0.48760000 -0.00000000 0.87310000
vn 0.94590000 0.32430000 -0.00000000
vn -0.62280000 0.78240000 0.00060000
vn 0.52210000 -0.00000000 0.85290000
vn -0.56520000 0.82490000 -0.00000000
vn 0.48730000 -0.00000000 0.87320000
vn 0.48760000 -0.00000000 0.87310000
vn 0.78040000 0.62530000 -0.00000000
vn 0.48750000 -0.00000000 0.87310000
vn 0.84010000 0.54240000 0.00620000
vn 0.48750000 -0.00000000 0.87310000
vn 0.89580000 0.44440000 0.00500000
vn 0.48750000 -0.00000000 0.87310000
vn 0.48760000 -0.00000000 0.87310000
vn 0.33520000 0.94210000 -0.00000000
vn 0.46880000 0.88330000 0.00040000
vn 0.48750000 -0.00000000 0.87310000
vn 0.48750000 -0.00000000 0.87310000
vn 0.57860000 0.81560000 -0.00000000
vn 0.68700000 0.72660000 0.00020000
vn 0.48750000 -0.00000000 0.87310000
vn -0.45870000 0.88860000 0.00060000
vn 0.48750000 -0.00000000 0.87310000
vn -0.33730000 0.94140000 -0.00000000
vn 0.48760000 -0.00000000 0.87310000
vn -0.21200000 0.97730000 0.00280000
vn 0.48760000 -0.00000000 0.87310000
vn -0.07520000 0.99720000 0.00160000
vn 0.48750000 -0.00010000 0.87310000
vn 0.48750000 -0.00000000 0.87310000
vn 0.05820000 0.99830000 -0.00000000
vn 0.05830000 0.99830000 -0.00000000
vn 0.48760000 -0.00000000 0.87310000
vn 0.48750000 -0.00000000 0.87310000
vn 0.20290000 0.97920000 0.00040000
vn 0.60520000 -0.00320000 0.79600000
vn -0.70080000 0.71330000 0.00180000
vn 0.66970000 -0.00090000 0.74260000
vn -0.78740000 0.61640000 -0.00000000
vn -0.98570000 0.16830000 0.00120000
vn 0.83440000 -0.00100000 0.55110000
vn -0.94810000 0.31800000 -0.00000000
vn 0.80970000 -0.00370000 0.58680000
vn -0.89520000 0.44560000 0.00400000
vn 0.77370000 -0.00650000 0.63350000
vn -0.84500000 0.53470000 0.00180000
vn 0.71730000 -0.00000000 0.69670000
f 1//1 2//2 4//4
f 1//1 4//4 6//6
f 6//6 4//4 7//7
f 6//6 7//7 9//9
f 9//9 7//7 10//10
f 9//9 10//10 12//12
f 12//12 10//10 13//13
f 12//12 13//13 15//15
f 15//15 13//13 17//17
f 15//15 17//17 18//18
f 18//18 17//17 19//19
f 18//18 19//19 21//21
f 21//21 19//19 22//22
f 21//21 22//22 24//24
f 24//24 22//22 26//26
f 24//24 26//26 27//27
f 29//29 25//25 23//23
f 29//29 23//23 30//30
f 30//30 23//23 20//20
f 30//30 20//20 33//33
f 33//33 20//20 16//16
f 33//33 16//16 34//34
f 34//34 16//16 14//14
f 34//34 14//14 36//36
f 36//36 14//14 11//11
f 36//36 11//11 39//39
f 39//39 11//11 8//8
f 39//39 8//8 41//41
f 41//41 8//8 5//5
f 41//41 5//5 42//42
f 42//42 5//5 3//3
f 42//42 3//3 44//44
f 47//47 28//28 43//43
f 43//43 28//28 31//31
f 35//35 37//37 38//38
f 48//48 50//50 53//53
f 53//53 50//50 43//43
f 53//53 43//43 45//45
f 55//55 47//47 56//56
f 56//56 47//47 43//43
f 56//56 43//43 58//58
f 58//58 43//43 50//50
f 31//31 32//32 43//43
f 43//43 32//32 35//35
f 43//43 35//35 40//40
f 40//40 35//35 38//38
f 83//83 80//80 81//81
f 83//83 81//81 86//86
f 86//86 81//81 76//76
f 86//86 76//76 87//87
f 87//87 76//76 77//77
f 87//87 77//77 89//89
f 89//89 77//77 78//78
f 89//89 78//78 92//92
f 92//92 78//78 79//79
f 92//92 79//79 93//93
f 93//93 79//79 82//82
f 93//93 82//82 96//96
f 96//96 82//82 73//73
f 96//96 73//73 97//97
f 97//97 73//73 74//74
f 97//97 74//74 99//99
f 101//101 84//84 85//85
f 101//101 85//85 103//103
f 103//103 85//85 88//88
f 103//103 88//88 105//105
f 105//105 88//88 90//90
f 105//105 90//90 108//108
f 108//108 90//90 91//91
f 108//108 91//91 110//110
f 110//110 91//91 94//94
f 110//110 94//94 112//112
f 112//112 94//94 95//95
f 112//112 95//95 113//113
f 113//113 95//95 98//98
f 113//113 98//98 116//116
f 116//116 98//98 100//100
f 116//116 100//100 117//117
f 115//115 118//118 114//114
f 114//114 118//118 102//102
f 102//102 118//118 120//120
f 120//120 118//118 122//122
f 120//120 122//122 124//124
f 102//102 104//104 106//106
f 126//126 127//127 129//129
f 129//129 127//127 120//120
f 129//129 120//120 131//131
f 131//131 120//120 124//124
f 111//111 114//114 109//109
f 109//109 114//114 102//102
f 109//109 102//102 107//107
f 107//107 102//102 106//106
f 133//133 135//135 137//137
f 141//141 135//135 133//133
f 133//133 143//143 144//144
f 147//147 143//143 133//133
f 133//133 153//153 156//156
f 158//158 153//153 133//133
f 163//163 158//158 133//133
f 144//144 163//163 133//133
f 137//137 147//147 133//133
f 155//155 152//152 165//165
f 165//165 152//152 159//159
f 168//168 157//157 162//162
f 161//161 145//145 170//170
f 170//170 145//145 142//142
f 170//170 142//142 146//146
f 148//148 138//138 175//175
f 173//173 136//136 134//134
f 173//173 134//134 139//139
f 139//139 177//177 179//179
f 179//179 177//177 181//181
f 179//179 181//181 183//183
f 183//183 187//187 189//189
f 189//189 187//187 192//192
f 189//189 192//192 195//195
f 195//195 197//197 200//200
f 200//200 197//197 201//201
f 200//200 201//201 155//155
f 169//169 204//204 164//164
f 164//164 204//204 207//207
f 160//160 208//208 167//167
f 166//166 209//209 154//154
f 154//154 209//209 212//212
f 154//154 212//212 199//199
f 198//198 211//211 194//194
f 194//194 211//211 215//215
f 194//194 215//215 190//190
f 188//188 216//216 185//185
f 185//185 216//216 219//219
f 185//185 219//219 180//180
f 178//178 218//218 140//140
f 140//140 218//218 223//223
f 140//140 223//223 172//172
f 174//174 222//222 150//150
f 151//151 221//221 205//205
f 149//149 203//203 171//171
f 224//224 225//225 226//226
f 227//227 228//228 229//229
f 230//230 231//231 232//232
f 233//233 234//234 235//235
f 236//236 237//237 238//238
f 237//237 239//239 240//240
f 241//241 242//242 243//243
f 239//239 244//244 245//245
f 246//246 247//247 248//248
f 248//248 247//247 249//249
f 248//248 249//249 250//250
f 239//239 245//245 240//240
f 240//240 245//245 251//251
f 240//240 251//251 252//252
f 252//252 251//251 253//253
f 252//252 253//253 254//254
f 254//254 253//253 255//255
f 254//254 255//255 256//256
f 237//237 240//240 238//238
f 238//238 240//240 252//252
f 238//238 252//252 257//257
f 257//257 252//252 254//254
f 257//257 254//254 258//258
f 258//258 254//254 256//256
f 258//258 256//256 259//259
f 260//260 261//261 262//262
f 262//262 261//261 263//263
f 262//262 263//263 264//264
f 264//264 263//263 265//265
f 264//264 265//265 226//226
f 261//261 242//242 263//263
f 263//263 242//242 241//241
f 263//263 241//241 265//265
f 265//265 241//241 266//266
f 235//235 267//267 246//246
f 246//246 267//267 268//268
f 246//246 268//268 247//247
f 236//236 238//238 269//269
f 269//269 238//238 257//257
f 269//269 257//257 270//270
f 270//270 257//257 258//258
f 270//270 258//258 271//271
f 271//271 258//258 259//259
f 271//271 259//259 272//272
f 243//243 273//273 241//241
f 241//241 273//273 274//274
f 241//241 274//274 266//266
f 266//266 274//274 275//275
f 266//266 275//275 276//276
f 226//226 265//265 277//277
f 277//277 265//265 266//266
f 277//277 266//266 278//278
f 278//278 266//266 276//276
f 278//278 276//276 279//279
f 234//234 280//280 235//235
f 235//235 280//280 281//281
f 235//235 281//281 267//267
f 250//250 282//282 248//248
f 248//248 282//282 283//283
f 248//248 283//283 246//246
f 246//246 283//283 284//284
f 246//246 284//284 235//235
f 235//235 284//284 232//232
f 235//235 232//232 233//233
f 233//233 232//232 231//231
f 285//285 230//230 286//286
f 286//286 230//230 232//232
f 286//286 232//232 287//287
f 287//287 232//232 284//284
f 287//287 284//284 288//288
f 288//288 284//284 283//283
f 288//288 283//283 289//289
f 289//289 283//283 282//282
f 289//289 244//244 288//288
f 288//288 244//244 239//239
f 288//288 239//239 287//287
f 287//287 239//239 237//237
f 287//287 237//237 286//286
f 286//286 237//237 236//236
f 286//286 236//236 285//285
f 285//285 236//236 290//290
f 291//291 292//292 272//272
f 272//272 292//292 293//293
f 272//272 293//293 271//271
f 271//271 293//293 294//294
f 271//271 294//294 270//270
f 270//270 294//294 295//295
f 270//270 295//295 269//269
f 269//269 295//295 296//296
f 269//269 296//296 236//236
f 236//236 296//296 297//297
f 236//236 297//297 290//290
f 255//255 298//298 256//256
f 256//256 298//298 299//299
f 256//256 299//299 259//259
f 259//259 299//299 300//300
f 259//259 300//300 272//272
f 272//272 300//300 229//229
f 272//272 229//229 291//291
f 291//291 229//229 228//228
f 301//301 227//227 302//302
f 302//302 227//227 229//229
f 302//302 229//229 303//303
f 303//303 229//229 300//300
f 303//303 300//300 304//304
f 304//304 300//300 299//299
f 304//304 299//299 305//305
f 305//305 299//299 298//298
f 305//305 260//260 304//304
f 304//304 260//260 262//262
f 304//304 262//262 303//303
f 303//303 262//262 264//264
f 303//303 264//264 302//302
f 302//302 264//264 226//226
f 302//302 226//226 301//301
f 301//301 226//226 225//225
f 224//224 226//226 306//306
f 306//306 226//226 277//277
f 306//306 277//277 307//307
f 307//307 277//277 278//278
f 307//307 278//278 308//308
f 308//308 278//278 279//279
f 308//308 279//279 309//309
f 280//280 234//234 325//325
f 325//325 234//234 324//324
f 230//230 323//323 231//231
f 231//231 323//323 324//324
f 231//231 324//324 233//233
f 233//233 324//324 234//234
f 230//230 285//285 323//323
f 323//323 285//285 290//290
f 323//323 290//290 322//322
f 290//290 297//297 322//322
f 322//322 297//297 296//296
f 322//322 296//296 321//321
f 296//296 295//295 321//321
f 321//321 295//295 294//294
f 321//321 294//294 320//320
f 294//294 293//293 320//320
f 320//320 293//293 292//292
f 320//320 292//292 319//319
f 227//227 318//318 228//228
f 228//228 318//318 319//319
f 228//228 319//319 291//291
f 291//291 319//319 292//292
f 227//227 301//301 318//318
f 318//318 301//301 225//225
f 318//318 225//225 317//317
f 225//225 224//224 317//317
f 317//317 224//224 306//306
f 317//317 306//306 316//316
f 309//309 315//315 308//308
f 308//308 315//315 316//316
f 308//308 316//316 307//307
f 307//307 316//316 306//306
f 251//251 245//245 214//214
f 214//214 245//245 217//217
f 217//217 245//245 244//244
f 217//217 244//244 289//289
f 298//298 255//255 214//214
f 214//214 255//255 253//253
f 214//214 253//253 251//251
f 330//330 331//331 220//220
f 220//220 331//331 332//332
f 220//220 332//332 333//333
f 298//298 214//214 305//305
f 305//305 214//214 213//213
f 305//305 213//213 260//260
f 210//210 334//334 335//335
f 336//336 337//337 210//210
f 210//210 337//337 338//338
f 210//210 338//338 334//334
f 339//339 340//340 206//206
f 206//206 340//340 341//341
f 206//206 341//341 342//342
f 335//335 243//243 210//210
f 210//210 243//243 242//242
f 210//210 242//242 213//213
f 213//213 242//242 261//261
f 213//213 261//261 260//260
f 342//342 343//343 206//206
f 206//206 343//343 344//344
f 206//206 344//344 210//210
f 210//210 344//344 345//345
f 210//210 345//345 336//336
f 333//333 346//346 220//220
f 220//220 346//346 347//347
f 220//220 347//347 206//206
f 206//206 347//347 348//348
f 206//206 348//348 339//339
f 289//289 282//282 217//217
f 217//217 282//282 250//250
f 217//217 250//250 220//220
f 220//220 250//250 249//249
f 220//220 249//249 330//330
f 365//365 358//358 359//359
f 365//365 359//359 367//367
f 367//367 359//359 360//360
f 367//367 360//360 369//369
f 369//369 360//360 356//356
f 369//369 356//356 371//371
f 371//371 356//356 357//357
f 371//371 357//357 373//373
f 373//373 357//357 349//349
f 373//373 349//349 375//375
f 375//375 349//349 350//350
f 375//375 350//350 378//378
f 378//378 350//350 351//351
f 378//378 351//351 380//380
f 380//380 351//351 352//352
f 380//380 352//352 382//382
f 383//383 366//366 368//368
f 383//383 368//368 385//385
f 385//385 368//368 370//370
f 385//385 370//370 388//388
f 388//388 370//370 372//372
f 388//388 372//372 390//390
f 390//390 372//372 374//374
f 390//390 374//374 391//391
f 391//391 374//374 376//376
f 391//391 376//376 394//394
f 394//394 376//376 377//377
f 394//394 377//377 395//395
f 395//395 377//377 379//379
f 395//395 379//379 398//398
f 398//398 379//379 381//381
f 398//398 381//381 400//400
f 396//396 397//397 399//399
f 387//387 389//389 392//392
f 399//399 402//402 404//404
f 406//406 384//384 399//399
f 399//399 384//384 386//386
f 399//399 386//386 387//387
f 387//387 392//392 399//399
f 399//399 392//392 393//393
f 399//399 393//393 396//396
f 408//408 406//406 409//409
f 409//409 406//406 399//399
f 409//409 399//399 411//411
f 411//411 399//399 404//404
f 411//411 404//404 413//413
f 432//432 434//434 436//436
f 436//436 434//434 437//437
f 436//436 437//437 439//439
f 432//432 442//442 443//443
f 445//445 448//448 449//449
f 451//451 434//434 453//453
f 453//453 434//434 432//432
f 453//453 432//432 455//455
f 455//455 432//432 443//443
f 455//455 443//443 457//457
f 434//434 459//459 437//437
f 437//437 459//459 445//445
f 437//437 445//445 462//462
f 462//462 445//445 449//449
f 452//452 464//464 466//466
f 452//452 466//466 433//433
f 433//433 466//466 467//467
f 433//433 467//467 460//460
f 460//460 467//467 469//469
f 460//460 469//469 446//446
f 446//446 469//469 471//471
f 446//446 471//471 447//447
f 447//447 471//471 474//474
f 447//447 474//474 450//450
f 450//450 474//474 475//475
f 450//450 475//475 461//461
f 461//461 475//475 477//477
f 461//461 477//477 438//438
f 438//438 477//477 480//480
f 438//438 480//480 440//440
f 418//418 479//479 478//478
f 418//418 478//478 417//417
f 417//417 478//478 476//476
f 417//417 476//476 416//416
f 416//416 476//476 473//473
f 416//416 473//473 415//415
f 415//415 473//473 472//472
f 415//415 472//472 421//421
f 421//421 472//472 470//470
f 421//421 470//470 420//420
f 420//420 470//470 468//468
f 420//420 468//468 419//419
f 419//419 468//468 465//465
f 419//419 465//465 423//423
f 423//423 465//465 463//463
f 423//423 463//463 422//422
f 422//422 463//463 490//490
f 422//422 490//490 426//426
f 426//426 490//490 492//492
f 426//426 492//492 425//425
f 425//425 492//492 494//494
f 425//425 494//494 424//424
f 424//424 494//494 496//496
f 424//424 496//496 430//430
f 430//430 496//496 498//498
f 430//430 498//498 429//429
f 429//429 498//498 499//499
f 429//429 499//499 428//428
f 428//428 499//499 501//501
f 428//428 501//501 427//427
f 427//427 501//501 479//479
f 427//427 479//479 418//418
f 440//440 480//480 502//502
f 440//440 502//502 435//435
f 435//435 502//502 500//500
f 435//435 500//500 431//431
f 431//431 500//500 497//497
f 431//431 497//497 441//441
f 441//441 497//497 495//495
f 441//441 495//495 444//444
f 444//444 495//495 493//493
f 444//444 493//493 458//458
f 458//458 493//493 491//491
f 458//458 491//491 456//456
f 456//456 491//491 489//489
f 456//456 489//489 454//454
f 454//454 489//489 464//464
f 454//454 464//464 452//452
f 400//400 381//381 503//503
f 400//400 503//503 401//401
f 401//401 503//503 505//505
f 401//401 505//505 403//403
f 403//403 505//505 508//508
f 403//403 508//508 414//414
f 414//414 508//508 510//510
f 414//414 510//510 412//412
f 412//412 510//510 512//512
f 412//412 512//512 410//410
f 410//410 512//512 514//514
f 410//410 514//514 407//407
f 407//407 514//514 515//515
f 407//407 515//515 405//405
f 405//405 515//515 366//366
f 405//405 366//366 383//383
f 382//382 352//352 353//353
f 382//382 353//353 504//504
f 504//504 353//353 354//354
f 504//504 354//354 506//506
f 506//506 354//354 355//355
f 506//506 355//355 507//507
f 507//507 355//355 364//364
f 507//507 364//364 509//509
f 509//509 364//364 361//361
f 509//509 361//361 511//511
f 511//511 361//361 362//362
f 511//511 362//362 513//513
f 513//513 362//362 363//363
f 513//513 363//363 516//516
f 516//516 363//363 358//358
f 516//516 358//358 365//365
f 315//315 309//309 517//517
f 315//315 517//517 314//314
f 517//517 518//518 314//314
f 314//314 518//518 519//519
f 314//314 519//519 313//313
f 519//519 520//520 313//313
f 313//313 520//520 521//521
f 313//313 521//521 312//312
f 521//521 522//522 312//312
f 312//312 522//522 523//523
f 312//312 523//523 311//311
f 523//523 524//524 311//311
f 311//311 524//524 525//525
f 311//311 525//525 310//310
f 525//525 526//526 310//310
f 310//310 526//526 527//527
f 310//310 527//527 329//329
f 527//527 528//528 329//329
f 329//329 528//528 529//529
f 329//329 529//529 328//328
f 529//529 530//530 328//328
f 328//328 530//530 531//531
f 328//328 531//531 327//327
f 531//531 532//532 327//327
f 327//327 532//532 533//533
f 327//327 533//533 326//326
f 280//280 325//325 534//534
f 534//534 325//325 326//326
f 534//534 326//326 535//535
f 535//535 326//326 533//533
f 275//275 274//274 536//536
f 536//536 274//274 273//273
f 279//279 276//276 537//537
f 537//537 276//276 275//275
f 517//517 309//309 279//279
f 249//249 538//538 330//330
f 330//330 538//538 540//540
f 330//330 540//540 331//331
f 331//331 540//540 541//541
f 331//331 541//541 332//332
f 332//332 541//541 544//544
f 332//332 544//544 333//333
f 333//333 544//544 546//546
f 333//333 546//546 346//346
f 346//346 546//546 547//547
f 346//346 547//547 347//347
f 347//347 547//547 549//549
f 347//347 549//549 348//348
f 348//348 549//549 552//552
f 348//348 552//552 339//339
f 339//339 552//552 554//554
f 339//339 554//554 340//340
f 340//340 554//554 556//556
f 340//340 556//556 341//341
f 341//341 556//556 558//558
f 341//341 558//558 342//342
f 342//342 558//558 560//560
f 342//342 560//560 343//343
f 343//343 560//560 561//561
f 343//343 561//561 344//344
f 344//344 561//561 564//564
f 344//344 564//564 345//345
f 345//345 564//564 565//565
f 345//345 565//565 336//336
f 336//336 565//565 567//567
f 336//336 567//567 337//337
f 337//337 567//567 570//570
f 337//337 570//570 338//338
f 338//338 570//570 572//572
f 338//338 572//572 334//334
f 334//334 572//572 536//536
f 334//334 536//536 335//335
f 335//335 536//536 273//273
f 335//335 273//273 243//243
f 275//275 536//536 537//537
f 537//537 536//536 571//571
f 537//537 571//571 573//573
f 573//573 571//571 569//569
f 573//573 569//569 574//574
f 574//574 569//569 568//568
f 574//574 568//568 575//575
f 575//575 568//568 566//566
f 575//575 566//566 576//576
f 576//576 566//566 563//563
f 576//576 563//563 577//577
f 577//577 563//563 562//562
f 577//577 562//562 578//578
f 578//578 562//562 559//559
f 578//578 559//559 579//579
f 579//579 559//559 557//557
f 579//579 557//557 580//580
f 580//580 557//557 555//555
f 580//580 555//555 581//581
f 581//581 555//555 553//553
f 581//581 553//553 582//582
f 582//582 553//553 551//551
f 582//582 551//551 583//583
f 583//583 551//551 550//550
f 583//583 550//550 584//584
f 584//584 550//550 548//548
f 584//584 548//548 585//585
f 585//585 548//548 545//545
f 585//585 545//545 586//586
f 586//586 545//545 543//543
f 586//586 543//543 587//587
f 587//587 543//543 542//542
f 587//587 542//542 588//588
f 588//588 542//542 539//539
f 588//588 539//539 589//589
f 589//589 539//539 538//538
f 589//589 538//538 590//590
f 249//249 247//247 538//538
f 538//538 247//247 268//268
f 538//538 268//268 590//590
f 590//590 268//268 267//267
f 590//590 267//267 281//281
f 279//279 537//537 517//517
f 517//517 537//537 573//573
f 517//517 573//573 518//518
f 518//518 573//573 574//574
f 518//518 574//574 519//519
f 519//519 574//574 575//575
f 519//519 575//575 520//520
f 520//520 575//575 576//576
f 520//520 576//576 521//521
f 521//521 576//576 577//577
f 521//521 577//577 522//522
f 522//522 577//577 578//578
f 522//522 578//578 523//523
f 523//523 578//578 579//579
f 523//523 579//579 524//524
f 524//524 579//579 580//580
f 524//524 580//580 525//525
f 525//525 580//580 581//581
f 525//525 581//581 526//526
f 526//526 581//581 582//582
f 526//526 582//582 527//527
f 527//527 582//582 583//583
f 527//527 583//583 528//528
f 528//528 583//583 584//584
f 528//528 584//584 529//529
f 529//529 584//584 585//585
f 529//529 585//585 530//530
f 530//530 585//585 586//586
f 530//530 586//586 531//531
f 531//531 586//586 587//587
f 531//531 587//587 532//532
f 532//532 587//587 588//588
f 532//532 588//588 533//533
f 533//533 588//588 589//589
f 533//533 589//589 535//535
f 535//535 589//589 590//590
f 535//535 590//590 534//534
f 534//534 590//590 281//281
f 534//534 281//281 280//280
f 133//133 202//202 196//196
f 156//156 202//202 133//133
f 133//133 191//191 186//186
f 193//193 191//191 133//133
f 133//133 176//176 141//141
f 182//182 176//176 133//133
f 184//184 182//182 133//133
f 186//186 184//184 133//133
f 196//196 193//193 133//133
f 117//117 100//100 592//592
f 117//117 592//592 121//121
f 121//121 592//592 594//594
f 121//121 594//594 123//123
f 123//123 594//594 595//595
f 123//123 595//595 132//132
f 132//132 595//595 597//597
f 132//132 597//597 130//130
f 130//130 597//597 600//600
f 130//130 600//600 125//125
f 125//125 600//600 601//601
f 125//125 601//601 128//128
f 128//128 601//601 604//604
f 128//128 604//604 119//119
f 119//119 604//604 84//84
f 119//119 84//84 101//101
f 99//99 74//74 75//75
f 99//99 75//75 591//591
f 591//591 75//75 70//70
f 591//591 70//70 593//593
f 593//593 70//70 71//71
f 593//593 71//71 596//596
f 596//596 71//71 72//72
f 596//596 72//72 598//598
f 598//598 72//72 67//67
f 598//598 67//67 599//599
f 599//599 67//67 68//68
f 599//599 68//68 602//602
f 602//602 68//68 69//69
f 602//602 69//69 603//603
f 603//603 69//69 80//80
f 603//603 80//80 83//83
f 44//44 3//3 605//605
f 44//44 605//605 52//52
f 52//52 605//605 608//608
f 52//52 608//608 49//49
f 49//49 608//608 609//609
f 49//49 609//609 51//51
f 51//51 609//609 612//612
f 51//51 612//612 59//59
f 59//59 612//612 614//614
f 59//59 614//614 57//57
f 57//57 614//614 615//615
f 57//57 615//615 54//54
f 54//54 615//615 617//617
f 54//54 617//617 46//46
f 46//46 617//617 25//25
f 46//46 25//25 29//29
f 27//27 26//26 618//618
f 27//27 618//618 66//66
f 66//66 618//618 616//616
f 66//66 616//616 63//63
f 63//63 616//616 613//613
f 63//63 613//613 62//62
f 62//62 613//613 611//611
f 62//62 611//611 61//61
f 61//61 611//611 610//610
f 61//61 610//610 60//60
f 60//60 610//610 607//607
f 60//60 607//607 65//65
f 65//65 607//607 606//606
f 65//65 606//606 64//64
f 64//64 606//606 2//2
f 64//64 2//2 1//1
f 620//620 621//621 623//623
f 623//623 621//621 625//625
f 628//628 630//630 625//625
f 625//625 630//630 631//631
f 625//625 631//631 623//623
f 634//634 637//637 640//640
f 641//641 637//637 642//642
f 641//641 642//642 628//628
f 628//628 642//642 644//644
f 628//628 644//644 630//630
f 634//634 640//640 647//647
f 647//647 640//640 650//650
f 647//647 650//650 651//651
f 651//651 650//650 654//654
f 654//654 650//650 656//656
f 654//654 656//656 658//658
f 660//660 662//662 665//665
f 665//665 666//666 660//660
f 660//660 666//666 669//669
f 660//660 669//669 656//656
f 656//656 669//669 670//670
f 656//656 670//670 658//658
f 672//672 675//675 676//676
f 676//676 675//675 678//678
f 676//676 678//678 662//662
f 662//662 678//678 680//680
f 662//662 680//680 665//665
f 682//682 685//685 687//687
f 687//687 688//688 682//682
f 682//682 688//688 690//690
f 682//682 690//690 676//676
f 676//676 690//690 693//693
f 676//676 693//693 672//672
f 694//694 696//696 697//697
f 697//697 696//696 699//699
f 697//697 699//699 700//700
f 700//700 699//699 701//701
f 700//700 701//701 703//703
f 703//703 701//701 684//684
f 703//703 684//684 704//704
f 704//704 684//684 683//683
f 704//704 683//683 705//705
f 706//706 639//639 707//707
f 707//707 639//639 627//627
f 707//707 627//627 708//708
f 708//708 627//627 626//626
f 708//708 626//626 709//709
f 709//709 626//626 622//622
f 709//709 622//622 710//710
f 622//622 711//711 710//710
f 710//710 711//711 714//714
f 710//710 714//714 715//715
f 715//715 714//714 716//716
f 715//715 716//716 718//718
f 718//718 716//716 720//720
f 718//718 720//720 721//721
f 721//721 720//720 724//724
f 721//721 724//724 694//694
f 694//694 724//724 726//726
f 694//694 726//726 696//696
f 683//683 677//677 705//705
f 705//705 677//677 663//663
f 705//705 663//663 727//727
f 727//727 663//663 661//661
f 727//727 661//661 728//728
f 728//728 661//661 657//657
f 728//728 657//657 706//706
f 706//706 657//657 649//649
f 706//706 649//649 639//639
f 733//733 735//735 737//737
f 737//737 735//735 739//739
f 741//741 743//743 739//739
f 739//739 743//743 745//745
f 739//739 745//745 737//737
f 747//747 748//748 741//741
f 741//741 748//748 751//751
f 741//741 751//751 743//743
f 741//741 753//753 747//747
f 733//733 755//755 735//735
f 735//735 755//755 756//756
f 756//756 755//755 759//759
f 756//756 759//759 760//760
f 760//760 759//759 763//763
f 760//760 763//763 764//764
f 764//764 763//763 766//766
f 764//764 766//766 769//769
f 769//769 766//766 771//771
f 769//769 771//771 772//772
f 772//772 771//771 488//488
f 488//488 771//771 485//485
f 774//774 777//777 781//781
f 774//774 781//781 782//782
f 781//781 785//785 782//782
f 782//782 785//785 786//786
f 782//782 786//786 788//788
f 788//788 786//786 790//790
f 788//788 790//790 792//792
f 792//792 790//790 795//795
f 796//796 777//777 798//798
f 798//798 777//777 774//774
f 800//800 802//802 804//804
f 800//800 804//804 807//807
f 807//807 804//804 809//809
f 807//807 809//809 810//810
f 810//810 809//809 813//813
f 810//810 813//813 814//814
f 814//814 813//813 796//796
f 814//814 796//796 798//798
f 484//484 481//481 800//800
f 800//800 481//481 802//802
f 749//749 746//746 791//791
f 791//791 746//746 794//794
f 780//780 736//736 784//784
f 784//784 736//736 744//744
f 784//784 744//744 787//787
f 787//787 744//744 742//742
f 787//787 742//742 791//791
f 791//791 742//742 750//750
f 791//791 750//750 749//749
f 664//664 681//681 754//754
f 624//624 736//736 619//619
f 619//619 736//736 780//780
f 619//619 780//780 817//817
f 817//817 780//780 818//818
f 624//624 632//632 736//736
f 736//736 632//632 629//629
f 736//736 629//629 645//645
f 797//797 821//821 823//823
f 824//824 826//826 780//780
f 780//780 826//826 828//828
f 780//780 828//828 818//818
f 830//830 834//834 776//776
f 776//776 834//834 835//835
f 776//776 835//835 779//779
f 780//780 835//835 838//838
f 780//780 838//838 824//824
f 671//671 668//668 754//754
f 754//754 668//668 667//667
f 754//754 667//667 664//664
f 645//645 643//643 736//736
f 736//736 643//643 636//636
f 736//736 636//636 732//732
f 731//731 638//638 633//633
f 732//732 635//635 648//648
f 823//823 840//840 797//797
f 797//797 840//840 842//842
f 797//797 842//842 844//844
f 844//844 846//846 797//797
f 797//797 846//846 847//847
f 797//797 847//847 776//776
f 776//776 847//847 851//851
f 778//778 850//850 831//831
f 646//646 653//653 731//731
f 732//732 652//652 655//655
f 732//732 655//655 754//754
f 754//754 655//655 659//659
f 754//754 659//659 671//671
f 821//821 797//797 853//853
f 853//853 797//797 812//812
f 853//853 812//812 855//855
f 691//691 689//689 762//762
f 762//762 689//689 686//686
f 808//808 686//686 858//858
f 858//858 860//860 808//808
f 808//808 860//860 862//862
f 808//808 862//862 812//812
f 812//812 862//862 864//864
f 812//812 864//864 855//855
f 754//754 681//681 758//758
f 758//758 681//681 679//679
f 679//679 674//674 758//758
f 758//758 674//674 673//673
f 758//758 673//673 762//762
f 762//762 673//673 692//692
f 762//762 692//692 691//691
f 686//686 808//808 762//762
f 762//762 808//808 805//805
f 762//762 805//805 767//767
f 767//767 805//805 803//803
f 767//767 803//803 770//770
f 775//775 783//783 729//729
f 783//783 789//789 729//729
f 729//729 789//789 793//793
f 483//483 801//801 729//729
f 729//729 801//801 806//806
f 729//729 806//806 811//811
f 811//811 815//815 729//729
f 729//729 815//815 799//799
f 729//729 799//799 775//775
f 773//773 487//487 730//730
f 730//730 752//752 740//740
f 730//730 740//740 738//738
f 738//738 734//734 730//730
f 730//730 734//734 757//757
f 730//730 757//757 761//761
f 761//761 765//765 730//730
f 730//730 765//765 768//768
f 730//730 768//768 773//773
f 770//770 803//803 486//486
f 486//486 803//803 482//482
f 687//687 685//685 857//857
f 857//857 685//685 702//702
f 857//857 702//702 859//859
f 859//859 702//702 861//861
f 861//861 702//702 698//698
f 861//861 698//698 863//863
f 822//822 820//820 695//695
f 695//695 820//820 854//854
f 695//695 854//854 698//698
f 698//698 854//854 856//856
f 698//698 856//856 863//863
f 822//822 695//695 839//839
f 839//839 695//695 725//725
f 839//839 725//725 841//841
f 841//841 725//725 843//843
f 843//843 725//725 723//723
f 843//843 723//723 845//845
f 719//719 852//852 722//722
f 722//722 852//852 848//848
f 723//723 849//849 845//845
f 717//717 833//833 719//719
f 719//719 833//833 832//832
f 719//719 832//832 852//852
f 713//713 837//837 717//717
f 717//717 837//837 836//836
f 717//717 836//836 833//833
f 819//819 829//829 712//712
f 712//712 829//829 827//827
f 712//712 827//827 713//713
f 713//713 827//827 825//825
f 713//713 825//825 837//837
f 819//819 712//712 816//816
f 816//816 712//712 621//621
f 816//816 621//621 620//620

