mtllib material.mtl
usemtl grey.004
v 0.00229900 0.01150000 -0.00005600
v 0.00196300 0.01150000 -0.00119800
v 0.00110100 0.01150000 -0.00201900
v -0.00005600 0.01150000 -0.00229900
v -0.00119800 0.01150000 -0.00196300
v -0.00201900 0.01150000 -0.00110100
v -0.00229900 0.01150000 0.00005600
v -0.00196300 0.01150000 0.00119800
v -0.00110100 0.01150000 0.00201900
v 0.00005600 0.01150000 0.00229900
v 0.00119800 0.01150000 0.00196300
v 0.00201900 0.01150000 0.00110100
v -0.00101400 0.01200000 -0.00055300
v -0.00101400 0.01200000 -0.00055300
v -0.00101400 0.01200000 -0.00055300
v -0.00098600 0.01200000 0.00060200
v -0.00098600 0.01200000 0.00060200
v -0.00098600 0.01200000 0.00060200
v -0.00002800 0.01200000 -0.00115400
v -0.00002800 0.01200000 -0.00115400
v -0.00002800 0.01200000 -0.00115400
v 0.00002800 0.01200000 0.00115400
v 0.00002800 0.01200000 0.00115400
v 0.00002800 0.01200000 0.00115400
v 0.00098600 0.01200000 -0.00060200
v 0.00098600 0.01200000 -0.00060200
v 0.00098600 0.01200000 -0.00060200
v 0.00101400 0.01200000 0.00055300
v 0.00101400 0.01200000 0.00055300
v 0.00101400 0.01200000 0.00055300
v 0.00101400 0.01350000 0.00055300
v 0.00101400 0.01350000 0.00055300
v 0.00101400 0.01350000 0.00055300
v 0.00002800 0.01350000 0.00115400
v 0.00002800 0.01350000 0.00115400
v 0.00002800 0.01350000 0.00115400
v 0.00098600 0.01350000 -0.00060200
v 0.00098600 0.01350000 -0.00060200
v 0.00098600 0.01350000 -0.00060200
v -0.00002800 0.01350000 -0.00115400
v -0.00002800 0.01350000 -0.00115400
v -0.00002800 0.01350000 -0.00115400
v -0.00101400 0.01350000 -0.00055300
v -0.00101400 0.01350000 -0.00055300
v -0.00101400 0.01350000 -0.00055300
v -0.00098600 0.01350000 0.00060200
v -0.00098600 0.01350000 0.00060200
v -0.00098600 0.01350000 0.00060200
v -0.00048700 0.01350000 0.00240100
v 0.00006000 0.01350000 0.00244900
v -0.00223300 0.01350000 -0.00100900
v -0.00240100 0.01350000 -0.00048700
v -0.00218100 0.01350000 0.00111700
v -0.00237400 0.01350000 0.00060300
v -0.00244900 0.01350000 0.00006000
v 0.00195200 0.01350000 0.00148000
v 0.00223300 0.01350000 0.00100900
v -0.00006000 0.01350000 -0.00244900
v -0.00060300 0.01350000 -0.00237500
v 0.00218100 0.01350000 -0.00111700
v 0.00187800 0.01350000 -0.00157400
v -0.00111700 0.01350000 -0.00218100
v -0.00157400 0.01350000 -0.00187800
v -0.00195200 0.01350000 -0.00148000
v 0.00148000 0.01350000 -0.00195200
v 0.00100900 0.01350000 -0.00223300
v 0.00048700 0.01350000 -0.00240100
v 0.00240100 0.01350000 0.00048700
v 0.00244900 0.01350000 -0.00006000
v 0.00237500 0.01350000 -0.00060300
v -0.00187800 0.01350000 0.00157400
v -0.00148000 0.01350000 0.00195200
v -0.00100900 0.01350000 0.00223300
v 0.00060300 0.01350000 0.00237500
v 0.00111700 0.01350000 0.00218100
v 0.00157400 0.01350000 0.00187800
v -0.00274900 0.01320000 0.00006700
v -0.00270900 0.01335000 0.00006600
v -0.00265600 0.01335000 -0.00053800
v -0.00259900 0.01346000 0.00006400
v -0.00259900 0.01346000 0.00006400
v -0.00254800 0.01346000 -0.00051600
v -0.00254800 0.01346000 -0.00051600
v -0.00236900 0.01346000 -0.00107000
v -0.00236900 0.01346000 -0.00107000
v -0.00207200 0.01346000 -0.00157100
v -0.00207200 0.01346000 -0.00157100
v -0.00167000 0.01346000 -0.00199200
v -0.00167000 0.01346000 -0.00199200
v -0.00118500 0.01346000 -0.00231400
v -0.00118500 0.01346000 -0.00231400
v -0.00064000 0.01346000 -0.00252000
v -0.00064000 0.01346000 -0.00252000
v -0.00006400 0.01346000 -0.00259900
v -0.00006400 0.01346000 -0.00259900
v 0.00051600 0.01346000 -0.00254800
v 0.00051600 0.01346000 -0.00254800
v 0.00107000 0.01346000 -0.00236900
v 0.00107000 0.01346000 -0.00236900
v 0.00157100 0.01346000 -0.00207200
v 0.00157100 0.01346000 -0.00207200
v 0.00199200 0.01346000 -0.00167000
v 0.00199200 0.01346000 -0.00167000
v 0.00231400 0.01346000 -0.00118500
v 0.00231400 0.01346000 -0.00118500
v 0.00252000 0.01346000 -0.00064000
v 0.00252000 0.01346000 -0.00064000
v 0.00259900 0.01346000 -0.00006400
v 0.00259900 0.01346000 -0.00006400
v -0.00246900 0.01335000 -0.00111600
v -0.00215900 0.01335000 -0.00163700
v -0.00174100 0.01335000 -0.00207700
v -0.00123500 0.01335000 -0.00241200
v -0.00066700 0.01335000 -0.00262600
v -0.00006600 0.01335000 -0.00270900
v 0.00053800 0.01335000 -0.00265600
v 0.00111600 0.01335000 -0.00246900
v 0.00163700 0.01335000 -0.00215900
v 0.00207700 0.01335000 -0.00174100
v 0.00241200 0.01335000 -0.00123500
v 0.00262600 0.01335000 -0.00066700
v 0.00270900 0.01335000 -0.00006600
v -0.00269500 0.01320000 -0.00054600
v -0.00250600 0.01320000 -0.00113200
v -0.00219100 0.01320000 -0.00166100
v -0.00176700 0.01320000 -0.00210700
v -0.00125300 0.01320000 -0.00244800
v -0.00067700 0.01320000 -0.00266500
v -0.00006700 0.01320000 -0.00274900
v 0.00054600 0.01320000 -0.00269500
v 0.00113200 0.01320000 -0.00250600
v 0.00166100 0.01320000 -0.00219100
v 0.00210700 0.01320000 -0.00176700
v 0.00244800 0.01320000 -0.00125300
v 0.00266500 0.01320000 -0.00067700
v 0.00274900 0.01320000 -0.00006700
v 0.00265600 0.01335000 0.00053800
v 0.00254800 0.01346000 0.00051600
v 0.00254800 0.01346000 0.00051600
v 0.00236900 0.01346000 0.00107000
v 0.00236900 0.01346000 0.00107000
v 0.00207200 0.01346000 0.00157100
v 0.00207200 0.01346000 0.00157100
v 0.00167000 0.01346000 0.00199200
v 0.00167000 0.01346000 0.00199200
v 0.00118500 0.01346000 0.00231400
v 0.00118500 0.01346000 0.00231400
v 0.00064000 0.01346000 0.00252000
v 0.00064000 0.01346000 0.00252000
v 0.00006400 0.01346000 0.00259900
v 0.00006400 0.01346000 0.00259900
v -0.00051600 0.01346000 0.00254800
v -0.00051600 0.01346000 0.00254800
v -0.00107000 0.01346000 0.00236900
v -0.00107000 0.01346000 0.00236900
v -0.00157100 0.01346000 0.00207200
v -0.00157100 0.01346000 0.00207200
v -0.00199200 0.01346000 0.00167000
v -0.00199200 0.01346000 0.00167000
v -0.00231400 0.01346000 0.00118500
v -0.00231400 0.01346000 0.00118500
v -0.00252000 0.01346000 0.00064000
v -0.00252000 0.01346000 0.00064000
v 0.00246900 0.01335000 0.00111600
v 0.00215900 0.01335000 0.00163700
v 0.00174100 0.01335000 0.00207700
v 0.00123500 0.01335000 0.00241200
v 0.00066700 0.01335000 0.00262600
v 0.00006600 0.01335000 0.00270900
v -0.00053800 0.01335000 0.00265600
v -0.00111600 0.01335000 0.00246900
v -0.00163700 0.01335000 0.00215900
v -0.00207700 0.01335000 0.00174100
v -0.00241200 0.01335000 0.00123500
v -0.00262600 0.01335000 0.00066700
v 0.00269500 0.01320000 0.00054600
v 0.00250600 0.01320000 0.00113200
v 0.00219100 0.01320000 0.00166100
v 0.00176700 0.01320000 0.00210700
v 0.00125300 0.01320000 0.00244800
v 0.00067700 0.01320000 0.00266500
v 0.00006700 0.01320000 0.00274900
v -0.00054600 0.01320000 0.00269500
v -0.00113200 0.01320000 0.00250600
v -0.00166100 0.01320000 0.00219100
v -0.00210700 0.01320000 0.00176700
v -0.00244800 0.01320000 0.00125300
v -0.00266500 0.01320000 0.00067700
v -0.00274900 0.01150000 0.00006700
v -0.00274900 0.01150000 0.00006700
v -0.00250600 0.01150000 -0.00113200
v -0.00250600 0.01150000 -0.00113200
v -0.00176700 0.01150000 -0.00210700
v -0.00176700 0.01150000 -0.00210700
v -0.00067700 0.01150000 -0.00266500
v -0.00067700 0.01150000 -0.00266500
v 0.00054600 0.01150000 -0.00269500
v 0.00054600 0.01150000 -0.00269500
v 0.00166100 0.01150000 -0.00219100
v 0.00166100 0.01150000 -0.00219100
v 0.00244800 0.01150000 -0.00125300
v 0.00244800 0.01150000 -0.00125300
v 0.00274900 0.01150000 -0.00006700
v 0.00274900 0.01150000 -0.00006700
v 0.00250600 0.01150000 0.00113200
v 0.00250600 0.01150000 0.00113200
v 0.00176700 0.01150000 0.00210700
v 0.00176700 0.01150000 0.00210700
v 0.00067700 0.01150000 0.00266500
v 0.00067700 0.01150000 0.00266500
v -0.00054600 0.01150000 0.00269500
v -0.00054600 0.01150000 0.00269500
v -0.00166100 0.01150000 0.00219100
v -0.00166100 0.01150000 0.00219100
v -0.00244800 0.01150000 0.00125300
v -0.00244800 0.01150000 0.00125300
v -0.00533500 -0.01330000 0.04470300
v -0.00428700 -0.01330000 0.04507700
v -0.00350600 -0.01330000 0.04586900
v -0.00314500 -0.01330000 0.04692200
v -0.00327700 -0.01330000 0.04802600
v -0.00387500 -0.01330000 0.04896500
v -0.00482100 -0.01330000 0.04955000
v -0.00592800 -0.01330000 0.04966800
v -0.00738700 -0.01330000 0.04540600
v -0.00644100 -0.01330000 0.04482000
v -0.00798600 -0.01330000 0.04634400
v -0.00811700 -0.01330000 0.04744900
v -0.00775700 -0.01330000 0.04850100
v -0.00697500 -0.01330000 0.04929300
v -0.00592800 0.01330000 0.04966800
v -0.00482100 0.01330000 0.04955000
v -0.00387500 0.01330000 0.04896500
v -0.00327700 0.01330000 0.04802600
v -0.00314500 0.01330000 0.04692200
v -0.00350600 0.01330000 0.04586900
v -0.00428700 0.01330000 0.04507700
v -0.00533500 0.01330000 0.04470300
v -0.00798600 0.01330000 0.04634400
v -0.00811700 0.01330000 0.04744900
v -0.00738700 0.01330000 0.04540600
v -0.00775700 0.01330000 0.04850100
v -0.00697500 0.01330000 0.04929300
v -0.00644100 0.01330000 0.04482000
v -0.00005600 -0.01150000 -0.00229900
v -0.00061000 -0.01150000 -0.00268100
v -0.00061000 -0.01150000 -0.00268100
v -0.00119800 -0.01150000 -0.00196300
v -0.00171300 -0.01150000 -0.00215100
v -0.00171300 -0.01150000 -0.00215100
v -0.00201900 -0.01150000 -0.00110100
v -0.00247700 -0.01150000 -0.00119500
v -0.00247700 -0.01150000 -0.00119500
v -0.00229900 -0.01150000 0.00005600
v -0.00275000 -0.01150000 -0.00000200
v -0.00275000 -0.01150000 -0.00000200
v -0.00196300 -0.01150000 0.00119800
v -0.00247900 -0.01150000 0.00119100
v -0.00247900 -0.01150000 0.00119100
v -0.00110100 -0.01150000 0.00201900
v -0.00171600 -0.01150000 0.00214900
v -0.00171600 -0.01150000 0.00214900
v 0.00005600 -0.01150000 0.00229900
v -0.00061400 -0.01150000 0.00268100
v -0.00061400 -0.01150000 0.00268100
v 0.00061000 -0.01150000 0.00268100
v 0.00061000 -0.01150000 0.00268100
v 0.00119800 -0.01150000 0.00196300
v 0.00171300 -0.01150000 0.00215100
v 0.00171300 -0.01150000 0.00215100
v 0.00201900 -0.01150000 0.00110100
v 0.00247700 -0.01150000 0.00119500
v 0.00247700 -0.01150000 0.00119500
v 0.00229900 -0.01150000 -0.00005600
v 0.00275000 -0.01150000 0.00000200
v 0.00275000 -0.01150000 0.00000200
v 0.00196300 -0.01150000 -0.00119800
v 0.00247900 -0.01150000 -0.00119100
v 0.00247900 -0.01150000 -0.00119100
v 0.00110100 -0.01150000 -0.00201900
v 0.00171600 -0.01150000 -0.00214900
v 0.00171600 -0.01150000 -0.00214900
v 0.00061400 -0.01150000 -0.00268100
v 0.00061400 -0.01150000 -0.00268100
v -0.00247900 -0.01320000 0.00119100
v -0.00192200 -0.01320000 0.00196700
v -0.00171600 -0.01320000 0.00214900
v -0.00113300 -0.01320000 0.00250600
v -0.00061400 -0.01320000 0.00268100
v -0.00020800 -0.01320000 0.00274200
v 0.00074300 -0.01320000 0.00264800
v 0.00160300 -0.01320000 0.00223400
v 0.00227100 -0.01320000 0.00155100
v 0.00247700 -0.01320000 0.00119500
v 0.00266400 -0.01320000 0.00068100
v 0.00247900 -0.01320000 -0.00119100
v 0.00273700 -0.01320000 -0.00027200
v 0.00275000 -0.01320000 0.00000200
v 0.00215100 -0.01320000 -0.00171300
v 0.00171600 -0.01320000 -0.00214900
v 0.00119500 -0.01320000 -0.00247700
v 0.00061400 -0.01320000 -0.00268100
v 0.00000200 -0.01320000 -0.00275000
v -0.00061000 -0.01320000 -0.00268100
v -0.00119100 -0.01320000 -0.00247900
v -0.00171300 -0.01320000 -0.00215100
v -0.00214900 -0.01320000 -0.00171600
v -0.00247700 -0.01320000 -0.00119500
v -0.00268100 -0.01320000 -0.00061400
v -0.00268100 -0.01320000 0.00061000
v -0.00275000 -0.01320000 -0.00000200
v -0.00179200 -0.01347700 0.00183500
v -0.00234300 -0.01346000 0.00112600
v -0.00220800 -0.01350000 0.00106100
v 0.00220800 -0.01350000 -0.00106100
v 0.00255200 -0.01347700 -0.00025300
v 0.00243800 -0.01350000 -0.00024200
v 0.00248500 -0.01347700 0.00063500
v 0.00237400 -0.01350000 0.00060600
v 0.00211800 -0.01347700 0.00144600
v 0.00202300 -0.01350000 0.00138200
v 0.00149500 -0.01347700 0.00208400
v 0.00142900 -0.01350000 0.00199000
v 0.00069300 -0.01347700 0.00246900
v 0.00066200 -0.01350000 0.00235900
v -0.00019400 -0.01347700 0.00255700
v -0.00018500 -0.01350000 0.00244300
v -0.00105700 -0.01347700 0.00233700
v -0.00100900 -0.01350000 0.00223200
v -0.00171200 -0.01350000 0.00175200
v -0.00244200 -0.01335000 0.00117400
v -0.00239900 -0.01341200 0.00115300
v -0.00186000 -0.01341200 0.00190400
v -0.00109700 -0.01341200 0.00242600
v -0.00020100 -0.01341200 0.00265400
v 0.00071900 -0.01341200 0.00256300
v 0.00155200 -0.01341200 0.00216300
v 0.00219800 -0.01341200 0.00150100
v 0.00257900 -0.01341200 0.00065900
v 0.00264900 -0.01341200 -0.00026300
v 0.00231200 -0.01347700 -0.00111100
v 0.00234300 -0.01346000 -0.00112600
v 0.00239900 -0.01341200 -0.00115300
v 0.00244200 -0.01335000 -0.00117400
v -0.00190600 -0.01331500 0.00195100
v -0.00112400 -0.01331500 0.00248500
v -0.00020600 -0.01331500 0.00271900
v 0.00073600 -0.01331500 0.00262600
v 0.00159000 -0.01331500 0.00221600
v 0.00225200 -0.01331500 0.00153800
v 0.00264200 -0.01331500 0.00067500
v 0.00271400 -0.01331500 -0.00026900
v 0.00245800 -0.01331500 -0.00118100
v -0.00245800 -0.01331500 0.00118100
v 0.00203400 -0.01346000 -0.00161900
v 0.00212000 -0.01335000 -0.00168800
v -0.00253500 -0.01346000 0.00057600
v -0.00238900 -0.01350000 0.00054300
v -0.00260000 -0.01346000 -0.00000200
v -0.00260000 -0.01346000 -0.00000200
v -0.00245000 -0.01350000 -0.00000200
v -0.00253400 -0.01346000 -0.00058100
v -0.00253400 -0.01346000 -0.00058100
v -0.00238800 -0.01350000 -0.00054700
v -0.00234200 -0.01346000 -0.00113000
v -0.00234200 -0.01346000 -0.00113000
v -0.00220700 -0.01350000 -0.00106500
v -0.00203100 -0.01346000 -0.00162300
v -0.00203100 -0.01346000 -0.00162300
v -0.00191400 -0.01350000 -0.00152900
v -0.00161900 -0.01346000 -0.00203400
v -0.00161900 -0.01346000 -0.00203400
v -0.00152600 -0.01350000 -0.00191700
v -0.00112600 -0.01346000 -0.00234300
v -0.00112600 -0.01346000 -0.00234300
v -0.00106100 -0.01350000 -0.00220800
v -0.00057700 -0.01346000 -0.00253500
v -0.00057700 -0.01346000 -0.00253500
v -0.00054300 -0.01350000 -0.00238900
v 0.00000200 -0.01346000 -0.00260000
v 0.00000200 -0.01346000 -0.00260000
v 0.00000200 -0.01350000 -0.00245000
v 0.00058100 -0.01346000 -0.00253400
v 0.00058100 -0.01346000 -0.00253400
v 0.00054700 -0.01350000 -0.00238800
v 0.00113000 -0.01346000 -0.00234200
v 0.00113000 -0.01346000 -0.00234200
v 0.00106500 -0.01350000 -0.00220700
v 0.00162300 -0.01346000 -0.00203100
v 0.00162300 -0.01346000 -0.00203100
v 0.00152900 -0.01350000 -0.00191400
v 0.00191700 -0.01350000 -0.00152600
v 0.00169100 -0.01335000 -0.00211700
v 0.00117800 -0.01335000 -0.00244000
v 0.00060500 -0.01335000 -0.00264100
v 0.00000200 -0.01335000 -0.00271000
v -0.00060100 -0.01335000 -0.00264200
v -0.00117400 -0.01335000 -0.00244200
v -0.00168800 -0.01335000 -0.00212000
v -0.00211700 -0.01335000 -0.00169100
v -0.00244000 -0.01335000 -0.00117800
v -0.00264100 -0.01335000 -0.00060500
v -0.00271000 -0.01335000 -0.00000200
v -0.00264200 -0.01335000 0.00060100
v 0.00065100 -0.01350000 -0.00095400
v 0.00065100 -0.01350000 -0.00095400
v 0.00065100 -0.01350000 -0.00095400
v 0.00065100 -0.01350000 -0.00095400
v 0.00115100 -0.01350000 0.00008700
v 0.00115100 -0.01350000 0.00008700
v 0.00115100 -0.01350000 0.00008700
v -0.00050000 -0.01350000 -0.00104100
v -0.00050000 -0.01350000 -0.00104100
v -0.00050000 -0.01350000 -0.00104100
v -0.00050000 -0.01350000 -0.00104100
v -0.00115100 -0.01350000 -0.00008700
v -0.00115100 -0.01350000 -0.00008700
v -0.00115100 -0.01350000 -0.00008700
v -0.00065100 -0.01350000 0.00095400
v -0.00065100 -0.01350000 0.00095400
v -0.00065100 -0.01350000 0.00095400
v -0.00065100 -0.01350000 0.00095400
v 0.00050000 -0.01350000 0.00104100
v 0.00050000 -0.01350000 0.00104100
v 0.00050000 -0.01350000 0.00104100
v 0.00065100 -0.01200000 -0.00095400
v 0.00065100 -0.01200000 -0.00095400
v 0.00065100 -0.01200000 -0.00095400
v 0.00090100 -0.01200000 -0.00043300
v 0.00090100 -0.01200000 -0.00043300
v 0.00090100 -0.01200000 -0.00043300
v 0.00090100 -0.01200000 -0.00043300
v 0.00115100 -0.01200000 0.00008700
v 0.00115100 -0.01200000 0.00008700
v 0.00115100 -0.01200000 0.00008700
v -0.00050000 -0.01200000 -0.00104100
v -0.00050000 -0.01200000 -0.00104100
v -0.00050000 -0.01200000 -0.00104100
v 0.00007600 -0.01200000 -0.00099700
v 0.00007600 -0.01200000 -0.00099700
v 0.00007600 -0.01200000 -0.00099700
v 0.00007600 -0.01200000 -0.00099700
v -0.00115100 -0.01200000 -0.00008700
v -0.00115100 -0.01200000 -0.00008700
v -0.00115100 -0.01200000 -0.00008700
v -0.00082600 -0.01200000 -0.00056400
v -0.00082600 -0.01200000 -0.00056400
v -0.00082600 -0.01200000 -0.00056400
v -0.00065100 -0.01200000 0.00095400
v -0.00065100 -0.01200000 0.00095400
v -0.00065100 -0.01200000 0.00095400
v -0.00090100 -0.01200000 0.00043300
v -0.00090100 -0.01200000 0.00043300
v -0.00090100 -0.01200000 0.00043300
v -0.00090100 -0.01200000 0.00043300
v 0.00050000 -0.01200000 0.00104100
v 0.00050000 -0.01200000 0.00104100
v 0.00050000 -0.01200000 0.00104100
v -0.00007600 -0.01200000 0.00099700
v -0.00007600 -0.01200000 0.00099700
v -0.00007600 -0.01200000 0.00099700
v 0.00082600 -0.01200000 0.00056400
v 0.00082600 -0.01200000 0.00056400
v 0.00082600 -0.01200000 0.00056400
v 0.00090100 -0.01200000 0.00043500
v 0.00090100 -0.01200000 0.00043500
v 0.00100000 -0.01200000 0.00000100
v 0.00100000 -0.01200000 0.00000100
v 0.00056400 -0.01200000 -0.00082600
v 0.00056400 -0.01200000 -0.00082600
v -0.00043300 -0.01200000 -0.00090100
v -0.00043300 -0.01200000 -0.00090100
v -0.00099700 -0.01200000 -0.00007600
v -0.00099700 -0.01200000 -0.00007600
v -0.00062400 -0.01200000 0.00078100
v -0.00062400 -0.01200000 0.00078100
v -0.00022300 -0.01200000 0.00097500
v -0.00022300 -0.01200000 0.00097500
v 0.00022200 -0.01200000 0.00097500
v 0.00022200 -0.01200000 0.00097500
v 0.00062300 -0.01200000 0.00078200
v 0.00062300 -0.01200000 0.00078200
v 0.00000000 -0.01142300 0.00000000
vn -0.00000000 -1.00000000 -0.00000000
vn -0.00000000 -1.00000000 -0.00000000
vn -0.00000000 -1.00000000 -0.00000000
vn -0.00000000 -1.00000000 -0.00000000
vn -0.00000000 -1.00000000 -0.00000000
vn -0.00000000 -1.00000000 -0.00000000
vn -0.00000000 -1.00000000 -0.00000000
vn -0.00000000 -1.00000000 -0.00000000
vn -0.00000000 -1.00000000 -0.00000000
vn -0.00000000 -1.00000000 -0.00000000
vn -0.00000000 -1.00000000 -0.00000000
vn -0.00000000 -1.00000000 -0.00000000
vn 0.99970000 -0.00000000 -0.02440000
vn 0.52100000 -0.00000000 0.85360000
vn -0.00000000 1.00000000 -0.00000000
vn -0.00000000 1.00000000 -0.00000000
vn 0.47860000 -0.00000000 -0.87800000
vn 0.99970000 -0.00000000 -0.02440000
vn 0.52100000 -0.00000000 0.85360000
vn -0.47860000 -0.00000000 0.87800000
vn -0.00000000 1.00000000 -0.00000000
vn -0.00000000 1.00000000 -0.00000000
vn 0.47860000 -0.00000000 -0.87800000
vn -0.52100000 -0.00000000 -0.85360000
vn -0.00000000 1.00000000 -0.00000000
vn -0.99970000 -0.00000000 0.02440000
vn -0.47860000 -0.00000000 0.87800000
vn -0.52100000 -0.00000000 -0.85360000
vn -0.00000000 1.00000000 -0.00000000
vn -0.99970000 -0.00000000 0.02440000
vn -0.52100000 -0.00000000 -0.85360000
vn -0.00000000 1.00000000 -0.00000000
vn -0.99970000 -0.00000000 0.02440000
vn -0.52100000 -0.00000000 -0.85360000
vn -0.00000000 1.00000000 -0.00000000
vn 0.47860000 -0.00000000 -0.87800000
vn -0.99970000 -0.00000000 0.02440000
vn -0.47860000 -0.00000000 0.87800000
vn -0.00000000 1.00000000 -0.00000000
vn -0.47860000 -0.00000000 0.87800000
vn 0.52100000 -0.00000000 0.85360000
vn -0.00000000 1.00000000 -0.00000000
vn 0.99970000 -0.00000000 -0.02440000
vn 0.52100000 -0.00000000 0.85360000
vn -0.00000000 1.00000000 -0.00000000
vn -0.00000000 1.00000000 -0.00000000
vn 0.47860000 -0.00000000 -0.87800000
vn 0.99970000 -0.00000000 -0.02440000
vn -0.02770000 0.99020000 0.13680000
vn 0.00340000 0.99020000 0.13950000
vn -0.12720000 0.99020000 -0.05750000
vn -0.13680000 0.99020000 -0.02770000
vn -0.12430000 0.99020000 0.06360000
vn -0.13520000 0.99020000 0.03440000
vn -0.13950000 0.99020000 0.00340000
vn 0.11120000 0.99020000 0.08430000
vn 0.12720000 0.99020000 0.05750000
vn -0.00340000 0.99020000 -0.13950000
vn -0.03440000 0.99020000 -0.13530000
vn 0.12420000 0.99020000 -0.06360000
vn 0.10700000 0.99020000 -0.08970000
vn -0.06360000 0.99020000 -0.12420000
vn -0.08970000 0.99020000 -0.10700000
vn -0.11120000 0.99020000 -0.08430000
vn 0.08430000 0.99020000 -0.11120000
vn 0.05750000 0.99020000 -0.12720000
vn 0.02770000 0.99020000 -0.13680000
vn 0.13680000 0.99020000 0.02770000
vn 0.13950000 0.99020000 -0.00340000
vn 0.13530000 0.99020000 -0.03440000
vn -0.10700000 0.99020000 0.08970000
vn -0.08430000 0.99020000 0.11120000
vn -0.05750000 0.99020000 0.12720000
vn 0.03440000 0.99020000 0.13530000
vn 0.06360000 0.99020000 0.12420000
vn 0.08970000 0.99020000 0.10700000
vn -0.99130000 0.12930000 0.02420000
vn -0.87030000 0.49210000 0.02130000
vn -0.85320000 0.49220000 -0.17290000
vn -0.70700000 0.70700000 0.01730000
vn -0.25860000 0.96600000 0.00630000
vn -0.25360000 0.96600000 -0.05140000
vn -0.69310000 0.70710000 -0.14050000
vn -0.23580000 0.96600000 -0.10650000
vn -0.64450000 0.70700000 -0.29120000
vn -0.20610000 0.96600000 -0.15630000
vn -0.56360000 0.70700000 -0.42730000
vn -0.45430000 0.70700000 -0.54190000
vn -0.16620000 0.96590000 -0.19830000
vn -0.32240000 0.70700000 -0.62940000
vn -0.11790000 0.96600000 -0.23020000
vn -0.17420000 0.70690000 -0.68550000
vn -0.06370000 0.96600000 -0.25070000
vn -0.01730000 0.70700000 -0.70700000
vn -0.00630000 0.96600000 -0.25860000
vn 0.14050000 0.70710000 -0.69310000
vn 0.05140000 0.96600000 -0.25360000
vn 0.29120000 0.70700000 -0.64450000
vn 0.10650000 0.96600000 -0.23580000
vn 0.42730000 0.70700000 -0.56350000
vn 0.15630000 0.96600000 -0.20610000
vn 0.19830000 0.96590000 -0.16620000
vn 0.54190000 0.70700000 -0.45430000
vn 0.62940000 0.70700000 -0.32230000
vn 0.23020000 0.96600000 -0.11790000
vn 0.25070000 0.96600000 -0.06370000
vn 0.68550000 0.70690000 -0.17420000
vn 0.70700000 0.70700000 -0.01730000
vn 0.25860000 0.96600000 -0.00630000
vn -0.79330000 0.49220000 -0.35840000
vn -0.69360000 0.49220000 -0.52600000
vn -0.55920000 0.49220000 -0.66710000
vn -0.39680000 0.49210000 -0.77490000
vn -0.21440000 0.49210000 -0.84370000
vn -0.02130000 0.49210000 -0.87030000
vn 0.17290000 0.49220000 -0.85320000
vn 0.35840000 0.49220000 -0.79330000
vn 0.52600000 0.49220000 -0.69360000
vn 0.66710000 0.49220000 -0.55920000
vn 0.77490000 0.49210000 -0.39680000
vn 0.84370000 0.49210000 -0.21440000
vn 0.87030000 0.49210000 -0.02130000
vn -0.97240000 0.12490000 -0.19710000
vn -0.90360000 0.12940000 -0.40830000
vn -0.79060000 0.12490000 -0.59940000
vn -0.63700000 0.12940000 -0.75990000
vn -0.45220000 0.12480000 -0.88310000
vn -0.24420000 0.12940000 -0.96100000
vn -0.02430000 0.12490000 -0.99190000
vn 0.19700000 0.12940000 -0.97180000
vn 0.40850000 0.12490000 -0.90420000
vn 0.59910000 0.12940000 -0.79020000
vn 0.76040000 0.12490000 -0.63740000
vn 0.88260000 0.12930000 -0.45200000
vn 0.96160000 0.12500000 -0.24440000
vn 0.99130000 0.12930000 -0.02420000
vn 0.85320000 0.49220000 0.17290000
vn 0.69310000 0.70710000 0.14050000
vn 0.25360000 0.96600000 0.05140000
vn 0.64450000 0.70700000 0.29120000
vn 0.23580000 0.96600000 0.10650000
vn 0.20610000 0.96600000 0.15630000
vn 0.56360000 0.70700000 0.42730000
vn 0.16620000 0.96590000 0.19830000
vn 0.45430000 0.70700000 0.54190000
vn 0.32240000 0.70700000 0.62940000
vn 0.11790000 0.96600000 0.23020000
vn 0.17420000 0.70690000 0.68550000
vn 0.06370000 0.96600000 0.25070000
vn 0.00630000 0.96590000 0.25890000
vn 0.01730000 0.70700000 0.70700000
vn -0.14050000 0.70700000 0.69310000
vn -0.05140000 0.96600000 0.25360000
vn -0.29120000 0.70700000 0.64450000
vn -0.10650000 0.96600000 0.23580000
vn -0.42730000 0.70700000 0.56350000
vn -0.15630000 0.96600000 0.20610000
vn -0.54190000 0.70700000 0.45430000
vn -0.19830000 0.96590000 0.16620000
vn -0.62940000 0.70700000 0.32230000
vn -0.23020000 0.96600000 0.11790000
vn -0.68520000 0.70720000 0.17410000
vn -0.25100000 0.96590000 0.06380000
vn 0.79330000 0.49220000 0.35840000
vn 0.69360000 0.49220000 0.52600000
vn 0.55920000 0.49220000 0.66710000
vn 0.39680000 0.49210000 0.77490000
vn 0.21440000 0.49210000 0.84370000
vn 0.02130000 0.49210000 0.87030000
vn -0.17290000 0.49220000 0.85320000
vn -0.35840000 0.49220000 0.79330000
vn -0.52600000 0.49220000 0.69360000
vn -0.66710000 0.49220000 0.55920000
vn -0.77490000 0.49210000 0.39680000
vn -0.84370000 0.49210000 0.21440000
vn 0.97240000 0.12490000 0.19710000
vn 0.90360000 0.12940000 0.40830000
vn 0.79060000 0.12490000 0.59940000
vn 0.63700000 0.12940000 0.75990000
vn 0.45220000 0.12480000 0.88310000
vn 0.24420000 0.12940000 0.96100000
vn 0.02430000 0.12490000 0.99190000
vn -0.19700000 0.12940000 0.97180000
vn -0.40850000 0.12490000 0.90420000
vn -0.59910000 0.12940000 0.79020000
vn -0.76040000 0.12490000 0.63740000
vn -0.88260000 0.12930000 0.45200000
vn -0.96160000 0.12500000 0.24440000
vn -0.00000000 -1.00000000 -0.00000000
vn -0.99920000 -0.03230000 0.02440000
vn -0.91080000 -0.03230000 -0.41150000
vn -0.00000000 -1.00000000 -0.00000000
vn -0.64210000 -0.03220000 -0.76590000
vn -0.00000000 -1.00000000 -0.00000000
vn -0.24620000 -0.03220000 -0.96870000
vn -0.00000000 -1.00000000 -0.00000000
vn 0.19850000 -0.03220000 -0.97960000
vn -0.00000000 -1.00000000 -0.00000000
vn 0.60390000 -0.03220000 -0.79640000
vn -0.00000000 -1.00000000 -0.00000000
vn 0.88960000 -0.03230000 -0.45550000
vn -0.00000000 -1.00000000 -0.00000000
vn 0.99920000 -0.03230000 -0.02440000
vn -0.00000000 -1.00000000 -0.00000000
vn 0.91080000 -0.03230000 0.41150000
vn -0.00000000 -1.00000000 -0.00000000
vn 0.64210000 -0.03220000 0.76590000
vn -0.00000000 -1.00000000 -0.00000000
vn -0.00000000 -1.00000000 -0.00000000
vn 0.24620000 -0.03220000 0.96870000
vn -0.00000000 -1.00000000 -0.00000000
vn -0.19850000 -0.03220000 0.97960000
vn -0.00000000 -1.00000000 -0.00000000
vn -0.60390000 -0.03220000 0.79640000
vn -0.00000000 -1.00000000 -0.00000000
vn -0.88960000 -0.03230000 0.45550000
vn -0.00000000 -1.00000000 -0.00000000
vn -0.00000000 -1.00000000 -0.00000000
vn -0.00000000 -1.00000000 -0.00000000
vn -0.00000000 -1.00000000 -0.00000000
vn -0.00000000 -1.00000000 -0.00000000
vn -0.00000000 -1.00000000 -0.00000000
vn -0.00000000 -1.00000000 -0.00000000
vn -0.00000000 -1.00000000 -0.00000000
vn -0.00000000 -1.00000000 -0.00000000
vn -0.00000000 -1.00000000 -0.00000000
vn -0.00000000 -1.00000000 -0.00000000
vn -0.00000000 -1.00000000 -0.00000000
vn -0.00000000 -1.00000000 -0.00000000
vn -0.00000000 -1.00000000 -0.00000000
vn -0.00000000 1.00000000 -0.00000000
vn -0.00000000 1.00000000 -0.00000000
vn -0.00000000 1.00000000 -0.00000000
vn -0.00000000 1.00000000 -0.00000000
vn -0.00000000 1.00000000 -0.00000000
vn -0.00000000 1.00000000 -0.00000000
vn -0.00000000 1.00000000 -0.00000000
vn -0.00000000 1.00000000 -0.00000000
vn -0.00000000 1.00000000 -0.00000000
vn -0.00000000 1.00000000 -0.00000000
vn -0.00000000 1.00000000 -0.00000000
vn -0.00000000 1.00000000 -0.00000000
vn -0.00000000 1.00000000 -0.00000000
vn -0.00000000 1.00000000 -0.00000000
vn -0.00000000 1.00000000 -0.00000000
vn -0.22160000 0.03230000 -0.97460000
vn -0.00000000 1.00000000 -0.00000000
vn -0.00000000 1.00000000 -0.00000000
vn -0.00000000 1.00000000 -0.00000000
vn -0.62250000 0.03230000 -0.78190000
vn -0.00000000 1.00000000 -0.00000000
vn -0.00000000 1.00000000 -0.00000000
vn -0.90010000 0.03230000 -0.43440000
vn -0.00000000 1.00000000 -0.00000000
vn -0.00000000 1.00000000 -0.00000000
vn -0.99950000 0.03220000 -0.00080000
vn -0.00000000 1.00000000 -0.00000000
vn -0.00000000 1.00000000 -0.00000000
vn -0.89920000 0.02580000 0.43690000
vn -0.00000000 1.00000000 -0.00000000
vn -0.62640000 0.02830000 0.77890000
vn -0.00000000 1.00000000 -0.00000000
vn -0.00000000 1.00000000 -0.00000000
vn -0.22210000 0.03200000 0.97450000
vn -0.00000000 1.00000000 -0.00000000
vn 0.22690000 0.01890000 0.97370000
vn -0.00000000 1.00000000 -0.00000000
vn -0.00000000 1.00000000 -0.00000000
vn -0.00000000 1.00000000 -0.00000000
vn 0.61850000 0.01890000 0.78550000
vn -0.00000000 1.00000000 -0.00000000
vn 0.89970000 0.03200000 0.43540000
vn -0.00000000 1.00000000 -0.00000000
vn -0.00000000 1.00000000 -0.00000000
vn -0.00000000 1.00000000 -0.00000000
vn 0.99960000 0.02830000 -0.00250000
vn -0.00000000 1.00000000 -0.00000000
vn -0.00000000 1.00000000 -0.00000000
vn 0.90290000 0.02580000 -0.42910000
vn -0.00000000 1.00000000 -0.00000000
vn -0.00000000 1.00000000 -0.00000000
vn 0.62380000 0.03220000 -0.78090000
vn -0.00000000 1.00000000 -0.00000000
vn 0.22320000 0.03230000 -0.97420000
vn -0.88330000 -0.09710000 0.45860000
vn -0.73870000 -0.09420000 0.66740000
vn -0.55400000 -0.24530000 0.79560000
vn -0.43110000 -0.10070000 0.89660000
vn -0.23310000 -0.22370000 0.94640000
vn -0.02750000 -0.09540000 0.99510000
vn 0.27320000 -0.09560000 0.95720000
vn 0.57680000 -0.09570000 0.81130000
vn 0.79410000 -0.09560000 0.60020000
vn 0.87270000 -0.31050000 0.37680000
vn 0.96260000 -0.10440000 0.25010000
vn 0.90990000 -0.09710000 -0.40320000
vn 0.98260000 -0.09410000 -0.15980000
vn 0.97830000 -0.20140000 0.04790000
vn 0.77470000 -0.12290000 -0.62020000
vn 0.61890000 -0.12940000 -0.77470000
vn 0.43120000 -0.12460000 -0.89360000
vn 0.22140000 -0.12950000 -0.96650000
vn 0.00080000 -0.12480000 -0.99220000
vn -0.21990000 -0.12930000 -0.96690000
vn -0.42980000 -0.12490000 -0.89430000
vn -0.61760000 -0.12930000 -0.77580000
vn -0.77520000 -0.12490000 -0.61930000
vn -0.89300000 -0.12950000 -0.43100000
vn -0.96710000 -0.12500000 -0.22160000
vn -0.96830000 -0.12290000 0.21750000
vn -0.99160000 -0.12930000 -0.00080000
vn -0.27850000 -0.91650000 0.28710000
vn -0.40680000 -0.88900000 0.21010000
vn -0.12590000 -0.99000000 0.06310000
vn 0.09790000 -0.99430000 -0.04300000
vn 0.39830000 -0.91650000 -0.03780000
vn 0.10830000 -0.99410000 -0.01070000
vn 0.38830000 -0.91620000 0.09920000
vn 0.10530000 -0.99410000 0.02690000
vn 0.33100000 -0.91620000 0.22610000
vn 0.08980000 -0.99410000 0.06130000
vn 0.23380000 -0.91610000 0.32570000
vn 0.06340000 -0.99410000 0.08830000
vn 0.10830000 -0.91610000 0.38600000
vn 0.02940000 -0.99410000 0.10470000
vn -0.03030000 -0.91610000 0.39970000
vn -0.00820000 -0.99410000 0.10840000
vn -0.16520000 -0.91610000 0.36520000
vn -0.04480000 -0.99410000 0.09910000
vn -0.07600000 -0.99410000 0.07780000
vn -0.75570000 -0.52400000 0.39280000
vn -0.63290000 -0.70120000 0.32830000
vn -0.49960000 -0.69640000 0.51510000
vn -0.29570000 -0.69640000 0.65390000
vn -0.05420000 -0.69640000 0.71560000
vn 0.19380000 -0.69650000 0.69090000
vn 0.41840000 -0.69650000 0.58300000
vn 0.59270000 -0.69630000 0.40480000
vn 0.69530000 -0.69640000 0.17760000
vn 0.71430000 -0.69650000 -0.06830000
vn 0.30350000 -0.94330000 -0.13440000
vn 0.48910000 -0.84500000 -0.21610000
vn 0.65200000 -0.70090000 -0.28920000
vn 0.77900000 -0.52380000 -0.34470000
vn -0.65790000 -0.39130000 0.64350000
vn -0.39560000 -0.38590000 0.83340000
vn -0.04790000 -0.38920000 0.91990000
vn 0.25030000 -0.37540000 0.89240000
vn 0.54040000 -0.37540000 0.75300000
vn 0.74940000 -0.38910000 0.53570000
vn 0.89230000 -0.38230000 0.24020000
vn 0.91310000 -0.39150000 -0.11400000
vn 0.86660000 -0.31810000 -0.38450000
vn -0.84170000 -0.31770000 0.43650000
vn 0.39680000 -0.85830000 -0.32540000
vn 0.67700000 -0.49140000 -0.54790000
vn -0.49960000 -0.85940000 0.10890000
vn -0.13620000 -0.99020000 0.03100000
vn -0.25870000 -0.96590000 -0.00020000
vn -0.70710000 -0.70710000 -0.00060000
vn -0.13960000 -0.99020000 -0.00010000
vn -0.25220000 -0.96600000 -0.05780000
vn -0.68950000 -0.70680000 -0.15790000
vn -0.13610000 -0.99020000 -0.03120000
vn -0.23300000 -0.96600000 -0.11240000
vn -0.63700000 -0.70690000 -0.30740000
vn -0.12570000 -0.99020000 -0.06070000
vn -0.20210000 -0.96600000 -0.16140000
vn -0.55260000 -0.70690000 -0.44140000
vn -0.10910000 -0.99020000 -0.08710000
vn -0.44040000 -0.70710000 -0.55320000
vn -0.16110000 -0.96600000 -0.20230000
vn -0.08690000 -0.99020000 -0.10920000
vn -0.30640000 -0.70690000 -0.63750000
vn -0.11210000 -0.96600000 -0.23320000
vn -0.06050000 -0.99020000 -0.12580000
vn -0.15680000 -0.70710000 -0.68950000
vn -0.05740000 -0.96590000 -0.25230000
vn -0.03100000 -0.99020000 -0.13620000
vn 0.00060000 -0.70710000 -0.70710000
vn 0.00020000 -0.96590000 -0.25870000
vn 0.00010000 -0.99020000 -0.13960000
vn 0.05780000 -0.96600000 -0.25220000
vn 0.15790000 -0.70680000 -0.68950000
vn 0.03120000 -0.99020000 -0.13610000
vn 0.11240000 -0.96600000 -0.23300000
vn 0.30730000 -0.70710000 -0.63680000
vn 0.06070000 -0.99020000 -0.12570000
vn 0.16140000 -0.96600000 -0.20210000
vn 0.44140000 -0.70690000 -0.55260000
vn 0.08710000 -0.99020000 -0.10910000
vn 0.10540000 -0.99050000 -0.08830000
vn 0.54330000 -0.49210000 -0.68020000
vn 0.37830000 -0.49220000 -0.78400000
vn 0.19440000 -0.49220000 -0.84850000
vn 0.00070000 -0.49220000 -0.87050000
vn -0.19310000 -0.49210000 -0.84890000
vn -0.37710000 -0.49210000 -0.78460000
vn -0.54230000 -0.49200000 -0.68110000
vn -0.68020000 -0.49210000 -0.54330000
vn -0.78400000 -0.49220000 -0.37830000
vn -0.84850000 -0.49220000 -0.19440000
vn -0.87050000 -0.49220000 -0.00070000
vn -0.85070000 -0.49150000 0.18630000
vn -0.90130000 -0.00000000 0.43310000
vn -0.90130000 -0.00000000 0.43320000
vn -0.07550000 -0.00000000 0.99710000
vn -0.00000000 -1.00000000 -0.00000000
vn -0.90130000 -0.00000000 0.43310000
vn -0.00000000 -1.00000000 -0.00000000
vn -0.82580000 -0.00000000 -0.56400000
vn -0.07550000 -0.00000000 0.99710000
vn -0.07540000 -0.00000000 0.99720000
vn -0.00000000 -1.00000000 -0.00000000
vn 0.82580000 -0.00000000 0.56400000
vn -0.00000000 -1.00000000 -0.00000000
vn 0.90130000 -0.00000000 -0.43310000
vn 0.82580000 -0.00000000 0.56400000
vn 0.90130000 -0.00000000 -0.43310000
vn 0.07550000 -0.00000000 -0.99710000
vn -0.00000000 -1.00000000 -0.00000000
vn 0.90130000 -0.00000000 -0.43320000
vn -0.00000000 -1.00000000 -0.00000000
vn -0.82580000 -0.00000000 -0.56400000
vn 0.07550000 -0.00000000 -0.99710000
vn -0.07550000 -0.00000000 0.99710000
vn -0.90130000 -0.00000000 0.43320000
vn -0.00000000 -1.00000000 -0.00000000
vn -0.90130000 -0.00000000 0.43320000
vn -0.44700000 -0.86600000 0.22400000
vn -0.90130000 -0.00000000 0.43310000
vn -0.00000000 -1.00000000 -0.00000000
vn -0.82580000 -0.00000000 -0.56400000
vn -0.00000000 -1.00000000 -0.00000000
vn -0.90130000 -0.00000000 0.43310000
vn -0.07540000 -0.00000000 0.99720000
vn 0.82580000 -0.00000000 0.56400000
vn -0.00000000 -1.00000000 -0.00000000
vn -0.07550000 -0.00000000 0.99710000
vn -0.07540000 -0.00000000 0.99720000
vn -0.03780000 -0.86600000 0.49860000
vn -0.00000000 -1.00000000 -0.00000000
vn -0.00000000 -1.00000000 -0.00000000
vn 0.90130000 -0.00000000 -0.43310000
vn 0.82580000 -0.00000000 0.56400000
vn 0.82580000 -0.00000000 0.56400000
vn 0.41290000 -0.86600000 0.28200000
vn -0.00000000 -1.00000000 -0.00000000
vn -0.00000000 -1.00000000 -0.00000000
vn 0.90130000 -0.00000000 -0.43320000
vn 0.07550000 -0.00000000 -0.99710000
vn 0.45420000 -0.86600000 -0.20910000
vn 0.90130000 -0.00000000 -0.43310000
vn -0.00000000 -1.00000000 -0.00000000
vn 0.90130000 -0.00000000 -0.43320000
vn -0.00000000 -1.00000000 -0.00000000
vn -0.82580000 -0.00000000 -0.56400000
vn 0.07550000 -0.00000000 -0.99710000
vn 0.02020000 -0.86590000 -0.49980000
vn 0.07550000 -0.00000000 -0.99710000
vn -0.00000000 -1.00000000 -0.00000000
vn -0.00000000 -1.00000000 -0.00000000
vn -0.82580000 -0.00000000 -0.56400000
vn -0.40290000 -0.86590000 -0.29650000
vn -0.00000000 -1.00000000 -0.00000000
vn -0.46510000 -0.86550000 -0.18590000
vn -0.00000000 -1.00000000 -0.00000000
vn -0.50000000 -0.86600000 -0.00040000
vn -0.28200000 -0.86600000 0.41290000
vn -0.00000000 -1.00000000 -0.00000000
vn -0.00000000 -1.00000000 -0.00000000
vn 0.21660000 -0.86600000 0.45070000
vn -0.00000000 -1.00000000 -0.00000000
vn 0.49860000 -0.86600000 0.03780000
vn -0.00000000 -1.00000000 -0.00000000
vn 0.31210000 -0.86600000 -0.39070000
vn -0.00000000 -1.00000000 -0.00000000
vn 0.14540000 -0.86550000 -0.47930000
vn -0.12750000 -0.86590000 -0.48370000
vn -0.00000000 -1.00000000 -0.00000000
vn -0.29800000 -0.86590000 -0.40170000
vn -0.00000000 -1.00000000 -0.00000000
vn 0.00130000 -1.00000000 0.00270000
f 15//15 16//16 21//21
f 21//21 16//16 22//22
f 21//21 22//22 25//25
f 25//25 22//22 29//29
f 28//28 24//24 31//31
f 31//31 24//24 34//34
f 26//26 30//30 37//37
f 37//37 30//30 33//33
f 20//20 27//27 40//40
f 40//40 27//27 38//38
f 14//14 19//19 44//44
f 44//44 19//19 41//41
f 18//18 13//13 48//48
f 48//48 13//13 43//43
f 23//23 17//17 36//36
f 36//36 17//17 47//47
f 49//49 50//50 35//35
f 45//45 51//51 52//52
f 53//53 46//46 54//54
f 54//54 46//46 45//45
f 54//54 45//45 55//55
f 55//55 45//45 52//52
f 56//56 57//57 32//32
f 42//42 58//58 59//59
f 39//39 60//60 61//61
f 59//59 62//62 42//42
f 42//42 62//62 63//63
f 42//42 63//63 45//45
f 45//45 63//63 64//64
f 45//45 64//64 51//51
f 61//61 65//65 39//39
f 39//39 65//65 66//66
f 39//39 66//66 42//42
f 42//42 66//66 67//67
f 42//42 67//67 58//58
f 57//57 68//68 32//32
f 32//32 68//68 69//69
f 32//32 69//69 39//39
f 39//39 69//69 70//70
f 39//39 70//70 60//60
f 53//53 71//71 46//46
f 46//46 71//71 72//72
f 46//46 72//72 35//35
f 35//35 72//72 73//73
f 35//35 73//73 49//49
f 50//50 74//74 35//35
f 35//35 74//74 75//75
f 35//35 75//75 32//32
f 32//32 75//75 76//76
f 32//32 76//76 56//56
f 77//77 78//78 79//79
f 78//78 80//80 83//83
f 81//81 55//55 52//52
f 81//81 52//52 82//82
f 82//82 52//52 51//51
f 82//82 51//51 84//84
f 84//84 51//51 64//64
f 84//84 64//64 86//86
f 86//86 64//64 63//63
f 86//86 63//63 89//89
f 89//89 63//63 62//62
f 89//89 62//62 91//91
f 91//91 62//62 59//59
f 91//91 59//59 93//93
f 93//93 59//59 58//58
f 93//93 58//58 95//95
f 95//95 58//58 67//67
f 95//95 67//67 97//97
f 97//97 67//67 66//66
f 97//97 66//66 99//99
f 99//99 66//66 65//65
f 99//99 65//65 101//101
f 101//101 65//65 61//61
f 101//101 61//61 102//102
f 102//102 61//61 60//60
f 102//102 60//60 105//105
f 105//105 60//60 70//70
f 105//105 70//70 106//106
f 106//106 70//70 69//69
f 106//106 69//69 109//109
f 78//78 83//83 79//79
f 79//79 83//83 85//85
f 79//79 85//85 110//110
f 110//110 85//85 87//87
f 110//110 87//87 111//111
f 111//111 87//87 88//88
f 111//111 88//88 112//112
f 112//112 88//88 90//90
f 112//112 90//90 113//113
f 113//113 90//90 92//92
f 113//113 92//92 114//114
f 114//114 92//92 94//94
f 114//114 94//94 115//115
f 115//115 94//94 96//96
f 115//115 96//96 116//116
f 116//116 96//96 98//98
f 116//116 98//98 117//117
f 117//117 98//98 100//100
f 117//117 100//100 118//118
f 118//118 100//100 103//103
f 118//118 103//103 119//119
f 119//119 103//103 104//104
f 119//119 104//104 120//120
f 120//120 104//104 107//107
f 120//120 107//107 121//121
f 121//121 107//107 108//108
f 121//121 108//108 122//122
f 77//77 79//79 123//123
f 123//123 79//79 110//110
f 123//123 110//110 124//124
f 124//124 110//110 111//111
f 124//124 111//111 125//125
f 125//125 111//111 112//112
f 125//125 112//112 126//126
f 126//126 112//112 113//113
f 126//126 113//113 127//127
f 127//127 113//113 114//114
f 127//127 114//114 128//128
f 128//128 114//114 115//115
f 128//128 115//115 129//129
f 129//129 115//115 116//116
f 129//129 116//116 130//130
f 130//130 116//116 117//117
f 130//130 117//117 131//131
f 131//131 117//117 118//118
f 131//131 118//118 132//132
f 132//132 118//118 119//119
f 132//132 119//119 133//133
f 133//133 119//119 120//120
f 133//133 120//120 134//134
f 134//134 120//120 121//121
f 134//134 121//121 135//135
f 135//135 121//121 122//122
f 135//135 122//122 136//136
f 136//136 122//122 137//137
f 122//122 108//108 138//138
f 109//109 69//69 68//68
f 109//109 68//68 139//139
f 139//139 68//68 57//57
f 139//139 57//57 141//141
f 141//141 57//57 56//56
f 141//141 56//56 142//142
f 142//142 56//56 76//76
f 142//142 76//76 144//144
f 144//144 76//76 75//75
f 144//144 75//75 147//147
f 147//147 75//75 74//74
f 147//147 74//74 149//149
f 149//149 74//74 50//50
f 149//149 50//50 150//150
f 150//150 50//50 49//49
f 150//150 49//49 153//153
f 153//153 49//49 73//73
f 153//153 73//73 155//155
f 155//155 73//73 72//72
f 155//155 72//72 157//157
f 157//157 72//72 71//71
f 157//157 71//71 159//159
f 159//159 71//71 53//53
f 159//159 53//53 161//161
f 161//161 53//53 54//54
f 161//161 54//54 163//163
f 163//163 54//54 55//55
f 163//163 55//55 81//81
f 122//122 138//138 137//137
f 137//137 138//138 140//140
f 137//137 140//140 164//164
f 164//164 140//140 143//143
f 164//164 143//143 165//165
f 165//165 143//143 145//145
f 165//165 145//145 166//166
f 166//166 145//145 146//146
f 166//166 146//146 167//167
f 167//167 146//146 148//148
f 167//167 148//148 168//168
f 168//168 148//148 151//151
f 168//168 151//151 169//169
f 169//169 151//151 152//152
f 169//169 152//152 170//170
f 170//170 152//152 154//154
f 170//170 154//154 171//171
f 171//171 154//154 156//156
f 171//171 156//156 172//172
f 172//172 156//156 158//158
f 172//172 158//158 173//173
f 173//173 158//158 160//160
f 173//173 160//160 174//174
f 174//174 160//160 162//162
f 174//174 162//162 175//175
f 175//175 162//162 80//80
f 175//175 80//80 78//78
f 136//136 137//137 176//176
f 176//176 137//137 164//164
f 176//176 164//164 177//177
f 177//177 164//164 165//165
f 177//177 165//165 178//178
f 178//178 165//165 166//166
f 178//178 166//166 179//179
f 179//179 166//166 167//167
f 179//179 167//167 180//180
f 180//180 167//167 168//168
f 180//180 168//168 181//181
f 181//181 168//168 169//169
f 181//181 169//169 182//182
f 182//182 169//169 170//170
f 182//182 170//170 183//183
f 183//183 170//170 171//171
f 183//183 171//171 184//184
f 184//184 171//171 172//172
f 184//184 172//172 185//185
f 185//185 172//172 173//173
f 185//185 173//173 186//186
f 186//186 173//173 174//174
f 186//186 174//174 187//187
f 187//187 174//174 175//175
f 187//187 175//175 188//188
f 188//188 175//175 78//78
f 188//188 78//78 77//77
f 77//77 123//123 190//190
f 190//190 123//123 191//191
f 123//123 124//124 191//191
f 191//191 124//124 125//125
f 191//191 125//125 193//193
f 125//125 126//126 193//193
f 193//193 126//126 127//127
f 193//193 127//127 195//195
f 127//127 128//128 195//195
f 195//195 128//128 129//129
f 195//195 129//129 197//197
f 129//129 130//130 197//197
f 197//197 130//130 131//131
f 197//197 131//131 199//199
f 131//131 132//132 199//199
f 199//199 132//132 133//133
f 199//199 133//133 201//201
f 136//136 203//203 135//135
f 135//135 203//203 201//201
f 135//135 201//201 134//134
f 134//134 201//201 133//133
f 136//136 176//176 203//203
f 203//203 176//176 205//205
f 176//176 177//177 205//205
f 205//205 177//177 178//178
f 205//205 178//178 207//207
f 178//178 179//179 207//207
f 207//207 179//179 180//180
f 207//207 180//180 210//210
f 180//180 181//181 210//210
f 210//210 181//181 182//182
f 210//210 182//182 212//212
f 182//182 183//183 212//212
f 212//212 183//183 184//184
f 212//212 184//184 214//214
f 184//184 185//185 214//214
f 214//214 185//185 186//186
f 214//214 186//186 216//216
f 77//77 190//190 188//188
f 188//188 190//190 216//216
f 188//188 216//216 187//187
f 187//187 216//216 186//186
f 10//10 211//211 9//9
f 9//9 211//211 213//213
f 9//9 213//213 8//8
f 8//8 213//213 215//215
f 8//8 215//215 7//7
f 7//7 215//215 189//189
f 7//7 189//189 6//6
f 6//6 189//189 192//192
f 6//6 192//192 5//5
f 5//5 192//192 194//194
f 5//5 194//194 4//4
f 194//194 196//196 4//4
f 4//4 196//196 198//198
f 4//4 198//198 3//3
f 3//3 198//198 200//200
f 3//3 200//200 2//2
f 2//2 200//200 202//202
f 2//2 202//202 1//1
f 1//1 202//202 204//204
f 1//1 204//204 12//12
f 12//12 204//204 206//206
f 12//12 206//206 11//11
f 11//11 206//206 208//208
f 11//11 208//208 10//10
f 10//10 208//208 209//209
f 10//10 209//209 211//211
f 219//219 220//220 224//224
f 225//225 226//226 227//227
f 227//227 226//226 217//217
f 227//227 217//217 228//228
f 229//229 228//228 230//230
f 230//230 228//228 217//217
f 230//230 217//217 224//224
f 224//224 217//217 218//218
f 224//224 218//218 219//219
f 220//220 221//221 224//224
f 224//224 221//221 222//222
f 224//224 222//222 223//223
f 239//239 240//240 241//241
f 241//241 240//240 235//235
f 240//240 242//242 243//243
f 244//244 241//241 238//238
f 238//238 241//241 235//235
f 238//238 235//235 237//237
f 237//237 235//235 236//236
f 234//234 235//235 233//233
f 233//233 235//235 240//240
f 233//233 240//240 232//232
f 232//232 240//240 243//243
f 232//232 243//243 231//231
f 245//245 247//247 248//248
f 248//248 247//247 249//249
f 248//248 249//249 251//251
f 251//251 249//249 252//252
f 251//251 252//252 254//254
f 254//254 252//252 255//255
f 254//254 255//255 257//257
f 257//257 255//255 258//258
f 257//257 258//258 260//260
f 260//260 258//258 262//262
f 260//260 262//262 263//263
f 262//262 265//265 263//263
f 263//263 265//265 267//267
f 263//263 267//267 268//268
f 268//268 267//267 269//269
f 268//268 269//269 271//271
f 271//271 269//269 273//273
f 271//271 273//273 274//274
f 274//274 273//273 275//275
f 274//274 275//275 277//277
f 277//277 275//275 278//278
f 277//277 278//278 280//280
f 280//280 278//278 281//281
f 280//280 281//281 245//245
f 245//245 281//281 283//283
f 245//245 283//283 247//247
f 285//285 286//286 259//259
f 259//259 286//286 261//261
f 286//286 287//287 261//261
f 261//261 287//287 288//288
f 261//261 288//288 264//264
f 288//288 289//289 264//264
f 264//264 289//289 290//290
f 264//264 290//290 266//266
f 290//290 291//291 266//266
f 266//266 291//291 292//292
f 266//266 292//292 270//270
f 270//270 292//292 293//293
f 270//270 293//293 272//272
f 293//293 294//294 272//272
f 272//272 294//294 295//295
f 272//272 295//295 276//276
f 296//296 279//279 297//297
f 297//297 279//279 276//276
f 297//297 276//276 298//298
f 298//298 276//276 295//295
f 296//296 299//299 279//279
f 279//279 299//299 282//282
f 299//299 300//300 282//282
f 282//282 300//300 301//301
f 282//282 301//301 284//284
f 301//301 302//302 284//284
f 284//284 302//302 303//303
f 284//284 303//303 246//246
f 303//303 304//304 246//246
f 246//246 304//304 305//305
f 246//246 305//305 250//250
f 305//305 306//306 250//250
f 250//250 306//306 307//307
f 250//250 307//307 253//253
f 307//307 308//308 253//253
f 253//253 308//308 309//309
f 253//253 309//309 256//256
f 285//285 259//259 310//310
f 310//310 259//259 256//256
f 310//310 256//256 311//311
f 311//311 256//256 309//309
f 312//312 313//313 314//314
f 315//315 316//316 317//317
f 317//317 316//316 318//318
f 317//317 318//318 319//319
f 319//319 318//318 320//320
f 319//319 320//320 321//321
f 321//321 320//320 322//322
f 321//321 322//322 323//323
f 323//323 322//322 324//324
f 323//323 324//324 325//325
f 325//325 324//324 326//326
f 325//325 326//326 327//327
f 327//327 326//326 328//328
f 327//327 328//328 329//329
f 329//329 328//328 312//312
f 329//329 312//312 330//330
f 330//330 312//312 314//314
f 331//331 332//332 333//333
f 333//333 332//332 313//313
f 313//313 312//312 333//333
f 333//333 312//312 328//328
f 333//333 328//328 334//334
f 334//334 328//328 326//326
f 334//334 326//326 335//335
f 335//335 326//326 324//324
f 335//335 324//324 336//336
f 336//336 324//324 322//322
f 336//336 322//322 337//337
f 337//337 322//322 320//320
f 337//337 320//320 338//338
f 338//338 320//320 318//318
f 338//338 318//318 339//339
f 339//339 318//318 316//316
f 339//339 316//316 340//340
f 315//315 341//341 316//316
f 316//316 341//341 342//342
f 316//316 342//342 340//340
f 340//340 342//342 343//343
f 340//340 343//343 344//344
f 331//331 333//333 345//345
f 345//345 333//333 334//334
f 345//345 334//334 346//346
f 346//346 334//334 335//335
f 346//346 335//335 347//347
f 347//347 335//335 336//336
f 347//347 336//336 348//348
f 348//348 336//336 337//337
f 348//348 337//337 349//349
f 349//349 337//337 338//338
f 349//349 338//338 350//350
f 350//350 338//338 339//339
f 350//350 339//339 351//351
f 351//351 339//339 340//340
f 351//351 340//340 352//352
f 352//352 340//340 344//344
f 352//352 344//344 353//353
f 286//286 285//285 345//345
f 345//345 285//285 354//354
f 345//345 354//354 331//331
f 294//294 293//293 350//350
f 350//350 293//293 292//292
f 350//350 292//292 349//349
f 349//349 292//292 291//291
f 349//349 291//291 348//348
f 348//348 291//291 290//290
f 348//348 290//290 347//347
f 347//347 290//290 289//289
f 347//347 289//289 346//346
f 346//346 289//289 288//288
f 346//346 288//288 345//345
f 345//345 288//288 287//287
f 345//345 287//287 286//286
f 294//294 350//350 295//295
f 295//295 350//350 351//351
f 295//295 351//351 298//298
f 298//298 351//351 352//352
f 298//298 352//352 297//297
f 297//297 352//352 353//353
f 297//297 353//353 296//296
f 343//343 342//342 355//355
f 355//355 342//342 341//341
f 353//353 344//344 356//356
f 356//356 344//344 343//343
f 299//299 296//296 353//353
f 314//314 357//357 358//358
f 358//358 357//357 359//359
f 358//358 359//359 361//361
f 361//361 359//359 362//362
f 361//361 362//362 364//364
f 364//364 362//362 365//365
f 364//364 365//365 367//367
f 367//367 365//365 368//368
f 367//367 368//368 370//370
f 370//370 368//368 372//372
f 370//370 372//372 373//373
f 373//373 372//372 375//375
f 373//373 375//375 376//376
f 376//376 375//375 378//378
f 376//376 378//378 379//379
f 379//379 378//378 381//381
f 379//379 381//381 382//382
f 382//382 381//381 383//383
f 382//382 383//383 385//385
f 385//385 383//383 386//386
f 385//385 386//386 388//388
f 388//388 386//386 389//389
f 388//388 389//389 391//391
f 391//391 389//389 355//355
f 391//391 355//355 392//392
f 392//392 355//355 341//341
f 392//392 341//341 315//315
f 343//343 355//355 356//356
f 356//356 355//355 390//390
f 356//356 390//390 393//393
f 393//393 390//390 387//387
f 393//393 387//387 394//394
f 394//394 387//387 384//384
f 394//394 384//384 395//395
f 395//395 384//384 380//380
f 395//395 380//380 396//396
f 396//396 380//380 377//377
f 396//396 377//377 397//397
f 397//397 377//377 374//374
f 397//397 374//374 398//398
f 398//398 374//374 371//371
f 398//398 371//371 399//399
f 399//399 371//371 369//369
f 399//399 369//369 400//400
f 400//400 369//369 366//366
f 400//400 366//366 401//401
f 401//401 366//366 363//363
f 401//401 363//363 402//402
f 402//402 363//363 360//360
f 402//402 360//360 403//403
f 403//403 360//360 357//357
f 403//403 357//357 404//404
f 314//314 313//313 357//357
f 357//357 313//313 332//332
f 357//357 332//332 404//404
f 404//404 332//332 331//331
f 404//404 331//331 354//354
f 353//353 356//356 299//299
f 299//299 356//356 393//393
f 299//299 393//393 300//300
f 300//300 393//393 394//394
f 300//300 394//394 301//301
f 301//301 394//394 395//395
f 301//301 395//395 302//302
f 302//302 395//395 396//396
f 302//302 396//396 303//303
f 303//303 396//396 397//397
f 303//303 397//397 304//304
f 304//304 397//397 398//398
f 304//304 398//398 305//305
f 305//305 398//398 399//399
f 305//305 399//399 306//306
f 306//306 399//399 400//400
f 306//306 400//400 307//307
f 307//307 400//400 401//401
f 307//307 401//401 308//308
f 308//308 401//401 402//402
f 308//308 402//402 309//309
f 309//309 402//402 403//403
f 309//309 403//403 311//311
f 311//311 403//403 404//404
f 311//311 404//404 310//310
f 310//310 404//404 354//354
f 310//310 354//354 285//285
f 388//388 391//391 408//408
f 408//408 391//391 392//392
f 319//319 410//410 317//317
f 317//317 410//410 408//408
f 317//317 408//408 315//315
f 315//315 408//408 392//392
f 376//376 379//379 414//414
f 414//414 379//379 382//382
f 414//414 382//382 408//408
f 408//408 382//382 385//385
f 408//408 385//385 388//388
f 358//358 361//361 416//416
f 416//416 361//361 364//364
f 358//358 416//416 314//314
f 314//314 416//416 421//421
f 314//314 421//421 330//330
f 319//319 321//321 410//410
f 410//410 321//321 323//323
f 410//410 323//323 423//423
f 364//364 367//367 416//416
f 416//416 367//367 370//370
f 416//416 370//370 414//414
f 414//414 370//370 373//373
f 414//414 373//373 376//376
f 323//323 325//325 423//423
f 423//423 325//325 327//327
f 423//423 327//327 421//421
f 421//421 327//327 329//329
f 421//421 329//329 330//330
f 427//427 406//406 429//429
f 431//431 405//405 409//409
f 431//431 409//409 435//435
f 436//436 413//413 440//440
f 439//439 412//412 407//407
f 439//439 407//407 426//426
f 445//445 418//418 446//446
f 446//446 418//418 415//415
f 446//446 415//415 437//437
f 450//450 422//422 455//455
f 453//453 419//419 417//417
f 453//453 417//417 444//444
f 458//458 425//425 460//460
f 460//460 425//425 420//420
f 460//460 420//420 451//451
f 433//433 411//411 463//463
f 463//463 411//411 424//424
f 463//463 424//424 457//457
f 462//462 465//465 434//434
f 434//434 465//465 467//467
f 434//434 467//467 432//432
f 442//442 428//428 470//470
f 470//470 428//428 432//432
f 448//448 438//438 471//471
f 471//471 438//438 442//442
f 454//454 443//443 473//473
f 473//473 443//443 448//448
f 454//454 475//475 449//449
f 449//449 475//475 477//477
f 449//449 477//477 461//461
f 461//461 480//480 456//456
f 456//456 480//480 482//482
f 456//456 482//482 462//462
f 483//483 468//468 466//466
f 430//430 468//468 483//483
f 483//483 481//481 479//479
f 464//464 481//481 483//483
f 483//483 476//476 452//452
f 478//478 476//476 483//483
f 459//459 478//478 483//483
f 479//479 459//459 483//483
f 466//466 464//464 483//483
f 483//483 447//447 472//472
f 474//474 447//447 483//483
f 452//452 474//474 483//483
f 483//483 469//469 430//430
f 441//441 469//469 483//483
f 472//472 441//441 483//483

