mtllib material.mtl
usemtl mtl_ich-005_realsense_cable_mount_corr
v 0.86290503 0.02258356 0.11811000
v 0.62478030 0.04085505 0.11811000
v 0.61820507 -0.09917212 0.11811000
v 0.62478030 -0.04085505 0.00011000
v 0.89273542 0.08471434 0.11811000
v 0.61820507 0.09917213 0.00011000
v 0.95200461 0.11914755 0.11811000
v 0.59997487 0.17900974 0.11811000
v 0.99972558 0.12200826 0.11811000
v 1.26935518 0.22284415 0.11811000
v 0.57210261 0.25688136 0.00011000
v 0.55480450 0.28863287 0.11811000
v 1.20627117 0.45583835 0.11811000
v 0.49314398 0.38577732 0.11811000
v 0.50063062 0.37481555 0.00011000
v 0.41120347 0.47119984 0.11811000
v 0.42156777 0.46292099 0.00011000
v 0.31817889 0.53923899 0.11811000
v 0.28714225 0.55752844 0.00011000
v 0.62129879 0.58897054 0.11811000
v 0.16874002 0.60399854 0.11811000
v 0.66583753 0.56856215 0.11811000
v 0.72907102 0.56871432 0.11811000
v 0.58648747 0.62417930 0.11811000
v 0.15778162 0.60516322 0.00011000
v -0.01675344 0.62690562 0.11811000
v 0.01675344 0.62690562 0.00011000
v -0.56922621 0.65845442 0.11811000
v -0.59761328 0.61070842 0.11811000
v -0.15778162 0.60516322 0.11811000
v -0.16874002 0.60399854 0.00011000
v -0.63627148 0.57881337 0.11811000
v -0.28714228 0.55752844 0.11811000
v -0.69799662 0.56506383 0.11811000
v -1.18140018 0.51498473 0.11811000
v -0.31817898 0.53923893 0.00011000
v -0.42156759 0.46292114 0.11811000
v -0.41120321 0.47120002 0.00011000
v -1.25815892 0.28279570 0.11810990
v -0.50063050 0.37481573 0.11811000
v -0.49314398 0.38577732 0.00011000
v -0.57210261 0.25688133 0.11811000
v -0.57743317 0.24466309 0.00011000
v -1.28912640 0.03012406 0.11811009
v -0.62240714 0.07678223 0.11811000
v -0.61994177 0.08765765 0.00011000
v -0.61994177 -0.08765766 0.11811000
v -0.62240714 -0.07678224 0.00011000
v -1.27730787 -0.16642718 0.11811004
v -0.57743317 -0.24466318 0.11811000
v -0.57210261 -0.25688136 0.00011000
v -1.24525249 -0.33139205 0.11810995
v -0.49314398 -0.38577732 0.11811000
v -0.50063062 -0.37481555 0.00011000
v -1.17415571 -0.53129768 0.11811000
v -0.41120347 -0.47119984 0.11811000
v -0.42156777 -0.46292099 0.00011000
v -0.31817889 -0.53923899 0.11811000
v -0.28714225 -0.55752844 0.00011000
v -0.69394594 -0.56506383 0.11811000
v -0.63250828 -0.58080864 0.11811000
v -0.16874002 -0.60399854 0.11811000
v -0.58648747 -0.62417930 0.11811000
v -0.15778162 -0.60516322 0.00011000
v 0.01675344 -0.62690562 0.11811000
v -0.01675344 -0.62690562 0.00011000
v 0.56922621 -0.65845442 0.11811000
v 0.59761328 -0.61070842 0.11811000
v 0.15778162 -0.60516322 0.11811000
v 0.16874002 -0.60399854 0.00011000
v 0.63627148 -0.57881337 0.11811000
v 0.28714228 -0.55752844 0.11811000
v 0.69799662 -0.56506383 0.11811000
v 1.21018648 -0.44648901 0.11811000
v 0.31817898 -0.53923893 0.00011000
v 0.42156759 -0.46292114 0.11811000
v 0.41120321 -0.47120002 0.00011000
v 0.50063050 -0.37481573 0.11811000
v 0.49314398 -0.38577732 0.00011000
v 1.26485288 -0.24282385 0.11811000
v 0.57210261 -0.25688133 0.11811000
v 0.55480450 -0.28863278 0.00011000
v 0.59997487 -0.17900974 0.00011000
v 1.27954853 -0.14280316 0.11811000
v 0.96877843 -0.12200826 0.11811000
v 0.92283869 -0.10706966 0.11811000
v 0.88244981 -0.06980044 0.11811000
v 0.86399513 -0.02575146 0.11811000
v 1.11567986 -0.64347869 0.11811000
v 0.82374805 -0.66956073 0.11811000
v 0.82271630 -0.73348808 0.11811000
v 0.82271630 -0.65845436 0.00011000
v 0.82374805 -0.72238183 0.00011000
v 0.80545515 -0.62417948 0.11811000
v 0.78451359 -0.59952718 0.00011000
v 0.75943446 -0.58080876 0.11811000
v 0.74261880 -0.57411426 0.00011000
v 0.69394600 -0.56506383 0.00011000
v 0.63250822 -0.58080870 0.00011000
v 0.58648753 -0.62417918 0.00011000
v -0.56819451 -0.66956049 0.11811000
v 0.56819451 -0.66956043 0.00011000
v -0.56922621 -0.73348808 0.11811000
v 0.56819451 -0.72238201 0.11811000
v 0.56922626 -0.73348814 0.00011000
v 0.58648741 -0.76776314 0.11811000
v -0.60742861 -0.79241502 0.11811000
v 0.60742867 -0.79241508 0.00011000
v 0.63250834 -0.81113392 0.11811000
v -0.64932311 -0.81782806 0.11811000
v 0.64932311 -0.81782806 0.00011000
v -0.69799668 -0.82687873 0.11811000
v 0.69394588 -0.82687873 0.11811000
v 0.69799668 -0.82687873 0.00011000
v -0.98341703 -0.83295494 0.11811000
v 0.90046394 -0.92361987 0.11811000
v 1.03751040 -0.76313990 0.11811000
v 0.74261934 -0.81782806 0.11811000
v 0.75943440 -0.81113380 0.00011000
v 0.78451371 -0.79241520 0.11811000
v 0.80545515 -0.76776308 0.00011000
v 1.28873706 0.00900697 0.11811000
v 1.10450900 0.02575075 0.11811000
v 1.10559905 -0.02258314 0.11811000
v 1.10559905 0.02258314 0.00011000
v 1.10450900 -0.02575083 0.00011000
v 1.08605433 0.06980021 0.11811000
v 1.07576859 0.08471434 0.00011000
v 1.04566550 0.10706954 0.11811000
v 1.01649928 0.11914756 0.00011000
v 0.96877843 0.12200827 0.00011000
v 0.92283869 0.10706966 0.00011000
v 0.88244981 0.06980043 0.00011000
v 0.86399513 0.02575156 0.00011000
v 0.86290503 -0.02258351 0.00011000
v 0.89273536 -0.08471431 0.00011000
v 0.95200461 -0.11914755 0.00011000
v 1.01649940 -0.11914755 0.11811000
v 0.99972558 -0.12200826 0.00011000
v 1.04566550 -0.10706955 0.00011000
v 1.07576859 -0.08471438 0.11811000
v 1.08605421 -0.06980041 0.00011000
v -0.56922626 -0.65845442 0.00011000
v -0.56819451 -0.72238213 0.00011000
v -0.59761322 -0.61070853 0.00011000
v -0.63627154 -0.57881337 0.00011000
v -0.69799656 -0.56506383 0.00011000
v -0.74261886 -0.57411432 0.11811000
v -0.75943452 -0.58080882 0.00011000
v -0.78451353 -0.59952718 0.11811000
v -1.08996511 -0.68614352 0.11811000
v -0.80545509 -0.62417936 0.00011000
v -0.82271630 -0.65845442 0.11811000
v -0.82374805 -0.66956073 0.00011000
v -0.82374805 -0.72238183 0.11811000
v -0.82271630 -0.73348814 0.00011000
v -0.80545521 -0.76776302 0.11811000
v -0.78451371 -0.79241520 0.00011000
v -0.75943434 -0.81113380 0.11811000
v -0.74261934 -0.81782806 0.00011000
v -0.69394588 -0.82687873 0.00011000
v -0.63250834 -0.81113392 0.00011000
v -0.58648747 -0.76776326 0.00011000
v 1.08193934 0.70235944 0.11811000
v 0.82374805 0.72238183 0.11811000
v 0.82271630 0.65845442 0.11811000
v 0.82271630 0.73348814 0.00011000
v 0.82374805 0.66956073 0.00011000
v 0.80545521 0.76776302 0.11811000
v 0.78451371 0.79241520 0.00011000
v 0.75943434 0.81113380 0.11811000
v 0.90046406 0.92361981 0.11811000
v 0.74261934 0.81782806 0.00011000
v 0.69799668 0.82687873 0.11811000
v 0.69394588 0.82687873 0.00011000
v -0.69394588 0.82687873 0.11811000
v -0.63250834 0.81113392 0.11811000
v 0.64932311 0.81782806 0.11811000
v 0.63250834 0.81113392 0.00011000
v 0.60742861 0.79241502 0.11811000
v -0.58648741 0.76776314 0.11811000
v 0.58648747 0.76776326 0.00011000
v 0.56922621 0.73348808 0.11811000
v -0.56819451 0.72238201 0.11811000
v 0.56819451 0.72238213 0.00011000
v 0.56819451 0.66956049 0.11811000
v 0.56922626 0.65845442 0.00011000
v 0.59761322 0.61070853 0.00011000
v 0.63627154 0.57881337 0.00011000
v 0.69799656 0.56506383 0.00011000
v 0.75943452 0.58080882 0.00011000
v 0.78451353 0.59952718 0.11811000
v 0.80545509 0.62417936 0.00011000
v -0.56922626 0.73348814 0.00011000
v -0.56819451 0.66956043 0.00011000
v -0.60742867 0.79241508 0.00011000
v -0.64932311 0.81782806 0.00011000
v -0.69799668 0.82687873 0.00011000
v -0.98341703 0.83295494 0.11811000
v -0.74261934 0.81782806 0.11811000
v -0.75943440 0.81113380 0.00011000
v -0.78451371 0.79241520 0.11811000
v -0.80545515 0.76776308 0.00011000
v -0.82271630 0.73348808 0.11811000
v -1.09347653 0.68088353 0.11811000
v -0.82374805 0.72238183 0.00011000
v -0.82374805 0.66956073 0.11811000
v -0.82271630 0.65845436 0.00011000
v -0.80545515 0.62417948 0.11811000
v -0.78451359 0.59952718 0.00011000
v -0.75943446 0.58080876 0.11811000
v -0.74261880 0.57411426 0.00011000
v -0.69394600 0.56506383 0.00011000
v -0.63250822 0.58080870 0.00011000
v -0.58648753 0.62417918 0.00011000
v -1.21308613 -0.43635419 0.03911009
v -1.26112235 -0.26228985 0.03910999
v -1.28442216 -0.10219131 0.03910987
v -1.28616786 0.07718110 0.03910987
v -1.25520253 0.29594088 0.03910981
v -1.17415607 0.53129679 0.03911000
v -1.07453287 0.71104288 0.03911000
v -0.92490846 0.89914018 0.03911000
v -0.80359143 1.00903380 0.11811000
v -0.73196644 1.06072998 0.03911000
v 0.70327401 1.07996690 0.11811000
v -0.59388608 1.14377534 0.11811000
v -0.51466978 1.18280292 0.03911000
v 0.48276806 1.19617856 0.11811000
v -0.36073193 1.23845947 0.11811000
v -0.27482477 1.25912452 0.03911000
v 0.24097523 1.26603866 0.11811000
v -0.11556020 1.28357637 0.11811000
v -0.09518100 1.28442883 0.03911000
v 0.06073365 1.28651798 0.11811000
v 0.08111101 1.28621292 0.03911000
v 0.32739103 1.24768746 0.03911000
v 0.56301647 1.15928233 0.03911000
v 0.77624363 1.03022027 0.03911000
v 0.96073782 0.85901445 0.03911000
v 1.10904694 0.65872753 0.03911000
v 1.21805716 0.42198867 0.03911000
v 1.27886236 0.16857971 0.03911000
v 1.28624761 -0.08056007 0.03911000
v 1.24721777 -0.32917577 0.03911000
v 1.15952384 -0.56251824 0.03911000
v 1.02911246 -0.77771282 0.03911000
v -0.80359143 -1.00903380 0.11811000
v 0.85942960 -0.96036607 0.03911000
v 0.70327407 -1.07996690 0.11811000
v 0.71979052 -1.06804430 0.03911000
v -0.59388566 -1.14377558 0.11811000
v 0.48276803 -1.19617867 0.11811000
v 0.56301618 -1.15928245 0.03911000
v -0.36073193 -1.23845947 0.11811000
v 0.32739106 -1.24768746 0.03911000
v 0.24097523 -1.26603866 0.11811000
v -0.11556056 -1.28357637 0.11811000
v 0.06073453 -1.28651798 0.11811000
v 0.08111136 -1.28621292 0.03911000
v -0.09518100 -1.28442883 0.03911000
v -0.27482471 -1.25912452 0.03911000
v -0.51466966 -1.18280303 0.03911000
v -0.73196644 -1.06072998 0.03911000
v -0.92490846 -0.89914018 0.03911000
v -1.10038018 -0.67310101 0.03911000
v -1.60242093 1.44637799 0.03911000
v 0.11572975 1.44366276 0.03911160
v 0.35776162 1.40268111 0.03911108
v 0.60157388 1.31788278 0.03911212
v 0.82737708 1.18783677 0.03911095
v 1.05231130 0.99772507 0.03911543
v 1.27076125 0.69855499 0.03911543
v 1.39557922 0.38866872 0.03911265
v 1.44153988 0.13217837 0.03911106
v 1.44381678 -0.11555684 0.03911049
v 1.03637362 -1.35134673 0.03910997
v -0.34634230 -1.35097766 0.03910996
v -1.57946146 -1.27394187 0.03910827
v -1.61165023 -1.22585273 0.03931472
v 1.22531998 0.23360126 0.00011000
v 1.15468895 0.46886027 0.00011000
v -1.13450325 0.51853824 0.00011000
v -1.20439208 0.31712794 0.00011000
v -1.23739719 0.14827025 0.00011000
v -1.24377275 -0.09492351 0.00011000
v -1.20747149 -0.30519167 0.00011000
v -1.15468895 -0.46886027 0.00011000
v 1.13450325 -0.51853824 0.00011000
v 1.22144353 -0.25308993 0.00011000
v 1.01125038 -0.72836065 0.00011000
v 0.90062982 -0.86022985 0.00011000
v 1.24621856 -0.00870962 0.00011000
v -1.05990601 -0.65554237 0.00011000
v -0.91322249 -0.84970820 0.00011000
v 1.05990601 0.65554237 0.00011000
v 0.91322249 0.84970820 0.00011000
v -0.90062982 0.86022985 0.00011000
v -1.01125038 0.72836065 0.00011000
v -0.13102177 -1.23933995 -0.19689000
v -0.14833315 -1.23738837 0.00011000
v 0.06103904 -1.24475503 0.00011000
v 0.11470740 -1.24210179 -0.19689000
v 0.30197987 -1.21028137 0.00011000
v -0.38827434 -1.18542147 0.00011000
v 0.38827336 -1.18542182 -0.19689000
v 0.56366843 -1.11277080 0.00011000
v -0.61051410 -1.08646595 0.00011000
v 0.61051339 -1.08646643 -0.19689000
v -0.75388759 -0.99135458 0.00011000
v 0.77012926 -0.97981471 0.00011000
v 0.81235915 -0.94660103 -0.19689000
v 0.97981411 -0.77012998 -0.19689000
v 1.07587743 -0.62739003 -0.19689000
v 1.15468872 -0.46886066 -0.19689000
v 1.22532010 -0.23360065 -0.19689000
v 1.24621856 0.00870917 -0.19689000
v 1.22144353 0.25308990 -0.19689000
v 1.14802289 0.48495352 -0.19689000
v 1.06961453 0.63800800 -0.19689000
v 0.94660085 0.81235939 -0.19689000
v -0.77012926 0.97981471 0.00011000
v 0.75388759 0.99135458 0.00011000
v 0.77012920 0.97981471 -0.19689000
v -0.56366843 1.11277080 0.00011000
v 0.61051410 1.08646595 0.00011000
v 0.56366879 1.11277068 -0.19689000
v 0.38827434 1.18542147 0.00011000
v -0.30197987 1.21028137 0.00011000
v 0.30198026 1.21028125 -0.19689000
v 0.14833315 1.23738837 0.00011000
v -0.06103904 1.24475503 0.00011000
v 0.06103947 1.24475503 -0.19689000
v -0.14833228 1.23738849 -0.19689000
v -0.38827336 1.18542182 -0.19689000
v -0.61051339 1.08646643 -0.19689000
v -0.81235915 0.94660103 -0.19689000
v -0.97981411 0.77012998 -0.19689000
v -1.07587743 0.62739003 -0.19689000
v -1.15468872 0.46886066 -0.19689000
v -1.22532010 0.23360065 -0.19689000
v -1.24621856 -0.00870917 -0.19689000
v -1.22144353 -0.25308990 -0.19689000
v -1.14802289 -0.48495352 -0.19689000
v -1.06961453 -0.63800800 -0.19689000
v -0.94660085 -0.81235939 -0.19689000
v -0.77012920 -0.97981471 -0.19689000
v -0.62738961 -1.07587755 -0.19689000
v -0.46886182 -1.15468836 -0.19689000
v -0.30519035 -1.20747173 -0.19689000
v -0.37906918 -1.36663556 0.03911000
v -0.52052212 -1.51662767 0.03910999
v -0.54956359 -1.55682838 0.03911003
v -1.21469963 -2.67154789 0.03911471
v -1.24203849 -2.68463635 0.00921142
v -1.60442507 -1.29384422 0.00911100
v -1.62407291 -1.25855076 0.00882580
v -1.66036499 -1.22762656 0.01492933
v -1.60451877 1.47637796 0.00911000
v -3.40303659 1.47447312 0.26094908
v -3.39462018 1.44437242 0.29099372
v -3.11016250 0.97918123 0.25099102
v -3.44578147 1.41275835 0.29846865
v -3.11016226 -0.79181492 0.25099489
v -3.05337000 0.80409849 0.24298951
v -3.01616645 0.84631747 0.23778860
v -3.00760293 0.89637423 0.23657560
v -3.02621865 0.94232190 0.23920295
v -3.06054497 0.97051561 0.24402562
v -3.02621865 -0.82867825 0.23920293
v -3.00760317 -0.87462586 0.23657553
v -3.06054425 -0.80048472 0.24402554
v -2.67025661 -1.18729973 0.18915850
v -3.01616526 -0.92468297 0.23778959
v -1.67344379 -1.18658543 0.04906687
v 0.08895499 1.47465539 0.00913592
v 0.29760897 1.44736302 0.00916767
v 0.48066336 1.39643550 0.00914962
v 0.62096328 1.33995271 0.00914874
v 0.75475901 1.26941228 0.00914813
v 0.91049165 1.16380215 0.00916649
v 1.05176198 1.03675711 0.00914833
v 1.17565918 0.89512920 0.00916660
v 1.28013027 0.73643410 0.00914847
v 1.36409962 0.56803453 0.00916676
v 1.43498170 0.35250252 0.00916781
v 1.46756375 0.16530435 0.00914996
v 1.47677457 0.01434382 0.00914880
v 1.46803963 -0.16576414 0.00985710
v 1.17416084 -1.50368619 0.03910999
v 1.20892799 -1.53141057 0.03439567
v 1.09312260 -1.44498599 0.03910989
v 1.09028959 -1.39902472 0.03910992
v 1.06897581 -1.36798060 0.03910992
v 1.17502856 -1.50357592 0.66411006
v 1.20520282 -1.52772844 0.66406351
v 1.03358781 -1.49936724 0.03910986
v 1.06745195 -1.48336434 0.03911000
v 0.89419127 -1.50000000 0.66411000
v 0.84419125 -1.50000000 0.56410998
v 1.03364968 -1.49912190 -0.16683629
v -0.35082266 -1.49868929 -0.16707854
v 1.06342435 -1.48633671 -0.16690226
v 1.08674216 -1.45932519 -0.16688961
v 1.09505332 -1.41500461 -0.16687052
v 1.07557702 -1.37435961 -0.16683716
v 1.04027963 -1.35182118 -0.16689371
v -0.34526643 -1.35087812 -0.16683622
v -0.37504205 -1.36366355 -0.16690221
v -0.40473998 -1.40501392 0.03910989
v -0.39835963 -1.39067495 -0.16688961
v -0.40667066 -1.43499577 -0.16687053
v -0.40300754 -1.44657063 0.03910994
v -0.48690978 -1.50095797 0.03911000
v -0.38448045 -1.47899866 0.03910993
v -0.38719448 -1.47564054 -0.16683716
v -0.34728470 -1.49888515 0.03910989
v -0.20580873 -1.50000000 0.66411000
v -0.48631731 -1.50103581 0.66411006
v -0.52293229 -1.51834059 0.66415280
v -0.54670858 -1.54953897 0.54297793
v -0.55011266 -2.69015574 0.03910999
v -0.55066901 -1.85863757 0.26843554
v -0.55065691 -1.66982019 0.38785690
v -0.55066806 -2.58892751 0.39769843
v -0.54668534 -2.70076728 0.54327452
v -0.55066752 -2.04618835 0.21868476
v -0.55066752 -2.23758674 0.22334479
v -0.55066806 -2.42611575 0.28449795
v -1.17918277 -2.70796490 0.03911757
v -1.14080644 -2.71985054 0.03911093
v -0.53299206 -2.72082925 0.03851795
v -0.49583024 -2.74767828 0.01143184
v -1.15286207 -2.74879265 0.00924760
v -1.20150888 -2.72907972 0.00908402
v 0.13197850 1.44240832 -0.19689055
v 0.37570727 1.39798164 -0.19689105
v 0.62062484 1.30901849 -0.19689265
v 0.90473288 1.13325703 -0.19689542
v 1.11327231 0.92527515 -0.19689088
v 1.24176407 0.74399740 -0.19689070
v 1.35603452 0.50977772 -0.19689289
v 1.12558270 -1.43632579 -0.19686793
v 1.08099365 -1.33907878 -0.19688237
v 1.11302185 -1.37585175 -0.19688001
v 1.03867090 -1.32112110 -0.19688810
v -0.36485454 -1.32361698 -0.19687018
v -0.41285315 -1.35813940 -0.19688250
v -0.43384436 -1.40101206 -0.19688360
v -1.15465236 -2.71804428 -0.19689254
v -1.20923114 -2.68302655 -0.19692941
v -1.58024788 -1.27233410 -0.19688727
v -1.61523223 -1.22379160 -0.19688354
v -1.68109918 -1.18585575 -0.19686599
v -2.65390229 -1.18438888 -0.19688742
v -3.06425714 -0.89514828 -0.19688179
v -2.75710869 -1.25458920 -0.19688332
v -2.71189952 -1.20801651 -0.19688247
v -3.06426048 0.87585223 -0.19687793
v 1.00162506 -2.69128370 -0.19689205
v 1.10123575 -1.49185920 -0.19688156
v 1.05323970 -1.52639019 -0.19687761
v 0.97639179 -2.71731639 -0.19692016
v -0.35028759 -1.52887583 -0.19688495
v -0.40298137 -1.50397050 -0.19685099
v -0.43367559 -1.45032060 -0.19688025
v -3.40913987 1.44259441 -0.19690840
v -3.25017691 0.90523857 -0.19688725
v -3.24929142 0.85857791 -0.19688091
v -3.22242904 0.89214545 -0.17105463
v -3.28861713 -2.95393467 -0.19687730
v -3.25340247 -0.88088381 -0.19686940
v -3.32255387 -2.72527862 -0.19686970
v -3.29102159 -2.74673438 -0.19674274
v -3.22623086 0.95271623 -0.19683045
v -3.21005034 0.92407125 -0.17026792
v -3.17960763 0.94587946 -0.16830358
v -3.17307138 0.97809470 -0.19687940
v -3.14753318 0.94802332 -0.16621035
v -3.11356497 0.96998918 -0.19680488
v -3.11829329 0.93568635 -0.16426298
v -3.07257318 0.92435473 -0.19687983
v -3.09481430 0.90017432 -0.16259906
v -3.07257056 -0.84664392 -0.19688322
v -3.10020709 0.85849130 -0.16308366
v -3.07989836 0.83513582 -0.19688803
v -3.11355519 -0.80098528 -0.19683324
v -3.11633730 0.80128384 -0.19686267
v -3.12047720 0.83530486 -0.16442902
v -3.14913154 0.82326680 -0.16627122
v -3.17681789 0.79405391 -0.19687760
v -3.17307210 -0.79290271 -0.19688204
v -3.18494654 0.82835042 -0.16863190
v -3.22624826 -0.81826967 -0.19685028
v -3.22009897 0.81556338 -0.19688541
v -3.21506810 0.85468006 -0.17055707
v -3.21005034 -0.84692883 -0.17026794
v -3.22242904 -0.87885457 -0.17105463
v -3.17960811 -0.82512075 -0.16830356
v -3.14753366 -0.82297665 -0.16621038
v -3.11829329 -0.83531368 -0.16426297
v -3.09481430 -0.87082577 -0.16259906
v -2.77877569 -1.31224823 -0.19688936
v -3.02906156 -2.76031828 -0.19688644
v -3.10020709 -0.91250867 -0.16308364
v -3.07989907 -0.93586373 -0.19688705
v -3.11634040 -0.96970654 -0.19685215
v -3.12712812 -0.94070137 -0.16487539
v -3.17681599 -0.97693992 -0.19687138
v -3.16440797 -0.94798648 -0.16728665
v -3.23215342 -0.94535285 -0.19684188
v -3.19267797 -0.93814135 -0.16914088
v -3.21580815 -0.91449130 -0.17056510
v -2.86959481 -2.95392895 -0.19685829
v -2.87198281 -2.74673438 -0.19674276
v -2.89816022 -2.76506162 -0.16284032
v -2.84086180 -2.98983431 -0.19691277
v -2.89885950 -2.94613695 -0.16297866
v -2.89776111 -2.98309326 -0.19685091
v -2.90833592 -2.95374870 -0.16578554
v -3.39117694 -2.99269271 -0.19689073
v -3.00494933 -2.98133779 -0.19677897
v -2.98642612 -2.95440221 -0.16764247
v -3.02858281 -2.95067549 -0.19688387
v -2.99851060 -2.94721198 -0.17057580
v -3.31679821 -2.98310041 -0.19685824
v -2.99870944 -2.76202178 -0.17076050
v -3.00655270 -2.72761440 -0.19675170
v -2.90351558 -2.72528100 -0.19686717
v -2.98764372 -2.75441599 -0.16791894
v -2.90567708 -2.75569057 -0.16511177
v -1.16085827 -2.74769521 -0.16688710
v 0.96995759 -2.74955249 -0.16664444
v 1.00427616 -2.73433471 -0.16697516
v 1.03115809 -2.70078635 -0.16634060
v 1.43813336 0.18596688 -0.19689667
v 1.44228590 -0.13178085 -0.19689192
v 1.46826708 -0.16344191 -0.16691591
v 1.47681117 0.00986946 -0.16692844
v 1.46805596 0.16087288 -0.16692816
v 1.43647587 0.34636298 -0.16694646
v 1.37939143 0.52758700 -0.16692810
v 1.30184078 0.69902885 -0.16694646
v 1.20070422 0.85987091 -0.16692826
v 1.08224213 1.00607288 -0.16694665
v 0.94365507 1.13603854 -0.16692844
v 0.79201239 1.24745631 -0.16694680
v 0.62501782 1.33806622 -0.16692880
v 0.48488140 1.39497638 -0.16692805
v 0.30379120 1.44607794 -0.16694622
v 0.09370562 1.47438335 -0.16693294
v -3.42562771 -2.72756147 -0.19680882
v -3.40187764 1.47477949 -0.16680612
v -3.45352793 1.44970596 -0.16691311
v -3.46493316 1.38958371 -0.19692183
v -3.44809866 -2.76031923 -0.19688483
v -3.46572828 -2.93520308 -0.19691835
v -3.48677206 1.40918636 -0.16691244
v -3.49928808 1.36762071 -0.16688837
v -3.49888706 -2.92064404 -0.16668697
v -3.48017335 -2.96771526 -0.16693124
v -3.44763708 -2.95048022 -0.19688280
v -3.44289064 -3.00457716 -0.16689427
v -3.43573284 -2.97169876 -0.19689439
v -3.41543436 -2.98384547 -0.19708340
v -3.41753507 -2.94722962 -0.17054535
v -3.41774821 -2.76202154 -0.17076062
v -3.32471585 -2.75569081 -0.16511172
v -3.40668225 -2.75441599 -0.16791892
v -3.31719923 -2.76506114 -0.16284031
v -3.31789827 -2.94613671 -0.16297853
v -3.32737470 -2.95374870 -0.16578545
v -3.40546489 -2.95440269 -0.16764766
v -3.39676237 -3.02233386 -0.16710414
v -2.84752965 -3.02179503 -0.16689488
v -2.79647565 -2.99695301 -0.16691306
v -2.78507924 -2.93682241 -0.19693479
v -2.76322842 -2.95643187 -0.16691226
v -2.75071192 -2.91486382 -0.16688836
v -2.74936485 -1.32142365 -0.16695523
v -2.73631072 -1.27891076 -0.16688128
v -2.70279408 -1.23869109 -0.16688319
v -2.65235710 -1.21452904 -0.16675153
v -1.70015717 -1.21371400 -0.16692074
v -1.64401019 -1.23749804 -0.16673222
v -1.60719562 -1.28595388 -0.16684993
v -1.24477935 -2.67783785 -0.16694359
v -1.21365488 -2.71967530 -0.16686395
v 1.22513092 -1.57943511 0.00930915
v 1.08686113 -2.38072181 0.26181859
v 1.10529065 -2.27404094 0.23051001
v 1.12117422 -2.18211246 0.21750131
v 1.14475346 -2.04564142 0.22007480
v 1.17584956 -1.86575615 0.26916125
v 1.20663166 -1.68758488 0.38038719
v 1.22451091 -1.56674218 0.52755612
v 1.04012156 -2.65122294 0.45721689
v 1.02982247 -2.70239687 0.52959096
v 1.05345774 -2.57403660 0.37840903
v 1.06885147 -2.48496866 0.31423688
v 1.07579327 -2.15020323 0.26574835
v 1.09401155 -2.05164576 0.26988736
v 1.11089849 -1.96114647 0.28741390
v 1.13315797 -1.84259260 0.33163404
v 1.15280497 -1.73604417 0.40120819
v 1.16558611 -1.66803908 0.46394122
v 1.18090308 -1.58619833 0.57045180
v -0.48561665 -2.74926615 0.66411006
v -0.15580872 -2.75000000 0.56410998
v -0.20580873 -2.75000000 0.66411000
v -0.50067663 -2.70731950 0.66411000
v -0.15580872 -2.75000000 0.61410999
v -0.20574963 -2.70773721 0.66405094
v -0.15770896 -2.68921089 0.61727697
v 0.84419125 -2.75000000 0.56410998
v 0.84419125 -2.75000000 0.61410999
v 0.84572631 -2.68756199 0.61615622
v 0.89419127 -2.75000000 0.66411000
v 0.97411323 -2.74862909 0.66411006
v 0.89419127 -2.70731950 0.66411000
v -2.64689326 -1.21368206 0.15633850
v -1.70354044 -1.21348798 0.02238918
v -2.75109935 -2.91982937 0.17444798
v -2.74883771 -1.31665790 0.17400110
v -2.77902579 -2.93007278 0.20448937
v -2.77315378 -1.30173874 0.20364338
v -3.39583373 -3.02270937 0.26032969
v -2.85275292 -3.02237725 0.18547566
v -3.24940825 -3.01128221 0.25274539
v -2.94361877 -2.98427439 0.22853123
v -2.85198426 -2.99247956 0.21472749
v -2.94703555 -3.00505900 0.21653406
v -2.95852494 -3.01174378 0.21139832
v -3.39004087 -2.99298167 0.29035076
v -3.49883103 -2.91963339 0.27139956
v -3.49941897 1.36646199 0.27122143
v -3.46755290 1.36420667 0.29911265
v -3.46661854 -2.92014933 0.29912189
v -3.48730350 1.40815902 0.27008930
v -3.43851876 -2.96712923 0.29718909
v -3.19215035 0.87562495 0.26251397
v -3.15568447 0.96035105 0.25739819
v -3.18358326 0.92568123 0.26131749
v -3.48114204 -2.96621084 0.26930794
v -3.17353058 0.82967889 0.25990626
v -3.12468076 0.79420650 0.25301036
v -3.19215012 -0.89537513 0.26251379
v -3.17353058 -0.94132137 0.25990623
v -3.13920355 -0.96951580 0.25508034
v -3.08958602 -0.97819102 0.24810907
v -3.38141656 -2.74863243 0.28909373
v -3.38337874 -2.95262790 0.28939870
v -3.16636992 0.89398140 0.22862737
v -3.16080022 0.85937279 0.22783133
v -3.14455032 0.83839035 0.22552884
v -3.11607289 0.82341957 0.22140707
v -3.15568495 -0.81064922 0.25739822
v -3.18358326 -0.84531873 0.26131749
v -3.07844639 0.82833183 0.21625353
v -3.05463076 0.84750116 0.21288462
v -3.04172301 0.87801832 0.21110928
v -3.04729581 0.91262645 0.21187936
v -3.06655788 0.93639123 0.21456708
v -3.09618855 0.94881862 0.21864405
v -3.12965131 0.94366819 0.22344990
v -3.15347266 0.92449921 0.22677591
v -3.04172301 -0.89298183 0.21110928
v -3.04729581 -0.85837358 0.21187936
v -3.06970406 -0.83194941 0.21500395
v -3.09803462 -0.82245016 0.21897897
v -3.12780976 -0.82633018 0.22317328
v -3.15347266 -0.84650081 0.22677593
v -3.16636992 -0.87701863 0.22862737
v -3.16080022 -0.91162711 0.22783132
v -3.13839936 -0.93805063 0.22465849
v -3.11007023 -0.94754988 0.22067048
v -2.74164248 -1.23886752 0.19921112
v -3.08029270 -0.94366986 0.21649514
v -3.04406381 -0.95935088 0.24171089
v -3.05463076 -0.92349905 0.21288463
v -3.24706507 -2.69718289 0.27025020
v -2.94806671 -2.69874072 0.22822836
v -3.08008122 -2.69773412 0.27634218
v -2.97869635 -2.69785643 0.32189950
v -2.93629360 -2.69795156 0.34058562
v -3.01617646 -2.69806051 0.29333666
v -3.21117878 -2.69745398 0.38212690
v -3.23174906 -2.69814491 0.38340479
v -3.15086985 -2.69792819 0.30002469
v -3.18686557 -2.69791555 0.33594826
v -3.35280514 -2.72533894 0.28510314
v -3.23777604 -2.70662642 0.38743123
v -3.25548768 -2.70774174 0.27143335
v -3.23884606 -3.00175190 0.38523605
v -3.25587487 -2.72619724 0.27151230
v -3.25589418 -2.98256516 0.27150670
v -3.26980996 -2.75483084 0.24308804
v -3.35014009 -2.75511765 0.25440297
v -3.35845828 -2.76397848 0.25561228
v -3.35820317 -2.94547915 0.25556320
v -3.36048198 -2.98114181 0.28615156
v -3.34928393 -2.95378327 0.25427732
v -3.26778364 -2.95319963 0.24278040
v -3.25711370 -2.99591899 0.27016103
v -3.44462132 -3.00344396 0.26536912
v -3.45449662 1.44893396 0.26639265
v -2.69514251 -1.23311961 0.16471601
v -2.73171806 -1.27091897 0.17109092
v -2.81637311 -2.75600719 0.20970815
v -2.83928323 -2.72750735 0.21288572
v -2.94384551 -2.72605419 0.22766531
v -2.81832647 -2.96000886 0.20997000
v -2.76869059 -2.96594262 0.17625855
v -2.81292701 -2.97500682 0.20923822
v -2.80518484 -3.00331187 0.18028592
v -2.84694338 -2.98329282 0.21400671
v -2.92860985 -2.70803213 0.34027398
v -2.92896223 -3.00150633 0.34225836
v -2.93830490 -2.95380306 0.19649784
v -2.85796714 -2.95351624 0.18523252
v -2.84963775 -2.94465590 0.18410219
v -2.84989643 -2.76315522 0.18412538
v -2.85882425 -2.75485063 0.18534775
v -2.93844461 -2.75490236 0.19652282
v -3.23043299 -3.00061297 0.39291799
v -3.20529723 -3.00139308 0.38964123
v -3.20660114 -2.70610046 0.38981315
v -3.22816086 -2.70394063 0.39217356
v -2.93483400 -2.70800614 0.35135779
v -2.95864677 -3.00251102 0.35496405
v -2.93585229 -3.00197840 0.35144615
v -2.95992231 -2.70724106 0.35515597
v -3.26033854 -2.76333475 0.24197653
v -3.26032710 -2.94505167 0.24190813
v -3.19367790 -3.01076460 0.34657237
v -3.23124409 -3.01032424 0.38505551
v -3.10259533 -3.01149154 0.27543357
v -3.20594168 -3.00983620 0.38280407
v -3.15820527 -3.00969148 0.30839205
v -3.05303597 -3.01038265 0.28105491
v -2.98451757 -3.01059961 0.31548703
v -2.95639753 -3.01118302 0.34631109
v -2.94205999 -3.01082110 0.34589320
v -2.94771504 -2.94529939 0.19804049
v -2.94771576 -2.76333928 0.19804065
v -2.95906925 -2.69826341 0.34792668
v -2.98806238 -2.70738554 0.32271174
v -2.96511936 -3.00413990 0.35238585
v -2.96680164 -2.70574498 0.35094142
v -2.98008037 -3.00103951 0.33259133
v -2.99988198 -3.00420189 0.31241524
v -3.02563453 -2.70781732 0.29763424
v -3.02450442 -3.00104594 0.29813737
v -3.06815290 -2.70584059 0.28621849
v -3.04727530 -3.00398898 0.28932682
v -3.09465241 -3.00082374 0.28751457
v -3.11286020 -2.70540357 0.29137540
v -3.13096428 -3.00181103 0.29890445
v -3.14755654 -2.70690966 0.30813804
v -3.15791464 -3.00016236 0.31626734
v -3.17099190 -2.70765376 0.32919711
v -3.18718719 -3.00123787 0.35069737
v -3.18965483 -2.70701671 0.35615793
v -3.20001960 -2.70922852 0.38539234
v -3.19919491 -3.00045347 0.38337967
v -0.52289724 -2.73156214 0.66414541
v -0.50061208 -2.68309021 0.60863441
v 0.97122455 -2.70750475 0.66407245
v 0.99645114 -2.74096441 0.66349566
v 1.18899298 -1.54268050 0.66411000
v 0.89413345 -1.54227531 0.66405219
v 0.84419125 -1.50000000 0.61410999
v -0.20580873 -1.54268050 0.66411000
v -0.15734628 -1.56244516 0.61615992
v -0.15580872 -1.50000000 0.61410999
v -0.50069094 -1.54183769 0.66401702
v -0.15580872 -1.50000000 0.56410998
v 0.84609151 -1.56079018 0.61727691
v 0.98128116 -2.65815759 0.56182510
v -0.50067300 -2.61564064 0.50120604
v 0.99419898 -2.58694243 0.46931824
v -0.50064832 -2.52577853 0.41083115
v 1.00809824 -2.51142597 0.39881936
v -0.50072676 -2.41841459 0.33714628
v 1.02466500 -2.42367291 0.34149805
v 1.03924358 -2.34455013 0.30548105
v -0.50072008 -2.29675317 0.28962359
v 1.05599189 -2.25582218 0.27941847
v -0.50072449 -2.19406891 0.26907867
v -0.50051504 -2.05602193 0.26817948
v -0.50065595 -1.92966962 0.29684561
v -0.50064629 -1.84356380 0.33245355
v -0.50063676 -1.76373494 0.38043463
v -0.50062722 -1.69194353 0.43971094
v -0.50082415 -1.60541391 0.54019463
v -2.93268609 -3.00803041 0.34064719
v -3.10865259 -3.00833392 0.28519124
v -3.20331407 -2.70080900 0.38228351
v -2.93584180 -2.70093966 0.34698743
f 1 2 3
f 4 3 2
f 1 5 2
f 6 4 2
f 7 8 2
f 6 2 8
f 5 7 2
f 7 9 8
f 10 8 9
f 11 6 8
f 10 12 8
f 11 8 12
f 13 14 12
f 11 12 14
f 10 13 12
f 15 11 14
f 13 16 14
f 17 14 16
f 17 15 14
f 13 18 16
f 17 16 18
f 19 17 18
f 20 21 18
f 19 18 21
f 22 20 18
f 23 22 18
f 13 23 18
f 20 24 21
f 25 19 21
f 24 26 21
f 27 21 26
f 27 25 21
f 28 26 24
f 28 29 26
f 29 30 26
f 31 26 30
f 31 27 26
f 32 33 30
f 31 30 33
f 29 32 30
f 32 34 33
f 35 33 34
f 36 31 33
f 35 37 33
f 36 33 37
f 38 36 37
f 39 40 37
f 41 37 40
f 35 39 37
f 41 38 37
f 39 42 40
f 41 40 42
f 43 41 42
f 44 45 42
f 43 42 45
f 39 44 42
f 46 43 45
f 44 47 45
f 48 45 47
f 48 46 45
f 44 49 47
f 49 50 47
f 48 47 50
f 51 48 50
f 49 52 50
f 52 53 50
f 51 50 53
f 54 51 53
f 55 53 52
f 55 56 53
f 57 53 56
f 57 54 53
f 55 58 56
f 57 56 58
f 59 57 58
f 55 60 58
f 61 62 58
f 59 58 62
f 60 61 58
f 61 63 62
f 64 59 62
f 63 65 62
f 66 62 65
f 66 64 62
f 67 68 65
f 63 67 65
f 68 69 65
f 70 65 69
f 70 66 65
f 71 72 69
f 70 69 72
f 68 71 69
f 71 73 72
f 74 72 73
f 75 70 72
f 74 76 72
f 75 72 76
f 77 75 76
f 74 78 76
f 79 76 78
f 79 77 76
f 80 81 78
f 79 78 81
f 74 80 78
f 82 79 81
f 83 82 81
f 84 3 81
f 83 81 3
f 80 84 81
f 85 86 3
f 84 85 3
f 86 87 3
f 4 83 3
f 88 1 3
f 87 88 3
f 89 90 91
f 92 91 90
f 93 91 92
f 89 94 90
f 92 90 94
f 89 74 94
f 95 92 94
f 74 96 94
f 95 94 96
f 97 95 96
f 74 73 96
f 97 96 73
f 98 97 73
f 98 73 71
f 99 98 71
f 99 71 68
f 100 99 68
f 100 68 67
f 63 101 67
f 102 100 67
f 101 103 67
f 103 104 67
f 105 67 104
f 105 102 67
f 103 106 104
f 105 104 106
f 103 107 106
f 108 105 106
f 107 109 106
f 108 106 109
f 107 110 109
f 111 108 109
f 112 113 109
f 111 109 113
f 110 112 109
f 114 111 113
f 115 113 112
f 116 117 113
f 115 116 113
f 117 118 113
f 114 113 118
f 119 114 118
f 117 120 118
f 119 118 120
f 121 119 120
f 117 91 120
f 121 120 91
f 117 89 91
f 93 121 91
f 122 123 124
f 125 124 123
f 126 124 125
f 122 127 123
f 125 123 127
f 128 125 127
f 122 10 127
f 10 129 127
f 128 127 129
f 130 128 129
f 10 9 129
f 130 129 9
f 131 9 7
f 131 130 9
f 132 131 7
f 132 7 5
f 133 132 5
f 133 5 1
f 134 133 1
f 135 1 88
f 135 134 1
f 135 88 87
f 136 135 87
f 136 87 86
f 137 136 86
f 137 86 85
f 84 138 85
f 139 85 138
f 139 137 85
f 84 122 138
f 140 139 138
f 122 141 138
f 140 138 141
f 142 140 141
f 122 124 141
f 142 141 124
f 126 142 124
f 143 103 101
f 144 103 143
f 143 101 63
f 145 143 63
f 145 63 61
f 146 145 61
f 146 61 60
f 147 146 60
f 55 148 60
f 147 60 148
f 149 147 148
f 55 150 148
f 149 148 150
f 55 151 150
f 152 149 150
f 151 153 150
f 152 150 153
f 154 152 153
f 151 155 153
f 156 153 155
f 156 154 153
f 151 115 155
f 115 157 155
f 156 155 157
f 158 156 157
f 115 159 157
f 158 157 159
f 160 158 159
f 115 112 159
f 160 159 112
f 161 160 112
f 161 112 110
f 162 161 110
f 162 110 107
f 163 162 107
f 163 107 103
f 144 163 103
f 164 165 166
f 167 166 165
f 168 166 167
f 164 169 165
f 167 165 169
f 170 167 169
f 164 171 169
f 170 169 171
f 164 172 171
f 173 170 171
f 172 174 171
f 173 171 174
f 175 173 174
f 172 176 174
f 177 178 174
f 175 174 178
f 176 177 174
f 179 175 178
f 177 180 178
f 179 178 180
f 177 181 180
f 182 179 180
f 181 183 180
f 182 180 183
f 181 184 183
f 185 182 183
f 184 28 183
f 28 186 183
f 187 183 186
f 187 185 183
f 28 24 186
f 187 186 24
f 188 187 24
f 188 24 20
f 189 188 20
f 189 20 22
f 190 189 22
f 190 22 23
f 13 164 23
f 191 190 23
f 164 192 23
f 191 23 192
f 193 191 192
f 164 166 192
f 193 192 166
f 168 193 166
f 194 28 184
f 195 28 194
f 194 184 181
f 196 194 181
f 196 181 177
f 197 196 177
f 197 177 176
f 198 197 176
f 172 199 176
f 199 200 176
f 198 176 200
f 201 198 200
f 199 202 200
f 201 200 202
f 203 201 202
f 199 204 202
f 203 202 204
f 199 205 204
f 206 203 204
f 205 207 204
f 208 204 207
f 208 206 204
f 205 209 207
f 208 207 209
f 205 35 209
f 210 208 209
f 35 211 209
f 210 209 211
f 212 210 211
f 35 34 211
f 212 211 34
f 213 212 34
f 213 34 32
f 214 213 32
f 214 32 29
f 215 214 29
f 215 29 28
f 195 215 28
f 216 55 52
f 216 52 217
f 217 52 49
f 217 49 218
f 218 49 44
f 218 44 219
f 219 44 39
f 219 39 220
f 220 39 35
f 221 220 35
f 221 35 205
f 222 221 205
f 222 205 199
f 223 222 199
f 172 224 199
f 223 199 224
f 225 223 224
f 172 226 224
f 226 227 224
f 225 224 227
f 228 225 227
f 226 229 227
f 229 230 227
f 228 227 230
f 231 228 230
f 229 232 230
f 232 233 230
f 231 230 233
f 234 231 233
f 232 235 233
f 236 233 235
f 236 234 233
f 236 235 232
f 237 236 232
f 237 232 229
f 238 237 229
f 238 229 226
f 239 238 226
f 239 226 172
f 240 239 172
f 240 172 164
f 241 240 164
f 241 164 13
f 242 241 13
f 242 13 10
f 243 242 10
f 243 10 122
f 244 243 122
f 244 122 84
f 244 84 80
f 245 244 80
f 245 80 74
f 246 245 74
f 246 74 89
f 247 89 117
f 247 246 89
f 247 117 116
f 115 248 116
f 249 247 116
f 248 250 116
f 249 116 250
f 251 249 250
f 248 252 250
f 252 253 250
f 254 250 253
f 254 251 250
f 252 255 253
f 256 254 253
f 255 257 253
f 256 253 257
f 255 258 257
f 258 259 257
f 260 257 259
f 260 256 257
f 260 259 258
f 261 260 258
f 262 258 255
f 262 261 258
f 263 262 255
f 263 255 252
f 264 252 248
f 264 263 252
f 265 264 248
f 265 248 115
f 266 115 151
f 266 265 115
f 266 151 55
f 216 266 55
f 267 220 221
f 267 221 222
f 267 222 223
f 267 223 225
f 267 225 228
f 268 267 228
f 268 228 231
f 269 268 231
f 269 231 234
f 270 269 234
f 270 234 236
f 270 236 237
f 271 270 237
f 271 237 238
f 272 238 239
f 272 271 238
f 272 239 240
f 273 272 240
f 273 240 241
f 273 241 242
f 274 273 242
f 274 242 243
f 275 274 243
f 275 243 244
f 276 275 244
f 276 244 245
f 276 245 246
f 276 246 247
f 277 276 247
f 277 247 249
f 277 249 251
f 277 251 254
f 277 254 256
f 277 256 260
f 278 277 260
f 279 260 261
f 278 260 279
f 279 261 262
f 280 262 263
f 280 279 262
f 280 263 264
f 280 264 265
f 280 265 266
f 280 266 216
f 135 4 6
f 134 6 133
f 135 6 134
f 133 6 132
f 281 6 11
f 281 131 6
f 132 6 131
f 281 11 15
f 282 15 17
f 282 281 15
f 282 17 19
f 282 19 190
f 189 19 25
f 190 19 189
f 189 25 188
f 188 25 27
f 188 27 187
f 215 187 27
f 215 27 31
f 215 31 214
f 214 31 36
f 214 36 213
f 283 213 36
f 283 36 38
f 283 38 41
f 284 41 43
f 284 283 41
f 285 284 43
f 285 43 46
f 285 46 48
f 286 285 48
f 286 48 51
f 287 286 51
f 287 51 54
f 288 54 57
f 288 287 54
f 288 57 59
f 288 59 147
f 146 59 64
f 147 59 146
f 146 64 145
f 145 64 66
f 143 66 100
f 145 66 143
f 100 66 70
f 100 70 99
f 99 70 75
f 99 75 98
f 289 98 75
f 289 75 77
f 289 77 79
f 290 79 82
f 290 289 79
f 290 82 83
f 137 83 4
f 139 83 137
f 290 83 139
f 137 4 136
f 136 4 135
f 291 93 92
f 291 92 95
f 289 291 95
f 289 95 97
f 289 97 98
f 143 100 102
f 143 102 105
f 144 143 105
f 144 105 163
f 163 105 108
f 163 108 162
f 162 108 111
f 162 111 114
f 162 114 161
f 292 161 114
f 292 114 119
f 292 119 121
f 291 292 121
f 291 121 93
f 293 126 125
f 293 125 128
f 293 128 130
f 281 293 130
f 281 130 131
f 290 139 140
f 290 140 142
f 293 290 142
f 293 142 126
f 288 147 149
f 294 149 152
f 294 288 149
f 294 152 154
f 294 154 156
f 294 156 158
f 295 294 158
f 295 158 160
f 295 160 161
f 295 161 292
f 296 168 167
f 296 167 170
f 297 296 170
f 297 170 173
f 297 173 175
f 298 297 175
f 298 175 198
f 198 175 179
f 198 179 197
f 197 179 196
f 196 179 182
f 196 182 194
f 194 182 185
f 194 185 187
f 195 194 187
f 195 187 215
f 282 190 191
f 296 191 193
f 296 282 191
f 296 193 168
f 298 198 201
f 298 201 203
f 299 298 203
f 299 203 206
f 299 206 208
f 299 208 210
f 283 299 210
f 283 210 212
f 283 212 213
f 300 301 302
f 300 302 303
f 301 304 302
f 303 302 304
f 301 305 304
f 303 304 306
f 305 307 304
f 306 304 307
f 305 308 307
f 306 307 309
f 310 311 307
f 309 307 311
f 308 310 307
f 309 311 312
f 310 295 311
f 295 292 311
f 312 311 292
f 313 292 291
f 312 292 313
f 314 291 289
f 313 291 314
f 314 289 315
f 315 289 290
f 315 290 316
f 316 290 293
f 316 293 317
f 317 293 281
f 317 281 318
f 318 281 282
f 318 282 319
f 319 282 296
f 319 296 320
f 321 296 297
f 320 296 321
f 298 322 297
f 322 323 297
f 324 297 323
f 321 297 324
f 325 326 323
f 324 323 326
f 322 325 323
f 324 326 327
f 325 328 326
f 327 326 328
f 325 329 328
f 327 328 330
f 329 331 328
f 330 328 331
f 329 332 331
f 330 331 333
f 333 331 332
f 334 333 332
f 334 332 329
f 334 329 335
f 335 329 325
f 335 325 336
f 336 325 322
f 336 322 337
f 337 322 298
f 338 298 299
f 337 298 338
f 339 299 283
f 338 299 339
f 339 283 340
f 340 283 284
f 340 284 341
f 341 284 285
f 342 285 286
f 341 285 342
f 342 286 343
f 343 286 287
f 343 287 288
f 343 288 344
f 344 288 294
f 344 294 345
f 346 294 295
f 345 294 346
f 347 295 310
f 346 295 347
f 347 310 308
f 347 308 348
f 349 308 305
f 348 308 349
f 349 305 350
f 350 305 301
f 350 301 300
f 267 280 220
f 280 219 220
f 280 218 219
f 280 217 218
f 280 216 217
f 351 278 279
f 352 351 279
f 353 352 279
f 354 353 279
f 355 354 279
f 356 355 279
f 356 279 357
f 357 279 280
f 357 280 358
f 359 267 268
f 360 267 359
f 361 267 360
f 362 267 363
f 364 267 365
f 366 365 267
f 367 366 267
f 368 367 267
f 369 368 267
f 362 369 267
f 370 371 267
f 372 370 267
f 364 372 267
f 373 267 374
f 371 374 267
f 361 363 267
f 375 280 267
f 373 375 267
f 359 268 376
f 377 268 269
f 376 268 377
f 378 269 270
f 377 269 378
f 378 270 379
f 380 270 271
f 379 270 380
f 380 271 381
f 381 271 272
f 381 272 382
f 382 272 383
f 383 272 273
f 383 273 384
f 384 273 385
f 385 273 274
f 385 274 386
f 386 274 275
f 386 275 387
f 388 275 276
f 387 275 388
f 388 276 389
f 390 391 276
f 389 276 391
f 392 390 276
f 393 392 276
f 394 393 276
f 277 394 276
f 395 391 390
f 395 396 391
f 395 390 397
f 398 397 390
f 392 398 390
f 395 397 399
f 400 399 397
f 401 402 397
f 400 397 402
f 403 397 398
f 403 401 397
f 404 398 392
f 404 403 398
f 405 404 392
f 405 392 393
f 406 393 394
f 406 405 393
f 407 394 277
f 407 406 394
f 407 277 278
f 408 407 278
f 409 278 351
f 409 408 278
f 352 410 351
f 411 351 410
f 411 409 351
f 412 411 410
f 352 413 410
f 412 410 413
f 414 415 413
f 412 413 415
f 352 414 413
f 416 412 415
f 414 417 415
f 402 415 417
f 402 416 415
f 418 417 414
f 402 417 418
f 418 414 419
f 420 414 352
f 419 414 420
f 421 352 353
f 420 352 421
f 354 422 353
f 423 353 422
f 424 421 353
f 423 424 353
f 425 422 426
f 427 423 422
f 428 427 422
f 429 428 422
f 425 429 422
f 354 430 422
f 431 432 422
f 426 422 432
f 430 431 422
f 433 431 434
f 432 431 433
f 434 431 430
f 434 430 435
f 435 430 354
f 435 354 355
f 436 333 334
f 436 330 333
f 436 437 330
f 437 327 330
f 437 438 327
f 438 324 327
f 438 439 324
f 439 321 324
f 440 320 321
f 439 440 321
f 440 319 320
f 441 318 319
f 440 441 319
f 441 317 318
f 442 316 317
f 441 442 317
f 442 443 316
f 443 315 316
f 444 314 315
f 445 444 315
f 443 445 315
f 444 446 314
f 446 313 314
f 446 312 313
f 446 309 312
f 446 306 309
f 446 303 306
f 446 447 303
f 447 300 303
f 447 350 300
f 448 349 350
f 447 448 350
f 448 449 349
f 450 349 449
f 450 348 349
f 450 347 348
f 450 346 347
f 450 345 346
f 450 344 345
f 451 343 344
f 450 451 344
f 451 452 343
f 452 342 343
f 452 341 342
f 452 453 341
f 454 340 341
f 453 454 341
f 454 455 340
f 455 339 340
f 455 338 339
f 456 337 338
f 457 456 338
f 458 457 338
f 455 458 338
f 456 459 337
f 459 336 337
f 436 336 459
f 436 335 336
f 436 334 335
f 408 447 446
f 408 446 407
f 407 446 444
f 407 444 406
f 406 444 445
f 406 445 405
f 405 445 443
f 442 460 443
f 405 443 404
f 460 461 443
f 404 443 461
f 404 461 403
f 460 462 461
f 403 461 462
f 403 462 401
f 463 464 462
f 401 462 464
f 460 463 462
f 463 450 464
f 401 464 402
f 450 465 464
f 402 464 465
f 402 465 416
f 450 466 465
f 416 465 466
f 416 466 412
f 450 449 466
f 412 466 449
f 412 449 411
f 411 449 448
f 411 448 409
f 409 448 447
f 409 447 408
f 467 468 469
f 470 469 468
f 471 469 472
f 473 467 469
f 474 473 469
f 471 474 469
f 467 475 468
f 476 468 475
f 470 468 476
f 476 475 477
f 467 478 475
f 477 475 478
f 467 436 478
f 477 478 479
f 436 480 478
f 479 478 480
f 479 480 481
f 436 482 480
f 481 480 482
f 481 482 483
f 436 459 482
f 483 482 459
f 456 484 459
f 483 459 485
f 484 486 459
f 485 459 486
f 487 488 486
f 485 486 488
f 484 487 486
f 485 488 489
f 489 488 490
f 487 491 488
f 490 488 491
f 487 492 491
f 490 491 493
f 494 495 491
f 493 491 495
f 492 494 491
f 493 495 496
f 494 469 495
f 496 495 469
f 494 472 469
f 496 469 470
f 497 472 494
f 498 472 497
f 497 494 499
f 499 494 492
f 499 492 500
f 500 492 487
f 500 487 501
f 501 487 484
f 501 484 502
f 502 484 456
f 503 504 456
f 457 503 456
f 471 456 504
f 502 456 505
f 471 506 456
f 505 456 506
f 471 507 506
f 505 506 507
f 505 507 508
f 471 509 507
f 510 507 509
f 508 507 510
f 471 511 509
f 512 509 511
f 510 509 512
f 512 511 513
f 471 472 511
f 513 511 472
f 513 472 498
f 503 514 515
f 516 515 514
f 503 517 514
f 518 516 514
f 517 519 514
f 518 514 519
f 520 518 519
f 521 522 519
f 520 519 522
f 517 521 519
f 523 520 522
f 521 524 522
f 525 522 524
f 525 524 504
f 521 526 524
f 526 471 504
f 526 504 524
f 527 525 504
f 503 528 504
f 527 504 528
f 503 529 528
f 528 529 530
f 531 530 529
f 503 515 529
f 531 529 515
f 532 450 463
f 532 463 533
f 533 463 534
f 534 463 460
f 534 460 535
f 536 537 460
f 535 460 537
f 442 536 460
f 535 537 538
f 539 537 536
f 538 537 539
f 539 536 540
f 540 536 541
f 541 536 442
f 541 442 542
f 543 442 441
f 542 442 543
f 544 441 440
f 543 441 544
f 544 440 545
f 545 440 439
f 545 439 546
f 546 439 547
f 547 439 438
f 547 438 548
f 549 438 437
f 548 438 549
f 549 437 550
f 550 437 436
f 550 436 551
f 551 436 467
f 473 552 467
f 553 551 467
f 553 467 554
f 552 555 467
f 554 467 555
f 552 556 555
f 556 557 555
f 554 555 558
f 558 555 559
f 559 555 557
f 559 557 560
f 560 557 561
f 556 562 557
f 563 557 564
f 562 564 557
f 561 557 563
f 563 564 565
f 566 562 556
f 567 566 556
f 567 556 552
f 568 569 473
f 552 473 569
f 568 473 474
f 570 474 471
f 571 570 471
f 571 471 526
f 572 571 526
f 521 565 526
f 572 526 565
f 573 572 565
f 573 565 564
f 574 565 521
f 563 565 574
f 574 521 517
f 574 517 575
f 575 517 576
f 503 577 517
f 576 517 577
f 576 577 578
f 578 577 579
f 579 577 503
f 579 503 580
f 581 503 457
f 580 503 581
f 582 457 458
f 581 457 582
f 583 458 455
f 582 458 583
f 583 455 454
f 583 454 584
f 584 454 585
f 585 454 453
f 585 453 452
f 585 452 586
f 586 452 451
f 586 451 587
f 587 451 588
f 588 451 450
f 588 450 532
f 589 538 389
f 589 389 391
f 539 388 389
f 538 539 389
f 540 387 388
f 539 540 388
f 541 386 387
f 540 541 387
f 542 385 386
f 541 542 386
f 542 543 385
f 543 384 385
f 544 383 384
f 543 544 384
f 544 545 383
f 545 382 383
f 546 381 382
f 545 546 382
f 546 547 381
f 547 380 381
f 548 379 380
f 547 548 380
f 549 378 379
f 548 549 379
f 550 377 378
f 549 550 378
f 551 376 377
f 550 551 377
f 553 376 551
f 553 359 376
f 535 538 589
f 590 535 589
f 591 590 589
f 592 591 589
f 593 592 589
f 594 593 589
f 595 594 589
f 596 595 589
f 597 598 535
f 599 597 535
f 600 599 535
f 590 600 535
f 592 593 601
f 601 593 602
f 603 593 594
f 602 593 603
f 603 594 604
f 604 594 595
f 604 595 605
f 605 595 606
f 606 595 596
f 606 596 607
f 533 433 434
f 532 533 434
f 533 608 433
f 609 610 608
f 611 608 610
f 533 609 608
f 609 612 610
f 613 610 612
f 613 611 610
f 614 612 609
f 614 613 612
f 533 615 609
f 614 609 615
f 533 616 615
f 617 615 616
f 617 614 615
f 533 618 616
f 617 616 618
f 533 619 618
f 620 618 619
f 617 618 620
f 587 355 356
f 586 587 356
f 621 584 622
f 373 621 622
f 373 622 375
f 621 583 584
f 623 580 624
f 625 623 624
f 625 624 626
f 623 579 580
f 627 575 628
f 629 627 628
f 630 628 631
f 632 628 630
f 633 629 628
f 632 633 628
f 627 574 575
f 629 634 627
f 560 635 636
f 637 636 635
f 559 560 636
f 638 637 635
f 553 360 359
f 638 363 637
f 639 637 363
f 636 637 639
f 638 640 363
f 641 363 640
f 642 362 363
f 643 642 363
f 641 643 363
f 644 640 638
f 645 641 640
f 646 645 640
f 647 646 640
f 648 647 640
f 649 648 640
f 650 649 640
f 651 650 640
f 652 651 640
f 644 638 635
f 653 641 654
f 654 641 645
f 654 645 655
f 655 645 646
f 655 646 656
f 657 364 646
f 658 657 646
f 647 658 646
f 364 365 646
f 656 646 365
f 656 365 659
f 659 365 660
f 660 365 366
f 660 366 661
f 661 366 367
f 661 367 662
f 662 367 368
f 662 368 663
f 663 368 369
f 663 369 664
f 664 369 362
f 664 362 665
f 665 362 642
f 665 642 666
f 666 642 643
f 666 643 653
f 653 643 641
f 667 371 668
f 668 371 370
f 668 370 669
f 669 370 372
f 670 372 364
f 669 372 670
f 670 364 671
f 671 364 657
f 671 657 672
f 672 657 658
f 672 658 673
f 673 658 647
f 673 647 674
f 674 647 648
f 674 648 675
f 675 648 649
f 676 649 650
f 675 649 676
f 626 650 651
f 677 373 650
f 626 677 650
f 676 650 678
f 373 679 650
f 678 650 679
f 678 679 680
f 373 374 679
f 680 679 374
f 680 374 667
f 667 374 371
f 626 681 682
f 683 682 681
f 684 685 682
f 686 684 682
f 683 686 682
f 687 681 688
f 689 683 681
f 690 689 681
f 687 690 681
f 626 691 681
f 692 681 693
f 692 688 681
f 691 693 681
f 694 693 695
f 691 695 693
f 694 692 693
f 694 695 696
f 697 695 691
f 697 691 698
f 626 651 691
f 698 691 651
f 698 651 699
f 699 651 652
f 699 652 700
f 640 701 652
f 700 652 701
f 700 701 702
f 640 634 701
f 634 696 701
f 702 701 696
f 703 702 696
f 634 704 696
f 694 696 704
f 629 704 634
f 627 634 705
f 705 634 640
f 705 640 644
f 639 363 706
f 706 363 361
f 706 361 360
f 358 280 375
f 358 375 622
f 621 373 707
f 707 373 677
f 707 677 708
f 708 677 626
f 708 626 624
f 709 625 626
f 710 709 626
f 711 710 626
f 682 711 626
f 709 712 625
f 623 625 713
f 712 714 625
f 713 625 714
f 713 714 715
f 712 716 714
f 716 631 714
f 715 714 631
f 716 630 631
f 715 631 628
f 717 718 630
f 632 630 718
f 717 630 711
f 719 630 716
f 719 716 720
f 720 716 712
f 720 712 721
f 721 712 709
f 721 709 722
f 722 709 710
f 722 710 723
f 723 710 711
f 724 723 711
f 717 711 682
f 685 717 682
f 470 476 653
f 476 666 653
f 476 665 666
f 476 477 665
f 477 664 665
f 477 479 664
f 481 663 664
f 479 481 664
f 481 662 663
f 481 483 662
f 483 661 662
f 483 485 661
f 485 660 661
f 485 489 660
f 489 659 660
f 489 490 659
f 490 656 659
f 490 493 656
f 493 655 656
f 493 496 655
f 496 654 655
f 496 653 654
f 496 470 653
f 498 497 673
f 497 672 673
f 497 671 672
f 497 499 671
f 499 670 671
f 499 500 670
f 500 669 670
f 500 501 669
f 501 668 669
f 501 502 668
f 502 667 668
f 502 505 667
f 505 680 667
f 505 508 680
f 508 678 680
f 508 510 678
f 510 676 678
f 510 675 676
f 510 512 675
f 512 513 675
f 513 674 675
f 513 673 674
f 513 498 673
f 725 726 727
f 728 725 727
f 729 730 731
f 729 732 730
f 733 734 696
f 703 696 734
f 695 733 696
f 570 571 734
f 733 570 734
f 697 733 695
f 735 736 629
f 737 735 629
f 633 737 629
f 735 738 736
f 739 735 737
f 633 740 737
f 633 741 740
f 633 742 741
f 633 743 742
f 744 745 711
f 724 711 745
f 630 744 711
f 525 527 745
f 744 525 745
f 719 744 630
f 684 746 685
f 747 748 749
f 747 750 748
f 747 751 750
f 752 753 751
f 747 752 751
f 754 755 753
f 752 754 753
f 754 756 755
f 754 757 756
f 757 758 756
f 757 759 758
f 759 760 758
f 759 761 760
f 761 762 760
f 761 763 762
f 764 765 762
f 763 764 762
f 699 566 567
f 699 700 566
f 702 572 573
f 702 703 572
f 697 569 568
f 697 698 569
f 723 530 531
f 723 724 530
f 719 520 523
f 719 720 520
f 721 516 518
f 721 722 516
f 432 433 766
f 766 608 611
f 613 767 611
f 766 611 767
f 433 608 766
f 619 768 620
f 617 620 768
f 619 769 768
f 534 769 619
f 533 534 619
f 395 770 396
f 399 771 770
f 395 399 770
f 607 770 771
f 396 770 607
f 772 771 399
f 400 772 399
f 773 418 419
f 774 418 773
f 775 402 418
f 774 775 418
f 419 776 773
f 774 773 776
f 419 420 776
f 777 400 402
f 775 777 402
f 778 772 400
f 778 771 772
f 778 400 777
f 774 777 775
f 774 778 777
f 426 766 767
f 613 614 767
f 614 779 767
f 779 780 767
f 426 767 780
f 779 781 780
f 425 426 780
f 781 782 780
f 425 780 782
f 781 783 782
f 783 784 782
f 425 782 784
f 425 784 429
f 783 785 784
f 785 786 784
f 786 787 784
f 429 784 787
f 786 788 787
f 429 787 428
f 788 789 787
f 428 787 789
f 788 601 789
f 601 790 789
f 428 789 790
f 428 790 427
f 601 602 790
f 602 603 790
f 603 791 790
f 427 790 791
f 427 791 423
f 603 604 791
f 604 792 791
f 423 791 792
f 604 793 792
f 423 792 793
f 423 793 424
f 604 605 793
f 605 794 793
f 424 793 794
f 605 606 794
f 606 795 794
f 424 794 795
f 606 607 795
f 424 795 421
f 774 776 795
f 421 795 776
f 778 774 795
f 607 778 795
f 420 421 776
f 607 771 778
f 596 396 607
f 592 601 788
f 591 788 786
f 614 617 779
f 617 768 779
f 698 567 569
f 569 567 552
f 698 699 567
f 700 702 566
f 702 573 566
f 564 566 573
f 733 568 570
f 570 568 474
f 733 697 568
f 703 571 572
f 703 734 571
f 720 518 520
f 720 721 518
f 722 531 516
f 516 531 515
f 722 723 531
f 724 527 530
f 724 745 527
f 530 527 528
f 744 719 525
f 719 523 525
f 522 525 523
f 768 769 779
f 769 598 779
f 597 781 779
f 598 597 779
f 599 783 781
f 597 599 781
f 600 785 783
f 599 600 783
f 590 786 785
f 600 590 785
f 786 590 591
f 788 591 592
f 535 598 769
f 534 535 769
f 391 396 596
f 589 391 596
f 432 766 426
f 585 586 357
f 586 356 357
f 357 358 585
f 358 584 585
f 358 622 584
f 707 582 583
f 621 707 583
f 708 581 582
f 707 708 582
f 624 580 581
f 708 624 581
f 587 588 355
f 588 435 355
f 588 532 435
f 532 434 435
f 623 578 579
f 623 713 578
f 713 576 578
f 713 715 576
f 715 575 576
f 715 628 575
f 627 563 574
f 627 705 563
f 705 561 563
f 705 644 561
f 644 560 561
f 644 635 560
f 554 706 360
f 553 554 360
f 558 639 706
f 554 558 706
f 559 636 639
f 558 559 639
f 796 743 633
f 796 633 632
f 718 796 632
f 728 688 692
f 736 704 629
f 736 694 704
f 566 564 562
f 727 687 728
f 687 688 728
f 694 725 692
f 725 728 692
f 738 725 736
f 738 726 725
f 717 729 718
f 729 731 718
f 743 730 742
f 743 731 730
f 732 748 730
f 732 749 748
f 797 739 737
f 740 797 737
f 755 740 741
f 751 755 741
f 748 741 742
f 758 739 797
f 762 738 735
f 762 735 739
f 760 762 739
f 756 758 797
f 756 797 740
f 755 756 740
f 753 755 751
f 750 751 741
f 750 741 748
f 765 738 762
f 760 739 758
f 764 726 765
f 764 727 726
f 798 690 687
f 757 754 683
f 757 683 689
f 749 746 684
f 763 690 798
f 747 749 684
f 747 684 686
f 752 747 686
f 752 686 683
f 754 752 683
f 759 757 689
f 761 689 690
f 761 759 689
f 763 761 690
f 764 763 798
f 746 799 685
f 746 729 799
f 746 732 729
f 729 717 799
f 685 799 717
f 749 732 746
f 798 687 727
f 764 798 727
f 726 738 765
f 748 742 730
f 796 718 731
f 743 796 731
f 725 694 736

