mtllib material.mtl
usemtl mtl_lights
v 0.36192787 0.36193049 0.18768129
v 0.37575796 0.34890229 0.18768129
v 0.37575793 0.34890226 0.09853067
v 0.36192790 0.36193043 0.09853067
v 0.31113485 0.38684669 0.18768129
v 0.32925060 0.38111740 0.18768129
v 0.32925063 0.38111737 0.09853067
v 0.31113485 0.38684666 0.09853067
v 0.34630889 0.37274960 0.18768129
v 0.34630889 0.37274957 0.09853067
v 0.39686009 0.31742778 0.18768129
v 0.40365988 0.29968607 0.18768129
v 0.40365988 0.29968604 0.09853067
v 0.39686009 0.31742775 0.09853067
v 0.38748956 0.33395654 0.18768129
v 0.38748956 0.33395651 0.09853067
v 0.29236710 0.38980916 0.18768129
v 0.29236713 0.38980910 0.09853067
v 0.35829571 0.35751462 0.18768129
v 0.35829574 0.35751456 0.09853067
v 0.37150532 0.34507087 0.09853067
v 0.37150535 0.34507090 0.18768129
v 0.30978143 0.38131300 0.18768129
v 0.30978143 0.38131297 0.09853067
v 0.32708448 0.37584069 0.09853067
v 0.32708445 0.37584072 0.18768129
v 0.34337744 0.36784831 0.09853067
v 0.34337744 0.36784834 0.18768129
v 0.39166078 0.31500843 0.18768129
v 0.39166078 0.31500840 0.09853067
v 0.39815548 0.29806265 0.09853067
v 0.39815548 0.29806268 0.18768129
v 0.38271064 0.33079565 0.18768129
v 0.38271064 0.33079562 0.09853067
v 0.29185566 0.38414255 0.18768129
v 0.29185569 0.38414249 0.09853067
v 0.36192787 -0.36193049 0.18768129
v 0.36192790 -0.36193043 0.09853067
v 0.37575793 -0.34890220 0.09853067
v 0.37575793 -0.34890229 0.18768129
v 0.31113487 -0.38684669 0.18768129
v 0.31113485 -0.38684666 0.09853067
v 0.32925063 -0.38111737 0.09853067
v 0.32925060 -0.38111740 0.18768129
v 0.34630889 -0.37274957 0.09853067
v 0.34630889 -0.37274966 0.18768129
v 0.39686009 -0.31742778 0.18768129
v 0.39686009 -0.31742775 0.09853067
v 0.40365988 -0.29968604 0.09853067
v 0.40365988 -0.29968607 0.18768129
v 0.38748956 -0.33395654 0.18768129
v 0.38748956 -0.33395645 0.09853067
v 0.29236713 -0.38980916 0.18768129
v 0.29236713 -0.38980910 0.09853067
v 0.35829571 -0.35751462 0.18768129
v 0.37150532 -0.34507090 0.18768129
v 0.37150532 -0.34507081 0.09853067
v 0.35829574 -0.35751456 0.09853067
v 0.30978143 -0.38131300 0.18768129
v 0.32708445 -0.37584072 0.18768129
v 0.32708448 -0.37584069 0.09853067
v 0.30978143 -0.38131297 0.09853067
v 0.34337744 -0.36784834 0.18768129
v 0.34337744 -0.36784837 0.09853067
v 0.39166078 -0.31500837 0.18768129
v 0.39815548 -0.29806268 0.18768129
v 0.39815548 -0.29806265 0.09853067
v 0.39166078 -0.31500840 0.09853067
v 0.38271064 -0.33079565 0.18768129
v 0.38271064 -0.33079556 0.09853067
v 0.29185569 -0.38414255 0.18768129
v 0.29185569 -0.38414249 0.09853067
f 1 2 3
f 3 4 1
f 5 6 7
f 7 8 5
f 6 9 10
f 10 7 6
f 9 1 4
f 4 10 9
f 11 12 13
f 13 14 11
f 15 11 14
f 14 16 15
f 2 15 16
f 16 3 2
f 17 5 8
f 8 18 17
f 19 20 21
f 21 22 19
f 23 24 25
f 25 26 23
f 26 25 27
f 27 28 26
f 28 27 20
f 20 19 28
f 29 30 31
f 31 32 29
f 33 34 30
f 30 29 33
f 22 21 34
f 34 33 22
f 35 36 24
f 24 23 35
f 12 11 29
f 29 32 12
f 7 10 27
f 27 25 7
f 17 18 36
f 36 35 17
f 15 2 22
f 22 33 15
f 13 12 32
f 32 31 13
f 10 4 20
f 20 27 10
f 14 13 31
f 31 30 14
f 18 8 24
f 24 36 18
f 2 1 19
f 19 22 2
f 8 7 25
f 25 24 8
f 6 5 23
f 23 26 6
f 4 3 21
f 21 20 4
f 5 17 35
f 35 23 5
f 3 16 34
f 34 21 3
f 1 9 28
f 28 19 1
f 16 14 30
f 30 34 16
f 9 6 26
f 26 28 9
f 11 15 33
f 33 29 11
f 37 38 39
f 39 40 37
f 41 42 43
f 43 44 41
f 44 43 45
f 45 46 44
f 46 45 38
f 38 37 46
f 47 48 49
f 49 50 47
f 51 52 48
f 48 47 51
f 40 39 52
f 52 51 40
f 53 54 42
f 42 41 53
f 55 56 57
f 57 58 55
f 59 60 61
f 61 62 59
f 60 63 64
f 64 61 60
f 63 55 58
f 58 64 63
f 65 66 67
f 67 68 65
f 69 65 68
f 68 70 69
f 56 69 70
f 70 57 56
f 71 59 62
f 62 72 71
f 50 66 65
f 65 47 50
f 43 61 64
f 64 45 43
f 53 71 72
f 72 54 53
f 51 69 56
f 56 40 51
f 49 67 66
f 66 50 49
f 45 64 58
f 58 38 45
f 48 68 67
f 67 49 48
f 54 72 62
f 62 42 54
f 40 56 55
f 55 37 40
f 42 62 61
f 61 43 42
f 44 60 59
f 59 41 44
f 38 58 57
f 57 39 38
f 41 59 71
f 71 53 41
f 39 57 70
f 70 52 39
f 37 55 63
f 63 46 37
f 52 70 68
f 68 48 52
f 46 63 60
f 60 44 46
f 47 65 69
f 69 51 47

