mtllib material.mtl
usemtl grey.008
v 0.01994200 -0.00905000 0.00795900
v 0.01994200 -0.01325000 0.00795900
v 0.01994200 -0.01325000 0.00795900
v 0.02033900 -0.01325000 0.00706800
v 0.02033900 -0.01325000 0.00706800
v 0.02033900 -0.00905000 0.00706800
v 0.02036500 -0.01325000 0.00609300
v 0.02036500 -0.01325000 0.00609300
v 0.02036500 -0.00905000 0.00609300
v 0.02001600 -0.01325000 0.00518200
v 0.02001600 -0.01325000 0.00518200
v 0.02001600 -0.00905000 0.00518200
v 0.01934500 -0.01325000 0.00447500
v 0.01934500 -0.01325000 0.00447500
v 0.01934500 -0.00905000 0.00447500
v 0.01845400 -0.01325000 0.00407700
v 0.01845400 -0.01325000 0.00407700
v 0.01845400 -0.00905000 0.00407700
v 0.01747900 -0.01325000 0.00405100
v 0.01747900 -0.01325000 0.00405100
v 0.01747900 -0.00905000 0.00405100
v 0.01656800 -0.01325000 0.00440000
v 0.01656800 -0.01325000 0.00440000
v 0.01656800 -0.00905000 0.00440000
v 0.01586000 -0.01325000 0.00507200
v 0.01586000 -0.01325000 0.00507200
v 0.01586000 -0.00905000 0.00507200
v 0.01602400 -0.01345000 0.00518700
v 0.01602400 -0.01345000 0.00518700
v 0.01667500 -0.01345000 0.00457000
v 0.01667500 -0.01345000 0.00457000
v 0.01751300 -0.01345000 0.00424800
v 0.01751300 -0.01345000 0.00424800
v 0.01841000 -0.01345000 0.00427200
v 0.01841000 -0.01345000 0.00427200
v 0.01922900 -0.01345000 0.00463800
v 0.01922900 -0.01345000 0.00463800
v 0.01984700 -0.01345000 0.00528900
v 0.01984700 -0.01345000 0.00528900
v 0.02016800 -0.01345000 0.00612700
v 0.02016800 -0.01345000 0.00612700
v 0.02014400 -0.01345000 0.00702400
v 0.02014400 -0.01345000 0.00702400
v 0.01977900 -0.01345000 0.00784400
v 0.01977900 -0.01345000 0.00784400
v 0.01565800 -0.01345000 0.00600700
v 0.01565800 -0.01345000 0.00600700
v 0.01829000 -0.01345000 0.00878200
v 0.01829000 -0.01345000 0.00878200
v 0.01739200 -0.01345000 0.00875800
v 0.01739200 -0.01345000 0.00875800
v 0.01912700 -0.01345000 0.00846100
v 0.01912700 -0.01345000 0.00846100
v 0.01563400 -0.01345000 0.00690400
v 0.01563400 -0.01345000 0.00690400
v 0.01595500 -0.01345000 0.00774200
v 0.01595500 -0.01345000 0.00774200
v 0.01657300 -0.01345000 0.00839300
v 0.01657300 -0.01345000 0.00839300
v 0.01734800 -0.00905000 0.00895400
v 0.01645700 -0.00905000 0.00855600
v 0.01578600 -0.00905000 0.00784800
v 0.01543700 -0.00905000 0.00693800
v 0.01923400 -0.00905000 0.00863000
v 0.01832300 -0.00905000 0.00898000
v 0.01546300 -0.00905000 0.00596300
v 0.01734800 0.00915000 0.00895400
v 0.01832300 0.00915000 0.00898000
v 0.01923400 0.00915000 0.00863000
v 0.01543700 0.00915000 0.00693800
v 0.01578600 0.00915000 0.00784800
v 0.01645700 0.00915000 0.00855600
v 0.01656800 0.00915000 0.00440000
v 0.01586000 0.00915000 0.00507200
v 0.01546300 0.00915000 0.00596300
v 0.02036500 0.00915000 0.00609300
v 0.02001600 0.00915000 0.00518200
v 0.01934500 0.00915000 0.00447500
v 0.01845400 0.00915000 0.00407700
v 0.01994200 0.00915000 0.00795900
v 0.02033900 0.00915000 0.00706800
v 0.01747900 0.00915000 0.00405100
v 0.01994200 0.01335000 0.00795900
v 0.01994200 0.01335000 0.00795900
v 0.02033900 0.01335000 0.00706800
v 0.02033900 0.01335000 0.00706800
v 0.02036500 0.01335000 0.00609300
v 0.02036500 0.01335000 0.00609300
v 0.02001600 0.01335000 0.00518200
v 0.02001600 0.01335000 0.00518200
v 0.01934500 0.01335000 0.00447500
v 0.01934500 0.01335000 0.00447500
v 0.01845400 0.01335000 0.00407700
v 0.01845400 0.01335000 0.00407700
v 0.01747900 0.01335000 0.00405100
v 0.01747900 0.01335000 0.00405100
v 0.01656800 0.01335000 0.00440000
v 0.01656800 0.01335000 0.00440000
v 0.01586000 0.01335000 0.00507200
v 0.01586000 0.01335000 0.00507200
v 0.01977900 0.01355000 0.00784400
v 0.01977900 0.01355000 0.00784400
v 0.02014400 0.01355000 0.00702400
v 0.02014400 0.01355000 0.00702400
v 0.02016800 0.01355000 0.00612700
v 0.02016800 0.01355000 0.00612700
v 0.01984700 0.01355000 0.00528900
v 0.01984700 0.01355000 0.00528900
v 0.01922900 0.01355000 0.00463800
v 0.01922900 0.01355000 0.00463800
v 0.01841000 0.01355000 0.00427200
v 0.01841000 0.01355000 0.00427200
v 0.01751300 0.01355000 0.00424800
v 0.01751300 0.01355000 0.00424800
v 0.01667500 0.01355000 0.00457000
v 0.01667500 0.01355000 0.00457000
v 0.01602400 0.01355000 0.00518700
v 0.01602400 0.01355000 0.00518700
v 0.01912700 0.01355000 0.00846100
v 0.01912700 0.01355000 0.00846100
v 0.01565800 0.01355000 0.00600700
v 0.01565800 0.01355000 0.00600700
v 0.01563400 0.01355000 0.00690400
v 0.01563400 0.01355000 0.00690400
v 0.01739200 0.01355000 0.00875800
v 0.01739200 0.01355000 0.00875800
v 0.01829000 0.01355000 0.00878200
v 0.01829000 0.01355000 0.00878200
v 0.01657300 0.01355000 0.00839300
v 0.01657300 0.01355000 0.00839300
v 0.01595500 0.01355000 0.00774200
v 0.01595500 0.01355000 0.00774200
v 0.01140100 0.00005000 0.01833700
v 0.01211900 -0.00186100 0.01951500
v 0.01211900 -0.00186100 0.01951500
v 0.01287800 -0.00136000 0.01951500
v 0.01287800 -0.00136000 0.01951500
v 0.01121900 -0.00198400 0.01951500
v 0.01121900 -0.00198400 0.01951500
v 0.01121900 -0.00198400 0.01951500
v 0.01334300 -0.00058000 0.01951500
v 0.01334300 -0.00058000 0.01951500
v 0.01342500 0.00032500 0.01951500
v 0.01342500 0.00032500 0.01951500
v 0.01307100 -0.00112500 0.01951500
v 0.01307100 -0.00112500 0.01951500
v 0.01307100 -0.00112500 0.01951500
v 0.01244800 0.00180300 0.01951500
v 0.01244800 0.00180300 0.01951500
v 0.01158300 0.00208400 0.01951500
v 0.01158300 0.00208400 0.01951500
v 0.01158300 0.00208400 0.01951500
v 0.01310500 0.00117600 0.01951500
v 0.01310500 0.00117600 0.01951500
v 0.01325400 0.00090900 0.01951500
v 0.01325400 0.00090900 0.01951500
v 0.01325400 0.00090900 0.01951500
v 0.01325400 0.00090900 0.01951500
v 0.01275800 0.00197900 0.01951500
v 0.01275800 0.00197900 0.01951500
v 0.01275800 0.00197900 0.01951500
v 0.01375000 -0.00016000 0.01951500
v 0.01375000 -0.00016000 0.01951500
v 0.01375000 -0.00016000 0.01951500
v 0.01239300 -0.00208900 0.01951500
v 0.01239300 -0.00208900 0.01951500
v 0.01239300 -0.00208900 0.01951500
v 0.01035500 -0.00170300 0.01951500
v 0.01035500 -0.00170300 0.01951500
v 0.01004500 -0.00187900 0.01951500
v 0.01004500 -0.00187900 0.01951500
v 0.01004500 -0.00187900 0.01951500
v 0.00969700 -0.00107600 0.01951500
v 0.00969700 -0.00107600 0.01951500
v 0.00954900 -0.00080900 0.01951500
v 0.00954900 -0.00080900 0.01951500
v 0.00954900 -0.00080900 0.01951500
v 0.00954900 -0.00080900 0.01951500
v 0.00937800 -0.00022500 0.01951500
v 0.00937800 -0.00022500 0.01951500
v 0.00905300 0.00026000 0.01951500
v 0.00905300 0.00026000 0.01951500
v 0.00905300 0.00026000 0.01951500
v 0.00945900 0.00068000 0.01951500
v 0.00945900 0.00068000 0.01951500
v 0.00973100 0.00122500 0.01951500
v 0.00973100 0.00122500 0.01951500
v 0.00973100 0.00122500 0.01951500
v 0.00973100 0.00122500 0.01951500
v 0.00992500 0.00146000 0.01951500
v 0.00992500 0.00146000 0.01951500
v 0.01040900 0.00218900 0.01951500
v 0.01040900 0.00218900 0.01951500
v 0.01040900 0.00218900 0.01951500
v 0.01068300 0.00196100 0.01951500
v 0.01068300 0.00196100 0.01951500
v 0.01375000 -0.00016000 0.02201500
v 0.01375000 -0.00016000 0.02201500
v 0.01375000 -0.00016000 0.02201500
v 0.01275800 0.00197900 0.02201500
v 0.01275800 0.00197900 0.02201500
v 0.01275800 0.00197900 0.02201500
v 0.01275800 0.00197900 0.02201500
v 0.01040900 0.00218900 0.02201500
v 0.01040900 0.00218900 0.02201500
v 0.01040900 0.00218900 0.02201500
v 0.01040900 0.00218900 0.02201500
v 0.00905300 0.00026000 0.02201500
v 0.00905300 0.00026000 0.02201500
v 0.00905300 0.00026000 0.02201500
v 0.01004500 -0.00187900 0.02201500
v 0.01004500 -0.00187900 0.02201500
v 0.01004500 -0.00187900 0.02201500
v 0.01004500 -0.00187900 0.02201500
v 0.01239300 -0.00208900 0.02201500
v 0.01239300 -0.00208900 0.02201500
v 0.01239300 -0.00208900 0.02201500
v 0.00922000 0.00369700 0.02176500
v 0.00905800 0.00359600 0.02176500
v 0.00906900 0.00358000 0.02186100
v 0.00819900 0.00284500 0.02176500
v 0.00775200 0.00222800 0.02176500
v 0.00776800 0.00221800 0.02186100
v 0.00860600 -0.00315200 0.02176500
v 0.00922300 -0.00359900 0.02176500
v 0.00923300 -0.00358300 0.02186100
v 0.00973200 -0.00385900 0.02176500
v 0.01009000 -0.00399200 0.02176500
v 0.01009500 -0.00397400 0.02186100
v 0.00787100 -0.00228200 0.02186100
v 0.00791600 -0.00225200 0.02194200
v 0.00749100 -0.00141900 0.02194200
v 0.00798400 -0.00220800 0.02199600
v 0.00756700 -0.00139100 0.02199600
v 0.01085000 0.00410800 0.02199600
v 0.01086300 0.00401400 0.02201500
v 0.01175800 0.00403400 0.02201500
v 0.00806400 -0.00215500 0.02201500
v 0.00765700 -0.00135700 0.02201500
v 0.01011200 -0.00392300 0.02194200
v 0.01103300 -0.00405900 0.02198200
v 0.01013700 -0.00384600 0.02199600
v 0.01104400 -0.00393400 0.02201500
v 0.01016700 -0.00375500 0.02201500
v 0.00743800 -0.00048900 0.02201500
v 0.00734300 -0.00050100 0.02199600
v 0.00741700 0.00040700 0.02201500
v 0.00732200 0.00041500 0.02199600
v 0.00759600 0.00128400 0.02201500
v 0.00750500 0.00131400 0.02199600
v 0.00726200 -0.00051200 0.02194200
v 0.00724100 0.00042300 0.02194200
v 0.00742800 0.00133900 0.02194200
v 0.00919600 0.00338700 0.02201500
v 0.00999400 0.00379400 0.02201500
v 0.00914300 0.00346700 0.02199600
v 0.00996000 0.00388400 0.02199600
v 0.00909900 0.00353500 0.02194200
v 0.00993200 0.00396000 0.02194200
v 0.01083900 0.00418900 0.02194200
v 0.01102500 -0.00415000 0.02189000
v 0.01102800 -0.00411000 0.02194200
v 0.00744100 -0.00143800 0.02186100
v 0.00720900 -0.00052000 0.02186100
v 0.00718700 0.00042700 0.02186100
v 0.00737700 0.00135600 0.02186100
v 0.01176600 0.00412900 0.02199600
v 0.01176900 0.00415800 0.02198200
v 0.01177400 0.00421000 0.02194200
v 0.01177700 0.00425000 0.02189000
v 0.00991300 0.00401000 0.02186100
v 0.01083100 0.00424200 0.02186100
v 0.01177900 0.00426400 0.02186100
v 0.01102200 -0.00418300 0.02176500
v 0.01102400 -0.00416400 0.02186100
v 0.00935100 -0.00338500 0.02201500
v 0.00930200 -0.00346700 0.02199600
v 0.00926000 -0.00353600 0.02194200
v 0.00846500 -0.00302300 0.02176500
v 0.00847900 -0.00300900 0.02186100
v 0.00851600 -0.00297000 0.02194200
v 0.00857200 -0.00291200 0.02199600
v 0.00863800 -0.00284200 0.02201500
v 0.00785500 -0.00229300 0.02176500
v 0.00749200 0.00171900 0.02176500
v 0.00735900 0.00136200 0.02176500
v 0.00716800 0.00042900 0.02176500
v 0.00719000 -0.00052200 0.02176500
v 0.00725800 -0.00089700 0.02176500
v 0.00742300 -0.00144500 0.02176500
v 0.00775400 -0.00213100 0.02176500
v 0.00796600 0.00210000 0.02201500
v 0.00788400 0.00214900 0.02199600
v 0.00781500 0.00219100 0.02194200
v 0.00832800 0.00298600 0.02176500
v 0.00834200 0.00297300 0.02186100
v 0.00838100 0.00293500 0.02194200
v 0.00844000 0.00287900 0.02199600
v 0.00850900 0.00281300 0.02201500
v 0.00990600 0.00402800 0.02176500
v 0.01045400 0.00419300 0.02176500
v 0.01082900 0.00426100 0.02176500
v 0.01178000 0.00428300 0.02176500
v 0.01563400 -0.00032900 0.01701500
v 0.01554400 0.00099700 0.01701500
v 0.01504900 0.00223100 0.01701500
v 0.01419600 0.00325200 0.01701500
v 0.01307000 0.00395900 0.01701500
v 0.01178000 0.00428300 0.01701500
v 0.01045400 0.00419300 0.01701500
v 0.00922000 0.00369700 0.01701500
v 0.00819900 0.00284500 0.01701500
v 0.00749200 0.00171900 0.01701500
v 0.00716800 0.00042900 0.01701500
v 0.00725800 -0.00089700 0.01701500
v 0.00775400 -0.00213100 0.01701500
v 0.00860600 -0.00315200 0.01701500
v 0.00973200 -0.00385900 0.01701500
v 0.01102200 -0.00418300 0.01701500
v 0.01234900 -0.00409300 0.01701500
v 0.01358200 -0.00359700 0.01701500
v 0.01460300 -0.00274500 0.01701500
v 0.01531000 -0.00161900 0.01701500
v 0.01167200 -0.00394100 0.02201500
v 0.01229300 -0.00384900 0.02201500
v 0.01289200 -0.00366200 0.02201500
v 0.01345400 -0.00338300 0.02201500
v 0.01297200 0.00372900 0.02201500
v 0.01237700 0.00392900 0.02201500
v 0.01447100 0.00261500 0.02201500
v 0.01403200 0.00306300 0.02201500
v 0.01352800 0.00343800 0.02201500
v 0.01508000 -0.00152100 0.02201500
v 0.01528000 -0.00092600 0.02201500
v 0.01538500 -0.00030700 0.02201500
v 0.01539200 0.00032100 0.02201500
v 0.01530000 0.00094200 0.02201500
v 0.01511300 0.00154100 0.02201500
v 0.01483400 0.00210300 0.02201500
v 0.01396600 -0.00301900 0.02201500
v 0.01441500 -0.00258000 0.02201500
v 0.01478900 -0.00207700 0.02201500
v -0.00216900 -0.00905000 0.00124300
v -0.00248000 -0.00905000 0.00031800
v -0.00241300 -0.00905000 -0.00065500
v -0.00197800 -0.00905000 -0.00152900
v -0.00124300 -0.00905000 -0.00216900
v -0.00031800 -0.00905000 -0.00248000
v 0.00065500 -0.00905000 -0.00241300
v -0.00065500 -0.00905000 0.00241300
v -0.00152900 -0.00905000 0.00197800
v 0.00197800 -0.00905000 0.00152900
v 0.00124300 -0.00905000 0.00216900
v 0.00031800 -0.00905000 0.00248000
v 0.00216900 -0.00905000 -0.00124300
v 0.00248000 -0.00905000 -0.00031800
v 0.00241300 -0.00905000 0.00065500
v 0.00152900 -0.00905000 -0.00197800
v 0.00197800 -0.01325000 0.00152900
v 0.00197800 -0.01325000 0.00152900
v 0.00124300 -0.01325000 0.00216900
v 0.00124300 -0.01325000 0.00216900
v 0.00031800 -0.01325000 0.00248000
v 0.00031800 -0.01325000 0.00248000
v -0.00065500 -0.01325000 0.00241300
v -0.00065500 -0.01325000 0.00241300
v -0.00152900 -0.01325000 0.00197800
v -0.00152900 -0.01325000 0.00197800
v -0.00216900 -0.01325000 0.00124300
v -0.00216900 -0.01325000 0.00124300
v -0.00248000 -0.01325000 0.00031800
v -0.00248000 -0.01325000 0.00031800
v -0.00241300 -0.01325000 -0.00065500
v -0.00241300 -0.01325000 -0.00065500
v -0.00197800 -0.01325000 -0.00152900
v -0.00197800 -0.01325000 -0.00152900
v 0.00182000 -0.01345000 0.00140600
v 0.00182000 -0.01345000 0.00140600
v 0.00114300 -0.01345000 0.00199600
v 0.00114300 -0.01345000 0.00199600
v 0.00029300 -0.01345000 0.00228100
v 0.00029300 -0.01345000 0.00228100
v -0.00060300 -0.01345000 0.00222000
v -0.00060300 -0.01345000 0.00222000
v -0.00140600 -0.01345000 0.00182000
v -0.00140600 -0.01345000 0.00182000
v -0.00199600 -0.01345000 0.00114300
v -0.00199600 -0.01345000 0.00114300
v -0.00228100 -0.01345000 0.00029300
v -0.00228100 -0.01345000 0.00029300
v -0.00222000 -0.01345000 -0.00060300
v -0.00222000 -0.01345000 -0.00060300
v -0.00182000 -0.01345000 -0.00140600
v -0.00182000 -0.01345000 -0.00140600
v -0.00114300 -0.01345000 -0.00199600
v -0.00114300 -0.01345000 -0.00199600
v -0.00029300 -0.01345000 -0.00228100
v -0.00029300 -0.01345000 -0.00228100
v 0.00222000 -0.01345000 0.00060300
v 0.00222000 -0.01345000 0.00060300
v 0.00228100 -0.01345000 -0.00029300
v 0.00228100 -0.01345000 -0.00029300
v 0.00199600 -0.01345000 -0.00114300
v 0.00199600 -0.01345000 -0.00114300
v 0.00140600 -0.01345000 -0.00182000
v 0.00140600 -0.01345000 -0.00182000
v 0.00060300 -0.01345000 -0.00222000
v 0.00060300 -0.01345000 -0.00222000
v -0.00065500 0.00915000 0.00241300
v 0.00031800 0.00915000 0.00248000
v 0.00124300 0.00915000 0.00216900
v 0.00197800 0.00915000 0.00152900
v -0.00248000 0.00915000 0.00031800
v -0.00216900 0.00915000 0.00124300
v -0.00152900 0.00915000 0.00197800
v -0.00197800 0.00915000 -0.00152900
v -0.00241300 0.00915000 -0.00065500
v 0.00065500 0.00915000 -0.00241300
v -0.00031800 0.00915000 -0.00248000
v -0.00124300 0.00915000 -0.00216900
v 0.00241300 0.00915000 0.00065500
v 0.00248000 0.00915000 -0.00031800
v 0.00216900 0.00915000 -0.00124300
v 0.00152900 0.00915000 -0.00197800
v 0.00228100 0.01355000 -0.00029300
v 0.00228100 0.01355000 -0.00029300
v -0.00222000 0.01355000 -0.00060300
v -0.00222000 0.01355000 -0.00060300
v 0.00222000 0.01355000 0.00060300
v 0.00222000 0.01355000 0.00060300
v 0.00114300 0.01355000 0.00199600
v 0.00114300 0.01355000 0.00199600
v 0.00182000 0.01355000 0.00140600
v 0.00182000 0.01355000 0.00140600
v 0.00199600 0.01355000 -0.00114300
v 0.00199600 0.01355000 -0.00114300
v 0.00140600 0.01355000 -0.00182000
v 0.00140600 0.01355000 -0.00182000
v -0.00199600 0.01355000 0.00114300
v -0.00199600 0.01355000 0.00114300
v -0.00140600 0.01355000 0.00182000
v -0.00140600 0.01355000 0.00182000
v -0.00060300 0.01355000 0.00222000
v -0.00060300 0.01355000 0.00222000
v -0.00182000 0.01355000 -0.00140600
v -0.00182000 0.01355000 -0.00140600
v -0.00114300 0.01355000 -0.00199600
v -0.00114300 0.01355000 -0.00199600
v -0.00029300 0.01355000 -0.00228100
v -0.00029300 0.01355000 -0.00228100
v 0.00060300 0.01355000 -0.00222000
v 0.00060300 0.01355000 -0.00222000
v -0.00228100 0.01355000 0.00029300
v -0.00228100 0.01355000 0.00029300
v 0.00029300 0.01355000 0.00228100
v 0.00029300 0.01355000 0.00228100
v -0.00197800 0.01335000 -0.00152900
v -0.00197800 0.01335000 -0.00152900
v -0.00241300 0.01335000 -0.00065500
v -0.00241300 0.01335000 -0.00065500
v -0.00248000 0.01335000 0.00031800
v -0.00248000 0.01335000 0.00031800
v -0.00216900 0.01335000 0.00124300
v -0.00216900 0.01335000 0.00124300
v -0.00152900 0.01335000 0.00197800
v -0.00152900 0.01335000 0.00197800
v -0.00065500 0.01335000 0.00241300
v -0.00065500 0.01335000 0.00241300
v 0.00031800 0.01335000 0.00248000
v 0.00031800 0.01335000 0.00248000
v 0.00124300 0.01335000 0.00216900
v 0.00124300 0.01335000 0.00216900
v 0.00197800 0.01335000 0.00152900
v 0.00197800 0.01335000 0.00152900
v 0.00610100 0.00735000 0.01301500
v 0.00610100 0.00735000 0.01301500
v 0.00690100 0.00815000 0.01301500
v 0.00690100 0.00815000 0.01301500
v 0.00610100 -0.00725000 0.01301500
v 0.00610100 -0.00725000 0.01301500
v 0.00690100 -0.00805000 0.01301500
v 0.00690100 -0.00805000 0.01301500
v -0.00124300 0.01335000 -0.00216900
v -0.00124300 0.01335000 -0.00216900
v -0.00031800 0.01335000 -0.00248000
v -0.00031800 0.01335000 -0.00248000
v 0.00065500 0.01335000 -0.00241300
v 0.00065500 0.01335000 -0.00241300
v 0.00152900 0.01335000 -0.00197800
v 0.00152900 0.01335000 -0.00197800
v 0.00216900 0.01335000 -0.00124300
v 0.00216900 0.01335000 -0.00124300
v 0.00248000 0.01335000 -0.00031800
v 0.00248000 0.01335000 -0.00031800
v 0.00241300 0.01335000 0.00065500
v 0.00241300 0.01335000 0.00065500
v -0.00124300 -0.01325000 -0.00216900
v -0.00124300 -0.01325000 -0.00216900
v -0.00031800 -0.01325000 -0.00248000
v -0.00031800 -0.01325000 -0.00248000
v 0.00065500 -0.01325000 -0.00241300
v 0.00065500 -0.01325000 -0.00241300
v 0.00152900 -0.01325000 -0.00197800
v 0.00152900 -0.01325000 -0.00197800
v 0.00216900 -0.01325000 -0.00124300
v 0.00216900 -0.01325000 -0.00124300
v 0.00248000 -0.01325000 -0.00031800
v 0.00248000 -0.01325000 -0.00031800
v 0.00241300 -0.01325000 0.00065500
v 0.00241300 -0.01325000 0.00065500
v 0.01243800 0.00417200 0.02176500
v 0.01307000 0.00395900 0.02176500
v 0.01366100 0.00365000 0.02176500
v 0.01419600 0.00325200 0.02176500
v 0.01466200 0.00277500 0.02176500
v 0.01504900 0.00223100 0.02176500
v 0.01534500 0.00163400 0.02176500
v 0.01554400 0.00099700 0.02176500
v 0.01564100 0.00033800 0.02176500
v 0.01563400 -0.00032900 0.02176500
v 0.01552300 -0.00098700 0.02176500
v 0.01531000 -0.00161900 0.02176500
v 0.01500100 -0.00221000 0.02176500
v 0.01460300 -0.00274500 0.02176500
v 0.01412600 -0.00321100 0.02176500
v 0.01358200 -0.00359700 0.02176500
v 0.01298500 -0.00389400 0.02176500
v 0.01168900 -0.00419000 0.02176500
v 0.01234900 -0.00409300 0.02176500
v 0.01240700 0.00405000 0.02198200
v 0.01243000 0.00413900 0.02189000
v 0.01168000 -0.00406600 0.02198200
v 0.01232100 -0.00397100 0.02198200
v 0.01232100 -0.00397100 0.02198200
v 0.01293800 -0.00377800 0.02198200
v 0.01293800 -0.00377800 0.02198200
v 0.01351800 -0.00349000 0.02198200
v 0.01351800 -0.00349000 0.02198200
v 0.01404600 -0.00311500 0.02198200
v 0.01404600 -0.00311500 0.02198200
v 0.01450900 -0.00266300 0.02198200
v 0.01450900 -0.00266300 0.02198200
v 0.01489500 -0.00214300 0.02198200
v 0.01489500 -0.00214300 0.02198200
v 0.01519500 -0.00157000 0.02198200
v 0.01519500 -0.00157000 0.02198200
v 0.01540200 -0.00095600 0.02198200
v 0.01540200 -0.00095600 0.02198200
v 0.01551000 -0.00031800 0.02198200
v 0.01551000 -0.00031800 0.02198200
v 0.01551700 0.00032900 0.02198200
v 0.01551700 0.00032900 0.02198200
v 0.01542200 0.00097000 0.02198200
v 0.01542200 0.00097000 0.02198200
v 0.01522900 0.00158700 0.02198200
v 0.01522900 0.00158700 0.02198200
v 0.01494100 0.00216700 0.02198200
v 0.01494100 0.00216700 0.02198200
v 0.01456700 0.00269500 0.02198200
v 0.01456700 0.00269500 0.02198200
v 0.01411400 0.00315800 0.02198200
v 0.01411400 0.00315800 0.02198200
v 0.01359400 0.00354400 0.02198200
v 0.01359400 0.00354400 0.02198200
v 0.01302100 0.00384400 0.02198200
v 0.01302100 0.00384400 0.02198200
v 0.01305700 0.00392800 0.02189000
v 0.01364300 0.00362100 0.02189000
v 0.01417400 0.00322600 0.02189000
v 0.01463700 0.00275400 0.02189000
v 0.01502000 0.00221400 0.02189000
v 0.01531400 0.00162100 0.02189000
v 0.01551200 0.00099000 0.02189000
v 0.01560800 0.00033500 0.02189000
v 0.01560100 -0.00032600 0.02189000
v 0.01549000 -0.00097900 0.02189000
v 0.01527900 -0.00160600 0.02189000
v 0.01497200 -0.00219200 0.02189000
v 0.01457800 -0.00272300 0.02189000
v 0.01410500 -0.00318600 0.02189000
v 0.01356500 -0.00356900 0.02189000
v 0.01297300 -0.00386300 0.02189000
v 0.01234100 -0.00406000 0.02189000
v 0.01168700 -0.00415700 0.02189000
v 0.01546300 0.01335000 0.00596300
v 0.01546300 0.01335000 0.00596300
v 0.01543700 0.01335000 0.00693800
v 0.01543700 0.01335000 0.00693800
v 0.01578600 0.01335000 0.00784800
v 0.01578600 0.01335000 0.00784800
v 0.01645700 0.01335000 0.00855600
v 0.01645700 0.01335000 0.00855600
v 0.01734800 0.01335000 0.00895400
v 0.01734800 0.01335000 0.00895400
v 0.01832300 0.01335000 0.00898000
v 0.01832300 0.01335000 0.00898000
v 0.01923400 0.01335000 0.00863000
v 0.01923400 0.01335000 0.00863000
v 0.01923400 -0.01325000 0.00863000
v 0.01923400 -0.01325000 0.00863000
v 0.01832300 -0.01325000 0.00898000
v 0.01832300 -0.01325000 0.00898000
v 0.01734800 -0.01325000 0.00895400
v 0.01734800 -0.01325000 0.00895400
v 0.01645700 -0.01325000 0.00855600
v 0.01645700 -0.01325000 0.00855600
v 0.01578600 -0.01325000 0.00784800
v 0.01578600 -0.01325000 0.00784800
v 0.01543700 -0.01325000 0.00693800
v 0.01543700 -0.01325000 0.00693800
v 0.01546300 -0.01325000 0.00596300
v 0.01546300 -0.01325000 0.00596300
v 0.01590100 0.00005000 0.02692200
v 0.01590100 0.00005000 0.02692200
v 0.01590100 0.00005000 0.01701500
v 0.01590100 0.00005000 0.01701500
v 0.01578700 -0.00095600 0.02685900
v 0.01578700 -0.00095600 0.02685900
v 0.01568100 -0.00134100 0.01701500
v 0.01568100 -0.00134100 0.01701500
v 0.01504200 -0.00259500 0.01701500
v 0.01504200 -0.00259500 0.01701500
v 0.01544700 -0.00192000 0.02666900
v 0.01544700 -0.00192000 0.02666900
v 0.01568000 -0.00134300 0.02679900
v 0.01568000 -0.00134300 0.02679900
v 0.01400800 -0.00361800 0.02586500
v 0.01400800 -0.00361800 0.02586500
v 0.01400800 -0.00361800 0.02586500
v 0.01404600 -0.00359100 0.02588600
v 0.01404600 -0.00359100 0.02588600
v 0.01404600 -0.00359100 0.02588600
v 0.01404600 -0.00359100 0.01701500
v 0.01404600 -0.00359100 0.01701500
v 0.01404600 -0.00359100 0.01701500
v 0.01484600 -0.00284600 0.02633300
v 0.01484600 -0.00284600 0.02633300
v 0.01504000 -0.00259800 0.02644100
v 0.01504000 -0.00259800 0.02644100
v 0.01298200 -0.00416300 0.02529200
v 0.01298200 -0.00416300 0.02529200
v 0.01298200 -0.00416300 0.02529200
v 0.01279200 -0.00423000 0.01701500
v 0.01279200 -0.00423000 0.01701500
v 0.01279000 -0.00423000 0.02518500
v 0.01279000 -0.00423000 0.02518500
v 0.01279000 -0.00423000 0.02518500
v 0.01179600 -0.00443300 0.02463000
v 0.01179600 -0.00443300 0.02463000
v 0.01140100 -0.00445000 0.01701500
v 0.01140100 -0.00445000 0.01701500
v 0.01140100 -0.00445000 0.02441000
v 0.01140100 -0.00445000 0.02441000
v 0.01001100 -0.00423000 0.01701500
v 0.01001100 -0.00423000 0.01701500
v 0.00875600 -0.00359100 0.01701500
v 0.00875600 -0.00359100 0.01701500
v 0.00875700 -0.00359100 0.02293300
v 0.00875700 -0.00359100 0.02293300
v 0.00966500 -0.00410200 0.02344000
v 0.00966500 -0.00410200 0.02344000
v 0.01001200 -0.00423000 0.02363400
v 0.01001200 -0.00423000 0.02363400
v 0.01070100 -0.00439500 0.02401900
v 0.01070100 -0.00439500 0.02401900
v 0.00759500 -0.00235100 0.02208000
v 0.00759500 -0.00235100 0.02208000
v 0.00776100 -0.00259500 0.02223600
v 0.00776100 -0.00259500 0.02223600
v 0.00776100 -0.00259500 0.01701500
v 0.00776100 -0.00259500 0.01701500
v 0.00817200 -0.00308400 0.02256800
v 0.00817200 -0.00308400 0.02256800
v 0.00866300 -0.00352100 0.02288100
v 0.00866300 -0.00352100 0.02288100
v 0.00712100 -0.00134100 0.01701500
v 0.00712100 -0.00134100 0.01701500
v 0.00690100 0.00005000 0.01701500
v 0.00690100 0.00005000 0.01701500
v 0.00690100 0.00005000 0.02122800
v 0.00690100 0.00005000 0.02122800
v 0.00695900 -0.00066800 0.02131600
v 0.00695900 -0.00066800 0.02131600
v 0.00712100 -0.00134100 0.02154200
v 0.00712100 -0.00134100 0.02154200
v 0.00733300 -0.00187300 0.02180100
v 0.00733300 -0.00187300 0.02180100
v 0.01038700 0.00249800 0.01701500
v 0.00875600 0.00369100 0.01701500
v 0.00875600 0.00369100 0.01701500
v 0.00952700 0.00192400 0.01701500
v 0.00776100 0.00269500 0.01701500
v 0.00776100 0.00269500 0.01701500
v 0.00895300 0.00106400 0.01701500
v 0.00712100 0.00144100 0.01701500
v 0.00712100 0.00144100 0.01701500
v 0.00875100 0.00005000 0.01701500
v 0.00895300 -0.00096400 0.01701500
v 0.00952700 -0.00182400 0.01701500
v 0.01241500 -0.00239800 0.01701500
v 0.01327500 -0.00182400 0.01701500
v 0.01384900 -0.00096400 0.01701500
v 0.01405100 0.00005000 0.01701500
v 0.01384900 0.00106400 0.01701500
v 0.01568100 0.00144100 0.01701500
v 0.01568100 0.00144100 0.01701500
v 0.01504200 0.00269500 0.01701500
v 0.01504200 0.00269500 0.01701500
v 0.01327500 0.00192400 0.01701500
v 0.01404600 0.00369100 0.01701500
v 0.01404600 0.00369100 0.01701500
v 0.01241500 0.00249800 0.01701500
v 0.01279200 0.00433000 0.01701500
v 0.01279200 0.00433000 0.01701500
v 0.01140100 0.00270000 0.01701500
v 0.01140100 0.00455000 0.01701500
v 0.01140100 0.00455000 0.01701500
v 0.01140100 0.00455000 0.01701500
v 0.01001100 0.00433000 0.01701500
v 0.01001100 0.00433000 0.01701500
v 0.01038700 -0.00239800 0.01701500
v 0.01140100 -0.00260000 0.01701500
v 0.01837100 0.00815000 0.01301500
v 0.01837100 -0.00805000 0.01301500
v 0.01572100 -0.00725000 0.02682200
v 0.01572100 -0.00725000 0.02682200
v 0.01572100 -0.00725000 0.02682200
v 0.01611100 -0.00805000 0.02612300
v 0.01611100 -0.00805000 0.02612300
v 0.01630900 -0.00730600 0.02715000
v 0.01630900 -0.00730600 0.02715000
v 0.01708100 -0.00805000 0.02683800
v 0.01708100 -0.00805000 0.02683800
v 0.01784300 -0.00805000 0.02777200
v 0.01784300 -0.00805000 0.02777200
v 0.01736800 -0.00755900 0.02794200
v 0.01736800 -0.00755900 0.02794200
v 0.01661000 -0.00736700 0.02733300
v 0.01661000 -0.00736700 0.02733300
v 0.01818300 -0.00785800 0.02898400
v 0.01818300 -0.00785800 0.02898400
v 0.01782600 -0.00771000 0.02845600
v 0.01782600 -0.00771000 0.02845600
v 0.01744600 -0.00758200 0.02802000
v 0.01744600 -0.00758200 0.02802000
v 0.01834700 -0.00805000 0.02886600
v 0.01834700 -0.00805000 0.02886600
v 0.00866300 -0.00725000 0.02288100
v 0.00866300 -0.00725000 0.02288100
v 0.00905400 -0.00805000 0.02218300
v 0.00905400 -0.00805000 0.02218300
v 0.00760400 -0.00725000 0.02208900
v 0.00760400 -0.00725000 0.02208900
v 0.00816300 -0.00805000 0.02151700
v 0.00816300 -0.00805000 0.02151700
v 0.00678900 -0.00725000 0.02104600
v 0.00678900 -0.00725000 0.02104600
v 0.00747900 -0.00805000 0.02064200
v 0.00747900 -0.00805000 0.02064200
v 0.00627600 -0.00725000 0.01982700
v 0.00627600 -0.00725000 0.01982700
v 0.00704800 -0.00805000 0.01961700
v 0.00704800 -0.00805000 0.01961700
v 0.00610100 -0.00725000 0.01851500
v 0.00610100 -0.00725000 0.01851500
v 0.00690100 -0.00805000 0.01851500
v 0.00690100 -0.00805000 0.01851500
v 0.01611100 0.00815000 0.02612300
v 0.01611100 0.00815000 0.02612300
v 0.01572100 0.00735000 0.02682200
v 0.01572100 0.00735000 0.02682200
v 0.01572100 0.00735000 0.02682200
v 0.01630900 0.00740600 0.02715000
v 0.01630900 0.00740600 0.02715000
v 0.01708100 0.00815000 0.02683800
v 0.01708100 0.00815000 0.02683800
v 0.01661000 0.00746700 0.02733300
v 0.01661000 0.00746700 0.02733300
v 0.01736800 0.00765900 0.02794200
v 0.01736800 0.00765900 0.02794200
v 0.01784300 0.00815000 0.02777200
v 0.01784300 0.00815000 0.02777200
v 0.01782400 0.00781000 0.02845400
v 0.01782400 0.00781000 0.02845400
v 0.01834700 0.00815000 0.02886600
v 0.01834700 0.00815000 0.02886600
v 0.01815000 0.00794300 0.02892900
v 0.01815000 0.00794300 0.02892900
v 0.00866300 0.00735000 0.02288100
v 0.00866300 0.00735000 0.02288100
v 0.00905400 0.00815000 0.02218300
v 0.00905400 0.00815000 0.02218300
v 0.00690100 0.00815000 0.01851500
v 0.00690100 0.00815000 0.01851500
v 0.00610100 0.00735000 0.01851500
v 0.00610100 0.00735000 0.01851500
v 0.00627600 0.00735000 0.01982700
v 0.00627600 0.00735000 0.01982700
v 0.00704800 0.00815000 0.01961700
v 0.00704800 0.00815000 0.01961700
v 0.00678900 0.00735000 0.02104600
v 0.00678900 0.00735000 0.02104600
v 0.00747900 0.00815000 0.02064200
v 0.00747900 0.00815000 0.02064200
v 0.00760400 0.00735000 0.02208900
v 0.00760400 0.00735000 0.02208900
v 0.00816300 0.00815000 0.02151700
v 0.00816300 0.00815000 0.02151700
v 0.01576600 0.00114400 0.02684700
v 0.01576600 0.00114400 0.02684700
v 0.01568000 0.00144300 0.02679900
v 0.01568000 0.00144300 0.02679900
v 0.00866300 0.00362100 0.02288100
v 0.00866300 0.00362100 0.02288100
v 0.00875700 0.00369100 0.02293300
v 0.00875700 0.00369100 0.02293300
v 0.01504100 0.00269500 0.02644200
v 0.01504100 0.00269500 0.02644200
v 0.01505900 0.00267100 0.02645200
v 0.01505900 0.00267100 0.02645200
v 0.01540700 0.00210100 0.02664600
v 0.01540700 0.00210100 0.02664600
v 0.01278900 0.00433100 0.02518500
v 0.01278900 0.00433100 0.02518500
v 0.01278900 0.00433100 0.02518500
v 0.01339200 0.00408500 0.02552200
v 0.01339200 0.00408500 0.02552200
v 0.01404400 0.00369200 0.02588500
v 0.01404400 0.00369200 0.02588500
v 0.01404400 0.00369200 0.02588500
v 0.01426500 0.00352100 0.02600900
v 0.01426500 0.00352100 0.02600900
v 0.00913800 0.00393900 0.02314600
v 0.00913800 0.00393900 0.02314600
v 0.01001100 0.00433000 0.02363400
v 0.01001100 0.00433000 0.02363400
v 0.01010100 0.00435800 0.02368400
v 0.01010100 0.00435800 0.02368400
v 0.01117700 0.00454400 0.02428400
v 0.01117700 0.00454400 0.02428400
v 0.01140100 0.00455000 0.02440900
v 0.01140100 0.00455000 0.02440900
v 0.01140100 0.00455000 0.02440900
v 0.01230300 0.00445900 0.02491300
v 0.01230300 0.00445900 0.02491300
v 0.01230300 0.00445900 0.02491300
v 0.00817400 0.00318600 0.02256900
v 0.00817400 0.00318600 0.02256900
v 0.00776000 0.00269400 0.02223500
v 0.00776000 0.00269400 0.02223500
v 0.00695900 0.00076900 0.02131600
v 0.00695900 0.00076900 0.02131600
v 0.00712100 0.00144100 0.02154200
v 0.00712100 0.00144100 0.02154200
v 0.00733300 0.00197300 0.02180100
v 0.00733300 0.00197300 0.02180100
v 0.00760400 0.00246500 0.02208900
v 0.00760400 0.00246500 0.02208900
vn 0.81640000 -0.00000000 0.57750000
vn 0.81640000 -0.00000000 0.57750000
vn 0.57710000 -0.70720000 0.40830000
vn 0.97520000 -0.00000000 0.22120000
vn 0.68960000 -0.70710000 0.15640000
vn 0.97520000 -0.00000000 0.22120000
vn 0.69680000 -0.70720000 -0.11940000
vn 0.98560000 -0.00000000 -0.16890000
vn 0.98560000 -0.00000000 -0.16890000
vn 0.59820000 -0.70710000 -0.37710000
vn 0.84600000 -0.00000000 -0.53320000
vn 0.84600000 -0.00000000 -0.53320000
vn 0.57760000 -0.00000000 -0.81640000
vn 0.40840000 -0.70710000 -0.57720000
vn 0.57760000 -0.00000000 -0.81640000
vn 0.22120000 -0.00000000 -0.97520000
vn 0.15640000 -0.70710000 -0.68960000
vn 0.22120000 -0.00000000 -0.97520000
vn -0.11940000 -0.70710000 -0.69690000
vn -0.16890000 -0.00000000 -0.98560000
vn -0.16890000 -0.00000000 -0.98560000
vn -0.53320000 -0.00000000 -0.84600000
vn -0.37700000 -0.70720000 -0.59810000
vn -0.53320000 -0.00000000 -0.84600000
vn -0.57720000 -0.70720000 -0.40830000
vn -0.81640000 -0.00000000 -0.57750000
vn -0.81640000 -0.00000000 -0.57750000
vn -0.57710000 -0.70720000 -0.40830000
vn -0.00000000 -1.00000000 -0.00000000
vn -0.00000000 -1.00000000 -0.00000000
vn -0.37700000 -0.70720000 -0.59810000
vn -0.00000000 -1.00000000 -0.00000000
vn -0.11940000 -0.70710000 -0.69690000
vn -0.00000000 -1.00000000 -0.00000000
vn 0.15640000 -0.70710000 -0.68960000
vn 0.40840000 -0.70710000 -0.57720000
vn -0.00000000 -1.00000000 -0.00000000
vn 0.59820000 -0.70710000 -0.37700000
vn -0.00000000 -1.00000000 -0.00000000
vn 0.69680000 -0.70720000 -0.11940000
vn -0.00000000 -1.00000000 -0.00000000
vn 0.68960000 -0.70710000 0.15640000
vn -0.00000000 -1.00000000 -0.00000000
vn -0.00000000 -1.00000000 -0.00000000
vn 0.57710000 -0.70720000 0.40830000
vn -0.00000000 -1.00000000 -0.00000000
vn -0.68960000 -0.70710000 -0.15640000
vn 0.11940000 -0.70720000 0.69690000
vn -0.00000000 -1.00000000 -0.00000000
vn -0.15640000 -0.70720000 0.68950000
vn -0.00000000 -1.00000000 -0.00000000
vn -0.00000000 -1.00000000 -0.00000000
vn 0.37710000 -0.70710000 0.59820000
vn -0.00000000 -1.00000000 -0.00000000
vn -0.69690000 -0.70720000 0.11940000
vn -0.00000000 -1.00000000 -0.00000000
vn -0.59820000 -0.70710000 0.37700000
vn -0.00000000 -1.00000000 -0.00000000
vn -0.40840000 -0.70710000 0.57720000
vn -0.22120000 -0.00000000 0.97520000
vn -0.57760000 -0.00000000 0.81630000
vn -0.84600000 -0.00000000 0.53320000
vn -0.98560000 -0.00000000 0.16890000
vn 0.53320000 -0.00000000 0.84600000
vn 0.16890000 -0.00000000 0.98560000
vn -0.97520000 -0.00000000 -0.22120000
vn -0.22120000 -0.00000000 0.97520000
vn 0.16890000 -0.00000000 0.98560000
vn 0.53320000 -0.00000000 0.84600000
vn -0.98560000 -0.00000000 0.16890000
vn -0.84600000 -0.00000000 0.53320000
vn -0.57760000 -0.00000000 0.81630000
vn -0.53320000 -0.00000000 -0.84600000
vn -0.81640000 -0.00000000 -0.57750000
vn -0.97520000 -0.00000000 -0.22120000
vn 0.98560000 -0.00000000 -0.16890000
vn 0.84600000 -0.00000000 -0.53320000
vn 0.57760000 -0.00000000 -0.81640000
vn 0.22120000 -0.00000000 -0.97520000
vn 0.81640000 -0.00000000 0.57750000
vn 0.97520000 -0.00000000 0.22120000
vn -0.16890000 -0.00000000 -0.98560000
vn 0.81640000 -0.00000000 0.57750000
vn 0.57730000 0.70710000 0.40840000
vn 0.97520000 -0.00000000 0.22120000
vn 0.68970000 0.70700000 0.15640000
vn 0.69690000 0.70710000 -0.11940000
vn 0.98560000 -0.00000000 -0.16890000
vn 0.59830000 0.70700000 -0.37710000
vn 0.84600000 -0.00000000 -0.53320000
vn 0.57760000 -0.00000000 -0.81640000
vn 0.40840000 0.70700000 -0.57730000
vn 0.15640000 0.70700000 -0.68970000
vn 0.22120000 -0.00000000 -0.97520000
vn -0.16890000 -0.00000000 -0.98560000
vn -0.11940000 0.70700000 -0.69700000
vn -0.37700000 0.70710000 -0.59820000
vn -0.53320000 -0.00000000 -0.84600000
vn -0.57730000 0.70710000 -0.40840000
vn -0.81640000 -0.00000000 -0.57750000
vn 0.57720000 0.70710000 0.40840000
vn -0.00000000 1.00000000 -0.00000000
vn 0.68970000 0.70700000 0.15640000
vn -0.00000000 1.00000000 -0.00000000
vn 0.69690000 0.70710000 -0.11940000
vn -0.00000000 1.00000000 -0.00000000
vn 0.59810000 0.70720000 -0.37700000
vn -0.00000000 1.00000000 -0.00000000
vn 0.40840000 0.70700000 -0.57730000
vn -0.00000000 1.00000000 -0.00000000
vn 0.15640000 0.70700000 -0.68970000
vn -0.00000000 1.00000000 -0.00000000
vn -0.00000000 1.00000000 -0.00000000
vn -0.11940000 0.70700000 -0.69700000
vn -0.00000000 1.00000000 -0.00000000
vn -0.37700000 0.70710000 -0.59820000
vn -0.00000000 1.00000000 -0.00000000
vn -0.57720000 0.70710000 -0.40840000
vn 0.37710000 0.70700000 0.59830000
vn -0.00000000 1.00000000 -0.00000000
vn -0.68970000 0.70700000 -0.15640000
vn -0.00000000 1.00000000 -0.00000000
vn -0.69690000 0.70710000 0.11940000
vn -0.00000000 1.00000000 -0.00000000
vn -0.15640000 0.70710000 0.68960000
vn -0.00000000 1.00000000 -0.00000000
vn 0.11940000 0.70700000 0.69700000
vn -0.00000000 1.00000000 -0.00000000
vn -0.00000000 1.00000000 -0.00000000
vn -0.40840000 0.70710000 0.57730000
vn -0.00000000 1.00000000 -0.00000000
vn -0.59830000 0.70700000 0.37710000
vn -0.00000000 -0.00000000 1.00000000
vn -0.00000000 -0.00000000 1.00000000
vn -0.17590000 0.46800000 0.86600000
vn -0.00000000 -0.00000000 1.00000000
vn -0.33730000 0.37030000 0.86550000
vn 0.08920000 0.99600000 -0.00000000
vn 0.04460000 0.49800000 0.86600000
vn -0.00000000 -0.00000000 1.00000000
vn -0.48080000 0.13810000 0.86590000
vn -0.00000000 -0.00000000 1.00000000
vn -0.49770000 -0.05040000 0.86590000
vn -0.00000000 -0.00000000 1.00000000
vn -0.81800000 0.57530000 -0.00000000
vn -0.41900000 0.27320000 0.86590000
vn -0.00000000 -0.00000000 1.00000000
vn -0.00000000 -0.00000000 1.00000000
vn -0.25630000 -0.42930000 0.86600000
vn -0.04460000 -0.49800000 0.86600000
vn -0.08920000 -0.99600000 -0.00000000
vn -0.00000000 -0.00000000 1.00000000
vn -0.39780000 -0.30440000 0.86550000
vn -0.00000000 -0.00000000 1.00000000
vn -0.46090000 -0.19430000 0.86590000
vn -0.90720000 -0.42070000 -0.00000000
vn -0.90720000 -0.42080000 -0.00000000
vn -0.00000000 -0.00000000 1.00000000
vn -0.90720000 -0.42080000 -0.00000000
vn -0.00000000 -0.00000000 1.00000000
vn -0.08920000 -0.99600000 -0.00000000
vn -0.90720000 -0.42070000 -0.00000000
vn -0.81800000 0.57530000 -0.00000000
vn -0.00000000 -0.00000000 1.00000000
vn -0.00000000 -0.00000000 1.00000000
vn -0.81800000 0.57530000 -0.00000000
vn 0.08920000 0.99600000 -0.00000000
vn 0.25630000 0.42930000 0.86600000
vn -0.00000000 -0.00000000 1.00000000
vn -0.00000000 -0.00000000 1.00000000
vn 0.08920000 0.99600000 -0.00000000
vn 0.90720000 0.42080000 -0.00000000
vn -0.00000000 -0.00000000 1.00000000
vn 0.39780000 0.30440000 0.86550000
vn 0.90720000 0.42080000 -0.00000000
vn 0.46090000 0.19430000 0.86590000
vn 0.90720000 0.42070000 -0.00000000
vn -0.00000000 -0.00000000 1.00000000
vn 0.49770000 0.05040000 0.86590000
vn -0.00000000 -0.00000000 1.00000000
vn 0.90720000 0.42070000 -0.00000000
vn 0.81800000 -0.57530000 -0.00000000
vn -0.00000000 -0.00000000 1.00000000
vn 0.48080000 -0.13810000 0.86590000
vn -0.00000000 -0.00000000 1.00000000
vn -0.00000000 -0.00000000 1.00000000
vn 0.81790000 -0.57530000 -0.00000000
vn 0.81800000 -0.57530000 -0.00000000
vn 0.41900000 -0.27320000 0.86590000
vn -0.00000000 -0.00000000 1.00000000
vn 0.33730000 -0.37030000 0.86550000
vn -0.08920000 -0.99600000 -0.00000000
vn -0.00000000 -0.00000000 1.00000000
vn 0.81790000 -0.57530000 -0.00000000
vn -0.00000000 -0.00000000 1.00000000
vn 0.17590000 -0.46800000 0.86600000
vn -0.81800000 0.57530000 -0.00000000
vn -0.00000000 -0.00000000 1.00000000
vn -0.90720000 -0.42070000 -0.00000000
vn -0.90720000 -0.42080000 -0.00000000
vn -0.00000000 -0.00000000 1.00000000
vn -0.90720000 -0.42070000 -0.00000000
vn -0.08920000 -0.99600000 -0.00000000
vn -0.08920000 -0.99600000 -0.00000000
vn -0.00000000 -0.00000000 1.00000000
vn 0.81800000 -0.57530000 -0.00000000
vn 0.81790000 -0.57530000 -0.00000000
vn -0.00000000 -0.00000000 1.00000000
vn 0.81800000 -0.57530000 -0.00000000
vn 0.90720000 0.42070000 -0.00000000
vn -0.00000000 -0.00000000 1.00000000
vn 0.90720000 0.42070000 -0.00000000
vn 0.90720000 0.42080000 -0.00000000
vn 0.08920000 0.99600000 -0.00000000
vn 0.08920000 0.99600000 -0.00000000
vn -0.81800000 0.57530000 -0.00000000
vn -0.00000000 -0.00000000 1.00000000
vn -0.46030000 0.86900000 0.18160000
vn -0.58600000 0.80460000 0.09610000
vn -0.52000000 0.76010000 0.38960000
vn -0.77090000 0.61590000 0.16260000
vn -0.84890000 0.51960000 0.09710000
vn -0.78900000 0.47680000 0.38740000
vn -0.61590000 -0.77090000 0.16260000
vn -0.51960000 -0.84890000 0.09690000
vn -0.47680000 -0.78910000 0.38730000
vn -0.39830000 -0.89540000 0.19910000
vn -0.27520000 -0.95650000 0.09690000
vn -0.27170000 -0.88140000 0.38650000
vn -0.76010000 -0.52000000 0.38970000
vn -0.59560000 -0.39350000 0.70030000
vn -0.66830000 -0.25110000 0.70030000
vn -0.32910000 -0.21740000 0.91890000
vn -0.36910000 -0.13870000 0.91900000
vn -0.05430000 0.39000000 0.91920000
vn -0.01410000 0.10390000 0.99450000
vn 0.00740000 0.10370000 0.99460000
vn -0.08760000 -0.05780000 0.99450000
vn -0.09820000 -0.03690000 0.99450000
vn -0.22240000 -0.67840000 0.70020000
vn -0.04670000 -0.45020000 0.89170000
vn -0.12260000 -0.37410000 0.91920000
vn -0.01280000 -0.13660000 0.99050000
vn -0.03240000 -0.09980000 0.99450000
vn -0.10400000 -0.01410000 0.99450000
vn -0.39070000 -0.05310000 0.91900000
vn -0.10450000 0.00940000 0.99450000
vn -0.39280000 0.03520000 0.91900000
vn -0.09980000 0.03240000 0.99450000
vn -0.37510000 0.12170000 0.91890000
vn -0.70750000 -0.09610000 0.70010000
vn -0.71100000 0.06370000 0.70030000
vn -0.67900000 0.22030000 0.70030000
vn -0.05780000 0.08750000 0.99450000
vn -0.03690000 0.09820000 0.99450000
vn -0.21740000 0.32910000 0.91890000
vn -0.13880000 0.36930000 0.91890000
vn -0.39360000 0.59560000 0.70020000
vn -0.25120000 0.66840000 0.70010000
vn -0.09830000 0.70720000 0.70020000
vn -0.09020000 -0.84610000 0.52530000
vn -0.07500000 -0.70700000 0.70320000
vn -0.86050000 -0.33450000 0.38420000
vn -0.91540000 -0.10960000 0.38730000
vn -0.92210000 0.08260000 0.37790000
vn -0.88130000 0.27060000 0.38740000
vn 0.02400000 0.32760000 0.94450000
vn 0.03840000 0.53110000 0.84640000
vn 0.05190000 0.70890000 0.70340000
vn 0.06160000 0.84870000 0.52530000
vn -0.33440000 0.86050000 0.38430000
vn -0.11070000 0.91550000 0.38690000
vn 0.06910000 0.94520000 0.31900000
vn -0.10540000 -0.98970000 0.09740000
vn -0.10010000 -0.94260000 0.31850000
vn -0.05380000 -0.09010000 0.99450000
vn -0.20210000 -0.33860000 0.91890000
vn -0.36590000 -0.61300000 0.70030000
vn -0.71960000 -0.68770000 0.09610000
vn -0.64780000 -0.65460000 0.38960000
vn -0.49320000 -0.51630000 0.70020000
vn -0.27240000 -0.28510000 0.91900000
vn -0.07240000 -0.07580000 0.99450000
vn -0.80460000 -0.58600000 0.09610000
vn -0.89540000 0.39830000 0.19910000
vn -0.95640000 0.27530000 0.09710000
vn -0.99130000 0.08880000 0.09740000
vn -0.99020000 -0.10090000 0.09690000
vn -0.95190000 -0.23280000 0.19930000
vn -0.92550000 -0.36510000 0.10050000
vn -0.86900000 -0.46020000 0.18170000
vn -0.09010000 0.05380000 0.99450000
vn -0.33860000 0.20210000 0.91900000
vn -0.61300000 0.36590000 0.70030000
vn -0.68770000 0.71960000 0.09610000
vn -0.65460000 0.64770000 0.38980000
vn -0.51620000 0.49310000 0.70030000
vn -0.28520000 0.27240000 0.91900000
vn -0.07590000 0.07250000 0.99450000
vn -0.36510000 0.92550000 0.10060000
vn -0.23280000 0.95190000 0.19920000
vn -0.10090000 0.99020000 0.09700000
vn 0.07220000 0.99260000 0.09740000
vn 0.99600000 -0.08920000 -0.01020000
vn 0.97480000 0.22290000 -0.01020000
vn 0.85820000 0.51320000 -0.01010000
vn 0.65760000 0.75330000 -0.01020000
vn 0.39260000 0.91970000 -0.01020000
vn 0.08850000 0.99600000 -0.00910000
vn -0.22240000 0.97490000 -0.00940000
vn -0.51470000 0.85730000 -0.00760000
vn -0.75220000 0.65890000 -0.00760000
vn -0.91990000 0.39210000 -0.00940000
vn -0.99600000 0.08920000 -0.00800000
vn -0.97490000 -0.22240000 -0.00940000
vn -0.85730000 -0.51470000 -0.00760000
vn -0.65890000 -0.75220000 -0.00760000
vn -0.39210000 -0.91990000 -0.00940000
vn -0.08990000 -0.99590000 -0.00910000
vn 0.22290000 -0.97480000 -0.01020000
vn 0.51320000 -0.85820000 -0.01020000
vn 0.75330000 -0.65760000 -0.01020000
vn 0.91960000 -0.39260000 -0.01020000
vn 0.00930000 -0.13670000 0.99060000
vn 0.03050000 -0.13350000 0.99060000
vn 0.05110000 -0.12710000 0.99060000
vn 0.07030000 -0.11760000 0.99060000
vn 0.05380000 0.12590000 0.99060000
vn 0.03550000 0.13070000 0.99080000
vn 0.10510000 0.08780000 0.99060000
vn 0.09010000 0.10320000 0.99060000
vn 0.07280000 0.11600000 0.99060000
vn 0.12600000 -0.05380000 0.99060000
vn 0.13280000 -0.03340000 0.99060000
vn 0.13640000 -0.01220000 0.99060000
vn 0.13670000 0.00930000 0.99060000
vn 0.13350000 0.03050000 0.99060000
vn 0.12710000 0.05100000 0.99060000
vn 0.11750000 0.07030000 0.99060000
vn 0.08780000 -0.10510000 0.99060000
vn 0.10320000 -0.09010000 0.99060000
vn 0.11600000 -0.07280000 0.99060000
vn -0.86770000 -0.00000000 0.49710000
vn -0.99190000 -0.00000000 0.12720000
vn -0.96510000 -0.00000000 -0.26200000
vn -0.79130000 -0.00000000 -0.61140000
vn -0.49710000 -0.00000000 -0.86770000
vn -0.12720000 -0.00000000 -0.99190000
vn 0.26200000 -0.00000000 -0.96510000
vn -0.26200000 -0.00000000 0.96510000
vn -0.61140000 -0.00000000 0.79130000
vn 0.79130000 -0.00000000 0.61140000
vn 0.49710000 -0.00000000 0.86770000
vn 0.12720000 -0.00000000 0.99190000
vn 0.86770000 -0.00000000 -0.49710000
vn 0.99190000 -0.00000000 -0.12720000
vn 0.96510000 -0.00000000 0.26200000
vn 0.61140000 -0.00000000 -0.79130000
vn 0.55940000 -0.70720000 0.43230000
vn 0.79130000 -0.00000000 0.61140000
vn 0.35150000 -0.70710000 0.61350000
vn 0.49710000 -0.00000000 0.86770000
vn 0.08990000 -0.70710000 0.70130000
vn 0.12720000 -0.00000000 0.99190000
vn -0.18530000 -0.70710000 0.68240000
vn -0.26200000 -0.00000000 0.96510000
vn -0.61140000 -0.00000000 0.79130000
vn -0.43230000 -0.70720000 0.55940000
vn -0.61350000 -0.70710000 0.35150000
vn -0.86770000 -0.00000000 0.49710000
vn -0.70130000 -0.70710000 0.08990000
vn -0.99190000 -0.00000000 0.12720000
vn -0.68240000 -0.70710000 -0.18530000
vn -0.96510000 -0.00000000 -0.26200000
vn -0.55950000 -0.70720000 -0.43230000
vn -0.79130000 -0.00000000 -0.61140000
vn -0.00000000 -1.00000000 -0.00000000
vn 0.55940000 -0.70720000 0.43230000
vn -0.00000000 -1.00000000 -0.00000000
vn 0.35150000 -0.70710000 0.61350000
vn 0.08990000 -0.70710000 0.70130000
vn -0.00000000 -1.00000000 -0.00000000
vn -0.18530000 -0.70720000 0.68240000
vn -0.00000000 -1.00000000 -0.00000000
vn -0.00000000 -1.00000000 -0.00000000
vn -0.43230000 -0.70720000 0.55940000
vn -0.00000000 -1.00000000 -0.00000000
vn -0.61350000 -0.70710000 0.35150000
vn -0.00000000 -1.00000000 -0.00000000
vn -0.70130000 -0.70710000 0.08990000
vn -0.00000000 -1.00000000 -0.00000000
vn -0.68240000 -0.70710000 -0.18530000
vn -0.00000000 -1.00000000 -0.00000000
vn -0.55950000 -0.70720000 -0.43230000
vn -0.00000000 -1.00000000 -0.00000000
vn -0.35150000 -0.70710000 -0.61350000
vn -0.08990000 -0.70710000 -0.70130000
vn -0.00000000 -1.00000000 -0.00000000
vn -0.00000000 -1.00000000 -0.00000000
vn 0.68240000 -0.70720000 0.18530000
vn -0.00000000 -1.00000000 -0.00000000
vn 0.70130000 -0.70710000 -0.08990000
vn -0.00000000 -1.00000000 -0.00000000
vn 0.61350000 -0.70710000 -0.35150000
vn 0.43230000 -0.70720000 -0.55950000
vn -0.00000000 -1.00000000 -0.00000000
vn 0.18530000 -0.70710000 -0.68240000
vn -0.00000000 -1.00000000 -0.00000000
vn -0.26200000 -0.00000000 0.96510000
vn 0.12720000 -0.00000000 0.99190000
vn 0.49710000 -0.00000000 0.86770000
vn 0.79130000 -0.00000000 0.61140000
vn -0.99190000 -0.00000000 0.12720000
vn -0.86770000 -0.00000000 0.49710000
vn -0.61140000 -0.00000000 0.79130000
vn -0.79130000 -0.00000000 -0.61140000
vn -0.96510000 -0.00000000 -0.26200000
vn 0.26200000 -0.00000000 -0.96510000
vn -0.12720000 -0.00000000 -0.99190000
vn -0.49710000 -0.00000000 -0.86770000
vn 0.96510000 -0.00000000 0.26200000
vn 0.99190000 -0.00000000 -0.12720000
vn 0.86770000 -0.00000000 -0.49710000
vn 0.61140000 -0.00000000 -0.79130000
vn -0.00000000 1.00000000 -0.00000000
vn 0.70140000 0.70700000 -0.09000000
vn -0.68250000 0.70700000 -0.18530000
vn -0.00000000 1.00000000 -0.00000000
vn -0.00000000 1.00000000 -0.00000000
vn 0.68250000 0.70700000 0.18530000
vn 0.35150000 0.70700000 0.61360000
vn -0.00000000 1.00000000 -0.00000000
vn -0.00000000 1.00000000 -0.00000000
vn 0.55950000 0.70710000 0.43230000
vn -0.00000000 1.00000000 -0.00000000
vn 0.61360000 0.70700000 -0.35150000
vn 0.43230000 0.70710000 -0.55960000
vn -0.00000000 1.00000000 -0.00000000
vn -0.00000000 1.00000000 -0.00000000
vn -0.61360000 0.70700000 0.35150000
vn -0.00000000 1.00000000 -0.00000000
vn -0.43230000 0.70710000 0.55950000
vn -0.18530000 0.70700000 0.68250000
vn -0.00000000 1.00000000 -0.00000000
vn -0.00000000 1.00000000 -0.00000000
vn -0.55960000 0.70710000 -0.43230000
vn -0.00000000 1.00000000 -0.00000000
vn -0.35150000 0.70700000 -0.61360000
vn -0.00000000 1.00000000 -0.00000000
vn -0.09000000 0.70700000 -0.70140000
vn 0.18530000 0.70700000 -0.68250000
vn -0.00000000 1.00000000 -0.00000000
vn -0.70140000 0.70700000 0.09000000
vn -0.00000000 1.00000000 -0.00000000
vn 0.09000000 0.70700000 0.70140000
vn -0.00000000 1.00000000 -0.00000000
vn -0.55960000 0.70710000 -0.43240000
vn -0.79130000 -0.00000000 -0.61140000
vn -0.96510000 -0.00000000 -0.26200000
vn -0.68250000 0.70700000 -0.18530000
vn -0.70140000 0.70700000 0.09000000
vn -0.99190000 -0.00000000 0.12720000
vn -0.61360000 0.70700000 0.35160000
vn -0.86770000 -0.00000000 0.49710000
vn -0.61140000 -0.00000000 0.79130000
vn -0.43230000 0.70710000 0.55950000
vn -0.26200000 -0.00000000 0.96510000
vn -0.18530000 0.70700000 0.68240000
vn 0.09000000 0.70700000 0.70140000
vn 0.12720000 -0.00000000 0.99190000
vn 0.49710000 -0.00000000 0.86770000
vn 0.35160000 0.70700000 0.61360000
vn 0.79130000 -0.00000000 0.61140000
vn 0.55950000 0.70710000 0.43230000
vn -1.00000000 -0.00000000 -0.00000000
vn -0.70710000 0.70710000 -0.00000000
vn -0.00000000 1.00000000 -0.00000000
vn -0.70710000 0.70710000 -0.00000000
vn -0.70710000 -0.70710000 -0.00000000
vn -1.00000000 -0.00000000 -0.00000000
vn -0.00000000 -1.00000000 -0.00000000
vn -0.70710000 -0.70710000 -0.00000000
vn -0.35160000 0.70700000 -0.61360000
vn -0.49710000 -0.00000000 -0.86770000
vn -0.12720000 -0.00000000 -0.99190000
vn -0.09000000 0.70700000 -0.70140000
vn 0.18530000 0.70700000 -0.68250000
vn 0.26200000 -0.00000000 -0.96510000
vn 0.61140000 -0.00000000 -0.79130000
vn 0.43240000 0.70710000 -0.55960000
vn 0.61360000 0.70700000 -0.35160000
vn 0.86770000 -0.00000000 -0.49710000
vn 0.99190000 -0.00000000 -0.12720000
vn 0.70140000 0.70700000 -0.09000000
vn 0.96510000 -0.00000000 0.26200000
vn 0.68240000 0.70700000 0.18530000
vn -0.49710000 -0.00000000 -0.86770000
vn -0.35150000 -0.70710000 -0.61350000
vn -0.12720000 -0.00000000 -0.99190000
vn -0.09000000 -0.70710000 -0.70130000
vn 0.26200000 -0.00000000 -0.96510000
vn 0.18530000 -0.70710000 -0.68240000
vn 0.61140000 -0.00000000 -0.79130000
vn 0.43230000 -0.70720000 -0.55950000
vn 0.61350000 -0.70710000 -0.35150000
vn 0.86770000 -0.00000000 -0.49710000
vn 0.99190000 -0.00000000 -0.12720000
vn 0.70130000 -0.70710000 -0.08990000
vn 0.96510000 -0.00000000 0.26200000
vn 0.68240000 -0.70710000 0.18530000
vn 0.24400000 0.96130000 0.12770000
vn 0.38930000 0.91190000 0.12980000
vn 0.52720000 0.83980000 0.12920000
vn 0.65210000 0.74700000 0.12970000
vn 0.76090000 0.63580000 0.12920000
vn 0.85100000 0.50890000 0.12990000
vn 0.92020000 0.36950000 0.12910000
vn 0.96660000 0.22110000 0.12970000
vn 0.98930000 0.06710000 0.12930000
vn 0.98760000 -0.08850000 0.12970000
vn 0.96170000 -0.24190000 0.12920000
vn 0.91190000 -0.38930000 0.12980000
vn 0.83980000 -0.52720000 0.12930000
vn 0.74700000 -0.65210000 0.12970000
vn 0.63580000 -0.76090000 0.12930000
vn 0.50890000 -0.85100000 0.12960000
vn 0.36960000 -0.92010000 0.12940000
vn 0.06930000 -0.98940000 0.12760000
vn 0.22100000 -0.96660000 0.12950000
vn 0.12970000 0.49230000 0.86070000
vn 0.21740000 0.84180000 0.49410000
vn 0.03780000 -0.50640000 0.86150000
vn 0.15760000 -0.68920000 0.70720000
vn 0.05770000 -0.25240000 0.96590000
vn 0.26350000 -0.65620000 0.70710000
vn 0.09650000 -0.24030000 0.96590000
vn 0.13290000 -0.22230000 0.96590000
vn 0.36290000 -0.60670000 0.70730000
vn 0.45330000 -0.54250000 0.70730000
vn 0.16600000 -0.19870000 0.96590000
vn 0.19510000 -0.17030000 0.96590000
vn 0.53270000 -0.46500000 0.70710000
vn 0.59890000 -0.37600000 0.70710000
vn 0.21930000 -0.13760000 0.96590000
vn 0.23820000 -0.10170000 0.96590000
vn 0.65030000 -0.27760000 0.70720000
vn 0.68590000 -0.17260000 0.70700000
vn 0.25100000 -0.06310000 0.96590000
vn 0.25780000 -0.02310000 0.96590000
vn 0.70420000 -0.06310000 0.70720000
vn 0.70530000 0.04790000 0.70730000
vn 0.25830000 0.01750000 0.96590000
vn 0.68920000 0.15760000 0.70730000
vn 0.25240000 0.05770000 0.96590000
vn 0.65600000 0.26350000 0.70720000
vn 0.24020000 0.09650000 0.96590000
vn 0.22220000 0.13290000 0.96590000
vn 0.60690000 0.36290000 0.70710000
vn 0.54250000 0.45330000 0.70720000
vn 0.19870000 0.16600000 0.96590000
vn 0.17020000 0.19500000 0.96590000
vn 0.46500000 0.53270000 0.70710000
vn 0.13770000 0.21930000 0.96590000
vn 0.37590000 0.59870000 0.70730000
vn 0.27770000 0.65030000 0.70710000
vn 0.10160000 0.23800000 0.96590000
vn 0.34130000 0.79930000 0.49460000
vn 0.46210000 0.73610000 0.49460000
vn 0.57160000 0.65480000 0.49450000
vn 0.66700000 0.55730000 0.49450000
vn 0.74590000 0.44610000 0.49460000
vn 0.80660000 0.32390000 0.49450000
vn 0.84720000 0.19380000 0.49460000
vn 0.86710000 0.05880000 0.49470000
vn 0.86570000 -0.07760000 0.49460000
vn 0.84300000 -0.21210000 0.49440000
vn 0.79930000 -0.34120000 0.49460000
vn 0.73610000 -0.46210000 0.49450000
vn 0.65480000 -0.57160000 0.49450000
vn 0.55730000 -0.66690000 0.49460000
vn 0.44610000 -0.74600000 0.49450000
vn 0.32390000 -0.80650000 0.49460000
vn 0.19380000 -0.84730000 0.49440000
vn 0.06430000 -0.86710000 0.49400000
vn -0.68970000 0.70700000 -0.15640000
vn -0.97520000 -0.00000000 -0.22120000
vn -0.98560000 -0.00000000 0.16890000
vn -0.69690000 0.70710000 0.11940000
vn -0.59830000 0.70700000 0.37710000
vn -0.84600000 -0.00000000 0.53320000
vn -0.57760000 -0.00000000 0.81630000
vn -0.40840000 0.70700000 0.57730000
vn -0.15640000 0.70710000 0.68960000
vn -0.22120000 -0.00000000 0.97520000
vn 0.16890000 -0.00000000 0.98560000
vn 0.11940000 0.70700000 0.69700000
vn 0.37710000 0.70700000 0.59830000
vn 0.53320000 -0.00000000 0.84600000
vn 0.37710000 -0.70710000 0.59820000
vn 0.53320000 -0.00000000 0.84600000
vn 0.16890000 -0.00000000 0.98560000
vn 0.11940000 -0.70710000 0.69690000
vn -0.15640000 -0.70720000 0.68950000
vn -0.22120000 -0.00000000 0.97520000
vn -0.40840000 -0.70720000 0.57720000
vn -0.57760000 -0.00000000 0.81630000
vn -0.59820000 -0.70710000 0.37710000
vn -0.84600000 -0.00000000 0.53320000
vn -0.98560000 -0.00000000 0.16890000
vn -0.69690000 -0.70720000 0.11940000
vn -0.68960000 -0.70710000 -0.15640000
vn -0.97520000 -0.00000000 -0.22120000
vn -1.00000000 -0.00480000 -0.00000000
vn -0.48760000 -0.00000000 0.87310000
vn -0.00000000 -0.00000000 1.00000000
vn -1.00000000 -0.00020000 0.00400000
vn -0.98280000 0.18490000 0.00020000
vn -0.48770000 -0.00000000 0.87300000
vn -0.95120000 0.30870000 0.00500000
vn -0.00000000 -0.00000000 1.00000000
vn -0.80870000 0.58820000 0.00480000
vn -0.00000000 -0.00000000 1.00000000
vn -0.90040000 0.43500000 0.00030000
vn -0.48760000 -0.00000000 0.87310000
vn -0.48740000 -0.00000000 0.87320000
vn -0.94910000 0.31500000 -0.00000000
vn -0.48750000 -0.00000000 0.87310000
vn -0.54360000 0.83930000 0.00030000
vn -0.48760000 -0.00000000 0.87310000
vn -0.48750000 -0.00000000 0.87310000
vn -0.64660000 0.76280000 -0.00000000
vn -0.48760000 -0.00000000 0.87310000
vn -0.00000000 -0.00000000 1.00000000
vn -0.58760000 0.80920000 0.00350000
vn -0.58750000 0.80920000 0.00300000
vn -0.74910000 0.66250000 0.00020000
vn -0.48750000 -0.00000000 0.87310000
vn -0.83070000 0.55670000 -0.00000000
vn -0.48750000 -0.00000000 0.87310000
vn -0.48750000 -0.00000000 0.87310000
vn -0.42220000 0.90650000 0.00060000
vn -0.48760000 -0.00000000 0.87310000
vn -0.00000000 -0.00000000 1.00000000
vn -0.30980000 0.95080000 0.00430000
vn -0.48750000 -0.00000000 0.87310000
vn -0.28590000 0.95820000 -0.00000000
vn -0.48760000 -0.00000000 0.87310000
vn -0.48750000 -0.00000000 0.87310000
vn -0.14720000 0.98910000 0.00040000
vn 0.00180000 1.00000000 0.00340000
vn -0.00000000 -0.00000000 1.00000000
vn -0.48750000 -0.00000000 0.87310000
vn -0.00260000 1.00000000 -0.00000000
vn 0.30900000 0.95110000 0.00050000
vn -0.00000000 -0.00000000 1.00000000
vn 0.58520000 0.81080000 0.00470000
vn -0.00000000 -0.00000000 1.00000000
vn -0.48770000 -0.00000000 0.87300000
vn 0.52550000 0.85080000 0.00490000
vn 0.39990000 0.91650000 0.00320000
vn -0.48750000 -0.00000000 0.87310000
vn 0.26320000 0.96470000 0.00880000
vn -0.48750000 -0.00000000 0.87310000
vn 0.13300000 0.99110000 0.00550000
vn -0.48750000 -0.00000000 0.87310000
vn 0.84600000 0.53310000 0.00190000
vn -0.73430000 -0.01280000 0.67870000
vn 0.78780000 0.61590000 -0.00000000
vn -0.67040000 -0.00090000 0.74200000
vn -0.00000000 -0.00000000 1.00000000
vn 0.81070000 0.58540000 0.00590000
vn 0.70090000 0.71320000 0.00180000
vn -0.60380000 -0.00930000 0.79710000
vn 0.62280000 0.78240000 0.00060000
vn -0.53660000 -0.01220000 0.84370000
vn 0.95100000 0.30920000 0.00130000
vn -0.00000000 -0.00000000 1.00000000
vn -0.00000000 -0.00000000 1.00000000
vn 1.00000000 0.00410000 0.00580000
vn -0.84990000 -0.00000000 0.52690000
vn 0.99990000 0.00850000 0.01000000
vn -0.83460000 -0.00100000 0.55090000
vn 0.98670000 0.16220000 0.01190000
vn 0.94330000 0.33180000 0.01330000
vn -0.80980000 -0.00370000 0.58680000
vn 0.89730000 0.44130000 0.01360000
vn -0.77330000 -0.01080000 0.63390000
vn -0.00000000 -0.00000000 1.00000000
vn -0.00000000 -0.00000000 1.00000000
vn 0.58730000 -0.80940000 0.00840000
vn -0.00000000 -0.00000000 1.00000000
vn 0.80870000 -0.58810000 0.00980000
vn -0.00000000 -0.00000000 1.00000000
vn -0.00000000 -0.00000000 1.00000000
vn 0.95080000 -0.30950000 0.01110000
vn -0.00000000 -0.00000000 1.00000000
vn -0.00000000 -0.00000000 1.00000000
vn -0.00000000 -0.00000000 1.00000000
vn -0.00000000 -0.00000000 1.00000000
vn -0.00000000 -0.00000000 1.00000000
vn -0.00000000 -0.00000000 1.00000000
vn -0.00000000 -0.00000000 1.00000000
vn -0.00000000 -0.00000000 1.00000000
vn -0.00000000 -0.00000000 1.00000000
vn -0.95070000 -0.31000000 0.00240000
vn -0.00000000 -0.00000000 1.00000000
vn -0.80970000 -0.58690000 0.00200000
vn -0.00000000 -0.00000000 1.00000000
vn -0.00000000 -0.00000000 1.00000000
vn -0.00000000 -0.00000000 1.00000000
vn -0.58840000 -0.80850000 0.00500000
vn -0.00000000 -0.00000000 1.00000000
vn -0.30900000 -0.95100000 0.00620000
vn -0.00000000 -0.00000000 1.00000000
vn -0.00000000 -0.00000000 1.00000000
vn 0.00140000 -1.00000000 0.00590000
vn -0.00000000 -0.00000000 1.00000000
vn 0.00140000 -1.00000000 0.00420000
vn 0.30730000 -0.95160000 0.00460000
vn -0.00000000 -0.00000000 1.00000000
vn -0.00000000 -0.00000000 1.00000000
vn -0.00000000 -0.00000000 1.00000000
vn -0.13050000 0.99140000 -0.00000000
vn -0.09810000 -0.99520000 -0.00000000
vn -0.48750000 -0.00000000 0.87310000
vn -0.48760000 -0.00000000 0.87310000
vn -0.36980000 -0.70680000 0.60300000
vn -0.38000000 -0.70230000 0.60190000
vn -0.00000000 -1.00000000 -0.00000000
vn -0.42950000 -0.70140000 0.56890000
vn -0.50410000 -0.00000000 0.86370000
vn -0.49490000 -0.69980000 0.51520000
vn -0.00000000 -1.00000000 -0.00000000
vn -0.00000000 -1.00000000 -0.00000000
vn -0.60700000 -0.69560000 0.38430000
vn -0.67380000 -0.00140000 0.73890000
vn -0.56720000 -0.70250000 0.42980000
vn -0.49990000 -0.70700000 0.50020000
vn -0.57990000 -0.00000000 0.81470000
vn -0.66990000 -0.70360000 0.23690000
vn -0.86500000 -0.00000000 0.50180000
vn -0.68300000 -0.66070000 0.31140000
vn -0.79800000 -0.00000000 0.60260000
vn -0.60680000 -0.70700000 0.36320000
vn -0.73390000 -0.00110000 0.67930000
vn -0.65130000 -0.71470000 0.25490000
vn -0.00000000 -1.00000000 -0.00000000
vn -0.54430000 -0.00000000 0.83890000
vn -0.38420000 -0.70640000 0.59450000
vn -0.38660000 -0.70630000 0.59310000
vn -0.00000000 -1.00000000 -0.00000000
vn -0.49460000 -0.70710000 0.50540000
vn -0.69950000 -0.00140000 0.71460000
vn -0.49460000 -0.70710000 0.50540000
vn -0.00000000 -1.00000000 -0.00000000
vn -0.60980000 -0.70710000 0.35790000
vn -0.86250000 -0.00090000 0.50600000
vn -0.00000000 -1.00000000 -0.00000000
vn -0.60980000 -0.70710000 0.35790000
vn -0.68240000 -0.70710000 0.18550000
vn -0.96500000 -0.00000000 0.26230000
vn -0.00000000 -1.00000000 -0.00000000
vn -0.68240000 -0.70710000 0.18550000
vn -0.70640000 -0.70640000 0.04560000
vn -0.99780000 -0.00000000 0.06630000
vn -0.70630000 -0.70630000 0.04840000
vn -0.00000000 -1.00000000 -0.00000000
vn -0.00000000 1.00000000 -0.00000000
vn -0.38000000 0.70230000 0.60190000
vn -0.48760000 -0.00000000 0.87310000
vn -0.48750000 -0.00000000 0.87310000
vn -0.36980000 0.70680000 0.60300000
vn -0.50410000 -0.00000000 0.86370000
vn -0.42950000 0.70140000 0.56890000
vn -0.00000000 1.00000000 -0.00000000
vn -0.49490000 0.69980000 0.51520000
vn -0.57990000 -0.00000000 0.81470000
vn -0.49990000 0.70700000 0.50020000
vn -0.69690000 -0.00000000 0.71720000
vn -0.57540000 0.70510000 0.41440000
vn -0.00000000 1.00000000 -0.00000000
vn -0.60490000 0.69640000 0.38620000
vn -0.79280000 0.00010000 0.60950000
vn -0.65760000 0.68450000 0.31460000
vn -0.67290000 0.69840000 0.24360000
vn -0.00000000 1.00000000 -0.00000000
vn -0.86160000 -0.00000000 0.50760000
vn -0.66850000 0.70980000 0.22220000
vn -0.54160000 0.00470000 0.84060000
vn -0.38420000 0.70640000 0.59450000
vn -0.38660000 0.70630000 0.59310000
vn -0.00000000 1.00000000 -0.00000000
vn -0.70630000 0.70630000 0.04840000
vn -0.00000000 1.00000000 -0.00000000
vn -0.99780000 -0.00000000 0.06630000
vn -0.70640000 0.70630000 0.04560000
vn -0.96500000 -0.00000000 0.26230000
vn -0.68240000 0.70710000 0.18550000
vn -0.68240000 0.70710000 0.18550000
vn -0.00000000 1.00000000 -0.00000000
vn -0.60980000 0.70710000 0.35790000
vn -0.86350000 0.00330000 0.50430000
vn -0.00000000 1.00000000 -0.00000000
vn -0.60980000 0.70710000 0.35790000
vn -0.70020000 0.00810000 0.71390000
vn -0.49460000 0.70710000 0.50540000
vn -0.49460000 0.70710000 0.50540000
vn -0.00000000 1.00000000 -0.00000000
vn -0.48740000 -0.00000000 0.87320000
vn -0.98090000 -0.19450000 0.00020000
vn -0.94590000 -0.32430000 -0.00000000
vn -0.48760000 -0.00000000 0.87310000
vn 0.62280000 -0.78240000 0.00060000
vn -0.52210000 -0.00000000 0.85290000
vn -0.48730000 -0.00000000 0.87320000
vn 0.56520000 -0.82490000 -0.00000000
vn -0.78040000 -0.62530000 -0.00000000
vn -0.48770000 0.00010000 0.87300000
vn -0.84010000 -0.54240000 0.00620000
vn -0.48780000 0.00010000 0.87300000
vn -0.48750000 -0.00000000 0.87310000
vn -0.89580000 -0.44440000 0.00500000
vn -0.33510000 -0.94220000 -0.00000000
vn -0.48760000 -0.00000000 0.87310000
vn -0.48750000 -0.00000000 0.87310000
vn -0.48750000 -0.00000000 0.87310000
vn -0.46880000 -0.88330000 0.00040000
vn -0.48750000 -0.00000000 0.87310000
vn -0.57850000 -0.81570000 -0.00000000
vn -0.48740000 -0.00000000 0.87320000
vn -0.68700000 -0.72670000 0.00020000
vn -0.48750000 -0.00000000 0.87310000
vn -0.48750000 -0.00000000 0.87310000
vn 0.45870000 -0.88860000 0.00060000
vn 0.33730000 -0.94140000 -0.00000000
vn -0.48760000 -0.00000000 0.87310000
vn -0.48760000 -0.00000000 0.87310000
vn 0.21200000 -0.97730000 0.00280000
vn -0.48750000 0.00010000 0.87310000
vn 0.07520000 -0.99720000 0.00160000
vn -0.48750000 -0.00000000 0.87310000
vn -0.05820000 -0.99830000 -0.00000000
vn -0.05830000 -0.99830000 -0.00000000
vn -0.48750000 -0.00000000 0.87310000
vn -0.20290000 -0.97920000 0.00040000
vn -0.48760000 -0.00000000 0.87310000
vn -0.60520000 0.00320000 0.79600000
vn 0.70080000 -0.71330000 0.00180000
vn 0.78740000 -0.61640000 -0.00000000
vn -0.66970000 0.00090000 0.74260000
vn 0.98570000 -0.16830000 0.00120000
vn -0.83440000 0.00100000 0.55120000
vn 0.94810000 -0.31800000 -0.00000000
vn -0.80970000 0.00370000 0.58680000
vn 0.89520000 -0.44560000 0.00400000
vn -0.77370000 0.00650000 0.63350000
vn 0.84510000 -0.53470000 0.00180000
vn -0.71730000 -0.00000000 0.69680000
f 1//1 2//2 4//4
f 1//1 4//4 6//6
f 6//6 4//4 8//8
f 6//6 8//8 9//9
f 9//9 8//8 11//11
f 9//9 11//11 12//12
f 12//12 11//11 13//13
f 12//12 13//13 15//15
f 15//15 13//13 16//16
f 15//15 16//16 18//18
f 18//18 16//16 20//20
f 18//18 20//20 21//21
f 21//21 20//20 22//22
f 21//21 22//22 24//24
f 24//24 22//22 26//26
f 24//24 26//26 27//27
f 28//28 25//25 23//23
f 28//28 23//23 31//31
f 31//31 23//23 19//19
f 31//31 19//19 33//33
f 33//33 19//19 17//17
f 33//33 17//17 35//35
f 35//35 17//17 14//14
f 35//35 14//14 36//36
f 36//36 14//14 10//10
f 36//36 10//10 38//38
f 38//38 10//10 7//7
f 38//38 7//7 40//40
f 40//40 7//7 5//5
f 40//40 5//5 42//42
f 42//42 5//5 3//3
f 42//42 3//3 45//45
f 46//46 29//29 43//43
f 43//43 29//29 30//30
f 34//34 37//37 39//39
f 49//49 51//51 52//52
f 52//52 51//51 43//43
f 52//52 43//43 44//44
f 54//54 46//46 56//56
f 56//56 46//46 43//43
f 56//56 43//43 58//58
f 58//58 43//43 51//51
f 30//30 32//32 43//43
f 43//43 32//32 34//34
f 43//43 34//34 41//41
f 41//41 34//34 39//39
f 83//83 80//80 81//81
f 83//83 81//81 85//85
f 85//85 81//81 76//76
f 85//85 76//76 88//88
f 88//88 76//76 77//77
f 88//88 77//77 90//90
f 90//90 77//77 78//78
f 90//90 78//78 91//91
f 91//91 78//78 79//79
f 91//91 79//79 94//94
f 94//94 79//79 82//82
f 94//94 82//82 95//95
f 95//95 82//82 73//73
f 95//95 73//73 98//98
f 98//98 73//73 74//74
f 98//98 74//74 100//100
f 101//101 84//84 86//86
f 101//101 86//86 103//103
f 103//103 86//86 87//87
f 103//103 87//87 105//105
f 105//105 87//87 89//89
f 105//105 89//89 107//107
f 107//107 89//89 92//92
f 107//107 92//92 109//109
f 109//109 92//92 93//93
f 109//109 93//93 111//111
f 111//111 93//93 96//96
f 111//111 96//96 114//114
f 114//114 96//96 97//97
f 114//114 97//97 116//116
f 116//116 97//97 99//99
f 116//116 99//99 118//118
f 115//115 117//117 113//113
f 113//113 117//117 102//102
f 102//102 117//117 120//120
f 120//120 117//117 122//122
f 120//120 122//122 124//124
f 102//102 104//104 106//106
f 126//126 128//128 129//129
f 129//129 128//128 120//120
f 129//129 120//120 131//131
f 131//131 120//120 124//124
f 112//112 113//113 110//110
f 110//110 113//113 102//102
f 110//110 102//102 108//108
f 108//108 102//102 106//106
f 133//133 135//135 137//137
f 139//139 135//135 133//133
f 133//133 141//141 143//143
f 146//146 141//141 133//133
f 133//133 149//149 150//150
f 153//153 149//149 133//133
f 155//155 153//153 133//133
f 143//143 155//155 133//133
f 137//137 146//146 133//133
f 152//152 148//148 160//160
f 160//160 148//148 154//154
f 160//160 154//154 158//158
f 158//158 144//144 164//164
f 164//164 144//144 142//142
f 164//164 142//142 147//147
f 147//147 136//136 165//165
f 165//165 136//136 134//134
f 165//165 134//134 140//140
f 140//140 169//169 170//170
f 170//170 169//169 173//173
f 170//170 173//173 178//178
f 178//178 180//180 183//183
f 183//183 180//180 185//185
f 183//183 185//185 186//186
f 186//186 190//190 193//193
f 193//193 190//190 195//195
f 193//193 195//195 152//152
f 162//162 199//199 156//156
f 156//156 199//199 202//202
f 157//157 200//200 159//159
f 161//161 203//203 151//151
f 151//151 203//203 204//204
f 151//151 204//204 192//192
f 194//194 207//207 187//187
f 188//188 206//206 209//209
f 188//188 209//209 182//182
f 181//181 210//210 177//177
f 177//177 210//210 212//212
f 175//175 213//213 172//172
f 171//171 214//214 138//138
f 138//138 214//214 215//215
f 138//138 215//215 167//167
f 166//166 216//216 145//145
f 145//145 216//216 197//197
f 145//145 197//197 163//163
f 218//218 219//219 220//220
f 221//221 222//222 223//223
f 224//224 225//225 226//226
f 227//227 228//228 229//229
f 230//230 231//231 232//232
f 231//231 233//233 234//234
f 235//235 236//236 237//237
f 233//233 238//238 239//239
f 240//240 241//241 242//242
f 242//242 241//241 243//243
f 242//242 243//243 244//244
f 233//233 239//239 234//234
f 234//234 239//239 245//245
f 234//234 245//245 246//246
f 246//246 245//245 247//247
f 246//246 247//247 248//248
f 248//248 247//247 249//249
f 248//248 249//249 250//250
f 231//231 234//234 232//232
f 232//232 234//234 246//246
f 232//232 246//246 251//251
f 251//251 246//246 248//248
f 251//251 248//248 252//252
f 252//252 248//248 250//250
f 252//252 250//250 253//253
f 254//254 255//255 256//256
f 256//256 255//255 257//257
f 256//256 257//257 258//258
f 258//258 257//257 259//259
f 258//258 259//259 220//220
f 255//255 236//236 257//257
f 257//257 236//236 235//235
f 257//257 235//235 259//259
f 259//259 235//235 260//260
f 229//229 261//261 240//240
f 240//240 261//261 262//262
f 240//240 262//262 241//241
f 230//230 232//232 263//263
f 263//263 232//232 251//251
f 263//263 251//251 264//264
f 264//264 251//251 252//252
f 264//264 252//252 265//265
f 265//265 252//252 253//253
f 265//265 253//253 266//266
f 237//237 267//267 235//235
f 235//235 267//267 268//268
f 235//235 268//268 260//260
f 260//260 268//268 269//269
f 260//260 269//269 270//270
f 220//220 259//259 271//271
f 271//271 259//259 260//260
f 271//271 260//260 272//272
f 272//272 260//260 270//270
f 272//272 270//270 273//273
f 228//228 274//274 229//229
f 229//229 274//274 275//275
f 229//229 275//275 261//261
f 244//244 276//276 242//242
f 242//242 276//276 277//277
f 242//242 277//277 240//240
f 240//240 277//277 278//278
f 240//240 278//278 229//229
f 229//229 278//278 226//226
f 229//229 226//226 227//227
f 227//227 226//226 225//225
f 279//279 224//224 280//280
f 280//280 224//224 226//226
f 280//280 226//226 281//281
f 281//281 226//226 278//278
f 281//281 278//278 282//282
f 282//282 278//278 277//277
f 282//282 277//277 283//283
f 283//283 277//277 276//276
f 283//283 238//238 282//282
f 282//282 238//238 233//233
f 282//282 233//233 281//281
f 281//281 233//233 231//231
f 281//281 231//231 280//280
f 280//280 231//231 230//230
f 280//280 230//230 279//279
f 279//279 230//230 284//284
f 285//285 286//286 266//266
f 266//266 286//286 287//287
f 266//266 287//287 265//265
f 265//265 287//287 288//288
f 265//265 288//288 264//264
f 264//264 288//288 289//289
f 264//264 289//289 263//263
f 263//263 289//289 290//290
f 263//263 290//290 230//230
f 230//230 290//290 291//291
f 230//230 291//291 284//284
f 249//249 292//292 250//250
f 250//250 292//292 293//293
f 250//250 293//293 253//253
f 253//253 293//293 294//294
f 253//253 294//294 266//266
f 266//266 294//294 223//223
f 266//266 223//223 285//285
f 285//285 223//223 222//222
f 295//295 221//221 296//296
f 296//296 221//221 223//223
f 296//296 223//223 297//297
f 297//297 223//223 294//294
f 297//297 294//294 298//298
f 298//298 294//294 293//293
f 298//298 293//293 299//299
f 299//299 293//293 292//292
f 299//299 254//254 298//298
f 298//298 254//254 256//256
f 298//298 256//256 297//297
f 297//297 256//256 258//258
f 297//297 258//258 296//296
f 296//296 258//258 220//220
f 296//296 220//220 295//295
f 295//295 220//220 219//219
f 218//218 220//220 300//300
f 300//300 220//220 271//271
f 300//300 271//271 301//301
f 301//301 271//271 272//272
f 301//301 272//272 302//302
f 302//302 272//272 273//273
f 302//302 273//273 303//303
f 274//274 228//228 319//319
f 319//319 228//228 318//318
f 224//224 317//317 225//225
f 225//225 317//317 318//318
f 225//225 318//318 227//227
f 227//227 318//318 228//228
f 224//224 279//279 317//317
f 317//317 279//279 284//284
f 317//317 284//284 316//316
f 284//284 291//291 316//316
f 316//316 291//291 290//290
f 316//316 290//290 315//315
f 290//290 289//289 315//315
f 315//315 289//289 288//288
f 315//315 288//288 314//314
f 288//288 287//287 314//314
f 314//314 287//287 286//286
f 314//314 286//286 313//313
f 221//221 312//312 222//222
f 222//222 312//312 313//313
f 222//222 313//313 285//285
f 285//285 313//313 286//286
f 221//221 295//295 312//312
f 312//312 295//295 219//219
f 312//312 219//219 311//311
f 219//219 218//218 311//311
f 311//311 218//218 300//300
f 311//311 300//300 310//310
f 303//303 309//309 302//302
f 302//302 309//309 310//310
f 302//302 310//310 301//301
f 301//301 310//310 300//300
f 245//245 239//239 208//208
f 208//208 239//239 211//211
f 211//211 239//239 238//238
f 211//211 238//238 283//283
f 292//292 249//249 208//208
f 208//208 249//249 247//247
f 208//208 247//247 245//245
f 324//324 325//325 217//217
f 217//217 325//325 326//326
f 217//217 326//326 327//327
f 292//292 208//208 299//299
f 299//299 208//208 205//205
f 299//299 205//205 254//254
f 201//201 328//328 329//329
f 330//330 331//331 201//201
f 201//201 331//331 332//332
f 201//201 332//332 328//328
f 333//333 334//334 198//198
f 198//198 334//334 335//335
f 198//198 335//335 336//336
f 329//329 237//237 201//201
f 201//201 237//237 236//236
f 201//201 236//236 205//205
f 205//205 236//236 255//255
f 205//205 255//255 254//254
f 336//336 337//337 198//198
f 198//198 337//337 338//338
f 198//198 338//338 201//201
f 201//201 338//338 339//339
f 201//201 339//339 330//330
f 327//327 340//340 217//217
f 217//217 340//340 341//341
f 217//217 341//341 198//198
f 198//198 341//341 342//342
f 198//198 342//342 333//333
f 283//283 276//276 211//211
f 211//211 276//276 244//244
f 211//211 244//244 217//217
f 217//217 244//244 243//243
f 217//217 243//243 324//324
f 360//360 352//352 353//353
f 360//360 353//353 362//362
f 362//362 353//353 354//354
f 362//362 354//354 364//364
f 364//364 354//354 350//350
f 364//364 350//350 366//366
f 366//366 350//350 351//351
f 366//366 351//351 367//367
f 367//367 351//351 343//343
f 367//367 343//343 370//370
f 370//370 343//343 344//344
f 370//370 344//344 372//372
f 372//372 344//344 345//345
f 372//372 345//345 374//374
f 374//374 345//345 346//346
f 374//374 346//346 376//376
f 378//378 359//359 361//361
f 378//378 361//361 380//380
f 380//380 361//361 363//363
f 380//380 363//363 381//381
f 381//381 363//363 365//365
f 381//381 365//365 383//383
f 383//383 365//365 368//368
f 383//383 368//368 386//386
f 386//386 368//368 369//369
f 386//386 369//369 388//388
f 388//388 369//369 371//371
f 388//388 371//371 390//390
f 390//390 371//371 373//373
f 390//390 373//373 392//392
f 392//392 373//373 375//375
f 392//392 375//375 394//394
f 389//389 391//391 393//393
f 382//382 384//384 385//385
f 393//393 395//395 398//398
f 399//399 377//377 393//393
f 393//393 377//377 379//379
f 393//393 379//379 382//382
f 382//382 385//385 393//393
f 393//393 385//385 387//387
f 393//393 387//387 389//389
f 401//401 399//399 403//403
f 403//403 399//399 393//393
f 403//403 393//393 406//406
f 406//406 393//393 398//398
f 406//406 398//398 408//408
f 425//425 428//428 429//429
f 429//429 428//428 432//432
f 429//429 432//432 433//433
f 425//425 435//435 438//438
f 439//439 441//441 444//444
f 445//445 428//428 447//447
f 447//447 428//428 425//425
f 447//447 425//425 449//449
f 449//449 425//425 438//438
f 449//449 438//438 452//452
f 428//428 454//454 432//432
f 432//432 454//454 439//439
f 432//432 439//439 456//456
f 456//456 439//439 444//444
f 446//446 457//457 460//460
f 446//446 460//460 427//427
f 427//427 460//460 461//461
f 427//427 461//461 453//453
f 453//453 461//461 463//463
f 453//453 463//463 440//440
f 440//440 463//463 466//466
f 440//440 466//466 442//442
f 442//442 466//466 468//468
f 442//442 468//468 443//443
f 443//443 468//468 469//469
f 443//443 469//469 455//455
f 455//455 469//469 472//472
f 455//455 472//472 431//431
f 431//431 472//472 474//474
f 431//431 474//474 434//434
f 412//412 473//473 471//471
f 412//412 471//471 411//411
f 411//411 471//471 470//470
f 411//411 470//470 410//410
f 410//410 470//470 467//467
f 410//410 467//467 409//409
f 409//409 467//467 465//465
f 409//409 465//465 415//415
f 415//415 465//465 464//464
f 415//415 464//464 414//414
f 414//414 464//464 462//462
f 414//414 462//462 413//413
f 413//413 462//462 459//459
f 413//413 459//459 417//417
f 417//417 459//459 458//458
f 417//417 458//458 416//416
f 416//416 458//458 484//484
f 416//416 484//484 420//420
f 420//420 484//484 485//485
f 420//420 485//485 419//419
f 419//419 485//485 488//488
f 419//419 488//488 418//418
f 418//418 488//488 489//489
f 418//418 489//489 424//424
f 424//424 489//489 492//492
f 424//424 492//492 423//423
f 423//423 492//492 493//493
f 423//423 493//493 422//422
f 422//422 493//493 495//495
f 422//422 495//495 421//421
f 421//421 495//495 473//473
f 421//421 473//473 412//412
f 434//434 474//474 496//496
f 434//434 496//496 430//430
f 430//430 496//496 494//494
f 430//430 494//494 426//426
f 426//426 494//494 491//491
f 426//426 491//491 436//436
f 436//436 491//491 490//490
f 436//436 490//490 437//437
f 437//437 490//490 487//487
f 437//437 487//487 451//451
f 451//451 487//487 486//486
f 451//451 486//486 450//450
f 450//450 486//486 483//483
f 450//450 483//483 448//448
f 448//448 483//483 457//457
f 448//448 457//457 446//446
f 394//394 375//375 498//498
f 394//394 498//498 396//396
f 396//396 498//498 500//500
f 396//396 500//500 397//397
f 397//397 500//500 502//502
f 397//397 502//502 407//407
f 407//407 502//502 504//504
f 407//407 504//504 405//405
f 405//405 504//504 505//505
f 405//405 505//505 404//404
f 404//404 505//505 508//508
f 404//404 508//508 402//402
f 402//402 508//508 510//510
f 402//402 510//510 400//400
f 400//400 510//510 359//359
f 400//400 359//359 378//378
f 376//376 346//346 347//347
f 376//376 347//347 497//497
f 497//497 347//347 348//348
f 497//497 348//348 499//499
f 499//499 348//348 349//349
f 499//499 349//349 501//501
f 501//501 349//349 358//358
f 501//501 358//358 503//503
f 503//503 358//358 355//355
f 503//503 355//355 506//506
f 506//506 355//355 356//356
f 506//506 356//356 507//507
f 507//507 356//356 357//357
f 507//507 357//357 509//509
f 509//509 357//357 352//352
f 509//509 352//352 360//360
f 309//309 303//303 511//511
f 309//309 511//511 308//308
f 511//511 512//512 308//308
f 308//308 512//512 513//513
f 308//308 513//513 307//307
f 513//513 514//514 307//307
f 307//307 514//514 515//515
f 307//307 515//515 306//306
f 515//515 516//516 306//306
f 306//306 516//516 517//517
f 306//306 517//517 305//305
f 517//517 518//518 305//305
f 305//305 518//518 519//519
f 305//305 519//519 304//304
f 519//519 520//520 304//304
f 304//304 520//520 521//521
f 304//304 521//521 323//323
f 521//521 522//522 323//323
f 323//323 522//522 523//523
f 323//323 523//523 322//322
f 523//523 524//524 322//322
f 322//322 524//524 525//525
f 322//322 525//525 321//321
f 525//525 526//526 321//321
f 321//321 526//526 527//527
f 321//321 527//527 320//320
f 274//274 319//319 528//528
f 528//528 319//319 320//320
f 528//528 320//320 529//529
f 529//529 320//320 527//527
f 269//269 268//268 530//530
f 530//530 268//268 267//267
f 273//273 270//270 531//531
f 531//531 270//270 269//269
f 511//511 303//303 273//273
f 243//243 532//532 324//324
f 324//324 532//532 534//534
f 324//324 534//534 325//325
f 325//325 534//534 536//536
f 325//325 536//536 326//326
f 326//326 536//536 537//537
f 326//326 537//537 327//327
f 327//327 537//537 540//540
f 327//327 540//540 340//340
f 340//340 540//540 541//541
f 340//340 541//541 341//341
f 341//341 541//541 544//544
f 341//341 544//544 342//342
f 342//342 544//544 545//545
f 342//342 545//545 333//333
f 333//333 545//545 548//548
f 333//333 548//548 334//334
f 334//334 548//548 549//549
f 334//334 549//549 335//335
f 335//335 549//549 552//552
f 335//335 552//552 336//336
f 336//336 552//552 554//554
f 336//336 554//554 337//337
f 337//337 554//554 556//556
f 337//337 556//556 338//338
f 338//338 556//556 557//557
f 338//338 557//557 339//339
f 339//339 557//557 560//560
f 339//339 560//560 330//330
f 330//330 560//560 561//561
f 330//330 561//561 331//331
f 331//331 561//561 563//563
f 331//331 563//563 332//332
f 332//332 563//563 566//566
f 332//332 566//566 328//328
f 328//328 566//566 530//530
f 328//328 530//530 329//329
f 329//329 530//530 267//267
f 329//329 267//267 237//237
f 269//269 530//530 531//531
f 531//531 530//530 565//565
f 531//531 565//565 567//567
f 567//567 565//565 564//564
f 567//567 564//564 568//568
f 568//568 564//564 562//562
f 568//568 562//562 569//569
f 569//569 562//562 559//559
f 569//569 559//559 570//570
f 570//570 559//559 558//558
f 570//570 558//558 571//571
f 571//571 558//558 555//555
f 571//571 555//555 572//572
f 572//572 555//555 553//553
f 572//572 553//553 573//573
f 573//573 553//553 551//551
f 573//573 551//551 574//574
f 574//574 551//551 550//550
f 574//574 550//550 575//575
f 575//575 550//550 547//547
f 575//575 547//547 576//576
f 576//576 547//547 546//546
f 576//576 546//546 577//577
f 577//577 546//546 543//543
f 577//577 543//543 578//578
f 578//578 543//543 542//542
f 578//578 542//542 579//579
f 579//579 542//542 539//539
f 579//579 539//539 580//580
f 580//580 539//539 538//538
f 580//580 538//538 581//581
f 581//581 538//538 535//535
f 581//581 535//535 582//582
f 582//582 535//535 533//533
f 582//582 533//533 583//583
f 583//583 533//533 532//532
f 583//583 532//532 584//584
f 243//243 241//241 532//532
f 532//532 241//241 262//262
f 532//532 262//262 584//584
f 584//584 262//262 261//261
f 584//584 261//261 275//275
f 273//273 531//531 511//511
f 511//511 531//531 567//567
f 511//511 567//567 512//512
f 512//512 567//567 568//568
f 512//512 568//568 513//513
f 513//513 568//568 569//569
f 513//513 569//569 514//514
f 514//514 569//569 570//570
f 514//514 570//570 515//515
f 515//515 570//570 571//571
f 515//515 571//571 516//516
f 516//516 571//571 572//572
f 516//516 572//572 517//517
f 517//517 572//572 573//573
f 517//517 573//573 518//518
f 518//518 573//573 574//574
f 518//518 574//574 519//519
f 519//519 574//574 575//575
f 519//519 575//575 520//520
f 520//520 575//575 576//576
f 520//520 576//576 521//521
f 521//521 576//576 577//577
f 521//521 577//577 522//522
f 522//522 577//577 578//578
f 522//522 578//578 523//523
f 523//523 578//578 579//579
f 523//523 579//579 524//524
f 524//524 579//579 580//580
f 524//524 580//580 525//525
f 525//525 580//580 581//581
f 525//525 581//581 526//526
f 526//526 581//581 582//582
f 526//526 582//582 527//527
f 527//527 582//582 583//583
f 527//527 583//583 529//529
f 529//529 583//583 584//584
f 529//529 584//584 528//528
f 528//528 584//584 275//275
f 528//528 275//275 274//274
f 133//133 196//196 191//191
f 150//150 196//196 133//133
f 133//133 184//184 179//179
f 189//189 184//184 133//133
f 133//133 168//168 139//139
f 174//174 168//168 133//133
f 176//176 174//174 133//133
f 179//179 176//176 133//133
f 191//191 189//189 133//133
f 118//118 99//99 585//585
f 118//118 585//585 121//121
f 121//121 585//585 588//588
f 121//121 588//588 123//123
f 123//123 588//588 589//589
f 123//123 589//589 132//132
f 132//132 589//589 592//592
f 132//132 592//592 130//130
f 130//130 592//592 593//593
f 130//130 593//593 125//125
f 125//125 593//593 596//596
f 125//125 596//596 127//127
f 127//127 596//596 597//597
f 127//127 597//597 119//119
f 119//119 597//597 84//84
f 119//119 84//84 101//101
f 100//100 74//74 75//75
f 100//100 75//75 586//586
f 586//586 75//75 70//70
f 586//586 70//70 587//587
f 587//587 70//70 71//71
f 587//587 71//71 590//590
f 590//590 71//71 72//72
f 590//590 72//72 591//591
f 591//591 72//72 67//67
f 591//591 67//67 594//594
f 594//594 67//67 68//68
f 594//594 68//68 595//595
f 595//595 68//68 69//69
f 595//595 69//69 598//598
f 598//598 69//69 80//80
f 598//598 80//80 83//83
f 45//45 3//3 599//599
f 45//45 599//599 53//53
f 53//53 599//599 602//602
f 53//53 602//602 48//48
f 48//48 602//602 603//603
f 48//48 603//603 50//50
f 50//50 603//603 605//605
f 50//50 605//605 59//59
f 59//59 605//605 607//607
f 59//59 607//607 57//57
f 57//57 607//607 610//610
f 57//57 610//610 55//55
f 55//55 610//610 611//611
f 55//55 611//611 47//47
f 47//47 611//611 25//25
f 47//47 25//25 28//28
f 27//27 26//26 612//612
f 27//27 612//612 66//66
f 66//66 612//612 609//609
f 66//66 609//609 63//63
f 63//63 609//609 608//608
f 63//63 608//608 62//62
f 62//62 608//608 606//606
f 62//62 606//606 61//61
f 61//61 606//606 604//604
f 61//61 604//604 60//60
f 60//60 604//604 601//601
f 60//60 601//601 65//65
f 65//65 601//601 600//600
f 65//65 600//600 64//64
f 64//64 600//600 2//2
f 64//64 2//2 1//1
f 613//613 616//616 617//617
f 617//617 616//616 619//619
f 621//621 623//623 619//619
f 619//619 623//623 626//626
f 619//619 626//626 617//617
f 628//628 631//631 635//635
f 634//634 631//631 636//636
f 634//634 636//636 621//621
f 621//621 636//636 638//638
f 621//621 638//638 623//623
f 628//628 635//635 641//641
f 641//641 635//635 644//644
f 641//641 644//644 646//646
f 646//646 644//644 649//649
f 649//649 644//644 650//650
f 649//649 650//650 653//653
f 654//654 656//656 659//659
f 659//659 660//660 654//654
f 654//654 660//660 662//662
f 654//654 662//662 650//650
f 650//650 662//662 664//664
f 650//650 664//664 653//653
f 666//666 668//668 671//671
f 671//671 668//668 672//672
f 671//671 672//672 656//656
f 656//656 672//672 674//674
f 656//656 674//674 659//659
f 676//676 679//679 681//681
f 681//681 683//683 676//676
f 676//676 683//683 684//684
f 676//676 684//684 671//671
f 671//671 684//684 686//686
f 671//671 686//686 666//666
f 688//688 689//689 691//691
f 691//691 689//689 693//693
f 691//691 693//693 694//694
f 694//694 693//693 696//696
f 694//694 696//696 697//697
f 697//697 696//696 678//678
f 697//697 678//678 698//698
f 698//698 678//678 677//677
f 698//698 677//677 699//699
f 700//700 633//633 701//701
f 701//701 633//633 622//622
f 701//701 622//622 702//702
f 702//702 622//622 620//620
f 702//702 620//620 703//703
f 703//703 620//620 615//615
f 703//703 615//615 704//704
f 615//615 706//706 704//704
f 704//704 706//706 708//708
f 704//704 708//708 709//709
f 709//709 708//708 710//710
f 709//709 710//710 712//712
f 712//712 710//710 714//714
f 712//712 714//714 715//715
f 715//715 714//714 717//717
f 715//715 717//717 688//688
f 688//688 717//717 720//720
f 688//688 720//720 689//689
f 677//677 670//670 699//699
f 699//699 670//670 657//657
f 699//699 657//657 721//721
f 721//721 657//657 655//655
f 721//721 655//655 722//722
f 722//722 655//655 651//651
f 722//722 651//651 700//700
f 700//700 651//651 643//643
f 700//700 643//643 633//633
f 727//727 728//728 730//730
f 730//730 728//728 732//732
f 735//735 737//737 732//732
f 732//732 737//737 738//738
f 732//732 738//738 730//730
f 740//740 742//742 735//735
f 735//735 742//742 744//744
f 735//735 744//744 737//737
f 735//735 746//746 740//740
f 727//727 749//749 728//728
f 728//728 749//749 750//750
f 750//750 749//749 752//752
f 750//750 752//752 754//754
f 754//754 752//752 756//756
f 754//754 756//756 759//759
f 759//759 756//756 760//760
f 759//759 760//760 763//763
f 763//763 760//760 764//764
f 763//763 764//764 766//766
f 766//766 764//764 482//482
f 482//482 764//764 479//479
f 769//769 772//772 774//774
f 769//769 774//774 776//776
f 774//774 778//778 776//776
f 776//776 778//778 780//780
f 776//776 780//780 782//782
f 782//782 780//780 784//784
f 782//782 784//784 785//785
f 785//785 784//784 788//788
f 790//790 772//772 791//791
f 791//791 772//772 769//769
f 793//793 796//796 798//798
f 793//793 798//798 799//799
f 799//799 798//798 801//801
f 799//799 801//801 804//804
f 804//804 801//801 806//806
f 804//804 806//806 807//807
f 807//807 806//806 790//790
f 807//807 790//790 791//791
f 478//478 476//476 793//793
f 793//793 476//476 796//796
f 743//743 741//741 783//783
f 783//783 741//741 787//787
f 773//773 731//731 777//777
f 777//777 731//731 739//739
f 777//777 739//739 779//779
f 779//779 739//739 736//736
f 779//779 736//736 783//783
f 783//783 736//736 745//745
f 783//783 745//745 743//743
f 658//658 675//675 748//748
f 618//618 731//731 614//614
f 614//614 731//731 773//773
f 614//614 773//773 809//809
f 809//809 773//773 812//812
f 618//618 625//625 731//731
f 731//731 625//625 624//624
f 731//731 624//624 639//639
f 789//789 814//814 815//815
f 818//818 820//820 773//773
f 773//773 820//820 821//821
f 773//773 821//821 812//812
f 825//825 826//826 771//771
f 771//771 826//826 828//828
f 771//771 828//828 773//773
f 773//773 830//830 832//832
f 773//773 832//832 818//818
f 665//665 663//663 748//748
f 748//748 663//663 661//661
f 748//748 661//661 658//658
f 639//639 637//637 731//731
f 731//731 637//637 630//630
f 731//731 630//630 725//725
f 726//726 632//632 629//629
f 725//725 627//627 640//640
f 815//815 833//833 789//789
f 789//789 833//833 836//836
f 789//789 836//836 837//837
f 837//837 839//839 789//789
f 789//789 839//839 841//841
f 789//789 841//841 771//771
f 771//771 841//841 844//844
f 770//770 846//846 824//824
f 642//642 647//647 726//726
f 725//725 645//645 648//648
f 725//725 648//648 748//748
f 748//748 648//648 652//652
f 748//748 652//652 665//665
f 814//814 789//789 847//847
f 847//847 789//789 805//805
f 847//847 805//805 850//850
f 685//685 682//682 757//757
f 757//757 682//682 680//680
f 802//802 680//680 852//852
f 852//852 854//854 802//802
f 802//802 854//854 856//856
f 802//802 856//856 805//805
f 805//805 856//856 858//858
f 805//805 858//858 850//850
f 748//748 675//675 753//753
f 753//753 675//675 673//673
f 673//673 669//669 753//753
f 753//753 669//669 667//667
f 753//753 667//667 757//757
f 757//757 667//667 687//687
f 757//757 687//687 685//685
f 680//680 802//802 757//757
f 757//757 802//802 797//797
f 757//757 797//797 761//761
f 761//761 797//797 795//795
f 761//761 795//795 765//765
f 768//768 775//775 723//723
f 775//775 781//781 723//723
f 723//723 781//781 786//786
f 477//477 794//794 723//723
f 723//723 794//794 800//800
f 723//723 800//800 803//803
f 803//803 808//808 723//723
f 723//723 808//808 792//792
f 723//723 792//792 768//768
f 767//767 481//481 724//724
f 724//724 747//747 734//734
f 724//724 734//734 733//733
f 733//733 729//729 724//724
f 724//724 729//729 751//751
f 724//724 751//751 755//755
f 755//755 758//758 724//724
f 724//724 758//758 762//762
f 724//724 762//762 767//767
f 765//765 795//795 480//480
f 480//480 795//795 475//475
f 681//681 679//679 851//851
f 851//851 679//679 695//695
f 851//851 695//695 853//853
f 853//853 695//695 855//855
f 855//855 695//695 692//692
f 855//855 692//692 857//857
f 816//816 813//813 690//690
f 690//690 813//813 848//848
f 690//690 848//848 692//692
f 692//692 848//848 849//849
f 692//692 849//849 857//857
f 816//816 690//690 834//834
f 834//834 690//690 719//719
f 834//834 719//719 835//835
f 835//835 719//719 838//838
f 838//838 719//719 718//718
f 838//838 718//718 840//840
f 713//713 845//845 716//716
f 716//716 845//845 842//842
f 718//718 843//843 840//840
f 711//711 827//827 713//713
f 713//713 827//827 823//823
f 713//713 823//823 845//845
f 707//707 831//831 711//711
f 711//711 831//831 829//829
f 711//711 829//829 827//827
f 811//811 822//822 705//705
f 705//705 822//822 819//819
f 705//705 819//819 707//707
f 707//707 819//819 817//817
f 707//707 817//817 831//831
f 811//811 705//705 810//810
f 810//810 705//705 616//616
f 810//810 616//616 613//613

