<?xml version="1.0" encoding="utf-8"?>
<COLLADA xmlns="http://www.collada.org/2005/11/COLLADASchema" version="1.4.1" xmlns:xsi="http://www.w3.org/2001/XMLSchema-instance">
  <asset>
    <contributor>
      <author>Blender User</author>
      <authoring_tool>Blender 3.5.1 commit date:2023-04-24, commit time:18:11, hash:e1ccd9d4a1d3</authoring_tool>
    </contributor>
    <created>2023-06-21T16:41:40</created>
    <modified>2023-06-21T16:41:40</modified>
    <unit name="meter" meter="1"/>
    <up_axis>Z_UP</up_axis>
  </asset>
  <library_effects>
    <effect id="DEFAULT_MTL_002-effect">
      <profile_COMMON>
        <technique sid="common">
          <lambert>
            <emission>
              <color sid="emission">0 0 0 1</color>
            </emission>
            <diffuse>
              <color sid="diffuse">0.1 0.1 0.1 1</color>
            </diffuse>
            <index_of_refraction>
              <float sid="ior">1.45</float>
            </index_of_refraction>
          </lambert>
        </technique>
      </profile_COMMON>
    </effect>
  </library_effects>
  <library_images/>
  <library_materials>
    <material id="DEFAULT_MTL_002-material" name="DEFAULT_MTL.002">
      <instance_effect url="#DEFAULT_MTL_002-effect"/>
    </material>
  </library_materials>
  <library_geometries>
    <geometry id="mtc_effector_side_001-mesh" name="mtc_effector_side.001">
      <mesh>
        <source id="mtc_effector_side_001-mesh-positions">
          <float_array id="mtc_effector_side_001-mesh-positions-array" count="738">-0.01582396 -0.01905 0.011684 -0.01582396 -0.01905 0.011684 -0.01582396 -0.01905 0.011684 -0.01603496 -0.01905494 0.011684 -0.01603496 -0.01905494 0.011684 -0.01624596 -0.01905697 0.011684 -0.01624596 -0.01905697 0.011684 -0.01624596 -0.01905697 0.011684 -0.02165597 -0.017847 0.011684 -0.02165597 -0.017847 0.011684 -0.02603495 -0.01444798 0.011684 -0.02603495 -0.01444798 0.011684 -0.02603495 -0.01444798 0.011684 -0.02603495 0.01444798 0.011684 -0.02603495 0.01444798 0.011684 -0.02603495 0.01444798 0.011684 -0.02143299 0.01905 0.011684 -0.02143299 0.01905 0.011684 -0.02143299 0.01905 0.011684 0.03583699 0.01905 0.011684 0.03583699 0.01905 0.011684 0.03583699 0.01905 0.011684 0.03650599 0.01885896 0.011684 0.03650599 0.01885896 0.011684 0.03697395 0.01834398 0.011684 0.03697395 0.01834398 0.011684 0.03697395 0.01834398 0.011684 0.03934496 0.01247495 0.011684 0.03934496 0.01247495 0.011684 0.04078996 0.006311953 0.011684 0.04078996 0.006311953 0.011684 0.04127496 0 0.011684 0.04127496 0 0.011684 0.04078996 -0.006311953 0.011684 0.04078996 -0.006311953 0.011684 0.03934496 -0.01247495 0.011684 0.03934496 -0.01247495 0.011684 0.03697395 -0.01834398 0.011684 0.03697395 -0.01834398 0.011684 0.03697395 -0.01834398 0.011684 0.03650599 -0.01885896 0.011684 0.03650599 -0.01885896 0.011684 0.03583699 -0.01905 0.011684 0.03583699 -0.01905 0.011684 0.03583699 -0.01905 0.011684 -0.01582396 -0.01905 0.004698991 -0.01582396 -0.01905 0.004698991 -0.01582396 -0.01905 0.004698991 0.03583699 -0.01905 0.004698991 0.03583699 -0.01905 0.004698991 0.03583699 -0.01905 0.004698991 -0.01084595 -0.02184396 0.004698991 -0.01084595 -0.02184396 0.004698991 -0.01084595 -0.02184396 0.004698991 -0.02187299 -0.01955795 0.004698991 -0.02187299 -0.01955795 0.004698991 -0.03174996 -0.01414799 0.004698991 -0.03174996 -0.01414799 0.004698991 -0.03174996 -0.01414799 0.004698991 -0.03174996 0.01414799 0.004698991 -0.03174996 0.01414799 0.004698991 -0.03174996 0.01414799 0.004698991 -0.021133 0.02476495 0.004698991 -0.021133 0.02476495 0.004698991 -0.021133 0.02476495 0.004698991 0.03301995 0.02476495 0.004698991 0.03301995 0.02476495 0.004698991 0.03301995 0.02476495 0.004698991 0.03514397 0.02164494 0.004698991 0.03514397 0.02164494 0.004698991 0.03697395 0.01834398 0.004698991 0.03697395 0.01834398 0.004698991 0.03697395 0.01834398 0.004698991 0.03650599 0.01885896 0.004698991 0.03650599 0.01885896 0.004698991 0.03583699 0.01905 0.004698991 0.03583699 0.01905 0.004698991 0.03583699 0.01905 0.004698991 -0.02143299 0.01905 0.004698991 -0.02143299 0.01905 0.004698991 -0.02143299 0.01905 0.004698991 -0.02603495 0.01444798 0.004698991 -0.02603495 0.01444798 0.004698991 -0.02603495 0.01444798 0.004698991 -0.02603495 -0.01444798 0.004698991 -0.02603495 -0.01444798 0.004698991 -0.02603495 -0.01444798 0.004698991 -0.02165597 -0.017847 0.004698991 -0.02165597 -0.017847 0.004698991 -0.01624596 -0.01905697 0.004698991 -0.01624596 -0.01905697 0.004698991 -0.01624596 -0.01905697 0.004698991 -0.01603496 -0.01905494 0.004698991 -0.01603496 -0.01905494 0.004698991 0.03650599 -0.01885896 0.004698991 0.03650599 -0.01885896 0.004698991 0.03697395 -0.01834398 0.004698991 0.03697395 -0.01834398 0.004698991 0.03697395 -0.01834398 0.004698991 0.03603994 -0.02011799 0.004698991 0.03603994 -0.02011799 0.004698991 0.03502094 -0.02184396 0.004698991 0.03502094 -0.02184396 0.004698991 0.03502094 -0.02184396 0.004698991 -0.01084595 -0.02184396 0 -0.01084595 -0.02184396 0 -0.01084595 -0.02184396 0 -0.02187299 -0.01955795 0 -0.02187299 -0.01955795 0 -0.03174996 -0.01414799 0 -0.03174996 -0.01414799 0 -0.03174996 -0.01414799 0 0.03502094 -0.02184396 0 0.03502094 -0.02184396 0 0.03502094 -0.02184396 0 0.03301995 0.02476495 0 0.03301995 0.02476495 0 0.03301995 0.02476495 0 0.03886795 0.01388895 0 0.03886795 0.01388895 0 0.04123699 0.001769959 0 0.04123699 0.001769959 0 0.03991496 -0.01050698 0 0.03991496 -0.01050698 0 -0.021133 0.02476495 0 -0.021133 0.02476495 0 -0.021133 0.02476495 0 -0.03174996 0.01414799 0 -0.03174996 0.01414799 0 -0.03174996 0.01414799 0 0 -0.03049999 0.02368396 0 -0.03049999 0.02368396 0 -0.03049999 0.02368396 -0.010432 -0.02866095 0.02368396 -0.010432 -0.02866095 0.02368396 -0.01960498 -0.02336394 0.02368396 -0.01960498 -0.02336394 0.02368396 -0.02641397 -0.01524996 0.02368396 -0.02641397 -0.01524996 0.02368396 -0.03003698 -0.005295991 0.02368396 -0.03003698 -0.005295991 0.02368396 -0.03003698 0.005295991 0.02368396 -0.03003698 0.005295991 0.02368396 -0.02641397 0.01524996 0.02368396 -0.02641397 0.01524996 0.02368396 -0.01960498 0.02336394 0.02368396 -0.01960498 0.02336394 0.02368396 -0.010432 0.02866095 0.02368396 -0.010432 0.02866095 0.02368396 0 0.03049999 0.02368396 0 0.03049999 0.02368396 0 0.03049999 0.02368396 0.010432 0.02866095 0.02368396 0.010432 0.02866095 0.02368396 0.01960498 0.02336394 0.02368396 0.01960498 0.02336394 0.02368396 0.02641397 0.01524996 0.02368396 0.02641397 0.01524996 0.02368396 0.03003698 0.005295991 0.02368396 0.03003698 0.005295991 0.02368396 0.03003698 -0.005295991 0.02368396 0.03003698 -0.005295991 0.02368396 0.02641397 -0.01524996 0.02368396 0.02641397 -0.01524996 0.02368396 0.01960498 -0.02336394 0.02368396 0.01960498 -0.02336394 0.02368396 0.010432 -0.02866095 0.02368396 0.010432 -0.02866095 0.02368396 0 -0.03149998 0.02268397 0 -0.03149998 0.02268397 0 -0.03149998 0.02268397 0 -0.03149998 0.02268397 -0.01077395 -0.02959996 0.02268397 -0.01077395 -0.02959996 0.02268397 -0.02024799 -0.02412998 0.02268397 -0.02024799 -0.02412998 0.02268397 -0.02727997 -0.01574999 0.02268397 -0.02727997 -0.01574999 0.02268397 -0.03102099 -0.005469977 0.02268397 -0.03102099 -0.005469977 0.02268397 -0.03102099 0.005469977 0.02268397 -0.03102099 0.005469977 0.02268397 -0.02727997 0.01574999 0.02268397 -0.02727997 0.01574999 0.02268397 -0.02024799 0.02412998 0.02268397 -0.02024799 0.02412998 0.02268397 -0.010773 0.02959996 0.02268397 -0.010773 0.02959996 0.02268397 0 0.03149998 0.02268397 0 0.03149998 0.02268397 0 0.03149998 0.02268397 0 0.03149998 0.02268397 0.01077395 0.02959996 0.02268397 0.01077395 0.02959996 0.02268397 0.02024799 0.02412998 0.02268397 0.02024799 0.02412998 0.02268397 0.02727997 0.01574999 0.02268397 0.02727997 0.01574999 0.02268397 0.03102099 0.005469977 0.02268397 0.03102099 0.005469977 0.02268397 0.03102099 -0.005469977 0.02268397 0.03102099 -0.005469977 0.02268397 0.02727997 -0.01574999 0.02268397 0.02727997 -0.01574999 0.02268397 0.02024799 -0.02412998 0.02268397 0.02024799 -0.02412998 0.02268397 0.010773 -0.02959996 0.02268397 0.010773 -0.02959996 0.02268397 0 0.03149998 0.011684 0 0.03149998 0.011684 0 0.03149998 0.011684 0.01077395 0.02959996 0.011684 0.01077395 0.02959996 0.011684 0.02024799 0.02412998 0.011684 0.02024799 0.02412998 0.011684 0.02727997 0.01574999 0.011684 0.02727997 0.01574999 0.011684 0.03102099 0.005469977 0.011684 0.03102099 0.005469977 0.011684 0.03102099 -0.005469977 0.011684 0.03102099 -0.005469977 0.011684 0.02727997 -0.01574999 0.011684 0.02727997 -0.01574999 0.011684 0.02024799 -0.02412998 0.011684 0.02024799 -0.02412998 0.011684 0.01077395 -0.02959996 0.011684 0.01077395 -0.02959996 0.011684 0 -0.03149998 0.011684 0 -0.03149998 0.011684 0 -0.03149998 0.011684 -0.01077395 -0.02959996 0.011684 -0.01077395 -0.02959996 0.011684 -0.02024799 -0.02412998 0.011684 -0.02024799 -0.02412998 0.011684 -0.02727997 -0.01574999 0.011684 -0.02727997 -0.01574999 0.011684 -0.03102099 -0.005469977 0.011684 -0.03102099 -0.005469977 0.011684 -0.03102099 0.005469977 0.011684 -0.03102099 0.005469977 0.011684 -0.02727997 0.01574999 0.011684 -0.02727997 0.01574999 0.011684 -0.02024799 0.02412998 0.011684 -0.02024799 0.02412998 0.011684 -0.01077395 0.02959996 0.011684 -0.01077395 0.02959996 0.011684</float_array>
          <technique_common>
            <accessor source="#mtc_effector_side_001-mesh-positions-array" count="246" stride="3">
              <param name="X" type="float"/>
              <param name="Y" type="float"/>
              <param name="Z" type="float"/>
            </accessor>
          </technique_common>
        </source>
        <source id="mtc_effector_side_001-mesh-normals">
          <float_array id="mtc_effector_side_001-mesh-normals-array" count="1077">6.99343e-6 0 1 0.03317487 -0.9994496 5.81173e-7 0.03317487 -0.9994496 -4.53427e-7 0.01659351 -0.9998623 -4.80242e-7 0 0 1 0 -1 0 -8.05332e-7 0 1 0.01657468 -0.9998627 4.20037e-7 0.01657468 -0.9998627 -3.38928e-7 -1.12085e-5 -1 -5.97589e-7 0.01659351 -0.9998624 3.38928e-7 0.03317481 -0.9994496 6.42496e-7 0.01659351 -0.9998624 -4.34415e-7 0 0 1 -1.59442e-6 -1 -2.48138e-6 -1.57952e-6 -1 -1.04268e-5 -0.426008 -0.9047195 1.40592e-5 0.0165748 -0.9998626 4.46686e-7 -1.11125e-5 -1 -5.61937e-7 -1.11125e-5 -1 4.53427e-7 -2.30005e-7 0 1 -0.4260054 -0.9047207 -4.06768e-6 -0.4260055 -0.9047207 -1.04246e-5 -0.7708326 -0.6370378 1.74046e-5 -1.51992e-6 -1 -1.40816e-5 -0.4260079 -0.9047195 2.48138e-6 -0.4260079 -0.9047195 1.04268e-5 -1 0 0 -0.4260056 -0.9047207 -1.73971e-5 -0.7708327 -0.6370377 4.06943e-6 -0.7708327 -0.6370377 1.0429e-5 -0.7071071 0.7071066 0 -0.7071067 0.7071069 0 0 1 0 -1.02723e-6 0 1 1.06394e-5 1 1.34708e-5 1.0699e-5 1 -1.31141e-5 0.5270597 0.8498283 -1.70618e-6 -2.80741e-6 0 1 0.5270205 0.8498526 1.49107e-5 0.5270616 0.8498271 -1.31119e-5 0.8958168 0.4444237 -5.44451e-6 3.2975e-6 0 1 7.09295e-6 1 1.71177e-6 0.5270569 0.8498302 -1.34211e-5 0.5270159 0.8498554 1.30635e-5 0.8958109 0.4444354 2.4298e-7 0.8958109 0.4444354 -3.65595e-6 0.9532308 0.3022435 -5.28991e-7 0.5270127 0.8498575 5.465e-6 0.8958125 0.4444322 -1.48582e-5 0.8958125 0.4444324 9.17882e-5 7.97729e-7 0 1 0.9416906 0.3364803 -5.22565e-6 0.9532398 0.302215 -5.64475e-6 0.9882425 0.1528955 3.63588e-6 -8.07257e-7 0 1 0.9416878 0.3364883 7.26432e-7 0.8957979 0.444462 1.16043e-6 0.9532392 0.3022168 -2.49967e-6 0.9990798 0.04289019 -3.56697e-6 0.9882406 0.1529073 -4.6799e-6 1 7.69645e-6 -2.66172e-6 0.9990799 0.04288899 -9.23127e-6 0.9416884 0.3364863 -7.7486e-7 0.988237 0.15293 -1.68141e-5 0.9990793 0.0429033 3.84636e-6 1 -1.66752e-5 1.21072e-6 0.9882414 -0.1529017 -5.07943e-6 0.9670544 -0.2545699 -6.07269e-6 0.9882406 -0.1529067 1.39698e-7 0.9532294 -0.3022477 -2.43075e-7 0.9670547 -0.2545685 1.25207e-5 0.9990793 0.04290246 9.81241e-6 0.9882417 -0.1529002 -1.73207e-5 0.96706 -0.2545484 -9.30019e-6 0.9532365 -0.3022256 2.12342e-6 0.895805 -0.4444474 -4.75347e-6 0.8958125 -0.4444323 1.48582e-5 0.8958124 -0.4444324 -1.30679e-5 0.5270127 -0.8498575 -5.46128e-6 0.9670605 -0.2545468 -5.80028e-6 0.8958119 -0.4444335 -4.24877e-6 0.8958119 -0.4444335 4.08292e-6 0.5270569 -0.8498302 1.34211e-5 0.5270159 -0.8498554 -1.30635e-5 7.12275e-6 -1 -1.71177e-6 0.8958168 -0.4444236 5.44824e-6 0.5270205 -0.8498526 -1.49107e-5 0.5270617 -0.8498271 1.31119e-5 0.5270597 -0.8498283 1.70618e-6 1.06096e-5 -1 -1.34708e-5 1.06692e-5 -1 1.31141e-5 -4.52775e-7 0 1 0 0 1 -0.05606305 -0.9984273 4.5157e-7 -0.05606311 -0.9984273 -7.05953e-6 -0.3455108 -0.9384149 1.20625e-5 3.03752e-6 0 1 -0.3454658 -0.9384315 6.27936e-7 -0.3455107 -0.9384149 -7.05953e-6 -0.604729 -0.7964314 1.17607e-5 -0.3454658 -0.9384313 7.05953e-6 -0.05606311 -0.9984272 -1.2055e-5 -0.3455109 -0.9384148 -4.51715e-7 -0.6047288 -0.7964315 7.05953e-6 -0.3454654 -0.9384316 -1.17682e-5 -0.6047288 -0.7964315 -6.27735e-7 -0.7071068 0.7071068 0 0 0 1 -5.43043e-7 0 1 0.80001 0.5999867 3.89878e-6 0.80001 0.5999867 -2.18625e-6 0.851468 0.5244066 -2.64309e-6 0.8000071 0.5999908 5.19305e-6 0.8514656 0.5244107 -1.19656e-5 0.8958043 0.4444487 -8.62032e-6 0.9416805 0.3365084 -8.3968e-6 0.8000065 0.5999915 -6.97374e-6 0.8958101 0.444437 8.69483e-6 -1.30218e-6 0 1 0.9670601 -0.2545484 8.13603e-6 0.8958113 -0.4444347 -1.33663e-5 0.8731735 -0.4874095 -1.2219e-5 0.9670551 -0.2545675 3.36468e-5 0.8731709 -0.4874143 -8.43406e-6 0.8484883 -0.5292141 -1.98483e-5 0.9670614 -0.2545434 3.12924e-6 0.8484697 -0.5292441 2.02211e-6 0.8484697 -0.5292441 7.14785e-6 0 0 -1 4.99189e-6 -0.7071132 0.7071005 5.14183e-6 -0.7071086 0.7071051 -0.2418365 -0.6644595 0.707113 0.241832 -0.6644674 0.7071071 0.2418312 -0.6644647 0.70711 2.67128e-6 -0.707116 0.7070977 0.2418482 -0.6644665 0.7071024 5.49853e-6 -0.7071096 0.707104 5.55604e-6 -0.7071034 0.7071101 -0.241865 -0.6644505 0.7071116 -0.2418654 -0.6644525 0.7071096 -0.4545147 -0.5416842 0.707103 -0.2418422 -0.6644666 0.7071044 9.95724e-6 -0.707104 0.7071095 -0.241842 -0.6644675 0.7071036 -0.6123721 -0.3535611 0.7071033 -0.4545235 -0.5416812 0.7070997 -0.612369 -0.3535594 0.7071068 -0.4545133 -0.5416839 0.7071042 -0.2418273 -0.6644632 0.7071126 -0.4545085 -0.5416783 0.7071115 -0.6123829 -0.3535424 0.7071032 -0.4545168 -0.5416714 0.7071114 -0.4545201 -0.5416752 0.7071065 -0.6123851 -0.3535347 0.7071052 -0.6123821 -0.3535331 0.7071086 -0.6963716 -0.1227716 0.7071024 -0.6963569 -0.1228063 0.7071109 -0.6963631 -0.1228075 0.7071046 -0.6963662 0.122808 0.7071014 -0.6963673 -0.1227672 0.7071074 -0.61237 -0.3535436 0.7071138 -0.6963678 -0.1227673 0.7071068 -0.6963641 0.1228088 0.7071033 -0.6963665 0.1228091 0.707101 -0.6123746 0.3535381 0.7071126 -0.6963547 0.1228058 0.7071132 -0.6963672 -0.122808 0.7071004 -0.6963565 0.1228061 0.7071113 -0.6123721 0.3535612 0.7071033 -0.612369 0.3535594 0.7071068 -0.4545234 0.5416812 0.7070998 -0.6123856 0.3535419 0.7071012 -0.6963636 0.1227779 0.7071091 -0.6123801 0.3535388 0.7071076 -0.454509 0.5416831 0.7071074 -0.4545129 0.5416874 0.7071017 -0.2418249 0.6644701 0.707107 -0.4545165 0.5416713 0.7071118 -0.6123827 0.3535423 0.7071034 -0.4545198 0.541675 0.7071068 -0.241832 0.6644674 0.7071071 -0.2418312 0.6644647 0.70711 -2.67128e-6 0.707116 0.7070977 -0.2418239 0.6644707 0.7071067 -0.4544997 0.5416849 0.7071121 -0.2418707 0.6644592 0.7071016 -4.99189e-6 0.7071132 0.7071005 -5.14183e-6 0.7071086 0.7071051 0.2418365 0.6644595 0.707113 -5.55604e-6 0.7071034 0.7071101 -0.2418482 0.6644665 0.7071024 -5.49853e-6 0.7071096 0.707104 0.241865 0.6644505 0.7071116 0.2418654 0.6644525 0.7071096 0.4545147 0.5416842 0.707103 0.2418422 0.6644666 0.7071044 -9.95724e-6 0.707104 0.7071095 0.241842 0.6644675 0.7071036 0.6123721 0.3535611 0.7071033 0.4545235 0.5416812 0.7070997 0.612369 0.3535594 0.7071068 0.4545133 0.5416839 0.7071042 0.2418273 0.6644632 0.7071126 0.4545085 0.5416783 0.7071115 0.6123829 0.3535424 0.7071032 0.4545168 0.5416714 0.7071114 0.4545201 0.5416752 0.7071065 0.6123851 0.3535347 0.7071052 0.6123821 0.3535331 0.7071086 0.6963716 0.1227716 0.7071024 0.6963569 0.1228063 0.7071109 0.6963631 0.1228075 0.7071046 0.6963662 -0.122808 0.7071014 0.6963673 0.1227672 0.7071074 0.61237 0.3535436 0.7071138 0.6963678 0.1227673 0.7071068 0.6963641 -0.1228088 0.7071033 0.6963665 -0.1228091 0.707101 0.6123746 -0.3535381 0.7071126 0.6963547 -0.1228058 0.7071132 0.6963672 0.122808 0.7071004 0.6963565 -0.1228061 0.7071113 0.6123721 -0.3535612 0.7071033 0.612369 -0.3535594 0.7071068 0.4545234 -0.5416812 0.7070998 0.6123856 -0.3535419 0.7071012 0.6963636 -0.1227779 0.7071091 0.6123801 -0.3535388 0.7071076 0.454509 -0.5416831 0.7071074 0.4545129 -0.5416874 0.7071017 0.2418249 -0.6644701 0.707107 0.4545165 -0.5416713 0.7071118 0.6123827 -0.3535423 0.7071034 0.4545198 -0.541675 0.7071068 0.2418239 -0.6644707 0.7071067 0.4544997 -0.5416849 0.7071121 0.2418707 -0.6644592 0.7071016 -1.21742e-5 -1 1.06331e-5 -1.21593e-5 -1 -8.29587e-6 -0.3420066 -0.9396976 8.17329e-6 0.3420215 -0.9396921 7.81684e-6 0.3420215 -0.9396921 1.72572e-5 -1.99079e-5 -1 -5.72204e-6 1.21593e-5 -1 8.29587e-6 0.3420066 -0.9396976 -8.17329e-6 1.21742e-5 -1 -1.06331e-5 -0.3420238 -0.9396913 9.4531e-6 -0.3420238 -0.9396913 -8.29587e-6 -0.6427702 -0.7660591 1.05649e-5 -0.3420066 -0.9396976 8.29362e-6 -1.21742e-5 -1 -8.17329e-6 -0.3420066 -0.9396976 -1.06302e-5 -0.6427977 -0.7660362 8.99522e-6 -0.6427977 -0.7660362 -8.29362e-6 -0.8660187 -0.5000118 1.14068e-5 -0.6428069 -0.7660284 8.32361e-5 -0.3420237 -0.9396914 -1.05724e-5 -0.6427702 -0.7660591 -9.45053e-6 -0.8660225 -0.5000051 9.02081e-6 -0.8660225 -0.5000051 -8.29813e-6 -0.9848105 -0.173633 1.13845e-5 -0.8660427 -0.4999702 8.29813e-6 -0.6427977 -0.7660361 -1.14143e-5 -0.8660187 -0.5000116 -8.99766e-6 -0.984806 -0.1736587 1.00742e-5 -0.984806 -0.1736587 -8.29587e-6 -0.984806 0.1736587 9.29087e-6 -0.9848105 -0.173633 8.29362e-6 -0.8660225 -0.5000051 -1.13845e-5 -0.9848105 -0.173633 -9.01591e-6 -0.9848105 0.173633 9.01591e-6 -0.9848105 0.173633 -8.29362e-6 -0.8660225 0.5000051 1.13845e-5 -0.984806 0.1736587 8.29587e-6 -0.984806 -0.1736587 -9.29087e-6 -0.984806 0.1736587 -1.00742e-5 -0.6427977 0.7660361 9.07481e-6 -0.8660187 0.5000118 1.13294e-5 -0.6427977 0.7660362 -8.33294e-6 -0.8660225 0.5000051 5.82857e-5 -0.9848105 0.173633 -1.13845e-5 -0.8660225 0.5000051 -9.02081e-6 -0.6427977 0.7660361 -1.13263e-5 -0.8660187 0.5000116 8.33521e-6 -0.8660187 0.5000116 -9.07481e-6 -0.3420259 0.9396905 -1.38134e-5 -0.642772 0.7660576 -2.97944e-6 -0.3420259 0.9396905 2.37586e-6 -0.3420237 0.9396914 -1.05013e-5 -0.6428069 0.7660282 8.3352e-6 -0.6428069 0.7660284 -9.45479e-6 -0.3420215 0.9396921 7.81684e-6 -0.3420215 0.9396921 1.72572e-5 1.99079e-5 1 -5.72204e-6 1.21742e-5 1 1.06331e-5 1.21593e-5 1 -8.29587e-6 0.3420066 0.9396976 8.17329e-6 -0.3420066 0.9396976 -8.17329e-6 -1.21742e-5 1 -1.06331e-5 -1.21593e-5 1 8.29587e-6 0.3420238 0.9396913 9.4531e-6 0.3420238 0.9396913 -8.29587e-6 0.6427702 0.7660591 1.05649e-5 0.3420066 0.9396976 8.29362e-6 1.21742e-5 1 -8.17329e-6 0.3420066 0.9396976 -1.06302e-5 0.6427977 0.7660362 8.99522e-6 0.6427977 0.7660362 -8.29362e-6 0.8660187 0.5000118 1.14068e-5 0.6428069 0.7660284 8.32361e-5 0.3420237 0.9396914 -1.05724e-5 0.6427702 0.7660591 -9.45053e-6 0.8660225 0.5000051 9.02081e-6 0.8660225 0.5000051 -8.29813e-6 0.9848105 0.173633 1.13845e-5 0.8660427 0.4999702 8.29813e-6 0.6427977 0.7660361 -1.14143e-5 0.8660187 0.5000116 -8.99766e-6 0.984806 0.1736587 1.00742e-5 0.984806 0.1736587 -8.29587e-6 0.984806 -0.1736587 9.29087e-6 0.9848105 0.173633 8.29362e-6 0.8660225 0.5000051 -1.13845e-5 0.9848105 0.173633 -9.01591e-6 0.9848105 -0.173633 9.01591e-6 0.9848105 -0.173633 -8.29362e-6 0.8660225 -0.5000051 1.13845e-5 0.984806 -0.1736587 8.29587e-6 0.984806 0.1736587 -9.29087e-6 0.984806 -0.1736587 -1.00742e-5 0.6427977 -0.7660361 9.07481e-6 0.8660187 -0.5000118 1.13294e-5 0.6427977 -0.7660362 -8.33294e-6 0.8660225 -0.5000051 5.82857e-5 0.9848105 -0.173633 -1.13845e-5 0.8660225 -0.5000051 -9.02081e-6 0.6427977 -0.7660361 -1.13263e-5 0.8660187 -0.5000116 8.33521e-6 0.8660187 -0.5000116 -9.07481e-6 0.3420259 -0.9396905 -1.38134e-5 0.642772 -0.7660576 -2.97944e-6 0.3420259 -0.9396905 2.37586e-6 0.3420237 -0.9396914 -1.05013e-5 0.6428069 -0.7660282 8.3352e-6 0.6428069 -0.7660284 -9.45479e-6 0 0 -1 1.71511e-7 0 -1 0 0 -1 2.07565e-7 0 -1 0 0 -1 1.23487e-7 0 -1 -7.11123e-7 0 -1 0 0 -1 -2.07565e-7 0 -1 0 0 -1 -1.23487e-7 0 -1 7.11123e-7 0 -1</float_array>
          <technique_common>
            <accessor source="#mtc_effector_side_001-mesh-normals-array" count="359" stride="3">
              <param name="X" type="float"/>
              <param name="Y" type="float"/>
              <param name="Z" type="float"/>
            </accessor>
          </technique_common>
        </source>
        <source id="mtc_effector_side_001-mesh-map-0">
          <float_array id="mtc_effector_side_001-mesh-map-0-array" count="1200">0.906965 0.386923 0.117411 0.438671 0.118485 0.440829 0.118485 0.187514 0.118485 0.440829 0.117411 0.438671 0.417665 0.280307 0.906965 0.386923 0.118485 0.440829 0.417665 0.115267 0.417665 0.280307 0.118485 0.440829 0.417665 0.115267 0.118485 0.440829 0.118485 0.187514 0.906965 0.386923 0.116334 0.436557 0.117411 0.438671 0.117411 0.186491 0.117411 0.438671 0.116334 0.436557 0.117411 0.186491 0.118485 0.187514 0.117411 0.438671 0.906965 0.386923 0.08674299 0.39453 0.116334 0.436557 0.116334 0.18549 0.116334 0.436557 0.08674299 0.39453 0.117411 0.186491 0.116334 0.436557 0.116334 0.18549 0.944037 0.373945 0.05596297 0.373945 0.08674299 0.39453 0.08674401 0.165911 0.08674299 0.39453 0.05596297 0.373945 0.906965 0.386923 0.944037 0.373945 0.08674299 0.39453 0.116334 0.18549 0.08674299 0.39453 0.08674401 0.165911 0.05596297 0.156526 0.05596297 0.373945 0.944037 0.373945 0.08674401 0.165911 0.05596297 0.373945 0.05596297 0.156526 0.906965 0.162427 0.944037 0.373945 0.906965 0.386923 0.944037 0.156526 0.944037 0.373945 0.906965 0.162427 0.05596297 0.156526 0.944037 0.373945 0.944037 0.156526 0.417665 0.280307 0.582336 0.280307 0.906965 0.386923 0.906965 0.162427 0.906965 0.386923 0.582336 0.280307 0.419644 0.277041 0.580356 0.277041 0.582336 0.280307 0.582336 0.115267 0.582336 0.280307 0.580356 0.277041 0.417665 0.280307 0.419644 0.277041 0.582336 0.280307 0.906965 0.162427 0.582336 0.280307 0.582336 0.115267 0.422389 0.27586 0.577611 0.27586 0.580356 0.277041 0.580357 0.113865 0.580356 0.277041 0.577611 0.27586 0.419644 0.277041 0.422389 0.27586 0.580356 0.277041 0.582336 0.115267 0.580356 0.277041 0.580357 0.113865 0.448259 0.27586 0.551741 0.27586 0.577611 0.27586 0.577611 0.113358 0.577611 0.27586 0.551741 0.27586 0.422389 0.27586 0.448259 0.27586 0.577611 0.27586 0.580357 0.113865 0.577611 0.27586 0.577611 0.113358 0.47413 0.27586 0.52587 0.27586 0.551741 0.27586 0.557835 0 0.551741 0.27586 0.52587 0.27586 0.448259 0.27586 0.47413 0.27586 0.551741 0.27586 0.557835 0 0.577611 0.113358 0.551741 0.27586 0.47413 0.27586 0.499999 0.27586 0.52587 0.27586 0.50723 0 0.52587 0.27586 0.499999 0.27586 0.50723 0 0.557835 0 0.52587 0.27586 0.50723 0 0.499999 0.27586 0.47413 0.27586 0.456625 0 0.47413 0.27586 0.448259 0.27586 0.456625 0 0.50723 0 0.47413 0.27586 0.456625 0 0.448259 0.27586 0.422389 0.27586 0.422389 0.113358 0.422389 0.27586 0.419644 0.277041 0.456625 0 0.422389 0.27586 0.422389 0.113358 0.419644 0.113865 0.419644 0.277041 0.417665 0.280307 0.422389 0.113358 0.419644 0.277041 0.419644 0.113865 0.419644 0.113865 0.417665 0.280307 0.417665 0.115267 0.406019 0.113358 0.417665 0.115267 0.118485 0.187514 0.117411 0.186491 0.157633 0.1903409 0.118485 0.187514 0.406019 0.113358 0.118485 0.187514 0.157633 0.1903409 0.414204 0.113358 0.419644 0.113865 0.417665 0.115267 0.406019 0.113358 0.414204 0.113358 0.417665 0.115267 0.08674401 0.165911 0.09353297 0.1587989 0.157633 0.1903409 0.157633 0 0.157633 0.1903409 0.09353297 0.1587989 0.116334 0.18549 0.08674401 0.165911 0.157633 0.1903409 0.117411 0.186491 0.116334 0.18549 0.157633 0.1903409 0.406019 0 0.406019 0.113358 0.157633 0.1903409 0.406019 0 0.157633 0.1903409 0.157633 0 0.05596297 0.156526 0.04122895 0.134371 0.09353297 0.1587989 0.09353595 0 0.09353297 0.1587989 0.04122895 0.134371 0.08674401 0.165911 0.05596297 0.156526 0.09353297 0.1587989 0.09353595 0 0.157633 0 0.09353297 0.1587989 0.05596297 0.156526 0.958771 0.134371 0.04122895 0.134371 0.04122895 0 0.04122895 0.134371 0.958771 0.134371 0.04122895 0 0.09353595 0 0.04122895 0.134371 0.906965 0.162427 0.88375 0.1433449 0.958771 0.134371 0.958771 0 0.958771 0.134371 0.88375 0.1433449 0.944037 0.156526 0.906965 0.162427 0.958771 0.134371 0.05596297 0.156526 0.944037 0.156526 0.958771 0.134371 0.958771 0 0.04122895 0 0.958771 0.134371 0.582336 0.115267 0.608441 0.113358 0.88375 0.1433449 0.88375 0 0.88375 0.1433449 0.608441 0.113358 0.906965 0.162427 0.582336 0.115267 0.88375 0.1433449 0.958771 0 0.88375 0.1433449 0.88375 0 0.582336 0.115267 0.593026 0.113358 0.608441 0.113358 0.608441 0 0.608441 0.113358 0.593026 0.113358 0.88375 0 0.608441 0.113358 0.608441 0 0.580357 0.113865 0.577611 0.113358 0.593026 0.113358 0.608441 0 0.593026 0.113358 0.577611 0.113358 0.582336 0.115267 0.580357 0.113865 0.593026 0.113358 0.557835 0 0.608441 0 0.577611 0.113358 0.414204 0.113358 0.422389 0.113358 0.419644 0.113865 0.456625 0 0.422389 0.113358 0.414204 0.113358 0.456625 0 0.414204 0.113358 0.406019 0.113358 0.456625 0 0.406019 0.113358 0.406019 0 0.88375 0 0.157633 0 0.09353595 0 0.608441 0 0.406019 0 0.157633 0 0.88375 0 0.608441 0 0.157633 0 0.88375 0 0.09353595 0 0.04122895 0 0.958771 0 0.88375 0 0.04122895 0 0.557835 0 0.406019 0 0.608441 0 0.456625 0 0.406019 0 0.557835 0 0.456625 0 0.557835 0 0.50723 0 0.294119 0.660262 0.17647 0.660262 0.235294 0.660262 0.235294 0.624107 0.235294 0.660262 0.17647 0.660262 0.294116 0.624107 0.294119 0.660262 0.235294 0.660262 0.294116 0.624107 0.235294 0.660262 0.235294 0.624107 0.352943 0.660262 0.117646 0.660262 0.17647 0.660262 0.1764709 0.624107 0.17647 0.660262 0.117646 0.660262 0.294119 0.660262 0.352943 0.660262 0.17647 0.660262 0.1764709 0.624107 0.235294 0.624107 0.17647 0.660262 0.411766 0.660262 0.05882298 0.660262 0.117646 0.660262 0.058824 0.624107 0.117646 0.660262 0.05882298 0.660262 0.352943 0.660262 0.411766 0.660262 0.117646 0.660262 0.117648 0.624107 0.1764709 0.624107 0.117646 0.660262 0.058824 0.624107 0.117648 0.624107 0.117646 0.660262 0.411766 0.660262 10e-7 0.660262 0.05882298 0.660262 0.058824 0.624107 0.05882298 0.660262 10e-7 0.660262 0.470588 0.660262 1 0.660262 10e-7 0.660262 10e-7 0.624107 10e-7 0.660262 1 0.660262 0.411766 0.660262 0.470588 0.660262 10e-7 0.660262 10e-7 0.624107 0.058824 0.624107 10e-7 0.660262 0.529412 0.660262 0.941178 0.660262 1 0.660262 1 0.624107 1 0.660262 0.941178 0.660262 0.470588 0.660262 0.529412 0.660262 1 0.660262 1 0.624107 10e-7 0.624107 1 0.660262 0.647057 0.660262 0.882355 0.660262 0.941178 0.660262 0.941176 0.624107 0.941178 0.660262 0.882355 0.660262 0.588234 0.660262 0.647057 0.660262 0.941178 0.660262 0.529412 0.660262 0.588234 0.660262 0.941178 0.660262 0.941176 0.624107 1 0.624107 0.941178 0.660262 0.705882 0.660262 0.82353 0.660262 0.882355 0.660262 0.882353 0.624107 0.882355 0.660262 0.82353 0.660262 0.647057 0.660262 0.705882 0.660262 0.882355 0.660262 0.882353 0.624107 0.941176 0.624107 0.882355 0.660262 0.705882 0.660262 0.764706 0.660262 0.82353 0.660262 0.823527 0.624107 0.82353 0.660262 0.764706 0.660262 0.823527 0.624107 0.882353 0.624107 0.82353 0.660262 0.764706 0.624107 0.764706 0.660262 0.705882 0.660262 0.764706 0.624107 0.823527 0.624107 0.764706 0.660262 0.705882 0.624107 0.705882 0.660262 0.647057 0.660262 0.705882 0.624107 0.764706 0.624107 0.705882 0.660262 0.588235 0.624107 0.647057 0.660262 0.588234 0.660262 0.647059 0.624107 0.705882 0.624107 0.647057 0.660262 0.588235 0.624107 0.647059 0.624107 0.647057 0.660262 0.588235 0.624107 0.588234 0.660262 0.529412 0.660262 0.529412 0.624107 0.529412 0.660262 0.470588 0.660262 0.529412 0.624107 0.588235 0.624107 0.529412 0.660262 0.470589 0.624107 0.470588 0.660262 0.411766 0.660262 0.470589 0.624107 0.529412 0.624107 0.470588 0.660262 0.411764 0.624107 0.411766 0.660262 0.352943 0.660262 0.411764 0.624107 0.470589 0.624107 0.411766 0.660262 0.352942 0.624107 0.352943 0.660262 0.294119 0.660262 0.352942 0.624107 0.411764 0.624107 0.352943 0.660262 0.294116 0.624107 0.352942 0.624107 0.294119 0.660262 0.235294 0.355189 0.235294 0.624107 0.1764709 0.624107 0.294118 0.355189 0.294116 0.624107 0.235294 0.624107 0.235294 0.355189 0.294118 0.355189 0.235294 0.624107 0.17647 0.355189 0.1764709 0.624107 0.117648 0.624107 0.17647 0.355189 0.235294 0.355189 0.1764709 0.624107 0.117645 0.355189 0.117648 0.624107 0.058824 0.624107 0.117645 0.355189 0.17647 0.355189 0.117648 0.624107 0.05882197 0.355189 0.058824 0.624107 10e-7 0.624107 0.05882197 0.355189 0.117645 0.355189 0.058824 0.624107 0 0.355189 10e-7 0.624107 1 0.624107 0 0.355189 0.05882197 0.355189 10e-7 0.624107 0.999999 0.355189 1 0.624107 0.941176 0.624107 0.999999 0.355189 0 0.355189 1 0.624107 0.882354 0.355189 0.941176 0.624107 0.882353 0.624107 0.941177 0.355189 0.999999 0.355189 0.941176 0.624107 0.882354 0.355189 0.941177 0.355189 0.941176 0.624107 0.82353 0.355189 0.882353 0.624107 0.823527 0.624107 0.82353 0.355189 0.882354 0.355189 0.882353 0.624107 0.82353 0.355189 0.823527 0.624107 0.764706 0.624107 0.764706 0.355189 0.764706 0.624107 0.705882 0.624107 0.82353 0.355189 0.764706 0.624107 0.764706 0.355189 0.705881 0.355189 0.705882 0.624107 0.647059 0.624107 0.705881 0.355189 0.764706 0.355189 0.705882 0.624107 0.647057 0.355189 0.647059 0.624107 0.588235 0.624107 0.647057 0.355189 0.705881 0.355189 0.647059 0.624107 0.588233 0.355189 0.588235 0.624107 0.529412 0.624107 0.588233 0.355189 0.647057 0.355189 0.588235 0.624107 0.529411 0.355189 0.529412 0.624107 0.470589 0.624107 0.529411 0.355189 0.588233 0.355189 0.529412 0.624107 0.470588 0.355189 0.470589 0.624107 0.411764 0.624107 0.470588 0.355189 0.529411 0.355189 0.470589 0.624107 0.352943 0.355189 0.411764 0.624107 0.352942 0.624107 0.411766 0.355189 0.470588 0.355189 0.411764 0.624107 0.352943 0.355189 0.411766 0.355189 0.411764 0.624107 0.294118 0.355189 0.352942 0.624107 0.294116 0.624107 0.294118 0.355189 0.352943 0.355189 0.352942 0.624107 0.235294 0.355189 0.764706 0.355189 0.705881 0.355189 0.17647 0.355189 0.764706 0.355189 0.235294 0.355189 0.82353 0.355189 0.764706 0.355189 0.17647 0.355189 0.352943 0.355189 0.705881 0.355189 0.647057 0.355189 0.294118 0.355189 0.705881 0.355189 0.352943 0.355189 0.235294 0.355189 0.705881 0.355189 0.294118 0.355189 0.352943 0.355189 0.647057 0.355189 0.588233 0.355189 0.411766 0.355189 0.588233 0.355189 0.529411 0.355189 0.352943 0.355189 0.588233 0.355189 0.411766 0.355189 0.411766 0.355189 0.529411 0.355189 0.470588 0.355189 0.882354 0.355189 0.17647 0.355189 0.117645 0.355189 0.82353 0.355189 0.17647 0.355189 0.882354 0.355189 0.882354 0.355189 0.117645 0.355189 0.05882197 0.355189 0.941177 0.355189 0.05882197 0.355189 0 0.355189 0.882354 0.355189 0.05882197 0.355189 0.941177 0.355189 0.941177 0.355189 0 0.355189 0.999999 0.355189</float_array>
          <technique_common>
            <accessor source="#mtc_effector_side_001-mesh-map-0-array" count="600" stride="2">
              <param name="S" type="float"/>
              <param name="T" type="float"/>
            </accessor>
          </technique_common>
        </source>
        <vertices id="mtc_effector_side_001-mesh-vertices">
          <input semantic="POSITION" source="#mtc_effector_side_001-mesh-positions"/>
        </vertices>
        <triangles material="DEFAULT_MTL_002-material" count="200">
          <input semantic="VERTEX" source="#mtc_effector_side_001-mesh-vertices" offset="0"/>
          <input semantic="NORMAL" source="#mtc_effector_side_001-mesh-normals" offset="1"/>
          <input semantic="TEXCOORD" source="#mtc_effector_side_001-mesh-map-0" offset="2" set="2"/>
          <p>16 0 0 3 0 1 0 0 2 47 1 3 2 2 4 4 3 5 42 4 6 16 4 7 0 4 8 48 5 9 43 5 10 1 5 11 48 5 12 1 5 13 45 5 14 16 6 15 5 6 16 3 6 17 93 7 18 4 8 19 7 9 20 93 10 21 47 11 22 4 12 23 16 13 24 8 13 25 5 13 26 90 14 27 6 15 28 9 16 29 93 17 30 7 18 31 91 19 32 13 20 33 10 20 34 8 20 35 88 21 36 9 22 37 12 23 38 16 4 39 13 4 40 8 4 41 90 24 42 9 25 43 88 26 44 85 27 45 11 27 46 15 27 47 88 28 48 12 29 49 86 30 50 80 31 51 14 31 52 18 31 53 82 32 54 14 32 55 80 32 56 85 27 57 15 27 58 83 27 59 42 4 60 19 4 61 16 4 62 79 33 63 17 33 64 21 33 65 40 34 66 22 34 67 19 34 68 76 35 69 20 36 70 23 37 71 42 4 72 40 4 73 19 4 74 79 33 75 21 33 76 77 33 77 37 38 78 24 38 79 22 38 80 74 39 81 23 40 82 26 41 83 40 42 84 37 42 85 22 42 86 76 43 87 23 44 88 74 45 89 35 4 90 27 4 91 24 4 92 71 46 93 25 47 94 28 48 95 37 4 96 35 4 97 24 4 98 74 49 99 26 50 100 72 51 101 33 52 102 29 52 103 27 52 104 118 53 105 28 54 106 30 55 107 35 56 108 33 56 109 27 56 110 118 57 111 71 58 112 28 59 113 33 4 114 31 4 115 29 4 116 120 60 117 30 61 118 32 62 119 120 63 120 118 64 121 30 65 122 120 66 123 32 67 124 34 68 125 122 69 126 34 70 127 36 71 128 122 72 129 120 73 130 34 74 131 122 75 132 36 76 133 38 77 134 98 78 135 39 79 136 41 80 137 122 81 138 38 82 139 97 83 140 95 84 141 41 85 142 44 86 143 98 87 144 41 88 145 95 89 146 95 90 147 44 91 148 50 92 149 101 4 150 49 4 151 46 4 152 92 4 153 51 4 154 46 4 155 101 4 156 46 4 157 51 4 158 99 93 159 94 93 160 49 93 161 101 4 162 99 4 163 49 4 164 87 94 165 54 94 166 51 94 167 104 95 168 52 96 169 55 97 170 89 4 171 87 4 172 51 4 173 92 98 174 89 98 175 51 98 176 112 5 177 102 5 178 53 5 179 112 5 180 53 5 181 105 5 182 84 4 183 56 4 184 54 4 185 107 99 186 55 100 187 57 101 188 87 4 189 84 4 190 54 4 191 107 102 192 104 103 193 55 104 194 84 4 195 59 4 196 56 4 197 110 27 198 58 27 199 61 27 200 109 105 201 107 106 202 57 107 203 78 4 204 62 4 205 59 4 206 127 108 207 60 108 208 64 108 209 81 4 210 78 4 211 59 4 212 84 109 213 81 109 214 59 109 215 128 27 216 110 27 217 61 27 218 75 4 219 65 4 220 62 4 221 124 33 222 63 33 223 67 33 224 78 4 225 75 4 226 62 4 227 127 108 228 64 108 229 125 108 230 75 110 231 68 110 232 65 110 233 115 111 234 66 112 235 69 113 236 124 33 237 67 33 238 116 33 239 73 4 240 70 4 241 68 4 242 115 114 243 69 115 244 71 116 245 75 4 246 73 4 247 68 4 248 118 117 249 115 118 250 71 119 251 99 120 252 96 120 253 94 120 254 122 121 255 97 122 256 100 123 257 122 124 258 100 125 259 103 126 260 122 127 261 103 128 262 113 129 263 126 130 264 106 130 265 108 130 266 117 130 267 114 130 268 106 130 269 126 130 270 117 130 271 106 130 272 126 130 273 108 130 274 111 130 275 129 130 276 126 130 277 111 130 278 119 130 279 114 130 280 117 130 281 123 130 282 114 130 283 119 130 284 123 130 285 119 130 286 121 130 287 166 4 288 133 4 289 130 4 290 168 131 291 131 132 292 134 133 293 206 134 294 167 135 295 132 136 296 206 137 297 132 138 298 169 139 299 164 4 300 135 4 301 133 4 302 172 140 303 134 141 304 136 142 305 166 4 306 164 4 307 133 4 308 172 143 309 168 144 310 134 145 311 162 4 312 137 4 313 135 4 314 176 146 315 136 147 316 138 148 317 164 4 318 162 4 319 135 4 320 174 149 321 172 150 322 136 151 323 176 152 324 174 153 325 136 154 326 162 4 327 139 4 328 137 4 329 176 155 330 138 156 331 140 157 332 160 4 333 141 4 334 139 4 335 178 158 336 140 159 337 142 160 338 162 4 339 160 4 340 139 4 341 178 161 342 176 162 343 140 163 344 158 4 345 143 4 346 141 4 347 180 164 348 142 165 349 144 166 350 160 4 351 158 4 352 141 4 353 180 167 354 178 168 355 142 169 356 154 4 357 145 4 358 143 4 359 182 170 360 144 171 361 146 172 362 156 4 363 154 4 364 143 4 365 158 4 366 156 4 367 143 4 368 182 173 369 180 174 370 144 175 371 152 4 372 147 4 373 145 4 374 184 176 375 146 177 376 148 178 377 154 4 378 152 4 379 145 4 380 184 179 381 182 180 382 146 181 383 152 4 384 149 4 385 147 4 386 186 182 387 148 183 388 150 184 389 186 185 390 184 186 391 148 187 392 189 188 393 151 189 394 153 190 395 188 191 396 186 192 397 150 193 398 192 194 399 153 195 400 155 196 401 192 197 402 189 198 403 153 199 404 196 200 405 155 201 406 157 202 407 194 203 408 192 204 409 155 205 410 196 206 411 194 207 412 155 208 413 196 209 414 157 210 415 159 211 416 198 212 417 159 213 418 161 214 419 198 215 420 196 216 421 159 217 422 200 218 423 161 219 424 163 220 425 200 221 426 198 222 427 161 223 428 202 224 429 163 225 430 165 226 431 202 227 432 200 228 433 163 229 434 204 230 435 165 231 436 167 232 437 204 233 438 202 234 439 165 235 440 206 236 441 204 237 442 167 238 443 228 239 444 171 240 445 173 241 446 225 242 447 207 243 448 170 244 449 227 245 450 225 246 451 170 247 452 230 248 453 173 249 454 175 250 455 230 251 456 228 252 457 173 253 458 232 254 459 175 255 460 177 256 461 232 257 462 230 258 463 175 259 464 234 260 465 177 261 466 179 262 467 234 263 468 232 264 469 177 265 470 236 266 471 179 267 472 181 268 473 236 269 474 234 270 475 179 271 476 238 272 477 181 273 478 183 274 479 238 275 480 236 276 481 181 277 482 242 278 483 183 279 484 185 280 485 240 281 486 238 282 487 183 283 488 242 284 489 240 285 490 183 286 491 244 287 492 185 288 493 187 289 494 244 290 495 242 291 496 185 292 497 244 293 498 187 294 499 191 295 500 208 296 501 190 297 502 193 298 503 244 299 504 191 300 505 209 301 506 211 302 507 193 303 508 195 304 509 211 305 510 208 306 511 193 307 512 213 308 513 195 309 514 197 310 515 213 311 516 211 312 517 195 313 518 215 314 519 197 315 520 199 316 521 215 317 522 213 318 523 197 319 524 217 320 525 199 321 526 201 322 527 217 323 528 215 324 529 199 325 530 219 326 531 201 327 532 203 328 533 219 329 534 217 330 535 201 331 536 223 332 537 203 333 538 205 334 539 221 335 540 219 336 541 203 337 542 223 338 543 221 339 544 203 340 545 225 341 546 205 342 547 207 343 548 225 344 549 223 345 550 205 346 551 229 347 552 210 347 553 212 347 554 231 348 555 210 348 556 229 348 557 245 130 558 210 130 559 231 130 560 224 349 561 212 349 562 214 349 563 226 350 564 212 350 565 224 350 566 229 130 567 212 130 568 226 130 569 224 351 570 214 351 571 216 351 572 222 352 573 216 352 574 218 352 575 224 130 576 216 130 577 222 130 578 222 353 579 218 353 580 220 353 581 243 354 582 231 354 583 233 354 584 245 355 585 231 355 586 243 355 587 243 356 588 233 356 589 235 356 590 241 357 591 235 357 592 237 357 593 243 130 594 235 130 595 241 130 596 241 358 597 237 358 598 239 358 599</p>
        </triangles>
      </mesh>
    </geometry>
  </library_geometries>
  <library_visual_scenes>
    <visual_scene id="Scene" name="Scene">
      <node id="mtc_effector_side" name="mtc_effector_side" type="NODE">
        <matrix sid="transform">1 0 0 0 0 1 0 0 0 0 1 0 0 0 0 1</matrix>
        <instance_geometry url="#mtc_effector_side_001-mesh" name="mtc_effector_side">
          <bind_material>
            <technique_common>
              <instance_material symbol="DEFAULT_MTL_002-material" target="#DEFAULT_MTL_002-material">
                <bind_vertex_input semantic="UVMap" input_semantic="TEXCOORD" input_set="0"/>
              </instance_material>
            </technique_common>
          </bind_material>
        </instance_geometry>
      </node>
    </visual_scene>
  </library_visual_scenes>
  <scene>
    <instance_visual_scene url="#Scene"/>
  </scene>
</COLLADA>