<?xml version="1.0" encoding="utf-8"?>
<COLLADA xmlns="http://www.collada.org/2005/11/COLLADASchema" version="1.4.1" xmlns:xsi="http://www.w3.org/2001/XMLSchema-instance">
  <asset>
    <contributor>
      <author>Blender User</author>
      <authoring_tool>Blender 3.5.1 commit date:2023-04-24, commit time:18:11, hash:e1ccd9d4a1d3</authoring_tool>
    </contributor>
    <created>2023-06-21T16:38:27</created>
    <modified>2023-06-21T16:38:27</modified>
    <unit name="meter" meter="1"/>
    <up_axis>Z_UP</up_axis>
  </asset>
  <library_effects>
    <effect id="DEFAULT_MTL-effect">
      <profile_COMMON>
        <technique sid="common">
          <lambert>
            <emission>
              <color sid="emission">0 0 0 1</color>
            </emission>
            <diffuse>
              <color sid="diffuse">0.1 0.1 0.1 1</color>
            </diffuse>
            <index_of_refraction>
              <float sid="ior">1.45</float>
            </index_of_refraction>
          </lambert>
        </technique>
      </profile_COMMON>
    </effect>
  </library_effects>
  <library_images/>
  <library_materials>
    <material id="DEFAULT_MTL-material" name="DEFAULT_MTL">
      <instance_effect url="#DEFAULT_MTL-effect"/>
    </material>
  </library_materials>
  <library_geometries>
    <geometry id="mtc_robot_side-mesh" name="mtc_robot_side">
      <mesh>
        <source id="mtc_robot_side-mesh-positions">
          <float_array id="mtc_robot_side-mesh-positions-array" count="630">0.007027983 -0.040672 0 0.007027983 -0.040672 0 0.007027983 -0.040672 0 0.007976949 -0.04130899 0 0.007976949 -0.04130899 0 0.007976949 -0.04130899 0 -8.5e-4 -0.04225498 0 -8.5e-4 -0.04225498 0 -0.009673953 -0.04129195 0 -0.009673953 -0.04129195 0 -0.01808798 -0.03846395 0 -0.01808798 -0.03846395 0 -0.02570295 -0.033903 0 -0.02570295 -0.033903 0 -0.02570295 -0.033903 0 -0.03137397 -0.03081697 0 -0.03137397 -0.03081697 0 -0.037696 -0.02953398 0 -0.037696 -0.02953398 0 -0.04412096 -0.030164 0 -0.04412096 -0.030164 0 -0.04412096 -0.030164 0 -0.04501795 -0.03058195 0 -0.04501795 -0.03058195 0 -0.04569596 -0.031304 0 -0.04569596 -0.031304 0 -0.04605799 -0.03222298 0 -0.04605799 -0.03222298 0 -0.04605394 -0.03321397 0 -0.04605394 -0.03321397 0 -0.04568296 -0.03413295 0 -0.04568296 -0.03413295 0 -0.04499995 -0.03484594 0 -0.04499995 -0.03484594 0 -0.04409998 -0.03525698 0 -0.04409998 -0.03525698 0 -0.04311096 -0.03530597 0 -0.04311096 -0.03530597 0 -0.04311096 -0.03530597 0 -0.03463697 -0.03557699 0 -0.03463697 -0.03557699 0 -0.026757 -0.03870695 0 -0.026757 -0.03870695 0 -0.026757 -0.03870695 0 -0.016734 -0.04367595 0 -0.016734 -0.04367595 0 -0.005978941 -0.04675495 0 -0.005978941 -0.04675495 0 0.005154967 -0.04783999 0 0.005154967 -0.04783999 0 0.01630198 -0.04689896 0 0.01630198 -0.04689896 0 0.01630198 -0.04689896 0 0.02633798 -0.04423695 0 0.02633798 -0.04423695 0 0.02633798 -0.04423695 0 0.028216 -0.03012496 0 0.028216 -0.03012496 0 0.028216 -0.03012496 0 0.03530496 -0.02138197 0 0.03530496 -0.02138197 0 0.03976899 -0.01104897 0 0.03976899 -0.01104897 0 0.04127496 1.05e-4 0 0.04127496 1.05e-4 0 0.03971195 0.01125198 0 0.03971195 0.01125198 0 0.03519499 0.02156198 0 0.03519499 0.02156198 0 0.02806198 0.03026795 0 0.02806198 0.03026795 0 0.01884198 0.03672295 0 0.01884198 0.03672295 0 0.008219957 0.04044795 0 0.008219957 0.04044795 0 -0.003011941 0.04116499 0 -0.003011941 0.04116499 0 -0.01402097 0.03882098 0 -0.01402097 0.03882098 0 -0.02398699 0.033589 0 -0.02398699 0.033589 0 -0.03216999 0.02585995 0 -0.03216999 0.02585995 0 -0.03795999 0.01620697 0 -0.03795999 0.01620697 0 -0.04092699 0.00534898 0 -0.04092699 0.00534898 0 -0.04084998 -0.005906999 0 -0.04084998 -0.005906999 0 -0.03773498 -0.01672399 0 -0.03773498 -0.01672399 0 -0.03773498 -0.01672399 0 -0.03179395 -0.01925694 0 -0.03179395 -0.01925694 0 -0.03179395 -0.01925694 0 -0.025213 -0.02550196 0 -0.025213 -0.02550196 0 -0.025213 -0.02550196 0 -0.02406895 -0.03353095 0 -0.02406895 -0.03353095 0 -0.02406895 -0.03353095 0 -0.01446294 -0.03865796 0 -0.01446294 -0.03865796 0 -0.003850996 -0.04109495 0 -0.003850996 -0.04109495 0 0.028216 -0.03012496 0.01841497 0.028216 -0.03012496 0.01841497 0.028216 -0.03012496 0.01841497 0.02633798 -0.04423695 0.01841497 0.02633798 -0.04423695 0.01841497 0.02633798 -0.04423695 0.01841497 0.01630198 -0.04689896 0.01841497 0.01630198 -0.04689896 0.01841497 0.01630198 -0.04689896 0.01841497 0.005154967 -0.04783999 0.01841497 0.005154967 -0.04783999 0.01841497 -0.005978941 -0.04675495 0.01841497 -0.005978941 -0.04675495 0.01841497 -0.016734 -0.04367595 0.01841497 -0.016734 -0.04367595 0.01841497 -0.026757 -0.03870695 0.01841497 -0.026757 -0.03870695 0.01841497 -0.026757 -0.03870695 0.01841497 -0.03463697 -0.03557699 0.01841497 -0.03463697 -0.03557699 0.01841497 -0.04311096 -0.03530597 0.01841497 -0.04311096 -0.03530597 0.01841497 -0.04311096 -0.03530597 0.01841497 -0.04409998 -0.03525698 0.01841497 -0.04409998 -0.03525698 0.01841497 -0.04500198 -0.03484499 0.01841497 -0.04500198 -0.03484499 0.01841497 -0.04568499 -0.03412997 0.01841497 -0.04568499 -0.03412997 0.01841497 -0.04605495 -0.03320997 0.01841497 -0.04605495 -0.03320997 0.01841497 -0.04605799 -0.03221994 0.01841497 -0.04605799 -0.03221994 0.01841497 -0.04569494 -0.03130197 0.01841497 -0.04569494 -0.03130197 0.01841497 -0.04501599 -0.03058099 0.01841497 -0.04501599 -0.03058099 0.01841497 -0.04412096 -0.030164 0.01841497 -0.04412096 -0.030164 0.01841497 -0.04412096 -0.030164 0.01841497 -0.03769695 -0.02953398 0.01841497 -0.03769695 -0.02953398 0.01841497 -0.03137296 -0.03081798 0.01841497 -0.03137296 -0.03081798 0.01841497 -0.02570295 -0.033903 0.01841497 -0.02570295 -0.033903 0.01841497 -0.02570295 -0.033903 0.01841497 -0.01808798 -0.03846395 0.01841497 -0.01808798 -0.03846395 0.01841497 -0.009673953 -0.04129195 0.01841497 -0.009673953 -0.04129195 0.01841497 -8.5e-4 -0.04225498 0.01841497 -8.5e-4 -0.04225498 0.01841497 0.007976949 -0.04130899 0.01841497 0.007976949 -0.04130899 0.01841497 0.007976949 -0.04130899 0.01841497 0.007027983 -0.040672 0.01841497 0.007027983 -0.040672 0.01841497 0.007027983 -0.040672 0.01841497 -0.003850996 -0.04109495 0.01841497 -0.003850996 -0.04109495 0.01841497 -0.01446294 -0.03865796 0.01841497 -0.01446294 -0.03865796 0.01841497 -0.02406895 -0.03353095 0.01841497 -0.02406895 -0.03353095 0.01841497 -0.02406895 -0.03353095 0.01841497 -0.025213 -0.02550196 0.01841497 -0.025213 -0.02550196 0.01841497 -0.025213 -0.02550196 0.01841497 -0.03179395 -0.01925694 0.01841497 -0.03179395 -0.01925694 0.01841497 -0.03179395 -0.01925694 0.01841497 -0.03773498 -0.01672399 0.01841497 -0.03773498 -0.01672399 0.01841497 -0.03773498 -0.01672399 0.01841497 -0.04084998 -0.005906999 0.01841497 -0.04084998 -0.005906999 0.01841497 -0.04092699 0.00534898 0.01841497 -0.04092699 0.00534898 0.01841497 -0.03795999 0.01620697 0.01841497 -0.03795999 0.01620697 0.01841497 -0.03216999 0.02585995 0.01841497 -0.03216999 0.02585995 0.01841497 -0.02398699 0.033589 0.01841497 -0.02398699 0.033589 0.01841497 -0.01402097 0.03882098 0.01841497 -0.01402097 0.03882098 0.01841497 -0.003011941 0.04116499 0.01841497 -0.003011941 0.04116499 0.01841497 0.008219957 0.04044795 0.01841497 0.008219957 0.04044795 0.01841497 0.01884198 0.03672295 0.01841497 0.01884198 0.03672295 0.01841497 0.02806198 0.03026795 0.01841497 0.02806198 0.03026795 0.01841497 0.03519499 0.02156198 0.01841497 0.03519499 0.02156198 0.01841497 0.03971195 0.01125198 0.01841497 0.03971195 0.01125198 0.01841497 0.04127496 1.05e-4 0.01841497 0.04127496 1.05e-4 0.01841497 0.03976899 -0.01104897 0.01841497 0.03976899 -0.01104897 0.01841497 0.03530496 -0.02138197 0.01841497 0.03530496 -0.02138197 0.01841497</float_array>
          <technique_common>
            <accessor source="#mtc_robot_side-mesh-positions-array" count="210" stride="3">
              <param name="X" type="float"/>
              <param name="Y" type="float"/>
              <param name="Z" type="float"/>
            </accessor>
          </technique_common>
        </source>
        <source id="mtc_robot_side-mesh-normals">
          <float_array id="mtc_robot_side-mesh-normals-array" count="804">0 0 -1 -0.5573214 -0.8302969 0 -0.0933113 -0.995637 1.11245e-5 -0.0933113 -0.995637 6.30217e-6 0.1702905 -0.9853939 -9.87574e-6 -0.5573208 -0.8302972 0 -0.0933113 -0.9956371 9.88692e-6 0.1702906 -0.985394 -1.11205e-5 0.1702906 -0.985394 -6.2999e-6 -0.2128405 0.977087 -9.12635e-6 -0.2128405 0.977087 0 0.001001715 0.9999996 0 9.86338e-4 0.9999996 5.58654e-6 9.86338e-4 0.9999996 0 0.2147826 0.9766619 0 -0.2128405 0.977087 0 0.001001715 0.9999996 9.1304e-6 0.001001715 0.9999996 0 0.2147921 0.9766598 6.15318e-6 0.2147921 0.9766598 0 0.4186534 0.9081461 0 9.86345e-4 0.9999996 0 0.2147827 0.9766619 -5.58902e-6 0.2147827 0.9766619 0 0.4186235 0.9081599 5.68907e-6 0.4186235 0.9081599 0 0.6031242 0.7976473 0 0.2147923 0.9766598 0 0.4186535 0.9081462 -6.15045e-6 0.4186535 0.9081462 0 0.603113 0.7976558 -8.63174e-6 0.603113 0.7976558 7.0935e-6 0.3422564 0.9396067 2.39164e-6 0.4186235 0.9081599 0 0.6031242 0.7976473 -5.69159e-6 0.6031242 0.7976473 0 0.3422958 0.9395923 7.58193e-6 0.3422958 0.9395923 1.90375e-7 0.051256 0.9986856 2.78279e-6 0.6031398 0.7976356 -3.66196e-6 0.3422879 0.9395952 1.1349e-5 0.3422878 0.9395952 2.17929e-5 0.05122816 0.998687 -5.27325e-6 0.05122816 0.998687 -1.41964e-5 -0.2443314 0.9696919 -9.50322e-6 0.3422902 0.9395943 4.2282e-6 0.05125004 0.9986858 5.36866e-6 0.0512501 0.9986858 -4.45077e-5 -0.2443206 0.9696946 -1.24837e-5 -0.2443206 0.9696945 9.01737e-5 -0.5863057 0.8100899 1.10986e-5 0.05126094 0.9986854 4.17978e-6 -0.2442995 0.9696999 5.85264e-6 -0.2442995 0.9696999 -7.0935e-6 -0.8441222 0.5361508 8.5067e-6 -0.5863134 0.8100844 -3.18532e-5 -0.8446102 0.5353818 -1.04701e-5 -0.5858178 0.8104428 -9.27526e-6 -0.586284 0.8101056 -1.19302e-6 -0.8441284 0.536141 3.89209e-5 -0.2443081 0.9696977 1.314e-5 -0.5862951 0.8100976 -9.43177e-6 -0.5857903 0.8104627 3.00905e-6 -0.9825958 0.1857567 -2.56859e-6 -0.8445996 0.5353987 -5.16003e-5 -0.9828266 0.1845318 -3.41349e-6 -0.8441203 0.536154 1.32677e-5 -0.8446086 0.5353845 -5.64568e-6 -0.9825989 0.1857406 3.38497e-6 -0.9815401 -0.1912565 7.41892e-6 -0.9828259 0.1845356 2.3213e-5 -0.981227 -0.1928565 1.1036e-5 -0.9825929 0.1857717 -1.93269e-6 -0.9828238 0.1845468 -1.63186e-5 -0.9815423 -0.1912457 6.93124e-6 -0.8406421 -0.5415911 1.60998e-5 -0.9812319 -0.1928315 -4.19597e-5 -0.8399404 -0.5426787 -5.8676e-6 -0.9815404 -0.1912552 -7.04137e-6 -0.9812272 -0.192855 6.2976e-6 -0.8406553 -0.5415706 3.28427e-5 -0.5799269 -0.8146685 1.00937e-5 -0.8399596 -0.5426492 -3.08636e-5 -0.5793021 -0.815113 1.02507e-5 -0.8406568 -0.5415683 -2.001e-7 -0.8399553 -0.5426556 7.3351e-6 -0.5799597 -0.8146451 2.39771e-5 -0.2365698 -0.9716145 -1.22162e-5 -0.5793105 -0.815107 9.67222e-6 -0.2365698 -0.9716146 9.04349e-6 -0.5799267 -0.8146686 7.12834e-6 -0.5793018 -0.8151131 -5.44824e-7 -0.2365594 -0.9716171 -5.37518e-6 -0.2365948 -0.9716085 -1.40607e-5 -0.2365483 -0.9716198 8.98957e-6 0.1405372 -0.9900755 -1.23428e-5 0.1405256 -0.9900771 8.77879e-6 0.1405256 -0.9900771 0 -0.2035933 -0.9790555 0 -0.2365952 -0.9716084 1.22692e-5 0.1405369 -0.9900755 1.41451e-5 0.1405368 -0.9900755 -6.35372e-5 -0.2036061 -0.9790529 1.22322e-5 -0.2036061 -0.9790529 0 -0.5235897 -0.8519706 0 0.1405256 -0.990077 0 -0.2035934 -0.9790556 -8.78361e-6 -0.2035934 -0.9790556 0 -0.5235778 -0.8519779 -3.43323e-6 -0.5235778 -0.8519779 4.33144e-6 -0.3611961 -0.93249 3.5204e-6 -0.2036061 -0.9790529 0 -0.5235897 -0.8519706 -1.22255e-5 -0.3611745 -0.9324983 -3.37562e-6 -0.3611745 -0.9324983 4.32687e-6 -0.1868793 -0.982383 3.38629e-6 -0.5235779 -0.8519779 -3.5204e-6 -0.3611962 -0.9324899 3.42961e-6 -0.3611962 -0.9324899 -4.32687e-6 -0.1868803 -0.9823827 -3.06734e-6 -0.1868803 -0.9823827 4.33372e-6 -0.006490826 -0.999979 2.71574e-6 -0.3611745 -0.9324983 -3.38256e-6 -0.1868793 -0.9823829 3.38096e-6 -0.1868793 -0.982383 -4.33372e-6 -0.006481587 -0.999979 -2.96532e-6 -0.006481587 -0.999979 4.32687e-6 0.1741681 -0.984716 2.52575e-6 -0.1868804 -0.9823828 -2.72319e-6 -0.006490826 -0.999979 3.06089e-6 -0.006490826 -0.999979 -4.32459e-6 0.2563796 -0.9665763 0 -0.006481587 -0.999979 -2.5183e-6 0.1741681 -0.984716 2.97001e-6 0.1741681 -0.984716 -4.33372e-6 0.991261 -0.1319153 0 0.683595 -0.7298617 -1.13102e-5 0.683595 -0.7298617 6.51549e-6 0.8553681 -0.5180207 8.0429e-6 0.8553529 -0.5180459 -1.15826e-5 0.8553529 -0.5180459 6.51322e-6 0.963509 -0.2676763 8.66875e-6 0.8553676 -0.5180215 -6.51322e-6 0.6835942 -0.7298623 -8.03545e-6 0.8553676 -0.5180215 1.13063e-5 0.9635103 -0.2676716 -1.03799e-5 0.9635103 -0.2676716 6.51322e-6 0.9999968 0.002560615 6.02007e-6 0.8553531 -0.5180454 -8.6613e-6 0.9635092 -0.2676758 1.15866e-5 0.9635092 -0.2676758 -6.51549e-6 0.9999969 0.002540647 -1.16151e-5 0.9999969 0.002540647 6.51322e-6 0.9621191 0.2726294 8.706e-6 0.9635105 -0.2676711 -6.02007e-6 0.9999967 0.002561211 1.03799e-5 0.9999967 0.002561271 -6.51322e-6 0.9621224 0.2726179 -1.16679e-5 0.9621224 0.2726179 6.51549e-6 0.8527079 0.5223882 8.80659e-6 0.9999969 0.002540647 -8.706e-6 0.9621192 0.2726294 1.16192e-5 0.9621192 0.2726294 -6.51549e-6 0.8527112 0.5223827 -1.0006e-5 0.8527112 0.5223827 6.51322e-6 0.6798934 0.733311 5.20423e-6 0.9621223 0.2726184 -8.81404e-6 0.8527075 0.5223886 1.16598e-5 0.8527076 0.5223886 -4.57326e-5 0.6798917 0.7333126 -1.00908e-5 0.6798917 0.7333126 6.51549e-6 0.4564762 0.8897356 5.4203e-6 0.8527112 0.5223827 -5.21168e-6 0.6798934 0.733311 1.0006e-5 0.6798934 0.733311 -6.51322e-6 0.4564979 0.8897245 -1.18752e-5 0.4564979 0.8897245 6.51322e-6 0.1991776 0.9799634 9.2499e-6 0.6798917 0.7333126 -5.41657e-6 0.4564762 0.8897356 1.00873e-5 0.4564762 0.8897356 -6.51322e-6 0.1991764 0.9799637 -9.85977e-6 0.1991764 0.9799637 6.51322e-6 -0.07300186 0.9973319 4.89876e-6 0.456498 0.8897246 -9.2499e-6 0.1991778 0.9799635 1.18752e-5 0.1991778 0.9799635 -6.51322e-6 -0.07299894 0.997332 -1.11886e-5 -0.07299894 0.997332 6.51095e-6 -0.3397022 0.9405331 7.81938e-6 0.1991764 0.9799637 -4.89876e-6 -0.07300186 0.9973319 9.8632e-6 -0.07300186 0.9973319 -4.57645e-5 -0.33972 0.9405267 -1.13753e-5 -0.33972 0.9405267 6.51549e-6 -0.5811616 0.8137881 8.20681e-6 -0.07299894 0.9973321 -7.81193e-6 -0.3397022 0.9405331 1.11964e-5 -0.3397022 0.9405331 -6.51549e-6 -0.5811604 0.813789 -1.16273e-5 -0.5811604 0.813789 6.51095e-6 -0.7793892 0.6265402 8.73581e-6 -0.3397198 0.9405268 -8.21054e-6 -0.5811616 0.8137882 1.13674e-5 -0.5811615 0.8137882 -4.57326e-5 -0.7793937 0.6265345 1.18912e-5 -0.7793937 0.6265345 6.51549e-6 -0.9196867 0.3926531 9.54419e-6 -0.5811603 0.8137891 -8.7209e-6 -0.779389 0.6265403 1.16354e-5 -0.779389 0.6265403 -6.51549e-6 -0.9196881 0.3926499 -1.16639e-5 -0.9196881 0.3926499 4.57486e-5 -0.9915652 0.1296092 8.81031e-6 -0.7793941 0.6265341 -9.55537e-6 -0.919687 0.3926526 -1.18871e-5 -0.919687 0.3926526 -6.51322e-6 -0.9915651 0.1296098 1.19563e-5 -0.9915651 0.1296098 6.51549e-6 -0.989706 -0.1431156 9.39518e-6 -0.9196882 0.3926494 -8.79913e-6 -0.9915652 0.1296086 1.16639e-5 -0.9915652 0.1296086 -6.51322e-6 -0.9897047 -0.1431249 1.14808e-5 -0.9897047 -0.1431249 6.51322e-6 -0.9142262 -0.4052044 1.0442e-5 -0.9915651 0.1296098 -9.39518e-6 -0.989706 -0.1431156 -1.19521e-5 -0.989706 -0.1431156 -6.51322e-6 -0.3921998 -0.9198801 0 -0.3921991 -0.9198805 0 -0.9897047 -0.1431249 -1.04383e-5 -0.9142262 -0.4052044 -1.14848e-5 -0.9142262 -0.4052044 -6.51549e-6 -0.6883468 -0.7253819 0 -0.6883466 -0.725382 0 -0.9900013 -0.1410588 0 -0.5831292 -0.8123795 9.12719e-6 -0.5831292 -0.8123795 6.30217e-6 -0.350405 -0.9365983 -5.50225e-6 -0.3503959 -0.9366017 9.65841e-6 -0.3503959 -0.9366017 6.2999e-6 -0.09328609 -0.9956395 -6.66827e-6 -0.5831291 -0.8123796 5.50225e-6 -0.3504049 -0.9365984 -9.1239e-6 -0.3504049 -0.9365984 -6.2999e-6 -0.3503959 -0.9366017 6.66454e-6 -0.09328609 -0.9956394 -9.66189e-6 -0.09328603 -0.9956394 -6.30217e-6 0 0 1 0 0 1 0 0 1 2.50473e-7 0 1 1.36969e-7 0 1 -2.73835e-7 0 1 3.04448e-7 0 1 0 0 1 1.2595e-7 0 1 -2.50165e-7 0 1 -2.80451e-7 0 1 1.81944e-7 0 1 0 0 1 0 0 1 0 0 1 0 0 1 0 0 1 0 0 1 0 0 1</float_array>
          <technique_common>
            <accessor source="#mtc_robot_side-mesh-normals-array" count="268" stride="3">
              <param name="X" type="float"/>
              <param name="Y" type="float"/>
              <param name="Z" type="float"/>
            </accessor>
          </technique_common>
        </source>
        <source id="mtc_robot_side-mesh-map-0">
          <float_array id="mtc_robot_side-mesh-map-0-array" count="1080">0.326844 0 0.269224 0 0.265956 0 0.269224 0.412578 0.265956 0 0.269224 0 0.133886 0 0.326844 0 0.265956 0 0.177913 0 0.133886 0 0.265956 0 0.221936 0 0.177913 0 0.265956 0 0.221936 0.419651 0.221936 0 0.265956 0 0.265956 0.419651 0.265956 0 0.269224 0.412578 0.221936 0.419651 0.265956 0 0.265956 0.419651 0.326844 0 0.234139 0 0.269224 0 0.269224 0.412578 0.269224 0 0.234139 0 0.176599 0 0.19919 0 0.234139 0 0.234139 0.410918 0.234139 0 0.19919 0 0.326844 0 0.176599 0 0.234139 0 0.269224 0.412578 0.234139 0 0.234139 0.410918 0.136838 0 0.164339 0 0.19919 0 0.19919 0.40965 0.19919 0 0.164339 0 0.176599 0 0.136838 0 0.19919 0 0.234139 0.410918 0.19919 0 0.19919 0.40965 0.109023 0 0.129541 0 0.164339 0 0.164339 0.408836 0.164339 0 0.129541 0 0.136838 0 0.109023 0 0.164339 0 0.19919 0.40965 0.164339 0 0.164339 0.408836 0.07604598 0 0.105305 0 0.129541 0 0.129541 0.408492 0.129541 0 0.105305 0 0.07768499 0 0.07604598 0 0.129541 0 0.08007198 0 0.07768499 0 0.129541 0 0.082879 0 0.08007198 0 0.129541 0 0.109023 0 0.082879 0 0.129541 0 0.164339 0.408836 0.129541 0 0.129541 0.408492 0.07588899 0 0.08669 0 0.105305 0 0.105308 0.396559 0.105305 0 0.08669 0 0.07539898 0 0.07588899 0 0.105305 0 0.07604598 0 0.07539898 0 0.105305 0 0.129541 0.408492 0.105305 0 0.105308 0.396559 0.08668696 0.367108 0.08669 0 0.07588899 0 0.105308 0.396559 0.08669 0 0.08668696 0.367108 0.07588899 0.331814 0.07588899 0 0.07539898 0 0.08668696 0.367108 0.07588899 0 0.07588899 0.331814 0.07604396 0.320975 0.07539898 0 0.07604598 0 0.07539796 0.326284 0.07539898 0 0.07604396 0.320975 0.07588899 0.331814 0.07539898 0 0.07539796 0.326284 0.07767796 0.316597 0.07604598 0 0.07768499 0 0.07604396 0.320975 0.07604598 0 0.07767796 0.316597 0.08006095 0.31362 0.07768499 0 0.08007198 0 0.07767796 0.316597 0.07768499 0 0.08006095 0.31362 0.08286899 0.312352 0.08007198 0 0.082879 0 0.08006095 0.31362 0.08007198 0 0.08286899 0.312352 0.109023 0 0.08574497 0 0.082879 0 0.08573997 0.31292 0.082879 0 0.08574497 0 0.08286899 0.312352 0.082879 0 0.08573997 0.31292 0.109023 0 0.08832895 0 0.08574497 0 0.088328 0.315274 0.08574497 0 0.08832895 0 0.08573997 0.31292 0.08574497 0 0.088328 0.315274 0.109023 0 0.09028595 0 0.08832895 0 0.088328 0.315274 0.08832895 0 0.09028595 0 0.09028595 0.319174 0.09028595 0 0.109023 0 0.088328 0.315274 0.09028595 0 0.09028595 0.319174 0.109021 0.355144 0.109023 0 0.136838 0 0.09028595 0.319174 0.109023 0 0.109021 0.355144 0.136838 0.373028 0.136838 0 0.176599 0 0.109021 0.355144 0.136838 0 0.136838 0.373028 0.326844 0 0.216318 0 0.176599 0 0.176599 0.375078 0.176599 0 0.216318 0 0.136838 0.373028 0.176599 0 0.176599 0.375078 0.293151 0 0.255345 0 0.216318 0 0.216318 0.372448 0.216318 0 0.255345 0 0.326844 0 0.293151 0 0.216318 0 0.176599 0.375078 0.216318 0 0.216318 0.372448 0.255345 0.365513 0.255345 0 0.293151 0 0.216318 0.372448 0.255345 0 0.255345 0.365513 0.326844 0.343505 0.293151 0 0.326844 0 0.293151 0.355159 0.293151 0 0.326844 0.343505 0.255345 0.365513 0.293151 0 0.293151 0.355159 0.133886 0 0.362731 0 0.326844 0 0.362731 0.419651 0.326844 0 0.362731 0 0.326844 0.343505 0.326844 0 0.362731 0.419651 0.107743 0 0.408251 0 0.362731 0 0.362731 0.419651 0.362731 0 0.408251 0 0.133886 0 0.107743 0 0.362731 0 0.04552197 0 0.45377 0 0.408251 0 0.408251 0.419651 0.408251 0 0.45377 0 0.06672096 0 0.04552197 0 0.408251 0 0.107743 0 0.06672096 0 0.408251 0 0.408251 0.419651 0.362731 0.419651 0.408251 0 0 0 0.499289 0 0.45377 0 0.45377 0.419651 0.45377 0 0.499289 0 0.04552197 0 0 0 0.45377 0 0.408251 0.419651 0.45377 0 0.45377 0.419651 1 0 0.544808 0 0.499289 0 0.499289 0.419651 0.499289 0 0.544808 0 0 0 1 0 0.499289 0 0.45377 0.419651 0.499289 0 0.499289 0.419651 0.954479 0 0.590326 0 0.544808 0 0.544808 0.419651 0.544808 0 0.590326 0 1 0 0.954479 0 0.544808 0 0.499289 0.419651 0.544808 0 0.544808 0.419651 0.908958 0 0.635844 0 0.590326 0 0.590326 0.419651 0.590326 0 0.635844 0 0.954479 0 0.908958 0 0.590326 0 0.544808 0.419651 0.590326 0 0.590326 0.419651 0.863438 0 0.681363 0 0.635844 0 0.635844 0.419651 0.635844 0 0.681363 0 0.908958 0 0.863438 0 0.635844 0 0.590326 0.419651 0.635844 0 0.635844 0.419651 0.817919 0 0.726881 0 0.681363 0 0.681363 0.419651 0.681363 0 0.726881 0 0.863438 0 0.817919 0 0.681363 0 0.635844 0.419651 0.681363 0 0.681363 0.419651 0.817919 0 0.7724 0 0.726881 0 0.726881 0.419651 0.726881 0 0.7724 0 0.681363 0.419651 0.726881 0 0.726881 0.419651 0.7724 0.419651 0.7724 0 0.817919 0 0.726881 0.419651 0.7724 0 0.7724 0.419651 0.817919 0.419651 0.817919 0 0.863438 0 0.7724 0.419651 0.817919 0 0.817919 0.419651 0.863438 0.419651 0.863438 0 0.908958 0 0.817919 0.419651 0.863438 0 0.863438 0.419651 0.908958 0.419651 0.908958 0 0.954479 0 0.863438 0.419651 0.908958 0 0.908958 0.419651 0.954479 0.419651 0.954479 0 1 0 0.908958 0.419651 0.954479 0 0.954479 0.419651 1 0.419651 1 0 0 0 0.954479 0.419651 1 0 1 0.419651 0 0.419651 0 0 0.04552197 0 1 0.419651 0 0 0 0.419651 0.06672096 0.459966 0.04552197 0 0.06672096 0 0.04552197 0.419651 0.04552197 0 0.06672096 0.459966 0 0.419651 0.04552197 0 0.04552197 0.419651 0.107743 0.474387 0.06672096 0 0.107743 0 0.06672096 0.459966 0.06672096 0 0.107743 0.474387 0.133886 0.419651 0.107743 0 0.133886 0 0.107743 0.474387 0.107743 0 0.133886 0.419651 0.133886 0.419651 0.133886 0 0.177913 0 0.177913 0.419651 0.177913 0 0.221936 0 0.133886 0.419651 0.177913 0 0.177913 0.419651 0.177913 0.419651 0.221936 0 0.221936 0.419651 0.269224 0.412578 0.326844 0.343505 0.362731 0.419651 0.265956 0.419651 0.269224 0.412578 0.362731 0.419651 0.177913 0.419651 0.265956 0.419651 0.362731 0.419651 0.133886 0.419651 0.177913 0.419651 0.362731 0.419651 0.107743 0.474387 0.133886 0.419651 0.362731 0.419651 0.408251 0.419651 0.107743 0.474387 0.362731 0.419651 0.216318 0.372448 0.293151 0.355159 0.326844 0.343505 0.176599 0.375078 0.216318 0.372448 0.326844 0.343505 0.234139 0.410918 0.176599 0.375078 0.326844 0.343505 0.269224 0.412578 0.234139 0.410918 0.326844 0.343505 0.216318 0.372448 0.255345 0.365513 0.293151 0.355159 0.19919 0.40965 0.136838 0.373028 0.176599 0.375078 0.234139 0.410918 0.19919 0.40965 0.176599 0.375078 0.164339 0.408836 0.109021 0.355144 0.136838 0.373028 0.19919 0.40965 0.164339 0.408836 0.136838 0.373028 0.129541 0.408492 0.09028595 0.319174 0.109021 0.355144 0.164339 0.408836 0.129541 0.408492 0.109021 0.355144 0.129541 0.408492 0.088328 0.315274 0.09028595 0.319174 0.129541 0.408492 0.08573997 0.31292 0.088328 0.315274 0.129541 0.408492 0.08286899 0.312352 0.08573997 0.31292 0.129541 0.408492 0.08006095 0.31362 0.08286899 0.312352 0.105308 0.396559 0.07767796 0.316597 0.08006095 0.31362 0.129541 0.408492 0.105308 0.396559 0.08006095 0.31362 0.105308 0.396559 0.07604396 0.320975 0.07767796 0.316597 0.105308 0.396559 0.07539796 0.326284 0.07604396 0.320975 0.08668696 0.367108 0.07588899 0.331814 0.07539796 0.326284 0.105308 0.396559 0.08668696 0.367108 0.07539796 0.326284 0.177913 0.419651 0.221936 0.419651 0.265956 0.419651 0.408251 0.419651 0.06672096 0.459966 0.107743 0.474387 0.45377 0.419651 0.04552197 0.419651 0.06672096 0.459966 0.408251 0.419651 0.45377 0.419651 0.06672096 0.459966 0.45377 0.419651 0 0.419651 0.04552197 0.419651 0.499289 0.419651 1 0.419651 0 0.419651 0.45377 0.419651 0.499289 0.419651 0 0.419651 0.544808 0.419651 0.954479 0.419651 1 0.419651 0.499289 0.419651 0.544808 0.419651 1 0.419651 0.590326 0.419651 0.908958 0.419651 0.954479 0.419651 0.544808 0.419651 0.590326 0.419651 0.954479 0.419651 0.635844 0.419651 0.863438 0.419651 0.908958 0.419651 0.590326 0.419651 0.635844 0.419651 0.908958 0.419651 0.681363 0.419651 0.817919 0.419651 0.863438 0.419651 0.635844 0.419651 0.681363 0.419651 0.863438 0.419651 0.726881 0.419651 0.7724 0.419651 0.817919 0.419651 0.681363 0.419651 0.726881 0.419651 0.817919 0.419651</float_array>
          <technique_common>
            <accessor source="#mtc_robot_side-mesh-map-0-array" count="540" stride="2">
              <param name="S" type="float"/>
              <param name="T" type="float"/>
            </accessor>
          </technique_common>
        </source>
        <vertices id="mtc_robot_side-mesh-vertices">
          <input semantic="POSITION" source="#mtc_robot_side-mesh-positions"/>
        </vertices>
        <triangles material="DEFAULT_MTL-material" count="180">
          <input semantic="VERTEX" source="#mtc_robot_side-mesh-vertices" offset="0"/>
          <input semantic="NORMAL" source="#mtc_robot_side-mesh-normals" offset="1"/>
          <input semantic="TEXCOORD" source="#mtc_robot_side-mesh-map-0" offset="2" set="2"/>
          <p>53 0 0 3 0 1 0 0 2 160 1 3 2 1 4 5 1 5 98 0 6 53 0 7 0 0 8 101 0 9 98 0 10 0 0 11 103 0 12 101 0 13 0 0 14 165 2 15 104 3 16 1 4 17 163 5 18 2 5 19 160 5 20 165 6 21 1 7 22 162 8 23 53 0 24 6 0 25 3 0 26 159 9 27 4 10 28 7 11 29 44 0 30 8 0 31 6 0 32 157 12 33 7 13 34 9 14 35 53 0 36 44 0 37 6 0 38 159 15 39 7 16 40 157 17 41 41 0 42 10 0 43 8 0 44 155 18 45 9 19 46 11 20 47 44 0 48 41 0 49 8 0 50 157 21 51 9 22 52 155 23 53 39 0 54 12 0 55 10 0 56 153 24 57 11 25 58 14 26 59 41 0 60 39 0 61 10 0 62 155 27 63 11 28 64 153 29 65 24 0 66 15 0 67 12 0 68 150 30 69 13 31 70 16 32 71 26 0 72 24 0 73 12 0 74 28 0 75 26 0 76 12 0 77 30 0 78 28 0 79 12 0 80 39 0 81 30 0 82 12 0 83 153 33 84 14 34 85 151 35 86 19 0 87 17 0 88 15 0 89 148 36 90 16 37 91 18 38 92 22 0 93 19 0 94 15 0 95 24 0 96 22 0 97 15 0 98 150 39 99 16 40 100 148 41 101 146 42 102 18 43 103 21 44 104 148 45 105 18 46 106 146 47 107 143 48 108 20 49 109 23 50 110 146 51 111 21 52 112 144 53 113 139 54 114 23 55 115 25 56 116 141 57 117 23 58 118 139 59 119 143 60 120 23 61 121 141 62 122 137 63 123 25 64 124 27 65 125 139 66 126 25 67 127 137 68 128 135 69 129 27 70 130 29 71 131 137 72 132 27 73 133 135 74 134 133 75 135 29 76 136 31 77 137 135 78 138 29 79 139 133 80 140 39 0 141 32 0 142 30 0 143 131 81 144 31 82 145 33 83 146 133 84 147 31 85 148 131 86 149 39 0 150 34 0 151 32 0 152 129 87 153 33 88 154 35 89 155 131 90 156 33 91 157 129 92 158 39 0 159 36 0 160 34 0 161 129 93 162 35 94 163 38 95 164 126 96 165 37 97 166 40 98 167 129 99 168 38 100 169 127 101 170 124 102 171 40 103 172 43 104 173 126 105 174 40 106 175 124 107 176 121 108 177 42 109 178 45 110 179 124 111 180 43 112 181 122 104 182 53 0 183 46 0 184 44 0 185 119 113 186 45 114 187 47 115 188 121 116 189 45 117 190 119 118 191 50 0 192 48 0 193 46 0 194 117 119 195 47 120 196 49 121 197 53 0 198 50 0 199 46 0 200 119 122 201 47 123 202 117 124 203 115 125 204 49 126 205 52 127 206 117 128 207 49 129 208 115 130 209 110 131 210 51 131 211 55 131 212 112 131 213 51 131 214 110 131 215 115 132 216 52 133 217 113 134 218 98 0 219 56 0 220 53 0 221 107 135 222 54 135 223 58 135 224 109 135 225 54 135 226 107 135 227 95 0 228 59 0 229 56 0 230 106 136 231 57 137 232 60 138 233 98 0 234 95 0 235 56 0 236 89 0 237 61 0 238 59 0 239 209 139 240 60 140 241 62 141 242 92 0 243 89 0 244 59 0 245 95 0 246 92 0 247 59 0 248 209 142 249 106 143 250 60 144 251 87 0 252 63 0 253 61 0 254 207 145 255 62 146 256 64 147 257 89 0 258 87 0 259 61 0 260 209 148 261 62 149 262 207 150 263 85 0 264 65 0 265 63 0 266 205 151 267 64 152 268 66 153 269 87 0 270 85 0 271 63 0 272 207 154 273 64 155 274 205 156 275 83 0 276 67 0 277 65 0 278 203 157 279 66 158 280 68 159 281 85 0 282 83 0 283 65 0 284 205 160 285 66 161 286 203 162 287 81 0 288 69 0 289 67 0 290 201 163 291 68 164 292 70 165 293 83 0 294 81 0 295 67 0 296 203 166 297 68 167 298 201 168 299 79 0 300 71 0 301 69 0 302 199 169 303 70 170 304 72 171 305 81 0 306 79 0 307 69 0 308 201 172 309 70 173 310 199 174 311 77 0 312 73 0 313 71 0 314 197 175 315 72 176 316 74 177 317 79 0 318 77 0 319 71 0 320 199 178 321 72 179 322 197 180 323 77 0 324 75 0 325 73 0 326 195 181 327 74 182 328 76 183 329 197 184 330 74 185 331 195 186 332 193 187 333 76 188 334 78 189 335 195 190 336 76 191 337 193 192 338 191 193 339 78 194 340 80 195 341 193 196 342 78 197 343 191 198 344 189 199 345 80 200 346 82 201 347 191 202 348 80 203 349 189 204 350 187 205 351 82 206 352 84 207 353 189 208 354 82 209 355 187 210 356 185 211 357 84 212 358 86 213 359 187 214 360 84 215 361 185 216 362 183 217 363 86 218 364 88 219 365 185 220 366 86 221 367 183 222 368 181 223 369 88 224 370 90 225 371 183 226 372 88 227 373 181 228 374 175 229 375 91 229 376 93 229 377 179 230 378 91 230 379 175 230 380 181 231 381 90 232 382 178 233 383 172 234 384 94 234 385 96 234 386 176 235 387 94 235 388 172 235 389 170 236 390 97 236 391 100 236 392 173 236 393 97 236 394 170 236 395 169 237 396 99 238 397 102 239 398 167 240 399 102 241 400 104 242 401 169 243 402 102 244 403 167 245 404 167 246 405 104 247 406 165 248 407 158 249 408 108 249 409 105 249 410 161 249 411 158 249 412 105 249 413 166 249 414 161 249 415 105 249 416 168 249 417 166 249 418 105 249 419 171 249 420 168 249 421 105 249 422 208 249 423 171 249 424 105 249 425 116 249 426 111 249 427 108 249 428 118 250 429 116 250 430 108 250 431 156 251 432 118 251 433 108 251 434 158 249 435 156 249 436 108 249 437 116 249 438 114 249 439 111 249 440 154 249 441 120 249 442 118 249 443 156 249 444 154 249 445 118 249 446 152 252 447 123 252 448 120 252 449 154 253 450 152 253 451 120 253 452 149 254 453 125 254 454 123 254 455 152 249 456 149 249 457 123 249 458 149 255 459 128 255 460 125 255 461 149 256 462 130 256 463 128 256 464 149 257 465 132 257 466 130 257 467 149 249 468 134 249 469 132 249 470 147 258 471 136 258 472 134 258 473 149 249 474 147 249 475 134 249 476 147 259 477 138 259 478 136 259 479 147 260 480 140 260 481 138 260 482 145 249 483 142 249 484 140 249 485 147 249 486 145 249 487 140 249 488 166 261 489 164 261 490 161 261 491 208 262 492 174 262 493 171 262 494 206 263 495 177 263 496 174 263 497 208 249 498 206 249 499 174 249 500 206 249 501 180 249 502 177 249 503 204 264 504 182 264 505 180 264 506 206 249 507 204 249 508 180 249 509 202 265 510 184 265 511 182 265 512 204 249 513 202 249 514 182 249 515 200 249 516 186 249 517 184 249 518 202 249 519 200 249 520 184 249 521 198 249 522 188 249 523 186 249 524 200 249 525 198 249 526 186 249 527 196 266 528 190 266 529 188 266 530 198 249 531 196 249 532 188 249 533 194 249 534 192 249 535 190 249 536 196 267 537 194 267 538 190 267 539</p>
        </triangles>
      </mesh>
    </geometry>
  </library_geometries>
  <library_visual_scenes>
    <visual_scene id="Scene" name="Scene">
      <node id="mtc_robot_side" name="mtc_robot_side" type="NODE">
        <matrix sid="transform">1 0 0 0 0 1 0 0 0 0 1 0 0 0 0 1</matrix>
        <instance_geometry url="#mtc_robot_side-mesh" name="mtc_robot_side">
          <bind_material>
            <technique_common>
              <instance_material symbol="DEFAULT_MTL-material" target="#DEFAULT_MTL-material">
                <bind_vertex_input semantic="UVMap" input_semantic="TEXCOORD" input_set="0"/>
              </instance_material>
            </technique_common>
          </bind_material>
        </instance_geometry>
      </node>
    </visual_scene>
  </library_visual_scenes>
  <scene>
    <instance_visual_scene url="#Scene"/>
  </scene>
</COLLADA>